%
T1C.01181F095S3
X012953Y-030945
X019646Y-030945
X026339Y-030945
X033031Y-030945
X039724Y-030945
X046417Y-030945
X05311Y-030945
X059803Y-030945
X060591Y-027008
X059803Y-028189
X059213Y-027106
X053898Y-027008
X05311Y-028189
X05252Y-027106
X047205Y-027008
X046417Y-028189
X045827Y-027106
X040512Y-027008
X039724Y-028189
X039134Y-027106
X033819Y-027008
X033031Y-028189
X032441Y-027106
X027126Y-027008
X026339Y-028189
X025748Y-027106
X020433Y-027008
X019646Y-028189
X019055Y-027106
X01374Y-027008
X012953Y-028189
X012362Y-027106
X012362Y-024941
X01374Y-025827
X015202Y-025055
X016102Y-025055
X017002Y-025055
X019055Y-024941
X020433Y-025827
X021895Y-025055
X022795Y-025055
X023695Y-025055
X025748Y-024941
X027126Y-025827
X028588Y-025055
X029488Y-025055
X030388Y-025055
X032441Y-024941
X033819Y-025827
X035281Y-025055
X036181Y-025055
X037081Y-025055
X039134Y-024941
X040512Y-025827
X041974Y-025055
X042874Y-025055
X043774Y-025055
X045827Y-024941
X047205Y-025827
X048667Y-025055
X049567Y-025055
X050467Y-025055
X05252Y-024941
X053898Y-025827
X05536Y-025055
X05626Y-025055
X05716Y-025055
X059213Y-024941
X060591Y-025827
X062053Y-025055
X062953Y-025055
X063853Y-025055
X062953Y-02258
X060197Y-023661
X059016Y-023661
X05626Y-02258
X053504Y-023661
X052323Y-023661
X049567Y-02258
X046811Y-023661
X04563Y-023661
X042874Y-02258
X040118Y-023661
X038937Y-023661
X036181Y-02258
X033425Y-023661
X032244Y-023661
X029488Y-02258
X026732Y-023661
X025551Y-023661
X022795Y-02258
X020039Y-023661
X018858Y-023661
X016102Y-02258
X013346Y-023661
X012165Y-023661
X014528Y-020709
X014528Y-019528
X015315Y-020709
X015315Y-019528
X01654Y-020668
X01689Y-019528
X01724Y-020668
X02122Y-020709
X02122Y-019528
X022008Y-020709
X022008Y-019528
X023233Y-020668
X023583Y-019528
X023933Y-020668
X027913Y-020709
X027913Y-019528
X028701Y-020709
X028701Y-019528
X029926Y-020668
X030276Y-019528
X030626Y-020668
X034606Y-020709
X034606Y-019528
X035394Y-020709
X035394Y-019528
X036619Y-020668
X036969Y-019528
X037319Y-020668
X041299Y-020709
X041299Y-019528
X042087Y-020709
X042087Y-019528
X043311Y-020668
X043661Y-019528
X044011Y-020668
X047992Y-020709
X047992Y-019528
X04878Y-020709
X04878Y-019528
X050004Y-020668
X050354Y-019528
X050704Y-020668
X054685Y-020709
X054685Y-019528
X055472Y-020709
X055472Y-019528
X056697Y-020668
X057047Y-019528
X057397Y-020668
X061378Y-020709
X061378Y-019528
X062165Y-019528
X062165Y-020709
X06339Y-020668
X06374Y-019528
X06409Y-020668
X059803Y-014409
X05311Y-014409
X046417Y-014409
X039724Y-014409
X033031Y-014409
X026339Y-014409
X019646Y-014409
X012953Y-014409
X012362Y-010669
X012953Y-011654
X01374Y-010472
X019055Y-010571
X019646Y-011654
X020433Y-010472
X025748Y-010571
X026339Y-011654
X027126Y-010472
X032441Y-010571
X033031Y-011654
X033819Y-010472
X039134Y-010571
X039724Y-011654
X040512Y-010472
X045827Y-010571
X046417Y-011654
X047205Y-010472
X05252Y-010571
X05311Y-011654
X053898Y-010472
X059213Y-010571
X059803Y-011654
X060591Y-010472
X063853Y-00852
X062953Y-00852
X062053Y-00852
X060591Y-009291
X060197Y-007126
X059213Y-008406
X059016Y-007126
X05716Y-00852
X05626Y-00852
X05536Y-00852
X053898Y-009291
X053504Y-007126
X05252Y-008406
X052323Y-007126
X050467Y-00852
X049567Y-00852
X048667Y-00852
X047205Y-009291
X046811Y-007126
X045827Y-008406
X04563Y-007126
X043774Y-00852
X042874Y-00852
X041974Y-00852
X040512Y-009291
X040118Y-007126
X039134Y-008406
X038937Y-007126
X037081Y-00852
X036181Y-00852
X035281Y-00852
X033819Y-009291
X033425Y-007126
X032441Y-008406
X032244Y-007126
X030388Y-00852
X029488Y-00852
X028588Y-00852
X027126Y-009291
X026732Y-007126
X025748Y-008406
X025551Y-007126
X023695Y-00852
X022795Y-00852
X021895Y-00852
X020433Y-009291
X020039Y-007126
X019055Y-008406
X018858Y-007126
X017002Y-00852
X016102Y-00852
X015202Y-00852
X01374Y-009291
X013346Y-007126
X012362Y-008504
X012165Y-007126
X014528Y-004173
X014528Y-002992
X015315Y-004173
X015315Y-002992
X016102Y-006045
X01654Y-004133
X01689Y-002992
X01724Y-004133
X02122Y-004173
X02122Y-002992
X022008Y-002992
X022008Y-004173
X022795Y-006045
X023233Y-004133
X023583Y-002992
X023933Y-004133
X027913Y-004173
X027913Y-002992
X028701Y-004173
X028701Y-002992
X029488Y-006045
X029926Y-004133
X030276Y-002992
X030626Y-004133
X034606Y-002992
X034606Y-004173
X035394Y-004173
X035394Y-002992
X036181Y-006045
X036619Y-004133
X036969Y-002992
X037319Y-004133
X041299Y-002992
X041299Y-004173
X042087Y-004173
X042087Y-002992
X042874Y-006045
X043311Y-004133
X043661Y-002992
X044011Y-004133
X047992Y-004173
X047992Y-002992
X04878Y-004173
X04878Y-002992
X049567Y-006045
X050004Y-004133
X050354Y-002992
X050704Y-004133
X054685Y-004173
X054685Y-002992
X055472Y-004173
X055472Y-002992
X05626Y-006045
X056697Y-004133
X057047Y-002992
X057397Y-004133
X061378Y-004173
X061378Y-002992
X062165Y-004173
X062165Y-002992
X062953Y-006045
X06339Y-004133
X06374Y-002992
X06409Y-004133
X044449Y000354
X044449Y-000827
X043996Y001142
X043465Y000354
X043465Y-000827
X04248Y-000827
X04248Y000354
X041929Y000748
X037362Y000354
X037362Y-000827
X036909Y001142
X036378Y000354
X036378Y-000827
X035394Y-000827
X035394Y000354
X034843Y000748
X030276Y-000827
X030276Y000354
X029823Y001142
X029291Y-000827
X029291Y000354
X028307Y000354
X028307Y-000827
X027756Y000748
X020236Y005276
X020236Y004094
X02122Y004094
X02122Y005276
X022795Y003701
X022795Y005669
X027717Y005472
X028898Y005472
X029331Y003307
X029882Y005472
X030866Y005472
X034803Y005472
X036024Y005472
X036417Y003307
X036969Y005472
X037953Y005472
X04189Y005472
X045039Y005472
X047992Y005669
X047992Y003701
X049567Y004094
X049567Y005276
X050354Y004094
X050354Y005276
X045039Y006654
X04189Y006654
X037953Y006654
X036969Y006654
X036024Y006654
X034803Y006654
X030866Y006654
X029882Y006654
X028898Y006654
X027717Y006654
T2C.03543F197S55
X014921Y-032717
X017283Y-03311
X021614Y-032717
X023976Y-03311
X028307Y-032717
X030669Y-03311
X035Y-032717
X037362Y-03311
X041693Y-032717
X044055Y-03311
X048386Y-032717
X050748Y-03311
X055079Y-032717
X057441Y-03311
X061772Y-032717
X064134Y-03311
X063937Y-030748
X063937Y-027598
X061969Y-030748
X061969Y-027598
X057244Y-030748
X057244Y-027598
X055276Y-030748
X055276Y-027598
X050551Y-030748
X050551Y-027598
X048583Y-030748
X048583Y-027598
X043858Y-030748
X043858Y-027598
X04189Y-030748
X04189Y-027598
X037165Y-030748
X037165Y-027598
X035197Y-030748
X035197Y-027598
X030472Y-027598
X030472Y-030748
X028504Y-027598
X028504Y-030748
X02378Y-027598
X02378Y-030748
X021811Y-027598
X021811Y-030748
X017087Y-030748
X017087Y-027598
X015118Y-030748
X015118Y-027598
X012165Y-02248
X013165Y-02248
X018858Y-02248
X019858Y-02248
X025551Y-02248
X026551Y-02248
X032244Y-02248
X033244Y-02248
X038937Y-02248
X039937Y-02248
X04563Y-02248
X04663Y-02248
X052323Y-02248
X053323Y-02248
X059016Y-02248
X060016Y-02248
X060016Y-01948
X059016Y-01948
X053323Y-01948
X052323Y-01948
X04663Y-01948
X04563Y-01948
X039937Y-01948
X038937Y-01948
X033244Y-01948
X032244Y-01948
X026551Y-01948
X025551Y-01948
X019858Y-01948
X018858Y-01948
X013165Y-01948
X012165Y-01948
X014921Y-016181
X015118Y-014213
X017087Y-014213
X017283Y-016575
X021614Y-016181
X021811Y-014213
X02378Y-014213
X023976Y-016575
X028307Y-016181
X028504Y-014213
X030472Y-014213
X030669Y-016575
X035Y-016181
X035197Y-014213
X037165Y-014213
X037362Y-016575
X041693Y-016181
X04189Y-014213
X043858Y-014213
X044055Y-016575
X048386Y-016181
X048583Y-014213
X050551Y-014213
X050748Y-016575
X055079Y-016181
X055276Y-014213
X057244Y-014213
X057441Y-016575
X061772Y-016181
X061969Y-014213
X063937Y-014213
X064134Y-016575
X063937Y-011063
X061969Y-011063
X057244Y-011063
X055276Y-011063
X050551Y-011063
X048583Y-011063
X043858Y-011063
X04189Y-011063
X037165Y-011063
X035197Y-011063
X030472Y-011063
X028504Y-011063
X02378Y-011063
X021811Y-011063
X017087Y-011063
X015118Y-011063
X012165Y-005945
X012165Y-002945
X013165Y-005945
X013165Y-002945
X018858Y-005945
X018858Y-002945
X019858Y-002945
X019858Y-005945
X025551Y-005945
X025551Y-002945
X026551Y-002945
X026551Y-005945
X032244Y-005945
X032244Y-002945
X033244Y-002945
X033244Y-005945
X038937Y-005945
X038937Y-002945
X039937Y-002945
X039937Y-005945
X04563Y-005945
X04563Y-002945
X04663Y-002945
X04663Y-005945
X052323Y-002945
X052323Y-005945
X053323Y-005945
X053323Y-002945
X059016Y-002945
X059016Y-005945
X060016Y-005945
X060016Y-002945
T3C.04F139S55
X026071Y-038319
X026071Y-039319
X027071Y-038319
X027071Y-039319
X028071Y-038319
X028071Y-039319
X029071Y-038319
X029071Y-039319
X030071Y-038319
X030071Y-039319
X031071Y-038319
X031071Y-039319
X032071Y-038319
X032071Y-039319
X033071Y-038319
X033071Y-039319
X034071Y-038319
X034071Y-039319
X035071Y-038319
X035071Y-039319
X036071Y-038319
X036071Y-039319
X037071Y-038319
X037071Y-039319
X038071Y-038319
X038071Y-039319
X039071Y-038319
X039071Y-039319
X040071Y-038319
X040071Y-039319
X041071Y-038319
X041071Y-039319
X042071Y-038319
X042071Y-039319
X043071Y-038319
X043071Y-039319
X044071Y-038319
X044071Y-039319
X045071Y-038319
X045071Y-039319
X046071Y-038319
X046071Y-039319
X047071Y-038319
X047071Y-039319
X048071Y-038319
X048071Y-039319
X049071Y-038319
X049071Y-039319
X050071Y-038319
X050071Y-039319
X050071Y009319
X050071Y008319
X049071Y009319
X049071Y008319
X048071Y009319
X048071Y008319
X047071Y009319
X047071Y008319
X046071Y009319
X046071Y008319
X045071Y009319
X045071Y008319
X044071Y009319
X044071Y008319
X043071Y009319
X043071Y008319
X042071Y009319
X042071Y008319
X041071Y009319
X041071Y008319
X040071Y009319
X040071Y008319
X039071Y009319
X039071Y008319
X038071Y009319
X038071Y008319
X037071Y009319
X037071Y008319
X036071Y009319
X036071Y008319
X035071Y009319
X035071Y008319
X034071Y009319
X034071Y008319
X033071Y009319
X033071Y008319
X032071Y009319
X032071Y008319
X031071Y009319
X031071Y008319
X030071Y009319
X030071Y008319
X029071Y009319
X029071Y008319
X028071Y009319
X028071Y008319
X027071Y009319
X027071Y008319
X026071Y009319
X026071Y008319
T4C.12598F035S794
X011575Y-038425
X064567Y-038425
X064567Y008425
X011575Y008425
M30
