*
*
G04 PADS Layout (Build Number 2005.266.2) generated Gerber (RS-274-X) file*
G04 PC Version=2.1*
*
%IN "cece_module_isoinput_10"*%
*
%MOMM*%
*
%FSLAX35Y35*%
*
*
*
*
G04 PC Standard Apertures*
*
*
G04 Thermal Relief Aperture macro.*
%AMTER*
1,1,$1,0,0*
1,0,$1-$2,0,0*
21,0,$3,$4,0,0,45*
21,0,$3,$4,0,0,135*
%
*
*
G04 Annular Aperture macro.*
%AMANN*
1,1,$1,0,0*
1,0,$2,0,0*
%
*
*
G04 Odd Aperture macro.*
%AMODD*
1,1,$1,0,0*
1,0,$1-0.005,0,0*
%
*
*
G04 PC Custom Aperture Macros*
*
*
*
*
*
*
G04 PC Aperture Table*
*
%ADD058C,0.254*%
%ADD079R,1.65X1.65*%
%ADD084R,1.4724X1.4724*%
%ADD085C,1.4724*%
%ADD089C,1.65*%
%ADD102R,2.05X2.05*%
%ADD109C,0.85*%
%ADD110C,1.05*%
%ADD111C,0.6596*%
%ADD112C,4.55*%
*
*
*
*
G04 PC Custom Flashes*
G04 Layer Name cece_module_isoinput_10 - flashes*
%LPD*%
*
*
G04 PC Circuitry*
G04 Layer Name cece_module_isoinput_10 - circuitry*
%LPD*%
*
G54D58*
G01X29860200Y24260200D02*
Y24339800D01*
X29939800*
Y24260200*
X29860200*
X29939800*
X29860200Y24285600D02*
X29939800D01*
X29860200Y24311000D02*
X29939800D01*
X29860200Y24336400D02*
X29939800D01*
X29870400Y24260200D02*
Y24339800D01*
X29895800Y24260200D02*
Y24339800D01*
X29921200Y24260200D02*
Y24339800D01*
X29860200Y24539800D02*
Y24460200D01*
X29939800*
Y24539800*
X29860200*
Y24460200D02*
X29939800D01*
X29860200Y24485600D02*
X29939800D01*
X29860200Y24511000D02*
X29939800D01*
X29860200Y24536400D02*
X29939800D01*
X29870400Y24460200D02*
Y24539800D01*
X29895800Y24460200D02*
Y24539800D01*
X29921200Y24460200D02*
Y24539800D01*
X31660200Y24260200D02*
Y24339800D01*
X31739800*
Y24260200*
X31660200*
X31739800*
X31660200Y24285600D02*
X31739800D01*
X31660200Y24311000D02*
X31739800D01*
X31660200Y24336400D02*
X31739800D01*
X31673800Y24260200D02*
Y24339800D01*
X31699200Y24260200D02*
Y24339800D01*
X31724600Y24260200D02*
Y24339800D01*
X31660200Y24539800D02*
Y24460200D01*
X31739800*
Y24539800*
X31660200*
Y24460200D02*
X31739800D01*
X31660200Y24485600D02*
X31739800D01*
X31660200Y24511000D02*
X31739800D01*
X31660200Y24536400D02*
X31739800D01*
X31673800Y24460200D02*
Y24539800D01*
X31699200Y24460200D02*
Y24539800D01*
X31724600Y24460200D02*
Y24539800D01*
X33460200Y24260200D02*
Y24339800D01*
X33539800*
Y24260200*
X33460200*
X33539800*
X33460200Y24285600D02*
X33539800D01*
X33460200Y24311000D02*
X33539800D01*
X33460200Y24336400D02*
X33539800D01*
X33477200Y24260200D02*
Y24339800D01*
X33502600Y24260200D02*
Y24339800D01*
X33528000Y24260200D02*
Y24339800D01*
X33460200Y24539800D02*
Y24460200D01*
X33539800*
Y24539800*
X33460200*
Y24460200D02*
X33539800D01*
X33460200Y24485600D02*
X33539800D01*
X33460200Y24511000D02*
X33539800D01*
X33460200Y24536400D02*
X33539800D01*
X33477200Y24460200D02*
Y24539800D01*
X33502600Y24460200D02*
Y24539800D01*
X33528000Y24460200D02*
Y24539800D01*
X35689800Y23910200D02*
Y23989800D01*
X35610200*
Y23910200*
X35689800*
X35610200D02*
X35689800D01*
X35610200Y23935600D02*
X35689800D01*
X35610200Y23961000D02*
X35689800D01*
X35610200Y23986400D02*
X35689800D01*
X35610800Y23910200D02*
Y23989800D01*
X35636200Y23910200D02*
Y23989800D01*
X35661600Y23910200D02*
Y23989800D01*
X35687000Y23910200D02*
Y23989800D01*
X35689800Y24189800D02*
Y24110200D01*
X35610200*
Y24189800*
X35689800*
X35610200Y24110200D02*
X35689800D01*
X35610200Y24135600D02*
X35689800D01*
X35610200Y24161000D02*
X35689800D01*
X35610200Y24186400D02*
X35689800D01*
X35610800Y24110200D02*
Y24189800D01*
X35636200Y24110200D02*
Y24189800D01*
X35661600Y24110200D02*
Y24189800D01*
X35687000Y24110200D02*
Y24189800D01*
X35489800Y23910200D02*
Y23989800D01*
X35410200*
Y23910200*
X35489800*
X35410200D02*
X35489800D01*
X35410200Y23935600D02*
X35489800D01*
X35410200Y23961000D02*
X35489800D01*
X35410200Y23986400D02*
X35489800D01*
X35433000Y23910200D02*
Y23989800D01*
X35458400Y23910200D02*
Y23989800D01*
X35483800Y23910200D02*
Y23989800D01*
X35489800Y24189800D02*
Y24110200D01*
X35410200*
Y24189800*
X35489800*
X35410200Y24110200D02*
X35489800D01*
X35410200Y24135600D02*
X35489800D01*
X35410200Y24161000D02*
X35489800D01*
X35410200Y24186400D02*
X35489800D01*
X35433000Y24110200D02*
Y24189800D01*
X35458400Y24110200D02*
Y24189800D01*
X35483800Y24110200D02*
Y24189800D01*
X28289800Y23910200D02*
Y23989800D01*
X28210200*
Y23910200*
X28289800*
X28210200D02*
X28289800D01*
X28210200Y23935600D02*
X28289800D01*
X28210200Y23961000D02*
X28289800D01*
X28210200Y23986400D02*
X28289800D01*
X28219400Y23910200D02*
Y23989800D01*
X28244800Y23910200D02*
Y23989800D01*
X28270200Y23910200D02*
Y23989800D01*
X28289800Y24189800D02*
Y24110200D01*
X28210200*
Y24189800*
X28289800*
X28210200Y24110200D02*
X28289800D01*
X28210200Y24135600D02*
X28289800D01*
X28210200Y24161000D02*
X28289800D01*
X28210200Y24186400D02*
X28289800D01*
X28219400Y24110200D02*
Y24189800D01*
X28244800Y24110200D02*
Y24189800D01*
X28270200Y24110200D02*
Y24189800D01*
X28039800Y23910200D02*
Y23989800D01*
X27960200*
Y23910200*
X28039800*
X27960200D02*
X28039800D01*
X27960200Y23935600D02*
X28039800D01*
X27960200Y23961000D02*
X28039800D01*
X27960200Y23986400D02*
X28039800D01*
X27965400Y23910200D02*
Y23989800D01*
X27990800Y23910200D02*
Y23989800D01*
X28016200Y23910200D02*
Y23989800D01*
X28039800Y24189800D02*
Y24110200D01*
X27960200*
Y24189800*
X28039800*
X27960200Y24110200D02*
X28039800D01*
X27960200Y24135600D02*
X28039800D01*
X27960200Y24161000D02*
X28039800D01*
X27960200Y24186400D02*
X28039800D01*
X27965400Y24110200D02*
Y24189800D01*
X27990800Y24110200D02*
Y24189800D01*
X28016200Y24110200D02*
Y24189800D01*
X29489800Y15960200D02*
Y16114800D01*
X29310200*
Y15960200*
X29489800*
X29310200D02*
X29489800D01*
X29310200Y15985600D02*
X29489800D01*
X29310200Y16011000D02*
X29489800D01*
X29310200Y16036400D02*
X29489800D01*
X29310200Y16061800D02*
X29489800D01*
X29310200Y16087200D02*
X29489800D01*
X29310200Y16112600D02*
X29489800D01*
X29311600Y15960200D02*
Y16114800D01*
X29337000Y15960200D02*
Y16114800D01*
X29362400Y15960200D02*
Y16114800D01*
X29387800Y15960200D02*
Y16114800D01*
X29413200Y15960200D02*
Y16114800D01*
X29438600Y15960200D02*
Y16114800D01*
X29464000Y15960200D02*
Y16114800D01*
X29489400Y15960200D02*
Y16114800D01*
X29489800Y16539800D02*
Y16385200D01*
X29310200*
Y16539800*
X29489800*
X29310200Y16385200D02*
X29489800D01*
X29310200Y16410600D02*
X29489800D01*
X29310200Y16436000D02*
X29489800D01*
X29310200Y16461400D02*
X29489800D01*
X29310200Y16486800D02*
X29489800D01*
X29310200Y16512200D02*
X29489800D01*
X29310200Y16537600D02*
X29489800D01*
X29311600Y16385200D02*
Y16539800D01*
X29337000Y16385200D02*
Y16539800D01*
X29362400Y16385200D02*
Y16539800D01*
X29387800Y16385200D02*
Y16539800D01*
X29413200Y16385200D02*
Y16539800D01*
X29438600Y16385200D02*
Y16539800D01*
X29464000Y16385200D02*
Y16539800D01*
X29489400Y16385200D02*
Y16539800D01*
X29489800Y20160200D02*
Y20314800D01*
X29310200*
Y20160200*
X29489800*
X29310200D02*
X29489800D01*
X29310200Y20185600D02*
X29489800D01*
X29310200Y20211000D02*
X29489800D01*
X29310200Y20236400D02*
X29489800D01*
X29310200Y20261800D02*
X29489800D01*
X29310200Y20287200D02*
X29489800D01*
X29310200Y20312600D02*
X29489800D01*
X29311600Y20160200D02*
Y20314800D01*
X29337000Y20160200D02*
Y20314800D01*
X29362400Y20160200D02*
Y20314800D01*
X29387800Y20160200D02*
Y20314800D01*
X29413200Y20160200D02*
Y20314800D01*
X29438600Y20160200D02*
Y20314800D01*
X29464000Y20160200D02*
Y20314800D01*
X29489400Y20160200D02*
Y20314800D01*
X29489800Y20739800D02*
Y20585200D01*
X29310200*
Y20739800*
X29489800*
X29310200Y20585200D02*
X29489800D01*
X29310200Y20610600D02*
X29489800D01*
X29310200Y20636000D02*
X29489800D01*
X29310200Y20661400D02*
X29489800D01*
X29310200Y20686800D02*
X29489800D01*
X29310200Y20712200D02*
X29489800D01*
X29310200Y20737600D02*
X29489800D01*
X29311600Y20585200D02*
Y20739800D01*
X29337000Y20585200D02*
Y20739800D01*
X29362400Y20585200D02*
Y20739800D01*
X29387800Y20585200D02*
Y20739800D01*
X29413200Y20585200D02*
Y20739800D01*
X29438600Y20585200D02*
Y20739800D01*
X29464000Y20585200D02*
Y20739800D01*
X29489400Y20585200D02*
Y20739800D01*
X31189800Y15960200D02*
Y16114800D01*
X31010200*
Y15960200*
X31189800*
X31010200D02*
X31189800D01*
X31010200Y15985600D02*
X31189800D01*
X31010200Y16011000D02*
X31189800D01*
X31010200Y16036400D02*
X31189800D01*
X31010200Y16061800D02*
X31189800D01*
X31010200Y16087200D02*
X31189800D01*
X31010200Y16112600D02*
X31189800D01*
X31013400Y15960200D02*
Y16114800D01*
X31038800Y15960200D02*
Y16114800D01*
X31064200Y15960200D02*
Y16114800D01*
X31089600Y15960200D02*
Y16114800D01*
X31115000Y15960200D02*
Y16114800D01*
X31140400Y15960200D02*
Y16114800D01*
X31165800Y15960200D02*
Y16114800D01*
X31189800Y16539800D02*
Y16385200D01*
X31010200*
Y16539800*
X31189800*
X31010200Y16385200D02*
X31189800D01*
X31010200Y16410600D02*
X31189800D01*
X31010200Y16436000D02*
X31189800D01*
X31010200Y16461400D02*
X31189800D01*
X31010200Y16486800D02*
X31189800D01*
X31010200Y16512200D02*
X31189800D01*
X31010200Y16537600D02*
X31189800D01*
X31013400Y16385200D02*
Y16539800D01*
X31038800Y16385200D02*
Y16539800D01*
X31064200Y16385200D02*
Y16539800D01*
X31089600Y16385200D02*
Y16539800D01*
X31115000Y16385200D02*
Y16539800D01*
X31140400Y16385200D02*
Y16539800D01*
X31165800Y16385200D02*
Y16539800D01*
X31189800Y20160200D02*
Y20314800D01*
X31010200*
Y20160200*
X31189800*
X31010200D02*
X31189800D01*
X31010200Y20185600D02*
X31189800D01*
X31010200Y20211000D02*
X31189800D01*
X31010200Y20236400D02*
X31189800D01*
X31010200Y20261800D02*
X31189800D01*
X31010200Y20287200D02*
X31189800D01*
X31010200Y20312600D02*
X31189800D01*
X31013400Y20160200D02*
Y20314800D01*
X31038800Y20160200D02*
Y20314800D01*
X31064200Y20160200D02*
Y20314800D01*
X31089600Y20160200D02*
Y20314800D01*
X31115000Y20160200D02*
Y20314800D01*
X31140400Y20160200D02*
Y20314800D01*
X31165800Y20160200D02*
Y20314800D01*
X31189800Y20739800D02*
Y20585200D01*
X31010200*
Y20739800*
X31189800*
X31010200Y20585200D02*
X31189800D01*
X31010200Y20610600D02*
X31189800D01*
X31010200Y20636000D02*
X31189800D01*
X31010200Y20661400D02*
X31189800D01*
X31010200Y20686800D02*
X31189800D01*
X31010200Y20712200D02*
X31189800D01*
X31010200Y20737600D02*
X31189800D01*
X31013400Y20585200D02*
Y20739800D01*
X31038800Y20585200D02*
Y20739800D01*
X31064200Y20585200D02*
Y20739800D01*
X31089600Y20585200D02*
Y20739800D01*
X31115000Y20585200D02*
Y20739800D01*
X31140400Y20585200D02*
Y20739800D01*
X31165800Y20585200D02*
Y20739800D01*
X32889800Y15960200D02*
Y16114800D01*
X32710200*
Y15960200*
X32889800*
X32710200D02*
X32889800D01*
X32710200Y15985600D02*
X32889800D01*
X32710200Y16011000D02*
X32889800D01*
X32710200Y16036400D02*
X32889800D01*
X32710200Y16061800D02*
X32889800D01*
X32710200Y16087200D02*
X32889800D01*
X32710200Y16112600D02*
X32889800D01*
X32715200Y15960200D02*
Y16114800D01*
X32740600Y15960200D02*
Y16114800D01*
X32766000Y15960200D02*
Y16114800D01*
X32791400Y15960200D02*
Y16114800D01*
X32816800Y15960200D02*
Y16114800D01*
X32842200Y15960200D02*
Y16114800D01*
X32867600Y15960200D02*
Y16114800D01*
X32889800Y16539800D02*
Y16385200D01*
X32710200*
Y16539800*
X32889800*
X32710200Y16385200D02*
X32889800D01*
X32710200Y16410600D02*
X32889800D01*
X32710200Y16436000D02*
X32889800D01*
X32710200Y16461400D02*
X32889800D01*
X32710200Y16486800D02*
X32889800D01*
X32710200Y16512200D02*
X32889800D01*
X32710200Y16537600D02*
X32889800D01*
X32715200Y16385200D02*
Y16539800D01*
X32740600Y16385200D02*
Y16539800D01*
X32766000Y16385200D02*
Y16539800D01*
X32791400Y16385200D02*
Y16539800D01*
X32816800Y16385200D02*
Y16539800D01*
X32842200Y16385200D02*
Y16539800D01*
X32867600Y16385200D02*
Y16539800D01*
X32889800Y20160200D02*
Y20314800D01*
X32710200*
Y20160200*
X32889800*
X32710200D02*
X32889800D01*
X32710200Y20185600D02*
X32889800D01*
X32710200Y20211000D02*
X32889800D01*
X32710200Y20236400D02*
X32889800D01*
X32710200Y20261800D02*
X32889800D01*
X32710200Y20287200D02*
X32889800D01*
X32710200Y20312600D02*
X32889800D01*
X32715200Y20160200D02*
Y20314800D01*
X32740600Y20160200D02*
Y20314800D01*
X32766000Y20160200D02*
Y20314800D01*
X32791400Y20160200D02*
Y20314800D01*
X32816800Y20160200D02*
Y20314800D01*
X32842200Y20160200D02*
Y20314800D01*
X32867600Y20160200D02*
Y20314800D01*
X32889800Y20739800D02*
Y20585200D01*
X32710200*
Y20739800*
X32889800*
X32710200Y20585200D02*
X32889800D01*
X32710200Y20610600D02*
X32889800D01*
X32710200Y20636000D02*
X32889800D01*
X32710200Y20661400D02*
X32889800D01*
X32710200Y20686800D02*
X32889800D01*
X32710200Y20712200D02*
X32889800D01*
X32710200Y20737600D02*
X32889800D01*
X32715200Y20585200D02*
Y20739800D01*
X32740600Y20585200D02*
Y20739800D01*
X32766000Y20585200D02*
Y20739800D01*
X32791400Y20585200D02*
Y20739800D01*
X32816800Y20585200D02*
Y20739800D01*
X32842200Y20585200D02*
Y20739800D01*
X32867600Y20585200D02*
Y20739800D01*
X34589800Y15960200D02*
Y16114800D01*
X34410200*
Y15960200*
X34589800*
X34410200D02*
X34589800D01*
X34410200Y15985600D02*
X34589800D01*
X34410200Y16011000D02*
X34589800D01*
X34410200Y16036400D02*
X34589800D01*
X34410200Y16061800D02*
X34589800D01*
X34410200Y16087200D02*
X34589800D01*
X34410200Y16112600D02*
X34589800D01*
X34417000Y15960200D02*
Y16114800D01*
X34442400Y15960200D02*
Y16114800D01*
X34467800Y15960200D02*
Y16114800D01*
X34493200Y15960200D02*
Y16114800D01*
X34518600Y15960200D02*
Y16114800D01*
X34544000Y15960200D02*
Y16114800D01*
X34569400Y15960200D02*
Y16114800D01*
X34589800Y16539800D02*
Y16385200D01*
X34410200*
Y16539800*
X34589800*
X34410200Y16385200D02*
X34589800D01*
X34410200Y16410600D02*
X34589800D01*
X34410200Y16436000D02*
X34589800D01*
X34410200Y16461400D02*
X34589800D01*
X34410200Y16486800D02*
X34589800D01*
X34410200Y16512200D02*
X34589800D01*
X34410200Y16537600D02*
X34589800D01*
X34417000Y16385200D02*
Y16539800D01*
X34442400Y16385200D02*
Y16539800D01*
X34467800Y16385200D02*
Y16539800D01*
X34493200Y16385200D02*
Y16539800D01*
X34518600Y16385200D02*
Y16539800D01*
X34544000Y16385200D02*
Y16539800D01*
X34569400Y16385200D02*
Y16539800D01*
X34589800Y20160200D02*
Y20314800D01*
X34410200*
Y20160200*
X34589800*
X34410200D02*
X34589800D01*
X34410200Y20185600D02*
X34589800D01*
X34410200Y20211000D02*
X34589800D01*
X34410200Y20236400D02*
X34589800D01*
X34410200Y20261800D02*
X34589800D01*
X34410200Y20287200D02*
X34589800D01*
X34410200Y20312600D02*
X34589800D01*
X34417000Y20160200D02*
Y20314800D01*
X34442400Y20160200D02*
Y20314800D01*
X34467800Y20160200D02*
Y20314800D01*
X34493200Y20160200D02*
Y20314800D01*
X34518600Y20160200D02*
Y20314800D01*
X34544000Y20160200D02*
Y20314800D01*
X34569400Y20160200D02*
Y20314800D01*
X34589800Y20739800D02*
Y20585200D01*
X34410200*
Y20739800*
X34589800*
X34410200Y20585200D02*
X34589800D01*
X34410200Y20610600D02*
X34589800D01*
X34410200Y20636000D02*
X34589800D01*
X34410200Y20661400D02*
X34589800D01*
X34410200Y20686800D02*
X34589800D01*
X34410200Y20712200D02*
X34589800D01*
X34410200Y20737600D02*
X34589800D01*
X34417000Y20585200D02*
Y20739800D01*
X34442400Y20585200D02*
Y20739800D01*
X34467800Y20585200D02*
Y20739800D01*
X34493200Y20585200D02*
Y20739800D01*
X34518600Y20585200D02*
Y20739800D01*
X34544000Y20585200D02*
Y20739800D01*
X34569400Y20585200D02*
Y20739800D01*
X36289800Y15960200D02*
Y16114800D01*
X36110200*
Y15960200*
X36289800*
X36110200D02*
X36289800D01*
X36110200Y15985600D02*
X36289800D01*
X36110200Y16011000D02*
X36289800D01*
X36110200Y16036400D02*
X36289800D01*
X36110200Y16061800D02*
X36289800D01*
X36110200Y16087200D02*
X36289800D01*
X36110200Y16112600D02*
X36289800D01*
X36118800Y15960200D02*
Y16114800D01*
X36144200Y15960200D02*
Y16114800D01*
X36169600Y15960200D02*
Y16114800D01*
X36195000Y15960200D02*
Y16114800D01*
X36220400Y15960200D02*
Y16114800D01*
X36245800Y15960200D02*
Y16114800D01*
X36271200Y15960200D02*
Y16114800D01*
X36289800Y16539800D02*
Y16385200D01*
X36110200*
Y16539800*
X36289800*
X36110200Y16385200D02*
X36289800D01*
X36110200Y16410600D02*
X36289800D01*
X36110200Y16436000D02*
X36289800D01*
X36110200Y16461400D02*
X36289800D01*
X36110200Y16486800D02*
X36289800D01*
X36110200Y16512200D02*
X36289800D01*
X36110200Y16537600D02*
X36289800D01*
X36118800Y16385200D02*
Y16539800D01*
X36144200Y16385200D02*
Y16539800D01*
X36169600Y16385200D02*
Y16539800D01*
X36195000Y16385200D02*
Y16539800D01*
X36220400Y16385200D02*
Y16539800D01*
X36245800Y16385200D02*
Y16539800D01*
X36271200Y16385200D02*
Y16539800D01*
X36289800Y20160200D02*
Y20314800D01*
X36110200*
Y20160200*
X36289800*
X36110200D02*
X36289800D01*
X36110200Y20185600D02*
X36289800D01*
X36110200Y20211000D02*
X36289800D01*
X36110200Y20236400D02*
X36289800D01*
X36110200Y20261800D02*
X36289800D01*
X36110200Y20287200D02*
X36289800D01*
X36110200Y20312600D02*
X36289800D01*
X36118800Y20160200D02*
Y20314800D01*
X36144200Y20160200D02*
Y20314800D01*
X36169600Y20160200D02*
Y20314800D01*
X36195000Y20160200D02*
Y20314800D01*
X36220400Y20160200D02*
Y20314800D01*
X36245800Y20160200D02*
Y20314800D01*
X36271200Y20160200D02*
Y20314800D01*
X36289800Y20739800D02*
Y20585200D01*
X36110200*
Y20739800*
X36289800*
X36110200Y20585200D02*
X36289800D01*
X36110200Y20610600D02*
X36289800D01*
X36110200Y20636000D02*
X36289800D01*
X36110200Y20661400D02*
X36289800D01*
X36110200Y20686800D02*
X36289800D01*
X36110200Y20712200D02*
X36289800D01*
X36110200Y20737600D02*
X36289800D01*
X36118800Y20585200D02*
Y20739800D01*
X36144200Y20585200D02*
Y20739800D01*
X36169600Y20585200D02*
Y20739800D01*
X36195000Y20585200D02*
Y20739800D01*
X36220400Y20585200D02*
Y20739800D01*
X36245800Y20585200D02*
Y20739800D01*
X36271200Y20585200D02*
Y20739800D01*
X26089800Y15960200D02*
Y16114800D01*
X25910200*
Y15960200*
X26089800*
X25910200D02*
X26089800D01*
X25910200Y15985600D02*
X26089800D01*
X25910200Y16011000D02*
X26089800D01*
X25910200Y16036400D02*
X26089800D01*
X25910200Y16061800D02*
X26089800D01*
X25910200Y16087200D02*
X26089800D01*
X25910200Y16112600D02*
X26089800D01*
X25933400Y15960200D02*
Y16114800D01*
X25958800Y15960200D02*
Y16114800D01*
X25984200Y15960200D02*
Y16114800D01*
X26009600Y15960200D02*
Y16114800D01*
X26035000Y15960200D02*
Y16114800D01*
X26060400Y15960200D02*
Y16114800D01*
X26085800Y15960200D02*
Y16114800D01*
X26089800Y16539800D02*
Y16385200D01*
X25910200*
Y16539800*
X26089800*
X25910200Y16385200D02*
X26089800D01*
X25910200Y16410600D02*
X26089800D01*
X25910200Y16436000D02*
X26089800D01*
X25910200Y16461400D02*
X26089800D01*
X25910200Y16486800D02*
X26089800D01*
X25910200Y16512200D02*
X26089800D01*
X25910200Y16537600D02*
X26089800D01*
X25933400Y16385200D02*
Y16539800D01*
X25958800Y16385200D02*
Y16539800D01*
X25984200Y16385200D02*
Y16539800D01*
X26009600Y16385200D02*
Y16539800D01*
X26035000Y16385200D02*
Y16539800D01*
X26060400Y16385200D02*
Y16539800D01*
X26085800Y16385200D02*
Y16539800D01*
X37989800Y15960200D02*
Y16114800D01*
X37810200*
Y15960200*
X37989800*
X37810200D02*
X37989800D01*
X37810200Y15985600D02*
X37989800D01*
X37810200Y16011000D02*
X37989800D01*
X37810200Y16036400D02*
X37989800D01*
X37810200Y16061800D02*
X37989800D01*
X37810200Y16087200D02*
X37989800D01*
X37810200Y16112600D02*
X37989800D01*
X37820600Y15960200D02*
Y16114800D01*
X37846000Y15960200D02*
Y16114800D01*
X37871400Y15960200D02*
Y16114800D01*
X37896800Y15960200D02*
Y16114800D01*
X37922200Y15960200D02*
Y16114800D01*
X37947600Y15960200D02*
Y16114800D01*
X37973000Y15960200D02*
Y16114800D01*
X37989800Y16539800D02*
Y16385200D01*
X37810200*
Y16539800*
X37989800*
X37810200Y16385200D02*
X37989800D01*
X37810200Y16410600D02*
X37989800D01*
X37810200Y16436000D02*
X37989800D01*
X37810200Y16461400D02*
X37989800D01*
X37810200Y16486800D02*
X37989800D01*
X37810200Y16512200D02*
X37989800D01*
X37810200Y16537600D02*
X37989800D01*
X37820600Y16385200D02*
Y16539800D01*
X37846000Y16385200D02*
Y16539800D01*
X37871400Y16385200D02*
Y16539800D01*
X37896800Y16385200D02*
Y16539800D01*
X37922200Y16385200D02*
Y16539800D01*
X37947600Y16385200D02*
Y16539800D01*
X37973000Y16385200D02*
Y16539800D01*
X37989800Y20160200D02*
Y20314800D01*
X37810200*
Y20160200*
X37989800*
X37810200D02*
X37989800D01*
X37810200Y20185600D02*
X37989800D01*
X37810200Y20211000D02*
X37989800D01*
X37810200Y20236400D02*
X37989800D01*
X37810200Y20261800D02*
X37989800D01*
X37810200Y20287200D02*
X37989800D01*
X37810200Y20312600D02*
X37989800D01*
X37820600Y20160200D02*
Y20314800D01*
X37846000Y20160200D02*
Y20314800D01*
X37871400Y20160200D02*
Y20314800D01*
X37896800Y20160200D02*
Y20314800D01*
X37922200Y20160200D02*
Y20314800D01*
X37947600Y20160200D02*
Y20314800D01*
X37973000Y20160200D02*
Y20314800D01*
X37989800Y20739800D02*
Y20585200D01*
X37810200*
Y20739800*
X37989800*
X37810200Y20585200D02*
X37989800D01*
X37810200Y20610600D02*
X37989800D01*
X37810200Y20636000D02*
X37989800D01*
X37810200Y20661400D02*
X37989800D01*
X37810200Y20686800D02*
X37989800D01*
X37810200Y20712200D02*
X37989800D01*
X37810200Y20737600D02*
X37989800D01*
X37820600Y20585200D02*
Y20739800D01*
X37846000Y20585200D02*
Y20739800D01*
X37871400Y20585200D02*
Y20739800D01*
X37896800Y20585200D02*
Y20739800D01*
X37922200Y20585200D02*
Y20739800D01*
X37947600Y20585200D02*
Y20739800D01*
X37973000Y20585200D02*
Y20739800D01*
X26089800Y20135200D02*
Y20289800D01*
X25910200*
Y20135200*
X26089800*
X25910200D02*
X26089800D01*
X25910200Y20160600D02*
X26089800D01*
X25910200Y20186000D02*
X26089800D01*
X25910200Y20211400D02*
X26089800D01*
X25910200Y20236800D02*
X26089800D01*
X25910200Y20262200D02*
X26089800D01*
X25910200Y20287600D02*
X26089800D01*
X25933400Y20135200D02*
Y20289800D01*
X25958800Y20135200D02*
Y20289800D01*
X25984200Y20135200D02*
Y20289800D01*
X26009600Y20135200D02*
Y20289800D01*
X26035000Y20135200D02*
Y20289800D01*
X26060400Y20135200D02*
Y20289800D01*
X26085800Y20135200D02*
Y20289800D01*
X26089800Y20714800D02*
Y20560200D01*
X25910200*
Y20714800*
X26089800*
X25910200Y20560200D02*
X26089800D01*
X25910200Y20585600D02*
X26089800D01*
X25910200Y20611000D02*
X26089800D01*
X25910200Y20636400D02*
X26089800D01*
X25910200Y20661800D02*
X26089800D01*
X25910200Y20687200D02*
X26089800D01*
X25910200Y20712600D02*
X26089800D01*
X25933400Y20560200D02*
Y20714800D01*
X25958800Y20560200D02*
Y20714800D01*
X25984200Y20560200D02*
Y20714800D01*
X26009600Y20560200D02*
Y20714800D01*
X26035000Y20560200D02*
Y20714800D01*
X26060400Y20560200D02*
Y20714800D01*
X26085800Y20560200D02*
Y20714800D01*
X27789800Y15960200D02*
Y16114800D01*
X27610200*
Y15960200*
X27789800*
X27610200D02*
X27789800D01*
X27610200Y15985600D02*
X27789800D01*
X27610200Y16011000D02*
X27789800D01*
X27610200Y16036400D02*
X27789800D01*
X27610200Y16061800D02*
X27789800D01*
X27610200Y16087200D02*
X27789800D01*
X27610200Y16112600D02*
X27789800D01*
X27635200Y15960200D02*
Y16114800D01*
X27660600Y15960200D02*
Y16114800D01*
X27686000Y15960200D02*
Y16114800D01*
X27711400Y15960200D02*
Y16114800D01*
X27736800Y15960200D02*
Y16114800D01*
X27762200Y15960200D02*
Y16114800D01*
X27787600Y15960200D02*
Y16114800D01*
X27789800Y16539800D02*
Y16385200D01*
X27610200*
Y16539800*
X27789800*
X27610200Y16385200D02*
X27789800D01*
X27610200Y16410600D02*
X27789800D01*
X27610200Y16436000D02*
X27789800D01*
X27610200Y16461400D02*
X27789800D01*
X27610200Y16486800D02*
X27789800D01*
X27610200Y16512200D02*
X27789800D01*
X27610200Y16537600D02*
X27789800D01*
X27635200Y16385200D02*
Y16539800D01*
X27660600Y16385200D02*
Y16539800D01*
X27686000Y16385200D02*
Y16539800D01*
X27711400Y16385200D02*
Y16539800D01*
X27736800Y16385200D02*
Y16539800D01*
X27762200Y16385200D02*
Y16539800D01*
X27787600Y16385200D02*
Y16539800D01*
X27789800Y20160200D02*
Y20314800D01*
X27610200*
Y20160200*
X27789800*
X27610200D02*
X27789800D01*
X27610200Y20185600D02*
X27789800D01*
X27610200Y20211000D02*
X27789800D01*
X27610200Y20236400D02*
X27789800D01*
X27610200Y20261800D02*
X27789800D01*
X27610200Y20287200D02*
X27789800D01*
X27610200Y20312600D02*
X27789800D01*
X27635200Y20160200D02*
Y20314800D01*
X27660600Y20160200D02*
Y20314800D01*
X27686000Y20160200D02*
Y20314800D01*
X27711400Y20160200D02*
Y20314800D01*
X27736800Y20160200D02*
Y20314800D01*
X27762200Y20160200D02*
Y20314800D01*
X27787600Y20160200D02*
Y20314800D01*
X27789800Y20739800D02*
Y20585200D01*
X27610200*
Y20739800*
X27789800*
X27610200Y20585200D02*
X27789800D01*
X27610200Y20610600D02*
X27789800D01*
X27610200Y20636000D02*
X27789800D01*
X27610200Y20661400D02*
X27789800D01*
X27610200Y20686800D02*
X27789800D01*
X27610200Y20712200D02*
X27789800D01*
X27610200Y20737600D02*
X27789800D01*
X27635200Y20585200D02*
Y20739800D01*
X27660600Y20585200D02*
Y20739800D01*
X27686000Y20585200D02*
Y20739800D01*
X27711400Y20585200D02*
Y20739800D01*
X27736800Y20585200D02*
Y20739800D01*
X27762200Y20585200D02*
Y20739800D01*
X27787600Y20585200D02*
Y20739800D01*
X26189800Y15010200D02*
Y15189800D01*
X26110200*
Y15010200*
X26189800*
X26110200D02*
X26189800D01*
X26110200Y15035600D02*
X26189800D01*
X26110200Y15061000D02*
X26189800D01*
X26110200Y15086400D02*
X26189800D01*
X26110200Y15111800D02*
X26189800D01*
X26110200Y15137200D02*
X26189800D01*
X26110200Y15162600D02*
X26189800D01*
X26110200Y15188000D02*
X26189800D01*
X26111200Y15010200D02*
Y15189800D01*
X26136600Y15010200D02*
Y15189800D01*
X26162000Y15010200D02*
Y15189800D01*
X26187400Y15010200D02*
Y15189800D01*
X26189800Y15689800D02*
Y15510200D01*
X26110200*
Y15689800*
X26189800*
X26110200Y15510200D02*
X26189800D01*
X26110200Y15535600D02*
X26189800D01*
X26110200Y15561000D02*
X26189800D01*
X26110200Y15586400D02*
X26189800D01*
X26110200Y15611800D02*
X26189800D01*
X26110200Y15637200D02*
X26189800D01*
X26110200Y15662600D02*
X26189800D01*
X26110200Y15688000D02*
X26189800D01*
X26111200Y15510200D02*
Y15689800D01*
X26136600Y15510200D02*
Y15689800D01*
X26162000Y15510200D02*
Y15689800D01*
X26187400Y15510200D02*
Y15689800D01*
X32989800Y19210200D02*
Y19389800D01*
X32910200*
Y19210200*
X32989800*
X32910200D02*
X32989800D01*
X32910200Y19235600D02*
X32989800D01*
X32910200Y19261000D02*
X32989800D01*
X32910200Y19286400D02*
X32989800D01*
X32910200Y19311800D02*
X32989800D01*
X32910200Y19337200D02*
X32989800D01*
X32910200Y19362600D02*
X32989800D01*
X32910200Y19388000D02*
X32989800D01*
X32918400Y19210200D02*
Y19389800D01*
X32943800Y19210200D02*
Y19389800D01*
X32969200Y19210200D02*
Y19389800D01*
X32989800Y19889800D02*
Y19710200D01*
X32910200*
Y19889800*
X32989800*
X32910200Y19710200D02*
X32989800D01*
X32910200Y19735600D02*
X32989800D01*
X32910200Y19761000D02*
X32989800D01*
X32910200Y19786400D02*
X32989800D01*
X32910200Y19811800D02*
X32989800D01*
X32910200Y19837200D02*
X32989800D01*
X32910200Y19862600D02*
X32989800D01*
X32910200Y19888000D02*
X32989800D01*
X32918400Y19710200D02*
Y19889800D01*
X32943800Y19710200D02*
Y19889800D01*
X32969200Y19710200D02*
Y19889800D01*
X34689800Y15010200D02*
Y15189800D01*
X34610200*
Y15010200*
X34689800*
X34610200D02*
X34689800D01*
X34610200Y15035600D02*
X34689800D01*
X34610200Y15061000D02*
X34689800D01*
X34610200Y15086400D02*
X34689800D01*
X34610200Y15111800D02*
X34689800D01*
X34610200Y15137200D02*
X34689800D01*
X34610200Y15162600D02*
X34689800D01*
X34610200Y15188000D02*
X34689800D01*
X34620200Y15010200D02*
Y15189800D01*
X34645600Y15010200D02*
Y15189800D01*
X34671000Y15010200D02*
Y15189800D01*
X34689800Y15689800D02*
Y15510200D01*
X34610200*
Y15689800*
X34689800*
X34610200Y15510200D02*
X34689800D01*
X34610200Y15535600D02*
X34689800D01*
X34610200Y15561000D02*
X34689800D01*
X34610200Y15586400D02*
X34689800D01*
X34610200Y15611800D02*
X34689800D01*
X34610200Y15637200D02*
X34689800D01*
X34610200Y15662600D02*
X34689800D01*
X34610200Y15688000D02*
X34689800D01*
X34620200Y15510200D02*
Y15689800D01*
X34645600Y15510200D02*
Y15689800D01*
X34671000Y15510200D02*
Y15689800D01*
X34689800Y19210200D02*
Y19389800D01*
X34610200*
Y19210200*
X34689800*
X34610200D02*
X34689800D01*
X34610200Y19235600D02*
X34689800D01*
X34610200Y19261000D02*
X34689800D01*
X34610200Y19286400D02*
X34689800D01*
X34610200Y19311800D02*
X34689800D01*
X34610200Y19337200D02*
X34689800D01*
X34610200Y19362600D02*
X34689800D01*
X34610200Y19388000D02*
X34689800D01*
X34620200Y19210200D02*
Y19389800D01*
X34645600Y19210200D02*
Y19389800D01*
X34671000Y19210200D02*
Y19389800D01*
X34689800Y19889800D02*
Y19710200D01*
X34610200*
Y19889800*
X34689800*
X34610200Y19710200D02*
X34689800D01*
X34610200Y19735600D02*
X34689800D01*
X34610200Y19761000D02*
X34689800D01*
X34610200Y19786400D02*
X34689800D01*
X34610200Y19811800D02*
X34689800D01*
X34610200Y19837200D02*
X34689800D01*
X34610200Y19862600D02*
X34689800D01*
X34610200Y19888000D02*
X34689800D01*
X34620200Y19710200D02*
Y19889800D01*
X34645600Y19710200D02*
Y19889800D01*
X34671000Y19710200D02*
Y19889800D01*
X36389800Y15010200D02*
Y15189800D01*
X36310200*
Y15010200*
X36389800*
X36310200D02*
X36389800D01*
X36310200Y15035600D02*
X36389800D01*
X36310200Y15061000D02*
X36389800D01*
X36310200Y15086400D02*
X36389800D01*
X36310200Y15111800D02*
X36389800D01*
X36310200Y15137200D02*
X36389800D01*
X36310200Y15162600D02*
X36389800D01*
X36310200Y15188000D02*
X36389800D01*
X36322000Y15010200D02*
Y15189800D01*
X36347400Y15010200D02*
Y15189800D01*
X36372800Y15010200D02*
Y15189800D01*
X36389800Y15689800D02*
Y15510200D01*
X36310200*
Y15689800*
X36389800*
X36310200Y15510200D02*
X36389800D01*
X36310200Y15535600D02*
X36389800D01*
X36310200Y15561000D02*
X36389800D01*
X36310200Y15586400D02*
X36389800D01*
X36310200Y15611800D02*
X36389800D01*
X36310200Y15637200D02*
X36389800D01*
X36310200Y15662600D02*
X36389800D01*
X36310200Y15688000D02*
X36389800D01*
X36322000Y15510200D02*
Y15689800D01*
X36347400Y15510200D02*
Y15689800D01*
X36372800Y15510200D02*
Y15689800D01*
X36389800Y19210200D02*
Y19389800D01*
X36310200*
Y19210200*
X36389800*
X36310200D02*
X36389800D01*
X36310200Y19235600D02*
X36389800D01*
X36310200Y19261000D02*
X36389800D01*
X36310200Y19286400D02*
X36389800D01*
X36310200Y19311800D02*
X36389800D01*
X36310200Y19337200D02*
X36389800D01*
X36310200Y19362600D02*
X36389800D01*
X36310200Y19388000D02*
X36389800D01*
X36322000Y19210200D02*
Y19389800D01*
X36347400Y19210200D02*
Y19389800D01*
X36372800Y19210200D02*
Y19389800D01*
X36389800Y19889800D02*
Y19710200D01*
X36310200*
Y19889800*
X36389800*
X36310200Y19710200D02*
X36389800D01*
X36310200Y19735600D02*
X36389800D01*
X36310200Y19761000D02*
X36389800D01*
X36310200Y19786400D02*
X36389800D01*
X36310200Y19811800D02*
X36389800D01*
X36310200Y19837200D02*
X36389800D01*
X36310200Y19862600D02*
X36389800D01*
X36310200Y19888000D02*
X36389800D01*
X36322000Y19710200D02*
Y19889800D01*
X36347400Y19710200D02*
Y19889800D01*
X36372800Y19710200D02*
Y19889800D01*
X38089800Y15010200D02*
Y15189800D01*
X38010200*
Y15010200*
X38089800*
X38010200D02*
X38089800D01*
X38010200Y15035600D02*
X38089800D01*
X38010200Y15061000D02*
X38089800D01*
X38010200Y15086400D02*
X38089800D01*
X38010200Y15111800D02*
X38089800D01*
X38010200Y15137200D02*
X38089800D01*
X38010200Y15162600D02*
X38089800D01*
X38010200Y15188000D02*
X38089800D01*
X38023800Y15010200D02*
Y15189800D01*
X38049200Y15010200D02*
Y15189800D01*
X38074600Y15010200D02*
Y15189800D01*
X38089800Y15689800D02*
Y15510200D01*
X38010200*
Y15689800*
X38089800*
X38010200Y15510200D02*
X38089800D01*
X38010200Y15535600D02*
X38089800D01*
X38010200Y15561000D02*
X38089800D01*
X38010200Y15586400D02*
X38089800D01*
X38010200Y15611800D02*
X38089800D01*
X38010200Y15637200D02*
X38089800D01*
X38010200Y15662600D02*
X38089800D01*
X38010200Y15688000D02*
X38089800D01*
X38023800Y15510200D02*
Y15689800D01*
X38049200Y15510200D02*
Y15689800D01*
X38074600Y15510200D02*
Y15689800D01*
X38089800Y19210200D02*
Y19389800D01*
X38010200*
Y19210200*
X38089800*
X38010200D02*
X38089800D01*
X38010200Y19235600D02*
X38089800D01*
X38010200Y19261000D02*
X38089800D01*
X38010200Y19286400D02*
X38089800D01*
X38010200Y19311800D02*
X38089800D01*
X38010200Y19337200D02*
X38089800D01*
X38010200Y19362600D02*
X38089800D01*
X38010200Y19388000D02*
X38089800D01*
X38023800Y19210200D02*
Y19389800D01*
X38049200Y19210200D02*
Y19389800D01*
X38074600Y19210200D02*
Y19389800D01*
X38089800Y19889800D02*
Y19710200D01*
X38010200*
Y19889800*
X38089800*
X38010200Y19710200D02*
X38089800D01*
X38010200Y19735600D02*
X38089800D01*
X38010200Y19761000D02*
X38089800D01*
X38010200Y19786400D02*
X38089800D01*
X38010200Y19811800D02*
X38089800D01*
X38010200Y19837200D02*
X38089800D01*
X38010200Y19862600D02*
X38089800D01*
X38010200Y19888000D02*
X38089800D01*
X38023800Y19710200D02*
Y19889800D01*
X38049200Y19710200D02*
Y19889800D01*
X38074600Y19710200D02*
Y19889800D01*
X28610200Y23810200D02*
Y23939800D01*
X28689800*
Y23810200*
X28610200*
X28689800*
X28610200Y23835600D02*
X28689800D01*
X28610200Y23861000D02*
X28689800D01*
X28610200Y23886400D02*
X28689800D01*
X28610200Y23911800D02*
X28689800D01*
X28610200Y23937200D02*
X28689800D01*
X28625800Y23810200D02*
Y23939800D01*
X28651200Y23810200D02*
Y23939800D01*
X28676600Y23810200D02*
Y23939800D01*
X28610200Y24289800D02*
Y24160200D01*
X28689800*
Y24289800*
X28610200*
Y24160200D02*
X28689800D01*
X28610200Y24185600D02*
X28689800D01*
X28610200Y24211000D02*
X28689800D01*
X28610200Y24236400D02*
X28689800D01*
X28610200Y24261800D02*
X28689800D01*
X28610200Y24287200D02*
X28689800D01*
X28625800Y24160200D02*
Y24289800D01*
X28651200Y24160200D02*
Y24289800D01*
X28676600Y24160200D02*
Y24289800D01*
X35010200Y23810200D02*
Y23939800D01*
X35089800*
Y23810200*
X35010200*
X35089800*
X35010200Y23835600D02*
X35089800D01*
X35010200Y23861000D02*
X35089800D01*
X35010200Y23886400D02*
X35089800D01*
X35010200Y23911800D02*
X35089800D01*
X35010200Y23937200D02*
X35089800D01*
X35026600Y23810200D02*
Y23939800D01*
X35052000Y23810200D02*
Y23939800D01*
X35077400Y23810200D02*
Y23939800D01*
X35010200Y24289800D02*
Y24160200D01*
X35089800*
Y24289800*
X35010200*
Y24160200D02*
X35089800D01*
X35010200Y24185600D02*
X35089800D01*
X35010200Y24211000D02*
X35089800D01*
X35010200Y24236400D02*
X35089800D01*
X35010200Y24261800D02*
X35089800D01*
X35010200Y24287200D02*
X35089800D01*
X35026600Y24160200D02*
Y24289800D01*
X35052000Y24160200D02*
Y24289800D01*
X35077400Y24160200D02*
Y24289800D01*
X26189800Y19210200D02*
Y19389800D01*
X26110200*
Y19210200*
X26189800*
X26110200D02*
X26189800D01*
X26110200Y19235600D02*
X26189800D01*
X26110200Y19261000D02*
X26189800D01*
X26110200Y19286400D02*
X26189800D01*
X26110200Y19311800D02*
X26189800D01*
X26110200Y19337200D02*
X26189800D01*
X26110200Y19362600D02*
X26189800D01*
X26110200Y19388000D02*
X26189800D01*
X26111200Y19210200D02*
Y19389800D01*
X26136600Y19210200D02*
Y19389800D01*
X26162000Y19210200D02*
Y19389800D01*
X26187400Y19210200D02*
Y19389800D01*
X26189800Y19889800D02*
Y19710200D01*
X26110200*
Y19889800*
X26189800*
X26110200Y19710200D02*
X26189800D01*
X26110200Y19735600D02*
X26189800D01*
X26110200Y19761000D02*
X26189800D01*
X26110200Y19786400D02*
X26189800D01*
X26110200Y19811800D02*
X26189800D01*
X26110200Y19837200D02*
X26189800D01*
X26110200Y19862600D02*
X26189800D01*
X26110200Y19888000D02*
X26189800D01*
X26111200Y19710200D02*
Y19889800D01*
X26136600Y19710200D02*
Y19889800D01*
X26162000Y19710200D02*
Y19889800D01*
X26187400Y19710200D02*
Y19889800D01*
X27889800Y15010200D02*
Y15189800D01*
X27810200*
Y15010200*
X27889800*
X27810200D02*
X27889800D01*
X27810200Y15035600D02*
X27889800D01*
X27810200Y15061000D02*
X27889800D01*
X27810200Y15086400D02*
X27889800D01*
X27810200Y15111800D02*
X27889800D01*
X27810200Y15137200D02*
X27889800D01*
X27810200Y15162600D02*
X27889800D01*
X27810200Y15188000D02*
X27889800D01*
X27813000Y15010200D02*
Y15189800D01*
X27838400Y15010200D02*
Y15189800D01*
X27863800Y15010200D02*
Y15189800D01*
X27889200Y15010200D02*
Y15189800D01*
X27889800Y15689800D02*
Y15510200D01*
X27810200*
Y15689800*
X27889800*
X27810200Y15510200D02*
X27889800D01*
X27810200Y15535600D02*
X27889800D01*
X27810200Y15561000D02*
X27889800D01*
X27810200Y15586400D02*
X27889800D01*
X27810200Y15611800D02*
X27889800D01*
X27810200Y15637200D02*
X27889800D01*
X27810200Y15662600D02*
X27889800D01*
X27810200Y15688000D02*
X27889800D01*
X27813000Y15510200D02*
Y15689800D01*
X27838400Y15510200D02*
Y15689800D01*
X27863800Y15510200D02*
Y15689800D01*
X27889200Y15510200D02*
Y15689800D01*
X27889800Y19210200D02*
Y19389800D01*
X27810200*
Y19210200*
X27889800*
X27810200D02*
X27889800D01*
X27810200Y19235600D02*
X27889800D01*
X27810200Y19261000D02*
X27889800D01*
X27810200Y19286400D02*
X27889800D01*
X27810200Y19311800D02*
X27889800D01*
X27810200Y19337200D02*
X27889800D01*
X27810200Y19362600D02*
X27889800D01*
X27810200Y19388000D02*
X27889800D01*
X27813000Y19210200D02*
Y19389800D01*
X27838400Y19210200D02*
Y19389800D01*
X27863800Y19210200D02*
Y19389800D01*
X27889200Y19210200D02*
Y19389800D01*
X27889800Y19889800D02*
Y19710200D01*
X27810200*
Y19889800*
X27889800*
X27810200Y19710200D02*
X27889800D01*
X27810200Y19735600D02*
X27889800D01*
X27810200Y19761000D02*
X27889800D01*
X27810200Y19786400D02*
X27889800D01*
X27810200Y19811800D02*
X27889800D01*
X27810200Y19837200D02*
X27889800D01*
X27810200Y19862600D02*
X27889800D01*
X27810200Y19888000D02*
X27889800D01*
X27813000Y19710200D02*
Y19889800D01*
X27838400Y19710200D02*
Y19889800D01*
X27863800Y19710200D02*
Y19889800D01*
X27889200Y19710200D02*
Y19889800D01*
X29589800Y15010200D02*
Y15189800D01*
X29510200*
Y15010200*
X29589800*
X29510200D02*
X29589800D01*
X29510200Y15035600D02*
X29589800D01*
X29510200Y15061000D02*
X29589800D01*
X29510200Y15086400D02*
X29589800D01*
X29510200Y15111800D02*
X29589800D01*
X29510200Y15137200D02*
X29589800D01*
X29510200Y15162600D02*
X29589800D01*
X29510200Y15188000D02*
X29589800D01*
X29514800Y15010200D02*
Y15189800D01*
X29540200Y15010200D02*
Y15189800D01*
X29565600Y15010200D02*
Y15189800D01*
X29589800Y15689800D02*
Y15510200D01*
X29510200*
Y15689800*
X29589800*
X29510200Y15510200D02*
X29589800D01*
X29510200Y15535600D02*
X29589800D01*
X29510200Y15561000D02*
X29589800D01*
X29510200Y15586400D02*
X29589800D01*
X29510200Y15611800D02*
X29589800D01*
X29510200Y15637200D02*
X29589800D01*
X29510200Y15662600D02*
X29589800D01*
X29510200Y15688000D02*
X29589800D01*
X29514800Y15510200D02*
Y15689800D01*
X29540200Y15510200D02*
Y15689800D01*
X29565600Y15510200D02*
Y15689800D01*
X29589800Y19210200D02*
Y19389800D01*
X29510200*
Y19210200*
X29589800*
X29510200D02*
X29589800D01*
X29510200Y19235600D02*
X29589800D01*
X29510200Y19261000D02*
X29589800D01*
X29510200Y19286400D02*
X29589800D01*
X29510200Y19311800D02*
X29589800D01*
X29510200Y19337200D02*
X29589800D01*
X29510200Y19362600D02*
X29589800D01*
X29510200Y19388000D02*
X29589800D01*
X29514800Y19210200D02*
Y19389800D01*
X29540200Y19210200D02*
Y19389800D01*
X29565600Y19210200D02*
Y19389800D01*
X29589800Y19889800D02*
Y19710200D01*
X29510200*
Y19889800*
X29589800*
X29510200Y19710200D02*
X29589800D01*
X29510200Y19735600D02*
X29589800D01*
X29510200Y19761000D02*
X29589800D01*
X29510200Y19786400D02*
X29589800D01*
X29510200Y19811800D02*
X29589800D01*
X29510200Y19837200D02*
X29589800D01*
X29510200Y19862600D02*
X29589800D01*
X29510200Y19888000D02*
X29589800D01*
X29514800Y19710200D02*
Y19889800D01*
X29540200Y19710200D02*
Y19889800D01*
X29565600Y19710200D02*
Y19889800D01*
X31289800Y15010200D02*
Y15189800D01*
X31210200*
Y15010200*
X31289800*
X31210200D02*
X31289800D01*
X31210200Y15035600D02*
X31289800D01*
X31210200Y15061000D02*
X31289800D01*
X31210200Y15086400D02*
X31289800D01*
X31210200Y15111800D02*
X31289800D01*
X31210200Y15137200D02*
X31289800D01*
X31210200Y15162600D02*
X31289800D01*
X31210200Y15188000D02*
X31289800D01*
X31216600Y15010200D02*
Y15189800D01*
X31242000Y15010200D02*
Y15189800D01*
X31267400Y15010200D02*
Y15189800D01*
X31289800Y15689800D02*
Y15510200D01*
X31210200*
Y15689800*
X31289800*
X31210200Y15510200D02*
X31289800D01*
X31210200Y15535600D02*
X31289800D01*
X31210200Y15561000D02*
X31289800D01*
X31210200Y15586400D02*
X31289800D01*
X31210200Y15611800D02*
X31289800D01*
X31210200Y15637200D02*
X31289800D01*
X31210200Y15662600D02*
X31289800D01*
X31210200Y15688000D02*
X31289800D01*
X31216600Y15510200D02*
Y15689800D01*
X31242000Y15510200D02*
Y15689800D01*
X31267400Y15510200D02*
Y15689800D01*
X31289800Y19210200D02*
Y19389800D01*
X31210200*
Y19210200*
X31289800*
X31210200D02*
X31289800D01*
X31210200Y19235600D02*
X31289800D01*
X31210200Y19261000D02*
X31289800D01*
X31210200Y19286400D02*
X31289800D01*
X31210200Y19311800D02*
X31289800D01*
X31210200Y19337200D02*
X31289800D01*
X31210200Y19362600D02*
X31289800D01*
X31210200Y19388000D02*
X31289800D01*
X31216600Y19210200D02*
Y19389800D01*
X31242000Y19210200D02*
Y19389800D01*
X31267400Y19210200D02*
Y19389800D01*
X31289800Y19889800D02*
Y19710200D01*
X31210200*
Y19889800*
X31289800*
X31210200Y19710200D02*
X31289800D01*
X31210200Y19735600D02*
X31289800D01*
X31210200Y19761000D02*
X31289800D01*
X31210200Y19786400D02*
X31289800D01*
X31210200Y19811800D02*
X31289800D01*
X31210200Y19837200D02*
X31289800D01*
X31210200Y19862600D02*
X31289800D01*
X31210200Y19888000D02*
X31289800D01*
X31216600Y19710200D02*
Y19889800D01*
X31242000Y19710200D02*
Y19889800D01*
X31267400Y19710200D02*
Y19889800D01*
X32989800Y15010200D02*
Y15189800D01*
X32910200*
Y15010200*
X32989800*
X32910200D02*
X32989800D01*
X32910200Y15035600D02*
X32989800D01*
X32910200Y15061000D02*
X32989800D01*
X32910200Y15086400D02*
X32989800D01*
X32910200Y15111800D02*
X32989800D01*
X32910200Y15137200D02*
X32989800D01*
X32910200Y15162600D02*
X32989800D01*
X32910200Y15188000D02*
X32989800D01*
X32918400Y15010200D02*
Y15189800D01*
X32943800Y15010200D02*
Y15189800D01*
X32969200Y15010200D02*
Y15189800D01*
X32989800Y15689800D02*
Y15510200D01*
X32910200*
Y15689800*
X32989800*
X32910200Y15510200D02*
X32989800D01*
X32910200Y15535600D02*
X32989800D01*
X32910200Y15561000D02*
X32989800D01*
X32910200Y15586400D02*
X32989800D01*
X32910200Y15611800D02*
X32989800D01*
X32910200Y15637200D02*
X32989800D01*
X32910200Y15662600D02*
X32989800D01*
X32910200Y15688000D02*
X32989800D01*
X32918400Y15510200D02*
Y15689800D01*
X32943800Y15510200D02*
Y15689800D01*
X32969200Y15510200D02*
Y15689800D01*
X26788750Y17139850D02*
X27111250D01*
Y16898550*
X27257300*
Y16601450*
X26642700*
Y16898550*
X26788750*
Y17139850*
X26642700Y16601450D02*
X27257300D01*
X26642700Y16626850D02*
X27257300D01*
X26642700Y16652250D02*
X27257300D01*
X26642700Y16677650D02*
X27257300D01*
X26642700Y16703050D02*
X27257300D01*
X26642700Y16728450D02*
X27257300D01*
X26642700Y16753850D02*
X27257300D01*
X26642700Y16779250D02*
X27257300D01*
X26642700Y16804650D02*
X27257300D01*
X26642700Y16830050D02*
X27257300D01*
X26642700Y16855450D02*
X27257300D01*
X26642700Y16880850D02*
X27257300D01*
X26788750Y16906250D02*
X27111250D01*
X26788750Y16931650D02*
X27111250D01*
X26788750Y16957050D02*
X27111250D01*
X26788750Y16982450D02*
X27111250D01*
X26788750Y17007850D02*
X27111250D01*
X26788750Y17033250D02*
X27111250D01*
X26788750Y17058650D02*
X27111250D01*
X26788750Y17084050D02*
X27111250D01*
X26788750Y17109450D02*
X27111250D01*
X26788750Y17134850D02*
X27111250D01*
X26644600Y16601450D02*
Y16898550D01*
X26670000Y16601450D02*
Y16898550D01*
X26695400Y16601450D02*
Y16898550D01*
X26720800Y16601450D02*
Y16898550D01*
X26746200Y16601450D02*
Y16898550D01*
X26771600Y16601450D02*
Y16898550D01*
X26797000Y16601450D02*
Y17139850D01*
X26822400Y16601450D02*
Y17139850D01*
X26847800Y16601450D02*
Y17139850D01*
X26873200Y16601450D02*
Y17139850D01*
X26898600Y16601450D02*
Y17139850D01*
X26924000Y16601450D02*
Y17139850D01*
X26949400Y16601450D02*
Y17139850D01*
X26974800Y16601450D02*
Y17139850D01*
X27000200Y16601450D02*
Y17139850D01*
X27025600Y16601450D02*
Y17139850D01*
X27051000Y16601450D02*
Y17139850D01*
X27076400Y16601450D02*
Y17139850D01*
X27101800Y16601450D02*
Y17139850D01*
X27127200Y16601450D02*
Y16898550D01*
X27152600Y16601450D02*
Y16898550D01*
X27178000Y16601450D02*
Y16898550D01*
X27203400Y16601450D02*
Y16898550D01*
X27228800Y16601450D02*
Y16898550D01*
X27254200Y16601450D02*
Y16898550D01*
X27131650Y16511200D02*
X27225550D01*
Y16360150*
X27131650*
Y16511200*
Y16360150D02*
X27225550D01*
X27131650Y16385550D02*
X27225550D01*
X27131650Y16410950D02*
X27225550D01*
X27131650Y16436350D02*
X27225550D01*
X27131650Y16461750D02*
X27225550D01*
X27131650Y16487150D02*
X27225550D01*
X27152600Y16360150D02*
Y16511200D01*
X27178000Y16360150D02*
Y16511200D01*
X27203400Y16360150D02*
Y16511200D01*
X26903050D02*
X26996950D01*
Y16360150*
X26903050*
Y16511200*
Y16360150D02*
X26996950D01*
X26903050Y16385550D02*
X26996950D01*
X26903050Y16410950D02*
X26996950D01*
X26903050Y16436350D02*
X26996950D01*
X26903050Y16461750D02*
X26996950D01*
X26903050Y16487150D02*
X26996950D01*
X26924000Y16360150D02*
Y16511200D01*
X26949400Y16360150D02*
Y16511200D01*
X26974800Y16360150D02*
Y16511200D01*
X26674450D02*
X26768350D01*
Y16360150*
X26674450*
Y16511200*
Y16360150D02*
X26768350D01*
X26674450Y16385550D02*
X26768350D01*
X26674450Y16410950D02*
X26768350D01*
X26674450Y16436350D02*
X26768350D01*
X26674450Y16461750D02*
X26768350D01*
X26674450Y16487150D02*
X26768350D01*
X26695400Y16360150D02*
Y16511200D01*
X26720800Y16360150D02*
Y16511200D01*
X26746200Y16360150D02*
Y16511200D01*
X30188750Y21339850D02*
X30511250D01*
Y21098550*
X30657300*
Y20801450*
X30042700*
Y21098550*
X30188750*
Y21339850*
X30042700Y20801450D02*
X30657300D01*
X30042700Y20826850D02*
X30657300D01*
X30042700Y20852250D02*
X30657300D01*
X30042700Y20877650D02*
X30657300D01*
X30042700Y20903050D02*
X30657300D01*
X30042700Y20928450D02*
X30657300D01*
X30042700Y20953850D02*
X30657300D01*
X30042700Y20979250D02*
X30657300D01*
X30042700Y21004650D02*
X30657300D01*
X30042700Y21030050D02*
X30657300D01*
X30042700Y21055450D02*
X30657300D01*
X30042700Y21080850D02*
X30657300D01*
X30188750Y21106250D02*
X30511250D01*
X30188750Y21131650D02*
X30511250D01*
X30188750Y21157050D02*
X30511250D01*
X30188750Y21182450D02*
X30511250D01*
X30188750Y21207850D02*
X30511250D01*
X30188750Y21233250D02*
X30511250D01*
X30188750Y21258650D02*
X30511250D01*
X30188750Y21284050D02*
X30511250D01*
X30188750Y21309450D02*
X30511250D01*
X30188750Y21334850D02*
X30511250D01*
X30048200Y20801450D02*
Y21098550D01*
X30073600Y20801450D02*
Y21098550D01*
X30099000Y20801450D02*
Y21098550D01*
X30124400Y20801450D02*
Y21098550D01*
X30149800Y20801450D02*
Y21098550D01*
X30175200Y20801450D02*
Y21098550D01*
X30200600Y20801450D02*
Y21339850D01*
X30226000Y20801450D02*
Y21339850D01*
X30251400Y20801450D02*
Y21339850D01*
X30276800Y20801450D02*
Y21339850D01*
X30302200Y20801450D02*
Y21339850D01*
X30327600Y20801450D02*
Y21339850D01*
X30353000Y20801450D02*
Y21339850D01*
X30378400Y20801450D02*
Y21339850D01*
X30403800Y20801450D02*
Y21339850D01*
X30429200Y20801450D02*
Y21339850D01*
X30454600Y20801450D02*
Y21339850D01*
X30480000Y20801450D02*
Y21339850D01*
X30505400Y20801450D02*
Y21339850D01*
X30530800Y20801450D02*
Y21098550D01*
X30556200Y20801450D02*
Y21098550D01*
X30581600Y20801450D02*
Y21098550D01*
X30607000Y20801450D02*
Y21098550D01*
X30632400Y20801450D02*
Y21098550D01*
X30531650Y20711200D02*
X30625550D01*
Y20560150*
X30531650*
Y20711200*
Y20560150D02*
X30625550D01*
X30531650Y20585550D02*
X30625550D01*
X30531650Y20610950D02*
X30625550D01*
X30531650Y20636350D02*
X30625550D01*
X30531650Y20661750D02*
X30625550D01*
X30531650Y20687150D02*
X30625550D01*
X30556200Y20560150D02*
Y20711200D01*
X30581600Y20560150D02*
Y20711200D01*
X30607000Y20560150D02*
Y20711200D01*
X30303050D02*
X30396950D01*
Y20560150*
X30303050*
Y20711200*
Y20560150D02*
X30396950D01*
X30303050Y20585550D02*
X30396950D01*
X30303050Y20610950D02*
X30396950D01*
X30303050Y20636350D02*
X30396950D01*
X30303050Y20661750D02*
X30396950D01*
X30303050Y20687150D02*
X30396950D01*
X30327600Y20560150D02*
Y20711200D01*
X30353000Y20560150D02*
Y20711200D01*
X30378400Y20560150D02*
Y20711200D01*
X30074450D02*
X30168350D01*
Y20560150*
X30074450*
Y20711200*
Y20560150D02*
X30168350D01*
X30074450Y20585550D02*
X30168350D01*
X30074450Y20610950D02*
X30168350D01*
X30074450Y20636350D02*
X30168350D01*
X30074450Y20661750D02*
X30168350D01*
X30074450Y20687150D02*
X30168350D01*
X30099000Y20560150D02*
Y20711200D01*
X30124400Y20560150D02*
Y20711200D01*
X30149800Y20560150D02*
Y20711200D01*
X30510200Y17914800D02*
X30589800D01*
Y17822700*
X30510200*
Y17914800*
Y17822700D02*
X30589800D01*
X30510200Y17848100D02*
X30589800D01*
X30510200Y17873500D02*
X30589800D01*
X30510200Y17898900D02*
X30589800D01*
X30530800Y17822700D02*
Y17914800D01*
X30556200Y17822700D02*
Y17914800D01*
X30581600Y17822700D02*
Y17914800D01*
X30420500Y17689000D02*
X30501700D01*
Y17620500*
X30420500*
Y17689000*
Y17620500D02*
X30501700D01*
X30420500Y17645900D02*
X30501700D01*
X30420500Y17671300D02*
X30501700D01*
X30429200Y17620500D02*
Y17689000D01*
X30454600Y17620500D02*
Y17689000D01*
X30480000Y17620500D02*
Y17689000D01*
X30598300D02*
X30679500D01*
Y17620500*
X30598300*
Y17689000*
Y17620500D02*
X30679500D01*
X30598300Y17645900D02*
X30679500D01*
X30598300Y17671300D02*
X30679500D01*
X30607000Y17620500D02*
Y17689000D01*
X30632400Y17620500D02*
Y17689000D01*
X30657800Y17620500D02*
Y17689000D01*
X30510200Y22114800D02*
X30589800D01*
Y22022700*
X30510200*
Y22114800*
Y22022700D02*
X30589800D01*
X30510200Y22048100D02*
X30589800D01*
X30510200Y22073500D02*
X30589800D01*
X30510200Y22098900D02*
X30589800D01*
X30530800Y22022700D02*
Y22114800D01*
X30556200Y22022700D02*
Y22114800D01*
X30581600Y22022700D02*
Y22114800D01*
X30420500Y21889000D02*
X30501700D01*
Y21820500*
X30420500*
Y21889000*
Y21820500D02*
X30501700D01*
X30420500Y21845900D02*
X30501700D01*
X30420500Y21871300D02*
X30501700D01*
X30429200Y21820500D02*
Y21889000D01*
X30454600Y21820500D02*
Y21889000D01*
X30480000Y21820500D02*
Y21889000D01*
X30598300D02*
X30679500D01*
Y21820500*
X30598300*
Y21889000*
Y21820500D02*
X30679500D01*
X30598300Y21845900D02*
X30679500D01*
X30598300Y21871300D02*
X30679500D01*
X30607000Y21820500D02*
Y21889000D01*
X30632400Y21820500D02*
Y21889000D01*
X30657800Y21820500D02*
Y21889000D01*
X31888750Y17139850D02*
X32211250D01*
Y16898550*
X32357300*
Y16601450*
X31742700*
Y16898550*
X31888750*
Y17139850*
X31742700Y16601450D02*
X32357300D01*
X31742700Y16626850D02*
X32357300D01*
X31742700Y16652250D02*
X32357300D01*
X31742700Y16677650D02*
X32357300D01*
X31742700Y16703050D02*
X32357300D01*
X31742700Y16728450D02*
X32357300D01*
X31742700Y16753850D02*
X32357300D01*
X31742700Y16779250D02*
X32357300D01*
X31742700Y16804650D02*
X32357300D01*
X31742700Y16830050D02*
X32357300D01*
X31742700Y16855450D02*
X32357300D01*
X31742700Y16880850D02*
X32357300D01*
X31888750Y16906250D02*
X32211250D01*
X31888750Y16931650D02*
X32211250D01*
X31888750Y16957050D02*
X32211250D01*
X31888750Y16982450D02*
X32211250D01*
X31888750Y17007850D02*
X32211250D01*
X31888750Y17033250D02*
X32211250D01*
X31888750Y17058650D02*
X32211250D01*
X31888750Y17084050D02*
X32211250D01*
X31888750Y17109450D02*
X32211250D01*
X31888750Y17134850D02*
X32211250D01*
X31750000Y16601450D02*
Y16898550D01*
X31775400Y16601450D02*
Y16898550D01*
X31800800Y16601450D02*
Y16898550D01*
X31826200Y16601450D02*
Y16898550D01*
X31851600Y16601450D02*
Y16898550D01*
X31877000Y16601450D02*
Y16898550D01*
X31902400Y16601450D02*
Y17139850D01*
X31927800Y16601450D02*
Y17139850D01*
X31953200Y16601450D02*
Y17139850D01*
X31978600Y16601450D02*
Y17139850D01*
X32004000Y16601450D02*
Y17139850D01*
X32029400Y16601450D02*
Y17139850D01*
X32054800Y16601450D02*
Y17139850D01*
X32080200Y16601450D02*
Y17139850D01*
X32105600Y16601450D02*
Y17139850D01*
X32131000Y16601450D02*
Y17139850D01*
X32156400Y16601450D02*
Y17139850D01*
X32181800Y16601450D02*
Y17139850D01*
X32207200Y16601450D02*
Y17139850D01*
X32232600Y16601450D02*
Y16898550D01*
X32258000Y16601450D02*
Y16898550D01*
X32283400Y16601450D02*
Y16898550D01*
X32308800Y16601450D02*
Y16898550D01*
X32334200Y16601450D02*
Y16898550D01*
X32231650Y16511200D02*
X32325550D01*
Y16360150*
X32231650*
Y16511200*
Y16360150D02*
X32325550D01*
X32231650Y16385550D02*
X32325550D01*
X32231650Y16410950D02*
X32325550D01*
X32231650Y16436350D02*
X32325550D01*
X32231650Y16461750D02*
X32325550D01*
X32231650Y16487150D02*
X32325550D01*
X32232600Y16360150D02*
Y16511200D01*
X32258000Y16360150D02*
Y16511200D01*
X32283400Y16360150D02*
Y16511200D01*
X32308800Y16360150D02*
Y16511200D01*
X32003050D02*
X32096950D01*
Y16360150*
X32003050*
Y16511200*
Y16360150D02*
X32096950D01*
X32003050Y16385550D02*
X32096950D01*
X32003050Y16410950D02*
X32096950D01*
X32003050Y16436350D02*
X32096950D01*
X32003050Y16461750D02*
X32096950D01*
X32003050Y16487150D02*
X32096950D01*
X32004000Y16360150D02*
Y16511200D01*
X32029400Y16360150D02*
Y16511200D01*
X32054800Y16360150D02*
Y16511200D01*
X32080200Y16360150D02*
Y16511200D01*
X31774450D02*
X31868350D01*
Y16360150*
X31774450*
Y16511200*
Y16360150D02*
X31868350D01*
X31774450Y16385550D02*
X31868350D01*
X31774450Y16410950D02*
X31868350D01*
X31774450Y16436350D02*
X31868350D01*
X31774450Y16461750D02*
X31868350D01*
X31774450Y16487150D02*
X31868350D01*
X31775400Y16360150D02*
Y16511200D01*
X31800800Y16360150D02*
Y16511200D01*
X31826200Y16360150D02*
Y16511200D01*
X31851600Y16360150D02*
Y16511200D01*
X31888750Y21339850D02*
X32211250D01*
Y21098550*
X32357300*
Y20801450*
X31742700*
Y21098550*
X31888750*
Y21339850*
X31742700Y20801450D02*
X32357300D01*
X31742700Y20826850D02*
X32357300D01*
X31742700Y20852250D02*
X32357300D01*
X31742700Y20877650D02*
X32357300D01*
X31742700Y20903050D02*
X32357300D01*
X31742700Y20928450D02*
X32357300D01*
X31742700Y20953850D02*
X32357300D01*
X31742700Y20979250D02*
X32357300D01*
X31742700Y21004650D02*
X32357300D01*
X31742700Y21030050D02*
X32357300D01*
X31742700Y21055450D02*
X32357300D01*
X31742700Y21080850D02*
X32357300D01*
X31888750Y21106250D02*
X32211250D01*
X31888750Y21131650D02*
X32211250D01*
X31888750Y21157050D02*
X32211250D01*
X31888750Y21182450D02*
X32211250D01*
X31888750Y21207850D02*
X32211250D01*
X31888750Y21233250D02*
X32211250D01*
X31888750Y21258650D02*
X32211250D01*
X31888750Y21284050D02*
X32211250D01*
X31888750Y21309450D02*
X32211250D01*
X31888750Y21334850D02*
X32211250D01*
X31750000Y20801450D02*
Y21098550D01*
X31775400Y20801450D02*
Y21098550D01*
X31800800Y20801450D02*
Y21098550D01*
X31826200Y20801450D02*
Y21098550D01*
X31851600Y20801450D02*
Y21098550D01*
X31877000Y20801450D02*
Y21098550D01*
X31902400Y20801450D02*
Y21339850D01*
X31927800Y20801450D02*
Y21339850D01*
X31953200Y20801450D02*
Y21339850D01*
X31978600Y20801450D02*
Y21339850D01*
X32004000Y20801450D02*
Y21339850D01*
X32029400Y20801450D02*
Y21339850D01*
X32054800Y20801450D02*
Y21339850D01*
X32080200Y20801450D02*
Y21339850D01*
X32105600Y20801450D02*
Y21339850D01*
X32131000Y20801450D02*
Y21339850D01*
X32156400Y20801450D02*
Y21339850D01*
X32181800Y20801450D02*
Y21339850D01*
X32207200Y20801450D02*
Y21339850D01*
X32232600Y20801450D02*
Y21098550D01*
X32258000Y20801450D02*
Y21098550D01*
X32283400Y20801450D02*
Y21098550D01*
X32308800Y20801450D02*
Y21098550D01*
X32334200Y20801450D02*
Y21098550D01*
X32231650Y20711200D02*
X32325550D01*
Y20560150*
X32231650*
Y20711200*
Y20560150D02*
X32325550D01*
X32231650Y20585550D02*
X32325550D01*
X32231650Y20610950D02*
X32325550D01*
X32231650Y20636350D02*
X32325550D01*
X32231650Y20661750D02*
X32325550D01*
X32231650Y20687150D02*
X32325550D01*
X32232600Y20560150D02*
Y20711200D01*
X32258000Y20560150D02*
Y20711200D01*
X32283400Y20560150D02*
Y20711200D01*
X32308800Y20560150D02*
Y20711200D01*
X32003050D02*
X32096950D01*
Y20560150*
X32003050*
Y20711200*
Y20560150D02*
X32096950D01*
X32003050Y20585550D02*
X32096950D01*
X32003050Y20610950D02*
X32096950D01*
X32003050Y20636350D02*
X32096950D01*
X32003050Y20661750D02*
X32096950D01*
X32003050Y20687150D02*
X32096950D01*
X32004000Y20560150D02*
Y20711200D01*
X32029400Y20560150D02*
Y20711200D01*
X32054800Y20560150D02*
Y20711200D01*
X32080200Y20560150D02*
Y20711200D01*
X31774450D02*
X31868350D01*
Y20560150*
X31774450*
Y20711200*
Y20560150D02*
X31868350D01*
X31774450Y20585550D02*
X31868350D01*
X31774450Y20610950D02*
X31868350D01*
X31774450Y20636350D02*
X31868350D01*
X31774450Y20661750D02*
X31868350D01*
X31774450Y20687150D02*
X31868350D01*
X31775400Y20560150D02*
Y20711200D01*
X31800800Y20560150D02*
Y20711200D01*
X31826200Y20560150D02*
Y20711200D01*
X31851600Y20560150D02*
Y20711200D01*
X32210200Y17914800D02*
X32289800D01*
Y17822700*
X32210200*
Y17914800*
Y17822700D02*
X32289800D01*
X32210200Y17848100D02*
X32289800D01*
X32210200Y17873500D02*
X32289800D01*
X32210200Y17898900D02*
X32289800D01*
X32232600Y17822700D02*
Y17914800D01*
X32258000Y17822700D02*
Y17914800D01*
X32283400Y17822700D02*
Y17914800D01*
X32120500Y17689000D02*
X32201700D01*
Y17620500*
X32120500*
Y17689000*
Y17620500D02*
X32201700D01*
X32120500Y17645900D02*
X32201700D01*
X32120500Y17671300D02*
X32201700D01*
X32131000Y17620500D02*
Y17689000D01*
X32156400Y17620500D02*
Y17689000D01*
X32181800Y17620500D02*
Y17689000D01*
X32298300D02*
X32379500D01*
Y17620500*
X32298300*
Y17689000*
Y17620500D02*
X32379500D01*
X32298300Y17645900D02*
X32379500D01*
X32298300Y17671300D02*
X32379500D01*
X32308800Y17620500D02*
Y17689000D01*
X32334200Y17620500D02*
Y17689000D01*
X32359600Y17620500D02*
Y17689000D01*
X32210200Y22114800D02*
X32289800D01*
Y22022700*
X32210200*
Y22114800*
Y22022700D02*
X32289800D01*
X32210200Y22048100D02*
X32289800D01*
X32210200Y22073500D02*
X32289800D01*
X32210200Y22098900D02*
X32289800D01*
X32232600Y22022700D02*
Y22114800D01*
X32258000Y22022700D02*
Y22114800D01*
X32283400Y22022700D02*
Y22114800D01*
X32120500Y21889000D02*
X32201700D01*
Y21820500*
X32120500*
Y21889000*
Y21820500D02*
X32201700D01*
X32120500Y21845900D02*
X32201700D01*
X32120500Y21871300D02*
X32201700D01*
X32131000Y21820500D02*
Y21889000D01*
X32156400Y21820500D02*
Y21889000D01*
X32181800Y21820500D02*
Y21889000D01*
X32298300D02*
X32379500D01*
Y21820500*
X32298300*
Y21889000*
Y21820500D02*
X32379500D01*
X32298300Y21845900D02*
X32379500D01*
X32298300Y21871300D02*
X32379500D01*
X32308800Y21820500D02*
Y21889000D01*
X32334200Y21820500D02*
Y21889000D01*
X32359600Y21820500D02*
Y21889000D01*
X33588750Y17139850D02*
X33911250D01*
Y16898550*
X34057300*
Y16601450*
X33442700*
Y16898550*
X33588750*
Y17139850*
X33442700Y16601450D02*
X34057300D01*
X33442700Y16626850D02*
X34057300D01*
X33442700Y16652250D02*
X34057300D01*
X33442700Y16677650D02*
X34057300D01*
X33442700Y16703050D02*
X34057300D01*
X33442700Y16728450D02*
X34057300D01*
X33442700Y16753850D02*
X34057300D01*
X33442700Y16779250D02*
X34057300D01*
X33442700Y16804650D02*
X34057300D01*
X33442700Y16830050D02*
X34057300D01*
X33442700Y16855450D02*
X34057300D01*
X33442700Y16880850D02*
X34057300D01*
X33588750Y16906250D02*
X33911250D01*
X33588750Y16931650D02*
X33911250D01*
X33588750Y16957050D02*
X33911250D01*
X33588750Y16982450D02*
X33911250D01*
X33588750Y17007850D02*
X33911250D01*
X33588750Y17033250D02*
X33911250D01*
X33588750Y17058650D02*
X33911250D01*
X33588750Y17084050D02*
X33911250D01*
X33588750Y17109450D02*
X33911250D01*
X33588750Y17134850D02*
X33911250D01*
X33451800Y16601450D02*
Y16898550D01*
X33477200Y16601450D02*
Y16898550D01*
X33502600Y16601450D02*
Y16898550D01*
X33528000Y16601450D02*
Y16898550D01*
X33553400Y16601450D02*
Y16898550D01*
X33578800Y16601450D02*
Y16898550D01*
X33604200Y16601450D02*
Y17139850D01*
X33629600Y16601450D02*
Y17139850D01*
X33655000Y16601450D02*
Y17139850D01*
X33680400Y16601450D02*
Y17139850D01*
X33705800Y16601450D02*
Y17139850D01*
X33731200Y16601450D02*
Y17139850D01*
X33756600Y16601450D02*
Y17139850D01*
X33782000Y16601450D02*
Y17139850D01*
X33807400Y16601450D02*
Y17139850D01*
X33832800Y16601450D02*
Y17139850D01*
X33858200Y16601450D02*
Y17139850D01*
X33883600Y16601450D02*
Y17139850D01*
X33909000Y16601450D02*
Y17139850D01*
X33934400Y16601450D02*
Y16898550D01*
X33959800Y16601450D02*
Y16898550D01*
X33985200Y16601450D02*
Y16898550D01*
X34010600Y16601450D02*
Y16898550D01*
X34036000Y16601450D02*
Y16898550D01*
X33931650Y16511200D02*
X34025550D01*
Y16360150*
X33931650*
Y16511200*
Y16360150D02*
X34025550D01*
X33931650Y16385550D02*
X34025550D01*
X33931650Y16410950D02*
X34025550D01*
X33931650Y16436350D02*
X34025550D01*
X33931650Y16461750D02*
X34025550D01*
X33931650Y16487150D02*
X34025550D01*
X33934400Y16360150D02*
Y16511200D01*
X33959800Y16360150D02*
Y16511200D01*
X33985200Y16360150D02*
Y16511200D01*
X34010600Y16360150D02*
Y16511200D01*
X33703050D02*
X33796950D01*
Y16360150*
X33703050*
Y16511200*
Y16360150D02*
X33796950D01*
X33703050Y16385550D02*
X33796950D01*
X33703050Y16410950D02*
X33796950D01*
X33703050Y16436350D02*
X33796950D01*
X33703050Y16461750D02*
X33796950D01*
X33703050Y16487150D02*
X33796950D01*
X33705800Y16360150D02*
Y16511200D01*
X33731200Y16360150D02*
Y16511200D01*
X33756600Y16360150D02*
Y16511200D01*
X33782000Y16360150D02*
Y16511200D01*
X33474450D02*
X33568350D01*
Y16360150*
X33474450*
Y16511200*
Y16360150D02*
X33568350D01*
X33474450Y16385550D02*
X33568350D01*
X33474450Y16410950D02*
X33568350D01*
X33474450Y16436350D02*
X33568350D01*
X33474450Y16461750D02*
X33568350D01*
X33474450Y16487150D02*
X33568350D01*
X33477200Y16360150D02*
Y16511200D01*
X33502600Y16360150D02*
Y16511200D01*
X33528000Y16360150D02*
Y16511200D01*
X33553400Y16360150D02*
Y16511200D01*
X33588750Y21339850D02*
X33911250D01*
Y21098550*
X34057300*
Y20801450*
X33442700*
Y21098550*
X33588750*
Y21339850*
X33442700Y20801450D02*
X34057300D01*
X33442700Y20826850D02*
X34057300D01*
X33442700Y20852250D02*
X34057300D01*
X33442700Y20877650D02*
X34057300D01*
X33442700Y20903050D02*
X34057300D01*
X33442700Y20928450D02*
X34057300D01*
X33442700Y20953850D02*
X34057300D01*
X33442700Y20979250D02*
X34057300D01*
X33442700Y21004650D02*
X34057300D01*
X33442700Y21030050D02*
X34057300D01*
X33442700Y21055450D02*
X34057300D01*
X33442700Y21080850D02*
X34057300D01*
X33588750Y21106250D02*
X33911250D01*
X33588750Y21131650D02*
X33911250D01*
X33588750Y21157050D02*
X33911250D01*
X33588750Y21182450D02*
X33911250D01*
X33588750Y21207850D02*
X33911250D01*
X33588750Y21233250D02*
X33911250D01*
X33588750Y21258650D02*
X33911250D01*
X33588750Y21284050D02*
X33911250D01*
X33588750Y21309450D02*
X33911250D01*
X33588750Y21334850D02*
X33911250D01*
X33451800Y20801450D02*
Y21098550D01*
X33477200Y20801450D02*
Y21098550D01*
X33502600Y20801450D02*
Y21098550D01*
X33528000Y20801450D02*
Y21098550D01*
X33553400Y20801450D02*
Y21098550D01*
X33578800Y20801450D02*
Y21098550D01*
X33604200Y20801450D02*
Y21339850D01*
X33629600Y20801450D02*
Y21339850D01*
X33655000Y20801450D02*
Y21339850D01*
X33680400Y20801450D02*
Y21339850D01*
X33705800Y20801450D02*
Y21339850D01*
X33731200Y20801450D02*
Y21339850D01*
X33756600Y20801450D02*
Y21339850D01*
X33782000Y20801450D02*
Y21339850D01*
X33807400Y20801450D02*
Y21339850D01*
X33832800Y20801450D02*
Y21339850D01*
X33858200Y20801450D02*
Y21339850D01*
X33883600Y20801450D02*
Y21339850D01*
X33909000Y20801450D02*
Y21339850D01*
X33934400Y20801450D02*
Y21098550D01*
X33959800Y20801450D02*
Y21098550D01*
X33985200Y20801450D02*
Y21098550D01*
X34010600Y20801450D02*
Y21098550D01*
X34036000Y20801450D02*
Y21098550D01*
X33931650Y20711200D02*
X34025550D01*
Y20560150*
X33931650*
Y20711200*
Y20560150D02*
X34025550D01*
X33931650Y20585550D02*
X34025550D01*
X33931650Y20610950D02*
X34025550D01*
X33931650Y20636350D02*
X34025550D01*
X33931650Y20661750D02*
X34025550D01*
X33931650Y20687150D02*
X34025550D01*
X33934400Y20560150D02*
Y20711200D01*
X33959800Y20560150D02*
Y20711200D01*
X33985200Y20560150D02*
Y20711200D01*
X34010600Y20560150D02*
Y20711200D01*
X33703050D02*
X33796950D01*
Y20560150*
X33703050*
Y20711200*
Y20560150D02*
X33796950D01*
X33703050Y20585550D02*
X33796950D01*
X33703050Y20610950D02*
X33796950D01*
X33703050Y20636350D02*
X33796950D01*
X33703050Y20661750D02*
X33796950D01*
X33703050Y20687150D02*
X33796950D01*
X33705800Y20560150D02*
Y20711200D01*
X33731200Y20560150D02*
Y20711200D01*
X33756600Y20560150D02*
Y20711200D01*
X33782000Y20560150D02*
Y20711200D01*
X33474450D02*
X33568350D01*
Y20560150*
X33474450*
Y20711200*
Y20560150D02*
X33568350D01*
X33474450Y20585550D02*
X33568350D01*
X33474450Y20610950D02*
X33568350D01*
X33474450Y20636350D02*
X33568350D01*
X33474450Y20661750D02*
X33568350D01*
X33474450Y20687150D02*
X33568350D01*
X33477200Y20560150D02*
Y20711200D01*
X33502600Y20560150D02*
Y20711200D01*
X33528000Y20560150D02*
Y20711200D01*
X33553400Y20560150D02*
Y20711200D01*
X33910200Y17914800D02*
X33989800D01*
Y17822700*
X33910200*
Y17914800*
Y17822700D02*
X33989800D01*
X33910200Y17848100D02*
X33989800D01*
X33910200Y17873500D02*
X33989800D01*
X33910200Y17898900D02*
X33989800D01*
X33934400Y17822700D02*
Y17914800D01*
X33959800Y17822700D02*
Y17914800D01*
X33985200Y17822700D02*
Y17914800D01*
X33820500Y17689000D02*
X33901700D01*
Y17620500*
X33820500*
Y17689000*
Y17620500D02*
X33901700D01*
X33820500Y17645900D02*
X33901700D01*
X33820500Y17671300D02*
X33901700D01*
X33832800Y17620500D02*
Y17689000D01*
X33858200Y17620500D02*
Y17689000D01*
X33883600Y17620500D02*
Y17689000D01*
X33998300D02*
X34079500D01*
Y17620500*
X33998300*
Y17689000*
Y17620500D02*
X34079500D01*
X33998300Y17645900D02*
X34079500D01*
X33998300Y17671300D02*
X34079500D01*
X34010600Y17620500D02*
Y17689000D01*
X34036000Y17620500D02*
Y17689000D01*
X34061400Y17620500D02*
Y17689000D01*
X26788750Y21339850D02*
X27111250D01*
Y21098550*
X27257300*
Y20801450*
X26642700*
Y21098550*
X26788750*
Y21339850*
X26642700Y20801450D02*
X27257300D01*
X26642700Y20826850D02*
X27257300D01*
X26642700Y20852250D02*
X27257300D01*
X26642700Y20877650D02*
X27257300D01*
X26642700Y20903050D02*
X27257300D01*
X26642700Y20928450D02*
X27257300D01*
X26642700Y20953850D02*
X27257300D01*
X26642700Y20979250D02*
X27257300D01*
X26642700Y21004650D02*
X27257300D01*
X26642700Y21030050D02*
X27257300D01*
X26642700Y21055450D02*
X27257300D01*
X26642700Y21080850D02*
X27257300D01*
X26788750Y21106250D02*
X27111250D01*
X26788750Y21131650D02*
X27111250D01*
X26788750Y21157050D02*
X27111250D01*
X26788750Y21182450D02*
X27111250D01*
X26788750Y21207850D02*
X27111250D01*
X26788750Y21233250D02*
X27111250D01*
X26788750Y21258650D02*
X27111250D01*
X26788750Y21284050D02*
X27111250D01*
X26788750Y21309450D02*
X27111250D01*
X26788750Y21334850D02*
X27111250D01*
X26644600Y20801450D02*
Y21098550D01*
X26670000Y20801450D02*
Y21098550D01*
X26695400Y20801450D02*
Y21098550D01*
X26720800Y20801450D02*
Y21098550D01*
X26746200Y20801450D02*
Y21098550D01*
X26771600Y20801450D02*
Y21098550D01*
X26797000Y20801450D02*
Y21339850D01*
X26822400Y20801450D02*
Y21339850D01*
X26847800Y20801450D02*
Y21339850D01*
X26873200Y20801450D02*
Y21339850D01*
X26898600Y20801450D02*
Y21339850D01*
X26924000Y20801450D02*
Y21339850D01*
X26949400Y20801450D02*
Y21339850D01*
X26974800Y20801450D02*
Y21339850D01*
X27000200Y20801450D02*
Y21339850D01*
X27025600Y20801450D02*
Y21339850D01*
X27051000Y20801450D02*
Y21339850D01*
X27076400Y20801450D02*
Y21339850D01*
X27101800Y20801450D02*
Y21339850D01*
X27127200Y20801450D02*
Y21098550D01*
X27152600Y20801450D02*
Y21098550D01*
X27178000Y20801450D02*
Y21098550D01*
X27203400Y20801450D02*
Y21098550D01*
X27228800Y20801450D02*
Y21098550D01*
X27254200Y20801450D02*
Y21098550D01*
X27131650Y20711200D02*
X27225550D01*
Y20560150*
X27131650*
Y20711200*
Y20560150D02*
X27225550D01*
X27131650Y20585550D02*
X27225550D01*
X27131650Y20610950D02*
X27225550D01*
X27131650Y20636350D02*
X27225550D01*
X27131650Y20661750D02*
X27225550D01*
X27131650Y20687150D02*
X27225550D01*
X27152600Y20560150D02*
Y20711200D01*
X27178000Y20560150D02*
Y20711200D01*
X27203400Y20560150D02*
Y20711200D01*
X26903050D02*
X26996950D01*
Y20560150*
X26903050*
Y20711200*
Y20560150D02*
X26996950D01*
X26903050Y20585550D02*
X26996950D01*
X26903050Y20610950D02*
X26996950D01*
X26903050Y20636350D02*
X26996950D01*
X26903050Y20661750D02*
X26996950D01*
X26903050Y20687150D02*
X26996950D01*
X26924000Y20560150D02*
Y20711200D01*
X26949400Y20560150D02*
Y20711200D01*
X26974800Y20560150D02*
Y20711200D01*
X26674450D02*
X26768350D01*
Y20560150*
X26674450*
Y20711200*
Y20560150D02*
X26768350D01*
X26674450Y20585550D02*
X26768350D01*
X26674450Y20610950D02*
X26768350D01*
X26674450Y20636350D02*
X26768350D01*
X26674450Y20661750D02*
X26768350D01*
X26674450Y20687150D02*
X26768350D01*
X26695400Y20560150D02*
Y20711200D01*
X26720800Y20560150D02*
Y20711200D01*
X26746200Y20560150D02*
Y20711200D01*
X33910200Y22114800D02*
X33989800D01*
Y22022700*
X33910200*
Y22114800*
Y22022700D02*
X33989800D01*
X33910200Y22048100D02*
X33989800D01*
X33910200Y22073500D02*
X33989800D01*
X33910200Y22098900D02*
X33989800D01*
X33934400Y22022700D02*
Y22114800D01*
X33959800Y22022700D02*
Y22114800D01*
X33985200Y22022700D02*
Y22114800D01*
X33820500Y21889000D02*
X33901700D01*
Y21820500*
X33820500*
Y21889000*
Y21820500D02*
X33901700D01*
X33820500Y21845900D02*
X33901700D01*
X33820500Y21871300D02*
X33901700D01*
X33832800Y21820500D02*
Y21889000D01*
X33858200Y21820500D02*
Y21889000D01*
X33883600Y21820500D02*
Y21889000D01*
X33998300D02*
X34079500D01*
Y21820500*
X33998300*
Y21889000*
Y21820500D02*
X34079500D01*
X33998300Y21845900D02*
X34079500D01*
X33998300Y21871300D02*
X34079500D01*
X34010600Y21820500D02*
Y21889000D01*
X34036000Y21820500D02*
Y21889000D01*
X34061400Y21820500D02*
Y21889000D01*
X35288750Y17139850D02*
X35611250D01*
Y16898550*
X35757300*
Y16601450*
X35142700*
Y16898550*
X35288750*
Y17139850*
X35142700Y16601450D02*
X35757300D01*
X35142700Y16626850D02*
X35757300D01*
X35142700Y16652250D02*
X35757300D01*
X35142700Y16677650D02*
X35757300D01*
X35142700Y16703050D02*
X35757300D01*
X35142700Y16728450D02*
X35757300D01*
X35142700Y16753850D02*
X35757300D01*
X35142700Y16779250D02*
X35757300D01*
X35142700Y16804650D02*
X35757300D01*
X35142700Y16830050D02*
X35757300D01*
X35142700Y16855450D02*
X35757300D01*
X35142700Y16880850D02*
X35757300D01*
X35288750Y16906250D02*
X35611250D01*
X35288750Y16931650D02*
X35611250D01*
X35288750Y16957050D02*
X35611250D01*
X35288750Y16982450D02*
X35611250D01*
X35288750Y17007850D02*
X35611250D01*
X35288750Y17033250D02*
X35611250D01*
X35288750Y17058650D02*
X35611250D01*
X35288750Y17084050D02*
X35611250D01*
X35288750Y17109450D02*
X35611250D01*
X35288750Y17134850D02*
X35611250D01*
X35153600Y16601450D02*
Y16898550D01*
X35179000Y16601450D02*
Y16898550D01*
X35204400Y16601450D02*
Y16898550D01*
X35229800Y16601450D02*
Y16898550D01*
X35255200Y16601450D02*
Y16898550D01*
X35280600Y16601450D02*
Y16898550D01*
X35306000Y16601450D02*
Y17139850D01*
X35331400Y16601450D02*
Y17139850D01*
X35356800Y16601450D02*
Y17139850D01*
X35382200Y16601450D02*
Y17139850D01*
X35407600Y16601450D02*
Y17139850D01*
X35433000Y16601450D02*
Y17139850D01*
X35458400Y16601450D02*
Y17139850D01*
X35483800Y16601450D02*
Y17139850D01*
X35509200Y16601450D02*
Y17139850D01*
X35534600Y16601450D02*
Y17139850D01*
X35560000Y16601450D02*
Y17139850D01*
X35585400Y16601450D02*
Y17139850D01*
X35610800Y16601450D02*
Y17139850D01*
X35636200Y16601450D02*
Y16898550D01*
X35661600Y16601450D02*
Y16898550D01*
X35687000Y16601450D02*
Y16898550D01*
X35712400Y16601450D02*
Y16898550D01*
X35737800Y16601450D02*
Y16898550D01*
X35631650Y16511200D02*
X35725550D01*
Y16360150*
X35631650*
Y16511200*
Y16360150D02*
X35725550D01*
X35631650Y16385550D02*
X35725550D01*
X35631650Y16410950D02*
X35725550D01*
X35631650Y16436350D02*
X35725550D01*
X35631650Y16461750D02*
X35725550D01*
X35631650Y16487150D02*
X35725550D01*
X35636200Y16360150D02*
Y16511200D01*
X35661600Y16360150D02*
Y16511200D01*
X35687000Y16360150D02*
Y16511200D01*
X35712400Y16360150D02*
Y16511200D01*
X35403050D02*
X35496950D01*
Y16360150*
X35403050*
Y16511200*
Y16360150D02*
X35496950D01*
X35403050Y16385550D02*
X35496950D01*
X35403050Y16410950D02*
X35496950D01*
X35403050Y16436350D02*
X35496950D01*
X35403050Y16461750D02*
X35496950D01*
X35403050Y16487150D02*
X35496950D01*
X35407600Y16360150D02*
Y16511200D01*
X35433000Y16360150D02*
Y16511200D01*
X35458400Y16360150D02*
Y16511200D01*
X35483800Y16360150D02*
Y16511200D01*
X35174450D02*
X35268350D01*
Y16360150*
X35174450*
Y16511200*
Y16360150D02*
X35268350D01*
X35174450Y16385550D02*
X35268350D01*
X35174450Y16410950D02*
X35268350D01*
X35174450Y16436350D02*
X35268350D01*
X35174450Y16461750D02*
X35268350D01*
X35174450Y16487150D02*
X35268350D01*
X35179000Y16360150D02*
Y16511200D01*
X35204400Y16360150D02*
Y16511200D01*
X35229800Y16360150D02*
Y16511200D01*
X35255200Y16360150D02*
Y16511200D01*
X35288750Y21339850D02*
X35611250D01*
Y21098550*
X35757300*
Y20801450*
X35142700*
Y21098550*
X35288750*
Y21339850*
X35142700Y20801450D02*
X35757300D01*
X35142700Y20826850D02*
X35757300D01*
X35142700Y20852250D02*
X35757300D01*
X35142700Y20877650D02*
X35757300D01*
X35142700Y20903050D02*
X35757300D01*
X35142700Y20928450D02*
X35757300D01*
X35142700Y20953850D02*
X35757300D01*
X35142700Y20979250D02*
X35757300D01*
X35142700Y21004650D02*
X35757300D01*
X35142700Y21030050D02*
X35757300D01*
X35142700Y21055450D02*
X35757300D01*
X35142700Y21080850D02*
X35757300D01*
X35288750Y21106250D02*
X35611250D01*
X35288750Y21131650D02*
X35611250D01*
X35288750Y21157050D02*
X35611250D01*
X35288750Y21182450D02*
X35611250D01*
X35288750Y21207850D02*
X35611250D01*
X35288750Y21233250D02*
X35611250D01*
X35288750Y21258650D02*
X35611250D01*
X35288750Y21284050D02*
X35611250D01*
X35288750Y21309450D02*
X35611250D01*
X35288750Y21334850D02*
X35611250D01*
X35153600Y20801450D02*
Y21098550D01*
X35179000Y20801450D02*
Y21098550D01*
X35204400Y20801450D02*
Y21098550D01*
X35229800Y20801450D02*
Y21098550D01*
X35255200Y20801450D02*
Y21098550D01*
X35280600Y20801450D02*
Y21098550D01*
X35306000Y20801450D02*
Y21339850D01*
X35331400Y20801450D02*
Y21339850D01*
X35356800Y20801450D02*
Y21339850D01*
X35382200Y20801450D02*
Y21339850D01*
X35407600Y20801450D02*
Y21339850D01*
X35433000Y20801450D02*
Y21339850D01*
X35458400Y20801450D02*
Y21339850D01*
X35483800Y20801450D02*
Y21339850D01*
X35509200Y20801450D02*
Y21339850D01*
X35534600Y20801450D02*
Y21339850D01*
X35560000Y20801450D02*
Y21339850D01*
X35585400Y20801450D02*
Y21339850D01*
X35610800Y20801450D02*
Y21339850D01*
X35636200Y20801450D02*
Y21098550D01*
X35661600Y20801450D02*
Y21098550D01*
X35687000Y20801450D02*
Y21098550D01*
X35712400Y20801450D02*
Y21098550D01*
X35737800Y20801450D02*
Y21098550D01*
X35631650Y20711200D02*
X35725550D01*
Y20560150*
X35631650*
Y20711200*
Y20560150D02*
X35725550D01*
X35631650Y20585550D02*
X35725550D01*
X35631650Y20610950D02*
X35725550D01*
X35631650Y20636350D02*
X35725550D01*
X35631650Y20661750D02*
X35725550D01*
X35631650Y20687150D02*
X35725550D01*
X35636200Y20560150D02*
Y20711200D01*
X35661600Y20560150D02*
Y20711200D01*
X35687000Y20560150D02*
Y20711200D01*
X35712400Y20560150D02*
Y20711200D01*
X35403050D02*
X35496950D01*
Y20560150*
X35403050*
Y20711200*
Y20560150D02*
X35496950D01*
X35403050Y20585550D02*
X35496950D01*
X35403050Y20610950D02*
X35496950D01*
X35403050Y20636350D02*
X35496950D01*
X35403050Y20661750D02*
X35496950D01*
X35403050Y20687150D02*
X35496950D01*
X35407600Y20560150D02*
Y20711200D01*
X35433000Y20560150D02*
Y20711200D01*
X35458400Y20560150D02*
Y20711200D01*
X35483800Y20560150D02*
Y20711200D01*
X35174450D02*
X35268350D01*
Y20560150*
X35174450*
Y20711200*
Y20560150D02*
X35268350D01*
X35174450Y20585550D02*
X35268350D01*
X35174450Y20610950D02*
X35268350D01*
X35174450Y20636350D02*
X35268350D01*
X35174450Y20661750D02*
X35268350D01*
X35174450Y20687150D02*
X35268350D01*
X35179000Y20560150D02*
Y20711200D01*
X35204400Y20560150D02*
Y20711200D01*
X35229800Y20560150D02*
Y20711200D01*
X35255200Y20560150D02*
Y20711200D01*
X35610200Y17914800D02*
X35689800D01*
Y17822700*
X35610200*
Y17914800*
Y17822700D02*
X35689800D01*
X35610200Y17848100D02*
X35689800D01*
X35610200Y17873500D02*
X35689800D01*
X35610200Y17898900D02*
X35689800D01*
X35610800Y17822700D02*
Y17914800D01*
X35636200Y17822700D02*
Y17914800D01*
X35661600Y17822700D02*
Y17914800D01*
X35687000Y17822700D02*
Y17914800D01*
X35520500Y17689000D02*
X35601700D01*
Y17620500*
X35520500*
Y17689000*
Y17620500D02*
X35601700D01*
X35520500Y17645900D02*
X35601700D01*
X35520500Y17671300D02*
X35601700D01*
X35534600Y17620500D02*
Y17689000D01*
X35560000Y17620500D02*
Y17689000D01*
X35585400Y17620500D02*
Y17689000D01*
X35698300D02*
X35779500D01*
Y17620500*
X35698300*
Y17689000*
Y17620500D02*
X35779500D01*
X35698300Y17645900D02*
X35779500D01*
X35698300Y17671300D02*
X35779500D01*
X35712400Y17620500D02*
Y17689000D01*
X35737800Y17620500D02*
Y17689000D01*
X35763200Y17620500D02*
Y17689000D01*
X35610200Y22114800D02*
X35689800D01*
Y22022700*
X35610200*
Y22114800*
Y22022700D02*
X35689800D01*
X35610200Y22048100D02*
X35689800D01*
X35610200Y22073500D02*
X35689800D01*
X35610200Y22098900D02*
X35689800D01*
X35610800Y22022700D02*
Y22114800D01*
X35636200Y22022700D02*
Y22114800D01*
X35661600Y22022700D02*
Y22114800D01*
X35687000Y22022700D02*
Y22114800D01*
X35520500Y21889000D02*
X35601700D01*
Y21820500*
X35520500*
Y21889000*
Y21820500D02*
X35601700D01*
X35520500Y21845900D02*
X35601700D01*
X35520500Y21871300D02*
X35601700D01*
X35534600Y21820500D02*
Y21889000D01*
X35560000Y21820500D02*
Y21889000D01*
X35585400Y21820500D02*
Y21889000D01*
X35698300D02*
X35779500D01*
Y21820500*
X35698300*
Y21889000*
Y21820500D02*
X35779500D01*
X35698300Y21845900D02*
X35779500D01*
X35698300Y21871300D02*
X35779500D01*
X35712400Y21820500D02*
Y21889000D01*
X35737800Y21820500D02*
Y21889000D01*
X35763200Y21820500D02*
Y21889000D01*
X36988750Y17139850D02*
X37311250D01*
Y16898550*
X37457300*
Y16601450*
X36842700*
Y16898550*
X36988750*
Y17139850*
X36842700Y16601450D02*
X37457300D01*
X36842700Y16626850D02*
X37457300D01*
X36842700Y16652250D02*
X37457300D01*
X36842700Y16677650D02*
X37457300D01*
X36842700Y16703050D02*
X37457300D01*
X36842700Y16728450D02*
X37457300D01*
X36842700Y16753850D02*
X37457300D01*
X36842700Y16779250D02*
X37457300D01*
X36842700Y16804650D02*
X37457300D01*
X36842700Y16830050D02*
X37457300D01*
X36842700Y16855450D02*
X37457300D01*
X36842700Y16880850D02*
X37457300D01*
X36988750Y16906250D02*
X37311250D01*
X36988750Y16931650D02*
X37311250D01*
X36988750Y16957050D02*
X37311250D01*
X36988750Y16982450D02*
X37311250D01*
X36988750Y17007850D02*
X37311250D01*
X36988750Y17033250D02*
X37311250D01*
X36988750Y17058650D02*
X37311250D01*
X36988750Y17084050D02*
X37311250D01*
X36988750Y17109450D02*
X37311250D01*
X36988750Y17134850D02*
X37311250D01*
X36855400Y16601450D02*
Y16898550D01*
X36880800Y16601450D02*
Y16898550D01*
X36906200Y16601450D02*
Y16898550D01*
X36931600Y16601450D02*
Y16898550D01*
X36957000Y16601450D02*
Y16898550D01*
X36982400Y16601450D02*
Y16898550D01*
X37007800Y16601450D02*
Y17139850D01*
X37033200Y16601450D02*
Y17139850D01*
X37058600Y16601450D02*
Y17139850D01*
X37084000Y16601450D02*
Y17139850D01*
X37109400Y16601450D02*
Y17139850D01*
X37134800Y16601450D02*
Y17139850D01*
X37160200Y16601450D02*
Y17139850D01*
X37185600Y16601450D02*
Y17139850D01*
X37211000Y16601450D02*
Y17139850D01*
X37236400Y16601450D02*
Y17139850D01*
X37261800Y16601450D02*
Y17139850D01*
X37287200Y16601450D02*
Y17139850D01*
X37312600Y16601450D02*
Y16898550D01*
X37338000Y16601450D02*
Y16898550D01*
X37363400Y16601450D02*
Y16898550D01*
X37388800Y16601450D02*
Y16898550D01*
X37414200Y16601450D02*
Y16898550D01*
X37439600Y16601450D02*
Y16898550D01*
X37331650Y16511200D02*
X37425550D01*
Y16360150*
X37331650*
Y16511200*
Y16360150D02*
X37425550D01*
X37331650Y16385550D02*
X37425550D01*
X37331650Y16410950D02*
X37425550D01*
X37331650Y16436350D02*
X37425550D01*
X37331650Y16461750D02*
X37425550D01*
X37331650Y16487150D02*
X37425550D01*
X37338000Y16360150D02*
Y16511200D01*
X37363400Y16360150D02*
Y16511200D01*
X37388800Y16360150D02*
Y16511200D01*
X37414200Y16360150D02*
Y16511200D01*
X37103050D02*
X37196950D01*
Y16360150*
X37103050*
Y16511200*
Y16360150D02*
X37196950D01*
X37103050Y16385550D02*
X37196950D01*
X37103050Y16410950D02*
X37196950D01*
X37103050Y16436350D02*
X37196950D01*
X37103050Y16461750D02*
X37196950D01*
X37103050Y16487150D02*
X37196950D01*
X37109400Y16360150D02*
Y16511200D01*
X37134800Y16360150D02*
Y16511200D01*
X37160200Y16360150D02*
Y16511200D01*
X37185600Y16360150D02*
Y16511200D01*
X36874450D02*
X36968350D01*
Y16360150*
X36874450*
Y16511200*
Y16360150D02*
X36968350D01*
X36874450Y16385550D02*
X36968350D01*
X36874450Y16410950D02*
X36968350D01*
X36874450Y16436350D02*
X36968350D01*
X36874450Y16461750D02*
X36968350D01*
X36874450Y16487150D02*
X36968350D01*
X36880800Y16360150D02*
Y16511200D01*
X36906200Y16360150D02*
Y16511200D01*
X36931600Y16360150D02*
Y16511200D01*
X36957000Y16360150D02*
Y16511200D01*
X36988750Y21339850D02*
X37311250D01*
Y21098550*
X37457300*
Y20801450*
X36842700*
Y21098550*
X36988750*
Y21339850*
X36842700Y20801450D02*
X37457300D01*
X36842700Y20826850D02*
X37457300D01*
X36842700Y20852250D02*
X37457300D01*
X36842700Y20877650D02*
X37457300D01*
X36842700Y20903050D02*
X37457300D01*
X36842700Y20928450D02*
X37457300D01*
X36842700Y20953850D02*
X37457300D01*
X36842700Y20979250D02*
X37457300D01*
X36842700Y21004650D02*
X37457300D01*
X36842700Y21030050D02*
X37457300D01*
X36842700Y21055450D02*
X37457300D01*
X36842700Y21080850D02*
X37457300D01*
X36988750Y21106250D02*
X37311250D01*
X36988750Y21131650D02*
X37311250D01*
X36988750Y21157050D02*
X37311250D01*
X36988750Y21182450D02*
X37311250D01*
X36988750Y21207850D02*
X37311250D01*
X36988750Y21233250D02*
X37311250D01*
X36988750Y21258650D02*
X37311250D01*
X36988750Y21284050D02*
X37311250D01*
X36988750Y21309450D02*
X37311250D01*
X36988750Y21334850D02*
X37311250D01*
X36855400Y20801450D02*
Y21098550D01*
X36880800Y20801450D02*
Y21098550D01*
X36906200Y20801450D02*
Y21098550D01*
X36931600Y20801450D02*
Y21098550D01*
X36957000Y20801450D02*
Y21098550D01*
X36982400Y20801450D02*
Y21098550D01*
X37007800Y20801450D02*
Y21339850D01*
X37033200Y20801450D02*
Y21339850D01*
X37058600Y20801450D02*
Y21339850D01*
X37084000Y20801450D02*
Y21339850D01*
X37109400Y20801450D02*
Y21339850D01*
X37134800Y20801450D02*
Y21339850D01*
X37160200Y20801450D02*
Y21339850D01*
X37185600Y20801450D02*
Y21339850D01*
X37211000Y20801450D02*
Y21339850D01*
X37236400Y20801450D02*
Y21339850D01*
X37261800Y20801450D02*
Y21339850D01*
X37287200Y20801450D02*
Y21339850D01*
X37312600Y20801450D02*
Y21098550D01*
X37338000Y20801450D02*
Y21098550D01*
X37363400Y20801450D02*
Y21098550D01*
X37388800Y20801450D02*
Y21098550D01*
X37414200Y20801450D02*
Y21098550D01*
X37439600Y20801450D02*
Y21098550D01*
X37331650Y20711200D02*
X37425550D01*
Y20560150*
X37331650*
Y20711200*
Y20560150D02*
X37425550D01*
X37331650Y20585550D02*
X37425550D01*
X37331650Y20610950D02*
X37425550D01*
X37331650Y20636350D02*
X37425550D01*
X37331650Y20661750D02*
X37425550D01*
X37331650Y20687150D02*
X37425550D01*
X37338000Y20560150D02*
Y20711200D01*
X37363400Y20560150D02*
Y20711200D01*
X37388800Y20560150D02*
Y20711200D01*
X37414200Y20560150D02*
Y20711200D01*
X37103050D02*
X37196950D01*
Y20560150*
X37103050*
Y20711200*
Y20560150D02*
X37196950D01*
X37103050Y20585550D02*
X37196950D01*
X37103050Y20610950D02*
X37196950D01*
X37103050Y20636350D02*
X37196950D01*
X37103050Y20661750D02*
X37196950D01*
X37103050Y20687150D02*
X37196950D01*
X37109400Y20560150D02*
Y20711200D01*
X37134800Y20560150D02*
Y20711200D01*
X37160200Y20560150D02*
Y20711200D01*
X37185600Y20560150D02*
Y20711200D01*
X36874450D02*
X36968350D01*
Y20560150*
X36874450*
Y20711200*
Y20560150D02*
X36968350D01*
X36874450Y20585550D02*
X36968350D01*
X36874450Y20610950D02*
X36968350D01*
X36874450Y20636350D02*
X36968350D01*
X36874450Y20661750D02*
X36968350D01*
X36874450Y20687150D02*
X36968350D01*
X36880800Y20560150D02*
Y20711200D01*
X36906200Y20560150D02*
Y20711200D01*
X36931600Y20560150D02*
Y20711200D01*
X36957000Y20560150D02*
Y20711200D01*
X37310200Y17914800D02*
X37389800D01*
Y17822700*
X37310200*
Y17914800*
Y17822700D02*
X37389800D01*
X37310200Y17848100D02*
X37389800D01*
X37310200Y17873500D02*
X37389800D01*
X37310200Y17898900D02*
X37389800D01*
X37312600Y17822700D02*
Y17914800D01*
X37338000Y17822700D02*
Y17914800D01*
X37363400Y17822700D02*
Y17914800D01*
X37388800Y17822700D02*
Y17914800D01*
X37220500Y17689000D02*
X37301700D01*
Y17620500*
X37220500*
Y17689000*
Y17620500D02*
X37301700D01*
X37220500Y17645900D02*
X37301700D01*
X37220500Y17671300D02*
X37301700D01*
X37236400Y17620500D02*
Y17689000D01*
X37261800Y17620500D02*
Y17689000D01*
X37287200Y17620500D02*
Y17689000D01*
X37398300D02*
X37479500D01*
Y17620500*
X37398300*
Y17689000*
Y17620500D02*
X37479500D01*
X37398300Y17645900D02*
X37479500D01*
X37398300Y17671300D02*
X37479500D01*
X37414200Y17620500D02*
Y17689000D01*
X37439600Y17620500D02*
Y17689000D01*
X37465000Y17620500D02*
Y17689000D01*
X37310200Y22114800D02*
X37389800D01*
Y22022700*
X37310200*
Y22114800*
Y22022700D02*
X37389800D01*
X37310200Y22048100D02*
X37389800D01*
X37310200Y22073500D02*
X37389800D01*
X37310200Y22098900D02*
X37389800D01*
X37312600Y22022700D02*
Y22114800D01*
X37338000Y22022700D02*
Y22114800D01*
X37363400Y22022700D02*
Y22114800D01*
X37388800Y22022700D02*
Y22114800D01*
X37220500Y21889000D02*
X37301700D01*
Y21820500*
X37220500*
Y21889000*
Y21820500D02*
X37301700D01*
X37220500Y21845900D02*
X37301700D01*
X37220500Y21871300D02*
X37301700D01*
X37236400Y21820500D02*
Y21889000D01*
X37261800Y21820500D02*
Y21889000D01*
X37287200Y21820500D02*
Y21889000D01*
X37398300D02*
X37479500D01*
Y21820500*
X37398300*
Y21889000*
Y21820500D02*
X37479500D01*
X37398300Y21845900D02*
X37479500D01*
X37398300Y21871300D02*
X37479500D01*
X37414200Y21820500D02*
Y21889000D01*
X37439600Y21820500D02*
Y21889000D01*
X37465000Y21820500D02*
Y21889000D01*
X38688750Y17139850D02*
X39011250D01*
Y16898550*
X39157300*
Y16601450*
X38542700*
Y16898550*
X38688750*
Y17139850*
X38542700Y16601450D02*
X39157300D01*
X38542700Y16626850D02*
X39157300D01*
X38542700Y16652250D02*
X39157300D01*
X38542700Y16677650D02*
X39157300D01*
X38542700Y16703050D02*
X39157300D01*
X38542700Y16728450D02*
X39157300D01*
X38542700Y16753850D02*
X39157300D01*
X38542700Y16779250D02*
X39157300D01*
X38542700Y16804650D02*
X39157300D01*
X38542700Y16830050D02*
X39157300D01*
X38542700Y16855450D02*
X39157300D01*
X38542700Y16880850D02*
X39157300D01*
X38688750Y16906250D02*
X39011250D01*
X38688750Y16931650D02*
X39011250D01*
X38688750Y16957050D02*
X39011250D01*
X38688750Y16982450D02*
X39011250D01*
X38688750Y17007850D02*
X39011250D01*
X38688750Y17033250D02*
X39011250D01*
X38688750Y17058650D02*
X39011250D01*
X38688750Y17084050D02*
X39011250D01*
X38688750Y17109450D02*
X39011250D01*
X38688750Y17134850D02*
X39011250D01*
X38557200Y16601450D02*
Y16898550D01*
X38582600Y16601450D02*
Y16898550D01*
X38608000Y16601450D02*
Y16898550D01*
X38633400Y16601450D02*
Y16898550D01*
X38658800Y16601450D02*
Y16898550D01*
X38684200Y16601450D02*
Y16898550D01*
X38709600Y16601450D02*
Y17139850D01*
X38735000Y16601450D02*
Y17139850D01*
X38760400Y16601450D02*
Y17139850D01*
X38785800Y16601450D02*
Y17139850D01*
X38811200Y16601450D02*
Y17139850D01*
X38836600Y16601450D02*
Y17139850D01*
X38862000Y16601450D02*
Y17139850D01*
X38887400Y16601450D02*
Y17139850D01*
X38912800Y16601450D02*
Y17139850D01*
X38938200Y16601450D02*
Y17139850D01*
X38963600Y16601450D02*
Y17139850D01*
X38989000Y16601450D02*
Y17139850D01*
X39014400Y16601450D02*
Y16898550D01*
X39039800Y16601450D02*
Y16898550D01*
X39065200Y16601450D02*
Y16898550D01*
X39090600Y16601450D02*
Y16898550D01*
X39116000Y16601450D02*
Y16898550D01*
X39141400Y16601450D02*
Y16898550D01*
X39031650Y16511200D02*
X39125550D01*
Y16360150*
X39031650*
Y16511200*
Y16360150D02*
X39125550D01*
X39031650Y16385550D02*
X39125550D01*
X39031650Y16410950D02*
X39125550D01*
X39031650Y16436350D02*
X39125550D01*
X39031650Y16461750D02*
X39125550D01*
X39031650Y16487150D02*
X39125550D01*
X39039800Y16360150D02*
Y16511200D01*
X39065200Y16360150D02*
Y16511200D01*
X39090600Y16360150D02*
Y16511200D01*
X39116000Y16360150D02*
Y16511200D01*
X38803050D02*
X38896950D01*
Y16360150*
X38803050*
Y16511200*
Y16360150D02*
X38896950D01*
X38803050Y16385550D02*
X38896950D01*
X38803050Y16410950D02*
X38896950D01*
X38803050Y16436350D02*
X38896950D01*
X38803050Y16461750D02*
X38896950D01*
X38803050Y16487150D02*
X38896950D01*
X38811200Y16360150D02*
Y16511200D01*
X38836600Y16360150D02*
Y16511200D01*
X38862000Y16360150D02*
Y16511200D01*
X38887400Y16360150D02*
Y16511200D01*
X38574450D02*
X38668350D01*
Y16360150*
X38574450*
Y16511200*
Y16360150D02*
X38668350D01*
X38574450Y16385550D02*
X38668350D01*
X38574450Y16410950D02*
X38668350D01*
X38574450Y16436350D02*
X38668350D01*
X38574450Y16461750D02*
X38668350D01*
X38574450Y16487150D02*
X38668350D01*
X38582600Y16360150D02*
Y16511200D01*
X38608000Y16360150D02*
Y16511200D01*
X38633400Y16360150D02*
Y16511200D01*
X38658800Y16360150D02*
Y16511200D01*
X27110200Y17914800D02*
X27189800D01*
Y17822700*
X27110200*
Y17914800*
Y17822700D02*
X27189800D01*
X27110200Y17848100D02*
X27189800D01*
X27110200Y17873500D02*
X27189800D01*
X27110200Y17898900D02*
X27189800D01*
X27127200Y17822700D02*
Y17914800D01*
X27152600Y17822700D02*
Y17914800D01*
X27178000Y17822700D02*
Y17914800D01*
X27020500Y17689000D02*
X27101700D01*
Y17620500*
X27020500*
Y17689000*
Y17620500D02*
X27101700D01*
X27020500Y17645900D02*
X27101700D01*
X27020500Y17671300D02*
X27101700D01*
X27025600Y17620500D02*
Y17689000D01*
X27051000Y17620500D02*
Y17689000D01*
X27076400Y17620500D02*
Y17689000D01*
X27198300D02*
X27279500D01*
Y17620500*
X27198300*
Y17689000*
Y17620500D02*
X27279500D01*
X27198300Y17645900D02*
X27279500D01*
X27198300Y17671300D02*
X27279500D01*
X27203400Y17620500D02*
Y17689000D01*
X27228800Y17620500D02*
Y17689000D01*
X27254200Y17620500D02*
Y17689000D01*
X38688750Y21339850D02*
X39011250D01*
Y21098550*
X39157300*
Y20801450*
X38542700*
Y21098550*
X38688750*
Y21339850*
X38542700Y20801450D02*
X39157300D01*
X38542700Y20826850D02*
X39157300D01*
X38542700Y20852250D02*
X39157300D01*
X38542700Y20877650D02*
X39157300D01*
X38542700Y20903050D02*
X39157300D01*
X38542700Y20928450D02*
X39157300D01*
X38542700Y20953850D02*
X39157300D01*
X38542700Y20979250D02*
X39157300D01*
X38542700Y21004650D02*
X39157300D01*
X38542700Y21030050D02*
X39157300D01*
X38542700Y21055450D02*
X39157300D01*
X38542700Y21080850D02*
X39157300D01*
X38688750Y21106250D02*
X39011250D01*
X38688750Y21131650D02*
X39011250D01*
X38688750Y21157050D02*
X39011250D01*
X38688750Y21182450D02*
X39011250D01*
X38688750Y21207850D02*
X39011250D01*
X38688750Y21233250D02*
X39011250D01*
X38688750Y21258650D02*
X39011250D01*
X38688750Y21284050D02*
X39011250D01*
X38688750Y21309450D02*
X39011250D01*
X38688750Y21334850D02*
X39011250D01*
X38557200Y20801450D02*
Y21098550D01*
X38582600Y20801450D02*
Y21098550D01*
X38608000Y20801450D02*
Y21098550D01*
X38633400Y20801450D02*
Y21098550D01*
X38658800Y20801450D02*
Y21098550D01*
X38684200Y20801450D02*
Y21098550D01*
X38709600Y20801450D02*
Y21339850D01*
X38735000Y20801450D02*
Y21339850D01*
X38760400Y20801450D02*
Y21339850D01*
X38785800Y20801450D02*
Y21339850D01*
X38811200Y20801450D02*
Y21339850D01*
X38836600Y20801450D02*
Y21339850D01*
X38862000Y20801450D02*
Y21339850D01*
X38887400Y20801450D02*
Y21339850D01*
X38912800Y20801450D02*
Y21339850D01*
X38938200Y20801450D02*
Y21339850D01*
X38963600Y20801450D02*
Y21339850D01*
X38989000Y20801450D02*
Y21339850D01*
X39014400Y20801450D02*
Y21098550D01*
X39039800Y20801450D02*
Y21098550D01*
X39065200Y20801450D02*
Y21098550D01*
X39090600Y20801450D02*
Y21098550D01*
X39116000Y20801450D02*
Y21098550D01*
X39141400Y20801450D02*
Y21098550D01*
X39031650Y20711200D02*
X39125550D01*
Y20560150*
X39031650*
Y20711200*
Y20560150D02*
X39125550D01*
X39031650Y20585550D02*
X39125550D01*
X39031650Y20610950D02*
X39125550D01*
X39031650Y20636350D02*
X39125550D01*
X39031650Y20661750D02*
X39125550D01*
X39031650Y20687150D02*
X39125550D01*
X39039800Y20560150D02*
Y20711200D01*
X39065200Y20560150D02*
Y20711200D01*
X39090600Y20560150D02*
Y20711200D01*
X39116000Y20560150D02*
Y20711200D01*
X38803050D02*
X38896950D01*
Y20560150*
X38803050*
Y20711200*
Y20560150D02*
X38896950D01*
X38803050Y20585550D02*
X38896950D01*
X38803050Y20610950D02*
X38896950D01*
X38803050Y20636350D02*
X38896950D01*
X38803050Y20661750D02*
X38896950D01*
X38803050Y20687150D02*
X38896950D01*
X38811200Y20560150D02*
Y20711200D01*
X38836600Y20560150D02*
Y20711200D01*
X38862000Y20560150D02*
Y20711200D01*
X38887400Y20560150D02*
Y20711200D01*
X38574450D02*
X38668350D01*
Y20560150*
X38574450*
Y20711200*
Y20560150D02*
X38668350D01*
X38574450Y20585550D02*
X38668350D01*
X38574450Y20610950D02*
X38668350D01*
X38574450Y20636350D02*
X38668350D01*
X38574450Y20661750D02*
X38668350D01*
X38574450Y20687150D02*
X38668350D01*
X38582600Y20560150D02*
Y20711200D01*
X38608000Y20560150D02*
Y20711200D01*
X38633400Y20560150D02*
Y20711200D01*
X38658800Y20560150D02*
Y20711200D01*
X39010200Y17914800D02*
X39089800D01*
Y17822700*
X39010200*
Y17914800*
Y17822700D02*
X39089800D01*
X39010200Y17848100D02*
X39089800D01*
X39010200Y17873500D02*
X39089800D01*
X39010200Y17898900D02*
X39089800D01*
X39014400Y17822700D02*
Y17914800D01*
X39039800Y17822700D02*
Y17914800D01*
X39065200Y17822700D02*
Y17914800D01*
X38920500Y17689000D02*
X39001700D01*
Y17620500*
X38920500*
Y17689000*
Y17620500D02*
X39001700D01*
X38920500Y17645900D02*
X39001700D01*
X38920500Y17671300D02*
X39001700D01*
X38938200Y17620500D02*
Y17689000D01*
X38963600Y17620500D02*
Y17689000D01*
X38989000Y17620500D02*
Y17689000D01*
X39098300D02*
X39179500D01*
Y17620500*
X39098300*
Y17689000*
Y17620500D02*
X39179500D01*
X39098300Y17645900D02*
X39179500D01*
X39098300Y17671300D02*
X39179500D01*
X39116000Y17620500D02*
Y17689000D01*
X39141400Y17620500D02*
Y17689000D01*
X39166800Y17620500D02*
Y17689000D01*
X39010200Y22114800D02*
X39089800D01*
Y22022700*
X39010200*
Y22114800*
Y22022700D02*
X39089800D01*
X39010200Y22048100D02*
X39089800D01*
X39010200Y22073500D02*
X39089800D01*
X39010200Y22098900D02*
X39089800D01*
X39014400Y22022700D02*
Y22114800D01*
X39039800Y22022700D02*
Y22114800D01*
X39065200Y22022700D02*
Y22114800D01*
X38920500Y21889000D02*
X39001700D01*
Y21820500*
X38920500*
Y21889000*
Y21820500D02*
X39001700D01*
X38920500Y21845900D02*
X39001700D01*
X38920500Y21871300D02*
X39001700D01*
X38938200Y21820500D02*
Y21889000D01*
X38963600Y21820500D02*
Y21889000D01*
X38989000Y21820500D02*
Y21889000D01*
X39098300D02*
X39179500D01*
Y21820500*
X39098300*
Y21889000*
Y21820500D02*
X39179500D01*
X39098300Y21845900D02*
X39179500D01*
X39098300Y21871300D02*
X39179500D01*
X39116000Y21820500D02*
Y21889000D01*
X39141400Y21820500D02*
Y21889000D01*
X39166800Y21820500D02*
Y21889000D01*
X27110200Y22114800D02*
X27189800D01*
Y22022700*
X27110200*
Y22114800*
Y22022700D02*
X27189800D01*
X27110200Y22048100D02*
X27189800D01*
X27110200Y22073500D02*
X27189800D01*
X27110200Y22098900D02*
X27189800D01*
X27127200Y22022700D02*
Y22114800D01*
X27152600Y22022700D02*
Y22114800D01*
X27178000Y22022700D02*
Y22114800D01*
X27020500Y21889000D02*
X27101700D01*
Y21820500*
X27020500*
Y21889000*
Y21820500D02*
X27101700D01*
X27020500Y21845900D02*
X27101700D01*
X27020500Y21871300D02*
X27101700D01*
X27025600Y21820500D02*
Y21889000D01*
X27051000Y21820500D02*
Y21889000D01*
X27076400Y21820500D02*
Y21889000D01*
X27198300D02*
X27279500D01*
Y21820500*
X27198300*
Y21889000*
Y21820500D02*
X27279500D01*
X27198300Y21845900D02*
X27279500D01*
X27198300Y21871300D02*
X27279500D01*
X27203400Y21820500D02*
Y21889000D01*
X27228800Y21820500D02*
Y21889000D01*
X27254200Y21820500D02*
Y21889000D01*
X28488750Y17139850D02*
X28811250D01*
Y16898550*
X28957300*
Y16601450*
X28342700*
Y16898550*
X28488750*
Y17139850*
X28342700Y16601450D02*
X28957300D01*
X28342700Y16626850D02*
X28957300D01*
X28342700Y16652250D02*
X28957300D01*
X28342700Y16677650D02*
X28957300D01*
X28342700Y16703050D02*
X28957300D01*
X28342700Y16728450D02*
X28957300D01*
X28342700Y16753850D02*
X28957300D01*
X28342700Y16779250D02*
X28957300D01*
X28342700Y16804650D02*
X28957300D01*
X28342700Y16830050D02*
X28957300D01*
X28342700Y16855450D02*
X28957300D01*
X28342700Y16880850D02*
X28957300D01*
X28488750Y16906250D02*
X28811250D01*
X28488750Y16931650D02*
X28811250D01*
X28488750Y16957050D02*
X28811250D01*
X28488750Y16982450D02*
X28811250D01*
X28488750Y17007850D02*
X28811250D01*
X28488750Y17033250D02*
X28811250D01*
X28488750Y17058650D02*
X28811250D01*
X28488750Y17084050D02*
X28811250D01*
X28488750Y17109450D02*
X28811250D01*
X28488750Y17134850D02*
X28811250D01*
X28346400Y16601450D02*
Y16898550D01*
X28371800Y16601450D02*
Y16898550D01*
X28397200Y16601450D02*
Y16898550D01*
X28422600Y16601450D02*
Y16898550D01*
X28448000Y16601450D02*
Y16898550D01*
X28473400Y16601450D02*
Y16898550D01*
X28498800Y16601450D02*
Y17139850D01*
X28524200Y16601450D02*
Y17139850D01*
X28549600Y16601450D02*
Y17139850D01*
X28575000Y16601450D02*
Y17139850D01*
X28600400Y16601450D02*
Y17139850D01*
X28625800Y16601450D02*
Y17139850D01*
X28651200Y16601450D02*
Y17139850D01*
X28676600Y16601450D02*
Y17139850D01*
X28702000Y16601450D02*
Y17139850D01*
X28727400Y16601450D02*
Y17139850D01*
X28752800Y16601450D02*
Y17139850D01*
X28778200Y16601450D02*
Y17139850D01*
X28803600Y16601450D02*
Y17139850D01*
X28829000Y16601450D02*
Y16898550D01*
X28854400Y16601450D02*
Y16898550D01*
X28879800Y16601450D02*
Y16898550D01*
X28905200Y16601450D02*
Y16898550D01*
X28930600Y16601450D02*
Y16898550D01*
X28956000Y16601450D02*
Y16898550D01*
X28831650Y16511200D02*
X28925550D01*
Y16360150*
X28831650*
Y16511200*
Y16360150D02*
X28925550D01*
X28831650Y16385550D02*
X28925550D01*
X28831650Y16410950D02*
X28925550D01*
X28831650Y16436350D02*
X28925550D01*
X28831650Y16461750D02*
X28925550D01*
X28831650Y16487150D02*
X28925550D01*
X28854400Y16360150D02*
Y16511200D01*
X28879800Y16360150D02*
Y16511200D01*
X28905200Y16360150D02*
Y16511200D01*
X28603050D02*
X28696950D01*
Y16360150*
X28603050*
Y16511200*
Y16360150D02*
X28696950D01*
X28603050Y16385550D02*
X28696950D01*
X28603050Y16410950D02*
X28696950D01*
X28603050Y16436350D02*
X28696950D01*
X28603050Y16461750D02*
X28696950D01*
X28603050Y16487150D02*
X28696950D01*
X28625800Y16360150D02*
Y16511200D01*
X28651200Y16360150D02*
Y16511200D01*
X28676600Y16360150D02*
Y16511200D01*
X28374450D02*
X28468350D01*
Y16360150*
X28374450*
Y16511200*
Y16360150D02*
X28468350D01*
X28374450Y16385550D02*
X28468350D01*
X28374450Y16410950D02*
X28468350D01*
X28374450Y16436350D02*
X28468350D01*
X28374450Y16461750D02*
X28468350D01*
X28374450Y16487150D02*
X28468350D01*
X28397200Y16360150D02*
Y16511200D01*
X28422600Y16360150D02*
Y16511200D01*
X28448000Y16360150D02*
Y16511200D01*
X28488750Y21339850D02*
X28811250D01*
Y21098550*
X28957300*
Y20801450*
X28342700*
Y21098550*
X28488750*
Y21339850*
X28342700Y20801450D02*
X28957300D01*
X28342700Y20826850D02*
X28957300D01*
X28342700Y20852250D02*
X28957300D01*
X28342700Y20877650D02*
X28957300D01*
X28342700Y20903050D02*
X28957300D01*
X28342700Y20928450D02*
X28957300D01*
X28342700Y20953850D02*
X28957300D01*
X28342700Y20979250D02*
X28957300D01*
X28342700Y21004650D02*
X28957300D01*
X28342700Y21030050D02*
X28957300D01*
X28342700Y21055450D02*
X28957300D01*
X28342700Y21080850D02*
X28957300D01*
X28488750Y21106250D02*
X28811250D01*
X28488750Y21131650D02*
X28811250D01*
X28488750Y21157050D02*
X28811250D01*
X28488750Y21182450D02*
X28811250D01*
X28488750Y21207850D02*
X28811250D01*
X28488750Y21233250D02*
X28811250D01*
X28488750Y21258650D02*
X28811250D01*
X28488750Y21284050D02*
X28811250D01*
X28488750Y21309450D02*
X28811250D01*
X28488750Y21334850D02*
X28811250D01*
X28346400Y20801450D02*
Y21098550D01*
X28371800Y20801450D02*
Y21098550D01*
X28397200Y20801450D02*
Y21098550D01*
X28422600Y20801450D02*
Y21098550D01*
X28448000Y20801450D02*
Y21098550D01*
X28473400Y20801450D02*
Y21098550D01*
X28498800Y20801450D02*
Y21339850D01*
X28524200Y20801450D02*
Y21339850D01*
X28549600Y20801450D02*
Y21339850D01*
X28575000Y20801450D02*
Y21339850D01*
X28600400Y20801450D02*
Y21339850D01*
X28625800Y20801450D02*
Y21339850D01*
X28651200Y20801450D02*
Y21339850D01*
X28676600Y20801450D02*
Y21339850D01*
X28702000Y20801450D02*
Y21339850D01*
X28727400Y20801450D02*
Y21339850D01*
X28752800Y20801450D02*
Y21339850D01*
X28778200Y20801450D02*
Y21339850D01*
X28803600Y20801450D02*
Y21339850D01*
X28829000Y20801450D02*
Y21098550D01*
X28854400Y20801450D02*
Y21098550D01*
X28879800Y20801450D02*
Y21098550D01*
X28905200Y20801450D02*
Y21098550D01*
X28930600Y20801450D02*
Y21098550D01*
X28956000Y20801450D02*
Y21098550D01*
X28831650Y20711200D02*
X28925550D01*
Y20560150*
X28831650*
Y20711200*
Y20560150D02*
X28925550D01*
X28831650Y20585550D02*
X28925550D01*
X28831650Y20610950D02*
X28925550D01*
X28831650Y20636350D02*
X28925550D01*
X28831650Y20661750D02*
X28925550D01*
X28831650Y20687150D02*
X28925550D01*
X28854400Y20560150D02*
Y20711200D01*
X28879800Y20560150D02*
Y20711200D01*
X28905200Y20560150D02*
Y20711200D01*
X28603050D02*
X28696950D01*
Y20560150*
X28603050*
Y20711200*
Y20560150D02*
X28696950D01*
X28603050Y20585550D02*
X28696950D01*
X28603050Y20610950D02*
X28696950D01*
X28603050Y20636350D02*
X28696950D01*
X28603050Y20661750D02*
X28696950D01*
X28603050Y20687150D02*
X28696950D01*
X28625800Y20560150D02*
Y20711200D01*
X28651200Y20560150D02*
Y20711200D01*
X28676600Y20560150D02*
Y20711200D01*
X28374450D02*
X28468350D01*
Y20560150*
X28374450*
Y20711200*
Y20560150D02*
X28468350D01*
X28374450Y20585550D02*
X28468350D01*
X28374450Y20610950D02*
X28468350D01*
X28374450Y20636350D02*
X28468350D01*
X28374450Y20661750D02*
X28468350D01*
X28374450Y20687150D02*
X28468350D01*
X28397200Y20560150D02*
Y20711200D01*
X28422600Y20560150D02*
Y20711200D01*
X28448000Y20560150D02*
Y20711200D01*
X28810200Y17914800D02*
X28889800D01*
Y17822700*
X28810200*
Y17914800*
Y17822700D02*
X28889800D01*
X28810200Y17848100D02*
X28889800D01*
X28810200Y17873500D02*
X28889800D01*
X28810200Y17898900D02*
X28889800D01*
X28829000Y17822700D02*
Y17914800D01*
X28854400Y17822700D02*
Y17914800D01*
X28879800Y17822700D02*
Y17914800D01*
X28720500Y17689000D02*
X28801700D01*
Y17620500*
X28720500*
Y17689000*
Y17620500D02*
X28801700D01*
X28720500Y17645900D02*
X28801700D01*
X28720500Y17671300D02*
X28801700D01*
X28727400Y17620500D02*
Y17689000D01*
X28752800Y17620500D02*
Y17689000D01*
X28778200Y17620500D02*
Y17689000D01*
X28898300D02*
X28979500D01*
Y17620500*
X28898300*
Y17689000*
Y17620500D02*
X28979500D01*
X28898300Y17645900D02*
X28979500D01*
X28898300Y17671300D02*
X28979500D01*
X28905200Y17620500D02*
Y17689000D01*
X28930600Y17620500D02*
Y17689000D01*
X28956000Y17620500D02*
Y17689000D01*
X28810200Y22114800D02*
X28889800D01*
Y22022700*
X28810200*
Y22114800*
Y22022700D02*
X28889800D01*
X28810200Y22048100D02*
X28889800D01*
X28810200Y22073500D02*
X28889800D01*
X28810200Y22098900D02*
X28889800D01*
X28829000Y22022700D02*
Y22114800D01*
X28854400Y22022700D02*
Y22114800D01*
X28879800Y22022700D02*
Y22114800D01*
X28720500Y21889000D02*
X28801700D01*
Y21820500*
X28720500*
Y21889000*
Y21820500D02*
X28801700D01*
X28720500Y21845900D02*
X28801700D01*
X28720500Y21871300D02*
X28801700D01*
X28727400Y21820500D02*
Y21889000D01*
X28752800Y21820500D02*
Y21889000D01*
X28778200Y21820500D02*
Y21889000D01*
X28898300D02*
X28979500D01*
Y21820500*
X28898300*
Y21889000*
Y21820500D02*
X28979500D01*
X28898300Y21845900D02*
X28979500D01*
X28898300Y21871300D02*
X28979500D01*
X28905200Y21820500D02*
Y21889000D01*
X28930600Y21820500D02*
Y21889000D01*
X28956000Y21820500D02*
Y21889000D01*
X30188750Y17139850D02*
X30511250D01*
Y16898550*
X30657300*
Y16601450*
X30042700*
Y16898550*
X30188750*
Y17139850*
X30042700Y16601450D02*
X30657300D01*
X30042700Y16626850D02*
X30657300D01*
X30042700Y16652250D02*
X30657300D01*
X30042700Y16677650D02*
X30657300D01*
X30042700Y16703050D02*
X30657300D01*
X30042700Y16728450D02*
X30657300D01*
X30042700Y16753850D02*
X30657300D01*
X30042700Y16779250D02*
X30657300D01*
X30042700Y16804650D02*
X30657300D01*
X30042700Y16830050D02*
X30657300D01*
X30042700Y16855450D02*
X30657300D01*
X30042700Y16880850D02*
X30657300D01*
X30188750Y16906250D02*
X30511250D01*
X30188750Y16931650D02*
X30511250D01*
X30188750Y16957050D02*
X30511250D01*
X30188750Y16982450D02*
X30511250D01*
X30188750Y17007850D02*
X30511250D01*
X30188750Y17033250D02*
X30511250D01*
X30188750Y17058650D02*
X30511250D01*
X30188750Y17084050D02*
X30511250D01*
X30188750Y17109450D02*
X30511250D01*
X30188750Y17134850D02*
X30511250D01*
X30048200Y16601450D02*
Y16898550D01*
X30073600Y16601450D02*
Y16898550D01*
X30099000Y16601450D02*
Y16898550D01*
X30124400Y16601450D02*
Y16898550D01*
X30149800Y16601450D02*
Y16898550D01*
X30175200Y16601450D02*
Y16898550D01*
X30200600Y16601450D02*
Y17139850D01*
X30226000Y16601450D02*
Y17139850D01*
X30251400Y16601450D02*
Y17139850D01*
X30276800Y16601450D02*
Y17139850D01*
X30302200Y16601450D02*
Y17139850D01*
X30327600Y16601450D02*
Y17139850D01*
X30353000Y16601450D02*
Y17139850D01*
X30378400Y16601450D02*
Y17139850D01*
X30403800Y16601450D02*
Y17139850D01*
X30429200Y16601450D02*
Y17139850D01*
X30454600Y16601450D02*
Y17139850D01*
X30480000Y16601450D02*
Y17139850D01*
X30505400Y16601450D02*
Y17139850D01*
X30530800Y16601450D02*
Y16898550D01*
X30556200Y16601450D02*
Y16898550D01*
X30581600Y16601450D02*
Y16898550D01*
X30607000Y16601450D02*
Y16898550D01*
X30632400Y16601450D02*
Y16898550D01*
X30531650Y16511200D02*
X30625550D01*
Y16360150*
X30531650*
Y16511200*
Y16360150D02*
X30625550D01*
X30531650Y16385550D02*
X30625550D01*
X30531650Y16410950D02*
X30625550D01*
X30531650Y16436350D02*
X30625550D01*
X30531650Y16461750D02*
X30625550D01*
X30531650Y16487150D02*
X30625550D01*
X30556200Y16360150D02*
Y16511200D01*
X30581600Y16360150D02*
Y16511200D01*
X30607000Y16360150D02*
Y16511200D01*
X30303050D02*
X30396950D01*
Y16360150*
X30303050*
Y16511200*
Y16360150D02*
X30396950D01*
X30303050Y16385550D02*
X30396950D01*
X30303050Y16410950D02*
X30396950D01*
X30303050Y16436350D02*
X30396950D01*
X30303050Y16461750D02*
X30396950D01*
X30303050Y16487150D02*
X30396950D01*
X30327600Y16360150D02*
Y16511200D01*
X30353000Y16360150D02*
Y16511200D01*
X30378400Y16360150D02*
Y16511200D01*
X30074450D02*
X30168350D01*
Y16360150*
X30074450*
Y16511200*
Y16360150D02*
X30168350D01*
X30074450Y16385550D02*
X30168350D01*
X30074450Y16410950D02*
X30168350D01*
X30074450Y16436350D02*
X30168350D01*
X30074450Y16461750D02*
X30168350D01*
X30074450Y16487150D02*
X30168350D01*
X30099000Y16360150D02*
Y16511200D01*
X30124400Y16360150D02*
Y16511200D01*
X30149800Y16360150D02*
Y16511200D01*
X26039800Y16810200D02*
X25960200D01*
Y16889800*
X26039800*
Y16810200*
X25960200D02*
X26039800D01*
X25960200Y16835600D02*
X26039800D01*
X25960200Y16861000D02*
X26039800D01*
X25960200Y16886400D02*
X26039800D01*
X25984200Y16810200D02*
Y16889800D01*
X26009600Y16810200D02*
Y16889800D01*
X26035000Y16810200D02*
Y16889800D01*
X26239800Y16810200D02*
X26160200D01*
Y16889800*
X26239800*
Y16810200*
X26160200D02*
X26239800D01*
X26160200Y16835600D02*
X26239800D01*
X26160200Y16861000D02*
X26239800D01*
X26160200Y16886400D02*
X26239800D01*
X26162000Y16810200D02*
Y16889800D01*
X26187400Y16810200D02*
Y16889800D01*
X26212800Y16810200D02*
Y16889800D01*
X26238200Y16810200D02*
Y16889800D01*
X26510200Y22010200D02*
Y22089800D01*
X26589800*
Y22010200*
X26510200*
X26589800*
X26510200Y22035600D02*
X26589800D01*
X26510200Y22061000D02*
X26589800D01*
X26510200Y22086400D02*
X26589800D01*
X26517600Y22010200D02*
Y22089800D01*
X26543000Y22010200D02*
Y22089800D01*
X26568400Y22010200D02*
Y22089800D01*
X26510200Y21810200D02*
Y21889800D01*
X26589800*
Y21810200*
X26510200*
X26589800*
X26510200Y21835600D02*
X26589800D01*
X26510200Y21861000D02*
X26589800D01*
X26510200Y21886400D02*
X26589800D01*
X26517600Y21810200D02*
Y21889800D01*
X26543000Y21810200D02*
Y21889800D01*
X26568400Y21810200D02*
Y21889800D01*
X27739800Y16810200D02*
X27660200D01*
Y16889800*
X27739800*
Y16810200*
X27660200D02*
X27739800D01*
X27660200Y16835600D02*
X27739800D01*
X27660200Y16861000D02*
X27739800D01*
X27660200Y16886400D02*
X27739800D01*
X27660600Y16810200D02*
Y16889800D01*
X27686000Y16810200D02*
Y16889800D01*
X27711400Y16810200D02*
Y16889800D01*
X27736800Y16810200D02*
Y16889800D01*
X27939800Y16810200D02*
X27860200D01*
Y16889800*
X27939800*
Y16810200*
X27860200D02*
X27939800D01*
X27860200Y16835600D02*
X27939800D01*
X27860200Y16861000D02*
X27939800D01*
X27860200Y16886400D02*
X27939800D01*
X27863800Y16810200D02*
Y16889800D01*
X27889200Y16810200D02*
Y16889800D01*
X27914600Y16810200D02*
Y16889800D01*
X27739800Y21010200D02*
X27660200D01*
Y21089800*
X27739800*
Y21010200*
X27660200D02*
X27739800D01*
X27660200Y21035600D02*
X27739800D01*
X27660200Y21061000D02*
X27739800D01*
X27660200Y21086400D02*
X27739800D01*
X27660600Y21010200D02*
Y21089800D01*
X27686000Y21010200D02*
Y21089800D01*
X27711400Y21010200D02*
Y21089800D01*
X27736800Y21010200D02*
Y21089800D01*
X27939800Y21010200D02*
X27860200D01*
Y21089800*
X27939800*
Y21010200*
X27860200D02*
X27939800D01*
X27860200Y21035600D02*
X27939800D01*
X27860200Y21061000D02*
X27939800D01*
X27860200Y21086400D02*
X27939800D01*
X27863800Y21010200D02*
Y21089800D01*
X27889200Y21010200D02*
Y21089800D01*
X27914600Y21010200D02*
Y21089800D01*
X28010200Y16210200D02*
Y16289800D01*
X28089800*
Y16210200*
X28010200*
X28089800*
X28010200Y16235600D02*
X28089800D01*
X28010200Y16261000D02*
X28089800D01*
X28010200Y16286400D02*
X28089800D01*
X28016200Y16210200D02*
Y16289800D01*
X28041600Y16210200D02*
Y16289800D01*
X28067000Y16210200D02*
Y16289800D01*
X28010200Y16010200D02*
Y16089800D01*
X28089800*
Y16010200*
X28010200*
X28089800*
X28010200Y16035600D02*
X28089800D01*
X28010200Y16061000D02*
X28089800D01*
X28010200Y16086400D02*
X28089800D01*
X28016200Y16010200D02*
Y16089800D01*
X28041600Y16010200D02*
Y16089800D01*
X28067000Y16010200D02*
Y16089800D01*
X28410200Y17810200D02*
Y17889800D01*
X28489800*
Y17810200*
X28410200*
X28489800*
X28410200Y17835600D02*
X28489800D01*
X28410200Y17861000D02*
X28489800D01*
X28410200Y17886400D02*
X28489800D01*
X28422600Y17810200D02*
Y17889800D01*
X28448000Y17810200D02*
Y17889800D01*
X28473400Y17810200D02*
Y17889800D01*
X28410200Y17610200D02*
Y17689800D01*
X28489800*
Y17610200*
X28410200*
X28489800*
X28410200Y17635600D02*
X28489800D01*
X28410200Y17661000D02*
X28489800D01*
X28410200Y17686400D02*
X28489800D01*
X28422600Y17610200D02*
Y17689800D01*
X28448000Y17610200D02*
Y17689800D01*
X28473400Y17610200D02*
Y17689800D01*
X28010200Y20410200D02*
Y20489800D01*
X28089800*
Y20410200*
X28010200*
X28089800*
X28010200Y20435600D02*
X28089800D01*
X28010200Y20461000D02*
X28089800D01*
X28010200Y20486400D02*
X28089800D01*
X28016200Y20410200D02*
Y20489800D01*
X28041600Y20410200D02*
Y20489800D01*
X28067000Y20410200D02*
Y20489800D01*
X28010200Y20210200D02*
Y20289800D01*
X28089800*
Y20210200*
X28010200*
X28089800*
X28010200Y20235600D02*
X28089800D01*
X28010200Y20261000D02*
X28089800D01*
X28010200Y20286400D02*
X28089800D01*
X28016200Y20210200D02*
Y20289800D01*
X28041600Y20210200D02*
Y20289800D01*
X28067000Y20210200D02*
Y20289800D01*
X30589800Y22739800D02*
Y22660200D01*
X30510200*
Y22739800*
X30589800*
X30510200Y22660200D02*
X30589800D01*
X30510200Y22685600D02*
X30589800D01*
X30510200Y22711000D02*
X30589800D01*
X30510200Y22736400D02*
X30589800D01*
X30530800Y22660200D02*
Y22739800D01*
X30556200Y22660200D02*
Y22739800D01*
X30581600Y22660200D02*
Y22739800D01*
X30589800Y22939800D02*
Y22860200D01*
X30510200*
Y22939800*
X30589800*
X30510200Y22860200D02*
X30589800D01*
X30510200Y22885600D02*
X30589800D01*
X30510200Y22911000D02*
X30589800D01*
X30510200Y22936400D02*
X30589800D01*
X30530800Y22860200D02*
Y22939800D01*
X30556200Y22860200D02*
Y22939800D01*
X30581600Y22860200D02*
Y22939800D01*
X28410200Y22010200D02*
Y22089800D01*
X28489800*
Y22010200*
X28410200*
X28489800*
X28410200Y22035600D02*
X28489800D01*
X28410200Y22061000D02*
X28489800D01*
X28410200Y22086400D02*
X28489800D01*
X28422600Y22010200D02*
Y22089800D01*
X28448000Y22010200D02*
Y22089800D01*
X28473400Y22010200D02*
Y22089800D01*
X28410200Y21810200D02*
Y21889800D01*
X28489800*
Y21810200*
X28410200*
X28489800*
X28410200Y21835600D02*
X28489800D01*
X28410200Y21861000D02*
X28489800D01*
X28410200Y21886400D02*
X28489800D01*
X28422600Y21810200D02*
Y21889800D01*
X28448000Y21810200D02*
Y21889800D01*
X28473400Y21810200D02*
Y21889800D01*
X30660200Y24460200D02*
Y24539800D01*
X30739800*
Y24460200*
X30660200*
X30739800*
X30660200Y24485600D02*
X30739800D01*
X30660200Y24511000D02*
X30739800D01*
X30660200Y24536400D02*
X30739800D01*
X30683200Y24460200D02*
Y24539800D01*
X30708600Y24460200D02*
Y24539800D01*
X30734000Y24460200D02*
Y24539800D01*
X30660200Y24260200D02*
Y24339800D01*
X30739800*
Y24260200*
X30660200*
X30739800*
X30660200Y24285600D02*
X30739800D01*
X30660200Y24311000D02*
X30739800D01*
X30660200Y24336400D02*
X30739800D01*
X30683200Y24260200D02*
Y24339800D01*
X30708600Y24260200D02*
Y24339800D01*
X30734000Y24260200D02*
Y24339800D01*
X28210200Y17810200D02*
Y17889800D01*
X28289800*
Y17810200*
X28210200*
X28289800*
X28210200Y17835600D02*
X28289800D01*
X28210200Y17861000D02*
X28289800D01*
X28210200Y17886400D02*
X28289800D01*
X28219400Y17810200D02*
Y17889800D01*
X28244800Y17810200D02*
Y17889800D01*
X28270200Y17810200D02*
Y17889800D01*
X28210200Y17610200D02*
Y17689800D01*
X28289800*
Y17610200*
X28210200*
X28289800*
X28210200Y17635600D02*
X28289800D01*
X28210200Y17661000D02*
X28289800D01*
X28210200Y17686400D02*
X28289800D01*
X28219400Y17610200D02*
Y17689800D01*
X28244800Y17610200D02*
Y17689800D01*
X28270200Y17610200D02*
Y17689800D01*
X26039800Y21010200D02*
X25960200D01*
Y21089800*
X26039800*
Y21010200*
X25960200D02*
X26039800D01*
X25960200Y21035600D02*
X26039800D01*
X25960200Y21061000D02*
X26039800D01*
X25960200Y21086400D02*
X26039800D01*
X25984200Y21010200D02*
Y21089800D01*
X26009600Y21010200D02*
Y21089800D01*
X26035000Y21010200D02*
Y21089800D01*
X26239800Y21010200D02*
X26160200D01*
Y21089800*
X26239800*
Y21010200*
X26160200D02*
X26239800D01*
X26160200Y21035600D02*
X26239800D01*
X26160200Y21061000D02*
X26239800D01*
X26160200Y21086400D02*
X26239800D01*
X26162000Y21010200D02*
Y21089800D01*
X26187400Y21010200D02*
Y21089800D01*
X26212800Y21010200D02*
Y21089800D01*
X26238200Y21010200D02*
Y21089800D01*
X28210200Y22010200D02*
Y22089800D01*
X28289800*
Y22010200*
X28210200*
X28289800*
X28210200Y22035600D02*
X28289800D01*
X28210200Y22061000D02*
X28289800D01*
X28210200Y22086400D02*
X28289800D01*
X28219400Y22010200D02*
Y22089800D01*
X28244800Y22010200D02*
Y22089800D01*
X28270200Y22010200D02*
Y22089800D01*
X28210200Y21810200D02*
Y21889800D01*
X28289800*
Y21810200*
X28210200*
X28289800*
X28210200Y21835600D02*
X28289800D01*
X28210200Y21861000D02*
X28289800D01*
X28210200Y21886400D02*
X28289800D01*
X28219400Y21810200D02*
Y21889800D01*
X28244800Y21810200D02*
Y21889800D01*
X28270200Y21810200D02*
Y21889800D01*
X29439800Y16810200D02*
X29360200D01*
Y16889800*
X29439800*
Y16810200*
X29360200D02*
X29439800D01*
X29360200Y16835600D02*
X29439800D01*
X29360200Y16861000D02*
X29439800D01*
X29360200Y16886400D02*
X29439800D01*
X29362400Y16810200D02*
Y16889800D01*
X29387800Y16810200D02*
Y16889800D01*
X29413200Y16810200D02*
Y16889800D01*
X29438600Y16810200D02*
Y16889800D01*
X29639800Y16810200D02*
X29560200D01*
Y16889800*
X29639800*
Y16810200*
X29560200D02*
X29639800D01*
X29560200Y16835600D02*
X29639800D01*
X29560200Y16861000D02*
X29639800D01*
X29560200Y16886400D02*
X29639800D01*
X29565600Y16810200D02*
Y16889800D01*
X29591000Y16810200D02*
Y16889800D01*
X29616400Y16810200D02*
Y16889800D01*
X29439800Y21010200D02*
X29360200D01*
Y21089800*
X29439800*
Y21010200*
X29360200D02*
X29439800D01*
X29360200Y21035600D02*
X29439800D01*
X29360200Y21061000D02*
X29439800D01*
X29360200Y21086400D02*
X29439800D01*
X29362400Y21010200D02*
Y21089800D01*
X29387800Y21010200D02*
Y21089800D01*
X29413200Y21010200D02*
Y21089800D01*
X29438600Y21010200D02*
Y21089800D01*
X29639800Y21010200D02*
X29560200D01*
Y21089800*
X29639800*
Y21010200*
X29560200D02*
X29639800D01*
X29560200Y21035600D02*
X29639800D01*
X29560200Y21061000D02*
X29639800D01*
X29560200Y21086400D02*
X29639800D01*
X29565600Y21010200D02*
Y21089800D01*
X29591000Y21010200D02*
Y21089800D01*
X29616400Y21010200D02*
Y21089800D01*
X29710200Y16210200D02*
Y16289800D01*
X29789800*
Y16210200*
X29710200*
X29789800*
X29710200Y16235600D02*
X29789800D01*
X29710200Y16261000D02*
X29789800D01*
X29710200Y16286400D02*
X29789800D01*
X29718000Y16210200D02*
Y16289800D01*
X29743400Y16210200D02*
Y16289800D01*
X29768800Y16210200D02*
Y16289800D01*
X29710200Y16010200D02*
Y16089800D01*
X29789800*
Y16010200*
X29710200*
X29789800*
X29710200Y16035600D02*
X29789800D01*
X29710200Y16061000D02*
X29789800D01*
X29710200Y16086400D02*
X29789800D01*
X29718000Y16010200D02*
Y16089800D01*
X29743400Y16010200D02*
Y16089800D01*
X29768800Y16010200D02*
Y16089800D01*
X30110200Y17810200D02*
Y17889800D01*
X30189800*
Y17810200*
X30110200*
X30189800*
X30110200Y17835600D02*
X30189800D01*
X30110200Y17861000D02*
X30189800D01*
X30110200Y17886400D02*
X30189800D01*
X30124400Y17810200D02*
Y17889800D01*
X30149800Y17810200D02*
Y17889800D01*
X30175200Y17810200D02*
Y17889800D01*
X30110200Y17610200D02*
Y17689800D01*
X30189800*
Y17610200*
X30110200*
X30189800*
X30110200Y17635600D02*
X30189800D01*
X30110200Y17661000D02*
X30189800D01*
X30110200Y17686400D02*
X30189800D01*
X30124400Y17610200D02*
Y17689800D01*
X30149800Y17610200D02*
Y17689800D01*
X30175200Y17610200D02*
Y17689800D01*
X29710200Y20410200D02*
Y20489800D01*
X29789800*
Y20410200*
X29710200*
X29789800*
X29710200Y20435600D02*
X29789800D01*
X29710200Y20461000D02*
X29789800D01*
X29710200Y20486400D02*
X29789800D01*
X29718000Y20410200D02*
Y20489800D01*
X29743400Y20410200D02*
Y20489800D01*
X29768800Y20410200D02*
Y20489800D01*
X29710200Y20210200D02*
Y20289800D01*
X29789800*
Y20210200*
X29710200*
X29789800*
X29710200Y20235600D02*
X29789800D01*
X29710200Y20261000D02*
X29789800D01*
X29710200Y20286400D02*
X29789800D01*
X29718000Y20210200D02*
Y20289800D01*
X29743400Y20210200D02*
Y20289800D01*
X29768800Y20210200D02*
Y20289800D01*
X30110200Y22010200D02*
Y22089800D01*
X30189800*
Y22010200*
X30110200*
X30189800*
X30110200Y22035600D02*
X30189800D01*
X30110200Y22061000D02*
X30189800D01*
X30110200Y22086400D02*
X30189800D01*
X30124400Y22010200D02*
Y22089800D01*
X30149800Y22010200D02*
Y22089800D01*
X30175200Y22010200D02*
Y22089800D01*
X30110200Y21810200D02*
Y21889800D01*
X30189800*
Y21810200*
X30110200*
X30189800*
X30110200Y21835600D02*
X30189800D01*
X30110200Y21861000D02*
X30189800D01*
X30110200Y21886400D02*
X30189800D01*
X30124400Y21810200D02*
Y21889800D01*
X30149800Y21810200D02*
Y21889800D01*
X30175200Y21810200D02*
Y21889800D01*
X30410200Y24460200D02*
Y24539800D01*
X30489800*
Y24460200*
X30410200*
X30489800*
X30410200Y24485600D02*
X30489800D01*
X30410200Y24511000D02*
X30489800D01*
X30410200Y24536400D02*
X30489800D01*
X30429200Y24460200D02*
Y24539800D01*
X30454600Y24460200D02*
Y24539800D01*
X30480000Y24460200D02*
Y24539800D01*
X30410200Y24260200D02*
Y24339800D01*
X30489800*
Y24260200*
X30410200*
X30489800*
X30410200Y24285600D02*
X30489800D01*
X30410200Y24311000D02*
X30489800D01*
X30410200Y24336400D02*
X30489800D01*
X30429200Y24260200D02*
Y24339800D01*
X30454600Y24260200D02*
Y24339800D01*
X30480000Y24260200D02*
Y24339800D01*
X30160200Y24460200D02*
Y24539800D01*
X30239800*
Y24460200*
X30160200*
X30239800*
X30160200Y24485600D02*
X30239800D01*
X30160200Y24511000D02*
X30239800D01*
X30160200Y24536400D02*
X30239800D01*
X30175200Y24460200D02*
Y24539800D01*
X30200600Y24460200D02*
Y24539800D01*
X30226000Y24460200D02*
Y24539800D01*
X30160200Y24260200D02*
Y24339800D01*
X30239800*
Y24260200*
X30160200*
X30239800*
X30160200Y24285600D02*
X30239800D01*
X30160200Y24311000D02*
X30239800D01*
X30160200Y24336400D02*
X30239800D01*
X30175200Y24260200D02*
Y24339800D01*
X30200600Y24260200D02*
Y24339800D01*
X30226000Y24260200D02*
Y24339800D01*
X29910200Y17810200D02*
Y17889800D01*
X29989800*
Y17810200*
X29910200*
X29989800*
X29910200Y17835600D02*
X29989800D01*
X29910200Y17861000D02*
X29989800D01*
X29910200Y17886400D02*
X29989800D01*
X29921200Y17810200D02*
Y17889800D01*
X29946600Y17810200D02*
Y17889800D01*
X29972000Y17810200D02*
Y17889800D01*
X29910200Y17610200D02*
Y17689800D01*
X29989800*
Y17610200*
X29910200*
X29989800*
X29910200Y17635600D02*
X29989800D01*
X29910200Y17661000D02*
X29989800D01*
X29910200Y17686400D02*
X29989800D01*
X29921200Y17610200D02*
Y17689800D01*
X29946600Y17610200D02*
Y17689800D01*
X29972000Y17610200D02*
Y17689800D01*
X26310200Y16210200D02*
Y16289800D01*
X26389800*
Y16210200*
X26310200*
X26389800*
X26310200Y16235600D02*
X26389800D01*
X26310200Y16261000D02*
X26389800D01*
X26310200Y16286400D02*
X26389800D01*
X26314400Y16210200D02*
Y16289800D01*
X26339800Y16210200D02*
Y16289800D01*
X26365200Y16210200D02*
Y16289800D01*
X26310200Y16010200D02*
Y16089800D01*
X26389800*
Y16010200*
X26310200*
X26389800*
X26310200Y16035600D02*
X26389800D01*
X26310200Y16061000D02*
X26389800D01*
X26310200Y16086400D02*
X26389800D01*
X26314400Y16010200D02*
Y16089800D01*
X26339800Y16010200D02*
Y16089800D01*
X26365200Y16010200D02*
Y16089800D01*
X29910200Y22010200D02*
Y22089800D01*
X29989800*
Y22010200*
X29910200*
X29989800*
X29910200Y22035600D02*
X29989800D01*
X29910200Y22061000D02*
X29989800D01*
X29910200Y22086400D02*
X29989800D01*
X29921200Y22010200D02*
Y22089800D01*
X29946600Y22010200D02*
Y22089800D01*
X29972000Y22010200D02*
Y22089800D01*
X29910200Y21810200D02*
Y21889800D01*
X29989800*
Y21810200*
X29910200*
X29989800*
X29910200Y21835600D02*
X29989800D01*
X29910200Y21861000D02*
X29989800D01*
X29910200Y21886400D02*
X29989800D01*
X29921200Y21810200D02*
Y21889800D01*
X29946600Y21810200D02*
Y21889800D01*
X29972000Y21810200D02*
Y21889800D01*
X31139800Y16810200D02*
X31060200D01*
Y16889800*
X31139800*
Y16810200*
X31060200D02*
X31139800D01*
X31060200Y16835600D02*
X31139800D01*
X31060200Y16861000D02*
X31139800D01*
X31060200Y16886400D02*
X31139800D01*
X31064200Y16810200D02*
Y16889800D01*
X31089600Y16810200D02*
Y16889800D01*
X31115000Y16810200D02*
Y16889800D01*
X31339800Y16810200D02*
X31260200D01*
Y16889800*
X31339800*
Y16810200*
X31260200D02*
X31339800D01*
X31260200Y16835600D02*
X31339800D01*
X31260200Y16861000D02*
X31339800D01*
X31260200Y16886400D02*
X31339800D01*
X31267400Y16810200D02*
Y16889800D01*
X31292800Y16810200D02*
Y16889800D01*
X31318200Y16810200D02*
Y16889800D01*
X31139800Y21010200D02*
X31060200D01*
Y21089800*
X31139800*
Y21010200*
X31060200D02*
X31139800D01*
X31060200Y21035600D02*
X31139800D01*
X31060200Y21061000D02*
X31139800D01*
X31060200Y21086400D02*
X31139800D01*
X31064200Y21010200D02*
Y21089800D01*
X31089600Y21010200D02*
Y21089800D01*
X31115000Y21010200D02*
Y21089800D01*
X31339800Y21010200D02*
X31260200D01*
Y21089800*
X31339800*
Y21010200*
X31260200D02*
X31339800D01*
X31260200Y21035600D02*
X31339800D01*
X31260200Y21061000D02*
X31339800D01*
X31260200Y21086400D02*
X31339800D01*
X31267400Y21010200D02*
Y21089800D01*
X31292800Y21010200D02*
Y21089800D01*
X31318200Y21010200D02*
Y21089800D01*
X31410200Y16210200D02*
Y16289800D01*
X31489800*
Y16210200*
X31410200*
X31489800*
X31410200Y16235600D02*
X31489800D01*
X31410200Y16261000D02*
X31489800D01*
X31410200Y16286400D02*
X31489800D01*
X31419800Y16210200D02*
Y16289800D01*
X31445200Y16210200D02*
Y16289800D01*
X31470600Y16210200D02*
Y16289800D01*
X31410200Y16010200D02*
Y16089800D01*
X31489800*
Y16010200*
X31410200*
X31489800*
X31410200Y16035600D02*
X31489800D01*
X31410200Y16061000D02*
X31489800D01*
X31410200Y16086400D02*
X31489800D01*
X31419800Y16010200D02*
Y16089800D01*
X31445200Y16010200D02*
Y16089800D01*
X31470600Y16010200D02*
Y16089800D01*
X31810200Y17810200D02*
Y17889800D01*
X31889800*
Y17810200*
X31810200*
X31889800*
X31810200Y17835600D02*
X31889800D01*
X31810200Y17861000D02*
X31889800D01*
X31810200Y17886400D02*
X31889800D01*
X31826200Y17810200D02*
Y17889800D01*
X31851600Y17810200D02*
Y17889800D01*
X31877000Y17810200D02*
Y17889800D01*
X31810200Y17610200D02*
Y17689800D01*
X31889800*
Y17610200*
X31810200*
X31889800*
X31810200Y17635600D02*
X31889800D01*
X31810200Y17661000D02*
X31889800D01*
X31810200Y17686400D02*
X31889800D01*
X31826200Y17610200D02*
Y17689800D01*
X31851600Y17610200D02*
Y17689800D01*
X31877000Y17610200D02*
Y17689800D01*
X31410200Y20410200D02*
Y20489800D01*
X31489800*
Y20410200*
X31410200*
X31489800*
X31410200Y20435600D02*
X31489800D01*
X31410200Y20461000D02*
X31489800D01*
X31410200Y20486400D02*
X31489800D01*
X31419800Y20410200D02*
Y20489800D01*
X31445200Y20410200D02*
Y20489800D01*
X31470600Y20410200D02*
Y20489800D01*
X31410200Y20210200D02*
Y20289800D01*
X31489800*
Y20210200*
X31410200*
X31489800*
X31410200Y20235600D02*
X31489800D01*
X31410200Y20261000D02*
X31489800D01*
X31410200Y20286400D02*
X31489800D01*
X31419800Y20210200D02*
Y20289800D01*
X31445200Y20210200D02*
Y20289800D01*
X31470600Y20210200D02*
Y20289800D01*
X31810200Y22010200D02*
Y22089800D01*
X31889800*
Y22010200*
X31810200*
X31889800*
X31810200Y22035600D02*
X31889800D01*
X31810200Y22061000D02*
X31889800D01*
X31810200Y22086400D02*
X31889800D01*
X31826200Y22010200D02*
Y22089800D01*
X31851600Y22010200D02*
Y22089800D01*
X31877000Y22010200D02*
Y22089800D01*
X31810200Y21810200D02*
Y21889800D01*
X31889800*
Y21810200*
X31810200*
X31889800*
X31810200Y21835600D02*
X31889800D01*
X31810200Y21861000D02*
X31889800D01*
X31810200Y21886400D02*
X31889800D01*
X31826200Y21810200D02*
Y21889800D01*
X31851600Y21810200D02*
Y21889800D01*
X31877000Y21810200D02*
Y21889800D01*
X31889800Y22739800D02*
Y22660200D01*
X31810200*
Y22739800*
X31889800*
X31810200Y22660200D02*
X31889800D01*
X31810200Y22685600D02*
X31889800D01*
X31810200Y22711000D02*
X31889800D01*
X31810200Y22736400D02*
X31889800D01*
X31826200Y22660200D02*
Y22739800D01*
X31851600Y22660200D02*
Y22739800D01*
X31877000Y22660200D02*
Y22739800D01*
X31889800Y22939800D02*
Y22860200D01*
X31810200*
Y22939800*
X31889800*
X31810200Y22860200D02*
X31889800D01*
X31810200Y22885600D02*
X31889800D01*
X31810200Y22911000D02*
X31889800D01*
X31810200Y22936400D02*
X31889800D01*
X31826200Y22860200D02*
Y22939800D01*
X31851600Y22860200D02*
Y22939800D01*
X31877000Y22860200D02*
Y22939800D01*
X32139800Y22739800D02*
Y22660200D01*
X32060200*
Y22739800*
X32139800*
X32060200Y22660200D02*
X32139800D01*
X32060200Y22685600D02*
X32139800D01*
X32060200Y22711000D02*
X32139800D01*
X32060200Y22736400D02*
X32139800D01*
X32080200Y22660200D02*
Y22739800D01*
X32105600Y22660200D02*
Y22739800D01*
X32131000Y22660200D02*
Y22739800D01*
X32139800Y22939800D02*
Y22860200D01*
X32060200*
Y22939800*
X32139800*
X32060200Y22860200D02*
X32139800D01*
X32060200Y22885600D02*
X32139800D01*
X32060200Y22911000D02*
X32139800D01*
X32060200Y22936400D02*
X32139800D01*
X32080200Y22860200D02*
Y22939800D01*
X32105600Y22860200D02*
Y22939800D01*
X32131000Y22860200D02*
Y22939800D01*
X31610200Y17810200D02*
Y17889800D01*
X31689800*
Y17810200*
X31610200*
X31689800*
X31610200Y17835600D02*
X31689800D01*
X31610200Y17861000D02*
X31689800D01*
X31610200Y17886400D02*
X31689800D01*
X31623000Y17810200D02*
Y17889800D01*
X31648400Y17810200D02*
Y17889800D01*
X31673800Y17810200D02*
Y17889800D01*
X31610200Y17610200D02*
Y17689800D01*
X31689800*
Y17610200*
X31610200*
X31689800*
X31610200Y17635600D02*
X31689800D01*
X31610200Y17661000D02*
X31689800D01*
X31610200Y17686400D02*
X31689800D01*
X31623000Y17610200D02*
Y17689800D01*
X31648400Y17610200D02*
Y17689800D01*
X31673800Y17610200D02*
Y17689800D01*
X26710200Y17810200D02*
Y17889800D01*
X26789800*
Y17810200*
X26710200*
X26789800*
X26710200Y17835600D02*
X26789800D01*
X26710200Y17861000D02*
X26789800D01*
X26710200Y17886400D02*
X26789800D01*
X26720800Y17810200D02*
Y17889800D01*
X26746200Y17810200D02*
Y17889800D01*
X26771600Y17810200D02*
Y17889800D01*
X26710200Y17610200D02*
Y17689800D01*
X26789800*
Y17610200*
X26710200*
X26789800*
X26710200Y17635600D02*
X26789800D01*
X26710200Y17661000D02*
X26789800D01*
X26710200Y17686400D02*
X26789800D01*
X26720800Y17610200D02*
Y17689800D01*
X26746200Y17610200D02*
Y17689800D01*
X26771600Y17610200D02*
Y17689800D01*
X31610200Y22010200D02*
Y22089800D01*
X31689800*
Y22010200*
X31610200*
X31689800*
X31610200Y22035600D02*
X31689800D01*
X31610200Y22061000D02*
X31689800D01*
X31610200Y22086400D02*
X31689800D01*
X31623000Y22010200D02*
Y22089800D01*
X31648400Y22010200D02*
Y22089800D01*
X31673800Y22010200D02*
Y22089800D01*
X31610200Y21810200D02*
Y21889800D01*
X31689800*
Y21810200*
X31610200*
X31689800*
X31610200Y21835600D02*
X31689800D01*
X31610200Y21861000D02*
X31689800D01*
X31610200Y21886400D02*
X31689800D01*
X31623000Y21810200D02*
Y21889800D01*
X31648400Y21810200D02*
Y21889800D01*
X31673800Y21810200D02*
Y21889800D01*
X32839800Y16810200D02*
X32760200D01*
Y16889800*
X32839800*
Y16810200*
X32760200D02*
X32839800D01*
X32760200Y16835600D02*
X32839800D01*
X32760200Y16861000D02*
X32839800D01*
X32760200Y16886400D02*
X32839800D01*
X32766000Y16810200D02*
Y16889800D01*
X32791400Y16810200D02*
Y16889800D01*
X32816800Y16810200D02*
Y16889800D01*
X33039800Y16810200D02*
X32960200D01*
Y16889800*
X33039800*
Y16810200*
X32960200D02*
X33039800D01*
X32960200Y16835600D02*
X33039800D01*
X32960200Y16861000D02*
X33039800D01*
X32960200Y16886400D02*
X33039800D01*
X32969200Y16810200D02*
Y16889800D01*
X32994600Y16810200D02*
Y16889800D01*
X33020000Y16810200D02*
Y16889800D01*
X32839800Y21010200D02*
X32760200D01*
Y21089800*
X32839800*
Y21010200*
X32760200D02*
X32839800D01*
X32760200Y21035600D02*
X32839800D01*
X32760200Y21061000D02*
X32839800D01*
X32760200Y21086400D02*
X32839800D01*
X32766000Y21010200D02*
Y21089800D01*
X32791400Y21010200D02*
Y21089800D01*
X32816800Y21010200D02*
Y21089800D01*
X33039800Y21010200D02*
X32960200D01*
Y21089800*
X33039800*
Y21010200*
X32960200D02*
X33039800D01*
X32960200Y21035600D02*
X33039800D01*
X32960200Y21061000D02*
X33039800D01*
X32960200Y21086400D02*
X33039800D01*
X32969200Y21010200D02*
Y21089800D01*
X32994600Y21010200D02*
Y21089800D01*
X33020000Y21010200D02*
Y21089800D01*
X33110200Y16210200D02*
Y16289800D01*
X33189800*
Y16210200*
X33110200*
X33189800*
X33110200Y16235600D02*
X33189800D01*
X33110200Y16261000D02*
X33189800D01*
X33110200Y16286400D02*
X33189800D01*
X33121600Y16210200D02*
Y16289800D01*
X33147000Y16210200D02*
Y16289800D01*
X33172400Y16210200D02*
Y16289800D01*
X33110200Y16010200D02*
Y16089800D01*
X33189800*
Y16010200*
X33110200*
X33189800*
X33110200Y16035600D02*
X33189800D01*
X33110200Y16061000D02*
X33189800D01*
X33110200Y16086400D02*
X33189800D01*
X33121600Y16010200D02*
Y16089800D01*
X33147000Y16010200D02*
Y16089800D01*
X33172400Y16010200D02*
Y16089800D01*
X33510200Y17810200D02*
Y17889800D01*
X33589800*
Y17810200*
X33510200*
X33589800*
X33510200Y17835600D02*
X33589800D01*
X33510200Y17861000D02*
X33589800D01*
X33510200Y17886400D02*
X33589800D01*
X33528000Y17810200D02*
Y17889800D01*
X33553400Y17810200D02*
Y17889800D01*
X33578800Y17810200D02*
Y17889800D01*
X33510200Y17610200D02*
Y17689800D01*
X33589800*
Y17610200*
X33510200*
X33589800*
X33510200Y17635600D02*
X33589800D01*
X33510200Y17661000D02*
X33589800D01*
X33510200Y17686400D02*
X33589800D01*
X33528000Y17610200D02*
Y17689800D01*
X33553400Y17610200D02*
Y17689800D01*
X33578800Y17610200D02*
Y17689800D01*
X33510200Y22010200D02*
Y22089800D01*
X33589800*
Y22010200*
X33510200*
X33589800*
X33510200Y22035600D02*
X33589800D01*
X33510200Y22061000D02*
X33589800D01*
X33510200Y22086400D02*
X33589800D01*
X33528000Y22010200D02*
Y22089800D01*
X33553400Y22010200D02*
Y22089800D01*
X33578800Y22010200D02*
Y22089800D01*
X33510200Y21810200D02*
Y21889800D01*
X33589800*
Y21810200*
X33510200*
X33589800*
X33510200Y21835600D02*
X33589800D01*
X33510200Y21861000D02*
X33589800D01*
X33510200Y21886400D02*
X33589800D01*
X33528000Y21810200D02*
Y21889800D01*
X33553400Y21810200D02*
Y21889800D01*
X33578800Y21810200D02*
Y21889800D01*
X32389800Y22739800D02*
Y22660200D01*
X32310200*
Y22739800*
X32389800*
X32310200Y22660200D02*
X32389800D01*
X32310200Y22685600D02*
X32389800D01*
X32310200Y22711000D02*
X32389800D01*
X32310200Y22736400D02*
X32389800D01*
X32334200Y22660200D02*
Y22739800D01*
X32359600Y22660200D02*
Y22739800D01*
X32385000Y22660200D02*
Y22739800D01*
X32389800Y22939800D02*
Y22860200D01*
X32310200*
Y22939800*
X32389800*
X32310200Y22860200D02*
X32389800D01*
X32310200Y22885600D02*
X32389800D01*
X32310200Y22911000D02*
X32389800D01*
X32310200Y22936400D02*
X32389800D01*
X32334200Y22860200D02*
Y22939800D01*
X32359600Y22860200D02*
Y22939800D01*
X32385000Y22860200D02*
Y22939800D01*
X33110200Y20410200D02*
Y20489800D01*
X33189800*
Y20410200*
X33110200*
X33189800*
X33110200Y20435600D02*
X33189800D01*
X33110200Y20461000D02*
X33189800D01*
X33110200Y20486400D02*
X33189800D01*
X33121600Y20410200D02*
Y20489800D01*
X33147000Y20410200D02*
Y20489800D01*
X33172400Y20410200D02*
Y20489800D01*
X33110200Y20210200D02*
Y20289800D01*
X33189800*
Y20210200*
X33110200*
X33189800*
X33110200Y20235600D02*
X33189800D01*
X33110200Y20261000D02*
X33189800D01*
X33110200Y20286400D02*
X33189800D01*
X33121600Y20210200D02*
Y20289800D01*
X33147000Y20210200D02*
Y20289800D01*
X33172400Y20210200D02*
Y20289800D01*
X32460200Y24460200D02*
Y24539800D01*
X32539800*
Y24460200*
X32460200*
X32539800*
X32460200Y24485600D02*
X32539800D01*
X32460200Y24511000D02*
X32539800D01*
X32460200Y24536400D02*
X32539800D01*
X32461200Y24460200D02*
Y24539800D01*
X32486600Y24460200D02*
Y24539800D01*
X32512000Y24460200D02*
Y24539800D01*
X32537400Y24460200D02*
Y24539800D01*
X32460200Y24260200D02*
Y24339800D01*
X32539800*
Y24260200*
X32460200*
X32539800*
X32460200Y24285600D02*
X32539800D01*
X32460200Y24311000D02*
X32539800D01*
X32460200Y24336400D02*
X32539800D01*
X32461200Y24260200D02*
Y24339800D01*
X32486600Y24260200D02*
Y24339800D01*
X32512000Y24260200D02*
Y24339800D01*
X32537400Y24260200D02*
Y24339800D01*
X33310200Y17810200D02*
Y17889800D01*
X33389800*
Y17810200*
X33310200*
X33389800*
X33310200Y17835600D02*
X33389800D01*
X33310200Y17861000D02*
X33389800D01*
X33310200Y17886400D02*
X33389800D01*
X33324800Y17810200D02*
Y17889800D01*
X33350200Y17810200D02*
Y17889800D01*
X33375600Y17810200D02*
Y17889800D01*
X33310200Y17610200D02*
Y17689800D01*
X33389800*
Y17610200*
X33310200*
X33389800*
X33310200Y17635600D02*
X33389800D01*
X33310200Y17661000D02*
X33389800D01*
X33310200Y17686400D02*
X33389800D01*
X33324800Y17610200D02*
Y17689800D01*
X33350200Y17610200D02*
Y17689800D01*
X33375600Y17610200D02*
Y17689800D01*
X26310200Y20410200D02*
Y20489800D01*
X26389800*
Y20410200*
X26310200*
X26389800*
X26310200Y20435600D02*
X26389800D01*
X26310200Y20461000D02*
X26389800D01*
X26310200Y20486400D02*
X26389800D01*
X26314400Y20410200D02*
Y20489800D01*
X26339800Y20410200D02*
Y20489800D01*
X26365200Y20410200D02*
Y20489800D01*
X26310200Y20210200D02*
Y20289800D01*
X26389800*
Y20210200*
X26310200*
X26389800*
X26310200Y20235600D02*
X26389800D01*
X26310200Y20261000D02*
X26389800D01*
X26310200Y20286400D02*
X26389800D01*
X26314400Y20210200D02*
Y20289800D01*
X26339800Y20210200D02*
Y20289800D01*
X26365200Y20210200D02*
Y20289800D01*
X33310200Y22010200D02*
Y22089800D01*
X33389800*
Y22010200*
X33310200*
X33389800*
X33310200Y22035600D02*
X33389800D01*
X33310200Y22061000D02*
X33389800D01*
X33310200Y22086400D02*
X33389800D01*
X33324800Y22010200D02*
Y22089800D01*
X33350200Y22010200D02*
Y22089800D01*
X33375600Y22010200D02*
Y22089800D01*
X33310200Y21810200D02*
Y21889800D01*
X33389800*
Y21810200*
X33310200*
X33389800*
X33310200Y21835600D02*
X33389800D01*
X33310200Y21861000D02*
X33389800D01*
X33310200Y21886400D02*
X33389800D01*
X33324800Y21810200D02*
Y21889800D01*
X33350200Y21810200D02*
Y21889800D01*
X33375600Y21810200D02*
Y21889800D01*
X34539800Y16810200D02*
X34460200D01*
Y16889800*
X34539800*
Y16810200*
X34460200D02*
X34539800D01*
X34460200Y16835600D02*
X34539800D01*
X34460200Y16861000D02*
X34539800D01*
X34460200Y16886400D02*
X34539800D01*
X34467800Y16810200D02*
Y16889800D01*
X34493200Y16810200D02*
Y16889800D01*
X34518600Y16810200D02*
Y16889800D01*
X34739800Y16810200D02*
X34660200D01*
Y16889800*
X34739800*
Y16810200*
X34660200D02*
X34739800D01*
X34660200Y16835600D02*
X34739800D01*
X34660200Y16861000D02*
X34739800D01*
X34660200Y16886400D02*
X34739800D01*
X34671000Y16810200D02*
Y16889800D01*
X34696400Y16810200D02*
Y16889800D01*
X34721800Y16810200D02*
Y16889800D01*
X34539800Y21010200D02*
X34460200D01*
Y21089800*
X34539800*
Y21010200*
X34460200D02*
X34539800D01*
X34460200Y21035600D02*
X34539800D01*
X34460200Y21061000D02*
X34539800D01*
X34460200Y21086400D02*
X34539800D01*
X34467800Y21010200D02*
Y21089800D01*
X34493200Y21010200D02*
Y21089800D01*
X34518600Y21010200D02*
Y21089800D01*
X34739800Y21010200D02*
X34660200D01*
Y21089800*
X34739800*
Y21010200*
X34660200D02*
X34739800D01*
X34660200Y21035600D02*
X34739800D01*
X34660200Y21061000D02*
X34739800D01*
X34660200Y21086400D02*
X34739800D01*
X34671000Y21010200D02*
Y21089800D01*
X34696400Y21010200D02*
Y21089800D01*
X34721800Y21010200D02*
Y21089800D01*
X34810200Y16210200D02*
Y16289800D01*
X34889800*
Y16210200*
X34810200*
X34889800*
X34810200Y16235600D02*
X34889800D01*
X34810200Y16261000D02*
X34889800D01*
X34810200Y16286400D02*
X34889800D01*
X34823400Y16210200D02*
Y16289800D01*
X34848800Y16210200D02*
Y16289800D01*
X34874200Y16210200D02*
Y16289800D01*
X34810200Y16010200D02*
Y16089800D01*
X34889800*
Y16010200*
X34810200*
X34889800*
X34810200Y16035600D02*
X34889800D01*
X34810200Y16061000D02*
X34889800D01*
X34810200Y16086400D02*
X34889800D01*
X34823400Y16010200D02*
Y16089800D01*
X34848800Y16010200D02*
Y16089800D01*
X34874200Y16010200D02*
Y16089800D01*
X35210200Y17810200D02*
Y17889800D01*
X35289800*
Y17810200*
X35210200*
X35289800*
X35210200Y17835600D02*
X35289800D01*
X35210200Y17861000D02*
X35289800D01*
X35210200Y17886400D02*
X35289800D01*
X35229800Y17810200D02*
Y17889800D01*
X35255200Y17810200D02*
Y17889800D01*
X35280600Y17810200D02*
Y17889800D01*
X35210200Y17610200D02*
Y17689800D01*
X35289800*
Y17610200*
X35210200*
X35289800*
X35210200Y17635600D02*
X35289800D01*
X35210200Y17661000D02*
X35289800D01*
X35210200Y17686400D02*
X35289800D01*
X35229800Y17610200D02*
Y17689800D01*
X35255200Y17610200D02*
Y17689800D01*
X35280600Y17610200D02*
Y17689800D01*
X34810200Y20410200D02*
Y20489800D01*
X34889800*
Y20410200*
X34810200*
X34889800*
X34810200Y20435600D02*
X34889800D01*
X34810200Y20461000D02*
X34889800D01*
X34810200Y20486400D02*
X34889800D01*
X34823400Y20410200D02*
Y20489800D01*
X34848800Y20410200D02*
Y20489800D01*
X34874200Y20410200D02*
Y20489800D01*
X34810200Y20210200D02*
Y20289800D01*
X34889800*
Y20210200*
X34810200*
X34889800*
X34810200Y20235600D02*
X34889800D01*
X34810200Y20261000D02*
X34889800D01*
X34810200Y20286400D02*
X34889800D01*
X34823400Y20210200D02*
Y20289800D01*
X34848800Y20210200D02*
Y20289800D01*
X34874200Y20210200D02*
Y20289800D01*
X32210200Y24460200D02*
Y24539800D01*
X32289800*
Y24460200*
X32210200*
X32289800*
X32210200Y24485600D02*
X32289800D01*
X32210200Y24511000D02*
X32289800D01*
X32210200Y24536400D02*
X32289800D01*
X32232600Y24460200D02*
Y24539800D01*
X32258000Y24460200D02*
Y24539800D01*
X32283400Y24460200D02*
Y24539800D01*
X32210200Y24260200D02*
Y24339800D01*
X32289800*
Y24260200*
X32210200*
X32289800*
X32210200Y24285600D02*
X32289800D01*
X32210200Y24311000D02*
X32289800D01*
X32210200Y24336400D02*
X32289800D01*
X32232600Y24260200D02*
Y24339800D01*
X32258000Y24260200D02*
Y24339800D01*
X32283400Y24260200D02*
Y24339800D01*
X35210200Y22010200D02*
Y22089800D01*
X35289800*
Y22010200*
X35210200*
X35289800*
X35210200Y22035600D02*
X35289800D01*
X35210200Y22061000D02*
X35289800D01*
X35210200Y22086400D02*
X35289800D01*
X35229800Y22010200D02*
Y22089800D01*
X35255200Y22010200D02*
Y22089800D01*
X35280600Y22010200D02*
Y22089800D01*
X35210200Y21810200D02*
Y21889800D01*
X35289800*
Y21810200*
X35210200*
X35289800*
X35210200Y21835600D02*
X35289800D01*
X35210200Y21861000D02*
X35289800D01*
X35210200Y21886400D02*
X35289800D01*
X35229800Y21810200D02*
Y21889800D01*
X35255200Y21810200D02*
Y21889800D01*
X35280600Y21810200D02*
Y21889800D01*
X31970200Y24460200D02*
Y24539800D01*
X32049800*
Y24460200*
X31970200*
X32049800*
X31970200Y24485600D02*
X32049800D01*
X31970200Y24511000D02*
X32049800D01*
X31970200Y24536400D02*
X32049800D01*
X31978600Y24460200D02*
Y24539800D01*
X32004000Y24460200D02*
Y24539800D01*
X32029400Y24460200D02*
Y24539800D01*
X31970200Y24260200D02*
Y24339800D01*
X32049800*
Y24260200*
X31970200*
X32049800*
X31970200Y24285600D02*
X32049800D01*
X31970200Y24311000D02*
X32049800D01*
X31970200Y24336400D02*
X32049800D01*
X31978600Y24260200D02*
Y24339800D01*
X32004000Y24260200D02*
Y24339800D01*
X32029400Y24260200D02*
Y24339800D01*
X35010200Y17810200D02*
Y17889800D01*
X35089800*
Y17810200*
X35010200*
X35089800*
X35010200Y17835600D02*
X35089800D01*
X35010200Y17861000D02*
X35089800D01*
X35010200Y17886400D02*
X35089800D01*
X35026600Y17810200D02*
Y17889800D01*
X35052000Y17810200D02*
Y17889800D01*
X35077400Y17810200D02*
Y17889800D01*
X35010200Y17610200D02*
Y17689800D01*
X35089800*
Y17610200*
X35010200*
X35089800*
X35010200Y17635600D02*
X35089800D01*
X35010200Y17661000D02*
X35089800D01*
X35010200Y17686400D02*
X35089800D01*
X35026600Y17610200D02*
Y17689800D01*
X35052000Y17610200D02*
Y17689800D01*
X35077400Y17610200D02*
Y17689800D01*
X26710200Y22010200D02*
Y22089800D01*
X26789800*
Y22010200*
X26710200*
X26789800*
X26710200Y22035600D02*
X26789800D01*
X26710200Y22061000D02*
X26789800D01*
X26710200Y22086400D02*
X26789800D01*
X26720800Y22010200D02*
Y22089800D01*
X26746200Y22010200D02*
Y22089800D01*
X26771600Y22010200D02*
Y22089800D01*
X26710200Y21810200D02*
Y21889800D01*
X26789800*
Y21810200*
X26710200*
X26789800*
X26710200Y21835600D02*
X26789800D01*
X26710200Y21861000D02*
X26789800D01*
X26710200Y21886400D02*
X26789800D01*
X26720800Y21810200D02*
Y21889800D01*
X26746200Y21810200D02*
Y21889800D01*
X26771600Y21810200D02*
Y21889800D01*
X35010200Y22010200D02*
Y22089800D01*
X35089800*
Y22010200*
X35010200*
X35089800*
X35010200Y22035600D02*
X35089800D01*
X35010200Y22061000D02*
X35089800D01*
X35010200Y22086400D02*
X35089800D01*
X35026600Y22010200D02*
Y22089800D01*
X35052000Y22010200D02*
Y22089800D01*
X35077400Y22010200D02*
Y22089800D01*
X35010200Y21810200D02*
Y21889800D01*
X35089800*
Y21810200*
X35010200*
X35089800*
X35010200Y21835600D02*
X35089800D01*
X35010200Y21861000D02*
X35089800D01*
X35010200Y21886400D02*
X35089800D01*
X35026600Y21810200D02*
Y21889800D01*
X35052000Y21810200D02*
Y21889800D01*
X35077400Y21810200D02*
Y21889800D01*
X36239800Y16810200D02*
X36160200D01*
Y16889800*
X36239800*
Y16810200*
X36160200D02*
X36239800D01*
X36160200Y16835600D02*
X36239800D01*
X36160200Y16861000D02*
X36239800D01*
X36160200Y16886400D02*
X36239800D01*
X36169600Y16810200D02*
Y16889800D01*
X36195000Y16810200D02*
Y16889800D01*
X36220400Y16810200D02*
Y16889800D01*
X36439800Y16810200D02*
X36360200D01*
Y16889800*
X36439800*
Y16810200*
X36360200D02*
X36439800D01*
X36360200Y16835600D02*
X36439800D01*
X36360200Y16861000D02*
X36439800D01*
X36360200Y16886400D02*
X36439800D01*
X36372800Y16810200D02*
Y16889800D01*
X36398200Y16810200D02*
Y16889800D01*
X36423600Y16810200D02*
Y16889800D01*
X36239800Y21010200D02*
X36160200D01*
Y21089800*
X36239800*
Y21010200*
X36160200D02*
X36239800D01*
X36160200Y21035600D02*
X36239800D01*
X36160200Y21061000D02*
X36239800D01*
X36160200Y21086400D02*
X36239800D01*
X36169600Y21010200D02*
Y21089800D01*
X36195000Y21010200D02*
Y21089800D01*
X36220400Y21010200D02*
Y21089800D01*
X36439800Y21010200D02*
X36360200D01*
Y21089800*
X36439800*
Y21010200*
X36360200D02*
X36439800D01*
X36360200Y21035600D02*
X36439800D01*
X36360200Y21061000D02*
X36439800D01*
X36360200Y21086400D02*
X36439800D01*
X36372800Y21010200D02*
Y21089800D01*
X36398200Y21010200D02*
Y21089800D01*
X36423600Y21010200D02*
Y21089800D01*
X36510200Y16210200D02*
Y16289800D01*
X36589800*
Y16210200*
X36510200*
X36589800*
X36510200Y16235600D02*
X36589800D01*
X36510200Y16261000D02*
X36589800D01*
X36510200Y16286400D02*
X36589800D01*
X36525200Y16210200D02*
Y16289800D01*
X36550600Y16210200D02*
Y16289800D01*
X36576000Y16210200D02*
Y16289800D01*
X36510200Y16010200D02*
Y16089800D01*
X36589800*
Y16010200*
X36510200*
X36589800*
X36510200Y16035600D02*
X36589800D01*
X36510200Y16061000D02*
X36589800D01*
X36510200Y16086400D02*
X36589800D01*
X36525200Y16010200D02*
Y16089800D01*
X36550600Y16010200D02*
Y16089800D01*
X36576000Y16010200D02*
Y16089800D01*
X36910200Y17810200D02*
Y17889800D01*
X36989800*
Y17810200*
X36910200*
X36989800*
X36910200Y17835600D02*
X36989800D01*
X36910200Y17861000D02*
X36989800D01*
X36910200Y17886400D02*
X36989800D01*
X36931600Y17810200D02*
Y17889800D01*
X36957000Y17810200D02*
Y17889800D01*
X36982400Y17810200D02*
Y17889800D01*
X36910200Y17610200D02*
Y17689800D01*
X36989800*
Y17610200*
X36910200*
X36989800*
X36910200Y17635600D02*
X36989800D01*
X36910200Y17661000D02*
X36989800D01*
X36910200Y17686400D02*
X36989800D01*
X36931600Y17610200D02*
Y17689800D01*
X36957000Y17610200D02*
Y17689800D01*
X36982400Y17610200D02*
Y17689800D01*
X36910200Y22010200D02*
Y22089800D01*
X36989800*
Y22010200*
X36910200*
X36989800*
X36910200Y22035600D02*
X36989800D01*
X36910200Y22061000D02*
X36989800D01*
X36910200Y22086400D02*
X36989800D01*
X36931600Y22010200D02*
Y22089800D01*
X36957000Y22010200D02*
Y22089800D01*
X36982400Y22010200D02*
Y22089800D01*
X36910200Y21810200D02*
Y21889800D01*
X36989800*
Y21810200*
X36910200*
X36989800*
X36910200Y21835600D02*
X36989800D01*
X36910200Y21861000D02*
X36989800D01*
X36910200Y21886400D02*
X36989800D01*
X36931600Y21810200D02*
Y21889800D01*
X36957000Y21810200D02*
Y21889800D01*
X36982400Y21810200D02*
Y21889800D01*
X33689800Y22739800D02*
Y22660200D01*
X33610200*
Y22739800*
X33689800*
X33610200Y22660200D02*
X33689800D01*
X33610200Y22685600D02*
X33689800D01*
X33610200Y22711000D02*
X33689800D01*
X33610200Y22736400D02*
X33689800D01*
X33629600Y22660200D02*
Y22739800D01*
X33655000Y22660200D02*
Y22739800D01*
X33680400Y22660200D02*
Y22739800D01*
X33689800Y22939800D02*
Y22860200D01*
X33610200*
Y22939800*
X33689800*
X33610200Y22860200D02*
X33689800D01*
X33610200Y22885600D02*
X33689800D01*
X33610200Y22911000D02*
X33689800D01*
X33610200Y22936400D02*
X33689800D01*
X33629600Y22860200D02*
Y22939800D01*
X33655000Y22860200D02*
Y22939800D01*
X33680400Y22860200D02*
Y22939800D01*
X36510200Y20410200D02*
Y20489800D01*
X36589800*
Y20410200*
X36510200*
X36589800*
X36510200Y20435600D02*
X36589800D01*
X36510200Y20461000D02*
X36589800D01*
X36510200Y20486400D02*
X36589800D01*
X36525200Y20410200D02*
Y20489800D01*
X36550600Y20410200D02*
Y20489800D01*
X36576000Y20410200D02*
Y20489800D01*
X36510200Y20210200D02*
Y20289800D01*
X36589800*
Y20210200*
X36510200*
X36589800*
X36510200Y20235600D02*
X36589800D01*
X36510200Y20261000D02*
X36589800D01*
X36510200Y20286400D02*
X36589800D01*
X36525200Y20210200D02*
Y20289800D01*
X36550600Y20210200D02*
Y20289800D01*
X36576000Y20210200D02*
Y20289800D01*
X33939800Y22739800D02*
Y22660200D01*
X33860200*
Y22739800*
X33939800*
X33860200Y22660200D02*
X33939800D01*
X33860200Y22685600D02*
X33939800D01*
X33860200Y22711000D02*
X33939800D01*
X33860200Y22736400D02*
X33939800D01*
X33883600Y22660200D02*
Y22739800D01*
X33909000Y22660200D02*
Y22739800D01*
X33934400Y22660200D02*
Y22739800D01*
X33939800Y22939800D02*
Y22860200D01*
X33860200*
Y22939800*
X33939800*
X33860200Y22860200D02*
X33939800D01*
X33860200Y22885600D02*
X33939800D01*
X33860200Y22911000D02*
X33939800D01*
X33860200Y22936400D02*
X33939800D01*
X33883600Y22860200D02*
Y22939800D01*
X33909000Y22860200D02*
Y22939800D01*
X33934400Y22860200D02*
Y22939800D01*
X36710200Y17810200D02*
Y17889800D01*
X36789800*
Y17810200*
X36710200*
X36789800*
X36710200Y17835600D02*
X36789800D01*
X36710200Y17861000D02*
X36789800D01*
X36710200Y17886400D02*
X36789800D01*
X36728400Y17810200D02*
Y17889800D01*
X36753800Y17810200D02*
Y17889800D01*
X36779200Y17810200D02*
Y17889800D01*
X36710200Y17610200D02*
Y17689800D01*
X36789800*
Y17610200*
X36710200*
X36789800*
X36710200Y17635600D02*
X36789800D01*
X36710200Y17661000D02*
X36789800D01*
X36710200Y17686400D02*
X36789800D01*
X36728400Y17610200D02*
Y17689800D01*
X36753800Y17610200D02*
Y17689800D01*
X36779200Y17610200D02*
Y17689800D01*
X30089800Y22739800D02*
Y22660200D01*
X30010200*
Y22739800*
X30089800*
X30010200Y22660200D02*
X30089800D01*
X30010200Y22685600D02*
X30089800D01*
X30010200Y22711000D02*
X30089800D01*
X30010200Y22736400D02*
X30089800D01*
X30022800Y22660200D02*
Y22739800D01*
X30048200Y22660200D02*
Y22739800D01*
X30073600Y22660200D02*
Y22739800D01*
X30089800Y22939800D02*
Y22860200D01*
X30010200*
Y22939800*
X30089800*
X30010200Y22860200D02*
X30089800D01*
X30010200Y22885600D02*
X30089800D01*
X30010200Y22911000D02*
X30089800D01*
X30010200Y22936400D02*
X30089800D01*
X30022800Y22860200D02*
Y22939800D01*
X30048200Y22860200D02*
Y22939800D01*
X30073600Y22860200D02*
Y22939800D01*
X36710200Y22010200D02*
Y22089800D01*
X36789800*
Y22010200*
X36710200*
X36789800*
X36710200Y22035600D02*
X36789800D01*
X36710200Y22061000D02*
X36789800D01*
X36710200Y22086400D02*
X36789800D01*
X36728400Y22010200D02*
Y22089800D01*
X36753800Y22010200D02*
Y22089800D01*
X36779200Y22010200D02*
Y22089800D01*
X36710200Y21810200D02*
Y21889800D01*
X36789800*
Y21810200*
X36710200*
X36789800*
X36710200Y21835600D02*
X36789800D01*
X36710200Y21861000D02*
X36789800D01*
X36710200Y21886400D02*
X36789800D01*
X36728400Y21810200D02*
Y21889800D01*
X36753800Y21810200D02*
Y21889800D01*
X36779200Y21810200D02*
Y21889800D01*
X37939800Y16810200D02*
X37860200D01*
Y16889800*
X37939800*
Y16810200*
X37860200D02*
X37939800D01*
X37860200Y16835600D02*
X37939800D01*
X37860200Y16861000D02*
X37939800D01*
X37860200Y16886400D02*
X37939800D01*
X37871400Y16810200D02*
Y16889800D01*
X37896800Y16810200D02*
Y16889800D01*
X37922200Y16810200D02*
Y16889800D01*
X38139800Y16810200D02*
X38060200D01*
Y16889800*
X38139800*
Y16810200*
X38060200D02*
X38139800D01*
X38060200Y16835600D02*
X38139800D01*
X38060200Y16861000D02*
X38139800D01*
X38060200Y16886400D02*
X38139800D01*
X38074600Y16810200D02*
Y16889800D01*
X38100000Y16810200D02*
Y16889800D01*
X38125400Y16810200D02*
Y16889800D01*
X37939800Y21010200D02*
X37860200D01*
Y21089800*
X37939800*
Y21010200*
X37860200D02*
X37939800D01*
X37860200Y21035600D02*
X37939800D01*
X37860200Y21061000D02*
X37939800D01*
X37860200Y21086400D02*
X37939800D01*
X37871400Y21010200D02*
Y21089800D01*
X37896800Y21010200D02*
Y21089800D01*
X37922200Y21010200D02*
Y21089800D01*
X38139800Y21010200D02*
X38060200D01*
Y21089800*
X38139800*
Y21010200*
X38060200D02*
X38139800D01*
X38060200Y21035600D02*
X38139800D01*
X38060200Y21061000D02*
X38139800D01*
X38060200Y21086400D02*
X38139800D01*
X38074600Y21010200D02*
Y21089800D01*
X38100000Y21010200D02*
Y21089800D01*
X38125400Y21010200D02*
Y21089800D01*
X38210200Y16210200D02*
Y16289800D01*
X38289800*
Y16210200*
X38210200*
X38289800*
X38210200Y16235600D02*
X38289800D01*
X38210200Y16261000D02*
X38289800D01*
X38210200Y16286400D02*
X38289800D01*
X38227000Y16210200D02*
Y16289800D01*
X38252400Y16210200D02*
Y16289800D01*
X38277800Y16210200D02*
Y16289800D01*
X38210200Y16010200D02*
Y16089800D01*
X38289800*
Y16010200*
X38210200*
X38289800*
X38210200Y16035600D02*
X38289800D01*
X38210200Y16061000D02*
X38289800D01*
X38210200Y16086400D02*
X38289800D01*
X38227000Y16010200D02*
Y16089800D01*
X38252400Y16010200D02*
Y16089800D01*
X38277800Y16010200D02*
Y16089800D01*
X38610200Y17810200D02*
Y17889800D01*
X38689800*
Y17810200*
X38610200*
X38689800*
X38610200Y17835600D02*
X38689800D01*
X38610200Y17861000D02*
X38689800D01*
X38610200Y17886400D02*
X38689800D01*
X38633400Y17810200D02*
Y17889800D01*
X38658800Y17810200D02*
Y17889800D01*
X38684200Y17810200D02*
Y17889800D01*
X38610200Y17610200D02*
Y17689800D01*
X38689800*
Y17610200*
X38610200*
X38689800*
X38610200Y17635600D02*
X38689800D01*
X38610200Y17661000D02*
X38689800D01*
X38610200Y17686400D02*
X38689800D01*
X38633400Y17610200D02*
Y17689800D01*
X38658800Y17610200D02*
Y17689800D01*
X38684200Y17610200D02*
Y17689800D01*
X38210200Y20410200D02*
Y20489800D01*
X38289800*
Y20410200*
X38210200*
X38289800*
X38210200Y20435600D02*
X38289800D01*
X38210200Y20461000D02*
X38289800D01*
X38210200Y20486400D02*
X38289800D01*
X38227000Y20410200D02*
Y20489800D01*
X38252400Y20410200D02*
Y20489800D01*
X38277800Y20410200D02*
Y20489800D01*
X38210200Y20210200D02*
Y20289800D01*
X38289800*
Y20210200*
X38210200*
X38289800*
X38210200Y20235600D02*
X38289800D01*
X38210200Y20261000D02*
X38289800D01*
X38210200Y20286400D02*
X38289800D01*
X38227000Y20210200D02*
Y20289800D01*
X38252400Y20210200D02*
Y20289800D01*
X38277800Y20210200D02*
Y20289800D01*
X34189800Y22739800D02*
Y22660200D01*
X34110200*
Y22739800*
X34189800*
X34110200Y22660200D02*
X34189800D01*
X34110200Y22685600D02*
X34189800D01*
X34110200Y22711000D02*
X34189800D01*
X34110200Y22736400D02*
X34189800D01*
X34112200Y22660200D02*
Y22739800D01*
X34137600Y22660200D02*
Y22739800D01*
X34163000Y22660200D02*
Y22739800D01*
X34188400Y22660200D02*
Y22739800D01*
X34189800Y22939800D02*
Y22860200D01*
X34110200*
Y22939800*
X34189800*
X34110200Y22860200D02*
X34189800D01*
X34110200Y22885600D02*
X34189800D01*
X34110200Y22911000D02*
X34189800D01*
X34110200Y22936400D02*
X34189800D01*
X34112200Y22860200D02*
Y22939800D01*
X34137600Y22860200D02*
Y22939800D01*
X34163000Y22860200D02*
Y22939800D01*
X34188400Y22860200D02*
Y22939800D01*
X38610200Y22010200D02*
Y22089800D01*
X38689800*
Y22010200*
X38610200*
X38689800*
X38610200Y22035600D02*
X38689800D01*
X38610200Y22061000D02*
X38689800D01*
X38610200Y22086400D02*
X38689800D01*
X38633400Y22010200D02*
Y22089800D01*
X38658800Y22010200D02*
Y22089800D01*
X38684200Y22010200D02*
Y22089800D01*
X38610200Y21810200D02*
Y21889800D01*
X38689800*
Y21810200*
X38610200*
X38689800*
X38610200Y21835600D02*
X38689800D01*
X38610200Y21861000D02*
X38689800D01*
X38610200Y21886400D02*
X38689800D01*
X38633400Y21810200D02*
Y21889800D01*
X38658800Y21810200D02*
Y21889800D01*
X38684200Y21810200D02*
Y21889800D01*
X34260200Y24460200D02*
Y24539800D01*
X34339800*
Y24460200*
X34260200*
X34339800*
X34260200Y24485600D02*
X34339800D01*
X34260200Y24511000D02*
X34339800D01*
X34260200Y24536400D02*
X34339800D01*
X34264600Y24460200D02*
Y24539800D01*
X34290000Y24460200D02*
Y24539800D01*
X34315400Y24460200D02*
Y24539800D01*
X34260200Y24260200D02*
Y24339800D01*
X34339800*
Y24260200*
X34260200*
X34339800*
X34260200Y24285600D02*
X34339800D01*
X34260200Y24311000D02*
X34339800D01*
X34260200Y24336400D02*
X34339800D01*
X34264600Y24260200D02*
Y24339800D01*
X34290000Y24260200D02*
Y24339800D01*
X34315400Y24260200D02*
Y24339800D01*
X38410200Y17810200D02*
Y17889800D01*
X38489800*
Y17810200*
X38410200*
X38489800*
X38410200Y17835600D02*
X38489800D01*
X38410200Y17861000D02*
X38489800D01*
X38410200Y17886400D02*
X38489800D01*
X38430200Y17810200D02*
Y17889800D01*
X38455600Y17810200D02*
Y17889800D01*
X38481000Y17810200D02*
Y17889800D01*
X38410200Y17610200D02*
Y17689800D01*
X38489800*
Y17610200*
X38410200*
X38489800*
X38410200Y17635600D02*
X38489800D01*
X38410200Y17661000D02*
X38489800D01*
X38410200Y17686400D02*
X38489800D01*
X38430200Y17610200D02*
Y17689800D01*
X38455600Y17610200D02*
Y17689800D01*
X38481000Y17610200D02*
Y17689800D01*
X30339800Y22739800D02*
Y22660200D01*
X30260200*
Y22739800*
X30339800*
X30260200Y22660200D02*
X30339800D01*
X30260200Y22685600D02*
X30339800D01*
X30260200Y22711000D02*
X30339800D01*
X30260200Y22736400D02*
X30339800D01*
X30276800Y22660200D02*
Y22739800D01*
X30302200Y22660200D02*
Y22739800D01*
X30327600Y22660200D02*
Y22739800D01*
X30339800Y22939800D02*
Y22860200D01*
X30260200*
Y22939800*
X30339800*
X30260200Y22860200D02*
X30339800D01*
X30260200Y22885600D02*
X30339800D01*
X30260200Y22911000D02*
X30339800D01*
X30260200Y22936400D02*
X30339800D01*
X30276800Y22860200D02*
Y22939800D01*
X30302200Y22860200D02*
Y22939800D01*
X30327600Y22860200D02*
Y22939800D01*
X38410200Y22010200D02*
Y22089800D01*
X38489800*
Y22010200*
X38410200*
X38489800*
X38410200Y22035600D02*
X38489800D01*
X38410200Y22061000D02*
X38489800D01*
X38410200Y22086400D02*
X38489800D01*
X38430200Y22010200D02*
Y22089800D01*
X38455600Y22010200D02*
Y22089800D01*
X38481000Y22010200D02*
Y22089800D01*
X38410200Y21810200D02*
Y21889800D01*
X38489800*
Y21810200*
X38410200*
X38489800*
X38410200Y21835600D02*
X38489800D01*
X38410200Y21861000D02*
X38489800D01*
X38410200Y21886400D02*
X38489800D01*
X38430200Y21810200D02*
Y21889800D01*
X38455600Y21810200D02*
Y21889800D01*
X38481000Y21810200D02*
Y21889800D01*
X26510200Y17810200D02*
Y17889800D01*
X26589800*
Y17810200*
X26510200*
X26589800*
X26510200Y17835600D02*
X26589800D01*
X26510200Y17861000D02*
X26589800D01*
X26510200Y17886400D02*
X26589800D01*
X26517600Y17810200D02*
Y17889800D01*
X26543000Y17810200D02*
Y17889800D01*
X26568400Y17810200D02*
Y17889800D01*
X26510200Y17610200D02*
Y17689800D01*
X26589800*
Y17610200*
X26510200*
X26589800*
X26510200Y17635600D02*
X26589800D01*
X26510200Y17661000D02*
X26589800D01*
X26510200Y17686400D02*
X26589800D01*
X26517600Y17610200D02*
Y17689800D01*
X26543000Y17610200D02*
Y17689800D01*
X26568400Y17610200D02*
Y17689800D01*
X25400000Y12700000D02*
Y25400000D01*
X39660000*
Y12700000*
X25400000*
G54D79*
X25950000Y17150000D03*
X32750000Y21350000D03*
X34450000Y17150000D03*
Y21350000D03*
X36150000Y17150000D03*
Y21350000D03*
X37850000Y17150000D03*
Y21350000D03*
X25950000D03*
X27650000Y17150000D03*
Y21350000D03*
X29350000Y17150000D03*
Y21350000D03*
X31050000Y17150000D03*
Y21350000D03*
X32750000Y17150000D03*
G54D84*
X29482000Y13127000D03*
Y25227000D03*
G54D85*
Y12873000D03*
X29736000Y13127000D03*
Y12873000D03*
X29990000Y13127000D03*
Y12873000D03*
X30244000Y13127000D03*
Y12873000D03*
X30498000Y13127000D03*
Y12873000D03*
X30752000Y13127000D03*
Y12873000D03*
X31006000Y13127000D03*
Y12873000D03*
X31260000Y13127000D03*
Y12873000D03*
X31514000Y13127000D03*
Y12873000D03*
X31768000Y13127000D03*
Y12873000D03*
X32022000Y13127000D03*
Y12873000D03*
X32276000Y13127000D03*
Y12873000D03*
X32530000Y13127000D03*
Y12873000D03*
X32784000Y13127000D03*
Y12873000D03*
X33038000Y13127000D03*
Y12873000D03*
X33292000Y13127000D03*
Y12873000D03*
X33546000Y13127000D03*
Y12873000D03*
X33800000Y13127000D03*
Y12873000D03*
X34054000Y13127000D03*
Y12873000D03*
X34308000Y13127000D03*
Y12873000D03*
X34562000Y13127000D03*
Y12873000D03*
X34816000Y13127000D03*
Y12873000D03*
X35070000Y13127000D03*
Y12873000D03*
X35324000Y13127000D03*
Y12873000D03*
X35578000Y13127000D03*
Y12873000D03*
X29482000Y24973000D03*
X29736000Y25227000D03*
Y24973000D03*
X29990000Y25227000D03*
Y24973000D03*
X30244000Y25227000D03*
Y24973000D03*
X30498000Y25227000D03*
Y24973000D03*
X30752000Y25227000D03*
Y24973000D03*
X31006000Y25227000D03*
Y24973000D03*
X31260000Y25227000D03*
Y24973000D03*
X31514000Y25227000D03*
Y24973000D03*
X31768000Y25227000D03*
Y24973000D03*
X32022000Y25227000D03*
Y24973000D03*
X32276000Y25227000D03*
Y24973000D03*
X32530000Y25227000D03*
Y24973000D03*
X32784000Y25227000D03*
Y24973000D03*
X33038000Y25227000D03*
Y24973000D03*
X33292000Y25227000D03*
Y24973000D03*
X33546000Y25227000D03*
Y24973000D03*
X33800000Y25227000D03*
Y24973000D03*
X34054000Y25227000D03*
Y24973000D03*
X34308000Y25227000D03*
Y24973000D03*
X34562000Y25227000D03*
Y24973000D03*
X34816000Y25227000D03*
Y24973000D03*
X35070000Y25227000D03*
Y24973000D03*
X35324000Y25227000D03*
Y24973000D03*
X35578000Y25227000D03*
Y24973000D03*
G54D89*
X26204000Y17150000D03*
Y17912000D03*
X25950000D03*
X33004000Y21350000D03*
Y22112000D03*
X32750000D03*
X34704000Y17150000D03*
Y17912000D03*
X34450000D03*
X34704000Y21350000D03*
Y22112000D03*
X34450000D03*
X36404000Y17150000D03*
Y17912000D03*
X36150000D03*
X36404000Y21350000D03*
Y22112000D03*
X36150000D03*
X38104000Y17150000D03*
Y17912000D03*
X37850000D03*
X38104000Y21350000D03*
Y22112000D03*
X37850000D03*
X26204000Y21350000D03*
Y22112000D03*
X25950000D03*
X27904000Y17150000D03*
Y17912000D03*
X27650000D03*
X27904000Y21350000D03*
Y22112000D03*
X27650000D03*
X29604000Y17150000D03*
Y17912000D03*
X29350000D03*
X29604000Y21350000D03*
Y22112000D03*
X29350000D03*
X31304000Y17150000D03*
Y17912000D03*
X31050000D03*
X31304000Y21350000D03*
Y22112000D03*
X31050000D03*
X33004000Y17150000D03*
Y17912000D03*
X32750000D03*
X26650000Y14550000D03*
X27250000Y14450000D03*
X33450000Y18750000D03*
X34050000Y18650000D03*
X35150000Y14550000D03*
X35750000Y14450000D03*
X35150000Y18750000D03*
X35750000Y18650000D03*
X36850000Y14550000D03*
X37450000Y14450000D03*
X36850000Y18750000D03*
X37450000Y18650000D03*
X38550000Y14550000D03*
X39150000Y14450000D03*
X38550000Y18750000D03*
X39150000Y18650000D03*
X26650000Y18750000D03*
X27250000Y18650000D03*
X28350000Y14550000D03*
X28950000Y14450000D03*
X28350000Y18750000D03*
X28950000Y18650000D03*
X30050000Y14550000D03*
X30650000Y14450000D03*
X30050000Y18750000D03*
X30650000Y18650000D03*
X31750000Y14550000D03*
X32350000Y14450000D03*
X31750000Y18750000D03*
X32350000Y18650000D03*
X33450000Y14550000D03*
X34050000Y14450000D03*
G54D102*
X26700000Y15005000D02*
Y15065000D01*
X27200000Y15005000D02*
Y15065000D01*
Y15835000D02*
Y15895000D01*
X26700000Y15835000D02*
Y15895000D01*
X30100000Y19205000D02*
Y19265000D01*
X30600000Y19205000D02*
Y19265000D01*
Y20035000D02*
Y20095000D01*
X30100000Y20035000D02*
Y20095000D01*
X31800000Y15005000D02*
Y15065000D01*
X32300000Y15005000D02*
Y15065000D01*
Y15835000D02*
Y15895000D01*
X31800000Y15835000D02*
Y15895000D01*
Y19205000D02*
Y19265000D01*
X32300000Y19205000D02*
Y19265000D01*
Y20035000D02*
Y20095000D01*
X31800000Y20035000D02*
Y20095000D01*
X33500000Y15005000D02*
Y15065000D01*
X34000000Y15005000D02*
Y15065000D01*
Y15835000D02*
Y15895000D01*
X33500000Y15835000D02*
Y15895000D01*
Y19205000D02*
Y19265000D01*
X34000000Y19205000D02*
Y19265000D01*
Y20035000D02*
Y20095000D01*
X33500000Y20035000D02*
Y20095000D01*
X26700000Y19205000D02*
Y19265000D01*
X27200000Y19205000D02*
Y19265000D01*
Y20035000D02*
Y20095000D01*
X26700000Y20035000D02*
Y20095000D01*
X35200000Y15005000D02*
Y15065000D01*
X35700000Y15005000D02*
Y15065000D01*
Y15835000D02*
Y15895000D01*
X35200000Y15835000D02*
Y15895000D01*
Y19205000D02*
Y19265000D01*
X35700000Y19205000D02*
Y19265000D01*
Y20035000D02*
Y20095000D01*
X35200000Y20035000D02*
Y20095000D01*
X36900000Y15005000D02*
Y15065000D01*
X37400000Y15005000D02*
Y15065000D01*
Y15835000D02*
Y15895000D01*
X36900000Y15835000D02*
Y15895000D01*
Y19205000D02*
Y19265000D01*
X37400000Y19205000D02*
Y19265000D01*
Y20035000D02*
Y20095000D01*
X36900000Y20035000D02*
Y20095000D01*
X38600000Y15005000D02*
Y15065000D01*
X39100000Y15005000D02*
Y15065000D01*
Y15835000D02*
Y15895000D01*
X38600000Y15835000D02*
Y15895000D01*
Y19205000D02*
Y19265000D01*
X39100000Y19205000D02*
Y19265000D01*
Y20035000D02*
Y20095000D01*
X38600000Y20035000D02*
Y20095000D01*
X28400000Y15005000D02*
Y15065000D01*
X28900000Y15005000D02*
Y15065000D01*
Y15835000D02*
Y15895000D01*
X28400000Y15835000D02*
Y15895000D01*
Y19205000D02*
Y19265000D01*
X28900000Y19205000D02*
Y19265000D01*
Y20035000D02*
Y20095000D01*
X28400000Y20035000D02*
Y20095000D01*
X30100000Y15005000D02*
Y15065000D01*
X30600000Y15005000D02*
Y15065000D01*
Y15835000D02*
Y15895000D01*
X30100000Y15835000D02*
Y15895000D01*
G54D109*
X29900000Y24250000D03*
Y24550000D03*
X31700000Y24250000D03*
Y24550000D03*
X33500000Y24250000D03*
Y24550000D03*
X35650000Y24200000D03*
Y23900000D03*
X35450000Y24200000D03*
Y23900000D03*
X28250000Y24200000D03*
Y23900000D03*
X28000000Y24200000D03*
Y23900000D03*
X29400000Y16525000D03*
Y15975000D03*
Y20725000D03*
Y20175000D03*
X31100000Y16525000D03*
Y15975000D03*
Y20725000D03*
Y20175000D03*
X32800000Y16525000D03*
Y15975000D03*
Y20725000D03*
Y20175000D03*
X34500000Y16525000D03*
Y15975000D03*
Y20725000D03*
Y20175000D03*
X36200000Y16525000D03*
Y15975000D03*
Y20725000D03*
Y20175000D03*
X26000000Y16525000D03*
Y15975000D03*
X37900000Y16525000D03*
Y15975000D03*
Y20725000D03*
Y20175000D03*
X26000000Y20700000D03*
Y20150000D03*
X27700000Y16525000D03*
Y15975000D03*
Y20725000D03*
Y20175000D03*
X26721400Y16496000D03*
X26950000D03*
X27178600D03*
X26950000Y17124650D03*
X30121400Y20696000D03*
X30350000D03*
X30578600D03*
X30350000Y21324650D03*
X30461100Y17610300D03*
X30638900D03*
X30550000Y17900000D03*
X30461100Y21810300D03*
X30638900D03*
X30550000Y22100000D03*
X31821400Y16496000D03*
X32050000D03*
X32278600D03*
X32050000Y17124650D03*
X31821400Y20696000D03*
X32050000D03*
X32278600D03*
X32050000Y21324650D03*
X32161100Y17610300D03*
X32338900D03*
X32250000Y17900000D03*
X32161100Y21810300D03*
X32338900D03*
X32250000Y22100000D03*
X33521400Y16496000D03*
X33750000D03*
X33978600D03*
X33750000Y17124650D03*
X33521400Y20696000D03*
X33750000D03*
X33978600D03*
X33750000Y21324650D03*
X33861100Y17610300D03*
X34038900D03*
X33950000Y17900000D03*
X26721400Y20696000D03*
X26950000D03*
X27178600D03*
X26950000Y21324650D03*
X33861100Y21810300D03*
X34038900D03*
X33950000Y22100000D03*
X35221400Y16496000D03*
X35450000D03*
X35678600D03*
X35450000Y17124650D03*
X35221400Y20696000D03*
X35450000D03*
X35678600D03*
X35450000Y21324650D03*
X35561100Y17610300D03*
X35738900D03*
X35650000Y17900000D03*
X35561100Y21810300D03*
X35738900D03*
X35650000Y22100000D03*
X36921400Y16496000D03*
X37150000D03*
X37378600D03*
X37150000Y17124650D03*
X36921400Y20696000D03*
X37150000D03*
X37378600D03*
X37150000Y21324650D03*
X37261100Y17610300D03*
X37438900D03*
X37350000Y17900000D03*
X37261100Y21810300D03*
X37438900D03*
X37350000Y22100000D03*
X38621400Y16496000D03*
X38850000D03*
X39078600D03*
X38850000Y17124650D03*
X27061100Y17610300D03*
X27238900D03*
X27150000Y17900000D03*
X38621400Y20696000D03*
X38850000D03*
X39078600D03*
X38850000Y21324650D03*
X38961100Y17610300D03*
X39138900D03*
X39050000Y17900000D03*
X38961100Y21810300D03*
X39138900D03*
X39050000Y22100000D03*
X27061100Y21810300D03*
X27238900D03*
X27150000Y22100000D03*
X28421400Y16496000D03*
X28650000D03*
X28878600D03*
X28650000Y17124650D03*
X28421400Y20696000D03*
X28650000D03*
X28878600D03*
X28650000Y21324650D03*
X28761100Y17610300D03*
X28938900D03*
X28850000Y17900000D03*
X28761100Y21810300D03*
X28938900D03*
X28850000Y22100000D03*
X30121400Y16496000D03*
X30350000D03*
X30578600D03*
X30350000Y17124650D03*
X26250000Y16850000D03*
X25950000D03*
X26550000Y21800000D03*
Y22100000D03*
X27950000Y16850000D03*
X27650000D03*
X27950000Y21050000D03*
X27650000D03*
X28050000Y16000000D03*
Y16300000D03*
X28450000Y17600000D03*
Y17900000D03*
X28050000Y20200000D03*
Y20500000D03*
X30550000Y22950000D03*
Y22650000D03*
X28450000Y21800000D03*
Y22100000D03*
X30700000Y24250000D03*
Y24550000D03*
X28250000Y17600000D03*
Y17900000D03*
X26250000Y21050000D03*
X25950000D03*
X28250000Y21800000D03*
Y22100000D03*
X29650000Y16850000D03*
X29350000D03*
X29650000Y21050000D03*
X29350000D03*
X29750000Y16000000D03*
Y16300000D03*
X30150000Y17600000D03*
Y17900000D03*
X29750000Y20200000D03*
Y20500000D03*
X30150000Y21800000D03*
Y22100000D03*
X30450000Y24250000D03*
Y24550000D03*
X30200000Y24250000D03*
Y24550000D03*
X29950000Y17600000D03*
Y17900000D03*
X26350000Y16000000D03*
Y16300000D03*
X29950000Y21800000D03*
Y22100000D03*
X31350000Y16850000D03*
X31050000D03*
X31350000Y21050000D03*
X31050000D03*
X31450000Y16000000D03*
Y16300000D03*
X31850000Y17600000D03*
Y17900000D03*
X31450000Y20200000D03*
Y20500000D03*
X31850000Y21800000D03*
Y22100000D03*
Y22950000D03*
Y22650000D03*
X32100000Y22950000D03*
Y22650000D03*
X31650000Y17600000D03*
Y17900000D03*
X26750000Y17600000D03*
Y17900000D03*
X31650000Y21800000D03*
Y22100000D03*
X33050000Y16850000D03*
X32750000D03*
X33050000Y21050000D03*
X32750000D03*
X33150000Y16000000D03*
Y16300000D03*
X33550000Y17600000D03*
Y17900000D03*
Y21800000D03*
Y22100000D03*
X32350000Y22950000D03*
Y22650000D03*
X33150000Y20200000D03*
Y20500000D03*
X32500000Y24250000D03*
Y24550000D03*
X33350000Y17600000D03*
Y17900000D03*
X26350000Y20200000D03*
Y20500000D03*
X33350000Y21800000D03*
Y22100000D03*
X34750000Y16850000D03*
X34450000D03*
X34750000Y21050000D03*
X34450000D03*
X34850000Y16000000D03*
Y16300000D03*
X35250000Y17600000D03*
Y17900000D03*
X34850000Y20200000D03*
Y20500000D03*
X32250000Y24250000D03*
Y24550000D03*
X35250000Y21800000D03*
Y22100000D03*
X32010000Y24250000D03*
Y24550000D03*
X35050000Y17600000D03*
Y17900000D03*
X26750000Y21800000D03*
Y22100000D03*
X35050000Y21800000D03*
Y22100000D03*
X36450000Y16850000D03*
X36150000D03*
X36450000Y21050000D03*
X36150000D03*
X36550000Y16000000D03*
Y16300000D03*
X36950000Y17600000D03*
Y17900000D03*
Y21800000D03*
Y22100000D03*
X33650000Y22950000D03*
Y22650000D03*
X36550000Y20200000D03*
Y20500000D03*
X33900000Y22950000D03*
Y22650000D03*
X36750000Y17600000D03*
Y17900000D03*
X30050000Y22950000D03*
Y22650000D03*
X36750000Y21800000D03*
Y22100000D03*
X38150000Y16850000D03*
X37850000D03*
X38150000Y21050000D03*
X37850000D03*
X38250000Y16000000D03*
Y16300000D03*
X38650000Y17600000D03*
Y17900000D03*
X38250000Y20200000D03*
Y20500000D03*
X34150000Y22950000D03*
Y22650000D03*
X38650000Y21800000D03*
Y22100000D03*
X34300000Y24250000D03*
Y24550000D03*
X38450000Y17600000D03*
Y17900000D03*
X30300000Y22950000D03*
Y22650000D03*
X38450000Y21800000D03*
Y22100000D03*
X26550000Y17600000D03*
Y17900000D03*
X29900000Y24250000D03*
Y24550000D03*
X31700000Y24250000D03*
Y24550000D03*
X33500000Y24250000D03*
Y24550000D03*
X35650000Y24200000D03*
Y23900000D03*
X35450000Y24200000D03*
Y23900000D03*
X28250000Y24200000D03*
Y23900000D03*
X28000000Y24200000D03*
Y23900000D03*
X29400000Y16525000D03*
Y15975000D03*
Y20725000D03*
Y20175000D03*
X31100000Y16525000D03*
Y15975000D03*
Y20725000D03*
Y20175000D03*
X32800000Y16525000D03*
Y15975000D03*
Y20725000D03*
Y20175000D03*
X34500000Y16525000D03*
Y15975000D03*
Y20725000D03*
Y20175000D03*
X36200000Y16525000D03*
Y15975000D03*
Y20725000D03*
Y20175000D03*
X26000000Y16525000D03*
Y15975000D03*
X37900000Y16525000D03*
Y15975000D03*
Y20725000D03*
Y20175000D03*
X26000000Y20700000D03*
Y20150000D03*
X27700000Y16525000D03*
Y15975000D03*
Y20725000D03*
Y20175000D03*
X26721400Y16496000D03*
X26950000D03*
X27178600D03*
X26950000Y17124650D03*
X30121400Y20696000D03*
X30350000D03*
X30578600D03*
X30350000Y21324650D03*
X30461100Y17610300D03*
X30638900D03*
X30550000Y17900000D03*
X30461100Y21810300D03*
X30638900D03*
X30550000Y22100000D03*
X31821400Y16496000D03*
X32050000D03*
X32278600D03*
X32050000Y17124650D03*
X31821400Y20696000D03*
X32050000D03*
X32278600D03*
X32050000Y21324650D03*
X32161100Y17610300D03*
X32338900D03*
X32250000Y17900000D03*
X32161100Y21810300D03*
X32338900D03*
X32250000Y22100000D03*
X33521400Y16496000D03*
X33750000D03*
X33978600D03*
X33750000Y17124650D03*
X33521400Y20696000D03*
X33750000D03*
X33978600D03*
X33750000Y21324650D03*
X33861100Y17610300D03*
X34038900D03*
X33950000Y17900000D03*
X26721400Y20696000D03*
X26950000D03*
X27178600D03*
X26950000Y21324650D03*
X33861100Y21810300D03*
X34038900D03*
X33950000Y22100000D03*
X35221400Y16496000D03*
X35450000D03*
X35678600D03*
X35450000Y17124650D03*
X35221400Y20696000D03*
X35450000D03*
X35678600D03*
X35450000Y21324650D03*
X35561100Y17610300D03*
X35738900D03*
X35650000Y17900000D03*
X35561100Y21810300D03*
X35738900D03*
X35650000Y22100000D03*
X36921400Y16496000D03*
X37150000D03*
X37378600D03*
X37150000Y17124650D03*
X36921400Y20696000D03*
X37150000D03*
X37378600D03*
X37150000Y21324650D03*
X37261100Y17610300D03*
X37438900D03*
X37350000Y17900000D03*
X37261100Y21810300D03*
X37438900D03*
X37350000Y22100000D03*
X38621400Y16496000D03*
X38850000D03*
X39078600D03*
X38850000Y17124650D03*
X27061100Y17610300D03*
X27238900D03*
X27150000Y17900000D03*
X38621400Y20696000D03*
X38850000D03*
X39078600D03*
X38850000Y21324650D03*
X38961100Y17610300D03*
X39138900D03*
X39050000Y17900000D03*
X38961100Y21810300D03*
X39138900D03*
X39050000Y22100000D03*
X27061100Y21810300D03*
X27238900D03*
X27150000Y22100000D03*
X28421400Y16496000D03*
X28650000D03*
X28878600D03*
X28650000Y17124650D03*
X28421400Y20696000D03*
X28650000D03*
X28878600D03*
X28650000Y21324650D03*
X28761100Y17610300D03*
X28938900D03*
X28850000Y17900000D03*
X28761100Y21810300D03*
X28938900D03*
X28850000Y22100000D03*
X30121400Y16496000D03*
X30350000D03*
X30578600D03*
X30350000Y17124650D03*
X26250000Y16850000D03*
X25950000D03*
X26550000Y21800000D03*
Y22100000D03*
X27950000Y16850000D03*
X27650000D03*
X27950000Y21050000D03*
X27650000D03*
X28050000Y16000000D03*
Y16300000D03*
X28450000Y17600000D03*
Y17900000D03*
X28050000Y20200000D03*
Y20500000D03*
X30550000Y22950000D03*
Y22650000D03*
X28450000Y21800000D03*
Y22100000D03*
X30700000Y24250000D03*
Y24550000D03*
X28250000Y17600000D03*
Y17900000D03*
X26250000Y21050000D03*
X25950000D03*
X28250000Y21800000D03*
Y22100000D03*
X29650000Y16850000D03*
X29350000D03*
X29650000Y21050000D03*
X29350000D03*
X29750000Y16000000D03*
Y16300000D03*
X30150000Y17600000D03*
Y17900000D03*
X29750000Y20200000D03*
Y20500000D03*
X30150000Y21800000D03*
Y22100000D03*
X30450000Y24250000D03*
Y24550000D03*
X30200000Y24250000D03*
Y24550000D03*
X29950000Y17600000D03*
Y17900000D03*
X26350000Y16000000D03*
Y16300000D03*
X29950000Y21800000D03*
Y22100000D03*
X31350000Y16850000D03*
X31050000D03*
X31350000Y21050000D03*
X31050000D03*
X31450000Y16000000D03*
Y16300000D03*
X31850000Y17600000D03*
Y17900000D03*
X31450000Y20200000D03*
Y20500000D03*
X31850000Y21800000D03*
Y22100000D03*
Y22950000D03*
Y22650000D03*
X32100000Y22950000D03*
Y22650000D03*
X31650000Y17600000D03*
Y17900000D03*
X26750000Y17600000D03*
Y17900000D03*
X31650000Y21800000D03*
Y22100000D03*
X33050000Y16850000D03*
X32750000D03*
X33050000Y21050000D03*
X32750000D03*
X33150000Y16000000D03*
Y16300000D03*
X33550000Y17600000D03*
Y17900000D03*
Y21800000D03*
Y22100000D03*
X32350000Y22950000D03*
Y22650000D03*
X33150000Y20200000D03*
Y20500000D03*
X32500000Y24250000D03*
Y24550000D03*
X33350000Y17600000D03*
Y17900000D03*
X26350000Y20200000D03*
Y20500000D03*
X33350000Y21800000D03*
Y22100000D03*
X34750000Y16850000D03*
X34450000D03*
X34750000Y21050000D03*
X34450000D03*
X34850000Y16000000D03*
Y16300000D03*
X35250000Y17600000D03*
Y17900000D03*
X34850000Y20200000D03*
Y20500000D03*
X32250000Y24250000D03*
Y24550000D03*
X35250000Y21800000D03*
Y22100000D03*
X32010000Y24250000D03*
Y24550000D03*
X35050000Y17600000D03*
Y17900000D03*
X26750000Y21800000D03*
Y22100000D03*
X35050000Y21800000D03*
Y22100000D03*
X36450000Y16850000D03*
X36150000D03*
X36450000Y21050000D03*
X36150000D03*
X36550000Y16000000D03*
Y16300000D03*
X36950000Y17600000D03*
Y17900000D03*
Y21800000D03*
Y22100000D03*
X33650000Y22950000D03*
Y22650000D03*
X36550000Y20200000D03*
Y20500000D03*
X33900000Y22950000D03*
Y22650000D03*
X36750000Y17600000D03*
Y17900000D03*
X30050000Y22950000D03*
Y22650000D03*
X36750000Y21800000D03*
Y22100000D03*
X38150000Y16850000D03*
X37850000D03*
X38150000Y21050000D03*
X37850000D03*
X38250000Y16000000D03*
Y16300000D03*
X38650000Y17600000D03*
Y17900000D03*
X38250000Y20200000D03*
Y20500000D03*
X34150000Y22950000D03*
Y22650000D03*
X38650000Y21800000D03*
Y22100000D03*
X34300000Y24250000D03*
Y24550000D03*
X38450000Y17600000D03*
Y17900000D03*
X30300000Y22950000D03*
Y22650000D03*
X38450000Y21800000D03*
Y22100000D03*
X26550000Y17600000D03*
Y17900000D03*
G54D110*
X26150000Y15000000D03*
Y15700000D03*
X32950000Y19200000D03*
Y19900000D03*
X34650000Y15000000D03*
Y15700000D03*
Y19200000D03*
Y19900000D03*
X36350000Y15000000D03*
Y15700000D03*
Y19200000D03*
Y19900000D03*
X38050000Y15000000D03*
Y15700000D03*
Y19200000D03*
Y19900000D03*
X28650000Y24300000D03*
Y23800000D03*
X35050000Y24300000D03*
Y23800000D03*
X26150000Y19200000D03*
Y19900000D03*
X27850000Y15000000D03*
Y15700000D03*
Y19200000D03*
Y19900000D03*
X29550000Y15000000D03*
Y15700000D03*
Y19200000D03*
Y19900000D03*
X31250000Y15000000D03*
Y15700000D03*
Y19200000D03*
Y19900000D03*
X32950000Y15000000D03*
Y15700000D03*
X26150000Y15000000D03*
Y15700000D03*
X32950000Y19200000D03*
Y19900000D03*
X34650000Y15000000D03*
Y15700000D03*
Y19200000D03*
Y19900000D03*
X36350000Y15000000D03*
Y15700000D03*
Y19200000D03*
Y19900000D03*
X38050000Y15000000D03*
Y15700000D03*
Y19200000D03*
Y19900000D03*
X28650000Y24300000D03*
Y23800000D03*
X35050000Y24300000D03*
Y23800000D03*
X26150000Y19200000D03*
Y19900000D03*
X27850000Y15000000D03*
Y15700000D03*
Y19200000D03*
Y19900000D03*
X29550000Y15000000D03*
Y15700000D03*
Y19200000D03*
Y19900000D03*
X31250000Y15000000D03*
Y15700000D03*
Y19200000D03*
Y19900000D03*
X32950000Y15000000D03*
Y15700000D03*
G54D111*
X29919000Y23249480D02*
Y23376480D01*
X30046000Y23249480D02*
Y23376480D01*
X30173000Y23249480D02*
Y23376480D01*
X30300000Y23249480D02*
Y23376480D01*
X30427000Y23249480D02*
Y23376480D01*
X30554000Y23249480D02*
Y23376480D01*
X30681000Y23249480D02*
Y23376480D01*
Y23823520D02*
Y23950520D01*
X30554000Y23823520D02*
Y23950520D01*
X30427000Y23823520D02*
Y23950520D01*
X30300000Y23823520D02*
Y23950520D01*
X30173000Y23823520D02*
Y23950520D01*
X30046000Y23823520D02*
Y23950520D01*
X29919000Y23823520D02*
Y23950520D01*
X31719000Y23249480D02*
Y23376480D01*
X31846000Y23249480D02*
Y23376480D01*
X31973000Y23249480D02*
Y23376480D01*
X32100000Y23249480D02*
Y23376480D01*
X32227000Y23249480D02*
Y23376480D01*
X32354000Y23249480D02*
Y23376480D01*
X32481000Y23249480D02*
Y23376480D01*
Y23823520D02*
Y23950520D01*
X32354000Y23823520D02*
Y23950520D01*
X32227000Y23823520D02*
Y23950520D01*
X32100000Y23823520D02*
Y23950520D01*
X31973000Y23823520D02*
Y23950520D01*
X31846000Y23823520D02*
Y23950520D01*
X31719000Y23823520D02*
Y23950520D01*
X33519000Y23249480D02*
Y23376480D01*
X33646000Y23249480D02*
Y23376480D01*
X33773000Y23249480D02*
Y23376480D01*
X33900000Y23249480D02*
Y23376480D01*
X34027000Y23249480D02*
Y23376480D01*
X34154000Y23249480D02*
Y23376480D01*
X34281000Y23249480D02*
Y23376480D01*
Y23823520D02*
Y23950520D01*
X34154000Y23823520D02*
Y23950520D01*
X34027000Y23823520D02*
Y23950520D01*
X33900000Y23823520D02*
Y23950520D01*
X33773000Y23823520D02*
Y23950520D01*
X33646000Y23823520D02*
Y23950520D01*
X33519000Y23823520D02*
Y23950520D01*
G54D112*
X25800000Y25000000D03*
X39260000D03*
Y13100000D03*
X25800000D03*
X0Y0D02*
M02*
