*
*
G04 PADS Layout (Build Number 2005.266.2) generated Gerber (RS-274-X) file*
G04 PC Version=2.1*
*
%IN "cece_module_isoinput_10"*%
*
%MOMM*%
*
%FSLAX35Y35*%
*
*
*
*
G04 PC Standard Apertures*
*
*
G04 Thermal Relief Aperture macro.*
%AMTER*
1,1,$1,0,0*
1,0,$1-$2,0,0*
21,0,$3,$4,0,0,45*
21,0,$3,$4,0,0,135*
%
*
*
G04 Annular Aperture macro.*
%AMANN*
1,1,$1,0,0*
1,0,$2,0,0*
%
*
*
G04 Odd Aperture macro.*
%AMODD*
1,1,$1,0,0*
1,0,$1-0.005,0,0*
%
*
*
G04 PC Custom Aperture Macros*
*
*
*
*
*
*
G04 PC Aperture Table*
*
%ADD058C,0.254*%
%ADD104C,0.6096*%
*
*
*
*
G04 PC Custom Flashes*
G04 Layer Name cece_module_isoinput_10 - flashes*
%LPD*%
*
*
G04 PC Circuitry*
G04 Layer Name cece_module_isoinput_10 - circuitry*
%LPD*%
*
G54D58*
G01X29862700Y24262700D02*
Y24337300D01*
X29937300*
Y24262700*
X29862700*
X29937300*
X29862700Y24288100D02*
X29937300D01*
X29862700Y24313500D02*
X29937300D01*
X29870400Y24262700D02*
Y24337300D01*
X29895800Y24262700D02*
Y24337300D01*
X29921200Y24262700D02*
Y24337300D01*
X29862700Y24537300D02*
Y24462700D01*
X29937300*
Y24537300*
X29862700*
Y24462700D02*
X29937300D01*
X29862700Y24488100D02*
X29937300D01*
X29862700Y24513500D02*
X29937300D01*
X29870400Y24462700D02*
Y24537300D01*
X29895800Y24462700D02*
Y24537300D01*
X29921200Y24462700D02*
Y24537300D01*
X31662700Y24262700D02*
Y24337300D01*
X31737300*
Y24262700*
X31662700*
X31737300*
X31662700Y24288100D02*
X31737300D01*
X31662700Y24313500D02*
X31737300D01*
X31673800Y24262700D02*
Y24337300D01*
X31699200Y24262700D02*
Y24337300D01*
X31724600Y24262700D02*
Y24337300D01*
X31662700Y24537300D02*
Y24462700D01*
X31737300*
Y24537300*
X31662700*
Y24462700D02*
X31737300D01*
X31662700Y24488100D02*
X31737300D01*
X31662700Y24513500D02*
X31737300D01*
X31673800Y24462700D02*
Y24537300D01*
X31699200Y24462700D02*
Y24537300D01*
X31724600Y24462700D02*
Y24537300D01*
X33462700Y24262700D02*
Y24337300D01*
X33537300*
Y24262700*
X33462700*
X33537300*
X33462700Y24288100D02*
X33537300D01*
X33462700Y24313500D02*
X33537300D01*
X33477200Y24262700D02*
Y24337300D01*
X33502600Y24262700D02*
Y24337300D01*
X33528000Y24262700D02*
Y24337300D01*
X33462700Y24537300D02*
Y24462700D01*
X33537300*
Y24537300*
X33462700*
Y24462700D02*
X33537300D01*
X33462700Y24488100D02*
X33537300D01*
X33462700Y24513500D02*
X33537300D01*
X33477200Y24462700D02*
Y24537300D01*
X33502600Y24462700D02*
Y24537300D01*
X33528000Y24462700D02*
Y24537300D01*
X35687300Y23912700D02*
Y23987300D01*
X35612700*
Y23912700*
X35687300*
X35612700D02*
X35687300D01*
X35612700Y23938100D02*
X35687300D01*
X35612700Y23963500D02*
X35687300D01*
X35636200Y23912700D02*
Y23987300D01*
X35661600Y23912700D02*
Y23987300D01*
X35687000Y23912700D02*
Y23987300D01*
X35687300Y24187300D02*
Y24112700D01*
X35612700*
Y24187300*
X35687300*
X35612700Y24112700D02*
X35687300D01*
X35612700Y24138100D02*
X35687300D01*
X35612700Y24163500D02*
X35687300D01*
X35636200Y24112700D02*
Y24187300D01*
X35661600Y24112700D02*
Y24187300D01*
X35687000Y24112700D02*
Y24187300D01*
X35487300Y23912700D02*
Y23987300D01*
X35412700*
Y23912700*
X35487300*
X35412700D02*
X35487300D01*
X35412700Y23938100D02*
X35487300D01*
X35412700Y23963500D02*
X35487300D01*
X35433000Y23912700D02*
Y23987300D01*
X35458400Y23912700D02*
Y23987300D01*
X35483800Y23912700D02*
Y23987300D01*
X35487300Y24187300D02*
Y24112700D01*
X35412700*
Y24187300*
X35487300*
X35412700Y24112700D02*
X35487300D01*
X35412700Y24138100D02*
X35487300D01*
X35412700Y24163500D02*
X35487300D01*
X35433000Y24112700D02*
Y24187300D01*
X35458400Y24112700D02*
Y24187300D01*
X35483800Y24112700D02*
Y24187300D01*
X28287300Y23912700D02*
Y23987300D01*
X28212700*
Y23912700*
X28287300*
X28212700D02*
X28287300D01*
X28212700Y23938100D02*
X28287300D01*
X28212700Y23963500D02*
X28287300D01*
X28219400Y23912700D02*
Y23987300D01*
X28244800Y23912700D02*
Y23987300D01*
X28270200Y23912700D02*
Y23987300D01*
X28287300Y24187300D02*
Y24112700D01*
X28212700*
Y24187300*
X28287300*
X28212700Y24112700D02*
X28287300D01*
X28212700Y24138100D02*
X28287300D01*
X28212700Y24163500D02*
X28287300D01*
X28219400Y24112700D02*
Y24187300D01*
X28244800Y24112700D02*
Y24187300D01*
X28270200Y24112700D02*
Y24187300D01*
X28037300Y23912700D02*
Y23987300D01*
X27962700*
Y23912700*
X28037300*
X27962700D02*
X28037300D01*
X27962700Y23938100D02*
X28037300D01*
X27962700Y23963500D02*
X28037300D01*
X27965400Y23912700D02*
Y23987300D01*
X27990800Y23912700D02*
Y23987300D01*
X28016200Y23912700D02*
Y23987300D01*
X28037300Y24187300D02*
Y24112700D01*
X27962700*
Y24187300*
X28037300*
X27962700Y24112700D02*
X28037300D01*
X27962700Y24138100D02*
X28037300D01*
X27962700Y24163500D02*
X28037300D01*
X27965400Y24112700D02*
Y24187300D01*
X27990800Y24112700D02*
Y24187300D01*
X28016200Y24112700D02*
Y24187300D01*
X29487300Y15962700D02*
Y16112300D01*
X29312700*
Y15962700*
X29487300*
X29312700D02*
X29487300D01*
X29312700Y15988100D02*
X29487300D01*
X29312700Y16013500D02*
X29487300D01*
X29312700Y16038900D02*
X29487300D01*
X29312700Y16064300D02*
X29487300D01*
X29312700Y16089700D02*
X29487300D01*
X29337000Y15962700D02*
Y16112300D01*
X29362400Y15962700D02*
Y16112300D01*
X29387800Y15962700D02*
Y16112300D01*
X29413200Y15962700D02*
Y16112300D01*
X29438600Y15962700D02*
Y16112300D01*
X29464000Y15962700D02*
Y16112300D01*
X29487300Y16537300D02*
Y16387700D01*
X29312700*
Y16537300*
X29487300*
X29312700Y16387700D02*
X29487300D01*
X29312700Y16413100D02*
X29487300D01*
X29312700Y16438500D02*
X29487300D01*
X29312700Y16463900D02*
X29487300D01*
X29312700Y16489300D02*
X29487300D01*
X29312700Y16514700D02*
X29487300D01*
X29337000Y16387700D02*
Y16537300D01*
X29362400Y16387700D02*
Y16537300D01*
X29387800Y16387700D02*
Y16537300D01*
X29413200Y16387700D02*
Y16537300D01*
X29438600Y16387700D02*
Y16537300D01*
X29464000Y16387700D02*
Y16537300D01*
X29487300Y20162700D02*
Y20312300D01*
X29312700*
Y20162700*
X29487300*
X29312700D02*
X29487300D01*
X29312700Y20188100D02*
X29487300D01*
X29312700Y20213500D02*
X29487300D01*
X29312700Y20238900D02*
X29487300D01*
X29312700Y20264300D02*
X29487300D01*
X29312700Y20289700D02*
X29487300D01*
X29337000Y20162700D02*
Y20312300D01*
X29362400Y20162700D02*
Y20312300D01*
X29387800Y20162700D02*
Y20312300D01*
X29413200Y20162700D02*
Y20312300D01*
X29438600Y20162700D02*
Y20312300D01*
X29464000Y20162700D02*
Y20312300D01*
X29487300Y20737300D02*
Y20587700D01*
X29312700*
Y20737300*
X29487300*
X29312700Y20587700D02*
X29487300D01*
X29312700Y20613100D02*
X29487300D01*
X29312700Y20638500D02*
X29487300D01*
X29312700Y20663900D02*
X29487300D01*
X29312700Y20689300D02*
X29487300D01*
X29312700Y20714700D02*
X29487300D01*
X29337000Y20587700D02*
Y20737300D01*
X29362400Y20587700D02*
Y20737300D01*
X29387800Y20587700D02*
Y20737300D01*
X29413200Y20587700D02*
Y20737300D01*
X29438600Y20587700D02*
Y20737300D01*
X29464000Y20587700D02*
Y20737300D01*
X31187300Y15962700D02*
Y16112300D01*
X31012700*
Y15962700*
X31187300*
X31012700D02*
X31187300D01*
X31012700Y15988100D02*
X31187300D01*
X31012700Y16013500D02*
X31187300D01*
X31012700Y16038900D02*
X31187300D01*
X31012700Y16064300D02*
X31187300D01*
X31012700Y16089700D02*
X31187300D01*
X31013400Y15962700D02*
Y16112300D01*
X31038800Y15962700D02*
Y16112300D01*
X31064200Y15962700D02*
Y16112300D01*
X31089600Y15962700D02*
Y16112300D01*
X31115000Y15962700D02*
Y16112300D01*
X31140400Y15962700D02*
Y16112300D01*
X31165800Y15962700D02*
Y16112300D01*
X31187300Y16537300D02*
Y16387700D01*
X31012700*
Y16537300*
X31187300*
X31012700Y16387700D02*
X31187300D01*
X31012700Y16413100D02*
X31187300D01*
X31012700Y16438500D02*
X31187300D01*
X31012700Y16463900D02*
X31187300D01*
X31012700Y16489300D02*
X31187300D01*
X31012700Y16514700D02*
X31187300D01*
X31013400Y16387700D02*
Y16537300D01*
X31038800Y16387700D02*
Y16537300D01*
X31064200Y16387700D02*
Y16537300D01*
X31089600Y16387700D02*
Y16537300D01*
X31115000Y16387700D02*
Y16537300D01*
X31140400Y16387700D02*
Y16537300D01*
X31165800Y16387700D02*
Y16537300D01*
X31187300Y20162700D02*
Y20312300D01*
X31012700*
Y20162700*
X31187300*
X31012700D02*
X31187300D01*
X31012700Y20188100D02*
X31187300D01*
X31012700Y20213500D02*
X31187300D01*
X31012700Y20238900D02*
X31187300D01*
X31012700Y20264300D02*
X31187300D01*
X31012700Y20289700D02*
X31187300D01*
X31013400Y20162700D02*
Y20312300D01*
X31038800Y20162700D02*
Y20312300D01*
X31064200Y20162700D02*
Y20312300D01*
X31089600Y20162700D02*
Y20312300D01*
X31115000Y20162700D02*
Y20312300D01*
X31140400Y20162700D02*
Y20312300D01*
X31165800Y20162700D02*
Y20312300D01*
X31187300Y20737300D02*
Y20587700D01*
X31012700*
Y20737300*
X31187300*
X31012700Y20587700D02*
X31187300D01*
X31012700Y20613100D02*
X31187300D01*
X31012700Y20638500D02*
X31187300D01*
X31012700Y20663900D02*
X31187300D01*
X31012700Y20689300D02*
X31187300D01*
X31012700Y20714700D02*
X31187300D01*
X31013400Y20587700D02*
Y20737300D01*
X31038800Y20587700D02*
Y20737300D01*
X31064200Y20587700D02*
Y20737300D01*
X31089600Y20587700D02*
Y20737300D01*
X31115000Y20587700D02*
Y20737300D01*
X31140400Y20587700D02*
Y20737300D01*
X31165800Y20587700D02*
Y20737300D01*
X32887300Y15962700D02*
Y16112300D01*
X32712700*
Y15962700*
X32887300*
X32712700D02*
X32887300D01*
X32712700Y15988100D02*
X32887300D01*
X32712700Y16013500D02*
X32887300D01*
X32712700Y16038900D02*
X32887300D01*
X32712700Y16064300D02*
X32887300D01*
X32712700Y16089700D02*
X32887300D01*
X32715200Y15962700D02*
Y16112300D01*
X32740600Y15962700D02*
Y16112300D01*
X32766000Y15962700D02*
Y16112300D01*
X32791400Y15962700D02*
Y16112300D01*
X32816800Y15962700D02*
Y16112300D01*
X32842200Y15962700D02*
Y16112300D01*
X32867600Y15962700D02*
Y16112300D01*
X32887300Y16537300D02*
Y16387700D01*
X32712700*
Y16537300*
X32887300*
X32712700Y16387700D02*
X32887300D01*
X32712700Y16413100D02*
X32887300D01*
X32712700Y16438500D02*
X32887300D01*
X32712700Y16463900D02*
X32887300D01*
X32712700Y16489300D02*
X32887300D01*
X32712700Y16514700D02*
X32887300D01*
X32715200Y16387700D02*
Y16537300D01*
X32740600Y16387700D02*
Y16537300D01*
X32766000Y16387700D02*
Y16537300D01*
X32791400Y16387700D02*
Y16537300D01*
X32816800Y16387700D02*
Y16537300D01*
X32842200Y16387700D02*
Y16537300D01*
X32867600Y16387700D02*
Y16537300D01*
X32887300Y20162700D02*
Y20312300D01*
X32712700*
Y20162700*
X32887300*
X32712700D02*
X32887300D01*
X32712700Y20188100D02*
X32887300D01*
X32712700Y20213500D02*
X32887300D01*
X32712700Y20238900D02*
X32887300D01*
X32712700Y20264300D02*
X32887300D01*
X32712700Y20289700D02*
X32887300D01*
X32715200Y20162700D02*
Y20312300D01*
X32740600Y20162700D02*
Y20312300D01*
X32766000Y20162700D02*
Y20312300D01*
X32791400Y20162700D02*
Y20312300D01*
X32816800Y20162700D02*
Y20312300D01*
X32842200Y20162700D02*
Y20312300D01*
X32867600Y20162700D02*
Y20312300D01*
X32887300Y20737300D02*
Y20587700D01*
X32712700*
Y20737300*
X32887300*
X32712700Y20587700D02*
X32887300D01*
X32712700Y20613100D02*
X32887300D01*
X32712700Y20638500D02*
X32887300D01*
X32712700Y20663900D02*
X32887300D01*
X32712700Y20689300D02*
X32887300D01*
X32712700Y20714700D02*
X32887300D01*
X32715200Y20587700D02*
Y20737300D01*
X32740600Y20587700D02*
Y20737300D01*
X32766000Y20587700D02*
Y20737300D01*
X32791400Y20587700D02*
Y20737300D01*
X32816800Y20587700D02*
Y20737300D01*
X32842200Y20587700D02*
Y20737300D01*
X32867600Y20587700D02*
Y20737300D01*
X34587300Y15962700D02*
Y16112300D01*
X34412700*
Y15962700*
X34587300*
X34412700D02*
X34587300D01*
X34412700Y15988100D02*
X34587300D01*
X34412700Y16013500D02*
X34587300D01*
X34412700Y16038900D02*
X34587300D01*
X34412700Y16064300D02*
X34587300D01*
X34412700Y16089700D02*
X34587300D01*
X34417000Y15962700D02*
Y16112300D01*
X34442400Y15962700D02*
Y16112300D01*
X34467800Y15962700D02*
Y16112300D01*
X34493200Y15962700D02*
Y16112300D01*
X34518600Y15962700D02*
Y16112300D01*
X34544000Y15962700D02*
Y16112300D01*
X34569400Y15962700D02*
Y16112300D01*
X34587300Y16537300D02*
Y16387700D01*
X34412700*
Y16537300*
X34587300*
X34412700Y16387700D02*
X34587300D01*
X34412700Y16413100D02*
X34587300D01*
X34412700Y16438500D02*
X34587300D01*
X34412700Y16463900D02*
X34587300D01*
X34412700Y16489300D02*
X34587300D01*
X34412700Y16514700D02*
X34587300D01*
X34417000Y16387700D02*
Y16537300D01*
X34442400Y16387700D02*
Y16537300D01*
X34467800Y16387700D02*
Y16537300D01*
X34493200Y16387700D02*
Y16537300D01*
X34518600Y16387700D02*
Y16537300D01*
X34544000Y16387700D02*
Y16537300D01*
X34569400Y16387700D02*
Y16537300D01*
X34587300Y20162700D02*
Y20312300D01*
X34412700*
Y20162700*
X34587300*
X34412700D02*
X34587300D01*
X34412700Y20188100D02*
X34587300D01*
X34412700Y20213500D02*
X34587300D01*
X34412700Y20238900D02*
X34587300D01*
X34412700Y20264300D02*
X34587300D01*
X34412700Y20289700D02*
X34587300D01*
X34417000Y20162700D02*
Y20312300D01*
X34442400Y20162700D02*
Y20312300D01*
X34467800Y20162700D02*
Y20312300D01*
X34493200Y20162700D02*
Y20312300D01*
X34518600Y20162700D02*
Y20312300D01*
X34544000Y20162700D02*
Y20312300D01*
X34569400Y20162700D02*
Y20312300D01*
X34587300Y20737300D02*
Y20587700D01*
X34412700*
Y20737300*
X34587300*
X34412700Y20587700D02*
X34587300D01*
X34412700Y20613100D02*
X34587300D01*
X34412700Y20638500D02*
X34587300D01*
X34412700Y20663900D02*
X34587300D01*
X34412700Y20689300D02*
X34587300D01*
X34412700Y20714700D02*
X34587300D01*
X34417000Y20587700D02*
Y20737300D01*
X34442400Y20587700D02*
Y20737300D01*
X34467800Y20587700D02*
Y20737300D01*
X34493200Y20587700D02*
Y20737300D01*
X34518600Y20587700D02*
Y20737300D01*
X34544000Y20587700D02*
Y20737300D01*
X34569400Y20587700D02*
Y20737300D01*
X36287300Y15962700D02*
Y16112300D01*
X36112700*
Y15962700*
X36287300*
X36112700D02*
X36287300D01*
X36112700Y15988100D02*
X36287300D01*
X36112700Y16013500D02*
X36287300D01*
X36112700Y16038900D02*
X36287300D01*
X36112700Y16064300D02*
X36287300D01*
X36112700Y16089700D02*
X36287300D01*
X36118800Y15962700D02*
Y16112300D01*
X36144200Y15962700D02*
Y16112300D01*
X36169600Y15962700D02*
Y16112300D01*
X36195000Y15962700D02*
Y16112300D01*
X36220400Y15962700D02*
Y16112300D01*
X36245800Y15962700D02*
Y16112300D01*
X36271200Y15962700D02*
Y16112300D01*
X36287300Y16537300D02*
Y16387700D01*
X36112700*
Y16537300*
X36287300*
X36112700Y16387700D02*
X36287300D01*
X36112700Y16413100D02*
X36287300D01*
X36112700Y16438500D02*
X36287300D01*
X36112700Y16463900D02*
X36287300D01*
X36112700Y16489300D02*
X36287300D01*
X36112700Y16514700D02*
X36287300D01*
X36118800Y16387700D02*
Y16537300D01*
X36144200Y16387700D02*
Y16537300D01*
X36169600Y16387700D02*
Y16537300D01*
X36195000Y16387700D02*
Y16537300D01*
X36220400Y16387700D02*
Y16537300D01*
X36245800Y16387700D02*
Y16537300D01*
X36271200Y16387700D02*
Y16537300D01*
X36287300Y20162700D02*
Y20312300D01*
X36112700*
Y20162700*
X36287300*
X36112700D02*
X36287300D01*
X36112700Y20188100D02*
X36287300D01*
X36112700Y20213500D02*
X36287300D01*
X36112700Y20238900D02*
X36287300D01*
X36112700Y20264300D02*
X36287300D01*
X36112700Y20289700D02*
X36287300D01*
X36118800Y20162700D02*
Y20312300D01*
X36144200Y20162700D02*
Y20312300D01*
X36169600Y20162700D02*
Y20312300D01*
X36195000Y20162700D02*
Y20312300D01*
X36220400Y20162700D02*
Y20312300D01*
X36245800Y20162700D02*
Y20312300D01*
X36271200Y20162700D02*
Y20312300D01*
X36287300Y20737300D02*
Y20587700D01*
X36112700*
Y20737300*
X36287300*
X36112700Y20587700D02*
X36287300D01*
X36112700Y20613100D02*
X36287300D01*
X36112700Y20638500D02*
X36287300D01*
X36112700Y20663900D02*
X36287300D01*
X36112700Y20689300D02*
X36287300D01*
X36112700Y20714700D02*
X36287300D01*
X36118800Y20587700D02*
Y20737300D01*
X36144200Y20587700D02*
Y20737300D01*
X36169600Y20587700D02*
Y20737300D01*
X36195000Y20587700D02*
Y20737300D01*
X36220400Y20587700D02*
Y20737300D01*
X36245800Y20587700D02*
Y20737300D01*
X36271200Y20587700D02*
Y20737300D01*
X26087300Y15962700D02*
Y16112300D01*
X25912700*
Y15962700*
X26087300*
X25912700D02*
X26087300D01*
X25912700Y15988100D02*
X26087300D01*
X25912700Y16013500D02*
X26087300D01*
X25912700Y16038900D02*
X26087300D01*
X25912700Y16064300D02*
X26087300D01*
X25912700Y16089700D02*
X26087300D01*
X25933400Y15962700D02*
Y16112300D01*
X25958800Y15962700D02*
Y16112300D01*
X25984200Y15962700D02*
Y16112300D01*
X26009600Y15962700D02*
Y16112300D01*
X26035000Y15962700D02*
Y16112300D01*
X26060400Y15962700D02*
Y16112300D01*
X26085800Y15962700D02*
Y16112300D01*
X26087300Y16537300D02*
Y16387700D01*
X25912700*
Y16537300*
X26087300*
X25912700Y16387700D02*
X26087300D01*
X25912700Y16413100D02*
X26087300D01*
X25912700Y16438500D02*
X26087300D01*
X25912700Y16463900D02*
X26087300D01*
X25912700Y16489300D02*
X26087300D01*
X25912700Y16514700D02*
X26087300D01*
X25933400Y16387700D02*
Y16537300D01*
X25958800Y16387700D02*
Y16537300D01*
X25984200Y16387700D02*
Y16537300D01*
X26009600Y16387700D02*
Y16537300D01*
X26035000Y16387700D02*
Y16537300D01*
X26060400Y16387700D02*
Y16537300D01*
X26085800Y16387700D02*
Y16537300D01*
X37987300Y15962700D02*
Y16112300D01*
X37812700*
Y15962700*
X37987300*
X37812700D02*
X37987300D01*
X37812700Y15988100D02*
X37987300D01*
X37812700Y16013500D02*
X37987300D01*
X37812700Y16038900D02*
X37987300D01*
X37812700Y16064300D02*
X37987300D01*
X37812700Y16089700D02*
X37987300D01*
X37820600Y15962700D02*
Y16112300D01*
X37846000Y15962700D02*
Y16112300D01*
X37871400Y15962700D02*
Y16112300D01*
X37896800Y15962700D02*
Y16112300D01*
X37922200Y15962700D02*
Y16112300D01*
X37947600Y15962700D02*
Y16112300D01*
X37973000Y15962700D02*
Y16112300D01*
X37987300Y16537300D02*
Y16387700D01*
X37812700*
Y16537300*
X37987300*
X37812700Y16387700D02*
X37987300D01*
X37812700Y16413100D02*
X37987300D01*
X37812700Y16438500D02*
X37987300D01*
X37812700Y16463900D02*
X37987300D01*
X37812700Y16489300D02*
X37987300D01*
X37812700Y16514700D02*
X37987300D01*
X37820600Y16387700D02*
Y16537300D01*
X37846000Y16387700D02*
Y16537300D01*
X37871400Y16387700D02*
Y16537300D01*
X37896800Y16387700D02*
Y16537300D01*
X37922200Y16387700D02*
Y16537300D01*
X37947600Y16387700D02*
Y16537300D01*
X37973000Y16387700D02*
Y16537300D01*
X37987300Y20162700D02*
Y20312300D01*
X37812700*
Y20162700*
X37987300*
X37812700D02*
X37987300D01*
X37812700Y20188100D02*
X37987300D01*
X37812700Y20213500D02*
X37987300D01*
X37812700Y20238900D02*
X37987300D01*
X37812700Y20264300D02*
X37987300D01*
X37812700Y20289700D02*
X37987300D01*
X37820600Y20162700D02*
Y20312300D01*
X37846000Y20162700D02*
Y20312300D01*
X37871400Y20162700D02*
Y20312300D01*
X37896800Y20162700D02*
Y20312300D01*
X37922200Y20162700D02*
Y20312300D01*
X37947600Y20162700D02*
Y20312300D01*
X37973000Y20162700D02*
Y20312300D01*
X37987300Y20737300D02*
Y20587700D01*
X37812700*
Y20737300*
X37987300*
X37812700Y20587700D02*
X37987300D01*
X37812700Y20613100D02*
X37987300D01*
X37812700Y20638500D02*
X37987300D01*
X37812700Y20663900D02*
X37987300D01*
X37812700Y20689300D02*
X37987300D01*
X37812700Y20714700D02*
X37987300D01*
X37820600Y20587700D02*
Y20737300D01*
X37846000Y20587700D02*
Y20737300D01*
X37871400Y20587700D02*
Y20737300D01*
X37896800Y20587700D02*
Y20737300D01*
X37922200Y20587700D02*
Y20737300D01*
X37947600Y20587700D02*
Y20737300D01*
X37973000Y20587700D02*
Y20737300D01*
X26087300Y20137700D02*
Y20287300D01*
X25912700*
Y20137700*
X26087300*
X25912700D02*
X26087300D01*
X25912700Y20163100D02*
X26087300D01*
X25912700Y20188500D02*
X26087300D01*
X25912700Y20213900D02*
X26087300D01*
X25912700Y20239300D02*
X26087300D01*
X25912700Y20264700D02*
X26087300D01*
X25933400Y20137700D02*
Y20287300D01*
X25958800Y20137700D02*
Y20287300D01*
X25984200Y20137700D02*
Y20287300D01*
X26009600Y20137700D02*
Y20287300D01*
X26035000Y20137700D02*
Y20287300D01*
X26060400Y20137700D02*
Y20287300D01*
X26085800Y20137700D02*
Y20287300D01*
X26087300Y20712300D02*
Y20562700D01*
X25912700*
Y20712300*
X26087300*
X25912700Y20562700D02*
X26087300D01*
X25912700Y20588100D02*
X26087300D01*
X25912700Y20613500D02*
X26087300D01*
X25912700Y20638900D02*
X26087300D01*
X25912700Y20664300D02*
X26087300D01*
X25912700Y20689700D02*
X26087300D01*
X25933400Y20562700D02*
Y20712300D01*
X25958800Y20562700D02*
Y20712300D01*
X25984200Y20562700D02*
Y20712300D01*
X26009600Y20562700D02*
Y20712300D01*
X26035000Y20562700D02*
Y20712300D01*
X26060400Y20562700D02*
Y20712300D01*
X26085800Y20562700D02*
Y20712300D01*
X27787300Y15962700D02*
Y16112300D01*
X27612700*
Y15962700*
X27787300*
X27612700D02*
X27787300D01*
X27612700Y15988100D02*
X27787300D01*
X27612700Y16013500D02*
X27787300D01*
X27612700Y16038900D02*
X27787300D01*
X27612700Y16064300D02*
X27787300D01*
X27612700Y16089700D02*
X27787300D01*
X27635200Y15962700D02*
Y16112300D01*
X27660600Y15962700D02*
Y16112300D01*
X27686000Y15962700D02*
Y16112300D01*
X27711400Y15962700D02*
Y16112300D01*
X27736800Y15962700D02*
Y16112300D01*
X27762200Y15962700D02*
Y16112300D01*
X27787300Y16537300D02*
Y16387700D01*
X27612700*
Y16537300*
X27787300*
X27612700Y16387700D02*
X27787300D01*
X27612700Y16413100D02*
X27787300D01*
X27612700Y16438500D02*
X27787300D01*
X27612700Y16463900D02*
X27787300D01*
X27612700Y16489300D02*
X27787300D01*
X27612700Y16514700D02*
X27787300D01*
X27635200Y16387700D02*
Y16537300D01*
X27660600Y16387700D02*
Y16537300D01*
X27686000Y16387700D02*
Y16537300D01*
X27711400Y16387700D02*
Y16537300D01*
X27736800Y16387700D02*
Y16537300D01*
X27762200Y16387700D02*
Y16537300D01*
X27787300Y20162700D02*
Y20312300D01*
X27612700*
Y20162700*
X27787300*
X27612700D02*
X27787300D01*
X27612700Y20188100D02*
X27787300D01*
X27612700Y20213500D02*
X27787300D01*
X27612700Y20238900D02*
X27787300D01*
X27612700Y20264300D02*
X27787300D01*
X27612700Y20289700D02*
X27787300D01*
X27635200Y20162700D02*
Y20312300D01*
X27660600Y20162700D02*
Y20312300D01*
X27686000Y20162700D02*
Y20312300D01*
X27711400Y20162700D02*
Y20312300D01*
X27736800Y20162700D02*
Y20312300D01*
X27762200Y20162700D02*
Y20312300D01*
X27787300Y20737300D02*
Y20587700D01*
X27612700*
Y20737300*
X27787300*
X27612700Y20587700D02*
X27787300D01*
X27612700Y20613100D02*
X27787300D01*
X27612700Y20638500D02*
X27787300D01*
X27612700Y20663900D02*
X27787300D01*
X27612700Y20689300D02*
X27787300D01*
X27612700Y20714700D02*
X27787300D01*
X27635200Y20587700D02*
Y20737300D01*
X27660600Y20587700D02*
Y20737300D01*
X27686000Y20587700D02*
Y20737300D01*
X27711400Y20587700D02*
Y20737300D01*
X27736800Y20587700D02*
Y20737300D01*
X27762200Y20587700D02*
Y20737300D01*
X26187300Y15012700D02*
Y15187300D01*
X26112700*
Y15012700*
X26187300*
X26112700D02*
X26187300D01*
X26112700Y15038100D02*
X26187300D01*
X26112700Y15063500D02*
X26187300D01*
X26112700Y15088900D02*
X26187300D01*
X26112700Y15114300D02*
X26187300D01*
X26112700Y15139700D02*
X26187300D01*
X26112700Y15165100D02*
X26187300D01*
X26136600Y15012700D02*
Y15187300D01*
X26162000Y15012700D02*
Y15187300D01*
X26187300Y15687300D02*
Y15512700D01*
X26112700*
Y15687300*
X26187300*
X26112700Y15512700D02*
X26187300D01*
X26112700Y15538100D02*
X26187300D01*
X26112700Y15563500D02*
X26187300D01*
X26112700Y15588900D02*
X26187300D01*
X26112700Y15614300D02*
X26187300D01*
X26112700Y15639700D02*
X26187300D01*
X26112700Y15665100D02*
X26187300D01*
X26136600Y15512700D02*
Y15687300D01*
X26162000Y15512700D02*
Y15687300D01*
X32987300Y19212700D02*
Y19387300D01*
X32912700*
Y19212700*
X32987300*
X32912700D02*
X32987300D01*
X32912700Y19238100D02*
X32987300D01*
X32912700Y19263500D02*
X32987300D01*
X32912700Y19288900D02*
X32987300D01*
X32912700Y19314300D02*
X32987300D01*
X32912700Y19339700D02*
X32987300D01*
X32912700Y19365100D02*
X32987300D01*
X32918400Y19212700D02*
Y19387300D01*
X32943800Y19212700D02*
Y19387300D01*
X32969200Y19212700D02*
Y19387300D01*
X32987300Y19887300D02*
Y19712700D01*
X32912700*
Y19887300*
X32987300*
X32912700Y19712700D02*
X32987300D01*
X32912700Y19738100D02*
X32987300D01*
X32912700Y19763500D02*
X32987300D01*
X32912700Y19788900D02*
X32987300D01*
X32912700Y19814300D02*
X32987300D01*
X32912700Y19839700D02*
X32987300D01*
X32912700Y19865100D02*
X32987300D01*
X32918400Y19712700D02*
Y19887300D01*
X32943800Y19712700D02*
Y19887300D01*
X32969200Y19712700D02*
Y19887300D01*
X34687300Y15012700D02*
Y15187300D01*
X34612700*
Y15012700*
X34687300*
X34612700D02*
X34687300D01*
X34612700Y15038100D02*
X34687300D01*
X34612700Y15063500D02*
X34687300D01*
X34612700Y15088900D02*
X34687300D01*
X34612700Y15114300D02*
X34687300D01*
X34612700Y15139700D02*
X34687300D01*
X34612700Y15165100D02*
X34687300D01*
X34620200Y15012700D02*
Y15187300D01*
X34645600Y15012700D02*
Y15187300D01*
X34671000Y15012700D02*
Y15187300D01*
X34687300Y15687300D02*
Y15512700D01*
X34612700*
Y15687300*
X34687300*
X34612700Y15512700D02*
X34687300D01*
X34612700Y15538100D02*
X34687300D01*
X34612700Y15563500D02*
X34687300D01*
X34612700Y15588900D02*
X34687300D01*
X34612700Y15614300D02*
X34687300D01*
X34612700Y15639700D02*
X34687300D01*
X34612700Y15665100D02*
X34687300D01*
X34620200Y15512700D02*
Y15687300D01*
X34645600Y15512700D02*
Y15687300D01*
X34671000Y15512700D02*
Y15687300D01*
X34687300Y19212700D02*
Y19387300D01*
X34612700*
Y19212700*
X34687300*
X34612700D02*
X34687300D01*
X34612700Y19238100D02*
X34687300D01*
X34612700Y19263500D02*
X34687300D01*
X34612700Y19288900D02*
X34687300D01*
X34612700Y19314300D02*
X34687300D01*
X34612700Y19339700D02*
X34687300D01*
X34612700Y19365100D02*
X34687300D01*
X34620200Y19212700D02*
Y19387300D01*
X34645600Y19212700D02*
Y19387300D01*
X34671000Y19212700D02*
Y19387300D01*
X34687300Y19887300D02*
Y19712700D01*
X34612700*
Y19887300*
X34687300*
X34612700Y19712700D02*
X34687300D01*
X34612700Y19738100D02*
X34687300D01*
X34612700Y19763500D02*
X34687300D01*
X34612700Y19788900D02*
X34687300D01*
X34612700Y19814300D02*
X34687300D01*
X34612700Y19839700D02*
X34687300D01*
X34612700Y19865100D02*
X34687300D01*
X34620200Y19712700D02*
Y19887300D01*
X34645600Y19712700D02*
Y19887300D01*
X34671000Y19712700D02*
Y19887300D01*
X36387300Y15012700D02*
Y15187300D01*
X36312700*
Y15012700*
X36387300*
X36312700D02*
X36387300D01*
X36312700Y15038100D02*
X36387300D01*
X36312700Y15063500D02*
X36387300D01*
X36312700Y15088900D02*
X36387300D01*
X36312700Y15114300D02*
X36387300D01*
X36312700Y15139700D02*
X36387300D01*
X36312700Y15165100D02*
X36387300D01*
X36322000Y15012700D02*
Y15187300D01*
X36347400Y15012700D02*
Y15187300D01*
X36372800Y15012700D02*
Y15187300D01*
X36387300Y15687300D02*
Y15512700D01*
X36312700*
Y15687300*
X36387300*
X36312700Y15512700D02*
X36387300D01*
X36312700Y15538100D02*
X36387300D01*
X36312700Y15563500D02*
X36387300D01*
X36312700Y15588900D02*
X36387300D01*
X36312700Y15614300D02*
X36387300D01*
X36312700Y15639700D02*
X36387300D01*
X36312700Y15665100D02*
X36387300D01*
X36322000Y15512700D02*
Y15687300D01*
X36347400Y15512700D02*
Y15687300D01*
X36372800Y15512700D02*
Y15687300D01*
X36387300Y19212700D02*
Y19387300D01*
X36312700*
Y19212700*
X36387300*
X36312700D02*
X36387300D01*
X36312700Y19238100D02*
X36387300D01*
X36312700Y19263500D02*
X36387300D01*
X36312700Y19288900D02*
X36387300D01*
X36312700Y19314300D02*
X36387300D01*
X36312700Y19339700D02*
X36387300D01*
X36312700Y19365100D02*
X36387300D01*
X36322000Y19212700D02*
Y19387300D01*
X36347400Y19212700D02*
Y19387300D01*
X36372800Y19212700D02*
Y19387300D01*
X36387300Y19887300D02*
Y19712700D01*
X36312700*
Y19887300*
X36387300*
X36312700Y19712700D02*
X36387300D01*
X36312700Y19738100D02*
X36387300D01*
X36312700Y19763500D02*
X36387300D01*
X36312700Y19788900D02*
X36387300D01*
X36312700Y19814300D02*
X36387300D01*
X36312700Y19839700D02*
X36387300D01*
X36312700Y19865100D02*
X36387300D01*
X36322000Y19712700D02*
Y19887300D01*
X36347400Y19712700D02*
Y19887300D01*
X36372800Y19712700D02*
Y19887300D01*
X38087300Y15012700D02*
Y15187300D01*
X38012700*
Y15012700*
X38087300*
X38012700D02*
X38087300D01*
X38012700Y15038100D02*
X38087300D01*
X38012700Y15063500D02*
X38087300D01*
X38012700Y15088900D02*
X38087300D01*
X38012700Y15114300D02*
X38087300D01*
X38012700Y15139700D02*
X38087300D01*
X38012700Y15165100D02*
X38087300D01*
X38023800Y15012700D02*
Y15187300D01*
X38049200Y15012700D02*
Y15187300D01*
X38074600Y15012700D02*
Y15187300D01*
X38087300Y15687300D02*
Y15512700D01*
X38012700*
Y15687300*
X38087300*
X38012700Y15512700D02*
X38087300D01*
X38012700Y15538100D02*
X38087300D01*
X38012700Y15563500D02*
X38087300D01*
X38012700Y15588900D02*
X38087300D01*
X38012700Y15614300D02*
X38087300D01*
X38012700Y15639700D02*
X38087300D01*
X38012700Y15665100D02*
X38087300D01*
X38023800Y15512700D02*
Y15687300D01*
X38049200Y15512700D02*
Y15687300D01*
X38074600Y15512700D02*
Y15687300D01*
X38087300Y19212700D02*
Y19387300D01*
X38012700*
Y19212700*
X38087300*
X38012700D02*
X38087300D01*
X38012700Y19238100D02*
X38087300D01*
X38012700Y19263500D02*
X38087300D01*
X38012700Y19288900D02*
X38087300D01*
X38012700Y19314300D02*
X38087300D01*
X38012700Y19339700D02*
X38087300D01*
X38012700Y19365100D02*
X38087300D01*
X38023800Y19212700D02*
Y19387300D01*
X38049200Y19212700D02*
Y19387300D01*
X38074600Y19212700D02*
Y19387300D01*
X38087300Y19887300D02*
Y19712700D01*
X38012700*
Y19887300*
X38087300*
X38012700Y19712700D02*
X38087300D01*
X38012700Y19738100D02*
X38087300D01*
X38012700Y19763500D02*
X38087300D01*
X38012700Y19788900D02*
X38087300D01*
X38012700Y19814300D02*
X38087300D01*
X38012700Y19839700D02*
X38087300D01*
X38012700Y19865100D02*
X38087300D01*
X38023800Y19712700D02*
Y19887300D01*
X38049200Y19712700D02*
Y19887300D01*
X38074600Y19712700D02*
Y19887300D01*
X28612700Y23812700D02*
Y23937300D01*
X28687300*
Y23812700*
X28612700*
X28687300*
X28612700Y23838100D02*
X28687300D01*
X28612700Y23863500D02*
X28687300D01*
X28612700Y23888900D02*
X28687300D01*
X28612700Y23914300D02*
X28687300D01*
X28625800Y23812700D02*
Y23937300D01*
X28651200Y23812700D02*
Y23937300D01*
X28676600Y23812700D02*
Y23937300D01*
X28612700Y24287300D02*
Y24162700D01*
X28687300*
Y24287300*
X28612700*
Y24162700D02*
X28687300D01*
X28612700Y24188100D02*
X28687300D01*
X28612700Y24213500D02*
X28687300D01*
X28612700Y24238900D02*
X28687300D01*
X28612700Y24264300D02*
X28687300D01*
X28625800Y24162700D02*
Y24287300D01*
X28651200Y24162700D02*
Y24287300D01*
X28676600Y24162700D02*
Y24287300D01*
X35012700Y23812700D02*
Y23937300D01*
X35087300*
Y23812700*
X35012700*
X35087300*
X35012700Y23838100D02*
X35087300D01*
X35012700Y23863500D02*
X35087300D01*
X35012700Y23888900D02*
X35087300D01*
X35012700Y23914300D02*
X35087300D01*
X35026600Y23812700D02*
Y23937300D01*
X35052000Y23812700D02*
Y23937300D01*
X35077400Y23812700D02*
Y23937300D01*
X35012700Y24287300D02*
Y24162700D01*
X35087300*
Y24287300*
X35012700*
Y24162700D02*
X35087300D01*
X35012700Y24188100D02*
X35087300D01*
X35012700Y24213500D02*
X35087300D01*
X35012700Y24238900D02*
X35087300D01*
X35012700Y24264300D02*
X35087300D01*
X35026600Y24162700D02*
Y24287300D01*
X35052000Y24162700D02*
Y24287300D01*
X35077400Y24162700D02*
Y24287300D01*
X26187300Y19212700D02*
Y19387300D01*
X26112700*
Y19212700*
X26187300*
X26112700D02*
X26187300D01*
X26112700Y19238100D02*
X26187300D01*
X26112700Y19263500D02*
X26187300D01*
X26112700Y19288900D02*
X26187300D01*
X26112700Y19314300D02*
X26187300D01*
X26112700Y19339700D02*
X26187300D01*
X26112700Y19365100D02*
X26187300D01*
X26136600Y19212700D02*
Y19387300D01*
X26162000Y19212700D02*
Y19387300D01*
X26187300Y19887300D02*
Y19712700D01*
X26112700*
Y19887300*
X26187300*
X26112700Y19712700D02*
X26187300D01*
X26112700Y19738100D02*
X26187300D01*
X26112700Y19763500D02*
X26187300D01*
X26112700Y19788900D02*
X26187300D01*
X26112700Y19814300D02*
X26187300D01*
X26112700Y19839700D02*
X26187300D01*
X26112700Y19865100D02*
X26187300D01*
X26136600Y19712700D02*
Y19887300D01*
X26162000Y19712700D02*
Y19887300D01*
X27887300Y15012700D02*
Y15187300D01*
X27812700*
Y15012700*
X27887300*
X27812700D02*
X27887300D01*
X27812700Y15038100D02*
X27887300D01*
X27812700Y15063500D02*
X27887300D01*
X27812700Y15088900D02*
X27887300D01*
X27812700Y15114300D02*
X27887300D01*
X27812700Y15139700D02*
X27887300D01*
X27812700Y15165100D02*
X27887300D01*
X27813000Y15012700D02*
Y15187300D01*
X27838400Y15012700D02*
Y15187300D01*
X27863800Y15012700D02*
Y15187300D01*
X27887300Y15687300D02*
Y15512700D01*
X27812700*
Y15687300*
X27887300*
X27812700Y15512700D02*
X27887300D01*
X27812700Y15538100D02*
X27887300D01*
X27812700Y15563500D02*
X27887300D01*
X27812700Y15588900D02*
X27887300D01*
X27812700Y15614300D02*
X27887300D01*
X27812700Y15639700D02*
X27887300D01*
X27812700Y15665100D02*
X27887300D01*
X27813000Y15512700D02*
Y15687300D01*
X27838400Y15512700D02*
Y15687300D01*
X27863800Y15512700D02*
Y15687300D01*
X27887300Y19212700D02*
Y19387300D01*
X27812700*
Y19212700*
X27887300*
X27812700D02*
X27887300D01*
X27812700Y19238100D02*
X27887300D01*
X27812700Y19263500D02*
X27887300D01*
X27812700Y19288900D02*
X27887300D01*
X27812700Y19314300D02*
X27887300D01*
X27812700Y19339700D02*
X27887300D01*
X27812700Y19365100D02*
X27887300D01*
X27813000Y19212700D02*
Y19387300D01*
X27838400Y19212700D02*
Y19387300D01*
X27863800Y19212700D02*
Y19387300D01*
X27887300Y19887300D02*
Y19712700D01*
X27812700*
Y19887300*
X27887300*
X27812700Y19712700D02*
X27887300D01*
X27812700Y19738100D02*
X27887300D01*
X27812700Y19763500D02*
X27887300D01*
X27812700Y19788900D02*
X27887300D01*
X27812700Y19814300D02*
X27887300D01*
X27812700Y19839700D02*
X27887300D01*
X27812700Y19865100D02*
X27887300D01*
X27813000Y19712700D02*
Y19887300D01*
X27838400Y19712700D02*
Y19887300D01*
X27863800Y19712700D02*
Y19887300D01*
X29587300Y15012700D02*
Y15187300D01*
X29512700*
Y15012700*
X29587300*
X29512700D02*
X29587300D01*
X29512700Y15038100D02*
X29587300D01*
X29512700Y15063500D02*
X29587300D01*
X29512700Y15088900D02*
X29587300D01*
X29512700Y15114300D02*
X29587300D01*
X29512700Y15139700D02*
X29587300D01*
X29512700Y15165100D02*
X29587300D01*
X29514800Y15012700D02*
Y15187300D01*
X29540200Y15012700D02*
Y15187300D01*
X29565600Y15012700D02*
Y15187300D01*
X29587300Y15687300D02*
Y15512700D01*
X29512700*
Y15687300*
X29587300*
X29512700Y15512700D02*
X29587300D01*
X29512700Y15538100D02*
X29587300D01*
X29512700Y15563500D02*
X29587300D01*
X29512700Y15588900D02*
X29587300D01*
X29512700Y15614300D02*
X29587300D01*
X29512700Y15639700D02*
X29587300D01*
X29512700Y15665100D02*
X29587300D01*
X29514800Y15512700D02*
Y15687300D01*
X29540200Y15512700D02*
Y15687300D01*
X29565600Y15512700D02*
Y15687300D01*
X29587300Y19212700D02*
Y19387300D01*
X29512700*
Y19212700*
X29587300*
X29512700D02*
X29587300D01*
X29512700Y19238100D02*
X29587300D01*
X29512700Y19263500D02*
X29587300D01*
X29512700Y19288900D02*
X29587300D01*
X29512700Y19314300D02*
X29587300D01*
X29512700Y19339700D02*
X29587300D01*
X29512700Y19365100D02*
X29587300D01*
X29514800Y19212700D02*
Y19387300D01*
X29540200Y19212700D02*
Y19387300D01*
X29565600Y19212700D02*
Y19387300D01*
X29587300Y19887300D02*
Y19712700D01*
X29512700*
Y19887300*
X29587300*
X29512700Y19712700D02*
X29587300D01*
X29512700Y19738100D02*
X29587300D01*
X29512700Y19763500D02*
X29587300D01*
X29512700Y19788900D02*
X29587300D01*
X29512700Y19814300D02*
X29587300D01*
X29512700Y19839700D02*
X29587300D01*
X29512700Y19865100D02*
X29587300D01*
X29514800Y19712700D02*
Y19887300D01*
X29540200Y19712700D02*
Y19887300D01*
X29565600Y19712700D02*
Y19887300D01*
X31287300Y15012700D02*
Y15187300D01*
X31212700*
Y15012700*
X31287300*
X31212700D02*
X31287300D01*
X31212700Y15038100D02*
X31287300D01*
X31212700Y15063500D02*
X31287300D01*
X31212700Y15088900D02*
X31287300D01*
X31212700Y15114300D02*
X31287300D01*
X31212700Y15139700D02*
X31287300D01*
X31212700Y15165100D02*
X31287300D01*
X31216600Y15012700D02*
Y15187300D01*
X31242000Y15012700D02*
Y15187300D01*
X31267400Y15012700D02*
Y15187300D01*
X31287300Y15687300D02*
Y15512700D01*
X31212700*
Y15687300*
X31287300*
X31212700Y15512700D02*
X31287300D01*
X31212700Y15538100D02*
X31287300D01*
X31212700Y15563500D02*
X31287300D01*
X31212700Y15588900D02*
X31287300D01*
X31212700Y15614300D02*
X31287300D01*
X31212700Y15639700D02*
X31287300D01*
X31212700Y15665100D02*
X31287300D01*
X31216600Y15512700D02*
Y15687300D01*
X31242000Y15512700D02*
Y15687300D01*
X31267400Y15512700D02*
Y15687300D01*
X31287300Y19212700D02*
Y19387300D01*
X31212700*
Y19212700*
X31287300*
X31212700D02*
X31287300D01*
X31212700Y19238100D02*
X31287300D01*
X31212700Y19263500D02*
X31287300D01*
X31212700Y19288900D02*
X31287300D01*
X31212700Y19314300D02*
X31287300D01*
X31212700Y19339700D02*
X31287300D01*
X31212700Y19365100D02*
X31287300D01*
X31216600Y19212700D02*
Y19387300D01*
X31242000Y19212700D02*
Y19387300D01*
X31267400Y19212700D02*
Y19387300D01*
X31287300Y19887300D02*
Y19712700D01*
X31212700*
Y19887300*
X31287300*
X31212700Y19712700D02*
X31287300D01*
X31212700Y19738100D02*
X31287300D01*
X31212700Y19763500D02*
X31287300D01*
X31212700Y19788900D02*
X31287300D01*
X31212700Y19814300D02*
X31287300D01*
X31212700Y19839700D02*
X31287300D01*
X31212700Y19865100D02*
X31287300D01*
X31216600Y19712700D02*
Y19887300D01*
X31242000Y19712700D02*
Y19887300D01*
X31267400Y19712700D02*
Y19887300D01*
X32987300Y15012700D02*
Y15187300D01*
X32912700*
Y15012700*
X32987300*
X32912700D02*
X32987300D01*
X32912700Y15038100D02*
X32987300D01*
X32912700Y15063500D02*
X32987300D01*
X32912700Y15088900D02*
X32987300D01*
X32912700Y15114300D02*
X32987300D01*
X32912700Y15139700D02*
X32987300D01*
X32912700Y15165100D02*
X32987300D01*
X32918400Y15012700D02*
Y15187300D01*
X32943800Y15012700D02*
Y15187300D01*
X32969200Y15012700D02*
Y15187300D01*
X32987300Y15687300D02*
Y15512700D01*
X32912700*
Y15687300*
X32987300*
X32912700Y15512700D02*
X32987300D01*
X32912700Y15538100D02*
X32987300D01*
X32912700Y15563500D02*
X32987300D01*
X32912700Y15588900D02*
X32987300D01*
X32912700Y15614300D02*
X32987300D01*
X32912700Y15639700D02*
X32987300D01*
X32912700Y15665100D02*
X32987300D01*
X32918400Y15512700D02*
Y15687300D01*
X32943800Y15512700D02*
Y15687300D01*
X32969200Y15512700D02*
Y15687300D01*
X26791250Y17137350D02*
X27108750D01*
Y16896050*
X27254800*
Y16603950*
X26645200*
Y16896050*
X26791250*
Y17137350*
X26645200Y16603950D02*
X27254800D01*
X26645200Y16629350D02*
X27254800D01*
X26645200Y16654750D02*
X27254800D01*
X26645200Y16680150D02*
X27254800D01*
X26645200Y16705550D02*
X27254800D01*
X26645200Y16730950D02*
X27254800D01*
X26645200Y16756350D02*
X27254800D01*
X26645200Y16781750D02*
X27254800D01*
X26645200Y16807150D02*
X27254800D01*
X26645200Y16832550D02*
X27254800D01*
X26645200Y16857950D02*
X27254800D01*
X26645200Y16883350D02*
X27254800D01*
X26791250Y16908750D02*
X27108750D01*
X26791250Y16934150D02*
X27108750D01*
X26791250Y16959550D02*
X27108750D01*
X26791250Y16984950D02*
X27108750D01*
X26791250Y17010350D02*
X27108750D01*
X26791250Y17035750D02*
X27108750D01*
X26791250Y17061150D02*
X27108750D01*
X26791250Y17086550D02*
X27108750D01*
X26791250Y17111950D02*
X27108750D01*
X26791250Y17137350D02*
X27108750D01*
X26670000Y16603950D02*
Y16896050D01*
X26695400Y16603950D02*
Y16896050D01*
X26720800Y16603950D02*
Y16896050D01*
X26746200Y16603950D02*
Y16896050D01*
X26771600Y16603950D02*
Y16896050D01*
X26797000Y16603950D02*
Y17137350D01*
X26822400Y16603950D02*
Y17137350D01*
X26847800Y16603950D02*
Y17137350D01*
X26873200Y16603950D02*
Y17137350D01*
X26898600Y16603950D02*
Y17137350D01*
X26924000Y16603950D02*
Y17137350D01*
X26949400Y16603950D02*
Y17137350D01*
X26974800Y16603950D02*
Y17137350D01*
X27000200Y16603950D02*
Y17137350D01*
X27025600Y16603950D02*
Y17137350D01*
X27051000Y16603950D02*
Y17137350D01*
X27076400Y16603950D02*
Y17137350D01*
X27101800Y16603950D02*
Y17137350D01*
X27127200Y16603950D02*
Y16896050D01*
X27152600Y16603950D02*
Y16896050D01*
X27178000Y16603950D02*
Y16896050D01*
X27203400Y16603950D02*
Y16896050D01*
X27228800Y16603950D02*
Y16896050D01*
X27254200Y16603950D02*
Y16896050D01*
X27134150Y16508700D02*
X27223050D01*
Y16362650*
X27134150*
Y16508700*
Y16362650D02*
X27223050D01*
X27134150Y16388050D02*
X27223050D01*
X27134150Y16413450D02*
X27223050D01*
X27134150Y16438850D02*
X27223050D01*
X27134150Y16464250D02*
X27223050D01*
X27134150Y16489650D02*
X27223050D01*
X27152600Y16362650D02*
Y16508700D01*
X27178000Y16362650D02*
Y16508700D01*
X27203400Y16362650D02*
Y16508700D01*
X26905550D02*
X26994450D01*
Y16362650*
X26905550*
Y16508700*
Y16362650D02*
X26994450D01*
X26905550Y16388050D02*
X26994450D01*
X26905550Y16413450D02*
X26994450D01*
X26905550Y16438850D02*
X26994450D01*
X26905550Y16464250D02*
X26994450D01*
X26905550Y16489650D02*
X26994450D01*
X26924000Y16362650D02*
Y16508700D01*
X26949400Y16362650D02*
Y16508700D01*
X26974800Y16362650D02*
Y16508700D01*
X26676950D02*
X26765850D01*
Y16362650*
X26676950*
Y16508700*
Y16362650D02*
X26765850D01*
X26676950Y16388050D02*
X26765850D01*
X26676950Y16413450D02*
X26765850D01*
X26676950Y16438850D02*
X26765850D01*
X26676950Y16464250D02*
X26765850D01*
X26676950Y16489650D02*
X26765850D01*
X26695400Y16362650D02*
Y16508700D01*
X26720800Y16362650D02*
Y16508700D01*
X26746200Y16362650D02*
Y16508700D01*
X30191250Y21337350D02*
X30508750D01*
Y21096050*
X30654800*
Y20803950*
X30045200*
Y21096050*
X30191250*
Y21337350*
X30045200Y20803950D02*
X30654800D01*
X30045200Y20829350D02*
X30654800D01*
X30045200Y20854750D02*
X30654800D01*
X30045200Y20880150D02*
X30654800D01*
X30045200Y20905550D02*
X30654800D01*
X30045200Y20930950D02*
X30654800D01*
X30045200Y20956350D02*
X30654800D01*
X30045200Y20981750D02*
X30654800D01*
X30045200Y21007150D02*
X30654800D01*
X30045200Y21032550D02*
X30654800D01*
X30045200Y21057950D02*
X30654800D01*
X30045200Y21083350D02*
X30654800D01*
X30191250Y21108750D02*
X30508750D01*
X30191250Y21134150D02*
X30508750D01*
X30191250Y21159550D02*
X30508750D01*
X30191250Y21184950D02*
X30508750D01*
X30191250Y21210350D02*
X30508750D01*
X30191250Y21235750D02*
X30508750D01*
X30191250Y21261150D02*
X30508750D01*
X30191250Y21286550D02*
X30508750D01*
X30191250Y21311950D02*
X30508750D01*
X30191250Y21337350D02*
X30508750D01*
X30048200Y20803950D02*
Y21096050D01*
X30073600Y20803950D02*
Y21096050D01*
X30099000Y20803950D02*
Y21096050D01*
X30124400Y20803950D02*
Y21096050D01*
X30149800Y20803950D02*
Y21096050D01*
X30175200Y20803950D02*
Y21096050D01*
X30200600Y20803950D02*
Y21337350D01*
X30226000Y20803950D02*
Y21337350D01*
X30251400Y20803950D02*
Y21337350D01*
X30276800Y20803950D02*
Y21337350D01*
X30302200Y20803950D02*
Y21337350D01*
X30327600Y20803950D02*
Y21337350D01*
X30353000Y20803950D02*
Y21337350D01*
X30378400Y20803950D02*
Y21337350D01*
X30403800Y20803950D02*
Y21337350D01*
X30429200Y20803950D02*
Y21337350D01*
X30454600Y20803950D02*
Y21337350D01*
X30480000Y20803950D02*
Y21337350D01*
X30505400Y20803950D02*
Y21337350D01*
X30530800Y20803950D02*
Y21096050D01*
X30556200Y20803950D02*
Y21096050D01*
X30581600Y20803950D02*
Y21096050D01*
X30607000Y20803950D02*
Y21096050D01*
X30632400Y20803950D02*
Y21096050D01*
X30534150Y20708700D02*
X30623050D01*
Y20562650*
X30534150*
Y20708700*
Y20562650D02*
X30623050D01*
X30534150Y20588050D02*
X30623050D01*
X30534150Y20613450D02*
X30623050D01*
X30534150Y20638850D02*
X30623050D01*
X30534150Y20664250D02*
X30623050D01*
X30534150Y20689650D02*
X30623050D01*
X30556200Y20562650D02*
Y20708700D01*
X30581600Y20562650D02*
Y20708700D01*
X30607000Y20562650D02*
Y20708700D01*
X30305550D02*
X30394450D01*
Y20562650*
X30305550*
Y20708700*
Y20562650D02*
X30394450D01*
X30305550Y20588050D02*
X30394450D01*
X30305550Y20613450D02*
X30394450D01*
X30305550Y20638850D02*
X30394450D01*
X30305550Y20664250D02*
X30394450D01*
X30305550Y20689650D02*
X30394450D01*
X30327600Y20562650D02*
Y20708700D01*
X30353000Y20562650D02*
Y20708700D01*
X30378400Y20562650D02*
Y20708700D01*
X30076950D02*
X30165850D01*
Y20562650*
X30076950*
Y20708700*
Y20562650D02*
X30165850D01*
X30076950Y20588050D02*
X30165850D01*
X30076950Y20613450D02*
X30165850D01*
X30076950Y20638850D02*
X30165850D01*
X30076950Y20664250D02*
X30165850D01*
X30076950Y20689650D02*
X30165850D01*
X30099000Y20562650D02*
Y20708700D01*
X30124400Y20562650D02*
Y20708700D01*
X30149800Y20562650D02*
Y20708700D01*
X30512700Y17912300D02*
X30587300D01*
Y17825200*
X30512700*
Y17912300*
Y17825200D02*
X30587300D01*
X30512700Y17850600D02*
X30587300D01*
X30512700Y17876000D02*
X30587300D01*
X30512700Y17901400D02*
X30587300D01*
X30530800Y17825200D02*
Y17912300D01*
X30556200Y17825200D02*
Y17912300D01*
X30581600Y17825200D02*
Y17912300D01*
X30423000Y17686500D02*
X30499200D01*
Y17623000*
X30423000*
Y17686500*
Y17623000D02*
X30499200D01*
X30423000Y17648400D02*
X30499200D01*
X30423000Y17673800D02*
X30499200D01*
X30429200Y17623000D02*
Y17686500D01*
X30454600Y17623000D02*
Y17686500D01*
X30480000Y17623000D02*
Y17686500D01*
X30600800D02*
X30677000D01*
Y17623000*
X30600800*
Y17686500*
Y17623000D02*
X30677000D01*
X30600800Y17648400D02*
X30677000D01*
X30600800Y17673800D02*
X30677000D01*
X30607000Y17623000D02*
Y17686500D01*
X30632400Y17623000D02*
Y17686500D01*
X30657800Y17623000D02*
Y17686500D01*
X30512700Y22112300D02*
X30587300D01*
Y22025200*
X30512700*
Y22112300*
Y22025200D02*
X30587300D01*
X30512700Y22050600D02*
X30587300D01*
X30512700Y22076000D02*
X30587300D01*
X30512700Y22101400D02*
X30587300D01*
X30530800Y22025200D02*
Y22112300D01*
X30556200Y22025200D02*
Y22112300D01*
X30581600Y22025200D02*
Y22112300D01*
X30423000Y21886500D02*
X30499200D01*
Y21823000*
X30423000*
Y21886500*
Y21823000D02*
X30499200D01*
X30423000Y21848400D02*
X30499200D01*
X30423000Y21873800D02*
X30499200D01*
X30429200Y21823000D02*
Y21886500D01*
X30454600Y21823000D02*
Y21886500D01*
X30480000Y21823000D02*
Y21886500D01*
X30600800D02*
X30677000D01*
Y21823000*
X30600800*
Y21886500*
Y21823000D02*
X30677000D01*
X30600800Y21848400D02*
X30677000D01*
X30600800Y21873800D02*
X30677000D01*
X30607000Y21823000D02*
Y21886500D01*
X30632400Y21823000D02*
Y21886500D01*
X30657800Y21823000D02*
Y21886500D01*
X31891250Y17137350D02*
X32208750D01*
Y16896050*
X32354800*
Y16603950*
X31745200*
Y16896050*
X31891250*
Y17137350*
X31745200Y16603950D02*
X32354800D01*
X31745200Y16629350D02*
X32354800D01*
X31745200Y16654750D02*
X32354800D01*
X31745200Y16680150D02*
X32354800D01*
X31745200Y16705550D02*
X32354800D01*
X31745200Y16730950D02*
X32354800D01*
X31745200Y16756350D02*
X32354800D01*
X31745200Y16781750D02*
X32354800D01*
X31745200Y16807150D02*
X32354800D01*
X31745200Y16832550D02*
X32354800D01*
X31745200Y16857950D02*
X32354800D01*
X31745200Y16883350D02*
X32354800D01*
X31891250Y16908750D02*
X32208750D01*
X31891250Y16934150D02*
X32208750D01*
X31891250Y16959550D02*
X32208750D01*
X31891250Y16984950D02*
X32208750D01*
X31891250Y17010350D02*
X32208750D01*
X31891250Y17035750D02*
X32208750D01*
X31891250Y17061150D02*
X32208750D01*
X31891250Y17086550D02*
X32208750D01*
X31891250Y17111950D02*
X32208750D01*
X31891250Y17137350D02*
X32208750D01*
X31750000Y16603950D02*
Y16896050D01*
X31775400Y16603950D02*
Y16896050D01*
X31800800Y16603950D02*
Y16896050D01*
X31826200Y16603950D02*
Y16896050D01*
X31851600Y16603950D02*
Y16896050D01*
X31877000Y16603950D02*
Y16896050D01*
X31902400Y16603950D02*
Y17137350D01*
X31927800Y16603950D02*
Y17137350D01*
X31953200Y16603950D02*
Y17137350D01*
X31978600Y16603950D02*
Y17137350D01*
X32004000Y16603950D02*
Y17137350D01*
X32029400Y16603950D02*
Y17137350D01*
X32054800Y16603950D02*
Y17137350D01*
X32080200Y16603950D02*
Y17137350D01*
X32105600Y16603950D02*
Y17137350D01*
X32131000Y16603950D02*
Y17137350D01*
X32156400Y16603950D02*
Y17137350D01*
X32181800Y16603950D02*
Y17137350D01*
X32207200Y16603950D02*
Y17137350D01*
X32232600Y16603950D02*
Y16896050D01*
X32258000Y16603950D02*
Y16896050D01*
X32283400Y16603950D02*
Y16896050D01*
X32308800Y16603950D02*
Y16896050D01*
X32334200Y16603950D02*
Y16896050D01*
X32234150Y16508700D02*
X32323050D01*
Y16362650*
X32234150*
Y16508700*
Y16362650D02*
X32323050D01*
X32234150Y16388050D02*
X32323050D01*
X32234150Y16413450D02*
X32323050D01*
X32234150Y16438850D02*
X32323050D01*
X32234150Y16464250D02*
X32323050D01*
X32234150Y16489650D02*
X32323050D01*
X32258000Y16362650D02*
Y16508700D01*
X32283400Y16362650D02*
Y16508700D01*
X32308800Y16362650D02*
Y16508700D01*
X32005550D02*
X32094450D01*
Y16362650*
X32005550*
Y16508700*
Y16362650D02*
X32094450D01*
X32005550Y16388050D02*
X32094450D01*
X32005550Y16413450D02*
X32094450D01*
X32005550Y16438850D02*
X32094450D01*
X32005550Y16464250D02*
X32094450D01*
X32005550Y16489650D02*
X32094450D01*
X32029400Y16362650D02*
Y16508700D01*
X32054800Y16362650D02*
Y16508700D01*
X32080200Y16362650D02*
Y16508700D01*
X31776950D02*
X31865850D01*
Y16362650*
X31776950*
Y16508700*
Y16362650D02*
X31865850D01*
X31776950Y16388050D02*
X31865850D01*
X31776950Y16413450D02*
X31865850D01*
X31776950Y16438850D02*
X31865850D01*
X31776950Y16464250D02*
X31865850D01*
X31776950Y16489650D02*
X31865850D01*
X31800800Y16362650D02*
Y16508700D01*
X31826200Y16362650D02*
Y16508700D01*
X31851600Y16362650D02*
Y16508700D01*
X31891250Y21337350D02*
X32208750D01*
Y21096050*
X32354800*
Y20803950*
X31745200*
Y21096050*
X31891250*
Y21337350*
X31745200Y20803950D02*
X32354800D01*
X31745200Y20829350D02*
X32354800D01*
X31745200Y20854750D02*
X32354800D01*
X31745200Y20880150D02*
X32354800D01*
X31745200Y20905550D02*
X32354800D01*
X31745200Y20930950D02*
X32354800D01*
X31745200Y20956350D02*
X32354800D01*
X31745200Y20981750D02*
X32354800D01*
X31745200Y21007150D02*
X32354800D01*
X31745200Y21032550D02*
X32354800D01*
X31745200Y21057950D02*
X32354800D01*
X31745200Y21083350D02*
X32354800D01*
X31891250Y21108750D02*
X32208750D01*
X31891250Y21134150D02*
X32208750D01*
X31891250Y21159550D02*
X32208750D01*
X31891250Y21184950D02*
X32208750D01*
X31891250Y21210350D02*
X32208750D01*
X31891250Y21235750D02*
X32208750D01*
X31891250Y21261150D02*
X32208750D01*
X31891250Y21286550D02*
X32208750D01*
X31891250Y21311950D02*
X32208750D01*
X31891250Y21337350D02*
X32208750D01*
X31750000Y20803950D02*
Y21096050D01*
X31775400Y20803950D02*
Y21096050D01*
X31800800Y20803950D02*
Y21096050D01*
X31826200Y20803950D02*
Y21096050D01*
X31851600Y20803950D02*
Y21096050D01*
X31877000Y20803950D02*
Y21096050D01*
X31902400Y20803950D02*
Y21337350D01*
X31927800Y20803950D02*
Y21337350D01*
X31953200Y20803950D02*
Y21337350D01*
X31978600Y20803950D02*
Y21337350D01*
X32004000Y20803950D02*
Y21337350D01*
X32029400Y20803950D02*
Y21337350D01*
X32054800Y20803950D02*
Y21337350D01*
X32080200Y20803950D02*
Y21337350D01*
X32105600Y20803950D02*
Y21337350D01*
X32131000Y20803950D02*
Y21337350D01*
X32156400Y20803950D02*
Y21337350D01*
X32181800Y20803950D02*
Y21337350D01*
X32207200Y20803950D02*
Y21337350D01*
X32232600Y20803950D02*
Y21096050D01*
X32258000Y20803950D02*
Y21096050D01*
X32283400Y20803950D02*
Y21096050D01*
X32308800Y20803950D02*
Y21096050D01*
X32334200Y20803950D02*
Y21096050D01*
X32234150Y20708700D02*
X32323050D01*
Y20562650*
X32234150*
Y20708700*
Y20562650D02*
X32323050D01*
X32234150Y20588050D02*
X32323050D01*
X32234150Y20613450D02*
X32323050D01*
X32234150Y20638850D02*
X32323050D01*
X32234150Y20664250D02*
X32323050D01*
X32234150Y20689650D02*
X32323050D01*
X32258000Y20562650D02*
Y20708700D01*
X32283400Y20562650D02*
Y20708700D01*
X32308800Y20562650D02*
Y20708700D01*
X32005550D02*
X32094450D01*
Y20562650*
X32005550*
Y20708700*
Y20562650D02*
X32094450D01*
X32005550Y20588050D02*
X32094450D01*
X32005550Y20613450D02*
X32094450D01*
X32005550Y20638850D02*
X32094450D01*
X32005550Y20664250D02*
X32094450D01*
X32005550Y20689650D02*
X32094450D01*
X32029400Y20562650D02*
Y20708700D01*
X32054800Y20562650D02*
Y20708700D01*
X32080200Y20562650D02*
Y20708700D01*
X31776950D02*
X31865850D01*
Y20562650*
X31776950*
Y20708700*
Y20562650D02*
X31865850D01*
X31776950Y20588050D02*
X31865850D01*
X31776950Y20613450D02*
X31865850D01*
X31776950Y20638850D02*
X31865850D01*
X31776950Y20664250D02*
X31865850D01*
X31776950Y20689650D02*
X31865850D01*
X31800800Y20562650D02*
Y20708700D01*
X31826200Y20562650D02*
Y20708700D01*
X31851600Y20562650D02*
Y20708700D01*
X32212700Y17912300D02*
X32287300D01*
Y17825200*
X32212700*
Y17912300*
Y17825200D02*
X32287300D01*
X32212700Y17850600D02*
X32287300D01*
X32212700Y17876000D02*
X32287300D01*
X32212700Y17901400D02*
X32287300D01*
X32232600Y17825200D02*
Y17912300D01*
X32258000Y17825200D02*
Y17912300D01*
X32283400Y17825200D02*
Y17912300D01*
X32123000Y17686500D02*
X32199200D01*
Y17623000*
X32123000*
Y17686500*
Y17623000D02*
X32199200D01*
X32123000Y17648400D02*
X32199200D01*
X32123000Y17673800D02*
X32199200D01*
X32131000Y17623000D02*
Y17686500D01*
X32156400Y17623000D02*
Y17686500D01*
X32181800Y17623000D02*
Y17686500D01*
X32300800D02*
X32377000D01*
Y17623000*
X32300800*
Y17686500*
Y17623000D02*
X32377000D01*
X32300800Y17648400D02*
X32377000D01*
X32300800Y17673800D02*
X32377000D01*
X32308800Y17623000D02*
Y17686500D01*
X32334200Y17623000D02*
Y17686500D01*
X32359600Y17623000D02*
Y17686500D01*
X32212700Y22112300D02*
X32287300D01*
Y22025200*
X32212700*
Y22112300*
Y22025200D02*
X32287300D01*
X32212700Y22050600D02*
X32287300D01*
X32212700Y22076000D02*
X32287300D01*
X32212700Y22101400D02*
X32287300D01*
X32232600Y22025200D02*
Y22112300D01*
X32258000Y22025200D02*
Y22112300D01*
X32283400Y22025200D02*
Y22112300D01*
X32123000Y21886500D02*
X32199200D01*
Y21823000*
X32123000*
Y21886500*
Y21823000D02*
X32199200D01*
X32123000Y21848400D02*
X32199200D01*
X32123000Y21873800D02*
X32199200D01*
X32131000Y21823000D02*
Y21886500D01*
X32156400Y21823000D02*
Y21886500D01*
X32181800Y21823000D02*
Y21886500D01*
X32300800D02*
X32377000D01*
Y21823000*
X32300800*
Y21886500*
Y21823000D02*
X32377000D01*
X32300800Y21848400D02*
X32377000D01*
X32300800Y21873800D02*
X32377000D01*
X32308800Y21823000D02*
Y21886500D01*
X32334200Y21823000D02*
Y21886500D01*
X32359600Y21823000D02*
Y21886500D01*
X33591250Y17137350D02*
X33908750D01*
Y16896050*
X34054800*
Y16603950*
X33445200*
Y16896050*
X33591250*
Y17137350*
X33445200Y16603950D02*
X34054800D01*
X33445200Y16629350D02*
X34054800D01*
X33445200Y16654750D02*
X34054800D01*
X33445200Y16680150D02*
X34054800D01*
X33445200Y16705550D02*
X34054800D01*
X33445200Y16730950D02*
X34054800D01*
X33445200Y16756350D02*
X34054800D01*
X33445200Y16781750D02*
X34054800D01*
X33445200Y16807150D02*
X34054800D01*
X33445200Y16832550D02*
X34054800D01*
X33445200Y16857950D02*
X34054800D01*
X33445200Y16883350D02*
X34054800D01*
X33591250Y16908750D02*
X33908750D01*
X33591250Y16934150D02*
X33908750D01*
X33591250Y16959550D02*
X33908750D01*
X33591250Y16984950D02*
X33908750D01*
X33591250Y17010350D02*
X33908750D01*
X33591250Y17035750D02*
X33908750D01*
X33591250Y17061150D02*
X33908750D01*
X33591250Y17086550D02*
X33908750D01*
X33591250Y17111950D02*
X33908750D01*
X33591250Y17137350D02*
X33908750D01*
X33451800Y16603950D02*
Y16896050D01*
X33477200Y16603950D02*
Y16896050D01*
X33502600Y16603950D02*
Y16896050D01*
X33528000Y16603950D02*
Y16896050D01*
X33553400Y16603950D02*
Y16896050D01*
X33578800Y16603950D02*
Y16896050D01*
X33604200Y16603950D02*
Y17137350D01*
X33629600Y16603950D02*
Y17137350D01*
X33655000Y16603950D02*
Y17137350D01*
X33680400Y16603950D02*
Y17137350D01*
X33705800Y16603950D02*
Y17137350D01*
X33731200Y16603950D02*
Y17137350D01*
X33756600Y16603950D02*
Y17137350D01*
X33782000Y16603950D02*
Y17137350D01*
X33807400Y16603950D02*
Y17137350D01*
X33832800Y16603950D02*
Y17137350D01*
X33858200Y16603950D02*
Y17137350D01*
X33883600Y16603950D02*
Y17137350D01*
X33909000Y16603950D02*
Y16896050D01*
X33934400Y16603950D02*
Y16896050D01*
X33959800Y16603950D02*
Y16896050D01*
X33985200Y16603950D02*
Y16896050D01*
X34010600Y16603950D02*
Y16896050D01*
X34036000Y16603950D02*
Y16896050D01*
X33934150Y16508700D02*
X34023050D01*
Y16362650*
X33934150*
Y16508700*
Y16362650D02*
X34023050D01*
X33934150Y16388050D02*
X34023050D01*
X33934150Y16413450D02*
X34023050D01*
X33934150Y16438850D02*
X34023050D01*
X33934150Y16464250D02*
X34023050D01*
X33934150Y16489650D02*
X34023050D01*
X33934400Y16362650D02*
Y16508700D01*
X33959800Y16362650D02*
Y16508700D01*
X33985200Y16362650D02*
Y16508700D01*
X34010600Y16362650D02*
Y16508700D01*
X33705550D02*
X33794450D01*
Y16362650*
X33705550*
Y16508700*
Y16362650D02*
X33794450D01*
X33705550Y16388050D02*
X33794450D01*
X33705550Y16413450D02*
X33794450D01*
X33705550Y16438850D02*
X33794450D01*
X33705550Y16464250D02*
X33794450D01*
X33705550Y16489650D02*
X33794450D01*
X33705800Y16362650D02*
Y16508700D01*
X33731200Y16362650D02*
Y16508700D01*
X33756600Y16362650D02*
Y16508700D01*
X33782000Y16362650D02*
Y16508700D01*
X33476950D02*
X33565850D01*
Y16362650*
X33476950*
Y16508700*
Y16362650D02*
X33565850D01*
X33476950Y16388050D02*
X33565850D01*
X33476950Y16413450D02*
X33565850D01*
X33476950Y16438850D02*
X33565850D01*
X33476950Y16464250D02*
X33565850D01*
X33476950Y16489650D02*
X33565850D01*
X33477200Y16362650D02*
Y16508700D01*
X33502600Y16362650D02*
Y16508700D01*
X33528000Y16362650D02*
Y16508700D01*
X33553400Y16362650D02*
Y16508700D01*
X33591250Y21337350D02*
X33908750D01*
Y21096050*
X34054800*
Y20803950*
X33445200*
Y21096050*
X33591250*
Y21337350*
X33445200Y20803950D02*
X34054800D01*
X33445200Y20829350D02*
X34054800D01*
X33445200Y20854750D02*
X34054800D01*
X33445200Y20880150D02*
X34054800D01*
X33445200Y20905550D02*
X34054800D01*
X33445200Y20930950D02*
X34054800D01*
X33445200Y20956350D02*
X34054800D01*
X33445200Y20981750D02*
X34054800D01*
X33445200Y21007150D02*
X34054800D01*
X33445200Y21032550D02*
X34054800D01*
X33445200Y21057950D02*
X34054800D01*
X33445200Y21083350D02*
X34054800D01*
X33591250Y21108750D02*
X33908750D01*
X33591250Y21134150D02*
X33908750D01*
X33591250Y21159550D02*
X33908750D01*
X33591250Y21184950D02*
X33908750D01*
X33591250Y21210350D02*
X33908750D01*
X33591250Y21235750D02*
X33908750D01*
X33591250Y21261150D02*
X33908750D01*
X33591250Y21286550D02*
X33908750D01*
X33591250Y21311950D02*
X33908750D01*
X33591250Y21337350D02*
X33908750D01*
X33451800Y20803950D02*
Y21096050D01*
X33477200Y20803950D02*
Y21096050D01*
X33502600Y20803950D02*
Y21096050D01*
X33528000Y20803950D02*
Y21096050D01*
X33553400Y20803950D02*
Y21096050D01*
X33578800Y20803950D02*
Y21096050D01*
X33604200Y20803950D02*
Y21337350D01*
X33629600Y20803950D02*
Y21337350D01*
X33655000Y20803950D02*
Y21337350D01*
X33680400Y20803950D02*
Y21337350D01*
X33705800Y20803950D02*
Y21337350D01*
X33731200Y20803950D02*
Y21337350D01*
X33756600Y20803950D02*
Y21337350D01*
X33782000Y20803950D02*
Y21337350D01*
X33807400Y20803950D02*
Y21337350D01*
X33832800Y20803950D02*
Y21337350D01*
X33858200Y20803950D02*
Y21337350D01*
X33883600Y20803950D02*
Y21337350D01*
X33909000Y20803950D02*
Y21096050D01*
X33934400Y20803950D02*
Y21096050D01*
X33959800Y20803950D02*
Y21096050D01*
X33985200Y20803950D02*
Y21096050D01*
X34010600Y20803950D02*
Y21096050D01*
X34036000Y20803950D02*
Y21096050D01*
X33934150Y20708700D02*
X34023050D01*
Y20562650*
X33934150*
Y20708700*
Y20562650D02*
X34023050D01*
X33934150Y20588050D02*
X34023050D01*
X33934150Y20613450D02*
X34023050D01*
X33934150Y20638850D02*
X34023050D01*
X33934150Y20664250D02*
X34023050D01*
X33934150Y20689650D02*
X34023050D01*
X33934400Y20562650D02*
Y20708700D01*
X33959800Y20562650D02*
Y20708700D01*
X33985200Y20562650D02*
Y20708700D01*
X34010600Y20562650D02*
Y20708700D01*
X33705550D02*
X33794450D01*
Y20562650*
X33705550*
Y20708700*
Y20562650D02*
X33794450D01*
X33705550Y20588050D02*
X33794450D01*
X33705550Y20613450D02*
X33794450D01*
X33705550Y20638850D02*
X33794450D01*
X33705550Y20664250D02*
X33794450D01*
X33705550Y20689650D02*
X33794450D01*
X33705800Y20562650D02*
Y20708700D01*
X33731200Y20562650D02*
Y20708700D01*
X33756600Y20562650D02*
Y20708700D01*
X33782000Y20562650D02*
Y20708700D01*
X33476950D02*
X33565850D01*
Y20562650*
X33476950*
Y20708700*
Y20562650D02*
X33565850D01*
X33476950Y20588050D02*
X33565850D01*
X33476950Y20613450D02*
X33565850D01*
X33476950Y20638850D02*
X33565850D01*
X33476950Y20664250D02*
X33565850D01*
X33476950Y20689650D02*
X33565850D01*
X33477200Y20562650D02*
Y20708700D01*
X33502600Y20562650D02*
Y20708700D01*
X33528000Y20562650D02*
Y20708700D01*
X33553400Y20562650D02*
Y20708700D01*
X33912700Y17912300D02*
X33987300D01*
Y17825200*
X33912700*
Y17912300*
Y17825200D02*
X33987300D01*
X33912700Y17850600D02*
X33987300D01*
X33912700Y17876000D02*
X33987300D01*
X33912700Y17901400D02*
X33987300D01*
X33934400Y17825200D02*
Y17912300D01*
X33959800Y17825200D02*
Y17912300D01*
X33985200Y17825200D02*
Y17912300D01*
X33823000Y17686500D02*
X33899200D01*
Y17623000*
X33823000*
Y17686500*
Y17623000D02*
X33899200D01*
X33823000Y17648400D02*
X33899200D01*
X33823000Y17673800D02*
X33899200D01*
X33832800Y17623000D02*
Y17686500D01*
X33858200Y17623000D02*
Y17686500D01*
X33883600Y17623000D02*
Y17686500D01*
X34000800D02*
X34077000D01*
Y17623000*
X34000800*
Y17686500*
Y17623000D02*
X34077000D01*
X34000800Y17648400D02*
X34077000D01*
X34000800Y17673800D02*
X34077000D01*
X34010600Y17623000D02*
Y17686500D01*
X34036000Y17623000D02*
Y17686500D01*
X34061400Y17623000D02*
Y17686500D01*
X26791250Y21337350D02*
X27108750D01*
Y21096050*
X27254800*
Y20803950*
X26645200*
Y21096050*
X26791250*
Y21337350*
X26645200Y20803950D02*
X27254800D01*
X26645200Y20829350D02*
X27254800D01*
X26645200Y20854750D02*
X27254800D01*
X26645200Y20880150D02*
X27254800D01*
X26645200Y20905550D02*
X27254800D01*
X26645200Y20930950D02*
X27254800D01*
X26645200Y20956350D02*
X27254800D01*
X26645200Y20981750D02*
X27254800D01*
X26645200Y21007150D02*
X27254800D01*
X26645200Y21032550D02*
X27254800D01*
X26645200Y21057950D02*
X27254800D01*
X26645200Y21083350D02*
X27254800D01*
X26791250Y21108750D02*
X27108750D01*
X26791250Y21134150D02*
X27108750D01*
X26791250Y21159550D02*
X27108750D01*
X26791250Y21184950D02*
X27108750D01*
X26791250Y21210350D02*
X27108750D01*
X26791250Y21235750D02*
X27108750D01*
X26791250Y21261150D02*
X27108750D01*
X26791250Y21286550D02*
X27108750D01*
X26791250Y21311950D02*
X27108750D01*
X26791250Y21337350D02*
X27108750D01*
X26670000Y20803950D02*
Y21096050D01*
X26695400Y20803950D02*
Y21096050D01*
X26720800Y20803950D02*
Y21096050D01*
X26746200Y20803950D02*
Y21096050D01*
X26771600Y20803950D02*
Y21096050D01*
X26797000Y20803950D02*
Y21337350D01*
X26822400Y20803950D02*
Y21337350D01*
X26847800Y20803950D02*
Y21337350D01*
X26873200Y20803950D02*
Y21337350D01*
X26898600Y20803950D02*
Y21337350D01*
X26924000Y20803950D02*
Y21337350D01*
X26949400Y20803950D02*
Y21337350D01*
X26974800Y20803950D02*
Y21337350D01*
X27000200Y20803950D02*
Y21337350D01*
X27025600Y20803950D02*
Y21337350D01*
X27051000Y20803950D02*
Y21337350D01*
X27076400Y20803950D02*
Y21337350D01*
X27101800Y20803950D02*
Y21337350D01*
X27127200Y20803950D02*
Y21096050D01*
X27152600Y20803950D02*
Y21096050D01*
X27178000Y20803950D02*
Y21096050D01*
X27203400Y20803950D02*
Y21096050D01*
X27228800Y20803950D02*
Y21096050D01*
X27254200Y20803950D02*
Y21096050D01*
X27134150Y20708700D02*
X27223050D01*
Y20562650*
X27134150*
Y20708700*
Y20562650D02*
X27223050D01*
X27134150Y20588050D02*
X27223050D01*
X27134150Y20613450D02*
X27223050D01*
X27134150Y20638850D02*
X27223050D01*
X27134150Y20664250D02*
X27223050D01*
X27134150Y20689650D02*
X27223050D01*
X27152600Y20562650D02*
Y20708700D01*
X27178000Y20562650D02*
Y20708700D01*
X27203400Y20562650D02*
Y20708700D01*
X26905550D02*
X26994450D01*
Y20562650*
X26905550*
Y20708700*
Y20562650D02*
X26994450D01*
X26905550Y20588050D02*
X26994450D01*
X26905550Y20613450D02*
X26994450D01*
X26905550Y20638850D02*
X26994450D01*
X26905550Y20664250D02*
X26994450D01*
X26905550Y20689650D02*
X26994450D01*
X26924000Y20562650D02*
Y20708700D01*
X26949400Y20562650D02*
Y20708700D01*
X26974800Y20562650D02*
Y20708700D01*
X26676950D02*
X26765850D01*
Y20562650*
X26676950*
Y20708700*
Y20562650D02*
X26765850D01*
X26676950Y20588050D02*
X26765850D01*
X26676950Y20613450D02*
X26765850D01*
X26676950Y20638850D02*
X26765850D01*
X26676950Y20664250D02*
X26765850D01*
X26676950Y20689650D02*
X26765850D01*
X26695400Y20562650D02*
Y20708700D01*
X26720800Y20562650D02*
Y20708700D01*
X26746200Y20562650D02*
Y20708700D01*
X33912700Y22112300D02*
X33987300D01*
Y22025200*
X33912700*
Y22112300*
Y22025200D02*
X33987300D01*
X33912700Y22050600D02*
X33987300D01*
X33912700Y22076000D02*
X33987300D01*
X33912700Y22101400D02*
X33987300D01*
X33934400Y22025200D02*
Y22112300D01*
X33959800Y22025200D02*
Y22112300D01*
X33985200Y22025200D02*
Y22112300D01*
X33823000Y21886500D02*
X33899200D01*
Y21823000*
X33823000*
Y21886500*
Y21823000D02*
X33899200D01*
X33823000Y21848400D02*
X33899200D01*
X33823000Y21873800D02*
X33899200D01*
X33832800Y21823000D02*
Y21886500D01*
X33858200Y21823000D02*
Y21886500D01*
X33883600Y21823000D02*
Y21886500D01*
X34000800D02*
X34077000D01*
Y21823000*
X34000800*
Y21886500*
Y21823000D02*
X34077000D01*
X34000800Y21848400D02*
X34077000D01*
X34000800Y21873800D02*
X34077000D01*
X34010600Y21823000D02*
Y21886500D01*
X34036000Y21823000D02*
Y21886500D01*
X34061400Y21823000D02*
Y21886500D01*
X35291250Y17137350D02*
X35608750D01*
Y16896050*
X35754800*
Y16603950*
X35145200*
Y16896050*
X35291250*
Y17137350*
X35145200Y16603950D02*
X35754800D01*
X35145200Y16629350D02*
X35754800D01*
X35145200Y16654750D02*
X35754800D01*
X35145200Y16680150D02*
X35754800D01*
X35145200Y16705550D02*
X35754800D01*
X35145200Y16730950D02*
X35754800D01*
X35145200Y16756350D02*
X35754800D01*
X35145200Y16781750D02*
X35754800D01*
X35145200Y16807150D02*
X35754800D01*
X35145200Y16832550D02*
X35754800D01*
X35145200Y16857950D02*
X35754800D01*
X35145200Y16883350D02*
X35754800D01*
X35291250Y16908750D02*
X35608750D01*
X35291250Y16934150D02*
X35608750D01*
X35291250Y16959550D02*
X35608750D01*
X35291250Y16984950D02*
X35608750D01*
X35291250Y17010350D02*
X35608750D01*
X35291250Y17035750D02*
X35608750D01*
X35291250Y17061150D02*
X35608750D01*
X35291250Y17086550D02*
X35608750D01*
X35291250Y17111950D02*
X35608750D01*
X35291250Y17137350D02*
X35608750D01*
X35153600Y16603950D02*
Y16896050D01*
X35179000Y16603950D02*
Y16896050D01*
X35204400Y16603950D02*
Y16896050D01*
X35229800Y16603950D02*
Y16896050D01*
X35255200Y16603950D02*
Y16896050D01*
X35280600Y16603950D02*
Y16896050D01*
X35306000Y16603950D02*
Y17137350D01*
X35331400Y16603950D02*
Y17137350D01*
X35356800Y16603950D02*
Y17137350D01*
X35382200Y16603950D02*
Y17137350D01*
X35407600Y16603950D02*
Y17137350D01*
X35433000Y16603950D02*
Y17137350D01*
X35458400Y16603950D02*
Y17137350D01*
X35483800Y16603950D02*
Y17137350D01*
X35509200Y16603950D02*
Y17137350D01*
X35534600Y16603950D02*
Y17137350D01*
X35560000Y16603950D02*
Y17137350D01*
X35585400Y16603950D02*
Y17137350D01*
X35610800Y16603950D02*
Y16896050D01*
X35636200Y16603950D02*
Y16896050D01*
X35661600Y16603950D02*
Y16896050D01*
X35687000Y16603950D02*
Y16896050D01*
X35712400Y16603950D02*
Y16896050D01*
X35737800Y16603950D02*
Y16896050D01*
X35634150Y16508700D02*
X35723050D01*
Y16362650*
X35634150*
Y16508700*
Y16362650D02*
X35723050D01*
X35634150Y16388050D02*
X35723050D01*
X35634150Y16413450D02*
X35723050D01*
X35634150Y16438850D02*
X35723050D01*
X35634150Y16464250D02*
X35723050D01*
X35634150Y16489650D02*
X35723050D01*
X35636200Y16362650D02*
Y16508700D01*
X35661600Y16362650D02*
Y16508700D01*
X35687000Y16362650D02*
Y16508700D01*
X35712400Y16362650D02*
Y16508700D01*
X35405550D02*
X35494450D01*
Y16362650*
X35405550*
Y16508700*
Y16362650D02*
X35494450D01*
X35405550Y16388050D02*
X35494450D01*
X35405550Y16413450D02*
X35494450D01*
X35405550Y16438850D02*
X35494450D01*
X35405550Y16464250D02*
X35494450D01*
X35405550Y16489650D02*
X35494450D01*
X35407600Y16362650D02*
Y16508700D01*
X35433000Y16362650D02*
Y16508700D01*
X35458400Y16362650D02*
Y16508700D01*
X35483800Y16362650D02*
Y16508700D01*
X35176950D02*
X35265850D01*
Y16362650*
X35176950*
Y16508700*
Y16362650D02*
X35265850D01*
X35176950Y16388050D02*
X35265850D01*
X35176950Y16413450D02*
X35265850D01*
X35176950Y16438850D02*
X35265850D01*
X35176950Y16464250D02*
X35265850D01*
X35176950Y16489650D02*
X35265850D01*
X35179000Y16362650D02*
Y16508700D01*
X35204400Y16362650D02*
Y16508700D01*
X35229800Y16362650D02*
Y16508700D01*
X35255200Y16362650D02*
Y16508700D01*
X35291250Y21337350D02*
X35608750D01*
Y21096050*
X35754800*
Y20803950*
X35145200*
Y21096050*
X35291250*
Y21337350*
X35145200Y20803950D02*
X35754800D01*
X35145200Y20829350D02*
X35754800D01*
X35145200Y20854750D02*
X35754800D01*
X35145200Y20880150D02*
X35754800D01*
X35145200Y20905550D02*
X35754800D01*
X35145200Y20930950D02*
X35754800D01*
X35145200Y20956350D02*
X35754800D01*
X35145200Y20981750D02*
X35754800D01*
X35145200Y21007150D02*
X35754800D01*
X35145200Y21032550D02*
X35754800D01*
X35145200Y21057950D02*
X35754800D01*
X35145200Y21083350D02*
X35754800D01*
X35291250Y21108750D02*
X35608750D01*
X35291250Y21134150D02*
X35608750D01*
X35291250Y21159550D02*
X35608750D01*
X35291250Y21184950D02*
X35608750D01*
X35291250Y21210350D02*
X35608750D01*
X35291250Y21235750D02*
X35608750D01*
X35291250Y21261150D02*
X35608750D01*
X35291250Y21286550D02*
X35608750D01*
X35291250Y21311950D02*
X35608750D01*
X35291250Y21337350D02*
X35608750D01*
X35153600Y20803950D02*
Y21096050D01*
X35179000Y20803950D02*
Y21096050D01*
X35204400Y20803950D02*
Y21096050D01*
X35229800Y20803950D02*
Y21096050D01*
X35255200Y20803950D02*
Y21096050D01*
X35280600Y20803950D02*
Y21096050D01*
X35306000Y20803950D02*
Y21337350D01*
X35331400Y20803950D02*
Y21337350D01*
X35356800Y20803950D02*
Y21337350D01*
X35382200Y20803950D02*
Y21337350D01*
X35407600Y20803950D02*
Y21337350D01*
X35433000Y20803950D02*
Y21337350D01*
X35458400Y20803950D02*
Y21337350D01*
X35483800Y20803950D02*
Y21337350D01*
X35509200Y20803950D02*
Y21337350D01*
X35534600Y20803950D02*
Y21337350D01*
X35560000Y20803950D02*
Y21337350D01*
X35585400Y20803950D02*
Y21337350D01*
X35610800Y20803950D02*
Y21096050D01*
X35636200Y20803950D02*
Y21096050D01*
X35661600Y20803950D02*
Y21096050D01*
X35687000Y20803950D02*
Y21096050D01*
X35712400Y20803950D02*
Y21096050D01*
X35737800Y20803950D02*
Y21096050D01*
X35634150Y20708700D02*
X35723050D01*
Y20562650*
X35634150*
Y20708700*
Y20562650D02*
X35723050D01*
X35634150Y20588050D02*
X35723050D01*
X35634150Y20613450D02*
X35723050D01*
X35634150Y20638850D02*
X35723050D01*
X35634150Y20664250D02*
X35723050D01*
X35634150Y20689650D02*
X35723050D01*
X35636200Y20562650D02*
Y20708700D01*
X35661600Y20562650D02*
Y20708700D01*
X35687000Y20562650D02*
Y20708700D01*
X35712400Y20562650D02*
Y20708700D01*
X35405550D02*
X35494450D01*
Y20562650*
X35405550*
Y20708700*
Y20562650D02*
X35494450D01*
X35405550Y20588050D02*
X35494450D01*
X35405550Y20613450D02*
X35494450D01*
X35405550Y20638850D02*
X35494450D01*
X35405550Y20664250D02*
X35494450D01*
X35405550Y20689650D02*
X35494450D01*
X35407600Y20562650D02*
Y20708700D01*
X35433000Y20562650D02*
Y20708700D01*
X35458400Y20562650D02*
Y20708700D01*
X35483800Y20562650D02*
Y20708700D01*
X35176950D02*
X35265850D01*
Y20562650*
X35176950*
Y20708700*
Y20562650D02*
X35265850D01*
X35176950Y20588050D02*
X35265850D01*
X35176950Y20613450D02*
X35265850D01*
X35176950Y20638850D02*
X35265850D01*
X35176950Y20664250D02*
X35265850D01*
X35176950Y20689650D02*
X35265850D01*
X35179000Y20562650D02*
Y20708700D01*
X35204400Y20562650D02*
Y20708700D01*
X35229800Y20562650D02*
Y20708700D01*
X35255200Y20562650D02*
Y20708700D01*
X35612700Y17912300D02*
X35687300D01*
Y17825200*
X35612700*
Y17912300*
Y17825200D02*
X35687300D01*
X35612700Y17850600D02*
X35687300D01*
X35612700Y17876000D02*
X35687300D01*
X35612700Y17901400D02*
X35687300D01*
X35636200Y17825200D02*
Y17912300D01*
X35661600Y17825200D02*
Y17912300D01*
X35687000Y17825200D02*
Y17912300D01*
X35523000Y17686500D02*
X35599200D01*
Y17623000*
X35523000*
Y17686500*
Y17623000D02*
X35599200D01*
X35523000Y17648400D02*
X35599200D01*
X35523000Y17673800D02*
X35599200D01*
X35534600Y17623000D02*
Y17686500D01*
X35560000Y17623000D02*
Y17686500D01*
X35585400Y17623000D02*
Y17686500D01*
X35700800D02*
X35777000D01*
Y17623000*
X35700800*
Y17686500*
Y17623000D02*
X35777000D01*
X35700800Y17648400D02*
X35777000D01*
X35700800Y17673800D02*
X35777000D01*
X35712400Y17623000D02*
Y17686500D01*
X35737800Y17623000D02*
Y17686500D01*
X35763200Y17623000D02*
Y17686500D01*
X35612700Y22112300D02*
X35687300D01*
Y22025200*
X35612700*
Y22112300*
Y22025200D02*
X35687300D01*
X35612700Y22050600D02*
X35687300D01*
X35612700Y22076000D02*
X35687300D01*
X35612700Y22101400D02*
X35687300D01*
X35636200Y22025200D02*
Y22112300D01*
X35661600Y22025200D02*
Y22112300D01*
X35687000Y22025200D02*
Y22112300D01*
X35523000Y21886500D02*
X35599200D01*
Y21823000*
X35523000*
Y21886500*
Y21823000D02*
X35599200D01*
X35523000Y21848400D02*
X35599200D01*
X35523000Y21873800D02*
X35599200D01*
X35534600Y21823000D02*
Y21886500D01*
X35560000Y21823000D02*
Y21886500D01*
X35585400Y21823000D02*
Y21886500D01*
X35700800D02*
X35777000D01*
Y21823000*
X35700800*
Y21886500*
Y21823000D02*
X35777000D01*
X35700800Y21848400D02*
X35777000D01*
X35700800Y21873800D02*
X35777000D01*
X35712400Y21823000D02*
Y21886500D01*
X35737800Y21823000D02*
Y21886500D01*
X35763200Y21823000D02*
Y21886500D01*
X36991250Y17137350D02*
X37308750D01*
Y16896050*
X37454800*
Y16603950*
X36845200*
Y16896050*
X36991250*
Y17137350*
X36845200Y16603950D02*
X37454800D01*
X36845200Y16629350D02*
X37454800D01*
X36845200Y16654750D02*
X37454800D01*
X36845200Y16680150D02*
X37454800D01*
X36845200Y16705550D02*
X37454800D01*
X36845200Y16730950D02*
X37454800D01*
X36845200Y16756350D02*
X37454800D01*
X36845200Y16781750D02*
X37454800D01*
X36845200Y16807150D02*
X37454800D01*
X36845200Y16832550D02*
X37454800D01*
X36845200Y16857950D02*
X37454800D01*
X36845200Y16883350D02*
X37454800D01*
X36991250Y16908750D02*
X37308750D01*
X36991250Y16934150D02*
X37308750D01*
X36991250Y16959550D02*
X37308750D01*
X36991250Y16984950D02*
X37308750D01*
X36991250Y17010350D02*
X37308750D01*
X36991250Y17035750D02*
X37308750D01*
X36991250Y17061150D02*
X37308750D01*
X36991250Y17086550D02*
X37308750D01*
X36991250Y17111950D02*
X37308750D01*
X36991250Y17137350D02*
X37308750D01*
X36855400Y16603950D02*
Y16896050D01*
X36880800Y16603950D02*
Y16896050D01*
X36906200Y16603950D02*
Y16896050D01*
X36931600Y16603950D02*
Y16896050D01*
X36957000Y16603950D02*
Y16896050D01*
X36982400Y16603950D02*
Y16896050D01*
X37007800Y16603950D02*
Y17137350D01*
X37033200Y16603950D02*
Y17137350D01*
X37058600Y16603950D02*
Y17137350D01*
X37084000Y16603950D02*
Y17137350D01*
X37109400Y16603950D02*
Y17137350D01*
X37134800Y16603950D02*
Y17137350D01*
X37160200Y16603950D02*
Y17137350D01*
X37185600Y16603950D02*
Y17137350D01*
X37211000Y16603950D02*
Y17137350D01*
X37236400Y16603950D02*
Y17137350D01*
X37261800Y16603950D02*
Y17137350D01*
X37287200Y16603950D02*
Y17137350D01*
X37312600Y16603950D02*
Y16896050D01*
X37338000Y16603950D02*
Y16896050D01*
X37363400Y16603950D02*
Y16896050D01*
X37388800Y16603950D02*
Y16896050D01*
X37414200Y16603950D02*
Y16896050D01*
X37439600Y16603950D02*
Y16896050D01*
X37334150Y16508700D02*
X37423050D01*
Y16362650*
X37334150*
Y16508700*
Y16362650D02*
X37423050D01*
X37334150Y16388050D02*
X37423050D01*
X37334150Y16413450D02*
X37423050D01*
X37334150Y16438850D02*
X37423050D01*
X37334150Y16464250D02*
X37423050D01*
X37334150Y16489650D02*
X37423050D01*
X37338000Y16362650D02*
Y16508700D01*
X37363400Y16362650D02*
Y16508700D01*
X37388800Y16362650D02*
Y16508700D01*
X37414200Y16362650D02*
Y16508700D01*
X37105550D02*
X37194450D01*
Y16362650*
X37105550*
Y16508700*
Y16362650D02*
X37194450D01*
X37105550Y16388050D02*
X37194450D01*
X37105550Y16413450D02*
X37194450D01*
X37105550Y16438850D02*
X37194450D01*
X37105550Y16464250D02*
X37194450D01*
X37105550Y16489650D02*
X37194450D01*
X37109400Y16362650D02*
Y16508700D01*
X37134800Y16362650D02*
Y16508700D01*
X37160200Y16362650D02*
Y16508700D01*
X37185600Y16362650D02*
Y16508700D01*
X36876950D02*
X36965850D01*
Y16362650*
X36876950*
Y16508700*
Y16362650D02*
X36965850D01*
X36876950Y16388050D02*
X36965850D01*
X36876950Y16413450D02*
X36965850D01*
X36876950Y16438850D02*
X36965850D01*
X36876950Y16464250D02*
X36965850D01*
X36876950Y16489650D02*
X36965850D01*
X36880800Y16362650D02*
Y16508700D01*
X36906200Y16362650D02*
Y16508700D01*
X36931600Y16362650D02*
Y16508700D01*
X36957000Y16362650D02*
Y16508700D01*
X36991250Y21337350D02*
X37308750D01*
Y21096050*
X37454800*
Y20803950*
X36845200*
Y21096050*
X36991250*
Y21337350*
X36845200Y20803950D02*
X37454800D01*
X36845200Y20829350D02*
X37454800D01*
X36845200Y20854750D02*
X37454800D01*
X36845200Y20880150D02*
X37454800D01*
X36845200Y20905550D02*
X37454800D01*
X36845200Y20930950D02*
X37454800D01*
X36845200Y20956350D02*
X37454800D01*
X36845200Y20981750D02*
X37454800D01*
X36845200Y21007150D02*
X37454800D01*
X36845200Y21032550D02*
X37454800D01*
X36845200Y21057950D02*
X37454800D01*
X36845200Y21083350D02*
X37454800D01*
X36991250Y21108750D02*
X37308750D01*
X36991250Y21134150D02*
X37308750D01*
X36991250Y21159550D02*
X37308750D01*
X36991250Y21184950D02*
X37308750D01*
X36991250Y21210350D02*
X37308750D01*
X36991250Y21235750D02*
X37308750D01*
X36991250Y21261150D02*
X37308750D01*
X36991250Y21286550D02*
X37308750D01*
X36991250Y21311950D02*
X37308750D01*
X36991250Y21337350D02*
X37308750D01*
X36855400Y20803950D02*
Y21096050D01*
X36880800Y20803950D02*
Y21096050D01*
X36906200Y20803950D02*
Y21096050D01*
X36931600Y20803950D02*
Y21096050D01*
X36957000Y20803950D02*
Y21096050D01*
X36982400Y20803950D02*
Y21096050D01*
X37007800Y20803950D02*
Y21337350D01*
X37033200Y20803950D02*
Y21337350D01*
X37058600Y20803950D02*
Y21337350D01*
X37084000Y20803950D02*
Y21337350D01*
X37109400Y20803950D02*
Y21337350D01*
X37134800Y20803950D02*
Y21337350D01*
X37160200Y20803950D02*
Y21337350D01*
X37185600Y20803950D02*
Y21337350D01*
X37211000Y20803950D02*
Y21337350D01*
X37236400Y20803950D02*
Y21337350D01*
X37261800Y20803950D02*
Y21337350D01*
X37287200Y20803950D02*
Y21337350D01*
X37312600Y20803950D02*
Y21096050D01*
X37338000Y20803950D02*
Y21096050D01*
X37363400Y20803950D02*
Y21096050D01*
X37388800Y20803950D02*
Y21096050D01*
X37414200Y20803950D02*
Y21096050D01*
X37439600Y20803950D02*
Y21096050D01*
X37334150Y20708700D02*
X37423050D01*
Y20562650*
X37334150*
Y20708700*
Y20562650D02*
X37423050D01*
X37334150Y20588050D02*
X37423050D01*
X37334150Y20613450D02*
X37423050D01*
X37334150Y20638850D02*
X37423050D01*
X37334150Y20664250D02*
X37423050D01*
X37334150Y20689650D02*
X37423050D01*
X37338000Y20562650D02*
Y20708700D01*
X37363400Y20562650D02*
Y20708700D01*
X37388800Y20562650D02*
Y20708700D01*
X37414200Y20562650D02*
Y20708700D01*
X37105550D02*
X37194450D01*
Y20562650*
X37105550*
Y20708700*
Y20562650D02*
X37194450D01*
X37105550Y20588050D02*
X37194450D01*
X37105550Y20613450D02*
X37194450D01*
X37105550Y20638850D02*
X37194450D01*
X37105550Y20664250D02*
X37194450D01*
X37105550Y20689650D02*
X37194450D01*
X37109400Y20562650D02*
Y20708700D01*
X37134800Y20562650D02*
Y20708700D01*
X37160200Y20562650D02*
Y20708700D01*
X37185600Y20562650D02*
Y20708700D01*
X36876950D02*
X36965850D01*
Y20562650*
X36876950*
Y20708700*
Y20562650D02*
X36965850D01*
X36876950Y20588050D02*
X36965850D01*
X36876950Y20613450D02*
X36965850D01*
X36876950Y20638850D02*
X36965850D01*
X36876950Y20664250D02*
X36965850D01*
X36876950Y20689650D02*
X36965850D01*
X36880800Y20562650D02*
Y20708700D01*
X36906200Y20562650D02*
Y20708700D01*
X36931600Y20562650D02*
Y20708700D01*
X36957000Y20562650D02*
Y20708700D01*
X37312700Y17912300D02*
X37387300D01*
Y17825200*
X37312700*
Y17912300*
Y17825200D02*
X37387300D01*
X37312700Y17850600D02*
X37387300D01*
X37312700Y17876000D02*
X37387300D01*
X37312700Y17901400D02*
X37387300D01*
X37338000Y17825200D02*
Y17912300D01*
X37363400Y17825200D02*
Y17912300D01*
X37223000Y17686500D02*
X37299200D01*
Y17623000*
X37223000*
Y17686500*
Y17623000D02*
X37299200D01*
X37223000Y17648400D02*
X37299200D01*
X37223000Y17673800D02*
X37299200D01*
X37236400Y17623000D02*
Y17686500D01*
X37261800Y17623000D02*
Y17686500D01*
X37287200Y17623000D02*
Y17686500D01*
X37400800D02*
X37477000D01*
Y17623000*
X37400800*
Y17686500*
Y17623000D02*
X37477000D01*
X37400800Y17648400D02*
X37477000D01*
X37400800Y17673800D02*
X37477000D01*
X37414200Y17623000D02*
Y17686500D01*
X37439600Y17623000D02*
Y17686500D01*
X37465000Y17623000D02*
Y17686500D01*
X37312700Y22112300D02*
X37387300D01*
Y22025200*
X37312700*
Y22112300*
Y22025200D02*
X37387300D01*
X37312700Y22050600D02*
X37387300D01*
X37312700Y22076000D02*
X37387300D01*
X37312700Y22101400D02*
X37387300D01*
X37338000Y22025200D02*
Y22112300D01*
X37363400Y22025200D02*
Y22112300D01*
X37223000Y21886500D02*
X37299200D01*
Y21823000*
X37223000*
Y21886500*
Y21823000D02*
X37299200D01*
X37223000Y21848400D02*
X37299200D01*
X37223000Y21873800D02*
X37299200D01*
X37236400Y21823000D02*
Y21886500D01*
X37261800Y21823000D02*
Y21886500D01*
X37287200Y21823000D02*
Y21886500D01*
X37400800D02*
X37477000D01*
Y21823000*
X37400800*
Y21886500*
Y21823000D02*
X37477000D01*
X37400800Y21848400D02*
X37477000D01*
X37400800Y21873800D02*
X37477000D01*
X37414200Y21823000D02*
Y21886500D01*
X37439600Y21823000D02*
Y21886500D01*
X37465000Y21823000D02*
Y21886500D01*
X38691250Y17137350D02*
X39008750D01*
Y16896050*
X39154800*
Y16603950*
X38545200*
Y16896050*
X38691250*
Y17137350*
X38545200Y16603950D02*
X39154800D01*
X38545200Y16629350D02*
X39154800D01*
X38545200Y16654750D02*
X39154800D01*
X38545200Y16680150D02*
X39154800D01*
X38545200Y16705550D02*
X39154800D01*
X38545200Y16730950D02*
X39154800D01*
X38545200Y16756350D02*
X39154800D01*
X38545200Y16781750D02*
X39154800D01*
X38545200Y16807150D02*
X39154800D01*
X38545200Y16832550D02*
X39154800D01*
X38545200Y16857950D02*
X39154800D01*
X38545200Y16883350D02*
X39154800D01*
X38691250Y16908750D02*
X39008750D01*
X38691250Y16934150D02*
X39008750D01*
X38691250Y16959550D02*
X39008750D01*
X38691250Y16984950D02*
X39008750D01*
X38691250Y17010350D02*
X39008750D01*
X38691250Y17035750D02*
X39008750D01*
X38691250Y17061150D02*
X39008750D01*
X38691250Y17086550D02*
X39008750D01*
X38691250Y17111950D02*
X39008750D01*
X38691250Y17137350D02*
X39008750D01*
X38557200Y16603950D02*
Y16896050D01*
X38582600Y16603950D02*
Y16896050D01*
X38608000Y16603950D02*
Y16896050D01*
X38633400Y16603950D02*
Y16896050D01*
X38658800Y16603950D02*
Y16896050D01*
X38684200Y16603950D02*
Y16896050D01*
X38709600Y16603950D02*
Y17137350D01*
X38735000Y16603950D02*
Y17137350D01*
X38760400Y16603950D02*
Y17137350D01*
X38785800Y16603950D02*
Y17137350D01*
X38811200Y16603950D02*
Y17137350D01*
X38836600Y16603950D02*
Y17137350D01*
X38862000Y16603950D02*
Y17137350D01*
X38887400Y16603950D02*
Y17137350D01*
X38912800Y16603950D02*
Y17137350D01*
X38938200Y16603950D02*
Y17137350D01*
X38963600Y16603950D02*
Y17137350D01*
X38989000Y16603950D02*
Y17137350D01*
X39014400Y16603950D02*
Y16896050D01*
X39039800Y16603950D02*
Y16896050D01*
X39065200Y16603950D02*
Y16896050D01*
X39090600Y16603950D02*
Y16896050D01*
X39116000Y16603950D02*
Y16896050D01*
X39141400Y16603950D02*
Y16896050D01*
X39034150Y16508700D02*
X39123050D01*
Y16362650*
X39034150*
Y16508700*
Y16362650D02*
X39123050D01*
X39034150Y16388050D02*
X39123050D01*
X39034150Y16413450D02*
X39123050D01*
X39034150Y16438850D02*
X39123050D01*
X39034150Y16464250D02*
X39123050D01*
X39034150Y16489650D02*
X39123050D01*
X39039800Y16362650D02*
Y16508700D01*
X39065200Y16362650D02*
Y16508700D01*
X39090600Y16362650D02*
Y16508700D01*
X39116000Y16362650D02*
Y16508700D01*
X38805550D02*
X38894450D01*
Y16362650*
X38805550*
Y16508700*
Y16362650D02*
X38894450D01*
X38805550Y16388050D02*
X38894450D01*
X38805550Y16413450D02*
X38894450D01*
X38805550Y16438850D02*
X38894450D01*
X38805550Y16464250D02*
X38894450D01*
X38805550Y16489650D02*
X38894450D01*
X38811200Y16362650D02*
Y16508700D01*
X38836600Y16362650D02*
Y16508700D01*
X38862000Y16362650D02*
Y16508700D01*
X38887400Y16362650D02*
Y16508700D01*
X38576950D02*
X38665850D01*
Y16362650*
X38576950*
Y16508700*
Y16362650D02*
X38665850D01*
X38576950Y16388050D02*
X38665850D01*
X38576950Y16413450D02*
X38665850D01*
X38576950Y16438850D02*
X38665850D01*
X38576950Y16464250D02*
X38665850D01*
X38576950Y16489650D02*
X38665850D01*
X38582600Y16362650D02*
Y16508700D01*
X38608000Y16362650D02*
Y16508700D01*
X38633400Y16362650D02*
Y16508700D01*
X38658800Y16362650D02*
Y16508700D01*
X27112700Y17912300D02*
X27187300D01*
Y17825200*
X27112700*
Y17912300*
Y17825200D02*
X27187300D01*
X27112700Y17850600D02*
X27187300D01*
X27112700Y17876000D02*
X27187300D01*
X27112700Y17901400D02*
X27187300D01*
X27127200Y17825200D02*
Y17912300D01*
X27152600Y17825200D02*
Y17912300D01*
X27178000Y17825200D02*
Y17912300D01*
X27023000Y17686500D02*
X27099200D01*
Y17623000*
X27023000*
Y17686500*
Y17623000D02*
X27099200D01*
X27023000Y17648400D02*
X27099200D01*
X27023000Y17673800D02*
X27099200D01*
X27025600Y17623000D02*
Y17686500D01*
X27051000Y17623000D02*
Y17686500D01*
X27076400Y17623000D02*
Y17686500D01*
X27200800D02*
X27277000D01*
Y17623000*
X27200800*
Y17686500*
Y17623000D02*
X27277000D01*
X27200800Y17648400D02*
X27277000D01*
X27200800Y17673800D02*
X27277000D01*
X27203400Y17623000D02*
Y17686500D01*
X27228800Y17623000D02*
Y17686500D01*
X27254200Y17623000D02*
Y17686500D01*
X38691250Y21337350D02*
X39008750D01*
Y21096050*
X39154800*
Y20803950*
X38545200*
Y21096050*
X38691250*
Y21337350*
X38545200Y20803950D02*
X39154800D01*
X38545200Y20829350D02*
X39154800D01*
X38545200Y20854750D02*
X39154800D01*
X38545200Y20880150D02*
X39154800D01*
X38545200Y20905550D02*
X39154800D01*
X38545200Y20930950D02*
X39154800D01*
X38545200Y20956350D02*
X39154800D01*
X38545200Y20981750D02*
X39154800D01*
X38545200Y21007150D02*
X39154800D01*
X38545200Y21032550D02*
X39154800D01*
X38545200Y21057950D02*
X39154800D01*
X38545200Y21083350D02*
X39154800D01*
X38691250Y21108750D02*
X39008750D01*
X38691250Y21134150D02*
X39008750D01*
X38691250Y21159550D02*
X39008750D01*
X38691250Y21184950D02*
X39008750D01*
X38691250Y21210350D02*
X39008750D01*
X38691250Y21235750D02*
X39008750D01*
X38691250Y21261150D02*
X39008750D01*
X38691250Y21286550D02*
X39008750D01*
X38691250Y21311950D02*
X39008750D01*
X38691250Y21337350D02*
X39008750D01*
X38557200Y20803950D02*
Y21096050D01*
X38582600Y20803950D02*
Y21096050D01*
X38608000Y20803950D02*
Y21096050D01*
X38633400Y20803950D02*
Y21096050D01*
X38658800Y20803950D02*
Y21096050D01*
X38684200Y20803950D02*
Y21096050D01*
X38709600Y20803950D02*
Y21337350D01*
X38735000Y20803950D02*
Y21337350D01*
X38760400Y20803950D02*
Y21337350D01*
X38785800Y20803950D02*
Y21337350D01*
X38811200Y20803950D02*
Y21337350D01*
X38836600Y20803950D02*
Y21337350D01*
X38862000Y20803950D02*
Y21337350D01*
X38887400Y20803950D02*
Y21337350D01*
X38912800Y20803950D02*
Y21337350D01*
X38938200Y20803950D02*
Y21337350D01*
X38963600Y20803950D02*
Y21337350D01*
X38989000Y20803950D02*
Y21337350D01*
X39014400Y20803950D02*
Y21096050D01*
X39039800Y20803950D02*
Y21096050D01*
X39065200Y20803950D02*
Y21096050D01*
X39090600Y20803950D02*
Y21096050D01*
X39116000Y20803950D02*
Y21096050D01*
X39141400Y20803950D02*
Y21096050D01*
X39034150Y20708700D02*
X39123050D01*
Y20562650*
X39034150*
Y20708700*
Y20562650D02*
X39123050D01*
X39034150Y20588050D02*
X39123050D01*
X39034150Y20613450D02*
X39123050D01*
X39034150Y20638850D02*
X39123050D01*
X39034150Y20664250D02*
X39123050D01*
X39034150Y20689650D02*
X39123050D01*
X39039800Y20562650D02*
Y20708700D01*
X39065200Y20562650D02*
Y20708700D01*
X39090600Y20562650D02*
Y20708700D01*
X39116000Y20562650D02*
Y20708700D01*
X38805550D02*
X38894450D01*
Y20562650*
X38805550*
Y20708700*
Y20562650D02*
X38894450D01*
X38805550Y20588050D02*
X38894450D01*
X38805550Y20613450D02*
X38894450D01*
X38805550Y20638850D02*
X38894450D01*
X38805550Y20664250D02*
X38894450D01*
X38805550Y20689650D02*
X38894450D01*
X38811200Y20562650D02*
Y20708700D01*
X38836600Y20562650D02*
Y20708700D01*
X38862000Y20562650D02*
Y20708700D01*
X38887400Y20562650D02*
Y20708700D01*
X38576950D02*
X38665850D01*
Y20562650*
X38576950*
Y20708700*
Y20562650D02*
X38665850D01*
X38576950Y20588050D02*
X38665850D01*
X38576950Y20613450D02*
X38665850D01*
X38576950Y20638850D02*
X38665850D01*
X38576950Y20664250D02*
X38665850D01*
X38576950Y20689650D02*
X38665850D01*
X38582600Y20562650D02*
Y20708700D01*
X38608000Y20562650D02*
Y20708700D01*
X38633400Y20562650D02*
Y20708700D01*
X38658800Y20562650D02*
Y20708700D01*
X39012700Y17912300D02*
X39087300D01*
Y17825200*
X39012700*
Y17912300*
Y17825200D02*
X39087300D01*
X39012700Y17850600D02*
X39087300D01*
X39012700Y17876000D02*
X39087300D01*
X39012700Y17901400D02*
X39087300D01*
X39014400Y17825200D02*
Y17912300D01*
X39039800Y17825200D02*
Y17912300D01*
X39065200Y17825200D02*
Y17912300D01*
X38923000Y17686500D02*
X38999200D01*
Y17623000*
X38923000*
Y17686500*
Y17623000D02*
X38999200D01*
X38923000Y17648400D02*
X38999200D01*
X38923000Y17673800D02*
X38999200D01*
X38938200Y17623000D02*
Y17686500D01*
X38963600Y17623000D02*
Y17686500D01*
X38989000Y17623000D02*
Y17686500D01*
X39100800D02*
X39177000D01*
Y17623000*
X39100800*
Y17686500*
Y17623000D02*
X39177000D01*
X39100800Y17648400D02*
X39177000D01*
X39100800Y17673800D02*
X39177000D01*
X39116000Y17623000D02*
Y17686500D01*
X39141400Y17623000D02*
Y17686500D01*
X39166800Y17623000D02*
Y17686500D01*
X39012700Y22112300D02*
X39087300D01*
Y22025200*
X39012700*
Y22112300*
Y22025200D02*
X39087300D01*
X39012700Y22050600D02*
X39087300D01*
X39012700Y22076000D02*
X39087300D01*
X39012700Y22101400D02*
X39087300D01*
X39014400Y22025200D02*
Y22112300D01*
X39039800Y22025200D02*
Y22112300D01*
X39065200Y22025200D02*
Y22112300D01*
X38923000Y21886500D02*
X38999200D01*
Y21823000*
X38923000*
Y21886500*
Y21823000D02*
X38999200D01*
X38923000Y21848400D02*
X38999200D01*
X38923000Y21873800D02*
X38999200D01*
X38938200Y21823000D02*
Y21886500D01*
X38963600Y21823000D02*
Y21886500D01*
X38989000Y21823000D02*
Y21886500D01*
X39100800D02*
X39177000D01*
Y21823000*
X39100800*
Y21886500*
Y21823000D02*
X39177000D01*
X39100800Y21848400D02*
X39177000D01*
X39100800Y21873800D02*
X39177000D01*
X39116000Y21823000D02*
Y21886500D01*
X39141400Y21823000D02*
Y21886500D01*
X39166800Y21823000D02*
Y21886500D01*
X27112700Y22112300D02*
X27187300D01*
Y22025200*
X27112700*
Y22112300*
Y22025200D02*
X27187300D01*
X27112700Y22050600D02*
X27187300D01*
X27112700Y22076000D02*
X27187300D01*
X27112700Y22101400D02*
X27187300D01*
X27127200Y22025200D02*
Y22112300D01*
X27152600Y22025200D02*
Y22112300D01*
X27178000Y22025200D02*
Y22112300D01*
X27023000Y21886500D02*
X27099200D01*
Y21823000*
X27023000*
Y21886500*
Y21823000D02*
X27099200D01*
X27023000Y21848400D02*
X27099200D01*
X27023000Y21873800D02*
X27099200D01*
X27025600Y21823000D02*
Y21886500D01*
X27051000Y21823000D02*
Y21886500D01*
X27076400Y21823000D02*
Y21886500D01*
X27200800D02*
X27277000D01*
Y21823000*
X27200800*
Y21886500*
Y21823000D02*
X27277000D01*
X27200800Y21848400D02*
X27277000D01*
X27200800Y21873800D02*
X27277000D01*
X27203400Y21823000D02*
Y21886500D01*
X27228800Y21823000D02*
Y21886500D01*
X27254200Y21823000D02*
Y21886500D01*
X28491250Y17137350D02*
X28808750D01*
Y16896050*
X28954800*
Y16603950*
X28345200*
Y16896050*
X28491250*
Y17137350*
X28345200Y16603950D02*
X28954800D01*
X28345200Y16629350D02*
X28954800D01*
X28345200Y16654750D02*
X28954800D01*
X28345200Y16680150D02*
X28954800D01*
X28345200Y16705550D02*
X28954800D01*
X28345200Y16730950D02*
X28954800D01*
X28345200Y16756350D02*
X28954800D01*
X28345200Y16781750D02*
X28954800D01*
X28345200Y16807150D02*
X28954800D01*
X28345200Y16832550D02*
X28954800D01*
X28345200Y16857950D02*
X28954800D01*
X28345200Y16883350D02*
X28954800D01*
X28491250Y16908750D02*
X28808750D01*
X28491250Y16934150D02*
X28808750D01*
X28491250Y16959550D02*
X28808750D01*
X28491250Y16984950D02*
X28808750D01*
X28491250Y17010350D02*
X28808750D01*
X28491250Y17035750D02*
X28808750D01*
X28491250Y17061150D02*
X28808750D01*
X28491250Y17086550D02*
X28808750D01*
X28491250Y17111950D02*
X28808750D01*
X28491250Y17137350D02*
X28808750D01*
X28346400Y16603950D02*
Y16896050D01*
X28371800Y16603950D02*
Y16896050D01*
X28397200Y16603950D02*
Y16896050D01*
X28422600Y16603950D02*
Y16896050D01*
X28448000Y16603950D02*
Y16896050D01*
X28473400Y16603950D02*
Y16896050D01*
X28498800Y16603950D02*
Y17137350D01*
X28524200Y16603950D02*
Y17137350D01*
X28549600Y16603950D02*
Y17137350D01*
X28575000Y16603950D02*
Y17137350D01*
X28600400Y16603950D02*
Y17137350D01*
X28625800Y16603950D02*
Y17137350D01*
X28651200Y16603950D02*
Y17137350D01*
X28676600Y16603950D02*
Y17137350D01*
X28702000Y16603950D02*
Y17137350D01*
X28727400Y16603950D02*
Y17137350D01*
X28752800Y16603950D02*
Y17137350D01*
X28778200Y16603950D02*
Y17137350D01*
X28803600Y16603950D02*
Y17137350D01*
X28829000Y16603950D02*
Y16896050D01*
X28854400Y16603950D02*
Y16896050D01*
X28879800Y16603950D02*
Y16896050D01*
X28905200Y16603950D02*
Y16896050D01*
X28930600Y16603950D02*
Y16896050D01*
X28834150Y16508700D02*
X28923050D01*
Y16362650*
X28834150*
Y16508700*
Y16362650D02*
X28923050D01*
X28834150Y16388050D02*
X28923050D01*
X28834150Y16413450D02*
X28923050D01*
X28834150Y16438850D02*
X28923050D01*
X28834150Y16464250D02*
X28923050D01*
X28834150Y16489650D02*
X28923050D01*
X28854400Y16362650D02*
Y16508700D01*
X28879800Y16362650D02*
Y16508700D01*
X28905200Y16362650D02*
Y16508700D01*
X28605550D02*
X28694450D01*
Y16362650*
X28605550*
Y16508700*
Y16362650D02*
X28694450D01*
X28605550Y16388050D02*
X28694450D01*
X28605550Y16413450D02*
X28694450D01*
X28605550Y16438850D02*
X28694450D01*
X28605550Y16464250D02*
X28694450D01*
X28605550Y16489650D02*
X28694450D01*
X28625800Y16362650D02*
Y16508700D01*
X28651200Y16362650D02*
Y16508700D01*
X28676600Y16362650D02*
Y16508700D01*
X28376950D02*
X28465850D01*
Y16362650*
X28376950*
Y16508700*
Y16362650D02*
X28465850D01*
X28376950Y16388050D02*
X28465850D01*
X28376950Y16413450D02*
X28465850D01*
X28376950Y16438850D02*
X28465850D01*
X28376950Y16464250D02*
X28465850D01*
X28376950Y16489650D02*
X28465850D01*
X28397200Y16362650D02*
Y16508700D01*
X28422600Y16362650D02*
Y16508700D01*
X28448000Y16362650D02*
Y16508700D01*
X28491250Y21337350D02*
X28808750D01*
Y21096050*
X28954800*
Y20803950*
X28345200*
Y21096050*
X28491250*
Y21337350*
X28345200Y20803950D02*
X28954800D01*
X28345200Y20829350D02*
X28954800D01*
X28345200Y20854750D02*
X28954800D01*
X28345200Y20880150D02*
X28954800D01*
X28345200Y20905550D02*
X28954800D01*
X28345200Y20930950D02*
X28954800D01*
X28345200Y20956350D02*
X28954800D01*
X28345200Y20981750D02*
X28954800D01*
X28345200Y21007150D02*
X28954800D01*
X28345200Y21032550D02*
X28954800D01*
X28345200Y21057950D02*
X28954800D01*
X28345200Y21083350D02*
X28954800D01*
X28491250Y21108750D02*
X28808750D01*
X28491250Y21134150D02*
X28808750D01*
X28491250Y21159550D02*
X28808750D01*
X28491250Y21184950D02*
X28808750D01*
X28491250Y21210350D02*
X28808750D01*
X28491250Y21235750D02*
X28808750D01*
X28491250Y21261150D02*
X28808750D01*
X28491250Y21286550D02*
X28808750D01*
X28491250Y21311950D02*
X28808750D01*
X28491250Y21337350D02*
X28808750D01*
X28346400Y20803950D02*
Y21096050D01*
X28371800Y20803950D02*
Y21096050D01*
X28397200Y20803950D02*
Y21096050D01*
X28422600Y20803950D02*
Y21096050D01*
X28448000Y20803950D02*
Y21096050D01*
X28473400Y20803950D02*
Y21096050D01*
X28498800Y20803950D02*
Y21337350D01*
X28524200Y20803950D02*
Y21337350D01*
X28549600Y20803950D02*
Y21337350D01*
X28575000Y20803950D02*
Y21337350D01*
X28600400Y20803950D02*
Y21337350D01*
X28625800Y20803950D02*
Y21337350D01*
X28651200Y20803950D02*
Y21337350D01*
X28676600Y20803950D02*
Y21337350D01*
X28702000Y20803950D02*
Y21337350D01*
X28727400Y20803950D02*
Y21337350D01*
X28752800Y20803950D02*
Y21337350D01*
X28778200Y20803950D02*
Y21337350D01*
X28803600Y20803950D02*
Y21337350D01*
X28829000Y20803950D02*
Y21096050D01*
X28854400Y20803950D02*
Y21096050D01*
X28879800Y20803950D02*
Y21096050D01*
X28905200Y20803950D02*
Y21096050D01*
X28930600Y20803950D02*
Y21096050D01*
X28834150Y20708700D02*
X28923050D01*
Y20562650*
X28834150*
Y20708700*
Y20562650D02*
X28923050D01*
X28834150Y20588050D02*
X28923050D01*
X28834150Y20613450D02*
X28923050D01*
X28834150Y20638850D02*
X28923050D01*
X28834150Y20664250D02*
X28923050D01*
X28834150Y20689650D02*
X28923050D01*
X28854400Y20562650D02*
Y20708700D01*
X28879800Y20562650D02*
Y20708700D01*
X28905200Y20562650D02*
Y20708700D01*
X28605550D02*
X28694450D01*
Y20562650*
X28605550*
Y20708700*
Y20562650D02*
X28694450D01*
X28605550Y20588050D02*
X28694450D01*
X28605550Y20613450D02*
X28694450D01*
X28605550Y20638850D02*
X28694450D01*
X28605550Y20664250D02*
X28694450D01*
X28605550Y20689650D02*
X28694450D01*
X28625800Y20562650D02*
Y20708700D01*
X28651200Y20562650D02*
Y20708700D01*
X28676600Y20562650D02*
Y20708700D01*
X28376950D02*
X28465850D01*
Y20562650*
X28376950*
Y20708700*
Y20562650D02*
X28465850D01*
X28376950Y20588050D02*
X28465850D01*
X28376950Y20613450D02*
X28465850D01*
X28376950Y20638850D02*
X28465850D01*
X28376950Y20664250D02*
X28465850D01*
X28376950Y20689650D02*
X28465850D01*
X28397200Y20562650D02*
Y20708700D01*
X28422600Y20562650D02*
Y20708700D01*
X28448000Y20562650D02*
Y20708700D01*
X28812700Y17912300D02*
X28887300D01*
Y17825200*
X28812700*
Y17912300*
Y17825200D02*
X28887300D01*
X28812700Y17850600D02*
X28887300D01*
X28812700Y17876000D02*
X28887300D01*
X28812700Y17901400D02*
X28887300D01*
X28829000Y17825200D02*
Y17912300D01*
X28854400Y17825200D02*
Y17912300D01*
X28879800Y17825200D02*
Y17912300D01*
X28723000Y17686500D02*
X28799200D01*
Y17623000*
X28723000*
Y17686500*
Y17623000D02*
X28799200D01*
X28723000Y17648400D02*
X28799200D01*
X28723000Y17673800D02*
X28799200D01*
X28727400Y17623000D02*
Y17686500D01*
X28752800Y17623000D02*
Y17686500D01*
X28778200Y17623000D02*
Y17686500D01*
X28900800D02*
X28977000D01*
Y17623000*
X28900800*
Y17686500*
Y17623000D02*
X28977000D01*
X28900800Y17648400D02*
X28977000D01*
X28900800Y17673800D02*
X28977000D01*
X28905200Y17623000D02*
Y17686500D01*
X28930600Y17623000D02*
Y17686500D01*
X28956000Y17623000D02*
Y17686500D01*
X28812700Y22112300D02*
X28887300D01*
Y22025200*
X28812700*
Y22112300*
Y22025200D02*
X28887300D01*
X28812700Y22050600D02*
X28887300D01*
X28812700Y22076000D02*
X28887300D01*
X28812700Y22101400D02*
X28887300D01*
X28829000Y22025200D02*
Y22112300D01*
X28854400Y22025200D02*
Y22112300D01*
X28879800Y22025200D02*
Y22112300D01*
X28723000Y21886500D02*
X28799200D01*
Y21823000*
X28723000*
Y21886500*
Y21823000D02*
X28799200D01*
X28723000Y21848400D02*
X28799200D01*
X28723000Y21873800D02*
X28799200D01*
X28727400Y21823000D02*
Y21886500D01*
X28752800Y21823000D02*
Y21886500D01*
X28778200Y21823000D02*
Y21886500D01*
X28900800D02*
X28977000D01*
Y21823000*
X28900800*
Y21886500*
Y21823000D02*
X28977000D01*
X28900800Y21848400D02*
X28977000D01*
X28900800Y21873800D02*
X28977000D01*
X28905200Y21823000D02*
Y21886500D01*
X28930600Y21823000D02*
Y21886500D01*
X28956000Y21823000D02*
Y21886500D01*
X30191250Y17137350D02*
X30508750D01*
Y16896050*
X30654800*
Y16603950*
X30045200*
Y16896050*
X30191250*
Y17137350*
X30045200Y16603950D02*
X30654800D01*
X30045200Y16629350D02*
X30654800D01*
X30045200Y16654750D02*
X30654800D01*
X30045200Y16680150D02*
X30654800D01*
X30045200Y16705550D02*
X30654800D01*
X30045200Y16730950D02*
X30654800D01*
X30045200Y16756350D02*
X30654800D01*
X30045200Y16781750D02*
X30654800D01*
X30045200Y16807150D02*
X30654800D01*
X30045200Y16832550D02*
X30654800D01*
X30045200Y16857950D02*
X30654800D01*
X30045200Y16883350D02*
X30654800D01*
X30191250Y16908750D02*
X30508750D01*
X30191250Y16934150D02*
X30508750D01*
X30191250Y16959550D02*
X30508750D01*
X30191250Y16984950D02*
X30508750D01*
X30191250Y17010350D02*
X30508750D01*
X30191250Y17035750D02*
X30508750D01*
X30191250Y17061150D02*
X30508750D01*
X30191250Y17086550D02*
X30508750D01*
X30191250Y17111950D02*
X30508750D01*
X30191250Y17137350D02*
X30508750D01*
X30048200Y16603950D02*
Y16896050D01*
X30073600Y16603950D02*
Y16896050D01*
X30099000Y16603950D02*
Y16896050D01*
X30124400Y16603950D02*
Y16896050D01*
X30149800Y16603950D02*
Y16896050D01*
X30175200Y16603950D02*
Y16896050D01*
X30200600Y16603950D02*
Y17137350D01*
X30226000Y16603950D02*
Y17137350D01*
X30251400Y16603950D02*
Y17137350D01*
X30276800Y16603950D02*
Y17137350D01*
X30302200Y16603950D02*
Y17137350D01*
X30327600Y16603950D02*
Y17137350D01*
X30353000Y16603950D02*
Y17137350D01*
X30378400Y16603950D02*
Y17137350D01*
X30403800Y16603950D02*
Y17137350D01*
X30429200Y16603950D02*
Y17137350D01*
X30454600Y16603950D02*
Y17137350D01*
X30480000Y16603950D02*
Y17137350D01*
X30505400Y16603950D02*
Y17137350D01*
X30530800Y16603950D02*
Y16896050D01*
X30556200Y16603950D02*
Y16896050D01*
X30581600Y16603950D02*
Y16896050D01*
X30607000Y16603950D02*
Y16896050D01*
X30632400Y16603950D02*
Y16896050D01*
X30534150Y16508700D02*
X30623050D01*
Y16362650*
X30534150*
Y16508700*
Y16362650D02*
X30623050D01*
X30534150Y16388050D02*
X30623050D01*
X30534150Y16413450D02*
X30623050D01*
X30534150Y16438850D02*
X30623050D01*
X30534150Y16464250D02*
X30623050D01*
X30534150Y16489650D02*
X30623050D01*
X30556200Y16362650D02*
Y16508700D01*
X30581600Y16362650D02*
Y16508700D01*
X30607000Y16362650D02*
Y16508700D01*
X30305550D02*
X30394450D01*
Y16362650*
X30305550*
Y16508700*
Y16362650D02*
X30394450D01*
X30305550Y16388050D02*
X30394450D01*
X30305550Y16413450D02*
X30394450D01*
X30305550Y16438850D02*
X30394450D01*
X30305550Y16464250D02*
X30394450D01*
X30305550Y16489650D02*
X30394450D01*
X30327600Y16362650D02*
Y16508700D01*
X30353000Y16362650D02*
Y16508700D01*
X30378400Y16362650D02*
Y16508700D01*
X30076950D02*
X30165850D01*
Y16362650*
X30076950*
Y16508700*
Y16362650D02*
X30165850D01*
X30076950Y16388050D02*
X30165850D01*
X30076950Y16413450D02*
X30165850D01*
X30076950Y16438850D02*
X30165850D01*
X30076950Y16464250D02*
X30165850D01*
X30076950Y16489650D02*
X30165850D01*
X30099000Y16362650D02*
Y16508700D01*
X30124400Y16362650D02*
Y16508700D01*
X30149800Y16362650D02*
Y16508700D01*
X26037300Y16812700D02*
X25962700D01*
Y16887300*
X26037300*
Y16812700*
X25962700D02*
X26037300D01*
X25962700Y16838100D02*
X26037300D01*
X25962700Y16863500D02*
X26037300D01*
X25984200Y16812700D02*
Y16887300D01*
X26009600Y16812700D02*
Y16887300D01*
X26035000Y16812700D02*
Y16887300D01*
X26237300Y16812700D02*
X26162700D01*
Y16887300*
X26237300*
Y16812700*
X26162700D02*
X26237300D01*
X26162700Y16838100D02*
X26237300D01*
X26162700Y16863500D02*
X26237300D01*
X26187400Y16812700D02*
Y16887300D01*
X26212800Y16812700D02*
Y16887300D01*
X26512700Y22012700D02*
Y22087300D01*
X26587300*
Y22012700*
X26512700*
X26587300*
X26512700Y22038100D02*
X26587300D01*
X26512700Y22063500D02*
X26587300D01*
X26517600Y22012700D02*
Y22087300D01*
X26543000Y22012700D02*
Y22087300D01*
X26568400Y22012700D02*
Y22087300D01*
X26512700Y21812700D02*
Y21887300D01*
X26587300*
Y21812700*
X26512700*
X26587300*
X26512700Y21838100D02*
X26587300D01*
X26512700Y21863500D02*
X26587300D01*
X26517600Y21812700D02*
Y21887300D01*
X26543000Y21812700D02*
Y21887300D01*
X26568400Y21812700D02*
Y21887300D01*
X27737300Y16812700D02*
X27662700D01*
Y16887300*
X27737300*
Y16812700*
X27662700D02*
X27737300D01*
X27662700Y16838100D02*
X27737300D01*
X27662700Y16863500D02*
X27737300D01*
X27686000Y16812700D02*
Y16887300D01*
X27711400Y16812700D02*
Y16887300D01*
X27736800Y16812700D02*
Y16887300D01*
X27937300Y16812700D02*
X27862700D01*
Y16887300*
X27937300*
Y16812700*
X27862700D02*
X27937300D01*
X27862700Y16838100D02*
X27937300D01*
X27862700Y16863500D02*
X27937300D01*
X27863800Y16812700D02*
Y16887300D01*
X27889200Y16812700D02*
Y16887300D01*
X27914600Y16812700D02*
Y16887300D01*
X27737300Y21012700D02*
X27662700D01*
Y21087300*
X27737300*
Y21012700*
X27662700D02*
X27737300D01*
X27662700Y21038100D02*
X27737300D01*
X27662700Y21063500D02*
X27737300D01*
X27686000Y21012700D02*
Y21087300D01*
X27711400Y21012700D02*
Y21087300D01*
X27736800Y21012700D02*
Y21087300D01*
X27937300Y21012700D02*
X27862700D01*
Y21087300*
X27937300*
Y21012700*
X27862700D02*
X27937300D01*
X27862700Y21038100D02*
X27937300D01*
X27862700Y21063500D02*
X27937300D01*
X27863800Y21012700D02*
Y21087300D01*
X27889200Y21012700D02*
Y21087300D01*
X27914600Y21012700D02*
Y21087300D01*
X28012700Y16212700D02*
Y16287300D01*
X28087300*
Y16212700*
X28012700*
X28087300*
X28012700Y16238100D02*
X28087300D01*
X28012700Y16263500D02*
X28087300D01*
X28016200Y16212700D02*
Y16287300D01*
X28041600Y16212700D02*
Y16287300D01*
X28067000Y16212700D02*
Y16287300D01*
X28012700Y16012700D02*
Y16087300D01*
X28087300*
Y16012700*
X28012700*
X28087300*
X28012700Y16038100D02*
X28087300D01*
X28012700Y16063500D02*
X28087300D01*
X28016200Y16012700D02*
Y16087300D01*
X28041600Y16012700D02*
Y16087300D01*
X28067000Y16012700D02*
Y16087300D01*
X28412700Y17812700D02*
Y17887300D01*
X28487300*
Y17812700*
X28412700*
X28487300*
X28412700Y17838100D02*
X28487300D01*
X28412700Y17863500D02*
X28487300D01*
X28422600Y17812700D02*
Y17887300D01*
X28448000Y17812700D02*
Y17887300D01*
X28473400Y17812700D02*
Y17887300D01*
X28412700Y17612700D02*
Y17687300D01*
X28487300*
Y17612700*
X28412700*
X28487300*
X28412700Y17638100D02*
X28487300D01*
X28412700Y17663500D02*
X28487300D01*
X28422600Y17612700D02*
Y17687300D01*
X28448000Y17612700D02*
Y17687300D01*
X28473400Y17612700D02*
Y17687300D01*
X28012700Y20412700D02*
Y20487300D01*
X28087300*
Y20412700*
X28012700*
X28087300*
X28012700Y20438100D02*
X28087300D01*
X28012700Y20463500D02*
X28087300D01*
X28016200Y20412700D02*
Y20487300D01*
X28041600Y20412700D02*
Y20487300D01*
X28067000Y20412700D02*
Y20487300D01*
X28012700Y20212700D02*
Y20287300D01*
X28087300*
Y20212700*
X28012700*
X28087300*
X28012700Y20238100D02*
X28087300D01*
X28012700Y20263500D02*
X28087300D01*
X28016200Y20212700D02*
Y20287300D01*
X28041600Y20212700D02*
Y20287300D01*
X28067000Y20212700D02*
Y20287300D01*
X30587300Y22737300D02*
Y22662700D01*
X30512700*
Y22737300*
X30587300*
X30512700Y22662700D02*
X30587300D01*
X30512700Y22688100D02*
X30587300D01*
X30512700Y22713500D02*
X30587300D01*
X30530800Y22662700D02*
Y22737300D01*
X30556200Y22662700D02*
Y22737300D01*
X30581600Y22662700D02*
Y22737300D01*
X30587300Y22937300D02*
Y22862700D01*
X30512700*
Y22937300*
X30587300*
X30512700Y22862700D02*
X30587300D01*
X30512700Y22888100D02*
X30587300D01*
X30512700Y22913500D02*
X30587300D01*
X30530800Y22862700D02*
Y22937300D01*
X30556200Y22862700D02*
Y22937300D01*
X30581600Y22862700D02*
Y22937300D01*
X28412700Y22012700D02*
Y22087300D01*
X28487300*
Y22012700*
X28412700*
X28487300*
X28412700Y22038100D02*
X28487300D01*
X28412700Y22063500D02*
X28487300D01*
X28422600Y22012700D02*
Y22087300D01*
X28448000Y22012700D02*
Y22087300D01*
X28473400Y22012700D02*
Y22087300D01*
X28412700Y21812700D02*
Y21887300D01*
X28487300*
Y21812700*
X28412700*
X28487300*
X28412700Y21838100D02*
X28487300D01*
X28412700Y21863500D02*
X28487300D01*
X28422600Y21812700D02*
Y21887300D01*
X28448000Y21812700D02*
Y21887300D01*
X28473400Y21812700D02*
Y21887300D01*
X30662700Y24462700D02*
Y24537300D01*
X30737300*
Y24462700*
X30662700*
X30737300*
X30662700Y24488100D02*
X30737300D01*
X30662700Y24513500D02*
X30737300D01*
X30683200Y24462700D02*
Y24537300D01*
X30708600Y24462700D02*
Y24537300D01*
X30734000Y24462700D02*
Y24537300D01*
X30662700Y24262700D02*
Y24337300D01*
X30737300*
Y24262700*
X30662700*
X30737300*
X30662700Y24288100D02*
X30737300D01*
X30662700Y24313500D02*
X30737300D01*
X30683200Y24262700D02*
Y24337300D01*
X30708600Y24262700D02*
Y24337300D01*
X30734000Y24262700D02*
Y24337300D01*
X28212700Y17812700D02*
Y17887300D01*
X28287300*
Y17812700*
X28212700*
X28287300*
X28212700Y17838100D02*
X28287300D01*
X28212700Y17863500D02*
X28287300D01*
X28219400Y17812700D02*
Y17887300D01*
X28244800Y17812700D02*
Y17887300D01*
X28270200Y17812700D02*
Y17887300D01*
X28212700Y17612700D02*
Y17687300D01*
X28287300*
Y17612700*
X28212700*
X28287300*
X28212700Y17638100D02*
X28287300D01*
X28212700Y17663500D02*
X28287300D01*
X28219400Y17612700D02*
Y17687300D01*
X28244800Y17612700D02*
Y17687300D01*
X28270200Y17612700D02*
Y17687300D01*
X26037300Y21012700D02*
X25962700D01*
Y21087300*
X26037300*
Y21012700*
X25962700D02*
X26037300D01*
X25962700Y21038100D02*
X26037300D01*
X25962700Y21063500D02*
X26037300D01*
X25984200Y21012700D02*
Y21087300D01*
X26009600Y21012700D02*
Y21087300D01*
X26035000Y21012700D02*
Y21087300D01*
X26237300Y21012700D02*
X26162700D01*
Y21087300*
X26237300*
Y21012700*
X26162700D02*
X26237300D01*
X26162700Y21038100D02*
X26237300D01*
X26162700Y21063500D02*
X26237300D01*
X26187400Y21012700D02*
Y21087300D01*
X26212800Y21012700D02*
Y21087300D01*
X28212700Y22012700D02*
Y22087300D01*
X28287300*
Y22012700*
X28212700*
X28287300*
X28212700Y22038100D02*
X28287300D01*
X28212700Y22063500D02*
X28287300D01*
X28219400Y22012700D02*
Y22087300D01*
X28244800Y22012700D02*
Y22087300D01*
X28270200Y22012700D02*
Y22087300D01*
X28212700Y21812700D02*
Y21887300D01*
X28287300*
Y21812700*
X28212700*
X28287300*
X28212700Y21838100D02*
X28287300D01*
X28212700Y21863500D02*
X28287300D01*
X28219400Y21812700D02*
Y21887300D01*
X28244800Y21812700D02*
Y21887300D01*
X28270200Y21812700D02*
Y21887300D01*
X29437300Y16812700D02*
X29362700D01*
Y16887300*
X29437300*
Y16812700*
X29362700D02*
X29437300D01*
X29362700Y16838100D02*
X29437300D01*
X29362700Y16863500D02*
X29437300D01*
X29387800Y16812700D02*
Y16887300D01*
X29413200Y16812700D02*
Y16887300D01*
X29637300Y16812700D02*
X29562700D01*
Y16887300*
X29637300*
Y16812700*
X29562700D02*
X29637300D01*
X29562700Y16838100D02*
X29637300D01*
X29562700Y16863500D02*
X29637300D01*
X29565600Y16812700D02*
Y16887300D01*
X29591000Y16812700D02*
Y16887300D01*
X29616400Y16812700D02*
Y16887300D01*
X29437300Y21012700D02*
X29362700D01*
Y21087300*
X29437300*
Y21012700*
X29362700D02*
X29437300D01*
X29362700Y21038100D02*
X29437300D01*
X29362700Y21063500D02*
X29437300D01*
X29387800Y21012700D02*
Y21087300D01*
X29413200Y21012700D02*
Y21087300D01*
X29637300Y21012700D02*
X29562700D01*
Y21087300*
X29637300*
Y21012700*
X29562700D02*
X29637300D01*
X29562700Y21038100D02*
X29637300D01*
X29562700Y21063500D02*
X29637300D01*
X29565600Y21012700D02*
Y21087300D01*
X29591000Y21012700D02*
Y21087300D01*
X29616400Y21012700D02*
Y21087300D01*
X29712700Y16212700D02*
Y16287300D01*
X29787300*
Y16212700*
X29712700*
X29787300*
X29712700Y16238100D02*
X29787300D01*
X29712700Y16263500D02*
X29787300D01*
X29718000Y16212700D02*
Y16287300D01*
X29743400Y16212700D02*
Y16287300D01*
X29768800Y16212700D02*
Y16287300D01*
X29712700Y16012700D02*
Y16087300D01*
X29787300*
Y16012700*
X29712700*
X29787300*
X29712700Y16038100D02*
X29787300D01*
X29712700Y16063500D02*
X29787300D01*
X29718000Y16012700D02*
Y16087300D01*
X29743400Y16012700D02*
Y16087300D01*
X29768800Y16012700D02*
Y16087300D01*
X30112700Y17812700D02*
Y17887300D01*
X30187300*
Y17812700*
X30112700*
X30187300*
X30112700Y17838100D02*
X30187300D01*
X30112700Y17863500D02*
X30187300D01*
X30124400Y17812700D02*
Y17887300D01*
X30149800Y17812700D02*
Y17887300D01*
X30175200Y17812700D02*
Y17887300D01*
X30112700Y17612700D02*
Y17687300D01*
X30187300*
Y17612700*
X30112700*
X30187300*
X30112700Y17638100D02*
X30187300D01*
X30112700Y17663500D02*
X30187300D01*
X30124400Y17612700D02*
Y17687300D01*
X30149800Y17612700D02*
Y17687300D01*
X30175200Y17612700D02*
Y17687300D01*
X29712700Y20412700D02*
Y20487300D01*
X29787300*
Y20412700*
X29712700*
X29787300*
X29712700Y20438100D02*
X29787300D01*
X29712700Y20463500D02*
X29787300D01*
X29718000Y20412700D02*
Y20487300D01*
X29743400Y20412700D02*
Y20487300D01*
X29768800Y20412700D02*
Y20487300D01*
X29712700Y20212700D02*
Y20287300D01*
X29787300*
Y20212700*
X29712700*
X29787300*
X29712700Y20238100D02*
X29787300D01*
X29712700Y20263500D02*
X29787300D01*
X29718000Y20212700D02*
Y20287300D01*
X29743400Y20212700D02*
Y20287300D01*
X29768800Y20212700D02*
Y20287300D01*
X30112700Y22012700D02*
Y22087300D01*
X30187300*
Y22012700*
X30112700*
X30187300*
X30112700Y22038100D02*
X30187300D01*
X30112700Y22063500D02*
X30187300D01*
X30124400Y22012700D02*
Y22087300D01*
X30149800Y22012700D02*
Y22087300D01*
X30175200Y22012700D02*
Y22087300D01*
X30112700Y21812700D02*
Y21887300D01*
X30187300*
Y21812700*
X30112700*
X30187300*
X30112700Y21838100D02*
X30187300D01*
X30112700Y21863500D02*
X30187300D01*
X30124400Y21812700D02*
Y21887300D01*
X30149800Y21812700D02*
Y21887300D01*
X30175200Y21812700D02*
Y21887300D01*
X30412700Y24462700D02*
Y24537300D01*
X30487300*
Y24462700*
X30412700*
X30487300*
X30412700Y24488100D02*
X30487300D01*
X30412700Y24513500D02*
X30487300D01*
X30429200Y24462700D02*
Y24537300D01*
X30454600Y24462700D02*
Y24537300D01*
X30480000Y24462700D02*
Y24537300D01*
X30412700Y24262700D02*
Y24337300D01*
X30487300*
Y24262700*
X30412700*
X30487300*
X30412700Y24288100D02*
X30487300D01*
X30412700Y24313500D02*
X30487300D01*
X30429200Y24262700D02*
Y24337300D01*
X30454600Y24262700D02*
Y24337300D01*
X30480000Y24262700D02*
Y24337300D01*
X30162700Y24462700D02*
Y24537300D01*
X30237300*
Y24462700*
X30162700*
X30237300*
X30162700Y24488100D02*
X30237300D01*
X30162700Y24513500D02*
X30237300D01*
X30175200Y24462700D02*
Y24537300D01*
X30200600Y24462700D02*
Y24537300D01*
X30226000Y24462700D02*
Y24537300D01*
X30162700Y24262700D02*
Y24337300D01*
X30237300*
Y24262700*
X30162700*
X30237300*
X30162700Y24288100D02*
X30237300D01*
X30162700Y24313500D02*
X30237300D01*
X30175200Y24262700D02*
Y24337300D01*
X30200600Y24262700D02*
Y24337300D01*
X30226000Y24262700D02*
Y24337300D01*
X29912700Y17812700D02*
Y17887300D01*
X29987300*
Y17812700*
X29912700*
X29987300*
X29912700Y17838100D02*
X29987300D01*
X29912700Y17863500D02*
X29987300D01*
X29921200Y17812700D02*
Y17887300D01*
X29946600Y17812700D02*
Y17887300D01*
X29972000Y17812700D02*
Y17887300D01*
X29912700Y17612700D02*
Y17687300D01*
X29987300*
Y17612700*
X29912700*
X29987300*
X29912700Y17638100D02*
X29987300D01*
X29912700Y17663500D02*
X29987300D01*
X29921200Y17612700D02*
Y17687300D01*
X29946600Y17612700D02*
Y17687300D01*
X29972000Y17612700D02*
Y17687300D01*
X26312700Y16212700D02*
Y16287300D01*
X26387300*
Y16212700*
X26312700*
X26387300*
X26312700Y16238100D02*
X26387300D01*
X26312700Y16263500D02*
X26387300D01*
X26314400Y16212700D02*
Y16287300D01*
X26339800Y16212700D02*
Y16287300D01*
X26365200Y16212700D02*
Y16287300D01*
X26312700Y16012700D02*
Y16087300D01*
X26387300*
Y16012700*
X26312700*
X26387300*
X26312700Y16038100D02*
X26387300D01*
X26312700Y16063500D02*
X26387300D01*
X26314400Y16012700D02*
Y16087300D01*
X26339800Y16012700D02*
Y16087300D01*
X26365200Y16012700D02*
Y16087300D01*
X29912700Y22012700D02*
Y22087300D01*
X29987300*
Y22012700*
X29912700*
X29987300*
X29912700Y22038100D02*
X29987300D01*
X29912700Y22063500D02*
X29987300D01*
X29921200Y22012700D02*
Y22087300D01*
X29946600Y22012700D02*
Y22087300D01*
X29972000Y22012700D02*
Y22087300D01*
X29912700Y21812700D02*
Y21887300D01*
X29987300*
Y21812700*
X29912700*
X29987300*
X29912700Y21838100D02*
X29987300D01*
X29912700Y21863500D02*
X29987300D01*
X29921200Y21812700D02*
Y21887300D01*
X29946600Y21812700D02*
Y21887300D01*
X29972000Y21812700D02*
Y21887300D01*
X31137300Y16812700D02*
X31062700D01*
Y16887300*
X31137300*
Y16812700*
X31062700D02*
X31137300D01*
X31062700Y16838100D02*
X31137300D01*
X31062700Y16863500D02*
X31137300D01*
X31064200Y16812700D02*
Y16887300D01*
X31089600Y16812700D02*
Y16887300D01*
X31115000Y16812700D02*
Y16887300D01*
X31337300Y16812700D02*
X31262700D01*
Y16887300*
X31337300*
Y16812700*
X31262700D02*
X31337300D01*
X31262700Y16838100D02*
X31337300D01*
X31262700Y16863500D02*
X31337300D01*
X31267400Y16812700D02*
Y16887300D01*
X31292800Y16812700D02*
Y16887300D01*
X31318200Y16812700D02*
Y16887300D01*
X31137300Y21012700D02*
X31062700D01*
Y21087300*
X31137300*
Y21012700*
X31062700D02*
X31137300D01*
X31062700Y21038100D02*
X31137300D01*
X31062700Y21063500D02*
X31137300D01*
X31064200Y21012700D02*
Y21087300D01*
X31089600Y21012700D02*
Y21087300D01*
X31115000Y21012700D02*
Y21087300D01*
X31337300Y21012700D02*
X31262700D01*
Y21087300*
X31337300*
Y21012700*
X31262700D02*
X31337300D01*
X31262700Y21038100D02*
X31337300D01*
X31262700Y21063500D02*
X31337300D01*
X31267400Y21012700D02*
Y21087300D01*
X31292800Y21012700D02*
Y21087300D01*
X31318200Y21012700D02*
Y21087300D01*
X31412700Y16212700D02*
Y16287300D01*
X31487300*
Y16212700*
X31412700*
X31487300*
X31412700Y16238100D02*
X31487300D01*
X31412700Y16263500D02*
X31487300D01*
X31419800Y16212700D02*
Y16287300D01*
X31445200Y16212700D02*
Y16287300D01*
X31470600Y16212700D02*
Y16287300D01*
X31412700Y16012700D02*
Y16087300D01*
X31487300*
Y16012700*
X31412700*
X31487300*
X31412700Y16038100D02*
X31487300D01*
X31412700Y16063500D02*
X31487300D01*
X31419800Y16012700D02*
Y16087300D01*
X31445200Y16012700D02*
Y16087300D01*
X31470600Y16012700D02*
Y16087300D01*
X31812700Y17812700D02*
Y17887300D01*
X31887300*
Y17812700*
X31812700*
X31887300*
X31812700Y17838100D02*
X31887300D01*
X31812700Y17863500D02*
X31887300D01*
X31826200Y17812700D02*
Y17887300D01*
X31851600Y17812700D02*
Y17887300D01*
X31877000Y17812700D02*
Y17887300D01*
X31812700Y17612700D02*
Y17687300D01*
X31887300*
Y17612700*
X31812700*
X31887300*
X31812700Y17638100D02*
X31887300D01*
X31812700Y17663500D02*
X31887300D01*
X31826200Y17612700D02*
Y17687300D01*
X31851600Y17612700D02*
Y17687300D01*
X31877000Y17612700D02*
Y17687300D01*
X31412700Y20412700D02*
Y20487300D01*
X31487300*
Y20412700*
X31412700*
X31487300*
X31412700Y20438100D02*
X31487300D01*
X31412700Y20463500D02*
X31487300D01*
X31419800Y20412700D02*
Y20487300D01*
X31445200Y20412700D02*
Y20487300D01*
X31470600Y20412700D02*
Y20487300D01*
X31412700Y20212700D02*
Y20287300D01*
X31487300*
Y20212700*
X31412700*
X31487300*
X31412700Y20238100D02*
X31487300D01*
X31412700Y20263500D02*
X31487300D01*
X31419800Y20212700D02*
Y20287300D01*
X31445200Y20212700D02*
Y20287300D01*
X31470600Y20212700D02*
Y20287300D01*
X31812700Y22012700D02*
Y22087300D01*
X31887300*
Y22012700*
X31812700*
X31887300*
X31812700Y22038100D02*
X31887300D01*
X31812700Y22063500D02*
X31887300D01*
X31826200Y22012700D02*
Y22087300D01*
X31851600Y22012700D02*
Y22087300D01*
X31877000Y22012700D02*
Y22087300D01*
X31812700Y21812700D02*
Y21887300D01*
X31887300*
Y21812700*
X31812700*
X31887300*
X31812700Y21838100D02*
X31887300D01*
X31812700Y21863500D02*
X31887300D01*
X31826200Y21812700D02*
Y21887300D01*
X31851600Y21812700D02*
Y21887300D01*
X31877000Y21812700D02*
Y21887300D01*
X31887300Y22737300D02*
Y22662700D01*
X31812700*
Y22737300*
X31887300*
X31812700Y22662700D02*
X31887300D01*
X31812700Y22688100D02*
X31887300D01*
X31812700Y22713500D02*
X31887300D01*
X31826200Y22662700D02*
Y22737300D01*
X31851600Y22662700D02*
Y22737300D01*
X31877000Y22662700D02*
Y22737300D01*
X31887300Y22937300D02*
Y22862700D01*
X31812700*
Y22937300*
X31887300*
X31812700Y22862700D02*
X31887300D01*
X31812700Y22888100D02*
X31887300D01*
X31812700Y22913500D02*
X31887300D01*
X31826200Y22862700D02*
Y22937300D01*
X31851600Y22862700D02*
Y22937300D01*
X31877000Y22862700D02*
Y22937300D01*
X32137300Y22737300D02*
Y22662700D01*
X32062700*
Y22737300*
X32137300*
X32062700Y22662700D02*
X32137300D01*
X32062700Y22688100D02*
X32137300D01*
X32062700Y22713500D02*
X32137300D01*
X32080200Y22662700D02*
Y22737300D01*
X32105600Y22662700D02*
Y22737300D01*
X32131000Y22662700D02*
Y22737300D01*
X32137300Y22937300D02*
Y22862700D01*
X32062700*
Y22937300*
X32137300*
X32062700Y22862700D02*
X32137300D01*
X32062700Y22888100D02*
X32137300D01*
X32062700Y22913500D02*
X32137300D01*
X32080200Y22862700D02*
Y22937300D01*
X32105600Y22862700D02*
Y22937300D01*
X32131000Y22862700D02*
Y22937300D01*
X31612700Y17812700D02*
Y17887300D01*
X31687300*
Y17812700*
X31612700*
X31687300*
X31612700Y17838100D02*
X31687300D01*
X31612700Y17863500D02*
X31687300D01*
X31623000Y17812700D02*
Y17887300D01*
X31648400Y17812700D02*
Y17887300D01*
X31673800Y17812700D02*
Y17887300D01*
X31612700Y17612700D02*
Y17687300D01*
X31687300*
Y17612700*
X31612700*
X31687300*
X31612700Y17638100D02*
X31687300D01*
X31612700Y17663500D02*
X31687300D01*
X31623000Y17612700D02*
Y17687300D01*
X31648400Y17612700D02*
Y17687300D01*
X31673800Y17612700D02*
Y17687300D01*
X26712700Y17812700D02*
Y17887300D01*
X26787300*
Y17812700*
X26712700*
X26787300*
X26712700Y17838100D02*
X26787300D01*
X26712700Y17863500D02*
X26787300D01*
X26720800Y17812700D02*
Y17887300D01*
X26746200Y17812700D02*
Y17887300D01*
X26771600Y17812700D02*
Y17887300D01*
X26712700Y17612700D02*
Y17687300D01*
X26787300*
Y17612700*
X26712700*
X26787300*
X26712700Y17638100D02*
X26787300D01*
X26712700Y17663500D02*
X26787300D01*
X26720800Y17612700D02*
Y17687300D01*
X26746200Y17612700D02*
Y17687300D01*
X26771600Y17612700D02*
Y17687300D01*
X31612700Y22012700D02*
Y22087300D01*
X31687300*
Y22012700*
X31612700*
X31687300*
X31612700Y22038100D02*
X31687300D01*
X31612700Y22063500D02*
X31687300D01*
X31623000Y22012700D02*
Y22087300D01*
X31648400Y22012700D02*
Y22087300D01*
X31673800Y22012700D02*
Y22087300D01*
X31612700Y21812700D02*
Y21887300D01*
X31687300*
Y21812700*
X31612700*
X31687300*
X31612700Y21838100D02*
X31687300D01*
X31612700Y21863500D02*
X31687300D01*
X31623000Y21812700D02*
Y21887300D01*
X31648400Y21812700D02*
Y21887300D01*
X31673800Y21812700D02*
Y21887300D01*
X32837300Y16812700D02*
X32762700D01*
Y16887300*
X32837300*
Y16812700*
X32762700D02*
X32837300D01*
X32762700Y16838100D02*
X32837300D01*
X32762700Y16863500D02*
X32837300D01*
X32766000Y16812700D02*
Y16887300D01*
X32791400Y16812700D02*
Y16887300D01*
X32816800Y16812700D02*
Y16887300D01*
X33037300Y16812700D02*
X32962700D01*
Y16887300*
X33037300*
Y16812700*
X32962700D02*
X33037300D01*
X32962700Y16838100D02*
X33037300D01*
X32962700Y16863500D02*
X33037300D01*
X32969200Y16812700D02*
Y16887300D01*
X32994600Y16812700D02*
Y16887300D01*
X33020000Y16812700D02*
Y16887300D01*
X32837300Y21012700D02*
X32762700D01*
Y21087300*
X32837300*
Y21012700*
X32762700D02*
X32837300D01*
X32762700Y21038100D02*
X32837300D01*
X32762700Y21063500D02*
X32837300D01*
X32766000Y21012700D02*
Y21087300D01*
X32791400Y21012700D02*
Y21087300D01*
X32816800Y21012700D02*
Y21087300D01*
X33037300Y21012700D02*
X32962700D01*
Y21087300*
X33037300*
Y21012700*
X32962700D02*
X33037300D01*
X32962700Y21038100D02*
X33037300D01*
X32962700Y21063500D02*
X33037300D01*
X32969200Y21012700D02*
Y21087300D01*
X32994600Y21012700D02*
Y21087300D01*
X33020000Y21012700D02*
Y21087300D01*
X33112700Y16212700D02*
Y16287300D01*
X33187300*
Y16212700*
X33112700*
X33187300*
X33112700Y16238100D02*
X33187300D01*
X33112700Y16263500D02*
X33187300D01*
X33121600Y16212700D02*
Y16287300D01*
X33147000Y16212700D02*
Y16287300D01*
X33172400Y16212700D02*
Y16287300D01*
X33112700Y16012700D02*
Y16087300D01*
X33187300*
Y16012700*
X33112700*
X33187300*
X33112700Y16038100D02*
X33187300D01*
X33112700Y16063500D02*
X33187300D01*
X33121600Y16012700D02*
Y16087300D01*
X33147000Y16012700D02*
Y16087300D01*
X33172400Y16012700D02*
Y16087300D01*
X33512700Y17812700D02*
Y17887300D01*
X33587300*
Y17812700*
X33512700*
X33587300*
X33512700Y17838100D02*
X33587300D01*
X33512700Y17863500D02*
X33587300D01*
X33528000Y17812700D02*
Y17887300D01*
X33553400Y17812700D02*
Y17887300D01*
X33578800Y17812700D02*
Y17887300D01*
X33512700Y17612700D02*
Y17687300D01*
X33587300*
Y17612700*
X33512700*
X33587300*
X33512700Y17638100D02*
X33587300D01*
X33512700Y17663500D02*
X33587300D01*
X33528000Y17612700D02*
Y17687300D01*
X33553400Y17612700D02*
Y17687300D01*
X33578800Y17612700D02*
Y17687300D01*
X33512700Y22012700D02*
Y22087300D01*
X33587300*
Y22012700*
X33512700*
X33587300*
X33512700Y22038100D02*
X33587300D01*
X33512700Y22063500D02*
X33587300D01*
X33528000Y22012700D02*
Y22087300D01*
X33553400Y22012700D02*
Y22087300D01*
X33578800Y22012700D02*
Y22087300D01*
X33512700Y21812700D02*
Y21887300D01*
X33587300*
Y21812700*
X33512700*
X33587300*
X33512700Y21838100D02*
X33587300D01*
X33512700Y21863500D02*
X33587300D01*
X33528000Y21812700D02*
Y21887300D01*
X33553400Y21812700D02*
Y21887300D01*
X33578800Y21812700D02*
Y21887300D01*
X32387300Y22737300D02*
Y22662700D01*
X32312700*
Y22737300*
X32387300*
X32312700Y22662700D02*
X32387300D01*
X32312700Y22688100D02*
X32387300D01*
X32312700Y22713500D02*
X32387300D01*
X32334200Y22662700D02*
Y22737300D01*
X32359600Y22662700D02*
Y22737300D01*
X32385000Y22662700D02*
Y22737300D01*
X32387300Y22937300D02*
Y22862700D01*
X32312700*
Y22937300*
X32387300*
X32312700Y22862700D02*
X32387300D01*
X32312700Y22888100D02*
X32387300D01*
X32312700Y22913500D02*
X32387300D01*
X32334200Y22862700D02*
Y22937300D01*
X32359600Y22862700D02*
Y22937300D01*
X32385000Y22862700D02*
Y22937300D01*
X33112700Y20412700D02*
Y20487300D01*
X33187300*
Y20412700*
X33112700*
X33187300*
X33112700Y20438100D02*
X33187300D01*
X33112700Y20463500D02*
X33187300D01*
X33121600Y20412700D02*
Y20487300D01*
X33147000Y20412700D02*
Y20487300D01*
X33172400Y20412700D02*
Y20487300D01*
X33112700Y20212700D02*
Y20287300D01*
X33187300*
Y20212700*
X33112700*
X33187300*
X33112700Y20238100D02*
X33187300D01*
X33112700Y20263500D02*
X33187300D01*
X33121600Y20212700D02*
Y20287300D01*
X33147000Y20212700D02*
Y20287300D01*
X33172400Y20212700D02*
Y20287300D01*
X32462700Y24462700D02*
Y24537300D01*
X32537300*
Y24462700*
X32462700*
X32537300*
X32462700Y24488100D02*
X32537300D01*
X32462700Y24513500D02*
X32537300D01*
X32486600Y24462700D02*
Y24537300D01*
X32512000Y24462700D02*
Y24537300D01*
X32462700Y24262700D02*
Y24337300D01*
X32537300*
Y24262700*
X32462700*
X32537300*
X32462700Y24288100D02*
X32537300D01*
X32462700Y24313500D02*
X32537300D01*
X32486600Y24262700D02*
Y24337300D01*
X32512000Y24262700D02*
Y24337300D01*
X33312700Y17812700D02*
Y17887300D01*
X33387300*
Y17812700*
X33312700*
X33387300*
X33312700Y17838100D02*
X33387300D01*
X33312700Y17863500D02*
X33387300D01*
X33324800Y17812700D02*
Y17887300D01*
X33350200Y17812700D02*
Y17887300D01*
X33375600Y17812700D02*
Y17887300D01*
X33312700Y17612700D02*
Y17687300D01*
X33387300*
Y17612700*
X33312700*
X33387300*
X33312700Y17638100D02*
X33387300D01*
X33312700Y17663500D02*
X33387300D01*
X33324800Y17612700D02*
Y17687300D01*
X33350200Y17612700D02*
Y17687300D01*
X33375600Y17612700D02*
Y17687300D01*
X26312700Y20412700D02*
Y20487300D01*
X26387300*
Y20412700*
X26312700*
X26387300*
X26312700Y20438100D02*
X26387300D01*
X26312700Y20463500D02*
X26387300D01*
X26314400Y20412700D02*
Y20487300D01*
X26339800Y20412700D02*
Y20487300D01*
X26365200Y20412700D02*
Y20487300D01*
X26312700Y20212700D02*
Y20287300D01*
X26387300*
Y20212700*
X26312700*
X26387300*
X26312700Y20238100D02*
X26387300D01*
X26312700Y20263500D02*
X26387300D01*
X26314400Y20212700D02*
Y20287300D01*
X26339800Y20212700D02*
Y20287300D01*
X26365200Y20212700D02*
Y20287300D01*
X33312700Y22012700D02*
Y22087300D01*
X33387300*
Y22012700*
X33312700*
X33387300*
X33312700Y22038100D02*
X33387300D01*
X33312700Y22063500D02*
X33387300D01*
X33324800Y22012700D02*
Y22087300D01*
X33350200Y22012700D02*
Y22087300D01*
X33375600Y22012700D02*
Y22087300D01*
X33312700Y21812700D02*
Y21887300D01*
X33387300*
Y21812700*
X33312700*
X33387300*
X33312700Y21838100D02*
X33387300D01*
X33312700Y21863500D02*
X33387300D01*
X33324800Y21812700D02*
Y21887300D01*
X33350200Y21812700D02*
Y21887300D01*
X33375600Y21812700D02*
Y21887300D01*
X34537300Y16812700D02*
X34462700D01*
Y16887300*
X34537300*
Y16812700*
X34462700D02*
X34537300D01*
X34462700Y16838100D02*
X34537300D01*
X34462700Y16863500D02*
X34537300D01*
X34467800Y16812700D02*
Y16887300D01*
X34493200Y16812700D02*
Y16887300D01*
X34518600Y16812700D02*
Y16887300D01*
X34737300Y16812700D02*
X34662700D01*
Y16887300*
X34737300*
Y16812700*
X34662700D02*
X34737300D01*
X34662700Y16838100D02*
X34737300D01*
X34662700Y16863500D02*
X34737300D01*
X34671000Y16812700D02*
Y16887300D01*
X34696400Y16812700D02*
Y16887300D01*
X34721800Y16812700D02*
Y16887300D01*
X34537300Y21012700D02*
X34462700D01*
Y21087300*
X34537300*
Y21012700*
X34462700D02*
X34537300D01*
X34462700Y21038100D02*
X34537300D01*
X34462700Y21063500D02*
X34537300D01*
X34467800Y21012700D02*
Y21087300D01*
X34493200Y21012700D02*
Y21087300D01*
X34518600Y21012700D02*
Y21087300D01*
X34737300Y21012700D02*
X34662700D01*
Y21087300*
X34737300*
Y21012700*
X34662700D02*
X34737300D01*
X34662700Y21038100D02*
X34737300D01*
X34662700Y21063500D02*
X34737300D01*
X34671000Y21012700D02*
Y21087300D01*
X34696400Y21012700D02*
Y21087300D01*
X34721800Y21012700D02*
Y21087300D01*
X34812700Y16212700D02*
Y16287300D01*
X34887300*
Y16212700*
X34812700*
X34887300*
X34812700Y16238100D02*
X34887300D01*
X34812700Y16263500D02*
X34887300D01*
X34823400Y16212700D02*
Y16287300D01*
X34848800Y16212700D02*
Y16287300D01*
X34874200Y16212700D02*
Y16287300D01*
X34812700Y16012700D02*
Y16087300D01*
X34887300*
Y16012700*
X34812700*
X34887300*
X34812700Y16038100D02*
X34887300D01*
X34812700Y16063500D02*
X34887300D01*
X34823400Y16012700D02*
Y16087300D01*
X34848800Y16012700D02*
Y16087300D01*
X34874200Y16012700D02*
Y16087300D01*
X35212700Y17812700D02*
Y17887300D01*
X35287300*
Y17812700*
X35212700*
X35287300*
X35212700Y17838100D02*
X35287300D01*
X35212700Y17863500D02*
X35287300D01*
X35229800Y17812700D02*
Y17887300D01*
X35255200Y17812700D02*
Y17887300D01*
X35280600Y17812700D02*
Y17887300D01*
X35212700Y17612700D02*
Y17687300D01*
X35287300*
Y17612700*
X35212700*
X35287300*
X35212700Y17638100D02*
X35287300D01*
X35212700Y17663500D02*
X35287300D01*
X35229800Y17612700D02*
Y17687300D01*
X35255200Y17612700D02*
Y17687300D01*
X35280600Y17612700D02*
Y17687300D01*
X34812700Y20412700D02*
Y20487300D01*
X34887300*
Y20412700*
X34812700*
X34887300*
X34812700Y20438100D02*
X34887300D01*
X34812700Y20463500D02*
X34887300D01*
X34823400Y20412700D02*
Y20487300D01*
X34848800Y20412700D02*
Y20487300D01*
X34874200Y20412700D02*
Y20487300D01*
X34812700Y20212700D02*
Y20287300D01*
X34887300*
Y20212700*
X34812700*
X34887300*
X34812700Y20238100D02*
X34887300D01*
X34812700Y20263500D02*
X34887300D01*
X34823400Y20212700D02*
Y20287300D01*
X34848800Y20212700D02*
Y20287300D01*
X34874200Y20212700D02*
Y20287300D01*
X32212700Y24462700D02*
Y24537300D01*
X32287300*
Y24462700*
X32212700*
X32287300*
X32212700Y24488100D02*
X32287300D01*
X32212700Y24513500D02*
X32287300D01*
X32232600Y24462700D02*
Y24537300D01*
X32258000Y24462700D02*
Y24537300D01*
X32283400Y24462700D02*
Y24537300D01*
X32212700Y24262700D02*
Y24337300D01*
X32287300*
Y24262700*
X32212700*
X32287300*
X32212700Y24288100D02*
X32287300D01*
X32212700Y24313500D02*
X32287300D01*
X32232600Y24262700D02*
Y24337300D01*
X32258000Y24262700D02*
Y24337300D01*
X32283400Y24262700D02*
Y24337300D01*
X35212700Y22012700D02*
Y22087300D01*
X35287300*
Y22012700*
X35212700*
X35287300*
X35212700Y22038100D02*
X35287300D01*
X35212700Y22063500D02*
X35287300D01*
X35229800Y22012700D02*
Y22087300D01*
X35255200Y22012700D02*
Y22087300D01*
X35280600Y22012700D02*
Y22087300D01*
X35212700Y21812700D02*
Y21887300D01*
X35287300*
Y21812700*
X35212700*
X35287300*
X35212700Y21838100D02*
X35287300D01*
X35212700Y21863500D02*
X35287300D01*
X35229800Y21812700D02*
Y21887300D01*
X35255200Y21812700D02*
Y21887300D01*
X35280600Y21812700D02*
Y21887300D01*
X31972700Y24462700D02*
Y24537300D01*
X32047300*
Y24462700*
X31972700*
X32047300*
X31972700Y24488100D02*
X32047300D01*
X31972700Y24513500D02*
X32047300D01*
X31978600Y24462700D02*
Y24537300D01*
X32004000Y24462700D02*
Y24537300D01*
X32029400Y24462700D02*
Y24537300D01*
X31972700Y24262700D02*
Y24337300D01*
X32047300*
Y24262700*
X31972700*
X32047300*
X31972700Y24288100D02*
X32047300D01*
X31972700Y24313500D02*
X32047300D01*
X31978600Y24262700D02*
Y24337300D01*
X32004000Y24262700D02*
Y24337300D01*
X32029400Y24262700D02*
Y24337300D01*
X35012700Y17812700D02*
Y17887300D01*
X35087300*
Y17812700*
X35012700*
X35087300*
X35012700Y17838100D02*
X35087300D01*
X35012700Y17863500D02*
X35087300D01*
X35026600Y17812700D02*
Y17887300D01*
X35052000Y17812700D02*
Y17887300D01*
X35077400Y17812700D02*
Y17887300D01*
X35012700Y17612700D02*
Y17687300D01*
X35087300*
Y17612700*
X35012700*
X35087300*
X35012700Y17638100D02*
X35087300D01*
X35012700Y17663500D02*
X35087300D01*
X35026600Y17612700D02*
Y17687300D01*
X35052000Y17612700D02*
Y17687300D01*
X35077400Y17612700D02*
Y17687300D01*
X26712700Y22012700D02*
Y22087300D01*
X26787300*
Y22012700*
X26712700*
X26787300*
X26712700Y22038100D02*
X26787300D01*
X26712700Y22063500D02*
X26787300D01*
X26720800Y22012700D02*
Y22087300D01*
X26746200Y22012700D02*
Y22087300D01*
X26771600Y22012700D02*
Y22087300D01*
X26712700Y21812700D02*
Y21887300D01*
X26787300*
Y21812700*
X26712700*
X26787300*
X26712700Y21838100D02*
X26787300D01*
X26712700Y21863500D02*
X26787300D01*
X26720800Y21812700D02*
Y21887300D01*
X26746200Y21812700D02*
Y21887300D01*
X26771600Y21812700D02*
Y21887300D01*
X35012700Y22012700D02*
Y22087300D01*
X35087300*
Y22012700*
X35012700*
X35087300*
X35012700Y22038100D02*
X35087300D01*
X35012700Y22063500D02*
X35087300D01*
X35026600Y22012700D02*
Y22087300D01*
X35052000Y22012700D02*
Y22087300D01*
X35077400Y22012700D02*
Y22087300D01*
X35012700Y21812700D02*
Y21887300D01*
X35087300*
Y21812700*
X35012700*
X35087300*
X35012700Y21838100D02*
X35087300D01*
X35012700Y21863500D02*
X35087300D01*
X35026600Y21812700D02*
Y21887300D01*
X35052000Y21812700D02*
Y21887300D01*
X35077400Y21812700D02*
Y21887300D01*
X36237300Y16812700D02*
X36162700D01*
Y16887300*
X36237300*
Y16812700*
X36162700D02*
X36237300D01*
X36162700Y16838100D02*
X36237300D01*
X36162700Y16863500D02*
X36237300D01*
X36169600Y16812700D02*
Y16887300D01*
X36195000Y16812700D02*
Y16887300D01*
X36220400Y16812700D02*
Y16887300D01*
X36437300Y16812700D02*
X36362700D01*
Y16887300*
X36437300*
Y16812700*
X36362700D02*
X36437300D01*
X36362700Y16838100D02*
X36437300D01*
X36362700Y16863500D02*
X36437300D01*
X36372800Y16812700D02*
Y16887300D01*
X36398200Y16812700D02*
Y16887300D01*
X36423600Y16812700D02*
Y16887300D01*
X36237300Y21012700D02*
X36162700D01*
Y21087300*
X36237300*
Y21012700*
X36162700D02*
X36237300D01*
X36162700Y21038100D02*
X36237300D01*
X36162700Y21063500D02*
X36237300D01*
X36169600Y21012700D02*
Y21087300D01*
X36195000Y21012700D02*
Y21087300D01*
X36220400Y21012700D02*
Y21087300D01*
X36437300Y21012700D02*
X36362700D01*
Y21087300*
X36437300*
Y21012700*
X36362700D02*
X36437300D01*
X36362700Y21038100D02*
X36437300D01*
X36362700Y21063500D02*
X36437300D01*
X36372800Y21012700D02*
Y21087300D01*
X36398200Y21012700D02*
Y21087300D01*
X36423600Y21012700D02*
Y21087300D01*
X36512700Y16212700D02*
Y16287300D01*
X36587300*
Y16212700*
X36512700*
X36587300*
X36512700Y16238100D02*
X36587300D01*
X36512700Y16263500D02*
X36587300D01*
X36525200Y16212700D02*
Y16287300D01*
X36550600Y16212700D02*
Y16287300D01*
X36576000Y16212700D02*
Y16287300D01*
X36512700Y16012700D02*
Y16087300D01*
X36587300*
Y16012700*
X36512700*
X36587300*
X36512700Y16038100D02*
X36587300D01*
X36512700Y16063500D02*
X36587300D01*
X36525200Y16012700D02*
Y16087300D01*
X36550600Y16012700D02*
Y16087300D01*
X36576000Y16012700D02*
Y16087300D01*
X36912700Y17812700D02*
Y17887300D01*
X36987300*
Y17812700*
X36912700*
X36987300*
X36912700Y17838100D02*
X36987300D01*
X36912700Y17863500D02*
X36987300D01*
X36931600Y17812700D02*
Y17887300D01*
X36957000Y17812700D02*
Y17887300D01*
X36982400Y17812700D02*
Y17887300D01*
X36912700Y17612700D02*
Y17687300D01*
X36987300*
Y17612700*
X36912700*
X36987300*
X36912700Y17638100D02*
X36987300D01*
X36912700Y17663500D02*
X36987300D01*
X36931600Y17612700D02*
Y17687300D01*
X36957000Y17612700D02*
Y17687300D01*
X36982400Y17612700D02*
Y17687300D01*
X36912700Y22012700D02*
Y22087300D01*
X36987300*
Y22012700*
X36912700*
X36987300*
X36912700Y22038100D02*
X36987300D01*
X36912700Y22063500D02*
X36987300D01*
X36931600Y22012700D02*
Y22087300D01*
X36957000Y22012700D02*
Y22087300D01*
X36982400Y22012700D02*
Y22087300D01*
X36912700Y21812700D02*
Y21887300D01*
X36987300*
Y21812700*
X36912700*
X36987300*
X36912700Y21838100D02*
X36987300D01*
X36912700Y21863500D02*
X36987300D01*
X36931600Y21812700D02*
Y21887300D01*
X36957000Y21812700D02*
Y21887300D01*
X36982400Y21812700D02*
Y21887300D01*
X33687300Y22737300D02*
Y22662700D01*
X33612700*
Y22737300*
X33687300*
X33612700Y22662700D02*
X33687300D01*
X33612700Y22688100D02*
X33687300D01*
X33612700Y22713500D02*
X33687300D01*
X33629600Y22662700D02*
Y22737300D01*
X33655000Y22662700D02*
Y22737300D01*
X33680400Y22662700D02*
Y22737300D01*
X33687300Y22937300D02*
Y22862700D01*
X33612700*
Y22937300*
X33687300*
X33612700Y22862700D02*
X33687300D01*
X33612700Y22888100D02*
X33687300D01*
X33612700Y22913500D02*
X33687300D01*
X33629600Y22862700D02*
Y22937300D01*
X33655000Y22862700D02*
Y22937300D01*
X33680400Y22862700D02*
Y22937300D01*
X36512700Y20412700D02*
Y20487300D01*
X36587300*
Y20412700*
X36512700*
X36587300*
X36512700Y20438100D02*
X36587300D01*
X36512700Y20463500D02*
X36587300D01*
X36525200Y20412700D02*
Y20487300D01*
X36550600Y20412700D02*
Y20487300D01*
X36576000Y20412700D02*
Y20487300D01*
X36512700Y20212700D02*
Y20287300D01*
X36587300*
Y20212700*
X36512700*
X36587300*
X36512700Y20238100D02*
X36587300D01*
X36512700Y20263500D02*
X36587300D01*
X36525200Y20212700D02*
Y20287300D01*
X36550600Y20212700D02*
Y20287300D01*
X36576000Y20212700D02*
Y20287300D01*
X33937300Y22737300D02*
Y22662700D01*
X33862700*
Y22737300*
X33937300*
X33862700Y22662700D02*
X33937300D01*
X33862700Y22688100D02*
X33937300D01*
X33862700Y22713500D02*
X33937300D01*
X33883600Y22662700D02*
Y22737300D01*
X33909000Y22662700D02*
Y22737300D01*
X33934400Y22662700D02*
Y22737300D01*
X33937300Y22937300D02*
Y22862700D01*
X33862700*
Y22937300*
X33937300*
X33862700Y22862700D02*
X33937300D01*
X33862700Y22888100D02*
X33937300D01*
X33862700Y22913500D02*
X33937300D01*
X33883600Y22862700D02*
Y22937300D01*
X33909000Y22862700D02*
Y22937300D01*
X33934400Y22862700D02*
Y22937300D01*
X36712700Y17812700D02*
Y17887300D01*
X36787300*
Y17812700*
X36712700*
X36787300*
X36712700Y17838100D02*
X36787300D01*
X36712700Y17863500D02*
X36787300D01*
X36728400Y17812700D02*
Y17887300D01*
X36753800Y17812700D02*
Y17887300D01*
X36779200Y17812700D02*
Y17887300D01*
X36712700Y17612700D02*
Y17687300D01*
X36787300*
Y17612700*
X36712700*
X36787300*
X36712700Y17638100D02*
X36787300D01*
X36712700Y17663500D02*
X36787300D01*
X36728400Y17612700D02*
Y17687300D01*
X36753800Y17612700D02*
Y17687300D01*
X36779200Y17612700D02*
Y17687300D01*
X30087300Y22737300D02*
Y22662700D01*
X30012700*
Y22737300*
X30087300*
X30012700Y22662700D02*
X30087300D01*
X30012700Y22688100D02*
X30087300D01*
X30012700Y22713500D02*
X30087300D01*
X30022800Y22662700D02*
Y22737300D01*
X30048200Y22662700D02*
Y22737300D01*
X30073600Y22662700D02*
Y22737300D01*
X30087300Y22937300D02*
Y22862700D01*
X30012700*
Y22937300*
X30087300*
X30012700Y22862700D02*
X30087300D01*
X30012700Y22888100D02*
X30087300D01*
X30012700Y22913500D02*
X30087300D01*
X30022800Y22862700D02*
Y22937300D01*
X30048200Y22862700D02*
Y22937300D01*
X30073600Y22862700D02*
Y22937300D01*
X36712700Y22012700D02*
Y22087300D01*
X36787300*
Y22012700*
X36712700*
X36787300*
X36712700Y22038100D02*
X36787300D01*
X36712700Y22063500D02*
X36787300D01*
X36728400Y22012700D02*
Y22087300D01*
X36753800Y22012700D02*
Y22087300D01*
X36779200Y22012700D02*
Y22087300D01*
X36712700Y21812700D02*
Y21887300D01*
X36787300*
Y21812700*
X36712700*
X36787300*
X36712700Y21838100D02*
X36787300D01*
X36712700Y21863500D02*
X36787300D01*
X36728400Y21812700D02*
Y21887300D01*
X36753800Y21812700D02*
Y21887300D01*
X36779200Y21812700D02*
Y21887300D01*
X37937300Y16812700D02*
X37862700D01*
Y16887300*
X37937300*
Y16812700*
X37862700D02*
X37937300D01*
X37862700Y16838100D02*
X37937300D01*
X37862700Y16863500D02*
X37937300D01*
X37871400Y16812700D02*
Y16887300D01*
X37896800Y16812700D02*
Y16887300D01*
X37922200Y16812700D02*
Y16887300D01*
X38137300Y16812700D02*
X38062700D01*
Y16887300*
X38137300*
Y16812700*
X38062700D02*
X38137300D01*
X38062700Y16838100D02*
X38137300D01*
X38062700Y16863500D02*
X38137300D01*
X38074600Y16812700D02*
Y16887300D01*
X38100000Y16812700D02*
Y16887300D01*
X38125400Y16812700D02*
Y16887300D01*
X37937300Y21012700D02*
X37862700D01*
Y21087300*
X37937300*
Y21012700*
X37862700D02*
X37937300D01*
X37862700Y21038100D02*
X37937300D01*
X37862700Y21063500D02*
X37937300D01*
X37871400Y21012700D02*
Y21087300D01*
X37896800Y21012700D02*
Y21087300D01*
X37922200Y21012700D02*
Y21087300D01*
X38137300Y21012700D02*
X38062700D01*
Y21087300*
X38137300*
Y21012700*
X38062700D02*
X38137300D01*
X38062700Y21038100D02*
X38137300D01*
X38062700Y21063500D02*
X38137300D01*
X38074600Y21012700D02*
Y21087300D01*
X38100000Y21012700D02*
Y21087300D01*
X38125400Y21012700D02*
Y21087300D01*
X38212700Y16212700D02*
Y16287300D01*
X38287300*
Y16212700*
X38212700*
X38287300*
X38212700Y16238100D02*
X38287300D01*
X38212700Y16263500D02*
X38287300D01*
X38227000Y16212700D02*
Y16287300D01*
X38252400Y16212700D02*
Y16287300D01*
X38277800Y16212700D02*
Y16287300D01*
X38212700Y16012700D02*
Y16087300D01*
X38287300*
Y16012700*
X38212700*
X38287300*
X38212700Y16038100D02*
X38287300D01*
X38212700Y16063500D02*
X38287300D01*
X38227000Y16012700D02*
Y16087300D01*
X38252400Y16012700D02*
Y16087300D01*
X38277800Y16012700D02*
Y16087300D01*
X38612700Y17812700D02*
Y17887300D01*
X38687300*
Y17812700*
X38612700*
X38687300*
X38612700Y17838100D02*
X38687300D01*
X38612700Y17863500D02*
X38687300D01*
X38633400Y17812700D02*
Y17887300D01*
X38658800Y17812700D02*
Y17887300D01*
X38684200Y17812700D02*
Y17887300D01*
X38612700Y17612700D02*
Y17687300D01*
X38687300*
Y17612700*
X38612700*
X38687300*
X38612700Y17638100D02*
X38687300D01*
X38612700Y17663500D02*
X38687300D01*
X38633400Y17612700D02*
Y17687300D01*
X38658800Y17612700D02*
Y17687300D01*
X38684200Y17612700D02*
Y17687300D01*
X38212700Y20412700D02*
Y20487300D01*
X38287300*
Y20412700*
X38212700*
X38287300*
X38212700Y20438100D02*
X38287300D01*
X38212700Y20463500D02*
X38287300D01*
X38227000Y20412700D02*
Y20487300D01*
X38252400Y20412700D02*
Y20487300D01*
X38277800Y20412700D02*
Y20487300D01*
X38212700Y20212700D02*
Y20287300D01*
X38287300*
Y20212700*
X38212700*
X38287300*
X38212700Y20238100D02*
X38287300D01*
X38212700Y20263500D02*
X38287300D01*
X38227000Y20212700D02*
Y20287300D01*
X38252400Y20212700D02*
Y20287300D01*
X38277800Y20212700D02*
Y20287300D01*
X34187300Y22737300D02*
Y22662700D01*
X34112700*
Y22737300*
X34187300*
X34112700Y22662700D02*
X34187300D01*
X34112700Y22688100D02*
X34187300D01*
X34112700Y22713500D02*
X34187300D01*
X34137600Y22662700D02*
Y22737300D01*
X34163000Y22662700D02*
Y22737300D01*
X34187300Y22937300D02*
Y22862700D01*
X34112700*
Y22937300*
X34187300*
X34112700Y22862700D02*
X34187300D01*
X34112700Y22888100D02*
X34187300D01*
X34112700Y22913500D02*
X34187300D01*
X34137600Y22862700D02*
Y22937300D01*
X34163000Y22862700D02*
Y22937300D01*
X38612700Y22012700D02*
Y22087300D01*
X38687300*
Y22012700*
X38612700*
X38687300*
X38612700Y22038100D02*
X38687300D01*
X38612700Y22063500D02*
X38687300D01*
X38633400Y22012700D02*
Y22087300D01*
X38658800Y22012700D02*
Y22087300D01*
X38684200Y22012700D02*
Y22087300D01*
X38612700Y21812700D02*
Y21887300D01*
X38687300*
Y21812700*
X38612700*
X38687300*
X38612700Y21838100D02*
X38687300D01*
X38612700Y21863500D02*
X38687300D01*
X38633400Y21812700D02*
Y21887300D01*
X38658800Y21812700D02*
Y21887300D01*
X38684200Y21812700D02*
Y21887300D01*
X34262700Y24462700D02*
Y24537300D01*
X34337300*
Y24462700*
X34262700*
X34337300*
X34262700Y24488100D02*
X34337300D01*
X34262700Y24513500D02*
X34337300D01*
X34264600Y24462700D02*
Y24537300D01*
X34290000Y24462700D02*
Y24537300D01*
X34315400Y24462700D02*
Y24537300D01*
X34262700Y24262700D02*
Y24337300D01*
X34337300*
Y24262700*
X34262700*
X34337300*
X34262700Y24288100D02*
X34337300D01*
X34262700Y24313500D02*
X34337300D01*
X34264600Y24262700D02*
Y24337300D01*
X34290000Y24262700D02*
Y24337300D01*
X34315400Y24262700D02*
Y24337300D01*
X38412700Y17812700D02*
Y17887300D01*
X38487300*
Y17812700*
X38412700*
X38487300*
X38412700Y17838100D02*
X38487300D01*
X38412700Y17863500D02*
X38487300D01*
X38430200Y17812700D02*
Y17887300D01*
X38455600Y17812700D02*
Y17887300D01*
X38481000Y17812700D02*
Y17887300D01*
X38412700Y17612700D02*
Y17687300D01*
X38487300*
Y17612700*
X38412700*
X38487300*
X38412700Y17638100D02*
X38487300D01*
X38412700Y17663500D02*
X38487300D01*
X38430200Y17612700D02*
Y17687300D01*
X38455600Y17612700D02*
Y17687300D01*
X38481000Y17612700D02*
Y17687300D01*
X30337300Y22737300D02*
Y22662700D01*
X30262700*
Y22737300*
X30337300*
X30262700Y22662700D02*
X30337300D01*
X30262700Y22688100D02*
X30337300D01*
X30262700Y22713500D02*
X30337300D01*
X30276800Y22662700D02*
Y22737300D01*
X30302200Y22662700D02*
Y22737300D01*
X30327600Y22662700D02*
Y22737300D01*
X30337300Y22937300D02*
Y22862700D01*
X30262700*
Y22937300*
X30337300*
X30262700Y22862700D02*
X30337300D01*
X30262700Y22888100D02*
X30337300D01*
X30262700Y22913500D02*
X30337300D01*
X30276800Y22862700D02*
Y22937300D01*
X30302200Y22862700D02*
Y22937300D01*
X30327600Y22862700D02*
Y22937300D01*
X38412700Y22012700D02*
Y22087300D01*
X38487300*
Y22012700*
X38412700*
X38487300*
X38412700Y22038100D02*
X38487300D01*
X38412700Y22063500D02*
X38487300D01*
X38430200Y22012700D02*
Y22087300D01*
X38455600Y22012700D02*
Y22087300D01*
X38481000Y22012700D02*
Y22087300D01*
X38412700Y21812700D02*
Y21887300D01*
X38487300*
Y21812700*
X38412700*
X38487300*
X38412700Y21838100D02*
X38487300D01*
X38412700Y21863500D02*
X38487300D01*
X38430200Y21812700D02*
Y21887300D01*
X38455600Y21812700D02*
Y21887300D01*
X38481000Y21812700D02*
Y21887300D01*
X26512700Y17812700D02*
Y17887300D01*
X26587300*
Y17812700*
X26512700*
X26587300*
X26512700Y17838100D02*
X26587300D01*
X26512700Y17863500D02*
X26587300D01*
X26517600Y17812700D02*
Y17887300D01*
X26543000Y17812700D02*
Y17887300D01*
X26568400Y17812700D02*
Y17887300D01*
X26512700Y17612700D02*
Y17687300D01*
X26587300*
Y17612700*
X26512700*
X26587300*
X26512700Y17638100D02*
X26587300D01*
X26512700Y17663500D02*
X26587300D01*
X26517600Y17612700D02*
Y17687300D01*
X26543000Y17612700D02*
Y17687300D01*
X26568400Y17612700D02*
Y17687300D01*
X25400000Y12700000D02*
Y25400000D01*
X39660000*
Y12700000*
X25400000*
G54D104*
X29919000Y23249480D02*
Y23376480D01*
X30046000Y23249480D02*
Y23376480D01*
X30173000Y23249480D02*
Y23376480D01*
X30300000Y23249480D02*
Y23376480D01*
X30427000Y23249480D02*
Y23376480D01*
X30554000Y23249480D02*
Y23376480D01*
X30681000Y23249480D02*
Y23376480D01*
Y23823520D02*
Y23950520D01*
X30554000Y23823520D02*
Y23950520D01*
X30427000Y23823520D02*
Y23950520D01*
X30300000Y23823520D02*
Y23950520D01*
X30173000Y23823520D02*
Y23950520D01*
X30046000Y23823520D02*
Y23950520D01*
X29919000Y23823520D02*
Y23950520D01*
X31719000Y23249480D02*
Y23376480D01*
X31846000Y23249480D02*
Y23376480D01*
X31973000Y23249480D02*
Y23376480D01*
X32100000Y23249480D02*
Y23376480D01*
X32227000Y23249480D02*
Y23376480D01*
X32354000Y23249480D02*
Y23376480D01*
X32481000Y23249480D02*
Y23376480D01*
Y23823520D02*
Y23950520D01*
X32354000Y23823520D02*
Y23950520D01*
X32227000Y23823520D02*
Y23950520D01*
X32100000Y23823520D02*
Y23950520D01*
X31973000Y23823520D02*
Y23950520D01*
X31846000Y23823520D02*
Y23950520D01*
X31719000Y23823520D02*
Y23950520D01*
X33519000Y23249480D02*
Y23376480D01*
X33646000Y23249480D02*
Y23376480D01*
X33773000Y23249480D02*
Y23376480D01*
X33900000Y23249480D02*
Y23376480D01*
X34027000Y23249480D02*
Y23376480D01*
X34154000Y23249480D02*
Y23376480D01*
X34281000Y23249480D02*
Y23376480D01*
Y23823520D02*
Y23950520D01*
X34154000Y23823520D02*
Y23950520D01*
X34027000Y23823520D02*
Y23950520D01*
X33900000Y23823520D02*
Y23950520D01*
X33773000Y23823520D02*
Y23950520D01*
X33646000Y23823520D02*
Y23950520D01*
X33519000Y23823520D02*
Y23950520D01*
X0Y0D02*
M02*
