*
*
G04 PADS Layout (Build Number 2005.266.2) generated Gerber (RS-274-X) file*
G04 PC Version=2.1*
*
%IN "cece_module_isoinput_10"*%
*
%MOMM*%
*
%FSLAX35Y35*%
*
*
*
*
G04 PC Standard Apertures*
*
*
G04 Thermal Relief Aperture macro.*
%AMTER*
1,1,$1,0,0*
1,0,$1-$2,0,0*
21,0,$3,$4,0,0,45*
21,0,$3,$4,0,0,135*
%
*
*
G04 Annular Aperture macro.*
%AMANN*
1,1,$1,0,0*
1,0,$2,0,0*
%
*
*
G04 Odd Aperture macro.*
%AMODD*
1,1,$1,0,0*
1,0,$1-0.005,0,0*
%
*
*
G04 PC Custom Aperture Macros*
*
*
*
*
*
*
G04 PC Aperture Table*
*
%ADD034R,1.4224X1.4224*%
%ADD035C,1.4224*%
%ADD036C,2*%
%ADD058C,0.254*%
%ADD061C,1*%
%ADD062C,0.8*%
%ADD103C,1.6*%
%ADD105C,4.5*%
*
*
*
*
G04 PC Custom Flashes*
G04 Layer Name cece_module_isoinput_10 - flashes*
%LPD*%
*
*
G04 PC Circuitry*
G04 Layer Name cece_module_isoinput_10 - circuitry*
%LPD*%
*
G54D34*
G01X29482000Y13127000D03*
Y25227000D03*
G54D35*
Y12873000D03*
X29736000Y13127000D03*
Y12873000D03*
X29990000Y13127000D03*
Y12873000D03*
X30244000Y13127000D03*
Y12873000D03*
X30498000Y13127000D03*
Y12873000D03*
X30752000Y13127000D03*
Y12873000D03*
X31006000Y13127000D03*
Y12873000D03*
X31260000Y13127000D03*
Y12873000D03*
X31514000Y13127000D03*
Y12873000D03*
X31768000Y13127000D03*
Y12873000D03*
X32022000Y13127000D03*
Y12873000D03*
X32276000Y13127000D03*
Y12873000D03*
X32530000Y13127000D03*
Y12873000D03*
X32784000Y13127000D03*
Y12873000D03*
X33038000Y13127000D03*
Y12873000D03*
X33292000Y13127000D03*
Y12873000D03*
X33546000Y13127000D03*
Y12873000D03*
X33800000Y13127000D03*
Y12873000D03*
X34054000Y13127000D03*
Y12873000D03*
X34308000Y13127000D03*
Y12873000D03*
X34562000Y13127000D03*
Y12873000D03*
X34816000Y13127000D03*
Y12873000D03*
X35070000Y13127000D03*
Y12873000D03*
X35324000Y13127000D03*
Y12873000D03*
X35578000Y13127000D03*
Y12873000D03*
X29482000Y24973000D03*
X29736000Y25227000D03*
Y24973000D03*
X29990000Y25227000D03*
Y24973000D03*
X30244000Y25227000D03*
Y24973000D03*
X30498000Y25227000D03*
Y24973000D03*
X30752000Y25227000D03*
Y24973000D03*
X31006000Y25227000D03*
Y24973000D03*
X31260000Y25227000D03*
Y24973000D03*
X31514000Y25227000D03*
Y24973000D03*
X31768000Y25227000D03*
Y24973000D03*
X32022000Y25227000D03*
Y24973000D03*
X32276000Y25227000D03*
Y24973000D03*
X32530000Y25227000D03*
Y24973000D03*
X32784000Y25227000D03*
Y24973000D03*
X33038000Y25227000D03*
Y24973000D03*
X33292000Y25227000D03*
Y24973000D03*
X33546000Y25227000D03*
Y24973000D03*
X33800000Y25227000D03*
Y24973000D03*
X34054000Y25227000D03*
Y24973000D03*
X34308000Y25227000D03*
Y24973000D03*
X34562000Y25227000D03*
Y24973000D03*
X34816000Y25227000D03*
Y24973000D03*
X35070000Y25227000D03*
Y24973000D03*
X35324000Y25227000D03*
Y24973000D03*
X35578000Y25227000D03*
Y24973000D03*
G54D36*
X26700000Y15050000D03*
X27200000D03*
Y15850000D03*
X26700000D03*
X30100000Y19250000D03*
X30600000D03*
Y20050000D03*
X30100000D03*
X31800000Y15050000D03*
X32300000D03*
Y15850000D03*
X31800000D03*
Y19250000D03*
X32300000D03*
Y20050000D03*
X31800000D03*
X33500000Y15050000D03*
X34000000D03*
Y15850000D03*
X33500000D03*
Y19250000D03*
X34000000D03*
Y20050000D03*
X33500000D03*
X26700000Y19250000D03*
X27200000D03*
Y20050000D03*
X26700000D03*
X35200000Y15050000D03*
X35700000D03*
Y15850000D03*
X35200000D03*
Y19250000D03*
X35700000D03*
Y20050000D03*
X35200000D03*
X36900000Y15050000D03*
X37400000D03*
Y15850000D03*
X36900000D03*
Y19250000D03*
X37400000D03*
Y20050000D03*
X36900000D03*
X38600000Y15050000D03*
X39100000D03*
Y15850000D03*
X38600000D03*
Y19250000D03*
X39100000D03*
Y20050000D03*
X38600000D03*
X28400000Y15050000D03*
X28900000D03*
Y15850000D03*
X28400000D03*
Y19250000D03*
X28900000D03*
Y20050000D03*
X28400000D03*
X30100000Y15050000D03*
X30600000D03*
Y15850000D03*
X30100000D03*
G54D58*
X39063801Y17610300D02*
G75*
G03X39063801I-102701J0D01*
G01X39152701Y17900000D02*
G03X39152701I-102701J0D01*
G01X38752701D02*
G03X38752701I-102701J0D01*
G01X37363801Y17610300D02*
G03X37363801I-102701J0D01*
G01X37452701Y17900000D02*
G03X37452701I-102701J0D01*
G01X37052701D02*
G03X37052701I-102701J0D01*
G01X35663801Y17610300D02*
G03X35663801I-102701J0D01*
G01X35752701Y17900000D02*
G03X35752701I-102701J0D01*
G01X35352701D02*
G03X35352701I-102701J0D01*
G01X33963801Y17610300D02*
G03X33963801I-102701J0D01*
G01X34052701Y17900000D02*
G03X34052701I-102701J0D01*
G01X33652701D02*
G03X33652701I-102701J0D01*
G01X32263801Y17610300D02*
G03X32263801I-102701J0D01*
G01X32352701Y17900000D02*
G03X32352701I-102701J0D01*
G01X31952701D02*
G03X31952701I-102701J0D01*
G01X30563801Y17610300D02*
G03X30563801I-102701J0D01*
G01X30652701Y17900000D02*
G03X30652701I-102701J0D01*
G01X30252701D02*
G03X30252701I-102701J0D01*
G01X28863801Y17610300D02*
G03X28863801I-102701J0D01*
G01X28952701Y17900000D02*
G03X28952701I-102701J0D01*
G01X28552701D02*
G03X28552701I-102701J0D01*
G01X27163801Y17610300D02*
G03X27163801I-102701J0D01*
G01X27252701Y17900000D02*
G03X27252701I-102701J0D01*
G01X26852701D02*
G03X26852701I-102701J0D01*
G01X39063801Y21810300D02*
G03X39063801I-102701J0D01*
G01X39152701Y22100000D02*
G03X39152701I-102701J0D01*
G01X38752701D02*
G03X38752701I-102701J0D01*
G01X37363801Y21810300D02*
G03X37363801I-102701J0D01*
G01X37452701Y22100000D02*
G03X37452701I-102701J0D01*
G01X37052701D02*
G03X37052701I-102701J0D01*
G01X35663801Y21810300D02*
G03X35663801I-102701J0D01*
G01X35752701Y22100000D02*
G03X35752701I-102701J0D01*
G01X35352701D02*
G03X35352701I-102701J0D01*
G01X35162701Y24300000D02*
G03X35162701I-112701J0D01*
G01X33963801Y21810300D02*
G03X33963801I-102701J0D01*
G01X34052701Y22100000D02*
G03X34052701I-102701J0D01*
G01X34252701Y22650000D02*
G03X34252701I-102701J0D01*
G01X34402701Y24250000D02*
G03X34402701I-102701J0D01*
G01Y24550000D02*
G03X34402701I-102701J0D01*
G01X34002701Y22650000D02*
G03X34002701I-102701J0D01*
G01Y22950000D02*
G03X34002701I-102701J0D01*
G01X33652701Y22100000D02*
G03X33652701I-102701J0D01*
G01X33752701Y22650000D02*
G03X33752701I-102701J0D01*
G01X33602701Y24250000D02*
G03X33602701I-102701J0D01*
G01X32263801Y21810300D02*
G03X32263801I-102701J0D01*
G01X32352701Y22100000D02*
G03X32352701I-102701J0D01*
G01X32452701Y22650000D02*
G03X32452701I-102701J0D01*
G01X32602701Y24250000D02*
G03X32602701I-102701J0D01*
G01Y24550000D02*
G03X32602701I-102701J0D01*
G01X32202701Y22650000D02*
G03X32202701I-102701J0D01*
G01Y22950000D02*
G03X32202701I-102701J0D01*
G01X32212701Y23700000D02*
G03X32212701I-102701J0D01*
G01X32352701Y24250000D02*
G03X32352701I-102701J0D01*
G01Y24550000D02*
G03X32352701I-102701J0D01*
G01X31952701Y22100000D02*
G03X31952701I-102701J0D01*
G01Y22650000D02*
G03X31952701I-102701J0D01*
G01X32112701Y24250000D02*
G03X32112701I-102701J0D01*
G01Y24550000D02*
G03X32112701I-102701J0D01*
G01X31802701Y24250000D02*
G03X31802701I-102701J0D01*
G01X30563801Y21810300D02*
G03X30563801I-102701J0D01*
G01X30652701Y22100000D02*
G03X30652701I-102701J0D01*
G01Y22650000D02*
G03X30652701I-102701J0D01*
G01X30802701Y24250000D02*
G03X30802701I-102701J0D01*
G01Y24550000D02*
G03X30802701I-102701J0D01*
G01X30252701Y22100000D02*
G03X30252701I-102701J0D01*
G01X30402701Y22650000D02*
G03X30402701I-102701J0D01*
G01Y22950000D02*
G03X30402701I-102701J0D01*
G01X30412701Y23700000D02*
G03X30412701I-102701J0D01*
G01X30552701Y24250000D02*
G03X30552701I-102701J0D01*
G01Y24550000D02*
G03X30552701I-102701J0D01*
G01X30152701Y22650000D02*
G03X30152701I-102701J0D01*
G01X30302701Y24250000D02*
G03X30302701I-102701J0D01*
G01Y24550000D02*
G03X30302701I-102701J0D01*
G01X30002701Y24250000D02*
G03X30002701I-102701J0D01*
G01X28863801Y21810300D02*
G03X28863801I-102701J0D01*
G01X28952701Y22100000D02*
G03X28952701I-102701J0D01*
G01X28552701D02*
G03X28552701I-102701J0D01*
G01X28762701Y24300000D02*
G03X28762701I-112701J0D01*
G01X28352701Y24200000D02*
G03X28352701I-102701J0D01*
G01X28102701D02*
G03X28102701I-102701J0D01*
G01X27163801Y21810300D02*
G03X27163801I-102701J0D01*
G01X27252701Y22100000D02*
G03X27252701I-102701J0D01*
G01X26852701D02*
G03X26852701I-102701J0D01*
G01X39547300Y17375401D02*
Y24339479D01*
G03X39543580Y24348459I-12700J0*
G01X39458459Y24433580*
G03X39449479Y24437300I-8980J-8980*
G01X38804740*
X38697300Y24544740*
Y25189479*
G03X38693580Y25198459I-12700J0*
G01X38608459Y25283580*
G03X38599479Y25287300I-8980J-8980*
G01X35462573*
G03X35450562Y25270474I0J-12700*
G01X35390737Y25111008D02*
G03X35450562Y25270474I-66737J115992D01*
G01X35390737Y25111008D02*
G03Y25088992I6333J-11008D01*
G01X35439992Y25039737D02*
G03X35390737Y25088992I-115992J-66737D01*
G01X35439992Y25039737D02*
G03X35462008I11008J6333D01*
G01Y24906263D02*
G03Y25039737I115992J66737D01*
G01Y24906263D02*
G03X35439992I-11008J-6333D01*
G01X35208008D02*
G03X35439992I115992J66737D01*
G01X35208008D02*
G03X35185992I-11008J-6333D01*
G01Y25039737D02*
G03Y24906263I-115992J-66737D01*
G01Y25039737D02*
G03X35208008I11008J6333D01*
G01X35257263Y25088992D02*
G03X35208008Y25039737I66737J-115992D01*
G01X35257263Y25088992D02*
G03Y25111008I-6333J11008D01*
G01X35197438Y25270474D02*
G03X35257263Y25111008I126562J-43474D01*
G01X35197438Y25270474D02*
G03X35185427Y25287300I-12011J4126D01*
G01X34954573*
G03X34942562Y25270474I0J-12700*
G01X34700008Y25160263D02*
G03X34942562Y25270474I115992J66737D01*
G01X34700008Y25160263D02*
G03X34677992I-11008J-6333D01*
G01X34446008D02*
G03X34677992I115992J66737D01*
G01X34446008D02*
G03X34423992I-11008J-6333D01*
G01X34192008D02*
G03X34423992I115992J66737D01*
G01X34192008D02*
G03X34169992I-11008J-6333D01*
G01X34120737Y25111008D02*
G03X34169992Y25160263I-66737J115992D01*
G01X34120737Y25111008D02*
G03Y25088992I6333J-11008D01*
G01X33938008Y24906263D02*
G03X34120737Y25088992I115992J66737D01*
G01X33938008Y24906263D02*
G03X33915992I-11008J-6333D01*
G01X33684008D02*
G03X33915992I115992J66737D01*
G01X33684008D02*
G03X33661992I-11008J-6333D01*
G01X33430008D02*
G03X33661992I115992J66737D01*
G01X33430008D02*
G03X33407992I-11008J-6333D01*
G01X33176008D02*
G03X33407992I115992J66737D01*
G01X33176008D02*
G03X33153992I-11008J-6333D01*
G01X32922008D02*
G03X33153992I115992J66737D01*
G01X32922008D02*
G03X32899992I-11008J-6333D01*
G01X32668008D02*
G03X32899992I115992J66737D01*
G01X32668008D02*
G03X32645992I-11008J-6333D01*
G01X32414008D02*
G03X32645992I115992J66737D01*
G01X32414008D02*
G03X32391992I-11008J-6333D01*
G01X32160008D02*
G03X32391992I115992J66737D01*
G01X32160008D02*
G03X32137992I-11008J-6333D01*
G01X31906008D02*
G03X32137992I115992J66737D01*
G01X31906008D02*
G03X31883992I-11008J-6333D01*
G01X31652008D02*
G03X31883992I115992J66737D01*
G01X31652008D02*
G03X31629992I-11008J-6333D01*
G01X31398008D02*
G03X31629992I115992J66737D01*
G01X31398008D02*
G03X31375992I-11008J-6333D01*
G01X31144008D02*
G03X31375992I115992J66737D01*
G01X31144008D02*
G03X31121992I-11008J-6333D01*
G01X30890008D02*
G03X31121992I115992J66737D01*
G01X30890008D02*
G03X30867992I-11008J-6333D01*
G01X30636008D02*
G03X30867992I115992J66737D01*
G01X30636008D02*
G03X30613992I-11008J-6333D01*
G01X30382008D02*
G03X30613992I115992J66737D01*
G01X30382008D02*
G03X30359992I-11008J-6333D01*
G01X30177263Y25088992D02*
G03X30359992Y24906263I66737J-115992D01*
G01X30177263Y25088992D02*
G03Y25111008I-6333J11008D01*
G01X30128008Y25160263D02*
G03X30177263Y25111008I115992J66737D01*
G01X30128008Y25160263D02*
G03X30105992I-11008J-6333D01*
G01X29874008D02*
G03X30105992I115992J66737D01*
G01X29874008D02*
G03X29851992I-11008J-6333D01*
G01X29802737Y25111008D02*
G03X29851992Y25160263I-66737J115992D01*
G01X29802737Y25111008D02*
G03Y25088992I6333J-11008D01*
G01X29620008Y24906263D02*
G03X29802737Y25088992I115992J66737D01*
G01X29620008Y24906263D02*
G03X29597992I-11008J-6333D01*
G01X29395089Y25074757D02*
G03X29597992Y24906263I86911J-101757D01*
G01X29395089Y25074757D02*
G03X29390890Y25096451I-8248J9657D01*
G01X29348180Y25155880D02*
G03X29390890Y25096451I62700J0D01*
G01X29348179Y25155880D02*
Y25274600D01*
X29348179D02*
G03X29335479Y25287300I-12700J0D01*
G01X29335479D02*
X26470521D01*
G03X26461541Y25283580I-0J-12700*
G01X26376420Y25198459*
G03X26372700Y25189479I8980J-8980*
G01Y24544740*
X26265260Y24437300*
X25620521*
G03X25611541Y24433580I-0J-12700*
G01X25526420Y24348459*
G03X25522700Y24339479I8980J-8980*
G01Y17375401*
X25522700D02*
G03X25535400Y17362701I12700J-0D01*
G01X25535400D02*
X39534600D01*
X39534600D02*
G03X39547300Y17375401I0J12700D01*
G01X39063801Y17610300D02*
G03X39063801I-102701J0D01*
G01X39152701Y17900000D02*
G03X39152701I-102701J0D01*
G01X38561005Y17548743D02*
G03Y17651257I88995J51257D01*
G01Y17548743D02*
G03X38538995I-11005J-6339D01*
G01Y17651257D02*
G03Y17548743I-88995J-51257D01*
G01Y17651257D02*
G03X38561005I11005J6339D01*
G01X38752701Y17900000D02*
G03X38752701I-102701J0D01*
G01X37987379Y17829763D02*
G03Y17994237I116621J82237D01*
G01Y17829763D02*
G03X37966621I-10379J-7319D01*
G01Y17994237D02*
G03Y17829763I-116621J-82237D01*
G01Y17994237D02*
G03X37987379I10379J7319D01*
G01X37363801Y17610300D02*
G03X37363801I-102701J0D01*
G01X37452701Y17900000D02*
G03X37452701I-102701J0D01*
G01X36861005Y17548743D02*
G03Y17651257I88995J51257D01*
G01Y17548743D02*
G03X36838995I-11005J-6339D01*
G01Y17651257D02*
G03Y17548743I-88995J-51257D01*
G01Y17651257D02*
G03X36861005I11005J6339D01*
G01X37052701Y17900000D02*
G03X37052701I-102701J0D01*
G01X36287379Y17829763D02*
G03Y17994237I116621J82237D01*
G01Y17829763D02*
G03X36266621I-10379J-7319D01*
G01Y17994237D02*
G03Y17829763I-116621J-82237D01*
G01Y17994237D02*
G03X36287379I10379J7319D01*
G01X35663801Y17610300D02*
G03X35663801I-102701J0D01*
G01X35752701Y17900000D02*
G03X35752701I-102701J0D01*
G01X35161005Y17548743D02*
G03Y17651257I88995J51257D01*
G01Y17548743D02*
G03X35138995I-11005J-6339D01*
G01Y17651257D02*
G03Y17548743I-88995J-51257D01*
G01Y17651257D02*
G03X35161005I11005J6339D01*
G01X35352701Y17900000D02*
G03X35352701I-102701J0D01*
G01X34587379Y17829763D02*
G03Y17994237I116621J82237D01*
G01Y17829763D02*
G03X34566621I-10379J-7319D01*
G01Y17994237D02*
G03Y17829763I-116621J-82237D01*
G01Y17994237D02*
G03X34587379I10379J7319D01*
G01X33963801Y17610300D02*
G03X33963801I-102701J0D01*
G01X34052701Y17900000D02*
G03X34052701I-102701J0D01*
G01X33461005Y17548743D02*
G03Y17651257I88995J51257D01*
G01Y17548743D02*
G03X33438995I-11005J-6339D01*
G01Y17651257D02*
G03Y17548743I-88995J-51257D01*
G01Y17651257D02*
G03X33461005I11005J6339D01*
G01X33652701Y17900000D02*
G03X33652701I-102701J0D01*
G01X32887379Y17829763D02*
G03Y17994237I116621J82237D01*
G01Y17829763D02*
G03X32866621I-10379J-7319D01*
G01Y17994237D02*
G03Y17829763I-116621J-82237D01*
G01Y17994237D02*
G03X32887379I10379J7319D01*
G01X32263801Y17610300D02*
G03X32263801I-102701J0D01*
G01X32352701Y17900000D02*
G03X32352701I-102701J0D01*
G01X31761005Y17548743D02*
G03Y17651257I88995J51257D01*
G01Y17548743D02*
G03X31738995I-11005J-6339D01*
G01Y17651257D02*
G03Y17548743I-88995J-51257D01*
G01Y17651257D02*
G03X31761005I11005J6339D01*
G01X31952701Y17900000D02*
G03X31952701I-102701J0D01*
G01X31187379Y17829763D02*
G03Y17994237I116621J82237D01*
G01Y17829763D02*
G03X31166621I-10379J-7319D01*
G01Y17994237D02*
G03Y17829763I-116621J-82237D01*
G01Y17994237D02*
G03X31187379I10379J7319D01*
G01X30563801Y17610300D02*
G03X30563801I-102701J0D01*
G01X30652701Y17900000D02*
G03X30652701I-102701J0D01*
G01X30061005Y17548743D02*
G03Y17651257I88995J51257D01*
G01Y17548743D02*
G03X30038995I-11005J-6339D01*
G01Y17651257D02*
G03Y17548743I-88995J-51257D01*
G01Y17651257D02*
G03X30061005I11005J6339D01*
G01X30252701Y17900000D02*
G03X30252701I-102701J0D01*
G01X29487379Y17829763D02*
G03Y17994237I116621J82237D01*
G01Y17829763D02*
G03X29466621I-10379J-7319D01*
G01Y17994237D02*
G03Y17829763I-116621J-82237D01*
G01Y17994237D02*
G03X29487379I10379J7319D01*
G01X28863801Y17610300D02*
G03X28863801I-102701J0D01*
G01X28952701Y17900000D02*
G03X28952701I-102701J0D01*
G01X28361005Y17548743D02*
G03Y17651257I88995J51257D01*
G01Y17548743D02*
G03X28338995I-11005J-6339D01*
G01Y17651257D02*
G03Y17548743I-88995J-51257D01*
G01Y17651257D02*
G03X28361005I11005J6339D01*
G01X28552701Y17900000D02*
G03X28552701I-102701J0D01*
G01X27787379Y17829763D02*
G03Y17994237I116621J82237D01*
G01Y17829763D02*
G03X27766621I-10379J-7319D01*
G01Y17994237D02*
G03Y17829763I-116621J-82237D01*
G01Y17994237D02*
G03X27787379I10379J7319D01*
G01X27163801Y17610300D02*
G03X27163801I-102701J0D01*
G01X27252701Y17900000D02*
G03X27252701I-102701J0D01*
G01X26661005Y17548743D02*
G03Y17651257I88995J51257D01*
G01Y17548743D02*
G03X26638995I-11005J-6339D01*
G01Y17651257D02*
G03Y17548743I-88995J-51257D01*
G01Y17651257D02*
G03X26661005I11005J6339D01*
G01X26852701Y17900000D02*
G03X26852701I-102701J0D01*
G01X26087379Y17829763D02*
G03Y17994237I116621J82237D01*
G01Y17829763D02*
G03X26066621I-10379J-7319D01*
G01Y17994237D02*
G03Y17829763I-116621J-82237D01*
G01Y17994237D02*
G03X26087379I10379J7319D01*
G01X39422701Y21650000D02*
Y18400000D01*
X39410000Y18387299D02*
G03X39422701Y18400000I0J12701D01*
G01X39410000Y18387299D02*
X25710000D01*
X25697299Y18400000D02*
G03X25710000Y18387299I12701J0D01*
G01X25697299Y18400000D02*
Y21650000D01*
X25710000Y21662701D02*
G03X25697299Y21650000I0J-12701D01*
G01X25710000Y21662701D02*
X39410000D01*
X39422701Y21650000D02*
G03X39410000Y21662701I-12701J0D01*
G01X39063801Y21810300D02*
G03X39063801I-102701J0D01*
G01X39152701Y22100000D02*
G03X39152701I-102701J0D01*
G01X38561005Y21748743D02*
G03Y21851257I88995J51257D01*
G01Y21748743D02*
G03X38538995I-11005J-6339D01*
G01Y21851257D02*
G03Y21748743I-88995J-51257D01*
G01Y21851257D02*
G03X38561005I11005J6339D01*
G01X38752701Y22100000D02*
G03X38752701I-102701J0D01*
G01X37987379Y22029763D02*
G03Y22194237I116621J82237D01*
G01Y22029763D02*
G03X37966621I-10379J-7319D01*
G01Y22194237D02*
G03Y22029763I-116621J-82237D01*
G01Y22194237D02*
G03X37987379I10379J7319D01*
G01X37363801Y21810300D02*
G03X37363801I-102701J0D01*
G01X37452701Y22100000D02*
G03X37452701I-102701J0D01*
G01X36861005Y21748743D02*
G03Y21851257I88995J51257D01*
G01Y21748743D02*
G03X36838995I-11005J-6339D01*
G01Y21851257D02*
G03Y21748743I-88995J-51257D01*
G01Y21851257D02*
G03X36861005I11005J6339D01*
G01X37052701Y22100000D02*
G03X37052701I-102701J0D01*
G01X36287379Y22029763D02*
G03Y22194237I116621J82237D01*
G01Y22029763D02*
G03X36266621I-10379J-7319D01*
G01Y22194237D02*
G03Y22029763I-116621J-82237D01*
G01Y22194237D02*
G03X36287379I10379J7319D01*
G01X35663801Y21810300D02*
G03X35663801I-102701J0D01*
G01X35752701Y22100000D02*
G03X35752701I-102701J0D01*
G01X35161005Y21748743D02*
G03Y21851257I88995J51257D01*
G01Y21748743D02*
G03X35138995I-11005J-6339D01*
G01Y21851257D02*
G03Y21748743I-88995J-51257D01*
G01Y21851257D02*
G03X35161005I11005J6339D01*
G01X35352701Y22100000D02*
G03X35352701I-102701J0D01*
G01X35561005Y24148743D02*
G03Y24251257I88995J51257D01*
G01Y24148743D02*
G03X35538995I-11005J-6339D01*
G01Y24251257D02*
G03Y24148743I-88995J-51257D01*
G01Y24251257D02*
G03X35561005I11005J6339D01*
G01X35162701Y24300000D02*
G03X35162701I-112701J0D01*
G01X34587379Y22029763D02*
G03Y22194237I116621J82237D01*
G01Y22029763D02*
G03X34566621I-10379J-7319D01*
G01Y22194237D02*
G03Y22029763I-116621J-82237D01*
G01Y22194237D02*
G03X34587379I10379J7319D01*
G01X33963801Y21810300D02*
G03X33963801I-102701J0D01*
G01X34052701Y22100000D02*
G03X34052701I-102701J0D01*
G01X34252701Y22650000D02*
G03X34252701I-102701J0D01*
G01X34096265Y23037521D02*
G03X34101391Y23040468I53735J-87521D01*
G01X34096265Y23037521D02*
G03X34098610Y23039374I-6645J10823D01*
X34101391Y23040468I-3230J12282*
G01X34402701Y24250000D02*
G03X34402701I-102701J0D01*
G01Y24550000D02*
G03X34402701I-102701J0D01*
G01X34002701Y22650000D02*
G03X34002701I-102701J0D01*
G01Y22950000D02*
G03X34002701I-102701J0D01*
G01X34088735Y23062479D02*
G03X34083609Y23059532I-53735J87521D01*
G01X34088735Y23062479D02*
G03X34086390Y23060626I6645J-10823D01*
X34083609Y23059532I3230J-12282*
G01X33461005Y21748743D02*
G03Y21851257I88995J51257D01*
G01Y21748743D02*
G03X33438995I-11005J-6339D01*
G01Y21851257D02*
G03Y21748743I-88995J-51257D01*
G01Y21851257D02*
G03X33461005I11005J6339D01*
G01X33652701Y22100000D02*
G03X33652701I-102701J0D01*
G01X33752701Y22650000D02*
G03X33752701I-102701J0D01*
G01X33547913Y22938791D02*
G03X33627494Y23050204I102087J11209D01*
G01X33547913Y22938791D02*
G03X33532506Y22949796I-12624J-1387D01*
G01X33612087Y23061209D02*
G03X33532506Y22949796I-102087J-11209D01*
G01X33612087Y23061209D02*
G03X33627494Y23050204I12624J1387D01*
G01X33602701Y24250000D02*
G03X33602701I-102701J0D01*
G01X32887379Y22029763D02*
G03Y22194237I116621J82237D01*
G01Y22029763D02*
G03X32866621I-10379J-7319D01*
G01Y22194237D02*
G03Y22029763I-116621J-82237D01*
G01Y22194237D02*
G03X32887379I10379J7319D01*
G01X32263801Y21810300D02*
G03X32263801I-102701J0D01*
G01X32352701Y22100000D02*
G03X32352701I-102701J0D01*
G01X32452701Y22650000D02*
G03X32452701I-102701J0D01*
G01X32296265Y23037521D02*
G03X32301391Y23040468I53735J-87521D01*
G01X32296265Y23037521D02*
G03X32298610Y23039374I-6645J10823D01*
X32301391Y23040468I-3230J12282*
G01X32602701Y24250000D02*
G03X32602701I-102701J0D01*
G01Y24550000D02*
G03X32602701I-102701J0D01*
G01X32202701Y22650000D02*
G03X32202701I-102701J0D01*
G01Y22950000D02*
G03X32202701I-102701J0D01*
G01X32288735Y23062479D02*
G03X32283609Y23059532I-53735J87521D01*
G01X32288735Y23062479D02*
G03X32286390Y23060626I6645J-10823D01*
X32283609Y23059532I3230J-12282*
G01X32212701Y23700000D02*
G03X32212701I-102701J0D01*
G01X32352701Y24250000D02*
G03X32352701I-102701J0D01*
G01Y24550000D02*
G03X32352701I-102701J0D01*
G01X31761005Y21748743D02*
G03Y21851257I88995J51257D01*
G01Y21748743D02*
G03X31738995I-11005J-6339D01*
G01Y21851257D02*
G03Y21748743I-88995J-51257D01*
G01Y21851257D02*
G03X31761005I11005J6339D01*
G01X31952701Y22100000D02*
G03X31952701I-102701J0D01*
G01Y22650000D02*
G03X31952701I-102701J0D01*
G01X31747913Y22938791D02*
G03X31827494Y23050204I102087J11209D01*
G01X31747913Y22938791D02*
G03X31732506Y22949796I-12624J-1387D01*
G01X31812087Y23061209D02*
G03X31732506Y22949796I-102087J-11209D01*
G01X31812087Y23061209D02*
G03X31827494Y23050204I12624J1387D01*
G01X32112701Y24250000D02*
G03X32112701I-102701J0D01*
G01Y24550000D02*
G03X32112701I-102701J0D01*
G01X31802701Y24250000D02*
G03X31802701I-102701J0D01*
G01X31187379Y22029763D02*
G03Y22194237I116621J82237D01*
G01Y22029763D02*
G03X31166621I-10379J-7319D01*
G01Y22194237D02*
G03Y22029763I-116621J-82237D01*
G01Y22194237D02*
G03X31187379I10379J7319D01*
G01X30563801Y21810300D02*
G03X30563801I-102701J0D01*
G01X30652701Y22100000D02*
G03X30652701I-102701J0D01*
G01Y22650000D02*
G03X30652701I-102701J0D01*
G01X30496265Y23037521D02*
G03X30501391Y23040468I53735J-87521D01*
G01X30496265Y23037521D02*
G03X30498610Y23039374I-6645J10823D01*
X30501391Y23040468I-3230J12282*
G01X30802701Y24250000D02*
G03X30802701I-102701J0D01*
G01Y24550000D02*
G03X30802701I-102701J0D01*
G01X30061005Y21748743D02*
G03Y21851257I88995J51257D01*
G01Y21748743D02*
G03X30038995I-11005J-6339D01*
G01Y21851257D02*
G03Y21748743I-88995J-51257D01*
G01Y21851257D02*
G03X30061005I11005J6339D01*
G01X30252701Y22100000D02*
G03X30252701I-102701J0D01*
G01X30402701Y22650000D02*
G03X30402701I-102701J0D01*
G01Y22950000D02*
G03X30402701I-102701J0D01*
G01X30488735Y23062479D02*
G03X30483609Y23059532I-53735J87521D01*
G01X30488735Y23062479D02*
G03X30486390Y23060626I6645J-10823D01*
X30483609Y23059532I3230J-12282*
G01X30412701Y23700000D02*
G03X30412701I-102701J0D01*
G01X30552701Y24250000D02*
G03X30552701I-102701J0D01*
G01Y24550000D02*
G03X30552701I-102701J0D01*
G01X30152701Y22650000D02*
G03X30152701I-102701J0D01*
G01X29947913Y22938791D02*
G03X30027494Y23050204I102087J11209D01*
G01X29947913Y22938791D02*
G03X29932506Y22949796I-12624J-1387D01*
G01X30012087Y23061209D02*
G03X29932506Y22949796I-102087J-11209D01*
G01X30012087Y23061209D02*
G03X30027494Y23050204I12624J1387D01*
G01X30302701Y24250000D02*
G03X30302701I-102701J0D01*
G01Y24550000D02*
G03X30302701I-102701J0D01*
G01X30002701Y24250000D02*
G03X30002701I-102701J0D01*
G01X29487379Y22029763D02*
G03Y22194237I116621J82237D01*
G01Y22029763D02*
G03X29466621I-10379J-7319D01*
G01Y22194237D02*
G03Y22029763I-116621J-82237D01*
G01Y22194237D02*
G03X29487379I10379J7319D01*
G01X28863801Y21810300D02*
G03X28863801I-102701J0D01*
G01X28952701Y22100000D02*
G03X28952701I-102701J0D01*
G01X28361005Y21748743D02*
G03Y21851257I88995J51257D01*
G01Y21748743D02*
G03X28338995I-11005J-6339D01*
G01Y21851257D02*
G03Y21748743I-88995J-51257D01*
G01Y21851257D02*
G03X28361005I11005J6339D01*
G01X28552701Y22100000D02*
G03X28552701I-102701J0D01*
G01X28762701Y24300000D02*
G03X28762701I-112701J0D01*
G01X28352701Y24200000D02*
G03X28352701I-102701J0D01*
G01X27787379Y22029763D02*
G03Y22194237I116621J82237D01*
G01Y22029763D02*
G03X27766621I-10379J-7319D01*
G01Y22194237D02*
G03Y22029763I-116621J-82237D01*
G01Y22194237D02*
G03X27787379I10379J7319D01*
G01X28102701Y24200000D02*
G03X28102701I-102701J0D01*
G01X27163801Y21810300D02*
G03X27163801I-102701J0D01*
G01X27252701Y22100000D02*
G03X27252701I-102701J0D01*
G01X26661005Y21748743D02*
G03Y21851257I88995J51257D01*
G01Y21748743D02*
G03X26638995I-11005J-6339D01*
G01Y21851257D02*
G03Y21748743I-88995J-51257D01*
G01Y21851257D02*
G03X26661005I11005J6339D01*
G01X26852701Y22100000D02*
G03X26852701I-102701J0D01*
G01X26087379Y22029763D02*
G03Y22194237I116621J82237D01*
G01Y22029763D02*
G03X26066621I-10379J-7319D01*
G01Y22194237D02*
G03Y22029763I-116621J-82237D01*
G01Y22194237D02*
G03X26087379I10379J7319D01*
G01X35157416Y24334107D02*
X39547300D01*
X35162138Y24311247D02*
X39547300D01*
X35702299Y24288387D02*
X39547300D01*
X35729080Y24265527D02*
X39547300D01*
X35743418Y24242667D02*
X39547300D01*
X35750772Y24219807D02*
X39547300D01*
X35752655Y24196947D02*
X39547300D01*
X35749378Y24174087D02*
X39547300D01*
X35740380Y24151227D02*
X39547300D01*
X35723594Y24128367D02*
X39547300D01*
X35690229Y24105507D02*
X39547300D01*
X25522700Y24082647D02*
X39547300D01*
X25522700Y24059787D02*
X39547300D01*
X25522700Y24036927D02*
X39547300D01*
X25522700Y24014067D02*
X39547300D01*
X25522700Y23991207D02*
X39547300D01*
X25522700Y23968347D02*
X39547300D01*
X25522700Y23945487D02*
X39547300D01*
X25522700Y23922627D02*
X39547300D01*
X25522700Y23899767D02*
X39547300D01*
X25522700Y23876907D02*
X39547300D01*
X25522700Y23854047D02*
X39547300D01*
X25522700Y23831187D02*
X39547300D01*
X25522700Y23808327D02*
X39547300D01*
X32166946Y23785467D02*
X39547300D01*
X32191411Y23762607D02*
X39547300D01*
X32204697Y23739747D02*
X39547300D01*
X32211303Y23716887D02*
X39547300D01*
X32212527Y23694027D02*
X39547300D01*
X32208570Y23671167D02*
X39547300D01*
X32198742Y23648307D02*
X39547300D01*
X32180634Y23625447D02*
X39547300D01*
X32142528Y23602587D02*
X39547300D01*
X25522700Y23579727D02*
X39547300D01*
X25522700Y23556867D02*
X39547300D01*
X25522700Y23534007D02*
X39547300D01*
X25522700Y23511147D02*
X39547300D01*
X25522700Y23488287D02*
X39547300D01*
X25522700Y23465427D02*
X39547300D01*
X25522700Y23442567D02*
X39547300D01*
X25522700Y23419707D02*
X39547300D01*
X25522700Y23396847D02*
X39547300D01*
X25522700Y23373987D02*
X39547300D01*
X25522700Y23351127D02*
X39547300D01*
X25522700Y23328267D02*
X39547300D01*
X25522700Y23305407D02*
X39547300D01*
X25522700Y23282547D02*
X39547300D01*
X25522700Y23259687D02*
X39547300D01*
X34089850Y23236827D02*
X39547300D01*
X34115347Y23213967D02*
X39547300D01*
X34129115Y23191107D02*
X39547300D01*
X34136067Y23168247D02*
X39547300D01*
X34137597Y23145387D02*
X39547300D01*
X34133958Y23122527D02*
X39547300D01*
X34124521Y23099667D02*
X39547300D01*
X34107043Y23076807D02*
X39547300D01*
X34071348Y23053947D02*
X39547300D01*
X34213027Y23031087D02*
X39547300D01*
X34234599Y23008227D02*
X39547300D01*
X34246419Y22985367D02*
X39547300D01*
X34251936Y22962507D02*
X39547300D01*
X34252177Y22939647D02*
X39547300D01*
X34247182Y22916787D02*
X39547300D01*
X34236042Y22893927D02*
X39547300D01*
X34215703Y22871067D02*
X39547300D01*
X34163620Y22848207D02*
X39547300D01*
X25522700Y22825347D02*
X39547300D01*
X25522700Y22802487D02*
X39547300D01*
X25522700Y22779627D02*
X39547300D01*
X25522700Y22756767D02*
X39547300D01*
X34209221Y22733907D02*
X39547300D01*
X34232588Y22711047D02*
X39547300D01*
X34245337Y22688187D02*
X39547300D01*
X34251550Y22665327D02*
X39547300D01*
X34252424Y22642467D02*
X39547300D01*
X34248100Y22619607D02*
X39547300D01*
X34237815Y22596747D02*
X39547300D01*
X34218950Y22573887D02*
X39547300D01*
X34177417Y22551027D02*
X39547300D01*
X25522700Y22528167D02*
X39547300D01*
X25522700Y22505307D02*
X39547300D01*
X25522700Y22482447D02*
X39547300D01*
X25522700Y22459587D02*
X39547300D01*
X25522700Y22436727D02*
X39547300D01*
X25522700Y22413867D02*
X39547300D01*
X25522700Y22391007D02*
X39547300D01*
X25522700Y22368147D02*
X39547300D01*
X25522700Y22345287D02*
X39547300D01*
X25522700Y22322427D02*
X39547300D01*
X25522700Y22299567D02*
X39547300D01*
X25522700Y22276707D02*
X39547300D01*
X38119587Y22253847D02*
X39547300D01*
X38182776Y22230987D02*
X39547300D01*
X38209466Y22208127D02*
X39547300D01*
X39107245Y22185267D02*
X39547300D01*
X39131565Y22162407D02*
X39547300D01*
X39144781Y22139547D02*
X39547300D01*
X39151336Y22116687D02*
X39547300D01*
X39152515Y22093827D02*
X39547300D01*
X39148511Y22070967D02*
X39547300D01*
X39138626Y22048107D02*
X39547300D01*
X39120423Y22025247D02*
X39547300D01*
X39081922Y22002387D02*
X39547300D01*
X38157050Y21979527D02*
X39547300D01*
X25522700Y21956667D02*
X39547300D01*
X25522700Y21933807D02*
X39547300D01*
X38981536Y21910947D02*
X39547300D01*
X39028157Y21888087D02*
X39547300D01*
X39047878Y21865227D02*
X39547300D01*
X39058666Y21842367D02*
X39547300D01*
X39063387Y21819507D02*
X39547300D01*
X39062889Y21796647D02*
X39547300D01*
X39057090Y21773787D02*
X39547300D01*
X39044899Y21750927D02*
X39547300D01*
X39022623Y21728067D02*
X39547300D01*
X38689517Y21705207D02*
X39547300D01*
X25522700Y21682347D02*
X39547300D01*
X39418444Y21659487D02*
X39547300D01*
X39422701Y21636627D02*
X39547300D01*
X39422701Y21613767D02*
X39547300D01*
X39422701Y21590907D02*
X39547300D01*
X39422701Y21568047D02*
X39547300D01*
X39422701Y21545187D02*
X39547300D01*
X39422701Y21522327D02*
X39547300D01*
X39422701Y21499467D02*
X39547300D01*
X39422701Y21476607D02*
X39547300D01*
X39422701Y21453747D02*
X39547300D01*
X39422701Y21430887D02*
X39547300D01*
X39422701Y21408027D02*
X39547300D01*
X39422701Y21385167D02*
X39547300D01*
X39422701Y21362307D02*
X39547300D01*
X39422701Y21339447D02*
X39547300D01*
X39422701Y21316587D02*
X39547300D01*
X39422701Y21293727D02*
X39547300D01*
X39422701Y21270867D02*
X39547300D01*
X39422701Y21248007D02*
X39547300D01*
X39422701Y21225147D02*
X39547300D01*
X39422701Y21202287D02*
X39547300D01*
X39422701Y21179427D02*
X39547300D01*
X39422701Y21156567D02*
X39547300D01*
X39422701Y21133707D02*
X39547300D01*
X39422701Y21110847D02*
X39547300D01*
X39422701Y21087987D02*
X39547300D01*
X39422701Y21065127D02*
X39547300D01*
X39422701Y21042267D02*
X39547300D01*
X39422701Y21019407D02*
X39547300D01*
X39422701Y20996547D02*
X39547300D01*
X39422701Y20973687D02*
X39547300D01*
X39422701Y20950827D02*
X39547300D01*
X39422701Y20927967D02*
X39547300D01*
X39422701Y20905107D02*
X39547300D01*
X39422701Y20882247D02*
X39547300D01*
X39422701Y20859387D02*
X39547300D01*
X39422701Y20836527D02*
X39547300D01*
X39422701Y20813667D02*
X39547300D01*
X39422701Y20790807D02*
X39547300D01*
X39422701Y20767947D02*
X39547300D01*
X39422701Y20745087D02*
X39547300D01*
X39422701Y20722227D02*
X39547300D01*
X39422701Y20699367D02*
X39547300D01*
X39422701Y20676507D02*
X39547300D01*
X39422701Y20653647D02*
X39547300D01*
X39422701Y20630787D02*
X39547300D01*
X39422701Y20607927D02*
X39547300D01*
X39422701Y20585067D02*
X39547300D01*
X39422701Y20562207D02*
X39547300D01*
X39422701Y20539347D02*
X39547300D01*
X39422701Y20516487D02*
X39547300D01*
X39422701Y20493627D02*
X39547300D01*
X39422701Y20470767D02*
X39547300D01*
X39422701Y20447907D02*
X39547300D01*
X39422701Y20425047D02*
X39547300D01*
X39422701Y20402187D02*
X39547300D01*
X39422701Y20379327D02*
X39547300D01*
X39422701Y20356467D02*
X39547300D01*
X39422701Y20333607D02*
X39547300D01*
X39422701Y20310747D02*
X39547300D01*
X39422701Y20287887D02*
X39547300D01*
X39422701Y20265027D02*
X39547300D01*
X39422701Y20242167D02*
X39547300D01*
X39422701Y20219307D02*
X39547300D01*
X39422701Y20196447D02*
X39547300D01*
X39422701Y20173587D02*
X39547300D01*
X39422701Y20150727D02*
X39547300D01*
X39422701Y20127867D02*
X39547300D01*
X39422701Y20105007D02*
X39547300D01*
X39422701Y20082147D02*
X39547300D01*
X39422701Y20059287D02*
X39547300D01*
X39422701Y20036427D02*
X39547300D01*
X39422701Y20013567D02*
X39547300D01*
X39422701Y19990707D02*
X39547300D01*
X39422701Y19967847D02*
X39547300D01*
X39422701Y19944987D02*
X39547300D01*
X39422701Y19922127D02*
X39547300D01*
X39422701Y19899267D02*
X39547300D01*
X39422701Y19876407D02*
X39547300D01*
X39422701Y19853547D02*
X39547300D01*
X39422701Y19830687D02*
X39547300D01*
X39422701Y19807827D02*
X39547300D01*
X39422701Y19784967D02*
X39547300D01*
X39422701Y19762107D02*
X39547300D01*
X39422701Y19739247D02*
X39547300D01*
X39422701Y19716387D02*
X39547300D01*
X39422701Y19693527D02*
X39547300D01*
X39422701Y19670667D02*
X39547300D01*
X39422701Y19647807D02*
X39547300D01*
X39422701Y19624947D02*
X39547300D01*
X39422701Y19602087D02*
X39547300D01*
X39422701Y19579227D02*
X39547300D01*
X39422701Y19556367D02*
X39547300D01*
X39422701Y19533507D02*
X39547300D01*
X39422701Y19510647D02*
X39547300D01*
X39422701Y19487787D02*
X39547300D01*
X39422701Y19464927D02*
X39547300D01*
X39422701Y19442067D02*
X39547300D01*
X39422701Y19419207D02*
X39547300D01*
X39422701Y19396347D02*
X39547300D01*
X39422701Y19373487D02*
X39547300D01*
X39422701Y19350627D02*
X39547300D01*
X39422701Y19327767D02*
X39547300D01*
X39422701Y19304907D02*
X39547300D01*
X39422701Y19282047D02*
X39547300D01*
X39422701Y19259187D02*
X39547300D01*
X39422701Y19236327D02*
X39547300D01*
X39422701Y19213467D02*
X39547300D01*
X39422701Y19190607D02*
X39547300D01*
X39422701Y19167747D02*
X39547300D01*
X39422701Y19144887D02*
X39547300D01*
X39422701Y19122027D02*
X39547300D01*
X39422701Y19099167D02*
X39547300D01*
X39422701Y19076307D02*
X39547300D01*
X39422701Y19053447D02*
X39547300D01*
X39422701Y19030587D02*
X39547300D01*
X39422701Y19007727D02*
X39547300D01*
X39422701Y18984867D02*
X39547300D01*
X39422701Y18962007D02*
X39547300D01*
X39422701Y18939147D02*
X39547300D01*
X39422701Y18916287D02*
X39547300D01*
X39422701Y18893427D02*
X39547300D01*
X39422701Y18870567D02*
X39547300D01*
X39422701Y18847707D02*
X39547300D01*
X39422701Y18824847D02*
X39547300D01*
X39422701Y18801987D02*
X39547300D01*
X39422701Y18779127D02*
X39547300D01*
X39422701Y18756267D02*
X39547300D01*
X39422701Y18733407D02*
X39547300D01*
X39422701Y18710547D02*
X39547300D01*
X39422701Y18687687D02*
X39547300D01*
X39422701Y18664827D02*
X39547300D01*
X39422701Y18641967D02*
X39547300D01*
X39422701Y18619107D02*
X39547300D01*
X39422701Y18596247D02*
X39547300D01*
X39422701Y18573387D02*
X39547300D01*
X39422701Y18550527D02*
X39547300D01*
X39422701Y18527667D02*
X39547300D01*
X39422701Y18504807D02*
X39547300D01*
X39422701Y18481947D02*
X39547300D01*
X39422701Y18459087D02*
X39547300D01*
X39422701Y18436227D02*
X39547300D01*
X39422701Y18413367D02*
X39547300D01*
X39418437Y18390507D02*
X39547300D01*
X25522700Y18367647D02*
X39547300D01*
X25522700Y18344787D02*
X39547300D01*
X25522700Y18321927D02*
X39547300D01*
X25522700Y18299067D02*
X39547300D01*
X25522700Y18276207D02*
X39547300D01*
X25522700Y18253347D02*
X39547300D01*
X25522700Y18230487D02*
X39547300D01*
X25522700Y18207627D02*
X39547300D01*
X25522700Y18184767D02*
X39547300D01*
X25522700Y18161907D02*
X39547300D01*
X25522700Y18139047D02*
X39547300D01*
X25522700Y18116187D02*
X39547300D01*
X25522700Y18093327D02*
X39547300D01*
X25522700Y18070467D02*
X39547300D01*
X38148433Y18047607D02*
X39547300D01*
X38191474Y18024747D02*
X39547300D01*
X39062904Y18001887D02*
X39547300D01*
X39115591Y17979027D02*
X39547300D01*
X39135981Y17956167D02*
X39547300D01*
X39147150Y17933307D02*
X39547300D01*
X39152168Y17910447D02*
X39547300D01*
X39151948Y17887587D02*
X39547300D01*
X39146453Y17864727D02*
X39547300D01*
X39134664Y17841867D02*
X39547300D01*
X39113146Y17819007D02*
X39547300D01*
X38187315Y17796147D02*
X39547300D01*
X38137497Y17773287D02*
X39547300D01*
X25522700Y17750427D02*
X39547300D01*
X25522700Y17727567D02*
X39547300D01*
X39001532Y17704707D02*
X39547300D01*
X39034778Y17681847D02*
X39547300D01*
X39051527Y17658987D02*
X39547300D01*
X39060500Y17636127D02*
X39547300D01*
X39063758Y17613267D02*
X39547300D01*
X39061855Y17590407D02*
X39547300D01*
X39054479Y17567547D02*
X39547300D01*
X39040108Y17544687D02*
X39547300D01*
X39013252Y17521827D02*
X39547300D01*
X38668430Y17498967D02*
X39547300D01*
X25522700Y17476107D02*
X39547300D01*
X25522700Y17453247D02*
X39547300D01*
X25522700Y17430387D02*
X39547300D01*
X25522700Y17407527D02*
X39547300D01*
X25522700Y17384667D02*
X39547300D01*
X35147243Y24356967D02*
X39535073D01*
X35129556Y24379827D02*
X39512213D01*
X35096442Y24402687D02*
X39489353D01*
X25603507Y24425547D02*
X39466493D01*
X38662904Y18001887D02*
X39037096D01*
X38681922Y22002387D02*
X39018078D01*
X38707245Y22185267D02*
X38992755D01*
X38713146Y17819007D02*
X38986854D01*
X38715591Y17979027D02*
X38984409D01*
X38720423Y22025247D02*
X38979577D01*
X38731565Y22162407D02*
X38968435D01*
X38734664Y17841867D02*
X38965336D01*
X38735981Y17956167D02*
X38964019D01*
X38738626Y22048107D02*
X38961374D01*
X38744781Y22139547D02*
X38955219D01*
X38746453Y17864727D02*
X38953547D01*
X38747150Y17933307D02*
X38952850D01*
X38748511Y22070967D02*
X38951489D01*
X38751336Y22116687D02*
X38948664D01*
X38751948Y17887587D02*
X38948052D01*
X38752168Y17910447D02*
X38947832D01*
X38752515Y22093827D02*
X38947485D01*
X37281536Y21910947D02*
X38940664D01*
X37301532Y17704707D02*
X38920668D01*
X38716606Y17521827D02*
X38908948D01*
X38723301Y21728067D02*
X38899577D01*
X38702803Y21888087D02*
X38894043D01*
X38712036Y17681847D02*
X38887422D01*
X38736532Y17544687D02*
X38882092D01*
X38740218Y21750927D02*
X38877301D01*
X38729328Y21865227D02*
X38874322D01*
X38734071Y17658987D02*
X38870673D01*
X38747438Y17567547D02*
X38867721D01*
X38749299Y21773787D02*
X38865110D01*
X38743555Y21842367D02*
X38863534D01*
X38746137Y17636127D02*
X38861700D01*
X38752251Y17590407D02*
X38860345D01*
X38752646Y21796647D02*
X38859311D01*
X38750831Y21819507D02*
X38858813D01*
X38751840Y17613267D02*
X38858442D01*
X34315040Y24448407D02*
X38793633D01*
X34365943Y24471267D02*
X38770773D01*
X34386172Y24494127D02*
X38747913D01*
X34397250Y24516987D02*
X38725053D01*
X34402197Y24539847D02*
X38702193D01*
X35449268Y25179927D02*
X38697300D01*
X35438093Y25157067D02*
X38697300D01*
X35420423Y25134207D02*
X38697300D01*
X35391322Y25111347D02*
X38697300D01*
X35645607Y25088487D02*
X38697300D01*
X35674583Y25065627D02*
X38697300D01*
X35692195Y25042767D02*
X38697300D01*
X35703330Y25019907D02*
X38697300D01*
X35709642Y24997047D02*
X38697300D01*
X35711815Y24974187D02*
X38697300D01*
X35710054Y24951327D02*
X38697300D01*
X35704193Y24928467D02*
X38697300D01*
X35693612Y24905607D02*
X38697300D01*
X35676804Y24882747D02*
X38697300D01*
X35649507Y24859887D02*
X38697300D01*
X26372700Y24837027D02*
X38697300D01*
X26372700Y24814167D02*
X38697300D01*
X26372700Y24791307D02*
X38697300D01*
X26372700Y24768447D02*
X38697300D01*
X26372700Y24745587D02*
X38697300D01*
X26372700Y24722727D02*
X38697300D01*
X26372700Y24699867D02*
X38697300D01*
X26372700Y24677007D02*
X38697300D01*
X26372700Y24654147D02*
X38697300D01*
X34362768Y24631287D02*
X38697300D01*
X34384461Y24608427D02*
X38697300D01*
X34396345Y24585567D02*
X38697300D01*
X34401911Y24562707D02*
X38697300D01*
X35455612Y25202787D02*
X38689253D01*
X35457814Y25225647D02*
X38666393D01*
X35456081Y25248507D02*
X38643533D01*
X38214832Y18001887D02*
X38637096D01*
X38468430Y17498967D02*
X38631570D01*
X35450292Y25271367D02*
X38620673D01*
X38195369Y22002387D02*
X38618078D01*
X38489517Y21705207D02*
X38610483D01*
X38502803Y21888087D02*
X38597197D01*
X38226456Y22185267D02*
X38592755D01*
X38512036Y17681847D02*
X38587964D01*
X38212239Y17819007D02*
X38586854D01*
X38229980Y17979027D02*
X38584409D01*
X38516606Y17521827D02*
X38583394D01*
X38217302Y22025247D02*
X38579577D01*
X38523301Y21728067D02*
X38576699D01*
X38529328Y21865227D02*
X38570672D01*
X38237501Y22162407D02*
X38568435D01*
X38534071Y17658987D02*
X38565929D01*
X38228277Y17841867D02*
X38565336D01*
X38239694Y17956167D02*
X38564019D01*
X38536532Y17544687D02*
X38563468D01*
X38231597Y22048107D02*
X38561374D01*
X38540584Y21750927D02*
X38559416D01*
X38244017Y22139547D02*
X38555219D01*
X38238643Y17864727D02*
X38553547D01*
X38245101Y17933307D02*
X38552850D01*
X38240674Y22070967D02*
X38551489D01*
X38246624Y22116687D02*
X38548664D01*
X38244597Y17887587D02*
X38548052D01*
X38246692Y17910447D02*
X38547832D01*
X38245539Y22093827D02*
X38547485D01*
X36968430Y17498967D02*
X38431570D01*
X36989517Y21705207D02*
X38410483D01*
X37328157Y21888087D02*
X38397197D01*
X37334778Y17681847D02*
X38387964D01*
X37313252Y17521827D02*
X38383394D01*
X37322623Y21728067D02*
X38376699D01*
X37347878Y21865227D02*
X38370672D01*
X37351527Y17658987D02*
X38365929D01*
X37340108Y17544687D02*
X38363468D01*
X37344899Y21750927D02*
X38359782D01*
X37358666Y21842367D02*
X38356445D01*
X37360500Y17636127D02*
X38353863D01*
X37354479Y17567547D02*
X38352562D01*
X37357090Y21773787D02*
X38350701D01*
X37363387Y21819507D02*
X38349169D01*
X37363758Y17613267D02*
X38348160D01*
X37361855Y17590407D02*
X38347749D01*
X37362889Y21796647D02*
X38347354D01*
X37865587Y22253847D02*
X38088413D01*
X37883497Y17773287D02*
X38070503D01*
X37894433Y18047607D02*
X38059567D01*
X37903050Y21979527D02*
X38050950D01*
X37928776Y22230987D02*
X38025224D01*
X37933315Y17796147D02*
X38020685D01*
X37937474Y18024747D02*
X38016526D01*
X37941369Y22002387D02*
X38012631D01*
X37955466Y22208127D02*
X37998534D01*
X37958239Y17819007D02*
X37995761D01*
X37960832Y18001887D02*
X37993168D01*
X37963302Y22025247D02*
X37990698D01*
X36419587Y22253847D02*
X37834413D01*
X36437497Y17773287D02*
X37816503D01*
X36448433Y18047607D02*
X37805567D01*
X36457050Y21979527D02*
X37796950D01*
X36482776Y22230987D02*
X37771224D01*
X36487315Y17796147D02*
X37766685D01*
X36491474Y18024747D02*
X37762526D01*
X37381922Y22002387D02*
X37758631D01*
X36509466Y22208127D02*
X37744534D01*
X37413146Y17819007D02*
X37741761D01*
X37362904Y18001887D02*
X37739168D01*
X37420423Y22025247D02*
X37736698D01*
X37407245Y22185267D02*
X37727544D01*
X37434664Y17841867D02*
X37725723D01*
X37415591Y17979027D02*
X37724020D01*
X37438626Y22048107D02*
X37722403D01*
X37431565Y22162407D02*
X37716499D01*
X37446453Y17864727D02*
X37715357D01*
X37435981Y17956167D02*
X37714306D01*
X37448511Y22070967D02*
X37713326D01*
X37444781Y22139547D02*
X37709983D01*
X37451948Y17887587D02*
X37709403D01*
X37447150Y17933307D02*
X37708899D01*
X37452515Y22093827D02*
X37708461D01*
X37451336Y22116687D02*
X37707376D01*
X37452168Y17910447D02*
X37707308D01*
X36962904Y18001887D02*
X37337096D01*
X36981922Y22002387D02*
X37318078D01*
X37007245Y22185267D02*
X37292755D01*
X37013146Y17819007D02*
X37286854D01*
X37015591Y17979027D02*
X37284409D01*
X37020423Y22025247D02*
X37279577D01*
X37031565Y22162407D02*
X37268435D01*
X37034664Y17841867D02*
X37265336D01*
X37035981Y17956167D02*
X37264019D01*
X37038626Y22048107D02*
X37261374D01*
X37044781Y22139547D02*
X37255219D01*
X37046453Y17864727D02*
X37253547D01*
X37047150Y17933307D02*
X37252850D01*
X37048511Y22070967D02*
X37251489D01*
X37051336Y22116687D02*
X37248664D01*
X37051948Y17887587D02*
X37248052D01*
X37052168Y17910447D02*
X37247832D01*
X37052515Y22093827D02*
X37247485D01*
X35581536Y21910947D02*
X37240664D01*
X35601532Y17704707D02*
X37220668D01*
X37016606Y17521827D02*
X37208948D01*
X37023301Y21728067D02*
X37199577D01*
X37002803Y21888087D02*
X37194043D01*
X37012036Y17681847D02*
X37187422D01*
X37036532Y17544687D02*
X37182092D01*
X37040218Y21750927D02*
X37177301D01*
X37029328Y21865227D02*
X37174322D01*
X37034071Y17658987D02*
X37170673D01*
X37047438Y17567547D02*
X37167721D01*
X37049299Y21773787D02*
X37165110D01*
X37043555Y21842367D02*
X37163534D01*
X37046137Y17636127D02*
X37161700D01*
X37052251Y17590407D02*
X37160345D01*
X37052646Y21796647D02*
X37159311D01*
X37050831Y21819507D02*
X37158813D01*
X37051840Y17613267D02*
X37158442D01*
X36514832Y18001887D02*
X36937096D01*
X36768430Y17498967D02*
X36931570D01*
X36495369Y22002387D02*
X36918078D01*
X36789517Y21705207D02*
X36910483D01*
X36802803Y21888087D02*
X36897197D01*
X36526456Y22185267D02*
X36892755D01*
X36812036Y17681847D02*
X36887964D01*
X36512239Y17819007D02*
X36886854D01*
X36529980Y17979027D02*
X36884409D01*
X36816606Y17521827D02*
X36883394D01*
X36517302Y22025247D02*
X36879577D01*
X36823301Y21728067D02*
X36876699D01*
X36829328Y21865227D02*
X36870672D01*
X36537501Y22162407D02*
X36868435D01*
X36834071Y17658987D02*
X36865929D01*
X36528277Y17841867D02*
X36865336D01*
X36539694Y17956167D02*
X36864019D01*
X36836532Y17544687D02*
X36863468D01*
X36531597Y22048107D02*
X36861374D01*
X36840584Y21750927D02*
X36859416D01*
X36544017Y22139547D02*
X36855219D01*
X36538643Y17864727D02*
X36853547D01*
X36545101Y17933307D02*
X36852850D01*
X36540674Y22070967D02*
X36851489D01*
X36546624Y22116687D02*
X36848664D01*
X36544597Y17887587D02*
X36848052D01*
X36546692Y17910447D02*
X36847832D01*
X36545539Y22093827D02*
X36847485D01*
X35268430Y17498967D02*
X36731570D01*
X35289517Y21705207D02*
X36710483D01*
X35628157Y21888087D02*
X36697197D01*
X35634778Y17681847D02*
X36687964D01*
X35613252Y17521827D02*
X36683394D01*
X35622623Y21728067D02*
X36676699D01*
X35647878Y21865227D02*
X36670672D01*
X35651527Y17658987D02*
X36665929D01*
X35640108Y17544687D02*
X36663468D01*
X35644899Y21750927D02*
X36659782D01*
X35658666Y21842367D02*
X36656445D01*
X35660500Y17636127D02*
X36653863D01*
X35654479Y17567547D02*
X36652562D01*
X35657090Y21773787D02*
X36650701D01*
X35663387Y21819507D02*
X36649169D01*
X35663758Y17613267D02*
X36648160D01*
X35661855Y17590407D02*
X36647749D01*
X35662889Y21796647D02*
X36647354D01*
X36165587Y22253847D02*
X36388413D01*
X36183497Y17773287D02*
X36370503D01*
X36194433Y18047607D02*
X36359567D01*
X36203050Y21979527D02*
X36350950D01*
X36228776Y22230987D02*
X36325224D01*
X36233315Y17796147D02*
X36320685D01*
X36237474Y18024747D02*
X36316526D01*
X36241369Y22002387D02*
X36312631D01*
X36255466Y22208127D02*
X36298534D01*
X36258239Y17819007D02*
X36295761D01*
X36260832Y18001887D02*
X36293168D01*
X36263302Y22025247D02*
X36290698D01*
X34719587Y22253847D02*
X36134413D01*
X34737497Y17773287D02*
X36116503D01*
X34748433Y18047607D02*
X36105567D01*
X34757050Y21979527D02*
X36096950D01*
X34782776Y22230987D02*
X36071224D01*
X34787315Y17796147D02*
X36066685D01*
X34791474Y18024747D02*
X36062526D01*
X35681922Y22002387D02*
X36058631D01*
X34809466Y22208127D02*
X36044534D01*
X35713146Y17819007D02*
X36041761D01*
X35662904Y18001887D02*
X36039168D01*
X35720423Y22025247D02*
X36036698D01*
X35707245Y22185267D02*
X36027544D01*
X35734664Y17841867D02*
X36025723D01*
X35715591Y17979027D02*
X36024020D01*
X35738626Y22048107D02*
X36022403D01*
X35731565Y22162407D02*
X36016499D01*
X35746453Y17864727D02*
X36015357D01*
X35735981Y17956167D02*
X36014306D01*
X35748511Y22070967D02*
X36013326D01*
X35744781Y22139547D02*
X36009983D01*
X35751948Y17887587D02*
X36009403D01*
X35747150Y17933307D02*
X36008899D01*
X35752515Y22093827D02*
X36008461D01*
X35751336Y22116687D02*
X36007376D01*
X35752168Y17910447D02*
X36007308D01*
X35262904Y18001887D02*
X35637096D01*
X35281922Y22002387D02*
X35618078D01*
X35490229Y24105507D02*
X35609771D01*
X35502299Y24288387D02*
X35597701D01*
X35307245Y22185267D02*
X35592755D01*
X35313146Y17819007D02*
X35586854D01*
X35315591Y17979027D02*
X35584409D01*
X35320423Y22025247D02*
X35579577D01*
X35523594Y24128367D02*
X35576406D01*
X35529080Y24265527D02*
X35570920D01*
X35331565Y22162407D02*
X35568435D01*
X35334664Y17841867D02*
X35565336D01*
X35335981Y17956167D02*
X35564019D01*
X35338626Y22048107D02*
X35561374D01*
X35540865Y24151227D02*
X35559135D01*
X35344781Y22139547D02*
X35555219D01*
X35346453Y17864727D02*
X35553547D01*
X35347150Y17933307D02*
X35552850D01*
X35348511Y22070967D02*
X35551489D01*
X35351336Y22116687D02*
X35548664D01*
X35351948Y17887587D02*
X35548052D01*
X35352168Y17910447D02*
X35547832D01*
X35352515Y22093827D02*
X35547485D01*
X33881536Y21910947D02*
X35540664D01*
X33901532Y17704707D02*
X35520668D01*
X35391607Y25088487D02*
X35510393D01*
X35316606Y17521827D02*
X35508948D01*
X35395507Y24859887D02*
X35506493D01*
X35323301Y21728067D02*
X35499577D01*
X35302803Y21888087D02*
X35494043D01*
X35312036Y17681847D02*
X35487422D01*
X35336532Y17544687D02*
X35482092D01*
X35420583Y25065627D02*
X35481417D01*
X35422804Y24882747D02*
X35479196D01*
X35340218Y21750927D02*
X35477301D01*
X35329328Y21865227D02*
X35474322D01*
X35334071Y17658987D02*
X35470673D01*
X35347438Y17567547D02*
X35467721D01*
X35349299Y21773787D02*
X35465110D01*
X35438195Y25042767D02*
X35463805D01*
X35343555Y21842367D02*
X35463534D01*
X35439612Y24905607D02*
X35462388D01*
X35346137Y17636127D02*
X35461700D01*
X35352251Y17590407D02*
X35460345D01*
X35352646Y21796647D02*
X35459311D01*
X35350831Y21819507D02*
X35458813D01*
X35351840Y17613267D02*
X35458442D01*
X28290229Y24105507D02*
X35409771D01*
X35162101Y24288387D02*
X35397701D01*
X28323594Y24128367D02*
X35376406D01*
X35157299Y24265527D02*
X35370920D01*
X34328129Y24151227D02*
X35359620D01*
X35147027Y24242667D02*
X35356582D01*
X34369171Y24174087D02*
X35350622D01*
X35129186Y24219807D02*
X35349228D01*
X35095623Y24196947D02*
X35347345D01*
X34883322Y25111347D02*
X35256678D01*
X35137607Y25088487D02*
X35256393D01*
X35141507Y24859887D02*
X35252493D01*
X34814832Y18001887D02*
X35237096D01*
X35068430Y17498967D02*
X35231570D01*
X34912423Y25134207D02*
X35227577D01*
X35166583Y25065627D02*
X35227417D01*
X35168804Y24882747D02*
X35225196D01*
X34795369Y22002387D02*
X35218078D01*
X35089517Y21705207D02*
X35210483D01*
X34930093Y25157067D02*
X35209907D01*
X35184195Y25042767D02*
X35209805D01*
X35185612Y24905607D02*
X35208388D01*
X34941268Y25179927D02*
X35198732D01*
X34942292Y25271367D02*
X35197708D01*
X35102803Y21888087D02*
X35197197D01*
X34826456Y22185267D02*
X35192755D01*
X34947612Y25202787D02*
X35192388D01*
X34948081Y25248507D02*
X35191919D01*
X34949814Y25225647D02*
X35190186D01*
X35112036Y17681847D02*
X35187964D01*
X34812239Y17819007D02*
X35186854D01*
X34829980Y17979027D02*
X35184409D01*
X35116606Y17521827D02*
X35183394D01*
X34817302Y22025247D02*
X35179577D01*
X35123301Y21728067D02*
X35176699D01*
X35129328Y21865227D02*
X35170672D01*
X34837501Y22162407D02*
X35168435D01*
X35134071Y17658987D02*
X35165929D01*
X34828277Y17841867D02*
X35165336D01*
X34839694Y17956167D02*
X35164019D01*
X35136532Y17544687D02*
X35163468D01*
X34831597Y22048107D02*
X35161374D01*
X35140584Y21750927D02*
X35159416D01*
X34844017Y22139547D02*
X35155219D01*
X34838643Y17864727D02*
X35153547D01*
X34845101Y17933307D02*
X35152850D01*
X34840674Y22070967D02*
X35151489D01*
X34846624Y22116687D02*
X35148664D01*
X34844597Y17887587D02*
X35148052D01*
X34846692Y17910447D02*
X35147832D01*
X34845539Y22093827D02*
X35147485D01*
X33568430Y17498967D02*
X35031570D01*
X33589517Y21705207D02*
X35010483D01*
X34387936Y24196947D02*
X35004377D01*
X28696442Y24402687D02*
X35003558D01*
X34121607Y25088487D02*
X35002393D01*
X34125507Y24859887D02*
X34998493D01*
X33928157Y21888087D02*
X34997197D01*
X33934778Y17681847D02*
X34987964D01*
X33913252Y17521827D02*
X34983394D01*
X33922623Y21728067D02*
X34976699D01*
X34150583Y25065627D02*
X34973417D01*
X34152804Y24882747D02*
X34971196D01*
X34398162Y24219807D02*
X34970814D01*
X33947878Y21865227D02*
X34970672D01*
X28729556Y24379827D02*
X34970444D01*
X33951527Y17658987D02*
X34965929D01*
X33940108Y17544687D02*
X34963468D01*
X33944899Y21750927D02*
X34959782D01*
X33958666Y21842367D02*
X34956445D01*
X34168195Y25042767D02*
X34955805D01*
X34169612Y24905607D02*
X34954388D01*
X33960500Y17636127D02*
X34953863D01*
X34402438Y24242667D02*
X34952973D01*
X28747243Y24356967D02*
X34952757D01*
X33954479Y17567547D02*
X34952562D01*
X33957090Y21773787D02*
X34950701D01*
X33963387Y21819507D02*
X34949169D01*
X33963758Y17613267D02*
X34948160D01*
X33961855Y17590407D02*
X34947749D01*
X33962889Y21796647D02*
X34947354D01*
X34179330Y25019907D02*
X34944670D01*
X34180193Y24928467D02*
X34943807D01*
X34401520Y24265527D02*
X34942701D01*
X34358936Y24334107D02*
X34942584D01*
X34185642Y24997047D02*
X34938358D01*
X34186054Y24951327D02*
X34937946D01*
X34395257Y24288387D02*
X34937899D01*
X34382439Y24311247D02*
X34937862D01*
X34187815Y24974187D02*
X34936185D01*
X34629322Y25111347D02*
X34748678D01*
X34658423Y25134207D02*
X34719577D01*
X34676093Y25157067D02*
X34701907D01*
X34465587Y22253847D02*
X34688413D01*
X34483497Y17773287D02*
X34670503D01*
X34494433Y18047607D02*
X34659567D01*
X34503050Y21979527D02*
X34650950D01*
X34528776Y22230987D02*
X34625224D01*
X34533315Y17796147D02*
X34620685D01*
X34537474Y18024747D02*
X34616526D01*
X34541369Y22002387D02*
X34612631D01*
X34555466Y22208127D02*
X34598534D01*
X34558239Y17819007D02*
X34595761D01*
X34560832Y18001887D02*
X34593168D01*
X34563302Y22025247D02*
X34590698D01*
X34375322Y25111347D02*
X34494678D01*
X34404423Y25134207D02*
X34465577D01*
X34422093Y25157067D02*
X34447907D01*
X33019587Y22253847D02*
X34434413D01*
X33037497Y17773287D02*
X34416503D01*
X33048433Y18047607D02*
X34405567D01*
X33057050Y21979527D02*
X34396950D01*
X33082776Y22230987D02*
X34371224D01*
X33087315Y17796147D02*
X34366685D01*
X33091474Y18024747D02*
X34362526D01*
X33981922Y22002387D02*
X34358631D01*
X33109466Y22208127D02*
X34344534D01*
X34013146Y17819007D02*
X34341761D01*
X33962904Y18001887D02*
X34339168D01*
X34020423Y22025247D02*
X34336698D01*
X34007245Y22185267D02*
X34327544D01*
X34034664Y17841867D02*
X34325723D01*
X34015591Y17979027D02*
X34324020D01*
X34038626Y22048107D02*
X34322403D01*
X34031565Y22162407D02*
X34316499D01*
X34046453Y17864727D02*
X34315357D01*
X34035981Y17956167D02*
X34314306D01*
X34048511Y22070967D02*
X34313326D01*
X34044781Y22139547D02*
X34309983D01*
X34051948Y17887587D02*
X34309403D01*
X34047150Y17933307D02*
X34308899D01*
X34052515Y22093827D02*
X34308461D01*
X34051336Y22116687D02*
X34307376D01*
X34052168Y17910447D02*
X34307308D01*
X32515040Y24448407D02*
X34284960D01*
X33528129Y24151227D02*
X34271871D01*
X33558936Y24334107D02*
X34241064D01*
X34121322Y25111347D02*
X34240678D01*
X32562768Y24631287D02*
X34237232D01*
X32565943Y24471267D02*
X34234057D01*
X33569171Y24174087D02*
X34230829D01*
X33582439Y24311247D02*
X34217561D01*
X32584461Y24608427D02*
X34215539D01*
X32586172Y24494127D02*
X34213828D01*
X33587936Y24196947D02*
X34212064D01*
X34150423Y25134207D02*
X34211577D01*
X33595257Y24288387D02*
X34204743D01*
X32596345Y24585567D02*
X34203655D01*
X32597250Y24516987D02*
X34202750D01*
X33598162Y24219807D02*
X34201838D01*
X33601520Y24265527D02*
X34198480D01*
X32601911Y24562707D02*
X34198089D01*
X32602197Y24539847D02*
X34197803D01*
X33602438Y24242667D02*
X34197562D01*
X34168093Y25157067D02*
X34193907D01*
X33913620Y22848207D02*
X34136380D01*
X33927417Y22551027D02*
X34122583D01*
X33959221Y22733907D02*
X34090779D01*
X33963027Y23031087D02*
X34086973D01*
X33965703Y22871067D02*
X34084297D01*
X33968950Y22573887D02*
X34081050D01*
X33982588Y22711047D02*
X34067412D01*
X33984599Y23008227D02*
X34065401D01*
X33986042Y22893927D02*
X34063958D01*
X33987815Y22596747D02*
X34062185D01*
X33995337Y22688187D02*
X34054663D01*
X33996419Y22985367D02*
X34053581D01*
X33997182Y22916787D02*
X34052818D01*
X33998100Y22619607D02*
X34051900D01*
X34001550Y22665327D02*
X34048450D01*
X34001936Y22962507D02*
X34048064D01*
X34002177Y22939647D02*
X34047823D01*
X34002424Y22642467D02*
X34047576D01*
X33615411Y23053947D02*
X33998652D01*
X33871507Y24859887D02*
X33982493D01*
X32289850Y23236827D02*
X33980150D01*
X33609140Y23076807D02*
X33962957D01*
X33898804Y24882747D02*
X33955196D01*
X32315347Y23213967D02*
X33954653D01*
X33599892Y23099667D02*
X33945479D01*
X32329115Y23191107D02*
X33940885D01*
X33915612Y24905607D02*
X33938388D01*
X33562904Y18001887D02*
X33937096D01*
X33582714Y23122527D02*
X33936042D01*
X32336067Y23168247D02*
X33933933D01*
X33548063Y23145387D02*
X33932403D01*
X33581922Y22002387D02*
X33918078D01*
X33607245Y22185267D02*
X33892755D01*
X33613146Y17819007D02*
X33886854D01*
X33663620Y22848207D02*
X33886380D01*
X33615591Y17979027D02*
X33884409D01*
X33620423Y22025247D02*
X33879577D01*
X33677417Y22551027D02*
X33872583D01*
X33631565Y22162407D02*
X33868435D01*
X33634664Y17841867D02*
X33865336D01*
X33635981Y17956167D02*
X33864019D01*
X33638626Y22048107D02*
X33861374D01*
X33644781Y22139547D02*
X33855219D01*
X33646453Y17864727D02*
X33853547D01*
X33647150Y17933307D02*
X33852850D01*
X33648511Y22070967D02*
X33851489D01*
X33651336Y22116687D02*
X33848664D01*
X33651948Y17887587D02*
X33848052D01*
X33652168Y17910447D02*
X33847832D01*
X33652515Y22093827D02*
X33847485D01*
X33709221Y22733907D02*
X33840779D01*
X32181536Y21910947D02*
X33840664D01*
X33713027Y23031087D02*
X33836973D01*
X33715703Y22871067D02*
X33834297D01*
X33718950Y22573887D02*
X33831050D01*
X32201532Y17704707D02*
X33820668D01*
X33732588Y22711047D02*
X33817412D01*
X33734599Y23008227D02*
X33815401D01*
X33736042Y22893927D02*
X33813958D01*
X33737815Y22596747D02*
X33812185D01*
X33616606Y17521827D02*
X33808948D01*
X33745337Y22688187D02*
X33804663D01*
X33746419Y22985367D02*
X33803581D01*
X33747182Y22916787D02*
X33802818D01*
X33748100Y22619607D02*
X33801900D01*
X33623301Y21728067D02*
X33799577D01*
X33751550Y22665327D02*
X33798450D01*
X33751936Y22962507D02*
X33798064D01*
X33752177Y22939647D02*
X33797823D01*
X33752424Y22642467D02*
X33797576D01*
X33602803Y21888087D02*
X33794043D01*
X33612036Y17681847D02*
X33787422D01*
X33636532Y17544687D02*
X33782092D01*
X33640218Y21750927D02*
X33777301D01*
X33629328Y21865227D02*
X33774322D01*
X33634071Y17658987D02*
X33770673D01*
X33647438Y17567547D02*
X33767721D01*
X33649299Y21773787D02*
X33765110D01*
X33643555Y21842367D02*
X33763534D01*
X33646137Y17636127D02*
X33761700D01*
X33652251Y17590407D02*
X33760345D01*
X33652646Y21796647D02*
X33759311D01*
X33650831Y21819507D02*
X33758813D01*
X33651840Y17613267D02*
X33758442D01*
X33617507Y24859887D02*
X33728493D01*
X33644804Y24882747D02*
X33701196D01*
X33661612Y24905607D02*
X33684388D01*
X32363620Y22848207D02*
X33636380D01*
X32377417Y22551027D02*
X33622583D01*
X32409221Y22733907D02*
X33590779D01*
X32415703Y22871067D02*
X33584297D01*
X32418950Y22573887D02*
X33581050D01*
X32432588Y22711047D02*
X33567412D01*
X32436042Y22893927D02*
X33563958D01*
X32437815Y22596747D02*
X33562185D01*
X32445337Y22688187D02*
X33554663D01*
X32447182Y22916787D02*
X33552818D01*
X32448100Y22619607D02*
X33551900D01*
X32451550Y22665327D02*
X33548450D01*
X32452177Y22939647D02*
X33547789D01*
X32452424Y22642467D02*
X33547576D01*
X33114832Y18001887D02*
X33537096D01*
X33368430Y17498967D02*
X33531570D01*
X33095369Y22002387D02*
X33518078D01*
X33389517Y21705207D02*
X33510483D01*
X33402803Y21888087D02*
X33497197D01*
X33126456Y22185267D02*
X33492755D01*
X33412036Y17681847D02*
X33487964D01*
X33112239Y17819007D02*
X33486854D01*
X33129980Y17979027D02*
X33484409D01*
X33416606Y17521827D02*
X33483394D01*
X33117302Y22025247D02*
X33479577D01*
X33423301Y21728067D02*
X33476699D01*
X33363507Y24859887D02*
X33474493D01*
X32337597Y23145387D02*
X33471937D01*
X32528129Y24151227D02*
X33471871D01*
X33429328Y21865227D02*
X33470672D01*
X33137501Y22162407D02*
X33468435D01*
X33434071Y17658987D02*
X33465929D01*
X33128277Y17841867D02*
X33465336D01*
X33139694Y17956167D02*
X33464019D01*
X33436532Y17544687D02*
X33463468D01*
X33131597Y22048107D02*
X33461374D01*
X33440584Y21750927D02*
X33459416D01*
X32451936Y22962507D02*
X33456220D01*
X33144017Y22139547D02*
X33455219D01*
X33138643Y17864727D02*
X33453547D01*
X33145101Y17933307D02*
X33452850D01*
X33140674Y22070967D02*
X33451489D01*
X33146624Y22116687D02*
X33448664D01*
X33144597Y17887587D02*
X33448052D01*
X33146692Y17910447D02*
X33447832D01*
X33145539Y22093827D02*
X33447485D01*
X33390804Y24882747D02*
X33447196D01*
X32558936Y24334107D02*
X33441064D01*
X32333958Y23122527D02*
X33437286D01*
X32569171Y24174087D02*
X33430829D01*
X33407612Y24905607D02*
X33430388D01*
X32446419Y22985367D02*
X33430188D01*
X32324521Y23099667D02*
X33420108D01*
X32582439Y24311247D02*
X33417561D01*
X32434599Y23008227D02*
X33416179D01*
X32587936Y24196947D02*
X33412064D01*
X32307043Y23076807D02*
X33410860D01*
X32413027Y23031087D02*
X33409056D01*
X32271348Y23053947D02*
X33407375D01*
X32595257Y24288387D02*
X33404743D01*
X32598162Y24219807D02*
X33401838D01*
X32601520Y24265527D02*
X33398480D01*
X32602438Y24242667D02*
X33397562D01*
X31868430Y17498967D02*
X33331570D01*
X31889517Y21705207D02*
X33310483D01*
X32228157Y21888087D02*
X33297197D01*
X32234778Y17681847D02*
X33287964D01*
X32213252Y17521827D02*
X33283394D01*
X32222623Y21728067D02*
X33276699D01*
X32247878Y21865227D02*
X33270672D01*
X32251527Y17658987D02*
X33265929D01*
X32240108Y17544687D02*
X33263468D01*
X32244899Y21750927D02*
X33259782D01*
X32258666Y21842367D02*
X33256445D01*
X32260500Y17636127D02*
X33253863D01*
X32254479Y17567547D02*
X33252562D01*
X32257090Y21773787D02*
X33250701D01*
X32263387Y21819507D02*
X33249169D01*
X32263758Y17613267D02*
X33248160D01*
X32261855Y17590407D02*
X33247749D01*
X32262889Y21796647D02*
X33247354D01*
X33109507Y24859887D02*
X33220493D01*
X33136804Y24882747D02*
X33193196D01*
X33153612Y24905607D02*
X33176388D01*
X32765587Y22253847D02*
X32988413D01*
X32783497Y17773287D02*
X32970503D01*
X32855507Y24859887D02*
X32966493D01*
X32794433Y18047607D02*
X32959567D01*
X32803050Y21979527D02*
X32950950D01*
X32882804Y24882747D02*
X32939196D01*
X32828776Y22230987D02*
X32925224D01*
X32899612Y24905607D02*
X32922388D01*
X32833315Y17796147D02*
X32920685D01*
X32837474Y18024747D02*
X32916526D01*
X32841369Y22002387D02*
X32912631D01*
X32855466Y22208127D02*
X32898534D01*
X32858239Y17819007D02*
X32895761D01*
X32860832Y18001887D02*
X32893168D01*
X32863302Y22025247D02*
X32890698D01*
X31319587Y22253847D02*
X32734413D01*
X31337497Y17773287D02*
X32716503D01*
X32601507Y24859887D02*
X32712493D01*
X31348433Y18047607D02*
X32705567D01*
X31357050Y21979527D02*
X32696950D01*
X32628804Y24882747D02*
X32685196D01*
X31382776Y22230987D02*
X32671224D01*
X32645612Y24905607D02*
X32668388D01*
X31387315Y17796147D02*
X32666685D01*
X31391474Y18024747D02*
X32662526D01*
X32281922Y22002387D02*
X32658631D01*
X31409466Y22208127D02*
X32644534D01*
X32313146Y17819007D02*
X32641761D01*
X32262904Y18001887D02*
X32639168D01*
X32320423Y22025247D02*
X32636698D01*
X32307245Y22185267D02*
X32627544D01*
X32334664Y17841867D02*
X32625723D01*
X32315591Y17979027D02*
X32624020D01*
X32338626Y22048107D02*
X32622403D01*
X32331565Y22162407D02*
X32616499D01*
X32346453Y17864727D02*
X32615357D01*
X32335981Y17956167D02*
X32614306D01*
X32348511Y22070967D02*
X32613326D01*
X32344781Y22139547D02*
X32609983D01*
X32351948Y17887587D02*
X32609403D01*
X32347150Y17933307D02*
X32608899D01*
X32352515Y22093827D02*
X32608461D01*
X32351336Y22116687D02*
X32607376D01*
X32352168Y17910447D02*
X32607308D01*
X32265040Y24448407D02*
X32484960D01*
X32278129Y24151227D02*
X32471871D01*
X32347507Y24859887D02*
X32458493D01*
X32308936Y24334107D02*
X32441064D01*
X32312768Y24631287D02*
X32437232D01*
X32315943Y24471267D02*
X32434057D01*
X32374804Y24882747D02*
X32431196D01*
X32319171Y24174087D02*
X32430829D01*
X32332439Y24311247D02*
X32417561D01*
X32334461Y24608427D02*
X32415539D01*
X32391612Y24905607D02*
X32414388D01*
X32336172Y24494127D02*
X32413828D01*
X32337936Y24196947D02*
X32412064D01*
X32345257Y24288387D02*
X32404743D01*
X32346345Y24585567D02*
X32403655D01*
X32347250Y24516987D02*
X32402750D01*
X32348162Y24219807D02*
X32401838D01*
X32351520Y24265527D02*
X32398480D01*
X32351911Y24562707D02*
X32398089D01*
X32352197Y24539847D02*
X32397803D01*
X32352438Y24242667D02*
X32397562D01*
X32113620Y22848207D02*
X32336380D01*
X32127417Y22551027D02*
X32322583D01*
X32159221Y22733907D02*
X32290779D01*
X32163027Y23031087D02*
X32286973D01*
X32165703Y22871067D02*
X32284297D01*
X32168950Y22573887D02*
X32281050D01*
X32182588Y22711047D02*
X32267412D01*
X32184599Y23008227D02*
X32265401D01*
X32186042Y22893927D02*
X32263958D01*
X32187815Y22596747D02*
X32262185D01*
X32195337Y22688187D02*
X32254663D01*
X32196419Y22985367D02*
X32253581D01*
X32197182Y22916787D02*
X32252818D01*
X32198100Y22619607D02*
X32251900D01*
X32201550Y22665327D02*
X32248450D01*
X32201936Y22962507D02*
X32248064D01*
X32202177Y22939647D02*
X32247823D01*
X32202424Y22642467D02*
X32247576D01*
X31862904Y18001887D02*
X32237096D01*
X32025040Y24448407D02*
X32234960D01*
X32038129Y24151227D02*
X32221871D01*
X31881922Y22002387D02*
X32218078D01*
X32093507Y24859887D02*
X32204493D01*
X31815411Y23053947D02*
X32198652D01*
X31907245Y22185267D02*
X32192755D01*
X32068936Y24334107D02*
X32191064D01*
X32072768Y24631287D02*
X32187232D01*
X31913146Y17819007D02*
X32186854D01*
X31915591Y17979027D02*
X32184409D01*
X32075943Y24471267D02*
X32184057D01*
X32079171Y24174087D02*
X32180829D01*
X30489850Y23236827D02*
X32180150D01*
X31920423Y22025247D02*
X32179577D01*
X32120804Y24882747D02*
X32177196D01*
X31931565Y22162407D02*
X32168435D01*
X32092439Y24311247D02*
X32167561D01*
X32094461Y24608427D02*
X32165539D01*
X31934664Y17841867D02*
X32165336D01*
X31935981Y17956167D02*
X32164019D01*
X32096172Y24494127D02*
X32163828D01*
X31809140Y23076807D02*
X32162957D01*
X32097936Y24196947D02*
X32162064D01*
X31938626Y22048107D02*
X32161374D01*
X32137612Y24905607D02*
X32160388D01*
X31944781Y22139547D02*
X32155219D01*
X32105257Y24288387D02*
X32154743D01*
X30515347Y23213967D02*
X32154653D01*
X32106345Y24585567D02*
X32153655D01*
X31946453Y17864727D02*
X32153547D01*
X31947150Y17933307D02*
X32152850D01*
X32107250Y24516987D02*
X32152750D01*
X32108162Y24219807D02*
X32151838D01*
X31948511Y22070967D02*
X32151489D01*
X31951336Y22116687D02*
X32148664D01*
X32111520Y24265527D02*
X32148480D01*
X32111911Y24562707D02*
X32148089D01*
X31951948Y17887587D02*
X32148052D01*
X31952168Y17910447D02*
X32147832D01*
X32112197Y24539847D02*
X32147803D01*
X32112438Y24242667D02*
X32147562D01*
X31952515Y22093827D02*
X32147485D01*
X31799892Y23099667D02*
X32145479D01*
X30529115Y23191107D02*
X32140885D01*
X30481536Y21910947D02*
X32140664D01*
X31782714Y23122527D02*
X32136042D01*
X30536067Y23168247D02*
X32133933D01*
X31748063Y23145387D02*
X32132403D01*
X30501532Y17704707D02*
X32120668D01*
X31916606Y17521827D02*
X32108948D01*
X31923301Y21728067D02*
X32099577D01*
X31902803Y21888087D02*
X32094043D01*
X31912036Y17681847D02*
X32087422D01*
X31863620Y22848207D02*
X32086380D01*
X31936532Y17544687D02*
X32082092D01*
X30342528Y23602587D02*
X32077472D01*
X31940218Y21750927D02*
X32077301D01*
X31929328Y21865227D02*
X32074322D01*
X31877417Y22551027D02*
X32072583D01*
X31934071Y17658987D02*
X32070673D01*
X31947438Y17567547D02*
X32067721D01*
X31949299Y21773787D02*
X32065110D01*
X31943555Y21842367D02*
X32063534D01*
X31946137Y17636127D02*
X32061700D01*
X31952251Y17590407D02*
X32060345D01*
X31952646Y21796647D02*
X32059311D01*
X31950831Y21819507D02*
X32058813D01*
X31951840Y17613267D02*
X32058442D01*
X30366946Y23785467D02*
X32053054D01*
X31909221Y22733907D02*
X32040779D01*
X30380634Y23625447D02*
X32039366D01*
X31913027Y23031087D02*
X32036973D01*
X31915703Y22871067D02*
X32034297D01*
X31918950Y22573887D02*
X32031050D01*
X30391411Y23762607D02*
X32028589D01*
X30398742Y23648307D02*
X32021258D01*
X31932588Y22711047D02*
X32017412D01*
X31934599Y23008227D02*
X32015401D01*
X30404697Y23739747D02*
X32015303D01*
X31936042Y22893927D02*
X32013958D01*
X31937815Y22596747D02*
X32012185D01*
X30408570Y23671167D02*
X32011430D01*
X30411303Y23716887D02*
X32008697D01*
X30412527Y23694027D02*
X32007473D01*
X31945337Y22688187D02*
X32004663D01*
X31946419Y22985367D02*
X32003581D01*
X31947182Y22916787D02*
X32002818D01*
X31948100Y22619607D02*
X32001900D01*
X31951550Y22665327D02*
X31998450D01*
X31951936Y22962507D02*
X31998064D01*
X31952177Y22939647D02*
X31997823D01*
X31952424Y22642467D02*
X31997576D01*
X30715040Y24448407D02*
X31994960D01*
X31728129Y24151227D02*
X31981871D01*
X31758936Y24334107D02*
X31951064D01*
X31839507Y24859887D02*
X31950493D01*
X30762768Y24631287D02*
X31947232D01*
X30765943Y24471267D02*
X31944057D01*
X31769171Y24174087D02*
X31940829D01*
X31782439Y24311247D02*
X31927561D01*
X30784461Y24608427D02*
X31925539D01*
X30786172Y24494127D02*
X31923828D01*
X31866804Y24882747D02*
X31923196D01*
X31787936Y24196947D02*
X31922064D01*
X31795257Y24288387D02*
X31914743D01*
X30796345Y24585567D02*
X31913655D01*
X30797250Y24516987D02*
X31912750D01*
X31798162Y24219807D02*
X31911838D01*
X31801520Y24265527D02*
X31908480D01*
X30801911Y24562707D02*
X31908089D01*
X30802197Y24539847D02*
X31907803D01*
X31802438Y24242667D02*
X31907562D01*
X31883612Y24905607D02*
X31906388D01*
X31414832Y18001887D02*
X31837096D01*
X30563620Y22848207D02*
X31836380D01*
X31668430Y17498967D02*
X31831570D01*
X30577417Y22551027D02*
X31822583D01*
X31395369Y22002387D02*
X31818078D01*
X31689517Y21705207D02*
X31810483D01*
X31702803Y21888087D02*
X31797197D01*
X31426456Y22185267D02*
X31792755D01*
X30609221Y22733907D02*
X31790779D01*
X31712036Y17681847D02*
X31787964D01*
X31412239Y17819007D02*
X31786854D01*
X31429980Y17979027D02*
X31784409D01*
X30615703Y22871067D02*
X31784297D01*
X31716606Y17521827D02*
X31783394D01*
X30618950Y22573887D02*
X31781050D01*
X31417302Y22025247D02*
X31779577D01*
X31723301Y21728067D02*
X31776699D01*
X31729328Y21865227D02*
X31770672D01*
X31437501Y22162407D02*
X31768435D01*
X30632588Y22711047D02*
X31767412D01*
X31734071Y17658987D02*
X31765929D01*
X31428277Y17841867D02*
X31765336D01*
X31439694Y17956167D02*
X31764019D01*
X30636042Y22893927D02*
X31763958D01*
X31736532Y17544687D02*
X31763468D01*
X30637815Y22596747D02*
X31762185D01*
X31431597Y22048107D02*
X31761374D01*
X31740584Y21750927D02*
X31759416D01*
X31444017Y22139547D02*
X31755219D01*
X30645337Y22688187D02*
X31754663D01*
X31438643Y17864727D02*
X31753547D01*
X31445101Y17933307D02*
X31752850D01*
X30647182Y22916787D02*
X31752818D01*
X30648100Y22619607D02*
X31751900D01*
X31440674Y22070967D02*
X31751489D01*
X31446624Y22116687D02*
X31748664D01*
X30651550Y22665327D02*
X31748450D01*
X31444597Y17887587D02*
X31748052D01*
X31446692Y17910447D02*
X31747832D01*
X30652177Y22939647D02*
X31747789D01*
X30652424Y22642467D02*
X31747576D01*
X31445539Y22093827D02*
X31747485D01*
X31585507Y24859887D02*
X31696493D01*
X30537597Y23145387D02*
X31671937D01*
X30728129Y24151227D02*
X31671871D01*
X31612804Y24882747D02*
X31669196D01*
X30651936Y22962507D02*
X31656220D01*
X31629612Y24905607D02*
X31652388D01*
X30758936Y24334107D02*
X31641064D01*
X30533958Y23122527D02*
X31637286D01*
X30168430Y17498967D02*
X31631570D01*
X30769171Y24174087D02*
X31630829D01*
X30646419Y22985367D02*
X31630188D01*
X30524521Y23099667D02*
X31620108D01*
X30782439Y24311247D02*
X31617561D01*
X30634599Y23008227D02*
X31616179D01*
X30787936Y24196947D02*
X31612064D01*
X30507043Y23076807D02*
X31610860D01*
X30189517Y21705207D02*
X31610483D01*
X30613027Y23031087D02*
X31609056D01*
X30471348Y23053947D02*
X31607375D01*
X30795257Y24288387D02*
X31604743D01*
X30798162Y24219807D02*
X31601838D01*
X30801520Y24265527D02*
X31598480D01*
X30802438Y24242667D02*
X31597562D01*
X30528157Y21888087D02*
X31597197D01*
X30534778Y17681847D02*
X31587964D01*
X30513252Y17521827D02*
X31583394D01*
X30522623Y21728067D02*
X31576699D01*
X30547878Y21865227D02*
X31570672D01*
X30551527Y17658987D02*
X31565929D01*
X30540108Y17544687D02*
X31563468D01*
X30544899Y21750927D02*
X31559782D01*
X30558666Y21842367D02*
X31556445D01*
X30560500Y17636127D02*
X31553863D01*
X30554479Y17567547D02*
X31552562D01*
X30557090Y21773787D02*
X31550701D01*
X30563387Y21819507D02*
X31549169D01*
X30563758Y17613267D02*
X31548160D01*
X30561855Y17590407D02*
X31547749D01*
X30562889Y21796647D02*
X31547354D01*
X31331507Y24859887D02*
X31442493D01*
X31358804Y24882747D02*
X31415196D01*
X31375612Y24905607D02*
X31398388D01*
X31065587Y22253847D02*
X31288413D01*
X31083497Y17773287D02*
X31270503D01*
X31094433Y18047607D02*
X31259567D01*
X31103050Y21979527D02*
X31250950D01*
X31128776Y22230987D02*
X31225224D01*
X31133315Y17796147D02*
X31220685D01*
X31137474Y18024747D02*
X31216526D01*
X31141369Y22002387D02*
X31212631D01*
X31155466Y22208127D02*
X31198534D01*
X31158239Y17819007D02*
X31195761D01*
X31160832Y18001887D02*
X31193168D01*
X31163302Y22025247D02*
X31190698D01*
X31077507Y24859887D02*
X31188493D01*
X31104804Y24882747D02*
X31161196D01*
X31121612Y24905607D02*
X31144388D01*
X29619587Y22253847D02*
X31034413D01*
X29637497Y17773287D02*
X31016503D01*
X29648433Y18047607D02*
X31005567D01*
X29657050Y21979527D02*
X30996950D01*
X29682776Y22230987D02*
X30971224D01*
X29687315Y17796147D02*
X30966685D01*
X29691474Y18024747D02*
X30962526D01*
X30581922Y22002387D02*
X30958631D01*
X29709466Y22208127D02*
X30944534D01*
X30613146Y17819007D02*
X30941761D01*
X30562904Y18001887D02*
X30939168D01*
X30620423Y22025247D02*
X30936698D01*
X30823507Y24859887D02*
X30934493D01*
X30607245Y22185267D02*
X30927544D01*
X30634664Y17841867D02*
X30925723D01*
X30615591Y17979027D02*
X30924020D01*
X30638626Y22048107D02*
X30922403D01*
X30631565Y22162407D02*
X30916499D01*
X30646453Y17864727D02*
X30915357D01*
X30635981Y17956167D02*
X30914306D01*
X30648511Y22070967D02*
X30913326D01*
X30644781Y22139547D02*
X30909983D01*
X30651948Y17887587D02*
X30909403D01*
X30647150Y17933307D02*
X30908899D01*
X30652515Y22093827D02*
X30908461D01*
X30651336Y22116687D02*
X30907376D01*
X30652168Y17910447D02*
X30907308D01*
X30850804Y24882747D02*
X30907196D01*
X30867612Y24905607D02*
X30890388D01*
X30465040Y24448407D02*
X30684960D01*
X30569507Y24859887D02*
X30680493D01*
X30478129Y24151227D02*
X30671871D01*
X30596804Y24882747D02*
X30653196D01*
X30508936Y24334107D02*
X30641064D01*
X30512768Y24631287D02*
X30637232D01*
X30613612Y24905607D02*
X30636388D01*
X30515943Y24471267D02*
X30634057D01*
X30519171Y24174087D02*
X30630829D01*
X30532439Y24311247D02*
X30617561D01*
X30534461Y24608427D02*
X30615539D01*
X30536172Y24494127D02*
X30613828D01*
X30537936Y24196947D02*
X30612064D01*
X30545257Y24288387D02*
X30604743D01*
X30546345Y24585567D02*
X30603655D01*
X30547250Y24516987D02*
X30602750D01*
X30548162Y24219807D02*
X30601838D01*
X30551520Y24265527D02*
X30598480D01*
X30551911Y24562707D02*
X30598089D01*
X30552197Y24539847D02*
X30597803D01*
X30552438Y24242667D02*
X30597562D01*
X30162904Y18001887D02*
X30537096D01*
X30313620Y22848207D02*
X30536380D01*
X30327417Y22551027D02*
X30522583D01*
X30181922Y22002387D02*
X30518078D01*
X30207245Y22185267D02*
X30492755D01*
X30359221Y22733907D02*
X30490779D01*
X30363027Y23031087D02*
X30486973D01*
X30213146Y17819007D02*
X30486854D01*
X30215591Y17979027D02*
X30484409D01*
X30365703Y22871067D02*
X30484297D01*
X30368950Y22573887D02*
X30481050D01*
X30220423Y22025247D02*
X30479577D01*
X30231565Y22162407D02*
X30468435D01*
X30382588Y22711047D02*
X30467412D01*
X30384599Y23008227D02*
X30465401D01*
X30234664Y17841867D02*
X30465336D01*
X30235981Y17956167D02*
X30464019D01*
X30386042Y22893927D02*
X30463958D01*
X30387815Y22596747D02*
X30462185D01*
X30238626Y22048107D02*
X30461374D01*
X30244781Y22139547D02*
X30455219D01*
X30395337Y22688187D02*
X30454663D01*
X30396419Y22985367D02*
X30453581D01*
X30246453Y17864727D02*
X30453547D01*
X30247150Y17933307D02*
X30452850D01*
X30397182Y22916787D02*
X30452818D01*
X30398100Y22619607D02*
X30451900D01*
X30248511Y22070967D02*
X30451489D01*
X30251336Y22116687D02*
X30448664D01*
X30401550Y22665327D02*
X30448450D01*
X30401936Y22962507D02*
X30448064D01*
X30251948Y17887587D02*
X30448052D01*
X30252168Y17910447D02*
X30447832D01*
X30402177Y22939647D02*
X30447823D01*
X30402424Y22642467D02*
X30447576D01*
X30252515Y22093827D02*
X30447485D01*
X28781536Y21910947D02*
X30440664D01*
X30215040Y24448407D02*
X30434960D01*
X30315507Y24859887D02*
X30426493D01*
X30228129Y24151227D02*
X30421871D01*
X28801532Y17704707D02*
X30420668D01*
X30216606Y17521827D02*
X30408948D01*
X30223301Y21728067D02*
X30399577D01*
X30342804Y24882747D02*
X30399196D01*
X30015411Y23053947D02*
X30398652D01*
X30202803Y21888087D02*
X30394043D01*
X30258936Y24334107D02*
X30391064D01*
X30212036Y17681847D02*
X30387422D01*
X30262768Y24631287D02*
X30387232D01*
X30265943Y24471267D02*
X30384057D01*
X30359612Y24905607D02*
X30382388D01*
X30236532Y17544687D02*
X30382092D01*
X30269171Y24174087D02*
X30380829D01*
X25522700Y23236827D02*
X30380150D01*
X30240218Y21750927D02*
X30377301D01*
X30229328Y21865227D02*
X30374322D01*
X30234071Y17658987D02*
X30370673D01*
X30247438Y17567547D02*
X30367721D01*
X30282439Y24311247D02*
X30367561D01*
X30284461Y24608427D02*
X30365539D01*
X30249299Y21773787D02*
X30365110D01*
X30286172Y24494127D02*
X30363828D01*
X30243555Y21842367D02*
X30363534D01*
X30009140Y23076807D02*
X30362957D01*
X30287936Y24196947D02*
X30362064D01*
X30246137Y17636127D02*
X30361700D01*
X30252251Y17590407D02*
X30360345D01*
X30252646Y21796647D02*
X30359311D01*
X30250831Y21819507D02*
X30358813D01*
X30251840Y17613267D02*
X30358442D01*
X30295257Y24288387D02*
X30354743D01*
X25522700Y23213967D02*
X30354653D01*
X30296345Y24585567D02*
X30353655D01*
X30297250Y24516987D02*
X30352750D01*
X30298162Y24219807D02*
X30351838D01*
X30301520Y24265527D02*
X30348480D01*
X30301911Y24562707D02*
X30348089D01*
X30302197Y24539847D02*
X30347803D01*
X30302438Y24242667D02*
X30347562D01*
X29999892Y23099667D02*
X30345479D01*
X25522700Y23191107D02*
X30340885D01*
X29982714Y23122527D02*
X30336042D01*
X25522700Y23168247D02*
X30333933D01*
X29948063Y23145387D02*
X30332403D01*
X30063620Y22848207D02*
X30286380D01*
X25522700Y23602587D02*
X30277472D01*
X30077417Y22551027D02*
X30272583D01*
X25522700Y23785467D02*
X30253054D01*
X30109221Y22733907D02*
X30240779D01*
X25522700Y23625447D02*
X30239366D01*
X30113027Y23031087D02*
X30236973D01*
X30115703Y22871067D02*
X30234297D01*
X30118950Y22573887D02*
X30231050D01*
X25522700Y23762607D02*
X30228589D01*
X25522700Y23648307D02*
X30221258D01*
X30132588Y22711047D02*
X30217412D01*
X30134599Y23008227D02*
X30215401D01*
X25522700Y23739747D02*
X30215303D01*
X30136042Y22893927D02*
X30213958D01*
X30137815Y22596747D02*
X30212185D01*
X25522700Y23671167D02*
X30211430D01*
X25522700Y23716887D02*
X30208697D01*
X25522700Y23694027D02*
X30207473D01*
X30145337Y22688187D02*
X30204663D01*
X30146419Y22985367D02*
X30203581D01*
X30147182Y22916787D02*
X30202818D01*
X30148100Y22619607D02*
X30201900D01*
X30151550Y22665327D02*
X30198450D01*
X30151936Y22962507D02*
X30198064D01*
X30152177Y22939647D02*
X30197823D01*
X30152424Y22642467D02*
X30197576D01*
X26276367Y24448407D02*
X30184960D01*
X30057322Y25111347D02*
X30176678D01*
X29803607Y25088487D02*
X30176393D01*
X29807507Y24859887D02*
X30172493D01*
X29928129Y24151227D02*
X30171871D01*
X30086423Y25134207D02*
X30147577D01*
X29832583Y25065627D02*
X30147417D01*
X29834804Y24882747D02*
X30145196D01*
X29958936Y24334107D02*
X30141064D01*
X26372700Y24631287D02*
X30137232D01*
X29714832Y18001887D02*
X30137096D01*
X26299227Y24471267D02*
X30134057D01*
X29968430Y17498967D02*
X30131570D01*
X29969171Y24174087D02*
X30130829D01*
X30104093Y25157067D02*
X30129907D01*
X29850195Y25042767D02*
X30129805D01*
X29851612Y24905607D02*
X30128388D01*
X29861330Y25019907D02*
X30118670D01*
X29695369Y22002387D02*
X30118078D01*
X29862193Y24928467D02*
X30117807D01*
X29982439Y24311247D02*
X30117561D01*
X26372700Y24608427D02*
X30115539D01*
X26322087Y24494127D02*
X30113828D01*
X29867642Y24997047D02*
X30112358D01*
X29987936Y24196947D02*
X30112064D01*
X29868054Y24951327D02*
X30111946D01*
X29989517Y21705207D02*
X30110483D01*
X29869815Y24974187D02*
X30110185D01*
X29995257Y24288387D02*
X30104743D01*
X26372700Y24585567D02*
X30103655D01*
X26344947Y24516987D02*
X30102750D01*
X29998162Y24219807D02*
X30101838D01*
X30001520Y24265527D02*
X30098480D01*
X26372700Y24562707D02*
X30098089D01*
X26367807Y24539847D02*
X30097803D01*
X30002438Y24242667D02*
X30097562D01*
X30002803Y21888087D02*
X30097197D01*
X29726456Y22185267D02*
X30092755D01*
X30012036Y17681847D02*
X30087964D01*
X29712239Y17819007D02*
X30086854D01*
X29729980Y17979027D02*
X30084409D01*
X30016606Y17521827D02*
X30083394D01*
X29717302Y22025247D02*
X30079577D01*
X30023301Y21728067D02*
X30076699D01*
X30029328Y21865227D02*
X30070672D01*
X29737501Y22162407D02*
X30068435D01*
X30034071Y17658987D02*
X30065929D01*
X29728277Y17841867D02*
X30065336D01*
X29739694Y17956167D02*
X30064019D01*
X30036532Y17544687D02*
X30063468D01*
X29731597Y22048107D02*
X30061374D01*
X30040584Y21750927D02*
X30059416D01*
X29744017Y22139547D02*
X30055219D01*
X29738643Y17864727D02*
X30053547D01*
X29745101Y17933307D02*
X30052850D01*
X29740674Y22070967D02*
X30051489D01*
X29746624Y22116687D02*
X30048664D01*
X29744597Y17887587D02*
X30048052D01*
X29746692Y17910447D02*
X30047832D01*
X29745539Y22093827D02*
X30047485D01*
X25522700Y22848207D02*
X30036380D01*
X25522700Y22551027D02*
X30022583D01*
X25522700Y22733907D02*
X29990779D01*
X25522700Y22871067D02*
X29984297D01*
X25522700Y22573887D02*
X29981050D01*
X25522700Y22711047D02*
X29967412D01*
X25522700Y22893927D02*
X29963958D01*
X25522700Y22596747D02*
X29962185D01*
X25522700Y22688187D02*
X29954663D01*
X25522700Y22916787D02*
X29952818D01*
X25522700Y22619607D02*
X29951900D01*
X25522700Y22665327D02*
X29948450D01*
X25522700Y22939647D02*
X29947789D01*
X25522700Y22642467D02*
X29947576D01*
X28468430Y17498967D02*
X29931570D01*
X29803322Y25111347D02*
X29922678D01*
X28489517Y21705207D02*
X29910483D01*
X28828157Y21888087D02*
X29897197D01*
X29832423Y25134207D02*
X29893577D01*
X28834778Y17681847D02*
X29887964D01*
X28813252Y17521827D02*
X29883394D01*
X28822623Y21728067D02*
X29876699D01*
X29850093Y25157067D02*
X29875907D01*
X25522700Y23145387D02*
X29871937D01*
X28340380Y24151227D02*
X29871871D01*
X28847878Y21865227D02*
X29870672D01*
X28851527Y17658987D02*
X29865929D01*
X28840108Y17544687D02*
X29863468D01*
X28844899Y21750927D02*
X29859782D01*
X28858666Y21842367D02*
X29856445D01*
X25522700Y22962507D02*
X29856220D01*
X28860500Y17636127D02*
X29853863D01*
X28854479Y17567547D02*
X29852562D01*
X28857090Y21773787D02*
X29850701D01*
X28863387Y21819507D02*
X29849169D01*
X28863758Y17613267D02*
X29848160D01*
X28861855Y17590407D02*
X29847749D01*
X28862889Y21796647D02*
X29847354D01*
X28757416Y24334107D02*
X29841064D01*
X25522700Y23122527D02*
X29837286D01*
X28349378Y24174087D02*
X29830829D01*
X25522700Y22985367D02*
X29830188D01*
X25522700Y23099667D02*
X29820108D01*
X28762138Y24311247D02*
X29817561D01*
X25522700Y23008227D02*
X29816179D01*
X28695623Y24196947D02*
X29812064D01*
X25522700Y23076807D02*
X29810860D01*
X25522700Y23031087D02*
X29809056D01*
X25522700Y23053947D02*
X29807375D01*
X28762101Y24288387D02*
X29804743D01*
X28729186Y24219807D02*
X29801838D01*
X28757299Y24265527D02*
X29798480D01*
X28747027Y24242667D02*
X29797562D01*
X29553507Y24859887D02*
X29664493D01*
X29580804Y24882747D02*
X29637196D01*
X29597612Y24905607D02*
X29620388D01*
X29365587Y22253847D02*
X29588413D01*
X29383497Y17773287D02*
X29570503D01*
X29394433Y18047607D02*
X29559567D01*
X29403050Y21979527D02*
X29550950D01*
X29428776Y22230987D02*
X29525224D01*
X29433315Y17796147D02*
X29520685D01*
X29437474Y18024747D02*
X29516526D01*
X29441369Y22002387D02*
X29512631D01*
X29455466Y22208127D02*
X29498534D01*
X29458239Y17819007D02*
X29495761D01*
X29460832Y18001887D02*
X29493168D01*
X29463302Y22025247D02*
X29490698D01*
X26372700Y24859887D02*
X29410493D01*
X26372700Y25088487D02*
X29398871D01*
X26372700Y25065627D02*
X29385417D01*
X26372700Y24882747D02*
X29383196D01*
X26372700Y25042767D02*
X29367805D01*
X26372700Y25111347D02*
X29366742D01*
X26372700Y24905607D02*
X29366388D01*
X26372700Y25019907D02*
X29356670D01*
X26372700Y24928467D02*
X29355807D01*
X26372700Y25134207D02*
X29352044D01*
X26372700Y24997047D02*
X29350358D01*
X26372700Y24951327D02*
X29349946D01*
X26372700Y24974187D02*
X29348185D01*
X26449327Y25271367D02*
X29348179D01*
X26426467Y25248507D02*
X29348179D01*
X26403607Y25225647D02*
X29348179D01*
X26380747Y25202787D02*
X29348179D01*
X26372700Y25179927D02*
X29348179D01*
X26372700Y25157067D02*
X29348179D01*
X27919587Y22253847D02*
X29334413D01*
X27937497Y17773287D02*
X29316503D01*
X27948433Y18047607D02*
X29305567D01*
X27957050Y21979527D02*
X29296950D01*
X27982776Y22230987D02*
X29271224D01*
X27987315Y17796147D02*
X29266685D01*
X27991474Y18024747D02*
X29262526D01*
X28881922Y22002387D02*
X29258631D01*
X28009466Y22208127D02*
X29244534D01*
X28913146Y17819007D02*
X29241761D01*
X28862904Y18001887D02*
X29239168D01*
X28920423Y22025247D02*
X29236698D01*
X28907245Y22185267D02*
X29227544D01*
X28934664Y17841867D02*
X29225723D01*
X28915591Y17979027D02*
X29224020D01*
X28938626Y22048107D02*
X29222403D01*
X28931565Y22162407D02*
X29216499D01*
X28946453Y17864727D02*
X29215357D01*
X28935981Y17956167D02*
X29214306D01*
X28948511Y22070967D02*
X29213326D01*
X28944781Y22139547D02*
X29209983D01*
X28951948Y17887587D02*
X29209403D01*
X28947150Y17933307D02*
X29208899D01*
X28952515Y22093827D02*
X29208461D01*
X28951336Y22116687D02*
X29207376D01*
X28952168Y17910447D02*
X29207308D01*
X28462904Y18001887D02*
X28837096D01*
X28481922Y22002387D02*
X28818078D01*
X28507245Y22185267D02*
X28792755D01*
X28513146Y17819007D02*
X28786854D01*
X28515591Y17979027D02*
X28784409D01*
X28520423Y22025247D02*
X28779577D01*
X28531565Y22162407D02*
X28768435D01*
X28534664Y17841867D02*
X28765336D01*
X28535981Y17956167D02*
X28764019D01*
X28538626Y22048107D02*
X28761374D01*
X28544781Y22139547D02*
X28755219D01*
X28546453Y17864727D02*
X28753547D01*
X28547150Y17933307D02*
X28752850D01*
X28548511Y22070967D02*
X28751489D01*
X28551336Y22116687D02*
X28748664D01*
X28551948Y17887587D02*
X28748052D01*
X28552168Y17910447D02*
X28747832D01*
X28552515Y22093827D02*
X28747485D01*
X27081536Y21910947D02*
X28740664D01*
X27101532Y17704707D02*
X28720668D01*
X28516606Y17521827D02*
X28708948D01*
X28523301Y21728067D02*
X28699577D01*
X28502803Y21888087D02*
X28694043D01*
X28512036Y17681847D02*
X28687422D01*
X28536532Y17544687D02*
X28682092D01*
X28540218Y21750927D02*
X28677301D01*
X28529328Y21865227D02*
X28674322D01*
X28534071Y17658987D02*
X28670673D01*
X28547438Y17567547D02*
X28667721D01*
X28549299Y21773787D02*
X28665110D01*
X28543555Y21842367D02*
X28663534D01*
X28546137Y17636127D02*
X28661700D01*
X28552251Y17590407D02*
X28660345D01*
X28552646Y21796647D02*
X28659311D01*
X28550831Y21819507D02*
X28658813D01*
X28551840Y17613267D02*
X28658442D01*
X28352655Y24196947D02*
X28604377D01*
X25580647Y24402687D02*
X28603558D01*
X28350772Y24219807D02*
X28570814D01*
X25557787Y24379827D02*
X28570444D01*
X28343418Y24242667D02*
X28552973D01*
X25534927Y24356967D02*
X28552757D01*
X28329080Y24265527D02*
X28542701D01*
X25522700Y24334107D02*
X28542584D01*
X28302299Y24288387D02*
X28537899D01*
X25522700Y24311247D02*
X28537862D01*
X28014832Y18001887D02*
X28437096D01*
X28268430Y17498967D02*
X28431570D01*
X27995369Y22002387D02*
X28418078D01*
X28289517Y21705207D02*
X28410483D01*
X28302803Y21888087D02*
X28397197D01*
X28026456Y22185267D02*
X28392755D01*
X28312036Y17681847D02*
X28387964D01*
X28012239Y17819007D02*
X28386854D01*
X28029980Y17979027D02*
X28384409D01*
X28316606Y17521827D02*
X28383394D01*
X28017302Y22025247D02*
X28379577D01*
X28323301Y21728067D02*
X28376699D01*
X28329328Y21865227D02*
X28370672D01*
X28037501Y22162407D02*
X28368435D01*
X28334071Y17658987D02*
X28365929D01*
X28028277Y17841867D02*
X28365336D01*
X28039694Y17956167D02*
X28364019D01*
X28336532Y17544687D02*
X28363468D01*
X28031597Y22048107D02*
X28361374D01*
X28340584Y21750927D02*
X28359416D01*
X28044017Y22139547D02*
X28355219D01*
X28038643Y17864727D02*
X28353547D01*
X28045101Y17933307D02*
X28352850D01*
X28040674Y22070967D02*
X28351489D01*
X28046624Y22116687D02*
X28348664D01*
X28044597Y17887587D02*
X28348052D01*
X28046692Y17910447D02*
X28347832D01*
X28045539Y22093827D02*
X28347485D01*
X26768430Y17498967D02*
X28231570D01*
X26789517Y21705207D02*
X28210483D01*
X28040229Y24105507D02*
X28209771D01*
X28052299Y24288387D02*
X28197701D01*
X27128157Y21888087D02*
X28197197D01*
X27134778Y17681847D02*
X28187964D01*
X27113252Y17521827D02*
X28183394D01*
X27122623Y21728067D02*
X28176699D01*
X28073594Y24128367D02*
X28176406D01*
X28079080Y24265527D02*
X28170920D01*
X27147878Y21865227D02*
X28170672D01*
X27151527Y17658987D02*
X28165929D01*
X27140108Y17544687D02*
X28163468D01*
X27144899Y21750927D02*
X28159782D01*
X28090380Y24151227D02*
X28159620D01*
X28093418Y24242667D02*
X28156582D01*
X27158666Y21842367D02*
X28156445D01*
X27160500Y17636127D02*
X28153863D01*
X27154479Y17567547D02*
X28152562D01*
X27157090Y21773787D02*
X28150701D01*
X28099378Y24174087D02*
X28150622D01*
X28100772Y24219807D02*
X28149228D01*
X27163387Y21819507D02*
X28149169D01*
X27163758Y17613267D02*
X28148160D01*
X27161855Y17590407D02*
X28147749D01*
X27162889Y21796647D02*
X28147354D01*
X28102655Y24196947D02*
X28147345D01*
X25522700Y24105507D02*
X27959771D01*
X25522700Y24288387D02*
X27947701D01*
X25522700Y24128367D02*
X27926406D01*
X25522700Y24265527D02*
X27920920D01*
X25522700Y24151227D02*
X27909620D01*
X25522700Y24242667D02*
X27906582D01*
X25522700Y24174087D02*
X27900622D01*
X25522700Y24219807D02*
X27899228D01*
X25522700Y24196947D02*
X27897345D01*
X27665587Y22253847D02*
X27888413D01*
X27683497Y17773287D02*
X27870503D01*
X27694433Y18047607D02*
X27859567D01*
X27703050Y21979527D02*
X27850950D01*
X27728776Y22230987D02*
X27825224D01*
X27733315Y17796147D02*
X27820685D01*
X27737474Y18024747D02*
X27816526D01*
X27741369Y22002387D02*
X27812631D01*
X27755466Y22208127D02*
X27798534D01*
X27758239Y17819007D02*
X27795761D01*
X27760832Y18001887D02*
X27793168D01*
X27763302Y22025247D02*
X27790698D01*
X26219587Y22253847D02*
X27634413D01*
X26237497Y17773287D02*
X27616503D01*
X26248433Y18047607D02*
X27605567D01*
X26257050Y21979527D02*
X27596950D01*
X26282776Y22230987D02*
X27571224D01*
X26287315Y17796147D02*
X27566685D01*
X26291474Y18024747D02*
X27562526D01*
X27181922Y22002387D02*
X27558631D01*
X26309466Y22208127D02*
X27544534D01*
X27213146Y17819007D02*
X27541761D01*
X27162904Y18001887D02*
X27539168D01*
X27220423Y22025247D02*
X27536698D01*
X27207245Y22185267D02*
X27527544D01*
X27234664Y17841867D02*
X27525723D01*
X27215591Y17979027D02*
X27524020D01*
X27238626Y22048107D02*
X27522403D01*
X27231565Y22162407D02*
X27516499D01*
X27246453Y17864727D02*
X27515357D01*
X27235981Y17956167D02*
X27514306D01*
X27248511Y22070967D02*
X27513326D01*
X27244781Y22139547D02*
X27509983D01*
X27251948Y17887587D02*
X27509403D01*
X27247150Y17933307D02*
X27508899D01*
X27252515Y22093827D02*
X27508461D01*
X27251336Y22116687D02*
X27507376D01*
X27252168Y17910447D02*
X27507308D01*
X26762904Y18001887D02*
X27137096D01*
X26781922Y22002387D02*
X27118078D01*
X26807245Y22185267D02*
X27092755D01*
X26813146Y17819007D02*
X27086854D01*
X26815591Y17979027D02*
X27084409D01*
X26820423Y22025247D02*
X27079577D01*
X26831565Y22162407D02*
X27068435D01*
X26834664Y17841867D02*
X27065336D01*
X26835981Y17956167D02*
X27064019D01*
X26838626Y22048107D02*
X27061374D01*
X26844781Y22139547D02*
X27055219D01*
X26846453Y17864727D02*
X27053547D01*
X26847150Y17933307D02*
X27052850D01*
X26848511Y22070967D02*
X27051489D01*
X26851336Y22116687D02*
X27048664D01*
X26851948Y17887587D02*
X27048052D01*
X26852168Y17910447D02*
X27047832D01*
X26852515Y22093827D02*
X27047485D01*
X25522700Y21910947D02*
X27040664D01*
X25522700Y17704707D02*
X27020668D01*
X26816606Y17521827D02*
X27008948D01*
X26823301Y21728067D02*
X26999577D01*
X26802803Y21888087D02*
X26994043D01*
X26812036Y17681847D02*
X26987422D01*
X26836532Y17544687D02*
X26982092D01*
X26840218Y21750927D02*
X26977301D01*
X26829328Y21865227D02*
X26974322D01*
X26834071Y17658987D02*
X26970673D01*
X26847438Y17567547D02*
X26967721D01*
X26849299Y21773787D02*
X26965110D01*
X26843555Y21842367D02*
X26963534D01*
X26846137Y17636127D02*
X26961700D01*
X26852251Y17590407D02*
X26960345D01*
X26852646Y21796647D02*
X26959311D01*
X26850831Y21819507D02*
X26958813D01*
X26851840Y17613267D02*
X26958442D01*
X26314832Y18001887D02*
X26737096D01*
X26568430Y17498967D02*
X26731570D01*
X26295369Y22002387D02*
X26718078D01*
X26589517Y21705207D02*
X26710483D01*
X26602803Y21888087D02*
X26697197D01*
X26326456Y22185267D02*
X26692755D01*
X26612036Y17681847D02*
X26687964D01*
X26312239Y17819007D02*
X26686854D01*
X26329980Y17979027D02*
X26684409D01*
X26616606Y17521827D02*
X26683394D01*
X26317302Y22025247D02*
X26679577D01*
X26623301Y21728067D02*
X26676699D01*
X26629328Y21865227D02*
X26670672D01*
X26337501Y22162407D02*
X26668435D01*
X26634071Y17658987D02*
X26665929D01*
X26328277Y17841867D02*
X26665336D01*
X26339694Y17956167D02*
X26664019D01*
X26636532Y17544687D02*
X26663468D01*
X26331597Y22048107D02*
X26661374D01*
X26640584Y21750927D02*
X26659416D01*
X26344017Y22139547D02*
X26655219D01*
X26338643Y17864727D02*
X26653547D01*
X26345101Y17933307D02*
X26652850D01*
X26340674Y22070967D02*
X26651489D01*
X26346624Y22116687D02*
X26648664D01*
X26344597Y17887587D02*
X26648052D01*
X26346692Y17910447D02*
X26647832D01*
X26345539Y22093827D02*
X26647485D01*
X25522700Y17498967D02*
X26531570D01*
X25522700Y21705207D02*
X26510483D01*
X25522700Y21888087D02*
X26497197D01*
X25522700Y17681847D02*
X26487964D01*
X25522700Y17521827D02*
X26483394D01*
X25522700Y21728067D02*
X26476699D01*
X25522700Y21865227D02*
X26470672D01*
X25522700Y17658987D02*
X26465929D01*
X25522700Y17544687D02*
X26463468D01*
X25522700Y21750927D02*
X26459782D01*
X25522700Y21842367D02*
X26456445D01*
X25522700Y17636127D02*
X26453863D01*
X25522700Y17567547D02*
X26452562D01*
X25522700Y21773787D02*
X26450701D01*
X25522700Y21819507D02*
X26449169D01*
X25522700Y17613267D02*
X26448160D01*
X25522700Y17590407D02*
X26447749D01*
X25522700Y21796647D02*
X26447354D01*
X25965587Y22253847D02*
X26188413D01*
X25983497Y17773287D02*
X26170503D01*
X25994433Y18047607D02*
X26159567D01*
X26003050Y21979527D02*
X26150950D01*
X26028776Y22230987D02*
X26125224D01*
X26033315Y17796147D02*
X26120685D01*
X26037474Y18024747D02*
X26116526D01*
X26041369Y22002387D02*
X26112631D01*
X26055466Y22208127D02*
X26098534D01*
X26058239Y17819007D02*
X26095761D01*
X26060832Y18001887D02*
X26093168D01*
X26063302Y22025247D02*
X26090698D01*
X25522700Y22253847D02*
X25934413D01*
X25522700Y17773287D02*
X25916503D01*
X25522700Y18047607D02*
X25905567D01*
X25522700Y21979527D02*
X25896950D01*
X25522700Y22230987D02*
X25871224D01*
X25522700Y17796147D02*
X25866685D01*
X25522700Y18024747D02*
X25862526D01*
X25522700Y22002387D02*
X25858631D01*
X25522700Y22208127D02*
X25844534D01*
X25522700Y17819007D02*
X25841761D01*
X25522700Y18001887D02*
X25839168D01*
X25522700Y22025247D02*
X25836698D01*
X25522700Y22185267D02*
X25827544D01*
X25522700Y17841867D02*
X25825723D01*
X25522700Y17979027D02*
X25824020D01*
X25522700Y22048107D02*
X25822403D01*
X25522700Y22162407D02*
X25816499D01*
X25522700Y17864727D02*
X25815357D01*
X25522700Y17956167D02*
X25814306D01*
X25522700Y22070967D02*
X25813326D01*
X25522700Y22139547D02*
X25809983D01*
X25522700Y17887587D02*
X25809403D01*
X25522700Y17933307D02*
X25808899D01*
X25522700Y22093827D02*
X25808461D01*
X25522700Y22116687D02*
X25807376D01*
X25522700Y17910447D02*
X25807308D01*
X25522700Y18390507D02*
X25701563D01*
X25522700Y21659487D02*
X25701556D01*
X25522700Y21636627D02*
X25697299D01*
X25522700Y21613767D02*
X25697299D01*
X25522700Y21590907D02*
X25697299D01*
X25522700Y21568047D02*
X25697299D01*
X25522700Y21545187D02*
X25697299D01*
X25522700Y21522327D02*
X25697299D01*
X25522700Y21499467D02*
X25697299D01*
X25522700Y21476607D02*
X25697299D01*
X25522700Y21453747D02*
X25697299D01*
X25522700Y21430887D02*
X25697299D01*
X25522700Y21408027D02*
X25697299D01*
X25522700Y21385167D02*
X25697299D01*
X25522700Y21362307D02*
X25697299D01*
X25522700Y21339447D02*
X25697299D01*
X25522700Y21316587D02*
X25697299D01*
X25522700Y21293727D02*
X25697299D01*
X25522700Y21270867D02*
X25697299D01*
X25522700Y21248007D02*
X25697299D01*
X25522700Y21225147D02*
X25697299D01*
X25522700Y21202287D02*
X25697299D01*
X25522700Y21179427D02*
X25697299D01*
X25522700Y21156567D02*
X25697299D01*
X25522700Y21133707D02*
X25697299D01*
X25522700Y21110847D02*
X25697299D01*
X25522700Y21087987D02*
X25697299D01*
X25522700Y21065127D02*
X25697299D01*
X25522700Y21042267D02*
X25697299D01*
X25522700Y21019407D02*
X25697299D01*
X25522700Y20996547D02*
X25697299D01*
X25522700Y20973687D02*
X25697299D01*
X25522700Y20950827D02*
X25697299D01*
X25522700Y20927967D02*
X25697299D01*
X25522700Y20905107D02*
X25697299D01*
X25522700Y20882247D02*
X25697299D01*
X25522700Y20859387D02*
X25697299D01*
X25522700Y20836527D02*
X25697299D01*
X25522700Y20813667D02*
X25697299D01*
X25522700Y20790807D02*
X25697299D01*
X25522700Y20767947D02*
X25697299D01*
X25522700Y20745087D02*
X25697299D01*
X25522700Y20722227D02*
X25697299D01*
X25522700Y20699367D02*
X25697299D01*
X25522700Y20676507D02*
X25697299D01*
X25522700Y20653647D02*
X25697299D01*
X25522700Y20630787D02*
X25697299D01*
X25522700Y20607927D02*
X25697299D01*
X25522700Y20585067D02*
X25697299D01*
X25522700Y20562207D02*
X25697299D01*
X25522700Y20539347D02*
X25697299D01*
X25522700Y20516487D02*
X25697299D01*
X25522700Y20493627D02*
X25697299D01*
X25522700Y20470767D02*
X25697299D01*
X25522700Y20447907D02*
X25697299D01*
X25522700Y20425047D02*
X25697299D01*
X25522700Y20402187D02*
X25697299D01*
X25522700Y20379327D02*
X25697299D01*
X25522700Y20356467D02*
X25697299D01*
X25522700Y20333607D02*
X25697299D01*
X25522700Y20310747D02*
X25697299D01*
X25522700Y20287887D02*
X25697299D01*
X25522700Y20265027D02*
X25697299D01*
X25522700Y20242167D02*
X25697299D01*
X25522700Y20219307D02*
X25697299D01*
X25522700Y20196447D02*
X25697299D01*
X25522700Y20173587D02*
X25697299D01*
X25522700Y20150727D02*
X25697299D01*
X25522700Y20127867D02*
X25697299D01*
X25522700Y20105007D02*
X25697299D01*
X25522700Y20082147D02*
X25697299D01*
X25522700Y20059287D02*
X25697299D01*
X25522700Y20036427D02*
X25697299D01*
X25522700Y20013567D02*
X25697299D01*
X25522700Y19990707D02*
X25697299D01*
X25522700Y19967847D02*
X25697299D01*
X25522700Y19944987D02*
X25697299D01*
X25522700Y19922127D02*
X25697299D01*
X25522700Y19899267D02*
X25697299D01*
X25522700Y19876407D02*
X25697299D01*
X25522700Y19853547D02*
X25697299D01*
X25522700Y19830687D02*
X25697299D01*
X25522700Y19807827D02*
X25697299D01*
X25522700Y19784967D02*
X25697299D01*
X25522700Y19762107D02*
X25697299D01*
X25522700Y19739247D02*
X25697299D01*
X25522700Y19716387D02*
X25697299D01*
X25522700Y19693527D02*
X25697299D01*
X25522700Y19670667D02*
X25697299D01*
X25522700Y19647807D02*
X25697299D01*
X25522700Y19624947D02*
X25697299D01*
X25522700Y19602087D02*
X25697299D01*
X25522700Y19579227D02*
X25697299D01*
X25522700Y19556367D02*
X25697299D01*
X25522700Y19533507D02*
X25697299D01*
X25522700Y19510647D02*
X25697299D01*
X25522700Y19487787D02*
X25697299D01*
X25522700Y19464927D02*
X25697299D01*
X25522700Y19442067D02*
X25697299D01*
X25522700Y19419207D02*
X25697299D01*
X25522700Y19396347D02*
X25697299D01*
X25522700Y19373487D02*
X25697299D01*
X25522700Y19350627D02*
X25697299D01*
X25522700Y19327767D02*
X25697299D01*
X25522700Y19304907D02*
X25697299D01*
X25522700Y19282047D02*
X25697299D01*
X25522700Y19259187D02*
X25697299D01*
X25522700Y19236327D02*
X25697299D01*
X25522700Y19213467D02*
X25697299D01*
X25522700Y19190607D02*
X25697299D01*
X25522700Y19167747D02*
X25697299D01*
X25522700Y19144887D02*
X25697299D01*
X25522700Y19122027D02*
X25697299D01*
X25522700Y19099167D02*
X25697299D01*
X25522700Y19076307D02*
X25697299D01*
X25522700Y19053447D02*
X25697299D01*
X25522700Y19030587D02*
X25697299D01*
X25522700Y19007727D02*
X25697299D01*
X25522700Y18984867D02*
X25697299D01*
X25522700Y18962007D02*
X25697299D01*
X25522700Y18939147D02*
X25697299D01*
X25522700Y18916287D02*
X25697299D01*
X25522700Y18893427D02*
X25697299D01*
X25522700Y18870567D02*
X25697299D01*
X25522700Y18847707D02*
X25697299D01*
X25522700Y18824847D02*
X25697299D01*
X25522700Y18801987D02*
X25697299D01*
X25522700Y18779127D02*
X25697299D01*
X25522700Y18756267D02*
X25697299D01*
X25522700Y18733407D02*
X25697299D01*
X25522700Y18710547D02*
X25697299D01*
X25522700Y18687687D02*
X25697299D01*
X25522700Y18664827D02*
X25697299D01*
X25522700Y18641967D02*
X25697299D01*
X25522700Y18619107D02*
X25697299D01*
X25522700Y18596247D02*
X25697299D01*
X25522700Y18573387D02*
X25697299D01*
X25522700Y18550527D02*
X25697299D01*
X25522700Y18527667D02*
X25697299D01*
X25522700Y18504807D02*
X25697299D01*
X25522700Y18481947D02*
X25697299D01*
X25522700Y18459087D02*
X25697299D01*
X25522700Y18436227D02*
X25697299D01*
X25522700Y18413367D02*
X25697299D01*
X25400000Y12700000D02*
Y25400000D01*
X39660000*
Y12700000*
X25400000*
G54D61*
X26150000Y15000000D03*
Y15700000D03*
X32950000Y19200000D03*
Y19900000D03*
X34650000Y15000000D03*
Y15700000D03*
Y19200000D03*
Y19900000D03*
X36350000Y15000000D03*
Y15700000D03*
Y19200000D03*
Y19900000D03*
X38050000Y15000000D03*
Y15700000D03*
Y19200000D03*
Y19900000D03*
X28650000Y24300000D03*
Y23800000D03*
X35050000Y24300000D03*
Y23800000D03*
X26150000Y19200000D03*
Y19900000D03*
X27850000Y15000000D03*
Y15700000D03*
Y19200000D03*
Y19900000D03*
X29550000Y15000000D03*
Y15700000D03*
Y19200000D03*
Y19900000D03*
X31250000Y15000000D03*
Y15700000D03*
Y19200000D03*
Y19900000D03*
X32950000Y15000000D03*
Y15700000D03*
X26150000Y15000000D03*
Y15700000D03*
X32950000Y19200000D03*
Y19900000D03*
X34650000Y15000000D03*
Y15700000D03*
Y19200000D03*
Y19900000D03*
X36350000Y15000000D03*
Y15700000D03*
Y19200000D03*
Y19900000D03*
X38050000Y15000000D03*
Y15700000D03*
Y19200000D03*
Y19900000D03*
X28650000Y24300000D03*
Y23800000D03*
X35050000Y24300000D03*
Y23800000D03*
X26150000Y19200000D03*
Y19900000D03*
X27850000Y15000000D03*
Y15700000D03*
Y19200000D03*
Y19900000D03*
X29550000Y15000000D03*
Y15700000D03*
Y19200000D03*
Y19900000D03*
X31250000Y15000000D03*
Y15700000D03*
Y19200000D03*
Y19900000D03*
X32950000Y15000000D03*
Y15700000D03*
G54D62*
X29900000Y24250000D03*
Y24550000D03*
X31700000Y24250000D03*
Y24550000D03*
X33500000Y24250000D03*
Y24550000D03*
X35650000Y24200000D03*
Y23900000D03*
X35450000Y24200000D03*
Y23900000D03*
X28250000Y24200000D03*
Y23900000D03*
X28000000Y24200000D03*
Y23900000D03*
X29400000Y16525000D03*
Y15975000D03*
Y20725000D03*
Y20175000D03*
X31100000Y16525000D03*
Y15975000D03*
Y20725000D03*
Y20175000D03*
X32800000Y16525000D03*
Y15975000D03*
Y20725000D03*
Y20175000D03*
X34500000Y16525000D03*
Y15975000D03*
Y20725000D03*
Y20175000D03*
X36200000Y16525000D03*
Y15975000D03*
Y20725000D03*
Y20175000D03*
X26000000Y16525000D03*
Y15975000D03*
X37900000Y16525000D03*
Y15975000D03*
Y20725000D03*
Y20175000D03*
X26000000Y20700000D03*
Y20150000D03*
X27700000Y16525000D03*
Y15975000D03*
Y20725000D03*
Y20175000D03*
X26721400Y16496000D03*
X26950000D03*
X27178600D03*
X26950000Y17124650D03*
X30121400Y20696000D03*
X30350000D03*
X30578600D03*
X30350000Y21324650D03*
X30461100Y17610300D03*
X30638900D03*
X30550000Y17900000D03*
X30461100Y21810300D03*
X30638900D03*
X30550000Y22100000D03*
X31821400Y16496000D03*
X32050000D03*
X32278600D03*
X32050000Y17124650D03*
X31821400Y20696000D03*
X32050000D03*
X32278600D03*
X32050000Y21324650D03*
X32161100Y17610300D03*
X32338900D03*
X32250000Y17900000D03*
X32161100Y21810300D03*
X32338900D03*
X32250000Y22100000D03*
X33521400Y16496000D03*
X33750000D03*
X33978600D03*
X33750000Y17124650D03*
X33521400Y20696000D03*
X33750000D03*
X33978600D03*
X33750000Y21324650D03*
X33861100Y17610300D03*
X34038900D03*
X33950000Y17900000D03*
X26721400Y20696000D03*
X26950000D03*
X27178600D03*
X26950000Y21324650D03*
X33861100Y21810300D03*
X34038900D03*
X33950000Y22100000D03*
X35221400Y16496000D03*
X35450000D03*
X35678600D03*
X35450000Y17124650D03*
X35221400Y20696000D03*
X35450000D03*
X35678600D03*
X35450000Y21324650D03*
X35561100Y17610300D03*
X35738900D03*
X35650000Y17900000D03*
X35561100Y21810300D03*
X35738900D03*
X35650000Y22100000D03*
X36921400Y16496000D03*
X37150000D03*
X37378600D03*
X37150000Y17124650D03*
X36921400Y20696000D03*
X37150000D03*
X37378600D03*
X37150000Y21324650D03*
X37261100Y17610300D03*
X37438900D03*
X37350000Y17900000D03*
X37261100Y21810300D03*
X37438900D03*
X37350000Y22100000D03*
X38621400Y16496000D03*
X38850000D03*
X39078600D03*
X38850000Y17124650D03*
X27061100Y17610300D03*
X27238900D03*
X27150000Y17900000D03*
X38621400Y20696000D03*
X38850000D03*
X39078600D03*
X38850000Y21324650D03*
X38961100Y17610300D03*
X39138900D03*
X39050000Y17900000D03*
X38961100Y21810300D03*
X39138900D03*
X39050000Y22100000D03*
X27061100Y21810300D03*
X27238900D03*
X27150000Y22100000D03*
X28421400Y16496000D03*
X28650000D03*
X28878600D03*
X28650000Y17124650D03*
X28421400Y20696000D03*
X28650000D03*
X28878600D03*
X28650000Y21324650D03*
X28761100Y17610300D03*
X28938900D03*
X28850000Y17900000D03*
X28761100Y21810300D03*
X28938900D03*
X28850000Y22100000D03*
X30121400Y16496000D03*
X30350000D03*
X30578600D03*
X30350000Y17124650D03*
X26250000Y16850000D03*
X25950000D03*
X26550000Y21800000D03*
Y22100000D03*
X27950000Y16850000D03*
X27650000D03*
X27950000Y21050000D03*
X27650000D03*
X28050000Y16000000D03*
Y16300000D03*
X28450000Y17600000D03*
Y17900000D03*
X28050000Y20200000D03*
Y20500000D03*
X30550000Y22950000D03*
Y22650000D03*
X28450000Y21800000D03*
Y22100000D03*
X30700000Y24250000D03*
Y24550000D03*
X28250000Y17600000D03*
Y17900000D03*
X26250000Y21050000D03*
X25950000D03*
X28250000Y21800000D03*
Y22100000D03*
X29650000Y16850000D03*
X29350000D03*
X29650000Y21050000D03*
X29350000D03*
X29750000Y16000000D03*
Y16300000D03*
X30150000Y17600000D03*
Y17900000D03*
X29750000Y20200000D03*
Y20500000D03*
X30150000Y21800000D03*
Y22100000D03*
X30450000Y24250000D03*
Y24550000D03*
X30200000Y24250000D03*
Y24550000D03*
X29950000Y17600000D03*
Y17900000D03*
X26350000Y16000000D03*
Y16300000D03*
X29950000Y21800000D03*
Y22100000D03*
X31350000Y16850000D03*
X31050000D03*
X31350000Y21050000D03*
X31050000D03*
X31450000Y16000000D03*
Y16300000D03*
X31850000Y17600000D03*
Y17900000D03*
X31450000Y20200000D03*
Y20500000D03*
X31850000Y21800000D03*
Y22100000D03*
Y22950000D03*
Y22650000D03*
X32100000Y22950000D03*
Y22650000D03*
X31650000Y17600000D03*
Y17900000D03*
X26750000Y17600000D03*
Y17900000D03*
X31650000Y21800000D03*
Y22100000D03*
X33050000Y16850000D03*
X32750000D03*
X33050000Y21050000D03*
X32750000D03*
X33150000Y16000000D03*
Y16300000D03*
X33550000Y17600000D03*
Y17900000D03*
Y21800000D03*
Y22100000D03*
X32350000Y22950000D03*
Y22650000D03*
X33150000Y20200000D03*
Y20500000D03*
X32500000Y24250000D03*
Y24550000D03*
X33350000Y17600000D03*
Y17900000D03*
X26350000Y20200000D03*
Y20500000D03*
X33350000Y21800000D03*
Y22100000D03*
X34750000Y16850000D03*
X34450000D03*
X34750000Y21050000D03*
X34450000D03*
X34850000Y16000000D03*
Y16300000D03*
X35250000Y17600000D03*
Y17900000D03*
X34850000Y20200000D03*
Y20500000D03*
X32250000Y24250000D03*
Y24550000D03*
X35250000Y21800000D03*
Y22100000D03*
X32010000Y24250000D03*
Y24550000D03*
X35050000Y17600000D03*
Y17900000D03*
X26750000Y21800000D03*
Y22100000D03*
X35050000Y21800000D03*
Y22100000D03*
X36450000Y16850000D03*
X36150000D03*
X36450000Y21050000D03*
X36150000D03*
X36550000Y16000000D03*
Y16300000D03*
X36950000Y17600000D03*
Y17900000D03*
Y21800000D03*
Y22100000D03*
X33650000Y22950000D03*
Y22650000D03*
X36550000Y20200000D03*
Y20500000D03*
X33900000Y22950000D03*
Y22650000D03*
X36750000Y17600000D03*
Y17900000D03*
X30050000Y22950000D03*
Y22650000D03*
X36750000Y21800000D03*
Y22100000D03*
X38150000Y16850000D03*
X37850000D03*
X38150000Y21050000D03*
X37850000D03*
X38250000Y16000000D03*
Y16300000D03*
X38650000Y17600000D03*
Y17900000D03*
X38250000Y20200000D03*
Y20500000D03*
X34150000Y22950000D03*
Y22650000D03*
X38650000Y21800000D03*
Y22100000D03*
X34300000Y24250000D03*
Y24550000D03*
X38450000Y17600000D03*
Y17900000D03*
X30300000Y22950000D03*
Y22650000D03*
X38450000Y21800000D03*
Y22100000D03*
X26550000Y17600000D03*
Y17900000D03*
X29900000Y24250000D03*
Y24550000D03*
X31700000Y24250000D03*
Y24550000D03*
X33500000Y24250000D03*
Y24550000D03*
X35650000Y24200000D03*
Y23900000D03*
X35450000Y24200000D03*
Y23900000D03*
X28250000Y24200000D03*
Y23900000D03*
X28000000Y24200000D03*
Y23900000D03*
X29400000Y16525000D03*
Y15975000D03*
Y20725000D03*
Y20175000D03*
X31100000Y16525000D03*
Y15975000D03*
Y20725000D03*
Y20175000D03*
X32800000Y16525000D03*
Y15975000D03*
Y20725000D03*
Y20175000D03*
X34500000Y16525000D03*
Y15975000D03*
Y20725000D03*
Y20175000D03*
X36200000Y16525000D03*
Y15975000D03*
Y20725000D03*
Y20175000D03*
X26000000Y16525000D03*
Y15975000D03*
X37900000Y16525000D03*
Y15975000D03*
Y20725000D03*
Y20175000D03*
X26000000Y20700000D03*
Y20150000D03*
X27700000Y16525000D03*
Y15975000D03*
Y20725000D03*
Y20175000D03*
X26721400Y16496000D03*
X26950000D03*
X27178600D03*
X26950000Y17124650D03*
X30121400Y20696000D03*
X30350000D03*
X30578600D03*
X30350000Y21324650D03*
X30461100Y17610300D03*
X30638900D03*
X30550000Y17900000D03*
X30461100Y21810300D03*
X30638900D03*
X30550000Y22100000D03*
X31821400Y16496000D03*
X32050000D03*
X32278600D03*
X32050000Y17124650D03*
X31821400Y20696000D03*
X32050000D03*
X32278600D03*
X32050000Y21324650D03*
X32161100Y17610300D03*
X32338900D03*
X32250000Y17900000D03*
X32161100Y21810300D03*
X32338900D03*
X32250000Y22100000D03*
X33521400Y16496000D03*
X33750000D03*
X33978600D03*
X33750000Y17124650D03*
X33521400Y20696000D03*
X33750000D03*
X33978600D03*
X33750000Y21324650D03*
X33861100Y17610300D03*
X34038900D03*
X33950000Y17900000D03*
X26721400Y20696000D03*
X26950000D03*
X27178600D03*
X26950000Y21324650D03*
X33861100Y21810300D03*
X34038900D03*
X33950000Y22100000D03*
X35221400Y16496000D03*
X35450000D03*
X35678600D03*
X35450000Y17124650D03*
X35221400Y20696000D03*
X35450000D03*
X35678600D03*
X35450000Y21324650D03*
X35561100Y17610300D03*
X35738900D03*
X35650000Y17900000D03*
X35561100Y21810300D03*
X35738900D03*
X35650000Y22100000D03*
X36921400Y16496000D03*
X37150000D03*
X37378600D03*
X37150000Y17124650D03*
X36921400Y20696000D03*
X37150000D03*
X37378600D03*
X37150000Y21324650D03*
X37261100Y17610300D03*
X37438900D03*
X37350000Y17900000D03*
X37261100Y21810300D03*
X37438900D03*
X37350000Y22100000D03*
X38621400Y16496000D03*
X38850000D03*
X39078600D03*
X38850000Y17124650D03*
X27061100Y17610300D03*
X27238900D03*
X27150000Y17900000D03*
X38621400Y20696000D03*
X38850000D03*
X39078600D03*
X38850000Y21324650D03*
X38961100Y17610300D03*
X39138900D03*
X39050000Y17900000D03*
X38961100Y21810300D03*
X39138900D03*
X39050000Y22100000D03*
X27061100Y21810300D03*
X27238900D03*
X27150000Y22100000D03*
X28421400Y16496000D03*
X28650000D03*
X28878600D03*
X28650000Y17124650D03*
X28421400Y20696000D03*
X28650000D03*
X28878600D03*
X28650000Y21324650D03*
X28761100Y17610300D03*
X28938900D03*
X28850000Y17900000D03*
X28761100Y21810300D03*
X28938900D03*
X28850000Y22100000D03*
X30121400Y16496000D03*
X30350000D03*
X30578600D03*
X30350000Y17124650D03*
X26250000Y16850000D03*
X25950000D03*
X26550000Y21800000D03*
Y22100000D03*
X27950000Y16850000D03*
X27650000D03*
X27950000Y21050000D03*
X27650000D03*
X28050000Y16000000D03*
Y16300000D03*
X28450000Y17600000D03*
Y17900000D03*
X28050000Y20200000D03*
Y20500000D03*
X30550000Y22950000D03*
Y22650000D03*
X28450000Y21800000D03*
Y22100000D03*
X30700000Y24250000D03*
Y24550000D03*
X28250000Y17600000D03*
Y17900000D03*
X26250000Y21050000D03*
X25950000D03*
X28250000Y21800000D03*
Y22100000D03*
X29650000Y16850000D03*
X29350000D03*
X29650000Y21050000D03*
X29350000D03*
X29750000Y16000000D03*
Y16300000D03*
X30150000Y17600000D03*
Y17900000D03*
X29750000Y20200000D03*
Y20500000D03*
X30150000Y21800000D03*
Y22100000D03*
X30450000Y24250000D03*
Y24550000D03*
X30200000Y24250000D03*
Y24550000D03*
X29950000Y17600000D03*
Y17900000D03*
X26350000Y16000000D03*
Y16300000D03*
X29950000Y21800000D03*
Y22100000D03*
X31350000Y16850000D03*
X31050000D03*
X31350000Y21050000D03*
X31050000D03*
X31450000Y16000000D03*
Y16300000D03*
X31850000Y17600000D03*
Y17900000D03*
X31450000Y20200000D03*
Y20500000D03*
X31850000Y21800000D03*
Y22100000D03*
Y22950000D03*
Y22650000D03*
X32100000Y22950000D03*
Y22650000D03*
X31650000Y17600000D03*
Y17900000D03*
X26750000Y17600000D03*
Y17900000D03*
X31650000Y21800000D03*
Y22100000D03*
X33050000Y16850000D03*
X32750000D03*
X33050000Y21050000D03*
X32750000D03*
X33150000Y16000000D03*
Y16300000D03*
X33550000Y17600000D03*
Y17900000D03*
Y21800000D03*
Y22100000D03*
X32350000Y22950000D03*
Y22650000D03*
X33150000Y20200000D03*
Y20500000D03*
X32500000Y24250000D03*
Y24550000D03*
X33350000Y17600000D03*
Y17900000D03*
X26350000Y20200000D03*
Y20500000D03*
X33350000Y21800000D03*
Y22100000D03*
X34750000Y16850000D03*
X34450000D03*
X34750000Y21050000D03*
X34450000D03*
X34850000Y16000000D03*
Y16300000D03*
X35250000Y17600000D03*
Y17900000D03*
X34850000Y20200000D03*
Y20500000D03*
X32250000Y24250000D03*
Y24550000D03*
X35250000Y21800000D03*
Y22100000D03*
X32010000Y24250000D03*
Y24550000D03*
X35050000Y17600000D03*
Y17900000D03*
X26750000Y21800000D03*
Y22100000D03*
X35050000Y21800000D03*
Y22100000D03*
X36450000Y16850000D03*
X36150000D03*
X36450000Y21050000D03*
X36150000D03*
X36550000Y16000000D03*
Y16300000D03*
X36950000Y17600000D03*
Y17900000D03*
Y21800000D03*
Y22100000D03*
X33650000Y22950000D03*
Y22650000D03*
X36550000Y20200000D03*
Y20500000D03*
X33900000Y22950000D03*
Y22650000D03*
X36750000Y17600000D03*
Y17900000D03*
X30050000Y22950000D03*
Y22650000D03*
X36750000Y21800000D03*
Y22100000D03*
X38150000Y16850000D03*
X37850000D03*
X38150000Y21050000D03*
X37850000D03*
X38250000Y16000000D03*
Y16300000D03*
X38650000Y17600000D03*
Y17900000D03*
X38250000Y20200000D03*
Y20500000D03*
X34150000Y22950000D03*
Y22650000D03*
X38650000Y21800000D03*
Y22100000D03*
X34300000Y24250000D03*
Y24550000D03*
X38450000Y17600000D03*
Y17900000D03*
X30300000Y22950000D03*
Y22650000D03*
X38450000Y21800000D03*
Y22100000D03*
X26550000Y17600000D03*
Y17900000D03*
X29910000Y23050000D03*
X30435000Y23150000D03*
X31710000Y23050000D03*
X32235000Y23150000D03*
X33510000Y23050000D03*
X34035000Y23150000D03*
X30310000Y23700000D03*
X32110000D03*
G54D103*
X25950000Y17150000D03*
X26204000D03*
Y17912000D03*
X25950000D03*
X32750000Y21350000D03*
X33004000D03*
Y22112000D03*
X32750000D03*
X34450000Y17150000D03*
X34704000D03*
Y17912000D03*
X34450000D03*
Y21350000D03*
X34704000D03*
Y22112000D03*
X34450000D03*
X36150000Y17150000D03*
X36404000D03*
Y17912000D03*
X36150000D03*
Y21350000D03*
X36404000D03*
Y22112000D03*
X36150000D03*
X37850000Y17150000D03*
X38104000D03*
Y17912000D03*
X37850000D03*
Y21350000D03*
X38104000D03*
Y22112000D03*
X37850000D03*
X25950000Y21350000D03*
X26204000D03*
Y22112000D03*
X25950000D03*
X27650000Y17150000D03*
X27904000D03*
Y17912000D03*
X27650000D03*
Y21350000D03*
X27904000D03*
Y22112000D03*
X27650000D03*
X29350000Y17150000D03*
X29604000D03*
Y17912000D03*
X29350000D03*
Y21350000D03*
X29604000D03*
Y22112000D03*
X29350000D03*
X31050000Y17150000D03*
X31304000D03*
Y17912000D03*
X31050000D03*
Y21350000D03*
X31304000D03*
Y22112000D03*
X31050000D03*
X32750000Y17150000D03*
X33004000D03*
Y17912000D03*
X32750000D03*
X26650000Y14550000D03*
X27250000Y14450000D03*
X33450000Y18750000D03*
X34050000Y18650000D03*
X35150000Y14550000D03*
X35750000Y14450000D03*
X35150000Y18750000D03*
X35750000Y18650000D03*
X36850000Y14550000D03*
X37450000Y14450000D03*
X36850000Y18750000D03*
X37450000Y18650000D03*
X38550000Y14550000D03*
X39150000Y14450000D03*
X38550000Y18750000D03*
X39150000Y18650000D03*
X26650000Y18750000D03*
X27250000Y18650000D03*
X28350000Y14550000D03*
X28950000Y14450000D03*
X28350000Y18750000D03*
X28950000Y18650000D03*
X30050000Y14550000D03*
X30650000Y14450000D03*
X30050000Y18750000D03*
X30650000Y18650000D03*
X31750000Y14550000D03*
X32350000Y14450000D03*
X31750000Y18750000D03*
X32350000Y18650000D03*
X33450000Y14550000D03*
X34050000Y14450000D03*
G54D105*
X25800000Y25000000D03*
X39260000D03*
Y13100000D03*
X25800000D03*
G74*
X0Y0D02*
M02*
