*
*
G04 PADS 9.4.1 Build Number: 494907 generated Gerber (RS-274-X) file*
G04 PC Version=2.1*
*
%IN "CECS_Module_IsoInput_Ch"*%
*
%MOIN*%
*
%FSLAX35Y35*%
*
*
*
*
G04 PC Standard Apertures*
*
*
G04 Thermal Relief Aperture macro.*
%AMTER*
1,1,$1,0,0*
1,0,$1-$2,0,0*
21,0,$3,$4,0,0,45*
21,0,$3,$4,0,0,135*
%
*
*
G04 Annular Aperture macro.*
%AMANN*
1,1,$1,0,0*
1,0,$2,0,0*
%
*
*
G04 Odd Aperture macro.*
%AMODD*
1,1,$1,0,0*
1,0,$1-0.005,0,0*
%
*
*
G04 PC Custom Aperture Macros*
*
*
*
*
*
*
G04 PC Aperture Table*
*
%ADD010C,0.001*%
%ADD092C,0.18717*%
%ADD095C,0.06906*%
%ADD096C,0.08874*%
%ADD097C,0.07299*%
%ADD100R,0.07299X0.07299*%
%ADD101C,0.11236*%
%ADD104R,0.05921X0.05921*%
%ADD105C,0.05921*%
%ADD124C,0.10843*%
%ADD125R,0.08874X0.11236*%
%ADD126R,0.28559X0.28559*%
*
*
*
*
G04 PC Circuitry*
G04 Layer Name CECS_Module_IsoInput_Ch - circuitry*
%LPD*%
*
*
G04 PC Custom Flashes*
G04 Layer Name CECS_Module_IsoInput_Ch - flashes*
%LPD*%
*
*
G04 PC Circuitry*
G04 Layer Name CECS_Module_IsoInput_Ch - circuitry*
%LPD*%
*
G54D10*
G54D92*
G01X115748Y115748D03*
X871654D03*
X115748Y379528D03*
X871654D03*
X916929Y111811D03*
Y383465D03*
G54D95*
X934646Y257480D03*
X926772D03*
X934646Y288976D03*
X926772D03*
X934646Y320472D03*
X926772D03*
X934646Y351969D03*
X926772D03*
X899213D03*
X907087D03*
X899213Y320472D03*
X907087D03*
X899213Y288976D03*
X907087D03*
X899213Y257480D03*
X907087D03*
X899213Y225984D03*
X907087D03*
X899213Y194488D03*
X907087D03*
X899213Y162992D03*
X907087D03*
X899213Y131496D03*
X907087D03*
X664961Y141339D03*
Y149213D03*
G54D96*
X225984Y367717D03*
X212234D03*
X288976D03*
X275226D03*
X351969D03*
X338219D03*
X414961D03*
X401211D03*
X477953D03*
X464203D03*
X540945D03*
X527195D03*
X603937D03*
X590187D03*
X162992D03*
X149242D03*
G54D97*
X491850Y136614D03*
X483819D03*
X487835Y146614D03*
X479803D03*
X554843Y136614D03*
X546811D03*
X550827Y146614D03*
X542795D03*
X184488Y265354D03*
Y235354D03*
X194488D03*
X247480Y265354D03*
Y235354D03*
X257480D03*
X310472Y265354D03*
Y235354D03*
X320472D03*
X373465Y265354D03*
Y235354D03*
X383465D03*
X436457Y265354D03*
Y235354D03*
X446457D03*
X499449Y265354D03*
Y235354D03*
X509449D03*
X562441Y265354D03*
Y235354D03*
X572441D03*
X625433Y265354D03*
Y235354D03*
X635433D03*
X418898Y107874D03*
X428740D03*
X438583D03*
X367717D03*
X377559D03*
X387402D03*
X215984Y206299D03*
X184646Y363780D03*
X188583Y387402D03*
X247638Y363780D03*
X251575Y387402D03*
X310630Y363780D03*
X314567Y387402D03*
X373622Y363780D03*
X377559Y387402D03*
X436614Y363780D03*
X440551Y387402D03*
X499606Y363780D03*
X503543Y387402D03*
X562598Y363780D03*
X566535Y387402D03*
X625591Y363780D03*
X629528Y387402D03*
X830315Y312598D03*
X834252Y336220D03*
X196614Y107874D03*
X206614D03*
X216614D03*
Y137874D03*
X206614D03*
X196614D03*
X186614D03*
X351969Y178740D03*
X657087Y322441D03*
X690551Y190551D03*
X832283Y359843D03*
G54D100*
X194488Y265354D03*
X257480D03*
X320472D03*
X383465D03*
X446457D03*
X509449D03*
X572441D03*
X635433D03*
X225984Y206299D03*
X186614Y107874D03*
G54D101*
X863780Y314566D03*
Y334252D03*
G54D104*
X119685Y178740D03*
X635433Y198425D03*
X934646Y210236D03*
G54D105*
X111811Y178740D03*
X119685Y186614D03*
X111811D03*
X119685Y194488D03*
X111811D03*
X119685Y202362D03*
X111811D03*
X119685Y210236D03*
X111811D03*
X643307Y198425D03*
X635433Y190551D03*
X643307D03*
X635433Y182677D03*
X643307D03*
X635433Y174803D03*
X643307D03*
X635433Y166929D03*
X643307D03*
X635433Y159055D03*
X643307D03*
X635433Y151181D03*
X643307D03*
X635433Y143307D03*
X643307D03*
X926772Y210236D03*
X934646Y202362D03*
X926772D03*
X934646Y194488D03*
X926772D03*
X934646Y186614D03*
X926772D03*
X934646Y178740D03*
X926772D03*
X934646Y170866D03*
X926772D03*
X934646Y162992D03*
X926772D03*
X934646Y155118D03*
X926772D03*
G54D124*
X505512Y127559D03*
X466142D03*
X568504D03*
X529134D03*
G54D125*
X164961Y348622D03*
X145276D03*
Y315945D03*
X164961D03*
X479921Y348622D03*
X460236D03*
Y315945D03*
X479921D03*
X542913Y348622D03*
X523228D03*
Y315945D03*
X542913D03*
X605906Y348622D03*
X586220D03*
Y315945D03*
X605906D03*
X227953Y348622D03*
X208268D03*
Y315945D03*
X227953D03*
X290945Y348622D03*
X271260D03*
Y315945D03*
X290945D03*
X353937Y348622D03*
X334252D03*
Y315945D03*
X353937D03*
X416929Y348622D03*
X397244D03*
Y315945D03*
X416929D03*
G54D126*
X863780Y265354D03*
Y198425D03*
X0Y0D02*
M02*
