*
*
G04 PADS Layout (Build Number 2005.266.2) generated Gerber (RS-274-X) file*
G04 PC Version=2.1*
*
%IN "cecs_module_relay_1031."*%
*
%MOMM*%
*
%FSLAX35Y35*%
*
*
*
*
G04 PC Standard Apertures*
*
*
G04 Thermal Relief Aperture macro.*
%AMTER*
1,1,$1,0,0*
1,0,$1-$2,0,0*
21,0,$3,$4,0,0,45*
21,0,$3,$4,0,0,135*
%
*
*
G04 Annular Aperture macro.*
%AMANN*
1,1,$1,0,0*
1,0,$2,0,0*
%
*
*
G04 Odd Aperture macro.*
%AMODD*
1,1,$1,0,0*
1,0,$1-0.005,0,0*
%
*
*
G04 PC Custom Aperture Macros*
*
*
*
*
*
*
G04 PC Aperture Table*
*
%ADD012C,0.1524*%
%ADD013C,0.0254*%
%ADD033C,1.5*%
%ADD034R,1.4224X1.4224*%
%ADD035C,1.4224*%
%ADD036C,2*%
%ADD058C,0.254*%
%ADD059C,0.3048*%
%ADD098R,1.6X1.6*%
%ADD103C,1.6*%
%ADD104R,1.8X1.8*%
%ADD105C,1.8*%
%ADD106C,4.5*%
%ADD109C,0.2*%
%ADD110C,0.508*%
*
*
*
*
G04 PC Custom Flashes*
G04 Layer Name cecs_module_relay_1031. - flashes*
%LPD*%
*
*
G04 PC Circuitry*
G04 Layer Name cecs_module_relay_1031. - circuitry*
%LPD*%
*
G54D12*
G01X27260000Y17660000D02*
X26750000D01*
Y15370000*
X27260000*
Y17660000*
X26936500Y16522000D02*
X27063500D01*
X27000000Y16585500D02*
Y16458500D01*
X26964500Y17149500D02*
X26854500D01*
Y17199500*
X26804500Y17219500*
X26904500Y17249500*
X26804500Y17279500*
X26894500Y17299500*
X26804500Y17329500*
X26854500Y17349500*
Y17409500*
X26964500*
X26898800Y16128000D02*
X26972000D01*
X26898800D02*
X26924200Y16153400D01*
X26898800Y16128000D02*
X26924200Y16102600D01*
X26975000Y15608000D02*
X26924200D01*
X26848000Y16116000*
X34060000Y22110000D02*
X33550000D01*
Y19820000*
X34060000*
Y22110000*
X33736500Y20972000D02*
X33863500D01*
X33800000Y21035500D02*
Y20908500D01*
X33764500Y21599500D02*
X33654500D01*
Y21649500*
X33604500Y21669500*
X33704500Y21699500*
X33604500Y21729500*
X33694500Y21749500*
X33604500Y21779500*
X33654500Y21799500*
Y21859500*
X33764500*
X33698800Y20578000D02*
X33772000D01*
X33698800D02*
X33724200Y20603400D01*
X33698800Y20578000D02*
X33724200Y20552600D01*
X33775000Y20058000D02*
X33724200D01*
X33648000Y20566000*
X35760000Y17660000D02*
X35250000D01*
Y15370000*
X35760000*
Y17660000*
X35436500Y16522000D02*
X35563500D01*
X35500000Y16585500D02*
Y16458500D01*
X35464500Y17149500D02*
X35354500D01*
Y17199500*
X35304500Y17219500*
X35404500Y17249500*
X35304500Y17279500*
X35394500Y17299500*
X35304500Y17329500*
X35354500Y17349500*
Y17409500*
X35464500*
X35398800Y16128000D02*
X35472000D01*
X35398800D02*
X35424200Y16153400D01*
X35398800Y16128000D02*
X35424200Y16102600D01*
X35475000Y15608000D02*
X35424200D01*
X35348000Y16116000*
X35760000Y22110000D02*
X35250000D01*
Y19820000*
X35760000*
Y22110000*
X35436500Y20972000D02*
X35563500D01*
X35500000Y21035500D02*
Y20908500D01*
X35464500Y21599500D02*
X35354500D01*
Y21649500*
X35304500Y21669500*
X35404500Y21699500*
X35304500Y21729500*
X35394500Y21749500*
X35304500Y21779500*
X35354500Y21799500*
Y21859500*
X35464500*
X35398800Y20578000D02*
X35472000D01*
X35398800D02*
X35424200Y20603400D01*
X35398800Y20578000D02*
X35424200Y20552600D01*
X35475000Y20058000D02*
X35424200D01*
X35348000Y20566000*
X37460000Y17660000D02*
X36950000D01*
Y15370000*
X37460000*
Y17660000*
X37136500Y16522000D02*
X37263500D01*
X37200000Y16585500D02*
Y16458500D01*
X37164500Y17149500D02*
X37054500D01*
Y17199500*
X37004500Y17219500*
X37104500Y17249500*
X37004500Y17279500*
X37094500Y17299500*
X37004500Y17329500*
X37054500Y17349500*
Y17409500*
X37164500*
X37098800Y16128000D02*
X37172000D01*
X37098800D02*
X37124200Y16153400D01*
X37098800Y16128000D02*
X37124200Y16102600D01*
X37175000Y15608000D02*
X37124200D01*
X37048000Y16116000*
X37460000Y22110000D02*
X36950000D01*
Y19820000*
X37460000*
Y22110000*
X37136500Y20972000D02*
X37263500D01*
X37200000Y21035500D02*
Y20908500D01*
X37164500Y21599500D02*
X37054500D01*
Y21649500*
X37004500Y21669500*
X37104500Y21699500*
X37004500Y21729500*
X37094500Y21749500*
X37004500Y21779500*
X37054500Y21799500*
Y21859500*
X37164500*
X37098800Y20578000D02*
X37172000D01*
X37098800D02*
X37124200Y20603400D01*
X37098800Y20578000D02*
X37124200Y20552600D01*
X37175000Y20058000D02*
X37124200D01*
X37048000Y20566000*
X39160000Y17660000D02*
X38650000D01*
Y15370000*
X39160000*
Y17660000*
X38836500Y16522000D02*
X38963500D01*
X38900000Y16585500D02*
Y16458500D01*
X38864500Y17149500D02*
X38754500D01*
Y17199500*
X38704500Y17219500*
X38804500Y17249500*
X38704500Y17279500*
X38794500Y17299500*
X38704500Y17329500*
X38754500Y17349500*
Y17409500*
X38864500*
X38798800Y16128000D02*
X38872000D01*
X38798800D02*
X38824200Y16153400D01*
X38798800Y16128000D02*
X38824200Y16102600D01*
X38875000Y15608000D02*
X38824200D01*
X38748000Y16116000*
X39160000Y22110000D02*
X38650000D01*
Y19820000*
X39160000*
Y22110000*
X38836500Y20972000D02*
X38963500D01*
X38900000Y21035500D02*
Y20908500D01*
X38864500Y21599500D02*
X38754500D01*
Y21649500*
X38704500Y21669500*
X38804500Y21699500*
X38704500Y21729500*
X38794500Y21749500*
X38704500Y21779500*
X38754500Y21799500*
Y21859500*
X38864500*
X38798800Y20578000D02*
X38872000D01*
X38798800D02*
X38824200Y20603400D01*
X38798800Y20578000D02*
X38824200Y20552600D01*
X38875000Y20058000D02*
X38824200D01*
X38748000Y20566000*
X27260000Y22110000D02*
X26750000D01*
Y19820000*
X27260000*
Y22110000*
X26936500Y20972000D02*
X27063500D01*
X27000000Y21035500D02*
Y20908500D01*
X26964500Y21599500D02*
X26854500D01*
Y21649500*
X26804500Y21669500*
X26904500Y21699500*
X26804500Y21729500*
X26894500Y21749500*
X26804500Y21779500*
X26854500Y21799500*
Y21859500*
X26964500*
X26898800Y20578000D02*
X26972000D01*
X26898800D02*
X26924200Y20603400D01*
X26898800Y20578000D02*
X26924200Y20552600D01*
X26975000Y20058000D02*
X26924200D01*
X26848000Y20566000*
X28960000Y17660000D02*
X28450000D01*
Y15370000*
X28960000*
Y17660000*
X28636500Y16522000D02*
X28763500D01*
X28700000Y16585500D02*
Y16458500D01*
X28664500Y17149500D02*
X28554500D01*
Y17199500*
X28504500Y17219500*
X28604500Y17249500*
X28504500Y17279500*
X28594500Y17299500*
X28504500Y17329500*
X28554500Y17349500*
Y17409500*
X28664500*
X28598800Y16128000D02*
X28672000D01*
X28598800D02*
X28624200Y16153400D01*
X28598800Y16128000D02*
X28624200Y16102600D01*
X28675000Y15608000D02*
X28624200D01*
X28548000Y16116000*
X28960000Y22110000D02*
X28450000D01*
Y19820000*
X28960000*
Y22110000*
X28636500Y20972000D02*
X28763500D01*
X28700000Y21035500D02*
Y20908500D01*
X28664500Y21599500D02*
X28554500D01*
Y21649500*
X28504500Y21669500*
X28604500Y21699500*
X28504500Y21729500*
X28594500Y21749500*
X28504500Y21779500*
X28554500Y21799500*
Y21859500*
X28664500*
X28598800Y20578000D02*
X28672000D01*
X28598800D02*
X28624200Y20603400D01*
X28598800Y20578000D02*
X28624200Y20552600D01*
X28675000Y20058000D02*
X28624200D01*
X28548000Y20566000*
X30660000Y17660000D02*
X30150000D01*
Y15370000*
X30660000*
Y17660000*
X30336500Y16522000D02*
X30463500D01*
X30400000Y16585500D02*
Y16458500D01*
X30364500Y17149500D02*
X30254500D01*
Y17199500*
X30204500Y17219500*
X30304500Y17249500*
X30204500Y17279500*
X30294500Y17299500*
X30204500Y17329500*
X30254500Y17349500*
Y17409500*
X30364500*
X30298800Y16128000D02*
X30372000D01*
X30298800D02*
X30324200Y16153400D01*
X30298800Y16128000D02*
X30324200Y16102600D01*
X30375000Y15608000D02*
X30324200D01*
X30248000Y16116000*
X30660000Y22110000D02*
X30150000D01*
Y19820000*
X30660000*
Y22110000*
X30336500Y20972000D02*
X30463500D01*
X30400000Y21035500D02*
Y20908500D01*
X30364500Y21599500D02*
X30254500D01*
Y21649500*
X30204500Y21669500*
X30304500Y21699500*
X30204500Y21729500*
X30294500Y21749500*
X30204500Y21779500*
X30254500Y21799500*
Y21859500*
X30364500*
X30298800Y20578000D02*
X30372000D01*
X30298800D02*
X30324200Y20603400D01*
X30298800Y20578000D02*
X30324200Y20552600D01*
X30375000Y20058000D02*
X30324200D01*
X30248000Y20566000*
X32360000Y17660000D02*
X31850000D01*
Y15370000*
X32360000*
Y17660000*
X32036500Y16522000D02*
X32163500D01*
X32100000Y16585500D02*
Y16458500D01*
X32064500Y17149500D02*
X31954500D01*
Y17199500*
X31904500Y17219500*
X32004500Y17249500*
X31904500Y17279500*
X31994500Y17299500*
X31904500Y17329500*
X31954500Y17349500*
Y17409500*
X32064500*
X31998800Y16128000D02*
X32072000D01*
X31998800D02*
X32024200Y16153400D01*
X31998800Y16128000D02*
X32024200Y16102600D01*
X32075000Y15608000D02*
X32024200D01*
X31948000Y16116000*
X32360000Y22110000D02*
X31850000D01*
Y19820000*
X32360000*
Y22110000*
X32036500Y20972000D02*
X32163500D01*
X32100000Y21035500D02*
Y20908500D01*
X32064500Y21599500D02*
X31954500D01*
Y21649500*
X31904500Y21669500*
X32004500Y21699500*
X31904500Y21729500*
X31994500Y21749500*
X31904500Y21779500*
X31954500Y21799500*
Y21859500*
X32064500*
X31998800Y20578000D02*
X32072000D01*
X31998800D02*
X32024200Y20603400D01*
X31998800Y20578000D02*
X32024200Y20552600D01*
X32075000Y20058000D02*
X32024200D01*
X31948000Y20566000*
X34060000Y17660000D02*
X33550000D01*
Y15370000*
X34060000*
Y17660000*
X33736500Y16522000D02*
X33863500D01*
X33800000Y16585500D02*
Y16458500D01*
X33764500Y17149500D02*
X33654500D01*
Y17199500*
X33604500Y17219500*
X33704500Y17249500*
X33604500Y17279500*
X33694500Y17299500*
X33604500Y17329500*
X33654500Y17349500*
Y17409500*
X33764500*
X33698800Y16128000D02*
X33772000D01*
X33698800D02*
X33724200Y16153400D01*
X33698800Y16128000D02*
X33724200Y16102600D01*
X33775000Y15608000D02*
X33724200D01*
X33648000Y16116000*
G54D13*
X25400000Y25400000D02*
X25400067D01*
X39660000D02*
X39660067D01*
X25400000D02*
X25400067D01*
X32530000Y25650000D02*
X32530067D01*
G54D33*
X26300000Y17450000D03*
X26100000D03*
X33100000Y21900000D03*
X32900000D03*
X34800000Y17450000D03*
X34600000D03*
X34800000Y21900000D03*
X34600000D03*
X36500000Y17450000D03*
X36300000D03*
X36500000Y21900000D03*
X36300000D03*
X38200000Y17450000D03*
X38000000D03*
X38200000Y21900000D03*
X38000000D03*
X26300000D03*
X26100000D03*
X28000000Y17450000D03*
X27800000D03*
X28000000Y21900000D03*
X27800000D03*
X29700000Y17450000D03*
X29500000D03*
X29700000Y21900000D03*
X29500000D03*
X31400000Y17450000D03*
X31200000D03*
X31400000Y21900000D03*
X31200000D03*
X33100000Y17450000D03*
X32900000D03*
G54D34*
X29482000Y13127000D03*
Y25227000D03*
G54D35*
Y12873000D03*
X29736000Y13127000D03*
Y12873000D03*
X29990000Y13127000D03*
Y12873000D03*
X30244000Y13127000D03*
Y12873000D03*
X30498000Y13127000D03*
Y12873000D03*
X30752000Y13127000D03*
Y12873000D03*
X31006000Y13127000D03*
Y12873000D03*
X31260000Y13127000D03*
Y12873000D03*
X31514000Y13127000D03*
Y12873000D03*
X31768000Y13127000D03*
Y12873000D03*
X32022000Y13127000D03*
Y12873000D03*
X32276000Y13127000D03*
Y12873000D03*
X32530000Y13127000D03*
Y12873000D03*
X32784000Y13127000D03*
Y12873000D03*
X33038000Y13127000D03*
Y12873000D03*
X33292000Y13127000D03*
Y12873000D03*
X33546000Y13127000D03*
Y12873000D03*
X33800000Y13127000D03*
Y12873000D03*
X34054000Y13127000D03*
Y12873000D03*
X34308000Y13127000D03*
Y12873000D03*
X34562000Y13127000D03*
Y12873000D03*
X34816000Y13127000D03*
Y12873000D03*
X35070000Y13127000D03*
Y12873000D03*
X35324000Y13127000D03*
Y12873000D03*
X35578000Y13127000D03*
Y12873000D03*
X29482000Y24973000D03*
X29736000Y25227000D03*
Y24973000D03*
X29990000Y25227000D03*
Y24973000D03*
X30244000Y25227000D03*
Y24973000D03*
X30498000Y25227000D03*
Y24973000D03*
X30752000Y25227000D03*
Y24973000D03*
X31006000Y25227000D03*
Y24973000D03*
X31260000Y25227000D03*
Y24973000D03*
X31514000Y25227000D03*
Y24973000D03*
X31768000Y25227000D03*
Y24973000D03*
X32022000Y25227000D03*
Y24973000D03*
X32276000Y25227000D03*
Y24973000D03*
X32530000Y25227000D03*
Y24973000D03*
X32784000Y25227000D03*
Y24973000D03*
X33038000Y25227000D03*
Y24973000D03*
X33292000Y25227000D03*
Y24973000D03*
X33546000Y25227000D03*
Y24973000D03*
X33800000Y25227000D03*
Y24973000D03*
X34054000Y25227000D03*
Y24973000D03*
X34308000Y25227000D03*
Y24973000D03*
X34562000Y25227000D03*
Y24973000D03*
X34816000Y25227000D03*
Y24973000D03*
X35070000Y25227000D03*
Y24973000D03*
X35324000Y25227000D03*
Y24973000D03*
X35578000Y25227000D03*
Y24973000D03*
G54D36*
X27100000Y14950000D03*
X26500000D03*
X33900000Y19400000D03*
X33300000D03*
X35600000Y14950000D03*
X35000000D03*
X35600000Y19400000D03*
X35000000D03*
X37300000Y14950000D03*
X36700000D03*
X37300000Y19400000D03*
X36700000D03*
X39000000Y14950000D03*
X38400000D03*
X39000000Y19400000D03*
X38400000D03*
X27100000D03*
X26500000D03*
X28800000Y14950000D03*
X28200000D03*
X28800000Y19400000D03*
X28200000D03*
X30500000Y14950000D03*
X29900000D03*
X30500000Y19400000D03*
X29900000D03*
X32200000Y14950000D03*
X31600000D03*
X32200000Y19400000D03*
X31600000D03*
X33900000Y14950000D03*
X33300000D03*
G54D58*
X35550000Y23950000D02*
X35400000D01*
X35550000Y23988100D02*
Y24128206D01*
X35525006Y24153200*
X35424994*
X35400000Y24128206*
Y23988100*
X35550000Y23911900D02*
Y23746800D01*
X35400000*
Y23911900*
X35750000Y23950000D02*
X35600000D01*
X35750000Y23988100D02*
Y24128206D01*
X35725006Y24153200*
X35624994*
X35600000Y24128206*
Y23988100*
X35750000Y23911900D02*
Y23746800D01*
X35600000*
Y23911900*
X36550000Y23950000D02*
X36400000D01*
X36550000Y23988100D02*
Y24128206D01*
X36525006Y24153200*
X36424994*
X36400000Y24128206*
Y23988100*
X36550000Y23911900D02*
Y23746800D01*
X36400000*
Y23911900*
X36750000Y23950000D02*
X36600000D01*
X36750000Y23988100D02*
Y24128206D01*
X36725006Y24153200*
X36624994*
X36600000Y24128206*
Y23988100*
X36750000Y23911900D02*
Y23746800D01*
X36600000*
Y23911900*
X36950000Y23950000D02*
X36800000D01*
X36950000Y23988100D02*
Y24128206D01*
X36925006Y24153200*
X36824994*
X36800000Y24128206*
Y23988100*
X36950000Y23911900D02*
Y23746800D01*
X36800000*
Y23911900*
X35825000Y23700000D02*
X35975000D01*
Y23900000*
X36175000*
Y23700000*
X36325000*
Y24130000*
X36255000Y24200000*
X36175000*
Y24000000*
X35975000*
Y24200000*
X35895000*
X35825000Y24130000*
Y23700000*
X35975000Y23975000D02*
G75*
G03Y23925000I0J-25000D01*
G01Y23975000D02*
X36175000D01*
Y23925000D02*
G03Y23975000I0J25000D01*
G01Y23925000D02*
X35975000D01*
X34825000Y23700000D02*
X34975000D01*
Y23900000*
X35175000*
Y23700000*
X35325000*
Y24130000*
X35255000Y24200000*
X35175000*
Y24000000*
X34975000*
Y24200000*
X34895000*
X34825000Y24130000*
Y23700000*
X34975000Y23975000D02*
G03Y23925000I0J-25000D01*
G01Y23975000D02*
X35175000D01*
Y23925000D02*
G03Y23975000I0J25000D01*
G01Y23925000D02*
X34975000D01*
X31577000Y19923000D02*
X31069000D01*
Y20177000*
X31577000*
Y19923000*
X33277000Y15473000D02*
X32769000D01*
Y15727000*
X33277000*
Y15473000*
Y19923000D02*
X32769000D01*
Y20177000*
X33277000*
Y19923000*
X34977000Y15473000D02*
X34469000D01*
Y15727000*
X34977000*
Y15473000*
Y19923000D02*
X34469000D01*
Y20177000*
X34977000*
Y19923000*
X36677000Y15473000D02*
X36169000D01*
Y15727000*
X36677000*
Y15473000*
Y19923000D02*
X36169000D01*
Y20177000*
X36677000*
Y19923000*
X38377000Y15473000D02*
X37869000D01*
Y15727000*
X38377000*
Y15473000*
Y19923000D02*
X37869000D01*
Y20177000*
X38377000*
Y19923000*
X26477000Y15473000D02*
X25969000D01*
Y15727000*
X26477000*
Y15473000*
Y19923000D02*
X25969000D01*
Y20177000*
X26477000*
Y19923000*
X28177000Y15473000D02*
X27669000D01*
Y15727000*
X28177000*
Y15473000*
Y19923000D02*
X27669000D01*
Y20177000*
X28177000*
Y19923000*
X29877000Y15473000D02*
X29369000D01*
Y15727000*
X29877000*
Y15473000*
Y19923000D02*
X29369000D01*
Y20177000*
X29877000*
Y19923000*
X31577000Y15473000D02*
X31069000D01*
Y15727000*
X31577000*
Y15473000*
X26098400Y16223800D02*
Y16160300D01*
X26225400*
X26098400Y16376200D02*
Y16439700D01*
X26225400*
X26327000Y16287300D02*
Y16312700D01*
X32898400Y20673800D02*
Y20610300D01*
X33025400*
X32898400Y20826200D02*
Y20889700D01*
X33025400*
X33127000Y20737300D02*
Y20762700D01*
X34598400Y16223800D02*
Y16160300D01*
X34725400*
X34598400Y16376200D02*
Y16439700D01*
X34725400*
X34827000Y16287300D02*
Y16312700D01*
X34598400Y20673800D02*
Y20610300D01*
X34725400*
X34598400Y20826200D02*
Y20889700D01*
X34725400*
X34827000Y20737300D02*
Y20762700D01*
X36298400Y16223800D02*
Y16160300D01*
X36425400*
X36298400Y16376200D02*
Y16439700D01*
X36425400*
X36527000Y16287300D02*
Y16312700D01*
X36298400Y20673800D02*
Y20610300D01*
X36425400*
X36298400Y20826200D02*
Y20889700D01*
X36425400*
X36527000Y20737300D02*
Y20762700D01*
X37998400Y16223800D02*
Y16160300D01*
X38125400*
X37998400Y16376200D02*
Y16439700D01*
X38125400*
X38227000Y16287300D02*
Y16312700D01*
X37998400Y20673800D02*
Y20610300D01*
X38125400*
X37998400Y20826200D02*
Y20889700D01*
X38125400*
X38227000Y20737300D02*
Y20762700D01*
X26098400Y20673800D02*
Y20610300D01*
X26225400*
X26098400Y20826200D02*
Y20889700D01*
X26225400*
X26327000Y20737300D02*
Y20762700D01*
X27798400Y16223800D02*
Y16160300D01*
X27925400*
X27798400Y16376200D02*
Y16439700D01*
X27925400*
X28027000Y16287300D02*
Y16312700D01*
X27798400Y20673800D02*
Y20610300D01*
X27925400*
X27798400Y20826200D02*
Y20889700D01*
X27925400*
X28027000Y20737300D02*
Y20762700D01*
X29498400Y16223800D02*
Y16160300D01*
X29625400*
X29498400Y16376200D02*
Y16439700D01*
X29625400*
X29727000Y16287300D02*
Y16312700D01*
X29498400Y20673800D02*
Y20610300D01*
X29625400*
X29498400Y20826200D02*
Y20889700D01*
X29625400*
X29727000Y20737300D02*
Y20762700D01*
X31198400Y16223800D02*
Y16160300D01*
X31325400*
X31198400Y16376200D02*
Y16439700D01*
X31325400*
X31427000Y16287300D02*
Y16312700D01*
X31198400Y20673800D02*
Y20610300D01*
X31325400*
X31198400Y20826200D02*
Y20889700D01*
X31325400*
X31427000Y20737300D02*
Y20762700D01*
X32898400Y16223800D02*
Y16160300D01*
X33025400*
X32898400Y16376200D02*
Y16439700D01*
X33025400*
X33127000Y16287300D02*
Y16312700D01*
X26285700Y16786500D02*
Y16600000D01*
X26514300*
Y16786500*
X26285700Y16913500D02*
Y17112500D01*
X26514300*
Y16913500*
X27825000Y21300000D02*
X27675000D01*
X27825000Y21338100D02*
Y21503200D01*
X27675000*
Y21338100*
X27825000Y21261900D02*
Y21096800D01*
X27675000*
Y21261900*
X27900000Y15875000D02*
Y16025000D01*
X27938100Y15875000D02*
X28103200D01*
Y16025000*
X27938100*
X27861900Y15875000D02*
X27696800D01*
Y16025000*
X27861900*
X27900000Y20325000D02*
Y20475000D01*
X27938100Y20325000D02*
X28103200D01*
Y20475000*
X27938100*
X27861900Y20325000D02*
X27696800D01*
Y20475000*
X27861900*
X29685700Y16786500D02*
Y16600000D01*
X29914300*
Y16786500*
X29685700Y16913500D02*
Y17112500D01*
X29914300*
Y16913500*
X29685700Y21236500D02*
Y21050000D01*
X29914300*
Y21236500*
X29685700Y21363500D02*
Y21562500D01*
X29914300*
Y21363500*
X29525000Y16850000D02*
X29375000D01*
X29525000Y16888100D02*
Y17053200D01*
X29375000*
Y16888100*
X29525000Y16811900D02*
Y16646800D01*
X29375000*
Y16811900*
X29525000Y21300000D02*
X29375000D01*
X29525000Y21338100D02*
Y21503200D01*
X29375000*
Y21338100*
X29525000Y21261900D02*
Y21096800D01*
X29375000*
Y21261900*
X29600000Y15875000D02*
Y16025000D01*
X29638100Y15875000D02*
X29803200D01*
Y16025000*
X29638100*
X29561900Y15875000D02*
X29396800D01*
Y16025000*
X29561900*
X29600000Y20325000D02*
Y20475000D01*
X29638100Y20325000D02*
X29803200D01*
Y20475000*
X29638100*
X29561900Y20325000D02*
X29396800D01*
Y20475000*
X29561900*
X31385700Y16786500D02*
Y16600000D01*
X31614300*
Y16786500*
X31385700Y16913500D02*
Y17112500D01*
X31614300*
Y16913500*
X26285700Y21236500D02*
Y21050000D01*
X26514300*
Y21236500*
X26285700Y21363500D02*
Y21562500D01*
X26514300*
Y21363500*
X31385700Y21236500D02*
Y21050000D01*
X31614300*
Y21236500*
X31385700Y21363500D02*
Y21562500D01*
X31614300*
Y21363500*
X31225000Y16850000D02*
X31075000D01*
X31225000Y16888100D02*
Y17053200D01*
X31075000*
Y16888100*
X31225000Y16811900D02*
Y16646800D01*
X31075000*
Y16811900*
X31225000Y21300000D02*
X31075000D01*
X31225000Y21338100D02*
Y21503200D01*
X31075000*
Y21338100*
X31225000Y21261900D02*
Y21096800D01*
X31075000*
Y21261900*
X31300000Y15875000D02*
Y16025000D01*
X31338100Y15875000D02*
X31503200D01*
Y16025000*
X31338100*
X31261900Y15875000D02*
X31096800D01*
Y16025000*
X31261900*
X31300000Y20325000D02*
Y20475000D01*
X31338100Y20325000D02*
X31503200D01*
Y20475000*
X31338100*
X31261900Y20325000D02*
X31096800D01*
Y20475000*
X31261900*
X33085700Y16786500D02*
Y16600000D01*
X33314300*
Y16786500*
X33085700Y16913500D02*
Y17112500D01*
X33314300*
Y16913500*
X33085700Y21236500D02*
Y21050000D01*
X33314300*
Y21236500*
X33085700Y21363500D02*
Y21562500D01*
X33314300*
Y21363500*
X32925000Y16850000D02*
X32775000D01*
X32925000Y16888100D02*
Y17053200D01*
X32775000*
Y16888100*
X32925000Y16811900D02*
Y16646800D01*
X32775000*
Y16811900*
X32925000Y21300000D02*
X32775000D01*
X32925000Y21338100D02*
Y21503200D01*
X32775000*
Y21338100*
X32925000Y21261900D02*
Y21096800D01*
X32775000*
Y21261900*
X33000000Y15875000D02*
Y16025000D01*
X33038100Y15875000D02*
X33203200D01*
Y16025000*
X33038100*
X32961900Y15875000D02*
X32796800D01*
Y16025000*
X32961900*
X26125000Y16850000D02*
X25975000D01*
X26125000Y16888100D02*
Y17053200D01*
X25975000*
Y16888100*
X26125000Y16811900D02*
Y16646800D01*
X25975000*
Y16811900*
X33000000Y20325000D02*
Y20475000D01*
X33038100Y20325000D02*
X33203200D01*
Y20475000*
X33038100*
X32961900Y20325000D02*
X32796800D01*
Y20475000*
X32961900*
X34785700Y16786500D02*
Y16600000D01*
X35014300*
Y16786500*
X34785700Y16913500D02*
Y17112500D01*
X35014300*
Y16913500*
X34625000Y16850000D02*
X34475000D01*
X34625000Y16888100D02*
Y17053200D01*
X34475000*
Y16888100*
X34625000Y16811900D02*
Y16646800D01*
X34475000*
Y16811900*
X34785700Y21236500D02*
Y21050000D01*
X35014300*
Y21236500*
X34785700Y21363500D02*
Y21562500D01*
X35014300*
Y21363500*
X34625000Y21300000D02*
X34475000D01*
X34625000Y21338100D02*
Y21503200D01*
X34475000*
Y21338100*
X34625000Y21261900D02*
Y21096800D01*
X34475000*
Y21261900*
X34700000Y15875000D02*
Y16025000D01*
X34738100Y15875000D02*
X34903200D01*
Y16025000*
X34738100*
X34661900Y15875000D02*
X34496800D01*
Y16025000*
X34661900*
X34700000Y20325000D02*
Y20475000D01*
X34738100Y20325000D02*
X34903200D01*
Y20475000*
X34738100*
X34661900Y20325000D02*
X34496800D01*
Y20475000*
X34661900*
X36485700Y16786500D02*
Y16600000D01*
X36714300*
Y16786500*
X36485700Y16913500D02*
Y17112500D01*
X36714300*
Y16913500*
X36485700Y21236500D02*
Y21050000D01*
X36714300*
Y21236500*
X36485700Y21363500D02*
Y21562500D01*
X36714300*
Y21363500*
X36325000Y16850000D02*
X36175000D01*
X36325000Y16888100D02*
Y17053200D01*
X36175000*
Y16888100*
X36325000Y16811900D02*
Y16646800D01*
X36175000*
Y16811900*
X26125000Y21300000D02*
X25975000D01*
X26125000Y21338100D02*
Y21503200D01*
X25975000*
Y21338100*
X26125000Y21261900D02*
Y21096800D01*
X25975000*
Y21261900*
X36325000Y21300000D02*
X36175000D01*
X36325000Y21338100D02*
Y21503200D01*
X36175000*
Y21338100*
X36325000Y21261900D02*
Y21096800D01*
X36175000*
Y21261900*
X36400000Y15875000D02*
Y16025000D01*
X36438100Y15875000D02*
X36603200D01*
Y16025000*
X36438100*
X36361900Y15875000D02*
X36196800D01*
Y16025000*
X36361900*
X36400000Y20325000D02*
Y20475000D01*
X36438100Y20325000D02*
X36603200D01*
Y20475000*
X36438100*
X36361900Y20325000D02*
X36196800D01*
Y20475000*
X36361900*
X38185700Y16786500D02*
Y16600000D01*
X38414300*
Y16786500*
X38185700Y16913500D02*
Y17112500D01*
X38414300*
Y16913500*
X38025000Y16850000D02*
X37875000D01*
X38025000Y16888100D02*
Y17053200D01*
X37875000*
Y16888100*
X38025000Y16811900D02*
Y16646800D01*
X37875000*
Y16811900*
X38185700Y21236500D02*
Y21050000D01*
X38414300*
Y21236500*
X38185700Y21363500D02*
Y21562500D01*
X38414300*
Y21363500*
X38025000Y21300000D02*
X37875000D01*
X38025000Y21338100D02*
Y21503200D01*
X37875000*
Y21338100*
X38025000Y21261900D02*
Y21096800D01*
X37875000*
Y21261900*
X38100000Y15875000D02*
Y16025000D01*
X38138100Y15875000D02*
X38303200D01*
Y16025000*
X38138100*
X38061900Y15875000D02*
X37896800D01*
Y16025000*
X38061900*
X38100000Y20325000D02*
Y20475000D01*
X38138100Y20325000D02*
X38303200D01*
Y20475000*
X38138100*
X38061900Y20325000D02*
X37896800D01*
Y20475000*
X38061900*
X26200000Y15875000D02*
Y16025000D01*
X26238100Y15875000D02*
X26403200D01*
Y16025000*
X26238100*
X26161900Y15875000D02*
X25996800D01*
Y16025000*
X26161900*
X26200000Y20325000D02*
Y20475000D01*
X26238100Y20325000D02*
X26403200D01*
Y20475000*
X26238100*
X26161900Y20325000D02*
X25996800D01*
Y20475000*
X26161900*
X27985700Y16786500D02*
Y16600000D01*
X28214300*
Y16786500*
X27985700Y16913500D02*
Y17112500D01*
X28214300*
Y16913500*
X27825000Y16850000D02*
X27675000D01*
X27825000Y16888100D02*
Y17053200D01*
X27675000*
Y16888100*
X27825000Y16811900D02*
Y16646800D01*
X27675000*
Y16811900*
X27985700Y21236500D02*
Y21050000D01*
X28214300*
Y21236500*
X27985700Y21363500D02*
Y21562500D01*
X28214300*
Y21363500*
X26650000Y14950000D02*
G03X26650000I-150000J0D01*
G01X27250000D02*
G03X27250000I-150000J0D01*
G01X26950000D02*
X26900000D01*
X26850000Y14865000*
X26800000Y15065000*
X26750000Y14865000*
X26700000Y14950000*
X26650000*
X33450000Y19400000D02*
G03X33450000I-150000J0D01*
G01X34050000D02*
G03X34050000I-150000J0D01*
G01X33750000D02*
X33700000D01*
X33650000Y19315000*
X33600000Y19515000*
X33550000Y19315000*
X33500000Y19400000*
X33450000*
X35150000Y14950000D02*
G03X35150000I-150000J0D01*
G01X35750000D02*
G03X35750000I-150000J0D01*
G01X35450000D02*
X35400000D01*
X35350000Y14865000*
X35300000Y15065000*
X35250000Y14865000*
X35200000Y14950000*
X35150000*
Y19400000D02*
G03X35150000I-150000J0D01*
G01X35750000D02*
G03X35750000I-150000J0D01*
G01X35450000D02*
X35400000D01*
X35350000Y19315000*
X35300000Y19515000*
X35250000Y19315000*
X35200000Y19400000*
X35150000*
X36850000Y14950000D02*
G03X36850000I-150000J0D01*
G01X37450000D02*
G03X37450000I-150000J0D01*
G01X37150000D02*
X37100000D01*
X37050000Y14865000*
X37000000Y15065000*
X36950000Y14865000*
X36900000Y14950000*
X36850000*
Y19400000D02*
G03X36850000I-150000J0D01*
G01X37450000D02*
G03X37450000I-150000J0D01*
G01X37150000D02*
X37100000D01*
X37050000Y19315000*
X37000000Y19515000*
X36950000Y19315000*
X36900000Y19400000*
X36850000*
X38550000Y14950000D02*
G03X38550000I-150000J0D01*
G01X39150000D02*
G03X39150000I-150000J0D01*
G01X38850000D02*
X38800000D01*
X38750000Y14865000*
X38700000Y15065000*
X38650000Y14865000*
X38600000Y14950000*
X38550000*
Y19400000D02*
G03X38550000I-150000J0D01*
G01X39150000D02*
G03X39150000I-150000J0D01*
G01X38850000D02*
X38800000D01*
X38750000Y19315000*
X38700000Y19515000*
X38650000Y19315000*
X38600000Y19400000*
X38550000*
X26650000D02*
G03X26650000I-150000J0D01*
G01X27250000D02*
G03X27250000I-150000J0D01*
G01X26950000D02*
X26900000D01*
X26850000Y19315000*
X26800000Y19515000*
X26750000Y19315000*
X26700000Y19400000*
X26650000*
X28350000Y14950000D02*
G03X28350000I-150000J0D01*
G01X28950000D02*
G03X28950000I-150000J0D01*
G01X28650000D02*
X28600000D01*
X28550000Y14865000*
X28500000Y15065000*
X28450000Y14865000*
X28400000Y14950000*
X28350000*
Y19400000D02*
G03X28350000I-150000J0D01*
G01X28950000D02*
G03X28950000I-150000J0D01*
G01X28650000D02*
X28600000D01*
X28550000Y19315000*
X28500000Y19515000*
X28450000Y19315000*
X28400000Y19400000*
X28350000*
X30050000Y14950000D02*
G03X30050000I-150000J0D01*
G01X30650000D02*
G03X30650000I-150000J0D01*
G01X30350000D02*
X30300000D01*
X30250000Y14865000*
X30200000Y15065000*
X30150000Y14865000*
X30100000Y14950000*
X30050000*
Y19400000D02*
G03X30050000I-150000J0D01*
G01X30650000D02*
G03X30650000I-150000J0D01*
G01X30350000D02*
X30300000D01*
X30250000Y19315000*
X30200000Y19515000*
X30150000Y19315000*
X30100000Y19400000*
X30050000*
X31750000Y14950000D02*
G03X31750000I-150000J0D01*
G01X32350000D02*
G03X32350000I-150000J0D01*
G01X32050000D02*
X32000000D01*
X31950000Y14865000*
X31900000Y15065000*
X31850000Y14865000*
X31800000Y14950000*
X31750000*
Y19400000D02*
G03X31750000I-150000J0D01*
G01X32350000D02*
G03X32350000I-150000J0D01*
G01X32050000D02*
X32000000D01*
X31950000Y19315000*
X31900000Y19515000*
X31850000Y19315000*
X31800000Y19400000*
X31750000*
X33450000Y14950000D02*
G03X33450000I-150000J0D01*
G01X34050000D02*
G03X34050000I-150000J0D01*
G01X33750000D02*
X33700000D01*
X33650000Y14865000*
X33600000Y15065000*
X33550000Y14865000*
X33500000Y14950000*
X33450000*
X26075000Y25000000D02*
G03X26075000I-275000J0D01*
G01X26026385D02*
G03X26026385I-226385J0D01*
G01X39535000D02*
G03X39535000I-275000J0D01*
G01X39486385D02*
G03X39486385I-226385J0D01*
G01X39535000Y13100000D02*
G03X39535000I-275000J0D01*
G01X39486385D02*
G03X39486385I-226385J0D01*
G01X26075000D02*
G03X26075000I-275000J0D01*
G01X26026385D02*
G03X26026385I-226385J0D01*
G01X35512300Y24087300D02*
Y24012700D01*
X35437700*
Y24087300*
X35512300*
X35437700Y24012700D02*
X35512300D01*
X35437700Y24038100D02*
X35512300D01*
X35437700Y24063500D02*
X35512300D01*
X35458400Y24012700D02*
Y24087300D01*
X35483800Y24012700D02*
Y24087300D01*
X35509200Y24012700D02*
Y24087300D01*
X35512300Y23812700D02*
Y23887300D01*
X35437700*
Y23812700*
X35512300*
X35437700D02*
X35512300D01*
X35437700Y23838100D02*
X35512300D01*
X35437700Y23863500D02*
X35512300D01*
X35458400Y23812700D02*
Y23887300D01*
X35483800Y23812700D02*
Y23887300D01*
X35509200Y23812700D02*
Y23887300D01*
X35712300Y24087300D02*
Y24012700D01*
X35637700*
Y24087300*
X35712300*
X35637700Y24012700D02*
X35712300D01*
X35637700Y24038100D02*
X35712300D01*
X35637700Y24063500D02*
X35712300D01*
X35661600Y24012700D02*
Y24087300D01*
X35687000Y24012700D02*
Y24087300D01*
X35712300Y23812700D02*
Y23887300D01*
X35637700*
Y23812700*
X35712300*
X35637700D02*
X35712300D01*
X35637700Y23838100D02*
X35712300D01*
X35637700Y23863500D02*
X35712300D01*
X35661600Y23812700D02*
Y23887300D01*
X35687000Y23812700D02*
Y23887300D01*
X36512300Y24087300D02*
Y24012700D01*
X36437700*
Y24087300*
X36512300*
X36437700Y24012700D02*
X36512300D01*
X36437700Y24038100D02*
X36512300D01*
X36437700Y24063500D02*
X36512300D01*
X36449000Y24012700D02*
Y24087300D01*
X36474400Y24012700D02*
Y24087300D01*
X36499800Y24012700D02*
Y24087300D01*
X36512300Y23812700D02*
Y23887300D01*
X36437700*
Y23812700*
X36512300*
X36437700D02*
X36512300D01*
X36437700Y23838100D02*
X36512300D01*
X36437700Y23863500D02*
X36512300D01*
X36449000Y23812700D02*
Y23887300D01*
X36474400Y23812700D02*
Y23887300D01*
X36499800Y23812700D02*
Y23887300D01*
X36712300Y24087300D02*
Y24012700D01*
X36637700*
Y24087300*
X36712300*
X36637700Y24012700D02*
X36712300D01*
X36637700Y24038100D02*
X36712300D01*
X36637700Y24063500D02*
X36712300D01*
X36652200Y24012700D02*
Y24087300D01*
X36677600Y24012700D02*
Y24087300D01*
X36703000Y24012700D02*
Y24087300D01*
X36712300Y23812700D02*
Y23887300D01*
X36637700*
Y23812700*
X36712300*
X36637700D02*
X36712300D01*
X36637700Y23838100D02*
X36712300D01*
X36637700Y23863500D02*
X36712300D01*
X36652200Y23812700D02*
Y23887300D01*
X36677600Y23812700D02*
Y23887300D01*
X36703000Y23812700D02*
Y23887300D01*
X36912300Y24087300D02*
Y24012700D01*
X36837700*
Y24087300*
X36912300*
X36837700Y24012700D02*
X36912300D01*
X36837700Y24038100D02*
X36912300D01*
X36837700Y24063500D02*
X36912300D01*
X36855400Y24012700D02*
Y24087300D01*
X36880800Y24012700D02*
Y24087300D01*
X36906200Y24012700D02*
Y24087300D01*
X36912300Y23812700D02*
Y23887300D01*
X36837700*
Y23812700*
X36912300*
X36837700D02*
X36912300D01*
X36837700Y23838100D02*
X36912300D01*
X36837700Y23863500D02*
X36912300D01*
X36855400Y23812700D02*
Y23887300D01*
X36880800Y23812700D02*
Y23887300D01*
X36906200Y23812700D02*
Y23887300D01*
X36037700Y23712700D02*
Y23837300D01*
X36112300*
Y23712700*
X36037700*
X36112300*
X36037700Y23738100D02*
X36112300D01*
X36037700Y23763500D02*
X36112300D01*
X36037700Y23788900D02*
X36112300D01*
X36037700Y23814300D02*
X36112300D01*
X36042600Y23712700D02*
Y23837300D01*
X36068000Y23712700D02*
Y23837300D01*
X36093400Y23712700D02*
Y23837300D01*
X36037700Y24187300D02*
Y24062700D01*
X36112300*
Y24187300*
X36037700*
Y24062700D02*
X36112300D01*
X36037700Y24088100D02*
X36112300D01*
X36037700Y24113500D02*
X36112300D01*
X36037700Y24138900D02*
X36112300D01*
X36037700Y24164300D02*
X36112300D01*
X36042600Y24062700D02*
Y24187300D01*
X36068000Y24062700D02*
Y24187300D01*
X36093400Y24062700D02*
Y24187300D01*
X35037700Y23712700D02*
Y23837300D01*
X35112300*
Y23712700*
X35037700*
X35112300*
X35037700Y23738100D02*
X35112300D01*
X35037700Y23763500D02*
X35112300D01*
X35037700Y23788900D02*
X35112300D01*
X35037700Y23814300D02*
X35112300D01*
X35052000Y23712700D02*
Y23837300D01*
X35077400Y23712700D02*
Y23837300D01*
X35102800Y23712700D02*
Y23837300D01*
X35037700Y24187300D02*
Y24062700D01*
X35112300*
Y24187300*
X35037700*
Y24062700D02*
X35112300D01*
X35037700Y24088100D02*
X35112300D01*
X35037700Y24113500D02*
X35112300D01*
X35037700Y24138900D02*
X35112300D01*
X35037700Y24164300D02*
X35112300D01*
X35052000Y24062700D02*
Y24187300D01*
X35077400Y24062700D02*
Y24187300D01*
X35102800Y24062700D02*
Y24187300D01*
X26037700Y16262700D02*
Y16337300D01*
X26124800*
Y16262700*
X26037700*
X26124800*
X26037700Y16288100D02*
X26124800D01*
X26037700Y16313500D02*
X26124800D01*
X26060400Y16262700D02*
Y16337300D01*
X26085800Y16262700D02*
Y16337300D01*
X26111200Y16262700D02*
Y16337300D01*
X26263500Y16173000D02*
Y16249200D01*
X26327000*
Y16173000*
X26263500*
X26327000*
X26263500Y16198400D02*
X26327000D01*
X26263500Y16223800D02*
X26327000D01*
X26263500Y16249200D02*
X26327000D01*
X26263600Y16173000D02*
Y16249200D01*
X26289000Y16173000D02*
Y16249200D01*
X26314400Y16173000D02*
Y16249200D01*
X26263500Y16350800D02*
Y16427000D01*
X26327000*
Y16350800*
X26263500*
X26327000*
X26263500Y16376200D02*
X26327000D01*
X26263500Y16401600D02*
X26327000D01*
X26263500Y16427000D02*
X26327000D01*
X26263600Y16350800D02*
Y16427000D01*
X26289000Y16350800D02*
Y16427000D01*
X26314400Y16350800D02*
Y16427000D01*
X32837700Y20712700D02*
Y20787300D01*
X32924800*
Y20712700*
X32837700*
X32924800*
X32837700Y20738100D02*
X32924800D01*
X32837700Y20763500D02*
X32924800D01*
X32842200Y20712700D02*
Y20787300D01*
X32867600Y20712700D02*
Y20787300D01*
X32893000Y20712700D02*
Y20787300D01*
X32918400Y20712700D02*
Y20787300D01*
X33063500Y20623000D02*
Y20699200D01*
X33127000*
Y20623000*
X33063500*
X33127000*
X33063500Y20648400D02*
X33127000D01*
X33063500Y20673800D02*
X33127000D01*
X33063500Y20699200D02*
X33127000D01*
X33070800Y20623000D02*
Y20699200D01*
X33096200Y20623000D02*
Y20699200D01*
X33121600Y20623000D02*
Y20699200D01*
X33063500Y20800800D02*
Y20877000D01*
X33127000*
Y20800800*
X33063500*
X33127000*
X33063500Y20826200D02*
X33127000D01*
X33063500Y20851600D02*
X33127000D01*
X33063500Y20877000D02*
X33127000D01*
X33070800Y20800800D02*
Y20877000D01*
X33096200Y20800800D02*
Y20877000D01*
X33121600Y20800800D02*
Y20877000D01*
X34537700Y16262700D02*
Y16337300D01*
X34624800*
Y16262700*
X34537700*
X34624800*
X34537700Y16288100D02*
X34624800D01*
X34537700Y16313500D02*
X34624800D01*
X34544000Y16262700D02*
Y16337300D01*
X34569400Y16262700D02*
Y16337300D01*
X34594800Y16262700D02*
Y16337300D01*
X34620200Y16262700D02*
Y16337300D01*
X34763500Y16173000D02*
Y16249200D01*
X34827000*
Y16173000*
X34763500*
X34827000*
X34763500Y16198400D02*
X34827000D01*
X34763500Y16223800D02*
X34827000D01*
X34763500Y16249200D02*
X34827000D01*
X34772600Y16173000D02*
Y16249200D01*
X34798000Y16173000D02*
Y16249200D01*
X34823400Y16173000D02*
Y16249200D01*
X34763500Y16350800D02*
Y16427000D01*
X34827000*
Y16350800*
X34763500*
X34827000*
X34763500Y16376200D02*
X34827000D01*
X34763500Y16401600D02*
X34827000D01*
X34763500Y16427000D02*
X34827000D01*
X34772600Y16350800D02*
Y16427000D01*
X34798000Y16350800D02*
Y16427000D01*
X34823400Y16350800D02*
Y16427000D01*
X34537700Y20712700D02*
Y20787300D01*
X34624800*
Y20712700*
X34537700*
X34624800*
X34537700Y20738100D02*
X34624800D01*
X34537700Y20763500D02*
X34624800D01*
X34544000Y20712700D02*
Y20787300D01*
X34569400Y20712700D02*
Y20787300D01*
X34594800Y20712700D02*
Y20787300D01*
X34620200Y20712700D02*
Y20787300D01*
X34763500Y20623000D02*
Y20699200D01*
X34827000*
Y20623000*
X34763500*
X34827000*
X34763500Y20648400D02*
X34827000D01*
X34763500Y20673800D02*
X34827000D01*
X34763500Y20699200D02*
X34827000D01*
X34772600Y20623000D02*
Y20699200D01*
X34798000Y20623000D02*
Y20699200D01*
X34823400Y20623000D02*
Y20699200D01*
X34763500Y20800800D02*
Y20877000D01*
X34827000*
Y20800800*
X34763500*
X34827000*
X34763500Y20826200D02*
X34827000D01*
X34763500Y20851600D02*
X34827000D01*
X34763500Y20877000D02*
X34827000D01*
X34772600Y20800800D02*
Y20877000D01*
X34798000Y20800800D02*
Y20877000D01*
X34823400Y20800800D02*
Y20877000D01*
X36237700Y16262700D02*
Y16337300D01*
X36324800*
Y16262700*
X36237700*
X36324800*
X36237700Y16288100D02*
X36324800D01*
X36237700Y16313500D02*
X36324800D01*
X36245800Y16262700D02*
Y16337300D01*
X36271200Y16262700D02*
Y16337300D01*
X36296600Y16262700D02*
Y16337300D01*
X36322000Y16262700D02*
Y16337300D01*
X36463500Y16173000D02*
Y16249200D01*
X36527000*
Y16173000*
X36463500*
X36527000*
X36463500Y16198400D02*
X36527000D01*
X36463500Y16223800D02*
X36527000D01*
X36463500Y16249200D02*
X36527000D01*
X36474400Y16173000D02*
Y16249200D01*
X36499800Y16173000D02*
Y16249200D01*
X36525200Y16173000D02*
Y16249200D01*
X36463500Y16350800D02*
Y16427000D01*
X36527000*
Y16350800*
X36463500*
X36527000*
X36463500Y16376200D02*
X36527000D01*
X36463500Y16401600D02*
X36527000D01*
X36463500Y16427000D02*
X36527000D01*
X36474400Y16350800D02*
Y16427000D01*
X36499800Y16350800D02*
Y16427000D01*
X36525200Y16350800D02*
Y16427000D01*
X36237700Y20712700D02*
Y20787300D01*
X36324800*
Y20712700*
X36237700*
X36324800*
X36237700Y20738100D02*
X36324800D01*
X36237700Y20763500D02*
X36324800D01*
X36245800Y20712700D02*
Y20787300D01*
X36271200Y20712700D02*
Y20787300D01*
X36296600Y20712700D02*
Y20787300D01*
X36322000Y20712700D02*
Y20787300D01*
X36463500Y20623000D02*
Y20699200D01*
X36527000*
Y20623000*
X36463500*
X36527000*
X36463500Y20648400D02*
X36527000D01*
X36463500Y20673800D02*
X36527000D01*
X36463500Y20699200D02*
X36527000D01*
X36474400Y20623000D02*
Y20699200D01*
X36499800Y20623000D02*
Y20699200D01*
X36525200Y20623000D02*
Y20699200D01*
X36463500Y20800800D02*
Y20877000D01*
X36527000*
Y20800800*
X36463500*
X36527000*
X36463500Y20826200D02*
X36527000D01*
X36463500Y20851600D02*
X36527000D01*
X36463500Y20877000D02*
X36527000D01*
X36474400Y20800800D02*
Y20877000D01*
X36499800Y20800800D02*
Y20877000D01*
X36525200Y20800800D02*
Y20877000D01*
X37937700Y16262700D02*
Y16337300D01*
X38024800*
Y16262700*
X37937700*
X38024800*
X37937700Y16288100D02*
X38024800D01*
X37937700Y16313500D02*
X38024800D01*
X37947600Y16262700D02*
Y16337300D01*
X37973000Y16262700D02*
Y16337300D01*
X37998400Y16262700D02*
Y16337300D01*
X38023800Y16262700D02*
Y16337300D01*
X38163500Y16173000D02*
Y16249200D01*
X38227000*
Y16173000*
X38163500*
X38227000*
X38163500Y16198400D02*
X38227000D01*
X38163500Y16223800D02*
X38227000D01*
X38163500Y16249200D02*
X38227000D01*
X38176200Y16173000D02*
Y16249200D01*
X38201600Y16173000D02*
Y16249200D01*
X38227000Y16173000D02*
Y16249200D01*
X38163500Y16350800D02*
Y16427000D01*
X38227000*
Y16350800*
X38163500*
X38227000*
X38163500Y16376200D02*
X38227000D01*
X38163500Y16401600D02*
X38227000D01*
X38163500Y16427000D02*
X38227000D01*
X38176200Y16350800D02*
Y16427000D01*
X38201600Y16350800D02*
Y16427000D01*
X38227000Y16350800D02*
Y16427000D01*
X37937700Y20712700D02*
Y20787300D01*
X38024800*
Y20712700*
X37937700*
X38024800*
X37937700Y20738100D02*
X38024800D01*
X37937700Y20763500D02*
X38024800D01*
X37947600Y20712700D02*
Y20787300D01*
X37973000Y20712700D02*
Y20787300D01*
X37998400Y20712700D02*
Y20787300D01*
X38023800Y20712700D02*
Y20787300D01*
X38163500Y20623000D02*
Y20699200D01*
X38227000*
Y20623000*
X38163500*
X38227000*
X38163500Y20648400D02*
X38227000D01*
X38163500Y20673800D02*
X38227000D01*
X38163500Y20699200D02*
X38227000D01*
X38176200Y20623000D02*
Y20699200D01*
X38201600Y20623000D02*
Y20699200D01*
X38227000Y20623000D02*
Y20699200D01*
X38163500Y20800800D02*
Y20877000D01*
X38227000*
Y20800800*
X38163500*
X38227000*
X38163500Y20826200D02*
X38227000D01*
X38163500Y20851600D02*
X38227000D01*
X38163500Y20877000D02*
X38227000D01*
X38176200Y20800800D02*
Y20877000D01*
X38201600Y20800800D02*
Y20877000D01*
X38227000Y20800800D02*
Y20877000D01*
X26037700Y20712700D02*
Y20787300D01*
X26124800*
Y20712700*
X26037700*
X26124800*
X26037700Y20738100D02*
X26124800D01*
X26037700Y20763500D02*
X26124800D01*
X26060400Y20712700D02*
Y20787300D01*
X26085800Y20712700D02*
Y20787300D01*
X26111200Y20712700D02*
Y20787300D01*
X26263500Y20623000D02*
Y20699200D01*
X26327000*
Y20623000*
X26263500*
X26327000*
X26263500Y20648400D02*
X26327000D01*
X26263500Y20673800D02*
X26327000D01*
X26263500Y20699200D02*
X26327000D01*
X26263600Y20623000D02*
Y20699200D01*
X26289000Y20623000D02*
Y20699200D01*
X26314400Y20623000D02*
Y20699200D01*
X26263500Y20800800D02*
Y20877000D01*
X26327000*
Y20800800*
X26263500*
X26327000*
X26263500Y20826200D02*
X26327000D01*
X26263500Y20851600D02*
X26327000D01*
X26263500Y20877000D02*
X26327000D01*
X26263600Y20800800D02*
Y20877000D01*
X26289000Y20800800D02*
Y20877000D01*
X26314400Y20800800D02*
Y20877000D01*
X27737700Y16262700D02*
Y16337300D01*
X27824800*
Y16262700*
X27737700*
X27824800*
X27737700Y16288100D02*
X27824800D01*
X27737700Y16313500D02*
X27824800D01*
X27762200Y16262700D02*
Y16337300D01*
X27787600Y16262700D02*
Y16337300D01*
X27813000Y16262700D02*
Y16337300D01*
X27963500Y16173000D02*
Y16249200D01*
X28027000*
Y16173000*
X27963500*
X28027000*
X27963500Y16198400D02*
X28027000D01*
X27963500Y16223800D02*
X28027000D01*
X27963500Y16249200D02*
X28027000D01*
X27965400Y16173000D02*
Y16249200D01*
X27990800Y16173000D02*
Y16249200D01*
X28016200Y16173000D02*
Y16249200D01*
X27963500Y16350800D02*
Y16427000D01*
X28027000*
Y16350800*
X27963500*
X28027000*
X27963500Y16376200D02*
X28027000D01*
X27963500Y16401600D02*
X28027000D01*
X27963500Y16427000D02*
X28027000D01*
X27965400Y16350800D02*
Y16427000D01*
X27990800Y16350800D02*
Y16427000D01*
X28016200Y16350800D02*
Y16427000D01*
X27737700Y20712700D02*
Y20787300D01*
X27824800*
Y20712700*
X27737700*
X27824800*
X27737700Y20738100D02*
X27824800D01*
X27737700Y20763500D02*
X27824800D01*
X27762200Y20712700D02*
Y20787300D01*
X27787600Y20712700D02*
Y20787300D01*
X27813000Y20712700D02*
Y20787300D01*
X27963500Y20623000D02*
Y20699200D01*
X28027000*
Y20623000*
X27963500*
X28027000*
X27963500Y20648400D02*
X28027000D01*
X27963500Y20673800D02*
X28027000D01*
X27963500Y20699200D02*
X28027000D01*
X27965400Y20623000D02*
Y20699200D01*
X27990800Y20623000D02*
Y20699200D01*
X28016200Y20623000D02*
Y20699200D01*
X27963500Y20800800D02*
Y20877000D01*
X28027000*
Y20800800*
X27963500*
X28027000*
X27963500Y20826200D02*
X28027000D01*
X27963500Y20851600D02*
X28027000D01*
X27963500Y20877000D02*
X28027000D01*
X27965400Y20800800D02*
Y20877000D01*
X27990800Y20800800D02*
Y20877000D01*
X28016200Y20800800D02*
Y20877000D01*
X29437700Y16262700D02*
Y16337300D01*
X29524800*
Y16262700*
X29437700*
X29524800*
X29437700Y16288100D02*
X29524800D01*
X29437700Y16313500D02*
X29524800D01*
X29438600Y16262700D02*
Y16337300D01*
X29464000Y16262700D02*
Y16337300D01*
X29489400Y16262700D02*
Y16337300D01*
X29514800Y16262700D02*
Y16337300D01*
X29663500Y16173000D02*
Y16249200D01*
X29727000*
Y16173000*
X29663500*
X29727000*
X29663500Y16198400D02*
X29727000D01*
X29663500Y16223800D02*
X29727000D01*
X29663500Y16249200D02*
X29727000D01*
X29667200Y16173000D02*
Y16249200D01*
X29692600Y16173000D02*
Y16249200D01*
X29718000Y16173000D02*
Y16249200D01*
X29663500Y16350800D02*
Y16427000D01*
X29727000*
Y16350800*
X29663500*
X29727000*
X29663500Y16376200D02*
X29727000D01*
X29663500Y16401600D02*
X29727000D01*
X29663500Y16427000D02*
X29727000D01*
X29667200Y16350800D02*
Y16427000D01*
X29692600Y16350800D02*
Y16427000D01*
X29718000Y16350800D02*
Y16427000D01*
X29437700Y20712700D02*
Y20787300D01*
X29524800*
Y20712700*
X29437700*
X29524800*
X29437700Y20738100D02*
X29524800D01*
X29437700Y20763500D02*
X29524800D01*
X29438600Y20712700D02*
Y20787300D01*
X29464000Y20712700D02*
Y20787300D01*
X29489400Y20712700D02*
Y20787300D01*
X29514800Y20712700D02*
Y20787300D01*
X29663500Y20623000D02*
Y20699200D01*
X29727000*
Y20623000*
X29663500*
X29727000*
X29663500Y20648400D02*
X29727000D01*
X29663500Y20673800D02*
X29727000D01*
X29663500Y20699200D02*
X29727000D01*
X29667200Y20623000D02*
Y20699200D01*
X29692600Y20623000D02*
Y20699200D01*
X29718000Y20623000D02*
Y20699200D01*
X29663500Y20800800D02*
Y20877000D01*
X29727000*
Y20800800*
X29663500*
X29727000*
X29663500Y20826200D02*
X29727000D01*
X29663500Y20851600D02*
X29727000D01*
X29663500Y20877000D02*
X29727000D01*
X29667200Y20800800D02*
Y20877000D01*
X29692600Y20800800D02*
Y20877000D01*
X29718000Y20800800D02*
Y20877000D01*
X31137700Y16262700D02*
Y16337300D01*
X31224800*
Y16262700*
X31137700*
X31224800*
X31137700Y16288100D02*
X31224800D01*
X31137700Y16313500D02*
X31224800D01*
X31140400Y16262700D02*
Y16337300D01*
X31165800Y16262700D02*
Y16337300D01*
X31191200Y16262700D02*
Y16337300D01*
X31216600Y16262700D02*
Y16337300D01*
X31363500Y16173000D02*
Y16249200D01*
X31427000*
Y16173000*
X31363500*
X31427000*
X31363500Y16198400D02*
X31427000D01*
X31363500Y16223800D02*
X31427000D01*
X31363500Y16249200D02*
X31427000D01*
X31369000Y16173000D02*
Y16249200D01*
X31394400Y16173000D02*
Y16249200D01*
X31419800Y16173000D02*
Y16249200D01*
X31363500Y16350800D02*
Y16427000D01*
X31427000*
Y16350800*
X31363500*
X31427000*
X31363500Y16376200D02*
X31427000D01*
X31363500Y16401600D02*
X31427000D01*
X31363500Y16427000D02*
X31427000D01*
X31369000Y16350800D02*
Y16427000D01*
X31394400Y16350800D02*
Y16427000D01*
X31419800Y16350800D02*
Y16427000D01*
X31137700Y20712700D02*
Y20787300D01*
X31224800*
Y20712700*
X31137700*
X31224800*
X31137700Y20738100D02*
X31224800D01*
X31137700Y20763500D02*
X31224800D01*
X31140400Y20712700D02*
Y20787300D01*
X31165800Y20712700D02*
Y20787300D01*
X31191200Y20712700D02*
Y20787300D01*
X31216600Y20712700D02*
Y20787300D01*
X31363500Y20623000D02*
Y20699200D01*
X31427000*
Y20623000*
X31363500*
X31427000*
X31363500Y20648400D02*
X31427000D01*
X31363500Y20673800D02*
X31427000D01*
X31363500Y20699200D02*
X31427000D01*
X31369000Y20623000D02*
Y20699200D01*
X31394400Y20623000D02*
Y20699200D01*
X31419800Y20623000D02*
Y20699200D01*
X31363500Y20800800D02*
Y20877000D01*
X31427000*
Y20800800*
X31363500*
X31427000*
X31363500Y20826200D02*
X31427000D01*
X31363500Y20851600D02*
X31427000D01*
X31363500Y20877000D02*
X31427000D01*
X31369000Y20800800D02*
Y20877000D01*
X31394400Y20800800D02*
Y20877000D01*
X31419800Y20800800D02*
Y20877000D01*
X32837700Y16262700D02*
Y16337300D01*
X32924800*
Y16262700*
X32837700*
X32924800*
X32837700Y16288100D02*
X32924800D01*
X32837700Y16313500D02*
X32924800D01*
X32842200Y16262700D02*
Y16337300D01*
X32867600Y16262700D02*
Y16337300D01*
X32893000Y16262700D02*
Y16337300D01*
X32918400Y16262700D02*
Y16337300D01*
X33063500Y16173000D02*
Y16249200D01*
X33127000*
Y16173000*
X33063500*
X33127000*
X33063500Y16198400D02*
X33127000D01*
X33063500Y16223800D02*
X33127000D01*
X33063500Y16249200D02*
X33127000D01*
X33070800Y16173000D02*
Y16249200D01*
X33096200Y16173000D02*
Y16249200D01*
X33121600Y16173000D02*
Y16249200D01*
X33063500Y16350800D02*
Y16427000D01*
X33127000*
Y16350800*
X33063500*
X33127000*
X33063500Y16376200D02*
X33127000D01*
X33063500Y16401600D02*
X33127000D01*
X33063500Y16427000D02*
X33127000D01*
X33070800Y16350800D02*
Y16427000D01*
X33096200Y16350800D02*
Y16427000D01*
X33121600Y16350800D02*
Y16427000D01*
X26325200Y16650200D02*
Y16787300D01*
X26474800*
Y16650200*
X26325200*
X26474800*
X26325200Y16675600D02*
X26474800D01*
X26325200Y16701000D02*
X26474800D01*
X26325200Y16726400D02*
X26474800D01*
X26325200Y16751800D02*
X26474800D01*
X26325200Y16777200D02*
X26474800D01*
X26339800Y16650200D02*
Y16787300D01*
X26365200Y16650200D02*
Y16787300D01*
X26390600Y16650200D02*
Y16787300D01*
X26416000Y16650200D02*
Y16787300D01*
X26441400Y16650200D02*
Y16787300D01*
X26466800Y16650200D02*
Y16787300D01*
X26325200Y16912700D02*
Y17062300D01*
X26474800*
Y16912700*
X26325200*
X26474800*
X26325200Y16938100D02*
X26474800D01*
X26325200Y16963500D02*
X26474800D01*
X26325200Y16988900D02*
X26474800D01*
X26325200Y17014300D02*
X26474800D01*
X26325200Y17039700D02*
X26474800D01*
X26339800Y16912700D02*
Y17062300D01*
X26365200Y16912700D02*
Y17062300D01*
X26390600Y16912700D02*
Y17062300D01*
X26416000Y16912700D02*
Y17062300D01*
X26441400Y16912700D02*
Y17062300D01*
X26466800Y16912700D02*
Y17062300D01*
X27787300Y21237300D02*
Y21162700D01*
X27712700*
Y21237300*
X27787300*
X27712700Y21162700D02*
X27787300D01*
X27712700Y21188100D02*
X27787300D01*
X27712700Y21213500D02*
X27787300D01*
X27736800Y21162700D02*
Y21237300D01*
X27762200Y21162700D02*
Y21237300D01*
X27787300Y21437300D02*
Y21362700D01*
X27712700*
Y21437300*
X27787300*
X27712700Y21362700D02*
X27787300D01*
X27712700Y21388100D02*
X27787300D01*
X27712700Y21413500D02*
X27787300D01*
X27736800Y21362700D02*
Y21437300D01*
X27762200Y21362700D02*
Y21437300D01*
X27837300Y15912700D02*
X27762700D01*
Y15987300*
X27837300*
Y15912700*
X27762700D02*
X27837300D01*
X27762700Y15938100D02*
X27837300D01*
X27762700Y15963500D02*
X27837300D01*
X27787600Y15912700D02*
Y15987300D01*
X27813000Y15912700D02*
Y15987300D01*
X28037300Y15912700D02*
X27962700D01*
Y15987300*
X28037300*
Y15912700*
X27962700D02*
X28037300D01*
X27962700Y15938100D02*
X28037300D01*
X27962700Y15963500D02*
X28037300D01*
X27965400Y15912700D02*
Y15987300D01*
X27990800Y15912700D02*
Y15987300D01*
X28016200Y15912700D02*
Y15987300D01*
X27837300Y20362700D02*
X27762700D01*
Y20437300*
X27837300*
Y20362700*
X27762700D02*
X27837300D01*
X27762700Y20388100D02*
X27837300D01*
X27762700Y20413500D02*
X27837300D01*
X27787600Y20362700D02*
Y20437300D01*
X27813000Y20362700D02*
Y20437300D01*
X28037300Y20362700D02*
X27962700D01*
Y20437300*
X28037300*
Y20362700*
X27962700D02*
X28037300D01*
X27962700Y20388100D02*
X28037300D01*
X27962700Y20413500D02*
X28037300D01*
X27965400Y20362700D02*
Y20437300D01*
X27990800Y20362700D02*
Y20437300D01*
X28016200Y20362700D02*
Y20437300D01*
X29725200Y16650200D02*
Y16787300D01*
X29874800*
Y16650200*
X29725200*
X29874800*
X29725200Y16675600D02*
X29874800D01*
X29725200Y16701000D02*
X29874800D01*
X29725200Y16726400D02*
X29874800D01*
X29725200Y16751800D02*
X29874800D01*
X29725200Y16777200D02*
X29874800D01*
X29743400Y16650200D02*
Y16787300D01*
X29768800Y16650200D02*
Y16787300D01*
X29794200Y16650200D02*
Y16787300D01*
X29819600Y16650200D02*
Y16787300D01*
X29845000Y16650200D02*
Y16787300D01*
X29870400Y16650200D02*
Y16787300D01*
X29725200Y16912700D02*
Y17062300D01*
X29874800*
Y16912700*
X29725200*
X29874800*
X29725200Y16938100D02*
X29874800D01*
X29725200Y16963500D02*
X29874800D01*
X29725200Y16988900D02*
X29874800D01*
X29725200Y17014300D02*
X29874800D01*
X29725200Y17039700D02*
X29874800D01*
X29743400Y16912700D02*
Y17062300D01*
X29768800Y16912700D02*
Y17062300D01*
X29794200Y16912700D02*
Y17062300D01*
X29819600Y16912700D02*
Y17062300D01*
X29845000Y16912700D02*
Y17062300D01*
X29870400Y16912700D02*
Y17062300D01*
X29725200Y21100200D02*
Y21237300D01*
X29874800*
Y21100200*
X29725200*
X29874800*
X29725200Y21125600D02*
X29874800D01*
X29725200Y21151000D02*
X29874800D01*
X29725200Y21176400D02*
X29874800D01*
X29725200Y21201800D02*
X29874800D01*
X29725200Y21227200D02*
X29874800D01*
X29743400Y21100200D02*
Y21237300D01*
X29768800Y21100200D02*
Y21237300D01*
X29794200Y21100200D02*
Y21237300D01*
X29819600Y21100200D02*
Y21237300D01*
X29845000Y21100200D02*
Y21237300D01*
X29870400Y21100200D02*
Y21237300D01*
X29725200Y21362700D02*
Y21512300D01*
X29874800*
Y21362700*
X29725200*
X29874800*
X29725200Y21388100D02*
X29874800D01*
X29725200Y21413500D02*
X29874800D01*
X29725200Y21438900D02*
X29874800D01*
X29725200Y21464300D02*
X29874800D01*
X29725200Y21489700D02*
X29874800D01*
X29743400Y21362700D02*
Y21512300D01*
X29768800Y21362700D02*
Y21512300D01*
X29794200Y21362700D02*
Y21512300D01*
X29819600Y21362700D02*
Y21512300D01*
X29845000Y21362700D02*
Y21512300D01*
X29870400Y21362700D02*
Y21512300D01*
X29487300Y16787300D02*
Y16712700D01*
X29412700*
Y16787300*
X29487300*
X29412700Y16712700D02*
X29487300D01*
X29412700Y16738100D02*
X29487300D01*
X29412700Y16763500D02*
X29487300D01*
X29413200Y16712700D02*
Y16787300D01*
X29438600Y16712700D02*
Y16787300D01*
X29464000Y16712700D02*
Y16787300D01*
X29487300Y16987300D02*
Y16912700D01*
X29412700*
Y16987300*
X29487300*
X29412700Y16912700D02*
X29487300D01*
X29412700Y16938100D02*
X29487300D01*
X29412700Y16963500D02*
X29487300D01*
X29413200Y16912700D02*
Y16987300D01*
X29438600Y16912700D02*
Y16987300D01*
X29464000Y16912700D02*
Y16987300D01*
X29487300Y21237300D02*
Y21162700D01*
X29412700*
Y21237300*
X29487300*
X29412700Y21162700D02*
X29487300D01*
X29412700Y21188100D02*
X29487300D01*
X29412700Y21213500D02*
X29487300D01*
X29413200Y21162700D02*
Y21237300D01*
X29438600Y21162700D02*
Y21237300D01*
X29464000Y21162700D02*
Y21237300D01*
X29487300Y21437300D02*
Y21362700D01*
X29412700*
Y21437300*
X29487300*
X29412700Y21362700D02*
X29487300D01*
X29412700Y21388100D02*
X29487300D01*
X29412700Y21413500D02*
X29487300D01*
X29413200Y21362700D02*
Y21437300D01*
X29438600Y21362700D02*
Y21437300D01*
X29464000Y21362700D02*
Y21437300D01*
X29537300Y15912700D02*
X29462700D01*
Y15987300*
X29537300*
Y15912700*
X29462700D02*
X29537300D01*
X29462700Y15938100D02*
X29537300D01*
X29462700Y15963500D02*
X29537300D01*
X29464000Y15912700D02*
Y15987300D01*
X29489400Y15912700D02*
Y15987300D01*
X29514800Y15912700D02*
Y15987300D01*
X29737300Y15912700D02*
X29662700D01*
Y15987300*
X29737300*
Y15912700*
X29662700D02*
X29737300D01*
X29662700Y15938100D02*
X29737300D01*
X29662700Y15963500D02*
X29737300D01*
X29667200Y15912700D02*
Y15987300D01*
X29692600Y15912700D02*
Y15987300D01*
X29718000Y15912700D02*
Y15987300D01*
X29537300Y20362700D02*
X29462700D01*
Y20437300*
X29537300*
Y20362700*
X29462700D02*
X29537300D01*
X29462700Y20388100D02*
X29537300D01*
X29462700Y20413500D02*
X29537300D01*
X29464000Y20362700D02*
Y20437300D01*
X29489400Y20362700D02*
Y20437300D01*
X29514800Y20362700D02*
Y20437300D01*
X29737300Y20362700D02*
X29662700D01*
Y20437300*
X29737300*
Y20362700*
X29662700D02*
X29737300D01*
X29662700Y20388100D02*
X29737300D01*
X29662700Y20413500D02*
X29737300D01*
X29667200Y20362700D02*
Y20437300D01*
X29692600Y20362700D02*
Y20437300D01*
X29718000Y20362700D02*
Y20437300D01*
X31425200Y16650200D02*
Y16787300D01*
X31574800*
Y16650200*
X31425200*
X31574800*
X31425200Y16675600D02*
X31574800D01*
X31425200Y16701000D02*
X31574800D01*
X31425200Y16726400D02*
X31574800D01*
X31425200Y16751800D02*
X31574800D01*
X31425200Y16777200D02*
X31574800D01*
X31445200Y16650200D02*
Y16787300D01*
X31470600Y16650200D02*
Y16787300D01*
X31496000Y16650200D02*
Y16787300D01*
X31521400Y16650200D02*
Y16787300D01*
X31546800Y16650200D02*
Y16787300D01*
X31572200Y16650200D02*
Y16787300D01*
X31425200Y16912700D02*
Y17062300D01*
X31574800*
Y16912700*
X31425200*
X31574800*
X31425200Y16938100D02*
X31574800D01*
X31425200Y16963500D02*
X31574800D01*
X31425200Y16988900D02*
X31574800D01*
X31425200Y17014300D02*
X31574800D01*
X31425200Y17039700D02*
X31574800D01*
X31445200Y16912700D02*
Y17062300D01*
X31470600Y16912700D02*
Y17062300D01*
X31496000Y16912700D02*
Y17062300D01*
X31521400Y16912700D02*
Y17062300D01*
X31546800Y16912700D02*
Y17062300D01*
X31572200Y16912700D02*
Y17062300D01*
X26325200Y21100200D02*
Y21237300D01*
X26474800*
Y21100200*
X26325200*
X26474800*
X26325200Y21125600D02*
X26474800D01*
X26325200Y21151000D02*
X26474800D01*
X26325200Y21176400D02*
X26474800D01*
X26325200Y21201800D02*
X26474800D01*
X26325200Y21227200D02*
X26474800D01*
X26339800Y21100200D02*
Y21237300D01*
X26365200Y21100200D02*
Y21237300D01*
X26390600Y21100200D02*
Y21237300D01*
X26416000Y21100200D02*
Y21237300D01*
X26441400Y21100200D02*
Y21237300D01*
X26466800Y21100200D02*
Y21237300D01*
X26325200Y21362700D02*
Y21512300D01*
X26474800*
Y21362700*
X26325200*
X26474800*
X26325200Y21388100D02*
X26474800D01*
X26325200Y21413500D02*
X26474800D01*
X26325200Y21438900D02*
X26474800D01*
X26325200Y21464300D02*
X26474800D01*
X26325200Y21489700D02*
X26474800D01*
X26339800Y21362700D02*
Y21512300D01*
X26365200Y21362700D02*
Y21512300D01*
X26390600Y21362700D02*
Y21512300D01*
X26416000Y21362700D02*
Y21512300D01*
X26441400Y21362700D02*
Y21512300D01*
X26466800Y21362700D02*
Y21512300D01*
X31425200Y21100200D02*
Y21237300D01*
X31574800*
Y21100200*
X31425200*
X31574800*
X31425200Y21125600D02*
X31574800D01*
X31425200Y21151000D02*
X31574800D01*
X31425200Y21176400D02*
X31574800D01*
X31425200Y21201800D02*
X31574800D01*
X31425200Y21227200D02*
X31574800D01*
X31445200Y21100200D02*
Y21237300D01*
X31470600Y21100200D02*
Y21237300D01*
X31496000Y21100200D02*
Y21237300D01*
X31521400Y21100200D02*
Y21237300D01*
X31546800Y21100200D02*
Y21237300D01*
X31572200Y21100200D02*
Y21237300D01*
X31425200Y21362700D02*
Y21512300D01*
X31574800*
Y21362700*
X31425200*
X31574800*
X31425200Y21388100D02*
X31574800D01*
X31425200Y21413500D02*
X31574800D01*
X31425200Y21438900D02*
X31574800D01*
X31425200Y21464300D02*
X31574800D01*
X31425200Y21489700D02*
X31574800D01*
X31445200Y21362700D02*
Y21512300D01*
X31470600Y21362700D02*
Y21512300D01*
X31496000Y21362700D02*
Y21512300D01*
X31521400Y21362700D02*
Y21512300D01*
X31546800Y21362700D02*
Y21512300D01*
X31572200Y21362700D02*
Y21512300D01*
X31187300Y16787300D02*
Y16712700D01*
X31112700*
Y16787300*
X31187300*
X31112700Y16712700D02*
X31187300D01*
X31112700Y16738100D02*
X31187300D01*
X31112700Y16763500D02*
X31187300D01*
X31115000Y16712700D02*
Y16787300D01*
X31140400Y16712700D02*
Y16787300D01*
X31165800Y16712700D02*
Y16787300D01*
X31187300Y16987300D02*
Y16912700D01*
X31112700*
Y16987300*
X31187300*
X31112700Y16912700D02*
X31187300D01*
X31112700Y16938100D02*
X31187300D01*
X31112700Y16963500D02*
X31187300D01*
X31115000Y16912700D02*
Y16987300D01*
X31140400Y16912700D02*
Y16987300D01*
X31165800Y16912700D02*
Y16987300D01*
X31187300Y21237300D02*
Y21162700D01*
X31112700*
Y21237300*
X31187300*
X31112700Y21162700D02*
X31187300D01*
X31112700Y21188100D02*
X31187300D01*
X31112700Y21213500D02*
X31187300D01*
X31115000Y21162700D02*
Y21237300D01*
X31140400Y21162700D02*
Y21237300D01*
X31165800Y21162700D02*
Y21237300D01*
X31187300Y21437300D02*
Y21362700D01*
X31112700*
Y21437300*
X31187300*
X31112700Y21362700D02*
X31187300D01*
X31112700Y21388100D02*
X31187300D01*
X31112700Y21413500D02*
X31187300D01*
X31115000Y21362700D02*
Y21437300D01*
X31140400Y21362700D02*
Y21437300D01*
X31165800Y21362700D02*
Y21437300D01*
X31237300Y15912700D02*
X31162700D01*
Y15987300*
X31237300*
Y15912700*
X31162700D02*
X31237300D01*
X31162700Y15938100D02*
X31237300D01*
X31162700Y15963500D02*
X31237300D01*
X31165800Y15912700D02*
Y15987300D01*
X31191200Y15912700D02*
Y15987300D01*
X31216600Y15912700D02*
Y15987300D01*
X31437300Y15912700D02*
X31362700D01*
Y15987300*
X31437300*
Y15912700*
X31362700D02*
X31437300D01*
X31362700Y15938100D02*
X31437300D01*
X31362700Y15963500D02*
X31437300D01*
X31369000Y15912700D02*
Y15987300D01*
X31394400Y15912700D02*
Y15987300D01*
X31419800Y15912700D02*
Y15987300D01*
X31237300Y20362700D02*
X31162700D01*
Y20437300*
X31237300*
Y20362700*
X31162700D02*
X31237300D01*
X31162700Y20388100D02*
X31237300D01*
X31162700Y20413500D02*
X31237300D01*
X31165800Y20362700D02*
Y20437300D01*
X31191200Y20362700D02*
Y20437300D01*
X31216600Y20362700D02*
Y20437300D01*
X31437300Y20362700D02*
X31362700D01*
Y20437300*
X31437300*
Y20362700*
X31362700D02*
X31437300D01*
X31362700Y20388100D02*
X31437300D01*
X31362700Y20413500D02*
X31437300D01*
X31369000Y20362700D02*
Y20437300D01*
X31394400Y20362700D02*
Y20437300D01*
X31419800Y20362700D02*
Y20437300D01*
X33125200Y16650200D02*
Y16787300D01*
X33274800*
Y16650200*
X33125200*
X33274800*
X33125200Y16675600D02*
X33274800D01*
X33125200Y16701000D02*
X33274800D01*
X33125200Y16726400D02*
X33274800D01*
X33125200Y16751800D02*
X33274800D01*
X33125200Y16777200D02*
X33274800D01*
X33147000Y16650200D02*
Y16787300D01*
X33172400Y16650200D02*
Y16787300D01*
X33197800Y16650200D02*
Y16787300D01*
X33223200Y16650200D02*
Y16787300D01*
X33248600Y16650200D02*
Y16787300D01*
X33274000Y16650200D02*
Y16787300D01*
X33125200Y16912700D02*
Y17062300D01*
X33274800*
Y16912700*
X33125200*
X33274800*
X33125200Y16938100D02*
X33274800D01*
X33125200Y16963500D02*
X33274800D01*
X33125200Y16988900D02*
X33274800D01*
X33125200Y17014300D02*
X33274800D01*
X33125200Y17039700D02*
X33274800D01*
X33147000Y16912700D02*
Y17062300D01*
X33172400Y16912700D02*
Y17062300D01*
X33197800Y16912700D02*
Y17062300D01*
X33223200Y16912700D02*
Y17062300D01*
X33248600Y16912700D02*
Y17062300D01*
X33274000Y16912700D02*
Y17062300D01*
X33125200Y21100200D02*
Y21237300D01*
X33274800*
Y21100200*
X33125200*
X33274800*
X33125200Y21125600D02*
X33274800D01*
X33125200Y21151000D02*
X33274800D01*
X33125200Y21176400D02*
X33274800D01*
X33125200Y21201800D02*
X33274800D01*
X33125200Y21227200D02*
X33274800D01*
X33147000Y21100200D02*
Y21237300D01*
X33172400Y21100200D02*
Y21237300D01*
X33197800Y21100200D02*
Y21237300D01*
X33223200Y21100200D02*
Y21237300D01*
X33248600Y21100200D02*
Y21237300D01*
X33274000Y21100200D02*
Y21237300D01*
X33125200Y21362700D02*
Y21512300D01*
X33274800*
Y21362700*
X33125200*
X33274800*
X33125200Y21388100D02*
X33274800D01*
X33125200Y21413500D02*
X33274800D01*
X33125200Y21438900D02*
X33274800D01*
X33125200Y21464300D02*
X33274800D01*
X33125200Y21489700D02*
X33274800D01*
X33147000Y21362700D02*
Y21512300D01*
X33172400Y21362700D02*
Y21512300D01*
X33197800Y21362700D02*
Y21512300D01*
X33223200Y21362700D02*
Y21512300D01*
X33248600Y21362700D02*
Y21512300D01*
X33274000Y21362700D02*
Y21512300D01*
X32887300Y16787300D02*
Y16712700D01*
X32812700*
Y16787300*
X32887300*
X32812700Y16712700D02*
X32887300D01*
X32812700Y16738100D02*
X32887300D01*
X32812700Y16763500D02*
X32887300D01*
X32816800Y16712700D02*
Y16787300D01*
X32842200Y16712700D02*
Y16787300D01*
X32867600Y16712700D02*
Y16787300D01*
X32887300Y16987300D02*
Y16912700D01*
X32812700*
Y16987300*
X32887300*
X32812700Y16912700D02*
X32887300D01*
X32812700Y16938100D02*
X32887300D01*
X32812700Y16963500D02*
X32887300D01*
X32816800Y16912700D02*
Y16987300D01*
X32842200Y16912700D02*
Y16987300D01*
X32867600Y16912700D02*
Y16987300D01*
X32887300Y21237300D02*
Y21162700D01*
X32812700*
Y21237300*
X32887300*
X32812700Y21162700D02*
X32887300D01*
X32812700Y21188100D02*
X32887300D01*
X32812700Y21213500D02*
X32887300D01*
X32816800Y21162700D02*
Y21237300D01*
X32842200Y21162700D02*
Y21237300D01*
X32867600Y21162700D02*
Y21237300D01*
X32887300Y21437300D02*
Y21362700D01*
X32812700*
Y21437300*
X32887300*
X32812700Y21362700D02*
X32887300D01*
X32812700Y21388100D02*
X32887300D01*
X32812700Y21413500D02*
X32887300D01*
X32816800Y21362700D02*
Y21437300D01*
X32842200Y21362700D02*
Y21437300D01*
X32867600Y21362700D02*
Y21437300D01*
X32937300Y15912700D02*
X32862700D01*
Y15987300*
X32937300*
Y15912700*
X32862700D02*
X32937300D01*
X32862700Y15938100D02*
X32937300D01*
X32862700Y15963500D02*
X32937300D01*
X32867600Y15912700D02*
Y15987300D01*
X32893000Y15912700D02*
Y15987300D01*
X32918400Y15912700D02*
Y15987300D01*
X33137300Y15912700D02*
X33062700D01*
Y15987300*
X33137300*
Y15912700*
X33062700D02*
X33137300D01*
X33062700Y15938100D02*
X33137300D01*
X33062700Y15963500D02*
X33137300D01*
X33070800Y15912700D02*
Y15987300D01*
X33096200Y15912700D02*
Y15987300D01*
X33121600Y15912700D02*
Y15987300D01*
X26087300Y16787300D02*
Y16712700D01*
X26012700*
Y16787300*
X26087300*
X26012700Y16712700D02*
X26087300D01*
X26012700Y16738100D02*
X26087300D01*
X26012700Y16763500D02*
X26087300D01*
X26035000Y16712700D02*
Y16787300D01*
X26060400Y16712700D02*
Y16787300D01*
X26085800Y16712700D02*
Y16787300D01*
X26087300Y16987300D02*
Y16912700D01*
X26012700*
Y16987300*
X26087300*
X26012700Y16912700D02*
X26087300D01*
X26012700Y16938100D02*
X26087300D01*
X26012700Y16963500D02*
X26087300D01*
X26035000Y16912700D02*
Y16987300D01*
X26060400Y16912700D02*
Y16987300D01*
X26085800Y16912700D02*
Y16987300D01*
X32937300Y20362700D02*
X32862700D01*
Y20437300*
X32937300*
Y20362700*
X32862700D02*
X32937300D01*
X32862700Y20388100D02*
X32937300D01*
X32862700Y20413500D02*
X32937300D01*
X32867600Y20362700D02*
Y20437300D01*
X32893000Y20362700D02*
Y20437300D01*
X32918400Y20362700D02*
Y20437300D01*
X33137300Y20362700D02*
X33062700D01*
Y20437300*
X33137300*
Y20362700*
X33062700D02*
X33137300D01*
X33062700Y20388100D02*
X33137300D01*
X33062700Y20413500D02*
X33137300D01*
X33070800Y20362700D02*
Y20437300D01*
X33096200Y20362700D02*
Y20437300D01*
X33121600Y20362700D02*
Y20437300D01*
X34825200Y16650200D02*
Y16787300D01*
X34974800*
Y16650200*
X34825200*
X34974800*
X34825200Y16675600D02*
X34974800D01*
X34825200Y16701000D02*
X34974800D01*
X34825200Y16726400D02*
X34974800D01*
X34825200Y16751800D02*
X34974800D01*
X34825200Y16777200D02*
X34974800D01*
X34848800Y16650200D02*
Y16787300D01*
X34874200Y16650200D02*
Y16787300D01*
X34899600Y16650200D02*
Y16787300D01*
X34925000Y16650200D02*
Y16787300D01*
X34950400Y16650200D02*
Y16787300D01*
X34825200Y16912700D02*
Y17062300D01*
X34974800*
Y16912700*
X34825200*
X34974800*
X34825200Y16938100D02*
X34974800D01*
X34825200Y16963500D02*
X34974800D01*
X34825200Y16988900D02*
X34974800D01*
X34825200Y17014300D02*
X34974800D01*
X34825200Y17039700D02*
X34974800D01*
X34848800Y16912700D02*
Y17062300D01*
X34874200Y16912700D02*
Y17062300D01*
X34899600Y16912700D02*
Y17062300D01*
X34925000Y16912700D02*
Y17062300D01*
X34950400Y16912700D02*
Y17062300D01*
X34587300Y16787300D02*
Y16712700D01*
X34512700*
Y16787300*
X34587300*
X34512700Y16712700D02*
X34587300D01*
X34512700Y16738100D02*
X34587300D01*
X34512700Y16763500D02*
X34587300D01*
X34518600Y16712700D02*
Y16787300D01*
X34544000Y16712700D02*
Y16787300D01*
X34569400Y16712700D02*
Y16787300D01*
X34587300Y16987300D02*
Y16912700D01*
X34512700*
Y16987300*
X34587300*
X34512700Y16912700D02*
X34587300D01*
X34512700Y16938100D02*
X34587300D01*
X34512700Y16963500D02*
X34587300D01*
X34518600Y16912700D02*
Y16987300D01*
X34544000Y16912700D02*
Y16987300D01*
X34569400Y16912700D02*
Y16987300D01*
X34825200Y21100200D02*
Y21237300D01*
X34974800*
Y21100200*
X34825200*
X34974800*
X34825200Y21125600D02*
X34974800D01*
X34825200Y21151000D02*
X34974800D01*
X34825200Y21176400D02*
X34974800D01*
X34825200Y21201800D02*
X34974800D01*
X34825200Y21227200D02*
X34974800D01*
X34848800Y21100200D02*
Y21237300D01*
X34874200Y21100200D02*
Y21237300D01*
X34899600Y21100200D02*
Y21237300D01*
X34925000Y21100200D02*
Y21237300D01*
X34950400Y21100200D02*
Y21237300D01*
X34825200Y21362700D02*
Y21512300D01*
X34974800*
Y21362700*
X34825200*
X34974800*
X34825200Y21388100D02*
X34974800D01*
X34825200Y21413500D02*
X34974800D01*
X34825200Y21438900D02*
X34974800D01*
X34825200Y21464300D02*
X34974800D01*
X34825200Y21489700D02*
X34974800D01*
X34848800Y21362700D02*
Y21512300D01*
X34874200Y21362700D02*
Y21512300D01*
X34899600Y21362700D02*
Y21512300D01*
X34925000Y21362700D02*
Y21512300D01*
X34950400Y21362700D02*
Y21512300D01*
X34587300Y21237300D02*
Y21162700D01*
X34512700*
Y21237300*
X34587300*
X34512700Y21162700D02*
X34587300D01*
X34512700Y21188100D02*
X34587300D01*
X34512700Y21213500D02*
X34587300D01*
X34518600Y21162700D02*
Y21237300D01*
X34544000Y21162700D02*
Y21237300D01*
X34569400Y21162700D02*
Y21237300D01*
X34587300Y21437300D02*
Y21362700D01*
X34512700*
Y21437300*
X34587300*
X34512700Y21362700D02*
X34587300D01*
X34512700Y21388100D02*
X34587300D01*
X34512700Y21413500D02*
X34587300D01*
X34518600Y21362700D02*
Y21437300D01*
X34544000Y21362700D02*
Y21437300D01*
X34569400Y21362700D02*
Y21437300D01*
X34637300Y15912700D02*
X34562700D01*
Y15987300*
X34637300*
Y15912700*
X34562700D02*
X34637300D01*
X34562700Y15938100D02*
X34637300D01*
X34562700Y15963500D02*
X34637300D01*
X34569400Y15912700D02*
Y15987300D01*
X34594800Y15912700D02*
Y15987300D01*
X34620200Y15912700D02*
Y15987300D01*
X34837300Y15912700D02*
X34762700D01*
Y15987300*
X34837300*
Y15912700*
X34762700D02*
X34837300D01*
X34762700Y15938100D02*
X34837300D01*
X34762700Y15963500D02*
X34837300D01*
X34772600Y15912700D02*
Y15987300D01*
X34798000Y15912700D02*
Y15987300D01*
X34823400Y15912700D02*
Y15987300D01*
X34637300Y20362700D02*
X34562700D01*
Y20437300*
X34637300*
Y20362700*
X34562700D02*
X34637300D01*
X34562700Y20388100D02*
X34637300D01*
X34562700Y20413500D02*
X34637300D01*
X34569400Y20362700D02*
Y20437300D01*
X34594800Y20362700D02*
Y20437300D01*
X34620200Y20362700D02*
Y20437300D01*
X34837300Y20362700D02*
X34762700D01*
Y20437300*
X34837300*
Y20362700*
X34762700D02*
X34837300D01*
X34762700Y20388100D02*
X34837300D01*
X34762700Y20413500D02*
X34837300D01*
X34772600Y20362700D02*
Y20437300D01*
X34798000Y20362700D02*
Y20437300D01*
X34823400Y20362700D02*
Y20437300D01*
X36525200Y16650200D02*
Y16787300D01*
X36674800*
Y16650200*
X36525200*
X36674800*
X36525200Y16675600D02*
X36674800D01*
X36525200Y16701000D02*
X36674800D01*
X36525200Y16726400D02*
X36674800D01*
X36525200Y16751800D02*
X36674800D01*
X36525200Y16777200D02*
X36674800D01*
X36525200Y16650200D02*
Y16787300D01*
X36550600Y16650200D02*
Y16787300D01*
X36576000Y16650200D02*
Y16787300D01*
X36601400Y16650200D02*
Y16787300D01*
X36626800Y16650200D02*
Y16787300D01*
X36652200Y16650200D02*
Y16787300D01*
X36525200Y16912700D02*
Y17062300D01*
X36674800*
Y16912700*
X36525200*
X36674800*
X36525200Y16938100D02*
X36674800D01*
X36525200Y16963500D02*
X36674800D01*
X36525200Y16988900D02*
X36674800D01*
X36525200Y17014300D02*
X36674800D01*
X36525200Y17039700D02*
X36674800D01*
X36525200Y16912700D02*
Y17062300D01*
X36550600Y16912700D02*
Y17062300D01*
X36576000Y16912700D02*
Y17062300D01*
X36601400Y16912700D02*
Y17062300D01*
X36626800Y16912700D02*
Y17062300D01*
X36652200Y16912700D02*
Y17062300D01*
X36525200Y21100200D02*
Y21237300D01*
X36674800*
Y21100200*
X36525200*
X36674800*
X36525200Y21125600D02*
X36674800D01*
X36525200Y21151000D02*
X36674800D01*
X36525200Y21176400D02*
X36674800D01*
X36525200Y21201800D02*
X36674800D01*
X36525200Y21227200D02*
X36674800D01*
X36525200Y21100200D02*
Y21237300D01*
X36550600Y21100200D02*
Y21237300D01*
X36576000Y21100200D02*
Y21237300D01*
X36601400Y21100200D02*
Y21237300D01*
X36626800Y21100200D02*
Y21237300D01*
X36652200Y21100200D02*
Y21237300D01*
X36525200Y21362700D02*
Y21512300D01*
X36674800*
Y21362700*
X36525200*
X36674800*
X36525200Y21388100D02*
X36674800D01*
X36525200Y21413500D02*
X36674800D01*
X36525200Y21438900D02*
X36674800D01*
X36525200Y21464300D02*
X36674800D01*
X36525200Y21489700D02*
X36674800D01*
X36525200Y21362700D02*
Y21512300D01*
X36550600Y21362700D02*
Y21512300D01*
X36576000Y21362700D02*
Y21512300D01*
X36601400Y21362700D02*
Y21512300D01*
X36626800Y21362700D02*
Y21512300D01*
X36652200Y21362700D02*
Y21512300D01*
X36287300Y16787300D02*
Y16712700D01*
X36212700*
Y16787300*
X36287300*
X36212700Y16712700D02*
X36287300D01*
X36212700Y16738100D02*
X36287300D01*
X36212700Y16763500D02*
X36287300D01*
X36220400Y16712700D02*
Y16787300D01*
X36245800Y16712700D02*
Y16787300D01*
X36271200Y16712700D02*
Y16787300D01*
X36287300Y16987300D02*
Y16912700D01*
X36212700*
Y16987300*
X36287300*
X36212700Y16912700D02*
X36287300D01*
X36212700Y16938100D02*
X36287300D01*
X36212700Y16963500D02*
X36287300D01*
X36220400Y16912700D02*
Y16987300D01*
X36245800Y16912700D02*
Y16987300D01*
X36271200Y16912700D02*
Y16987300D01*
X26087300Y21237300D02*
Y21162700D01*
X26012700*
Y21237300*
X26087300*
X26012700Y21162700D02*
X26087300D01*
X26012700Y21188100D02*
X26087300D01*
X26012700Y21213500D02*
X26087300D01*
X26035000Y21162700D02*
Y21237300D01*
X26060400Y21162700D02*
Y21237300D01*
X26085800Y21162700D02*
Y21237300D01*
X26087300Y21437300D02*
Y21362700D01*
X26012700*
Y21437300*
X26087300*
X26012700Y21362700D02*
X26087300D01*
X26012700Y21388100D02*
X26087300D01*
X26012700Y21413500D02*
X26087300D01*
X26035000Y21362700D02*
Y21437300D01*
X26060400Y21362700D02*
Y21437300D01*
X26085800Y21362700D02*
Y21437300D01*
X36287300Y21237300D02*
Y21162700D01*
X36212700*
Y21237300*
X36287300*
X36212700Y21162700D02*
X36287300D01*
X36212700Y21188100D02*
X36287300D01*
X36212700Y21213500D02*
X36287300D01*
X36220400Y21162700D02*
Y21237300D01*
X36245800Y21162700D02*
Y21237300D01*
X36271200Y21162700D02*
Y21237300D01*
X36287300Y21437300D02*
Y21362700D01*
X36212700*
Y21437300*
X36287300*
X36212700Y21362700D02*
X36287300D01*
X36212700Y21388100D02*
X36287300D01*
X36212700Y21413500D02*
X36287300D01*
X36220400Y21362700D02*
Y21437300D01*
X36245800Y21362700D02*
Y21437300D01*
X36271200Y21362700D02*
Y21437300D01*
X36337300Y15912700D02*
X36262700D01*
Y15987300*
X36337300*
Y15912700*
X36262700D02*
X36337300D01*
X36262700Y15938100D02*
X36337300D01*
X36262700Y15963500D02*
X36337300D01*
X36271200Y15912700D02*
Y15987300D01*
X36296600Y15912700D02*
Y15987300D01*
X36322000Y15912700D02*
Y15987300D01*
X36537300Y15912700D02*
X36462700D01*
Y15987300*
X36537300*
Y15912700*
X36462700D02*
X36537300D01*
X36462700Y15938100D02*
X36537300D01*
X36462700Y15963500D02*
X36537300D01*
X36474400Y15912700D02*
Y15987300D01*
X36499800Y15912700D02*
Y15987300D01*
X36525200Y15912700D02*
Y15987300D01*
X36337300Y20362700D02*
X36262700D01*
Y20437300*
X36337300*
Y20362700*
X36262700D02*
X36337300D01*
X36262700Y20388100D02*
X36337300D01*
X36262700Y20413500D02*
X36337300D01*
X36271200Y20362700D02*
Y20437300D01*
X36296600Y20362700D02*
Y20437300D01*
X36322000Y20362700D02*
Y20437300D01*
X36537300Y20362700D02*
X36462700D01*
Y20437300*
X36537300*
Y20362700*
X36462700D02*
X36537300D01*
X36462700Y20388100D02*
X36537300D01*
X36462700Y20413500D02*
X36537300D01*
X36474400Y20362700D02*
Y20437300D01*
X36499800Y20362700D02*
Y20437300D01*
X36525200Y20362700D02*
Y20437300D01*
X38225200Y16650200D02*
Y16787300D01*
X38374800*
Y16650200*
X38225200*
X38374800*
X38225200Y16675600D02*
X38374800D01*
X38225200Y16701000D02*
X38374800D01*
X38225200Y16726400D02*
X38374800D01*
X38225200Y16751800D02*
X38374800D01*
X38225200Y16777200D02*
X38374800D01*
X38227000Y16650200D02*
Y16787300D01*
X38252400Y16650200D02*
Y16787300D01*
X38277800Y16650200D02*
Y16787300D01*
X38303200Y16650200D02*
Y16787300D01*
X38328600Y16650200D02*
Y16787300D01*
X38354000Y16650200D02*
Y16787300D01*
X38225200Y16912700D02*
Y17062300D01*
X38374800*
Y16912700*
X38225200*
X38374800*
X38225200Y16938100D02*
X38374800D01*
X38225200Y16963500D02*
X38374800D01*
X38225200Y16988900D02*
X38374800D01*
X38225200Y17014300D02*
X38374800D01*
X38225200Y17039700D02*
X38374800D01*
X38227000Y16912700D02*
Y17062300D01*
X38252400Y16912700D02*
Y17062300D01*
X38277800Y16912700D02*
Y17062300D01*
X38303200Y16912700D02*
Y17062300D01*
X38328600Y16912700D02*
Y17062300D01*
X38354000Y16912700D02*
Y17062300D01*
X37987300Y16787300D02*
Y16712700D01*
X37912700*
Y16787300*
X37987300*
X37912700Y16712700D02*
X37987300D01*
X37912700Y16738100D02*
X37987300D01*
X37912700Y16763500D02*
X37987300D01*
X37922200Y16712700D02*
Y16787300D01*
X37947600Y16712700D02*
Y16787300D01*
X37973000Y16712700D02*
Y16787300D01*
X37987300Y16987300D02*
Y16912700D01*
X37912700*
Y16987300*
X37987300*
X37912700Y16912700D02*
X37987300D01*
X37912700Y16938100D02*
X37987300D01*
X37912700Y16963500D02*
X37987300D01*
X37922200Y16912700D02*
Y16987300D01*
X37947600Y16912700D02*
Y16987300D01*
X37973000Y16912700D02*
Y16987300D01*
X38225200Y21100200D02*
Y21237300D01*
X38374800*
Y21100200*
X38225200*
X38374800*
X38225200Y21125600D02*
X38374800D01*
X38225200Y21151000D02*
X38374800D01*
X38225200Y21176400D02*
X38374800D01*
X38225200Y21201800D02*
X38374800D01*
X38225200Y21227200D02*
X38374800D01*
X38227000Y21100200D02*
Y21237300D01*
X38252400Y21100200D02*
Y21237300D01*
X38277800Y21100200D02*
Y21237300D01*
X38303200Y21100200D02*
Y21237300D01*
X38328600Y21100200D02*
Y21237300D01*
X38354000Y21100200D02*
Y21237300D01*
X38225200Y21362700D02*
Y21512300D01*
X38374800*
Y21362700*
X38225200*
X38374800*
X38225200Y21388100D02*
X38374800D01*
X38225200Y21413500D02*
X38374800D01*
X38225200Y21438900D02*
X38374800D01*
X38225200Y21464300D02*
X38374800D01*
X38225200Y21489700D02*
X38374800D01*
X38227000Y21362700D02*
Y21512300D01*
X38252400Y21362700D02*
Y21512300D01*
X38277800Y21362700D02*
Y21512300D01*
X38303200Y21362700D02*
Y21512300D01*
X38328600Y21362700D02*
Y21512300D01*
X38354000Y21362700D02*
Y21512300D01*
X37987300Y21237300D02*
Y21162700D01*
X37912700*
Y21237300*
X37987300*
X37912700Y21162700D02*
X37987300D01*
X37912700Y21188100D02*
X37987300D01*
X37912700Y21213500D02*
X37987300D01*
X37922200Y21162700D02*
Y21237300D01*
X37947600Y21162700D02*
Y21237300D01*
X37973000Y21162700D02*
Y21237300D01*
X37987300Y21437300D02*
Y21362700D01*
X37912700*
Y21437300*
X37987300*
X37912700Y21362700D02*
X37987300D01*
X37912700Y21388100D02*
X37987300D01*
X37912700Y21413500D02*
X37987300D01*
X37922200Y21362700D02*
Y21437300D01*
X37947600Y21362700D02*
Y21437300D01*
X37973000Y21362700D02*
Y21437300D01*
X38037300Y15912700D02*
X37962700D01*
Y15987300*
X38037300*
Y15912700*
X37962700D02*
X38037300D01*
X37962700Y15938100D02*
X38037300D01*
X37962700Y15963500D02*
X38037300D01*
X37973000Y15912700D02*
Y15987300D01*
X37998400Y15912700D02*
Y15987300D01*
X38023800Y15912700D02*
Y15987300D01*
X38237300Y15912700D02*
X38162700D01*
Y15987300*
X38237300*
Y15912700*
X38162700D02*
X38237300D01*
X38162700Y15938100D02*
X38237300D01*
X38162700Y15963500D02*
X38237300D01*
X38176200Y15912700D02*
Y15987300D01*
X38201600Y15912700D02*
Y15987300D01*
X38227000Y15912700D02*
Y15987300D01*
X38037300Y20362700D02*
X37962700D01*
Y20437300*
X38037300*
Y20362700*
X37962700D02*
X38037300D01*
X37962700Y20388100D02*
X38037300D01*
X37962700Y20413500D02*
X38037300D01*
X37973000Y20362700D02*
Y20437300D01*
X37998400Y20362700D02*
Y20437300D01*
X38023800Y20362700D02*
Y20437300D01*
X38237300Y20362700D02*
X38162700D01*
Y20437300*
X38237300*
Y20362700*
X38162700D02*
X38237300D01*
X38162700Y20388100D02*
X38237300D01*
X38162700Y20413500D02*
X38237300D01*
X38176200Y20362700D02*
Y20437300D01*
X38201600Y20362700D02*
Y20437300D01*
X38227000Y20362700D02*
Y20437300D01*
X26137300Y15912700D02*
X26062700D01*
Y15987300*
X26137300*
Y15912700*
X26062700D02*
X26137300D01*
X26062700Y15938100D02*
X26137300D01*
X26062700Y15963500D02*
X26137300D01*
X26085800Y15912700D02*
Y15987300D01*
X26111200Y15912700D02*
Y15987300D01*
X26136600Y15912700D02*
Y15987300D01*
X26337300Y15912700D02*
X26262700D01*
Y15987300*
X26337300*
Y15912700*
X26262700D02*
X26337300D01*
X26262700Y15938100D02*
X26337300D01*
X26262700Y15963500D02*
X26337300D01*
X26263600Y15912700D02*
Y15987300D01*
X26289000Y15912700D02*
Y15987300D01*
X26314400Y15912700D02*
Y15987300D01*
X26137300Y20362700D02*
X26062700D01*
Y20437300*
X26137300*
Y20362700*
X26062700D02*
X26137300D01*
X26062700Y20388100D02*
X26137300D01*
X26062700Y20413500D02*
X26137300D01*
X26085800Y20362700D02*
Y20437300D01*
X26111200Y20362700D02*
Y20437300D01*
X26136600Y20362700D02*
Y20437300D01*
X26337300Y20362700D02*
X26262700D01*
Y20437300*
X26337300*
Y20362700*
X26262700D02*
X26337300D01*
X26262700Y20388100D02*
X26337300D01*
X26262700Y20413500D02*
X26337300D01*
X26263600Y20362700D02*
Y20437300D01*
X26289000Y20362700D02*
Y20437300D01*
X26314400Y20362700D02*
Y20437300D01*
X28025200Y16650200D02*
Y16787300D01*
X28174800*
Y16650200*
X28025200*
X28174800*
X28025200Y16675600D02*
X28174800D01*
X28025200Y16701000D02*
X28174800D01*
X28025200Y16726400D02*
X28174800D01*
X28025200Y16751800D02*
X28174800D01*
X28025200Y16777200D02*
X28174800D01*
X28041600Y16650200D02*
Y16787300D01*
X28067000Y16650200D02*
Y16787300D01*
X28092400Y16650200D02*
Y16787300D01*
X28117800Y16650200D02*
Y16787300D01*
X28143200Y16650200D02*
Y16787300D01*
X28168600Y16650200D02*
Y16787300D01*
X28025200Y16912700D02*
Y17062300D01*
X28174800*
Y16912700*
X28025200*
X28174800*
X28025200Y16938100D02*
X28174800D01*
X28025200Y16963500D02*
X28174800D01*
X28025200Y16988900D02*
X28174800D01*
X28025200Y17014300D02*
X28174800D01*
X28025200Y17039700D02*
X28174800D01*
X28041600Y16912700D02*
Y17062300D01*
X28067000Y16912700D02*
Y17062300D01*
X28092400Y16912700D02*
Y17062300D01*
X28117800Y16912700D02*
Y17062300D01*
X28143200Y16912700D02*
Y17062300D01*
X28168600Y16912700D02*
Y17062300D01*
X27787300Y16787300D02*
Y16712700D01*
X27712700*
Y16787300*
X27787300*
X27712700Y16712700D02*
X27787300D01*
X27712700Y16738100D02*
X27787300D01*
X27712700Y16763500D02*
X27787300D01*
X27736800Y16712700D02*
Y16787300D01*
X27762200Y16712700D02*
Y16787300D01*
X27787300Y16987300D02*
Y16912700D01*
X27712700*
Y16987300*
X27787300*
X27712700Y16912700D02*
X27787300D01*
X27712700Y16938100D02*
X27787300D01*
X27712700Y16963500D02*
X27787300D01*
X27736800Y16912700D02*
Y16987300D01*
X27762200Y16912700D02*
Y16987300D01*
X28025200Y21100200D02*
Y21237300D01*
X28174800*
Y21100200*
X28025200*
X28174800*
X28025200Y21125600D02*
X28174800D01*
X28025200Y21151000D02*
X28174800D01*
X28025200Y21176400D02*
X28174800D01*
X28025200Y21201800D02*
X28174800D01*
X28025200Y21227200D02*
X28174800D01*
X28041600Y21100200D02*
Y21237300D01*
X28067000Y21100200D02*
Y21237300D01*
X28092400Y21100200D02*
Y21237300D01*
X28117800Y21100200D02*
Y21237300D01*
X28143200Y21100200D02*
Y21237300D01*
X28168600Y21100200D02*
Y21237300D01*
X28025200Y21362700D02*
Y21512300D01*
X28174800*
Y21362700*
X28025200*
X28174800*
X28025200Y21388100D02*
X28174800D01*
X28025200Y21413500D02*
X28174800D01*
X28025200Y21438900D02*
X28174800D01*
X28025200Y21464300D02*
X28174800D01*
X28025200Y21489700D02*
X28174800D01*
X28041600Y21362700D02*
Y21512300D01*
X28067000Y21362700D02*
Y21512300D01*
X28092400Y21362700D02*
Y21512300D01*
X28117800Y21362700D02*
Y21512300D01*
X28143200Y21362700D02*
Y21512300D01*
X28168600Y21362700D02*
Y21512300D01*
X25400000Y12700000D02*
Y25400000D01*
X39660000*
Y12700000*
X25400000*
Y26200000D02*
X32017959D01*
X25400000D02*
X25654000Y26263500D01*
Y26136500*
X25400000Y26200000*
X39660000D02*
X33042041D01*
X39660000D02*
X39406000Y26136500D01*
Y26263500*
X39660000Y26200000*
X25400000Y25527000D02*
Y26327000D01*
X39660000Y25527000D02*
Y26327000D01*
X32094159Y26239687D02*
X32105704Y26247625D01*
X32105704D02*
X32123023Y26271437D01*
X32123023D02*
Y26104750D01*
X32232704Y26271437D02*
X32174977Y26160312D01*
X32174977D02*
X32261568D01*
X32232704Y26271437D02*
Y26104750D01*
X32319295Y26231750D02*
Y26239687D01*
X32319295D02*
X32325068Y26255562D01*
X32325068D02*
X32330841Y26263500D01*
X32342386Y26271437*
X32342386D02*
X32365477D01*
X32365477D02*
X32377023Y26263500D01*
X32382795Y26255562*
X32382795D02*
X32388568Y26239687D01*
X32388568D02*
Y26223812D01*
X32388568D02*
X32382795Y26207937D01*
X32382795D02*
X32371250Y26184125D01*
X32313523Y26104750*
X32394341*
X32452068Y26120625D02*
X32446295Y26112687D01*
X32446295D02*
X32452068Y26104750D01*
X32457841Y26112687*
X32457841D02*
X32452068Y26120625D01*
X32579068Y26247625D02*
X32573295Y26263500D01*
X32555977Y26271437*
X32555977D02*
X32544432D01*
X32544432D02*
X32527114Y26263500D01*
X32515568Y26239687*
X32515568D02*
X32509795Y26200000D01*
Y26160312*
X32509795D02*
X32515568Y26128562D01*
X32515568D02*
X32527114Y26112687D01*
X32527114D02*
X32544432Y26104750D01*
X32550204*
X32550204D02*
X32567523Y26112687D01*
X32567523D02*
X32579068Y26128562D01*
X32579068D02*
X32584841Y26152375D01*
Y26160312*
X32584841D02*
X32579068Y26184125D01*
X32567523Y26200000*
X32550204Y26207937*
X32550204D02*
X32544432D01*
X32544432D02*
X32527114Y26200000D01*
X32515568Y26184125*
X32509795Y26160312*
X32636795Y26215875D02*
Y26104750D01*
Y26184125D02*
X32654114Y26207937D01*
X32654114D02*
X32665659Y26215875D01*
X32682977*
X32694523Y26207937*
X32694523D02*
X32700295Y26184125D01*
Y26104750*
Y26184125D02*
X32717614Y26207937D01*
X32717614D02*
X32729159Y26215875D01*
X32746477*
X32758023Y26207937*
X32758023D02*
X32763795Y26184125D01*
Y26104750*
X32815750Y26215875D02*
Y26104750D01*
Y26184125D02*
X32833068Y26207937D01*
X32833068D02*
X32844614Y26215875D01*
X32861932*
X32873477Y26207937*
X32873477D02*
X32879250Y26184125D01*
Y26104750*
Y26184125D02*
X32896568Y26207937D01*
X32896568D02*
X32908114Y26215875D01*
X32925432*
X32936977Y26207937*
X32936977D02*
X32942750Y26184125D01*
Y26104750*
X25400000Y25800000D02*
X28519345D01*
X25400000D02*
X25654000Y25863500D01*
Y25736500*
X25400000Y25800000*
X32530000D02*
X29410655D01*
X32530000D02*
X32276000Y25736500D01*
Y25863500*
X32530000Y25800000*
X25400000Y25527000D02*
Y25927000D01*
X32530000Y25777000D02*
Y25927000D01*
X28676364Y25871437D02*
X28618636Y25704750D01*
X28595545Y25871437D02*
X28676364D01*
X28728318Y25839687D02*
X28739864Y25847625D01*
X28757182Y25871437*
X28757182D02*
Y25704750D01*
X28814909Y25720625D02*
X28809136Y25712687D01*
X28809136D02*
X28814909Y25704750D01*
X28820682Y25712687*
X28820682D02*
X28814909Y25720625D01*
X28884182Y25871437D02*
X28947682D01*
X28947682D02*
X28913045Y25807937D01*
X28913045D02*
X28930364D01*
X28930364D02*
X28941909Y25800000D01*
X28947682Y25792062*
X28947682D02*
X28953455Y25768250D01*
X28953455D02*
Y25752375D01*
X28953455D02*
X28947682Y25728562D01*
X28947682D02*
X28936136Y25712687D01*
X28936136D02*
X28918818Y25704750D01*
X28901500*
X28884182Y25712687*
X28884182D02*
X28878409Y25720625D01*
X28872636Y25736500*
X29005409Y25815875D02*
Y25704750D01*
Y25784125D02*
X29022727Y25807937D01*
X29022727D02*
X29034273Y25815875D01*
X29051591*
X29063136Y25807937*
X29063136D02*
X29068909Y25784125D01*
Y25704750*
Y25784125D02*
X29086227Y25807937D01*
X29086227D02*
X29097773Y25815875D01*
X29115091*
X29126636Y25807937*
X29126636D02*
X29132409Y25784125D01*
Y25704750*
X29184364Y25815875D02*
Y25704750D01*
Y25784125D02*
X29201682Y25807937D01*
X29201682D02*
X29213227Y25815875D01*
X29230545*
X29230545D02*
X29242091Y25807937D01*
X29242091D02*
X29247864Y25784125D01*
Y25704750*
Y25784125D02*
X29265182Y25807937D01*
X29265182D02*
X29276727Y25815875D01*
X29294045*
X29294045D02*
X29305591Y25807937D01*
X29305591D02*
X29311364Y25784125D01*
Y25704750*
G54D59*
X26400000Y17450000D02*
G03X26400000I-200000J0D01*
G01X33200000Y21900000D02*
G03X33200000I-200000J0D01*
G01X34900000Y17450000D02*
G03X34900000I-200000J0D01*
G01Y21900000D02*
G03X34900000I-200000J0D01*
G01X36600000Y17450000D02*
G03X36600000I-200000J0D01*
G01Y21900000D02*
G03X36600000I-200000J0D01*
G01X38300000Y17450000D02*
G03X38300000I-200000J0D01*
G01Y21900000D02*
G03X38300000I-200000J0D01*
G01X26400000D02*
G03X26400000I-200000J0D01*
G01X28100000Y17450000D02*
G03X28100000I-200000J0D01*
G01Y21900000D02*
G03X28100000I-200000J0D01*
G01X29800000Y17450000D02*
G03X29800000I-200000J0D01*
G01Y21900000D02*
G03X29800000I-200000J0D01*
G01X31500000Y17450000D02*
G03X31500000I-200000J0D01*
G01Y21900000D02*
G03X31500000I-200000J0D01*
G01X33200000Y17450000D02*
G03X33200000I-200000J0D01*
G54D98*
G01X31450000Y20050000D03*
X33150000Y15600000D03*
Y20050000D03*
X34850000Y15600000D03*
Y20050000D03*
X36550000Y15600000D03*
Y20050000D03*
X38250000Y15600000D03*
Y20050000D03*
X26350000Y15600000D03*
Y20050000D03*
X28050000Y15600000D03*
Y20050000D03*
X29750000Y15600000D03*
Y20050000D03*
X31450000Y15600000D03*
G54D103*
X31196000Y20050000D03*
X32896000Y15600000D03*
Y20050000D03*
X34596000Y15600000D03*
Y20050000D03*
X36296000Y15600000D03*
Y20050000D03*
X37996000Y15600000D03*
Y20050000D03*
X26096000Y15600000D03*
Y20050000D03*
X27796000Y15600000D03*
Y20050000D03*
X29496000Y15600000D03*
Y20050000D03*
X31196000Y15600000D03*
G54D104*
X27100000Y17400000D03*
X33900000Y21850000D03*
X35600000Y17400000D03*
Y21850000D03*
X37300000Y17400000D03*
Y21850000D03*
X39000000Y17400000D03*
Y21850000D03*
X27100000D03*
X28800000Y17400000D03*
Y21850000D03*
X30500000Y17400000D03*
Y21850000D03*
X32200000Y17400000D03*
Y21850000D03*
X33900000Y17400000D03*
G54D105*
X27100000Y17146000D03*
Y15622000D03*
Y16130000D03*
X33900000Y21596000D03*
Y20072000D03*
Y20580000D03*
X35600000Y17146000D03*
Y15622000D03*
Y16130000D03*
Y21596000D03*
Y20072000D03*
Y20580000D03*
X37300000Y17146000D03*
Y15622000D03*
Y16130000D03*
Y21596000D03*
Y20072000D03*
Y20580000D03*
X39000000Y17146000D03*
Y15622000D03*
Y16130000D03*
Y21596000D03*
Y20072000D03*
Y20580000D03*
X27100000Y21596000D03*
Y20072000D03*
Y20580000D03*
X28800000Y17146000D03*
Y15622000D03*
Y16130000D03*
Y21596000D03*
Y20072000D03*
Y20580000D03*
X30500000Y17146000D03*
Y15622000D03*
Y16130000D03*
Y21596000D03*
Y20072000D03*
Y20580000D03*
X32200000Y17146000D03*
Y15622000D03*
Y16130000D03*
Y21596000D03*
Y20072000D03*
Y20580000D03*
X33900000Y17146000D03*
Y15622000D03*
Y16130000D03*
G54D106*
X25800000Y25000000D03*
X39260000D03*
Y13100000D03*
X25800000D03*
G54D109*
X26200000Y17450000D02*
G03X26200000I-100000J0D01*
G01X33000000Y21900000D02*
G03X33000000I-100000J0D01*
G01X34700000Y17450000D02*
G03X34700000I-100000J0D01*
G01Y21900000D02*
G03X34700000I-100000J0D01*
G01X36400000Y17450000D02*
G03X36400000I-100000J0D01*
G01Y21900000D02*
G03X36400000I-100000J0D01*
G01X38100000Y17450000D02*
G03X38100000I-100000J0D01*
G01Y21900000D02*
G03X38100000I-100000J0D01*
G01X26200000D02*
G03X26200000I-100000J0D01*
G01X27900000Y17450000D02*
G03X27900000I-100000J0D01*
G01Y21900000D02*
G03X27900000I-100000J0D01*
G01X29600000Y17450000D02*
G03X29600000I-100000J0D01*
G01Y21900000D02*
G03X29600000I-100000J0D01*
G01X31300000Y17450000D02*
G03X31300000I-100000J0D01*
G01Y21900000D02*
G03X31300000I-100000J0D01*
G01X33000000Y17450000D02*
G03X33000000I-100000J0D01*
G01X35930000Y23775000D02*
G03X35930000I-30000J0D01*
G01X36280000D02*
G03X36280000I-30000J0D01*
G01X35930000Y24125000D02*
G03X35930000I-30000J0D01*
G01X36280000D02*
G03X36280000I-30000J0D01*
G01X34930000Y23775000D02*
G03X34930000I-30000J0D01*
G01X35280000D02*
G03X35280000I-30000J0D01*
G01X34930000Y24125000D02*
G03X34930000I-30000J0D01*
G01X35280000D02*
G03X35280000I-30000J0D01*
G54D110*
G01X26300000Y16850000D02*
X26500000D01*
X29700000D02*
X29900000D01*
X29700000Y21300000D02*
X29900000D01*
X31400000Y16850000D02*
X31600000D01*
X26300000Y21300000D02*
X26500000D01*
X31400000D02*
X31600000D01*
X33100000Y16850000D02*
X33300000D01*
X33100000Y21300000D02*
X33300000D01*
X34800000Y16850000D02*
X35000000D01*
X34800000Y21300000D02*
X35000000D01*
X36500000Y16850000D02*
X36700000D01*
X36500000Y21300000D02*
X36700000D01*
X38200000Y16850000D02*
X38400000D01*
X38200000Y21300000D02*
X38400000D01*
X28000000Y16850000D02*
X28200000D01*
X28000000Y21300000D02*
X28200000D01*
G74*
X0Y0D02*
M02*
