%
T1C.01181F095S3
X012559Y-027205
X01374Y-027205
X019252Y-027205
X020433Y-027205
X025945Y-027205
X027126Y-027205
X032638Y-027205
X033819Y-027205
X039331Y-027205
X040512Y-027205
X046024Y-027205
X047205Y-027205
X052717Y-027205
X053898Y-027205
X059409Y-027205
X060591Y-027205
X060787Y-0244
X06055Y-026177
X06055Y-025477
X059409Y-025827
X054094Y-0244
X053857Y-025477
X053857Y-026177
X052717Y-025827
X047402Y-0244
X047164Y-025477
X047164Y-026177
X046024Y-025827
X040709Y-0244
X040471Y-026177
X040471Y-025477
X039331Y-025827
X034016Y-0244
X033778Y-025477
X033778Y-026177
X032638Y-025827
X027323Y-0244
X027085Y-025477
X027085Y-026177
X025945Y-025827
X02063Y-0244
X020393Y-025477
X020393Y-026177
X019252Y-025827
X013937Y-0244
X0137Y-026177
X0137Y-025477
X012559Y-025827
X012559Y-023071
X012559Y-024252
X013937Y-022874
X019252Y-023071
X019252Y-024252
X02063Y-022874
X025945Y-023071
X025945Y-024252
X027323Y-022874
X032638Y-024252
X032638Y-023071
X034016Y-022874
X039331Y-024252
X039331Y-023071
X040709Y-022874
X046024Y-024252
X046024Y-023071
X047402Y-022874
X052717Y-024252
X052717Y-023071
X054094Y-022874
X059409Y-024252
X059409Y-023071
X060787Y-022874
X060591Y-009685
X059409Y-009685
X053898Y-009685
X052717Y-009685
X047205Y-009685
X046024Y-009685
X040512Y-009685
X039331Y-009685
X033819Y-009685
X032638Y-009685
X027126Y-009685
X025945Y-009685
X020433Y-009685
X019252Y-009685
X01374Y-009685
X012559Y-009685
X012559Y-008307
X0137Y-008657
X0137Y-007957
X013937Y-00688
X019252Y-008307
X020393Y-008657
X020393Y-007957
X02063Y-00688
X025945Y-008307
X027085Y-007957
X027085Y-008657
X027323Y-00688
X032638Y-008307
X033778Y-007957
X033778Y-008657
X034016Y-00688
X039331Y-008307
X040471Y-008657
X040471Y-007957
X040709Y-00688
X046024Y-008307
X047164Y-008657
X047164Y-007957
X047402Y-00688
X052717Y-008307
X053857Y-008657
X053857Y-007957
X054094Y-00688
X059409Y-008307
X06055Y-007957
X06055Y-008657
X060787Y-00688
X060787Y-005354
X059409Y-005551
X059409Y-006732
X054094Y-005354
X052717Y-005551
X052717Y-006732
X047402Y-005354
X046024Y-005551
X046024Y-006732
X040709Y-005354
X039331Y-005551
X039331Y-006732
X034016Y-005354
X032638Y-006732
X032638Y-005551
X027323Y-005354
X025945Y-006732
X025945Y-005551
X02063Y-005354
X019252Y-006732
X019252Y-005551
X013937Y-005354
X012559Y-005551
X012559Y-006732
X048091Y005276
X048091Y003307
X049665Y004882
X049665Y003701
X050453Y004882
X050453Y003701
X052028Y005276
X052028Y003307
X053602Y004882
X053602Y003701
X05439Y003701
X05439Y004882
X055177Y004882
X055177Y003701
T2C.03543F197S55
X014331Y-031142
X016693Y-031142
X021024Y-031142
X023386Y-031142
X027717Y-031142
X030079Y-031142
X034409Y-031142
X036772Y-031142
X041102Y-031142
X043465Y-031142
X047795Y-031142
X050157Y-031142
X054488Y-031142
X05685Y-031142
X061181Y-031142
X063543Y-031142
X060591Y-028583
X059591Y-028583
X053898Y-028583
X052898Y-028583
X047205Y-028583
X046205Y-028583
X040512Y-028583
X039512Y-028583
X033819Y-028583
X032819Y-028583
X027126Y-028583
X026126Y-028583
X020433Y-028583
X019433Y-028583
X01374Y-028583
X01274Y-028583
X012756Y-021299
X013543Y-021299
X019449Y-021299
X020236Y-021299
X026142Y-021299
X026929Y-021299
X032835Y-021299
X033622Y-021299
X039528Y-021299
X040315Y-021299
X04622Y-021299
X047008Y-021299
X052913Y-021299
X053701Y-021299
X059606Y-021299
X060394Y-021299
X063543Y-013622
X061181Y-013622
X05685Y-013622
X054488Y-013622
X050157Y-013622
X047795Y-013622
X043465Y-013622
X041102Y-013622
X036772Y-013622
X034409Y-013622
X030079Y-013622
X027717Y-013622
X023386Y-013622
X021024Y-013622
X016693Y-013622
X014331Y-013622
X01274Y-011063
X01374Y-011063
X019433Y-011063
X020433Y-011063
X026126Y-011063
X027126Y-011063
X032819Y-011063
X033819Y-011063
X039512Y-011063
X040512Y-011063
X046205Y-011063
X047205Y-011063
X052898Y-011063
X053898Y-011063
X059591Y-011063
X060591Y-011063
X060394Y-00378
X059606Y-00378
X053701Y-00378
X052913Y-00378
X047008Y-00378
X04622Y-00378
X040315Y-00378
X039528Y-00378
X033622Y-00378
X032835Y-00378
X026929Y-00378
X026142Y-00378
X020236Y-00378
X019449Y-00378
X013543Y-00378
X012756Y-00378
T3C.04F139S55
X026071Y-038319
X026071Y-039319
X027071Y-038319
X027071Y-039319
X028071Y-038319
X028071Y-039319
X029071Y-038319
X029071Y-039319
X030071Y-038319
X030071Y-039319
X031071Y-038319
X031071Y-039319
X032071Y-038319
X032071Y-039319
X033071Y-038319
X033071Y-039319
X034071Y-038319
X034071Y-039319
X035071Y-038319
X035071Y-039319
X036071Y-038319
X036071Y-039319
X037071Y-038319
X037071Y-039319
X038071Y-038319
X038071Y-039319
X039071Y-038319
X039071Y-039319
X040071Y-038319
X040071Y-039319
X041071Y-038319
X041071Y-039319
X042071Y-038319
X042071Y-039319
X043071Y-038319
X043071Y-039319
X044071Y-038319
X044071Y-039319
X045071Y-038319
X045071Y-039319
X046071Y-038319
X046071Y-039319
X047071Y-038319
X047071Y-039319
X048071Y-038319
X048071Y-039319
X049071Y-038319
X049071Y-039319
X050071Y-038319
X050071Y-039319
X050071Y009319
X050071Y008319
X049071Y009319
X049071Y008319
X048071Y009319
X048071Y008319
X047071Y009319
X047071Y008319
X046071Y009319
X046071Y008319
X045071Y009319
X045071Y008319
X044071Y009319
X044071Y008319
X043071Y009319
X043071Y008319
X042071Y009319
X042071Y008319
X041071Y009319
X041071Y008319
X040071Y009319
X040071Y008319
X039071Y009319
X039071Y008319
X038071Y009319
X038071Y008319
X037071Y009319
X037071Y008319
X036071Y009319
X036071Y008319
X035071Y009319
X035071Y008319
X034071Y009319
X034071Y008319
X033071Y009319
X033071Y008319
X032071Y009319
X032071Y008319
X031071Y009319
X031071Y008319
X030071Y009319
X030071Y008319
X029071Y009319
X029071Y008319
X028071Y009319
X028071Y008319
X027071Y009319
X027071Y008319
X026071Y009319
X026071Y008319
T4C.04724F139S55
X016693Y-028496
X023386Y-028496
X030079Y-028496
X036772Y-028496
X043465Y-028496
X050157Y-028496
X05685Y-028496
X063543Y-028496
X063543Y-026496
X063543Y-022496
X05685Y-022496
X05685Y-026496
X050157Y-022496
X050157Y-026496
X043465Y-026496
X043465Y-022496
X036772Y-022496
X036772Y-026496
X030079Y-026496
X030079Y-022496
X023386Y-022496
X023386Y-026496
X016693Y-026496
X016693Y-022496
X016693Y-021496
X023386Y-021496
X030079Y-021496
X036772Y-021496
X043465Y-021496
X050157Y-021496
X05685Y-021496
X063543Y-021496
X063543Y-010976
X063543Y-008976
X05685Y-010976
X05685Y-008976
X050157Y-010976
X050157Y-008976
X043465Y-008976
X043465Y-010976
X036772Y-008976
X036772Y-010976
X030079Y-010976
X030079Y-008976
X023386Y-010976
X023386Y-008976
X016693Y-008976
X016693Y-010976
X016693Y-004976
X016693Y-003976
X023386Y-003976
X023386Y-004976
X030079Y-003976
X030079Y-004976
X036772Y-003976
X036772Y-004976
X043465Y-004976
X043465Y-003976
X050157Y-003976
X050157Y-004976
X05685Y-004976
X05685Y-003976
X063543Y-003976
X063543Y-004976
T5C.12598F035S794
X011575Y-038425
X064567Y-038425
X064567Y008425
X011575Y008425
M30
