*
*
G04 PADS Layout (Build Number 2005.266.2) generated Gerber (RS-274-X) file*
G04 PC Version=2.1*
*
%IN "cecs_module_relay_1031."*%
*
%MOMM*%
*
%FSLAX35Y35*%
*
*
*
*
G04 PC Standard Apertures*
*
*
G04 Thermal Relief Aperture macro.*
%AMTER*
1,1,$1,0,0*
1,0,$1-$2,0,0*
21,0,$3,$4,0,0,45*
21,0,$3,$4,0,0,135*
%
*
*
G04 Annular Aperture macro.*
%AMANN*
1,1,$1,0,0*
1,0,$2,0,0*
%
*
*
G04 Odd Aperture macro.*
%AMODD*
1,1,$1,0,0*
1,0,$1-0.005,0,0*
%
*
*
G04 PC Custom Aperture Macros*
*
*
*
*
*
*
G04 PC Aperture Table*
*
%ADD033C,1.5*%
%ADD034R,1.4224X1.4224*%
%ADD035C,1.4224*%
%ADD036C,2*%
%ADD058C,0.254*%
%ADD061C,1*%
%ADD062C,0.8*%
%ADD063C,0.5*%
%ADD098R,1.6X1.6*%
%ADD103C,1.6*%
%ADD104R,1.8X1.8*%
%ADD105C,1.8*%
%ADD106C,4.5*%
%ADD107C,0.25*%
%ADD108C,0.3*%
*
*
*
*
G04 PC Custom Flashes*
G04 Layer Name cecs_module_relay_1031. - flashes*
%LPD*%
*
*
G04 PC Circuitry*
G04 Layer Name cecs_module_relay_1031. - circuitry*
%LPD*%
*
G54D33*
G01X26300000Y17450000D03*
X26100000D03*
X33100000Y21900000D03*
X32900000D03*
X34800000Y17450000D03*
X34600000D03*
X34800000Y21900000D03*
X34600000D03*
X36500000Y17450000D03*
X36300000D03*
X36500000Y21900000D03*
X36300000D03*
X38200000Y17450000D03*
X38000000D03*
X38200000Y21900000D03*
X38000000D03*
X26300000D03*
X26100000D03*
X28000000Y17450000D03*
X27800000D03*
X28000000Y21900000D03*
X27800000D03*
X29700000Y17450000D03*
X29500000D03*
X29700000Y21900000D03*
X29500000D03*
X31400000Y17450000D03*
X31200000D03*
X31400000Y21900000D03*
X31200000D03*
X33100000Y17450000D03*
X32900000D03*
G54D34*
X29482000Y13127000D03*
Y25227000D03*
G54D35*
Y12873000D03*
X29736000Y13127000D03*
Y12873000D03*
X29990000Y13127000D03*
Y12873000D03*
X30244000Y13127000D03*
Y12873000D03*
X30498000Y13127000D03*
Y12873000D03*
X30752000Y13127000D03*
Y12873000D03*
X31006000Y13127000D03*
Y12873000D03*
X31260000Y13127000D03*
Y12873000D03*
X31514000Y13127000D03*
Y12873000D03*
X31768000Y13127000D03*
Y12873000D03*
X32022000Y13127000D03*
Y12873000D03*
X32276000Y13127000D03*
Y12873000D03*
X32530000Y13127000D03*
Y12873000D03*
X32784000Y13127000D03*
Y12873000D03*
X33038000Y13127000D03*
Y12873000D03*
X33292000Y13127000D03*
Y12873000D03*
X33546000Y13127000D03*
Y12873000D03*
X33800000Y13127000D03*
Y12873000D03*
X34054000Y13127000D03*
Y12873000D03*
X34308000Y13127000D03*
Y12873000D03*
X34562000Y13127000D03*
Y12873000D03*
X34816000Y13127000D03*
Y12873000D03*
X35070000Y13127000D03*
Y12873000D03*
X35324000Y13127000D03*
Y12873000D03*
X35578000Y13127000D03*
Y12873000D03*
X29482000Y24973000D03*
X29736000Y25227000D03*
Y24973000D03*
X29990000Y25227000D03*
Y24973000D03*
X30244000Y25227000D03*
Y24973000D03*
X30498000Y25227000D03*
Y24973000D03*
X30752000Y25227000D03*
Y24973000D03*
X31006000Y25227000D03*
Y24973000D03*
X31260000Y25227000D03*
Y24973000D03*
X31514000Y25227000D03*
Y24973000D03*
X31768000Y25227000D03*
Y24973000D03*
X32022000Y25227000D03*
Y24973000D03*
X32276000Y25227000D03*
Y24973000D03*
X32530000Y25227000D03*
Y24973000D03*
X32784000Y25227000D03*
Y24973000D03*
X33038000Y25227000D03*
Y24973000D03*
X33292000Y25227000D03*
Y24973000D03*
X33546000Y25227000D03*
Y24973000D03*
X33800000Y25227000D03*
Y24973000D03*
X34054000Y25227000D03*
Y24973000D03*
X34308000Y25227000D03*
Y24973000D03*
X34562000Y25227000D03*
Y24973000D03*
X34816000Y25227000D03*
Y24973000D03*
X35070000Y25227000D03*
Y24973000D03*
X35324000Y25227000D03*
Y24973000D03*
X35578000Y25227000D03*
Y24973000D03*
G54D36*
X27100000Y14950000D03*
X26500000D03*
X33900000Y19400000D03*
X33300000D03*
X35600000Y14950000D03*
X35000000D03*
X35600000Y19400000D03*
X35000000D03*
X37300000Y14950000D03*
X36700000D03*
X37300000Y19400000D03*
X36700000D03*
X39000000Y14950000D03*
X38400000D03*
X39000000Y19400000D03*
X38400000D03*
X27100000D03*
X26500000D03*
X28800000Y14950000D03*
X28200000D03*
X28800000Y19400000D03*
X28200000D03*
X30500000Y14950000D03*
X29900000D03*
X30500000Y19400000D03*
X29900000D03*
X32200000Y14950000D03*
X31600000D03*
X32200000Y19400000D03*
X31600000D03*
X33900000Y14950000D03*
X33300000D03*
G54D58*
X35512300Y24087300D02*
Y24012700D01*
X35437700*
Y24087300*
X35512300*
X35437700Y24012700D02*
X35512300D01*
X35437700Y24038100D02*
X35512300D01*
X35437700Y24063500D02*
X35512300D01*
X35458400Y24012700D02*
Y24087300D01*
X35483800Y24012700D02*
Y24087300D01*
X35509200Y24012700D02*
Y24087300D01*
X35512300Y23812700D02*
Y23887300D01*
X35437700*
Y23812700*
X35512300*
X35437700D02*
X35512300D01*
X35437700Y23838100D02*
X35512300D01*
X35437700Y23863500D02*
X35512300D01*
X35458400Y23812700D02*
Y23887300D01*
X35483800Y23812700D02*
Y23887300D01*
X35509200Y23812700D02*
Y23887300D01*
X35712300Y24087300D02*
Y24012700D01*
X35637700*
Y24087300*
X35712300*
X35637700Y24012700D02*
X35712300D01*
X35637700Y24038100D02*
X35712300D01*
X35637700Y24063500D02*
X35712300D01*
X35661600Y24012700D02*
Y24087300D01*
X35687000Y24012700D02*
Y24087300D01*
X35712300Y23812700D02*
Y23887300D01*
X35637700*
Y23812700*
X35712300*
X35637700D02*
X35712300D01*
X35637700Y23838100D02*
X35712300D01*
X35637700Y23863500D02*
X35712300D01*
X35661600Y23812700D02*
Y23887300D01*
X35687000Y23812700D02*
Y23887300D01*
X36512300Y24087300D02*
Y24012700D01*
X36437700*
Y24087300*
X36512300*
X36437700Y24012700D02*
X36512300D01*
X36437700Y24038100D02*
X36512300D01*
X36437700Y24063500D02*
X36512300D01*
X36449000Y24012700D02*
Y24087300D01*
X36474400Y24012700D02*
Y24087300D01*
X36499800Y24012700D02*
Y24087300D01*
X36512300Y23812700D02*
Y23887300D01*
X36437700*
Y23812700*
X36512300*
X36437700D02*
X36512300D01*
X36437700Y23838100D02*
X36512300D01*
X36437700Y23863500D02*
X36512300D01*
X36449000Y23812700D02*
Y23887300D01*
X36474400Y23812700D02*
Y23887300D01*
X36499800Y23812700D02*
Y23887300D01*
X36712300Y24087300D02*
Y24012700D01*
X36637700*
Y24087300*
X36712300*
X36637700Y24012700D02*
X36712300D01*
X36637700Y24038100D02*
X36712300D01*
X36637700Y24063500D02*
X36712300D01*
X36652200Y24012700D02*
Y24087300D01*
X36677600Y24012700D02*
Y24087300D01*
X36703000Y24012700D02*
Y24087300D01*
X36712300Y23812700D02*
Y23887300D01*
X36637700*
Y23812700*
X36712300*
X36637700D02*
X36712300D01*
X36637700Y23838100D02*
X36712300D01*
X36637700Y23863500D02*
X36712300D01*
X36652200Y23812700D02*
Y23887300D01*
X36677600Y23812700D02*
Y23887300D01*
X36703000Y23812700D02*
Y23887300D01*
X36912300Y24087300D02*
Y24012700D01*
X36837700*
Y24087300*
X36912300*
X36837700Y24012700D02*
X36912300D01*
X36837700Y24038100D02*
X36912300D01*
X36837700Y24063500D02*
X36912300D01*
X36855400Y24012700D02*
Y24087300D01*
X36880800Y24012700D02*
Y24087300D01*
X36906200Y24012700D02*
Y24087300D01*
X36912300Y23812700D02*
Y23887300D01*
X36837700*
Y23812700*
X36912300*
X36837700D02*
X36912300D01*
X36837700Y23838100D02*
X36912300D01*
X36837700Y23863500D02*
X36912300D01*
X36855400Y23812700D02*
Y23887300D01*
X36880800Y23812700D02*
Y23887300D01*
X36906200Y23812700D02*
Y23887300D01*
X36037700Y23712700D02*
Y23837300D01*
X36112300*
Y23712700*
X36037700*
X36112300*
X36037700Y23738100D02*
X36112300D01*
X36037700Y23763500D02*
X36112300D01*
X36037700Y23788900D02*
X36112300D01*
X36037700Y23814300D02*
X36112300D01*
X36042600Y23712700D02*
Y23837300D01*
X36068000Y23712700D02*
Y23837300D01*
X36093400Y23712700D02*
Y23837300D01*
X36037700Y24187300D02*
Y24062700D01*
X36112300*
Y24187300*
X36037700*
Y24062700D02*
X36112300D01*
X36037700Y24088100D02*
X36112300D01*
X36037700Y24113500D02*
X36112300D01*
X36037700Y24138900D02*
X36112300D01*
X36037700Y24164300D02*
X36112300D01*
X36042600Y24062700D02*
Y24187300D01*
X36068000Y24062700D02*
Y24187300D01*
X36093400Y24062700D02*
Y24187300D01*
X35037700Y23712700D02*
Y23837300D01*
X35112300*
Y23712700*
X35037700*
X35112300*
X35037700Y23738100D02*
X35112300D01*
X35037700Y23763500D02*
X35112300D01*
X35037700Y23788900D02*
X35112300D01*
X35037700Y23814300D02*
X35112300D01*
X35052000Y23712700D02*
Y23837300D01*
X35077400Y23712700D02*
Y23837300D01*
X35102800Y23712700D02*
Y23837300D01*
X35037700Y24187300D02*
Y24062700D01*
X35112300*
Y24187300*
X35037700*
Y24062700D02*
X35112300D01*
X35037700Y24088100D02*
X35112300D01*
X35037700Y24113500D02*
X35112300D01*
X35037700Y24138900D02*
X35112300D01*
X35037700Y24164300D02*
X35112300D01*
X35052000Y24062700D02*
Y24187300D01*
X35077400Y24062700D02*
Y24187300D01*
X35102800Y24062700D02*
Y24187300D01*
X26037700Y16262700D02*
Y16337300D01*
X26124800*
Y16262700*
X26037700*
X26124800*
X26037700Y16288100D02*
X26124800D01*
X26037700Y16313500D02*
X26124800D01*
X26060400Y16262700D02*
Y16337300D01*
X26085800Y16262700D02*
Y16337300D01*
X26111200Y16262700D02*
Y16337300D01*
X26263500Y16173000D02*
Y16249200D01*
X26327000*
Y16173000*
X26263500*
X26327000*
X26263500Y16198400D02*
X26327000D01*
X26263500Y16223800D02*
X26327000D01*
X26263500Y16249200D02*
X26327000D01*
X26263600Y16173000D02*
Y16249200D01*
X26289000Y16173000D02*
Y16249200D01*
X26314400Y16173000D02*
Y16249200D01*
X26263500Y16350800D02*
Y16427000D01*
X26327000*
Y16350800*
X26263500*
X26327000*
X26263500Y16376200D02*
X26327000D01*
X26263500Y16401600D02*
X26327000D01*
X26263500Y16427000D02*
X26327000D01*
X26263600Y16350800D02*
Y16427000D01*
X26289000Y16350800D02*
Y16427000D01*
X26314400Y16350800D02*
Y16427000D01*
X32837700Y20712700D02*
Y20787300D01*
X32924800*
Y20712700*
X32837700*
X32924800*
X32837700Y20738100D02*
X32924800D01*
X32837700Y20763500D02*
X32924800D01*
X32842200Y20712700D02*
Y20787300D01*
X32867600Y20712700D02*
Y20787300D01*
X32893000Y20712700D02*
Y20787300D01*
X32918400Y20712700D02*
Y20787300D01*
X33063500Y20623000D02*
Y20699200D01*
X33127000*
Y20623000*
X33063500*
X33127000*
X33063500Y20648400D02*
X33127000D01*
X33063500Y20673800D02*
X33127000D01*
X33063500Y20699200D02*
X33127000D01*
X33070800Y20623000D02*
Y20699200D01*
X33096200Y20623000D02*
Y20699200D01*
X33121600Y20623000D02*
Y20699200D01*
X33063500Y20800800D02*
Y20877000D01*
X33127000*
Y20800800*
X33063500*
X33127000*
X33063500Y20826200D02*
X33127000D01*
X33063500Y20851600D02*
X33127000D01*
X33063500Y20877000D02*
X33127000D01*
X33070800Y20800800D02*
Y20877000D01*
X33096200Y20800800D02*
Y20877000D01*
X33121600Y20800800D02*
Y20877000D01*
X34537700Y16262700D02*
Y16337300D01*
X34624800*
Y16262700*
X34537700*
X34624800*
X34537700Y16288100D02*
X34624800D01*
X34537700Y16313500D02*
X34624800D01*
X34544000Y16262700D02*
Y16337300D01*
X34569400Y16262700D02*
Y16337300D01*
X34594800Y16262700D02*
Y16337300D01*
X34620200Y16262700D02*
Y16337300D01*
X34763500Y16173000D02*
Y16249200D01*
X34827000*
Y16173000*
X34763500*
X34827000*
X34763500Y16198400D02*
X34827000D01*
X34763500Y16223800D02*
X34827000D01*
X34763500Y16249200D02*
X34827000D01*
X34772600Y16173000D02*
Y16249200D01*
X34798000Y16173000D02*
Y16249200D01*
X34823400Y16173000D02*
Y16249200D01*
X34763500Y16350800D02*
Y16427000D01*
X34827000*
Y16350800*
X34763500*
X34827000*
X34763500Y16376200D02*
X34827000D01*
X34763500Y16401600D02*
X34827000D01*
X34763500Y16427000D02*
X34827000D01*
X34772600Y16350800D02*
Y16427000D01*
X34798000Y16350800D02*
Y16427000D01*
X34823400Y16350800D02*
Y16427000D01*
X34537700Y20712700D02*
Y20787300D01*
X34624800*
Y20712700*
X34537700*
X34624800*
X34537700Y20738100D02*
X34624800D01*
X34537700Y20763500D02*
X34624800D01*
X34544000Y20712700D02*
Y20787300D01*
X34569400Y20712700D02*
Y20787300D01*
X34594800Y20712700D02*
Y20787300D01*
X34620200Y20712700D02*
Y20787300D01*
X34763500Y20623000D02*
Y20699200D01*
X34827000*
Y20623000*
X34763500*
X34827000*
X34763500Y20648400D02*
X34827000D01*
X34763500Y20673800D02*
X34827000D01*
X34763500Y20699200D02*
X34827000D01*
X34772600Y20623000D02*
Y20699200D01*
X34798000Y20623000D02*
Y20699200D01*
X34823400Y20623000D02*
Y20699200D01*
X34763500Y20800800D02*
Y20877000D01*
X34827000*
Y20800800*
X34763500*
X34827000*
X34763500Y20826200D02*
X34827000D01*
X34763500Y20851600D02*
X34827000D01*
X34763500Y20877000D02*
X34827000D01*
X34772600Y20800800D02*
Y20877000D01*
X34798000Y20800800D02*
Y20877000D01*
X34823400Y20800800D02*
Y20877000D01*
X36237700Y16262700D02*
Y16337300D01*
X36324800*
Y16262700*
X36237700*
X36324800*
X36237700Y16288100D02*
X36324800D01*
X36237700Y16313500D02*
X36324800D01*
X36245800Y16262700D02*
Y16337300D01*
X36271200Y16262700D02*
Y16337300D01*
X36296600Y16262700D02*
Y16337300D01*
X36322000Y16262700D02*
Y16337300D01*
X36463500Y16173000D02*
Y16249200D01*
X36527000*
Y16173000*
X36463500*
X36527000*
X36463500Y16198400D02*
X36527000D01*
X36463500Y16223800D02*
X36527000D01*
X36463500Y16249200D02*
X36527000D01*
X36474400Y16173000D02*
Y16249200D01*
X36499800Y16173000D02*
Y16249200D01*
X36525200Y16173000D02*
Y16249200D01*
X36463500Y16350800D02*
Y16427000D01*
X36527000*
Y16350800*
X36463500*
X36527000*
X36463500Y16376200D02*
X36527000D01*
X36463500Y16401600D02*
X36527000D01*
X36463500Y16427000D02*
X36527000D01*
X36474400Y16350800D02*
Y16427000D01*
X36499800Y16350800D02*
Y16427000D01*
X36525200Y16350800D02*
Y16427000D01*
X36237700Y20712700D02*
Y20787300D01*
X36324800*
Y20712700*
X36237700*
X36324800*
X36237700Y20738100D02*
X36324800D01*
X36237700Y20763500D02*
X36324800D01*
X36245800Y20712700D02*
Y20787300D01*
X36271200Y20712700D02*
Y20787300D01*
X36296600Y20712700D02*
Y20787300D01*
X36322000Y20712700D02*
Y20787300D01*
X36463500Y20623000D02*
Y20699200D01*
X36527000*
Y20623000*
X36463500*
X36527000*
X36463500Y20648400D02*
X36527000D01*
X36463500Y20673800D02*
X36527000D01*
X36463500Y20699200D02*
X36527000D01*
X36474400Y20623000D02*
Y20699200D01*
X36499800Y20623000D02*
Y20699200D01*
X36525200Y20623000D02*
Y20699200D01*
X36463500Y20800800D02*
Y20877000D01*
X36527000*
Y20800800*
X36463500*
X36527000*
X36463500Y20826200D02*
X36527000D01*
X36463500Y20851600D02*
X36527000D01*
X36463500Y20877000D02*
X36527000D01*
X36474400Y20800800D02*
Y20877000D01*
X36499800Y20800800D02*
Y20877000D01*
X36525200Y20800800D02*
Y20877000D01*
X37937700Y16262700D02*
Y16337300D01*
X38024800*
Y16262700*
X37937700*
X38024800*
X37937700Y16288100D02*
X38024800D01*
X37937700Y16313500D02*
X38024800D01*
X37947600Y16262700D02*
Y16337300D01*
X37973000Y16262700D02*
Y16337300D01*
X37998400Y16262700D02*
Y16337300D01*
X38023800Y16262700D02*
Y16337300D01*
X38163500Y16173000D02*
Y16249200D01*
X38227000*
Y16173000*
X38163500*
X38227000*
X38163500Y16198400D02*
X38227000D01*
X38163500Y16223800D02*
X38227000D01*
X38163500Y16249200D02*
X38227000D01*
X38176200Y16173000D02*
Y16249200D01*
X38201600Y16173000D02*
Y16249200D01*
X38227000Y16173000D02*
Y16249200D01*
X38163500Y16350800D02*
Y16427000D01*
X38227000*
Y16350800*
X38163500*
X38227000*
X38163500Y16376200D02*
X38227000D01*
X38163500Y16401600D02*
X38227000D01*
X38163500Y16427000D02*
X38227000D01*
X38176200Y16350800D02*
Y16427000D01*
X38201600Y16350800D02*
Y16427000D01*
X38227000Y16350800D02*
Y16427000D01*
X37937700Y20712700D02*
Y20787300D01*
X38024800*
Y20712700*
X37937700*
X38024800*
X37937700Y20738100D02*
X38024800D01*
X37937700Y20763500D02*
X38024800D01*
X37947600Y20712700D02*
Y20787300D01*
X37973000Y20712700D02*
Y20787300D01*
X37998400Y20712700D02*
Y20787300D01*
X38023800Y20712700D02*
Y20787300D01*
X38163500Y20623000D02*
Y20699200D01*
X38227000*
Y20623000*
X38163500*
X38227000*
X38163500Y20648400D02*
X38227000D01*
X38163500Y20673800D02*
X38227000D01*
X38163500Y20699200D02*
X38227000D01*
X38176200Y20623000D02*
Y20699200D01*
X38201600Y20623000D02*
Y20699200D01*
X38227000Y20623000D02*
Y20699200D01*
X38163500Y20800800D02*
Y20877000D01*
X38227000*
Y20800800*
X38163500*
X38227000*
X38163500Y20826200D02*
X38227000D01*
X38163500Y20851600D02*
X38227000D01*
X38163500Y20877000D02*
X38227000D01*
X38176200Y20800800D02*
Y20877000D01*
X38201600Y20800800D02*
Y20877000D01*
X38227000Y20800800D02*
Y20877000D01*
X26037700Y20712700D02*
Y20787300D01*
X26124800*
Y20712700*
X26037700*
X26124800*
X26037700Y20738100D02*
X26124800D01*
X26037700Y20763500D02*
X26124800D01*
X26060400Y20712700D02*
Y20787300D01*
X26085800Y20712700D02*
Y20787300D01*
X26111200Y20712700D02*
Y20787300D01*
X26263500Y20623000D02*
Y20699200D01*
X26327000*
Y20623000*
X26263500*
X26327000*
X26263500Y20648400D02*
X26327000D01*
X26263500Y20673800D02*
X26327000D01*
X26263500Y20699200D02*
X26327000D01*
X26263600Y20623000D02*
Y20699200D01*
X26289000Y20623000D02*
Y20699200D01*
X26314400Y20623000D02*
Y20699200D01*
X26263500Y20800800D02*
Y20877000D01*
X26327000*
Y20800800*
X26263500*
X26327000*
X26263500Y20826200D02*
X26327000D01*
X26263500Y20851600D02*
X26327000D01*
X26263500Y20877000D02*
X26327000D01*
X26263600Y20800800D02*
Y20877000D01*
X26289000Y20800800D02*
Y20877000D01*
X26314400Y20800800D02*
Y20877000D01*
X27737700Y16262700D02*
Y16337300D01*
X27824800*
Y16262700*
X27737700*
X27824800*
X27737700Y16288100D02*
X27824800D01*
X27737700Y16313500D02*
X27824800D01*
X27762200Y16262700D02*
Y16337300D01*
X27787600Y16262700D02*
Y16337300D01*
X27813000Y16262700D02*
Y16337300D01*
X27963500Y16173000D02*
Y16249200D01*
X28027000*
Y16173000*
X27963500*
X28027000*
X27963500Y16198400D02*
X28027000D01*
X27963500Y16223800D02*
X28027000D01*
X27963500Y16249200D02*
X28027000D01*
X27965400Y16173000D02*
Y16249200D01*
X27990800Y16173000D02*
Y16249200D01*
X28016200Y16173000D02*
Y16249200D01*
X27963500Y16350800D02*
Y16427000D01*
X28027000*
Y16350800*
X27963500*
X28027000*
X27963500Y16376200D02*
X28027000D01*
X27963500Y16401600D02*
X28027000D01*
X27963500Y16427000D02*
X28027000D01*
X27965400Y16350800D02*
Y16427000D01*
X27990800Y16350800D02*
Y16427000D01*
X28016200Y16350800D02*
Y16427000D01*
X27737700Y20712700D02*
Y20787300D01*
X27824800*
Y20712700*
X27737700*
X27824800*
X27737700Y20738100D02*
X27824800D01*
X27737700Y20763500D02*
X27824800D01*
X27762200Y20712700D02*
Y20787300D01*
X27787600Y20712700D02*
Y20787300D01*
X27813000Y20712700D02*
Y20787300D01*
X27963500Y20623000D02*
Y20699200D01*
X28027000*
Y20623000*
X27963500*
X28027000*
X27963500Y20648400D02*
X28027000D01*
X27963500Y20673800D02*
X28027000D01*
X27963500Y20699200D02*
X28027000D01*
X27965400Y20623000D02*
Y20699200D01*
X27990800Y20623000D02*
Y20699200D01*
X28016200Y20623000D02*
Y20699200D01*
X27963500Y20800800D02*
Y20877000D01*
X28027000*
Y20800800*
X27963500*
X28027000*
X27963500Y20826200D02*
X28027000D01*
X27963500Y20851600D02*
X28027000D01*
X27963500Y20877000D02*
X28027000D01*
X27965400Y20800800D02*
Y20877000D01*
X27990800Y20800800D02*
Y20877000D01*
X28016200Y20800800D02*
Y20877000D01*
X29437700Y16262700D02*
Y16337300D01*
X29524800*
Y16262700*
X29437700*
X29524800*
X29437700Y16288100D02*
X29524800D01*
X29437700Y16313500D02*
X29524800D01*
X29438600Y16262700D02*
Y16337300D01*
X29464000Y16262700D02*
Y16337300D01*
X29489400Y16262700D02*
Y16337300D01*
X29514800Y16262700D02*
Y16337300D01*
X29663500Y16173000D02*
Y16249200D01*
X29727000*
Y16173000*
X29663500*
X29727000*
X29663500Y16198400D02*
X29727000D01*
X29663500Y16223800D02*
X29727000D01*
X29663500Y16249200D02*
X29727000D01*
X29667200Y16173000D02*
Y16249200D01*
X29692600Y16173000D02*
Y16249200D01*
X29718000Y16173000D02*
Y16249200D01*
X29663500Y16350800D02*
Y16427000D01*
X29727000*
Y16350800*
X29663500*
X29727000*
X29663500Y16376200D02*
X29727000D01*
X29663500Y16401600D02*
X29727000D01*
X29663500Y16427000D02*
X29727000D01*
X29667200Y16350800D02*
Y16427000D01*
X29692600Y16350800D02*
Y16427000D01*
X29718000Y16350800D02*
Y16427000D01*
X29437700Y20712700D02*
Y20787300D01*
X29524800*
Y20712700*
X29437700*
X29524800*
X29437700Y20738100D02*
X29524800D01*
X29437700Y20763500D02*
X29524800D01*
X29438600Y20712700D02*
Y20787300D01*
X29464000Y20712700D02*
Y20787300D01*
X29489400Y20712700D02*
Y20787300D01*
X29514800Y20712700D02*
Y20787300D01*
X29663500Y20623000D02*
Y20699200D01*
X29727000*
Y20623000*
X29663500*
X29727000*
X29663500Y20648400D02*
X29727000D01*
X29663500Y20673800D02*
X29727000D01*
X29663500Y20699200D02*
X29727000D01*
X29667200Y20623000D02*
Y20699200D01*
X29692600Y20623000D02*
Y20699200D01*
X29718000Y20623000D02*
Y20699200D01*
X29663500Y20800800D02*
Y20877000D01*
X29727000*
Y20800800*
X29663500*
X29727000*
X29663500Y20826200D02*
X29727000D01*
X29663500Y20851600D02*
X29727000D01*
X29663500Y20877000D02*
X29727000D01*
X29667200Y20800800D02*
Y20877000D01*
X29692600Y20800800D02*
Y20877000D01*
X29718000Y20800800D02*
Y20877000D01*
X31137700Y16262700D02*
Y16337300D01*
X31224800*
Y16262700*
X31137700*
X31224800*
X31137700Y16288100D02*
X31224800D01*
X31137700Y16313500D02*
X31224800D01*
X31140400Y16262700D02*
Y16337300D01*
X31165800Y16262700D02*
Y16337300D01*
X31191200Y16262700D02*
Y16337300D01*
X31216600Y16262700D02*
Y16337300D01*
X31363500Y16173000D02*
Y16249200D01*
X31427000*
Y16173000*
X31363500*
X31427000*
X31363500Y16198400D02*
X31427000D01*
X31363500Y16223800D02*
X31427000D01*
X31363500Y16249200D02*
X31427000D01*
X31369000Y16173000D02*
Y16249200D01*
X31394400Y16173000D02*
Y16249200D01*
X31419800Y16173000D02*
Y16249200D01*
X31363500Y16350800D02*
Y16427000D01*
X31427000*
Y16350800*
X31363500*
X31427000*
X31363500Y16376200D02*
X31427000D01*
X31363500Y16401600D02*
X31427000D01*
X31363500Y16427000D02*
X31427000D01*
X31369000Y16350800D02*
Y16427000D01*
X31394400Y16350800D02*
Y16427000D01*
X31419800Y16350800D02*
Y16427000D01*
X31137700Y20712700D02*
Y20787300D01*
X31224800*
Y20712700*
X31137700*
X31224800*
X31137700Y20738100D02*
X31224800D01*
X31137700Y20763500D02*
X31224800D01*
X31140400Y20712700D02*
Y20787300D01*
X31165800Y20712700D02*
Y20787300D01*
X31191200Y20712700D02*
Y20787300D01*
X31216600Y20712700D02*
Y20787300D01*
X31363500Y20623000D02*
Y20699200D01*
X31427000*
Y20623000*
X31363500*
X31427000*
X31363500Y20648400D02*
X31427000D01*
X31363500Y20673800D02*
X31427000D01*
X31363500Y20699200D02*
X31427000D01*
X31369000Y20623000D02*
Y20699200D01*
X31394400Y20623000D02*
Y20699200D01*
X31419800Y20623000D02*
Y20699200D01*
X31363500Y20800800D02*
Y20877000D01*
X31427000*
Y20800800*
X31363500*
X31427000*
X31363500Y20826200D02*
X31427000D01*
X31363500Y20851600D02*
X31427000D01*
X31363500Y20877000D02*
X31427000D01*
X31369000Y20800800D02*
Y20877000D01*
X31394400Y20800800D02*
Y20877000D01*
X31419800Y20800800D02*
Y20877000D01*
X32837700Y16262700D02*
Y16337300D01*
X32924800*
Y16262700*
X32837700*
X32924800*
X32837700Y16288100D02*
X32924800D01*
X32837700Y16313500D02*
X32924800D01*
X32842200Y16262700D02*
Y16337300D01*
X32867600Y16262700D02*
Y16337300D01*
X32893000Y16262700D02*
Y16337300D01*
X32918400Y16262700D02*
Y16337300D01*
X33063500Y16173000D02*
Y16249200D01*
X33127000*
Y16173000*
X33063500*
X33127000*
X33063500Y16198400D02*
X33127000D01*
X33063500Y16223800D02*
X33127000D01*
X33063500Y16249200D02*
X33127000D01*
X33070800Y16173000D02*
Y16249200D01*
X33096200Y16173000D02*
Y16249200D01*
X33121600Y16173000D02*
Y16249200D01*
X33063500Y16350800D02*
Y16427000D01*
X33127000*
Y16350800*
X33063500*
X33127000*
X33063500Y16376200D02*
X33127000D01*
X33063500Y16401600D02*
X33127000D01*
X33063500Y16427000D02*
X33127000D01*
X33070800Y16350800D02*
Y16427000D01*
X33096200Y16350800D02*
Y16427000D01*
X33121600Y16350800D02*
Y16427000D01*
X26325200Y16650200D02*
Y16787300D01*
X26474800*
Y16650200*
X26325200*
X26474800*
X26325200Y16675600D02*
X26474800D01*
X26325200Y16701000D02*
X26474800D01*
X26325200Y16726400D02*
X26474800D01*
X26325200Y16751800D02*
X26474800D01*
X26325200Y16777200D02*
X26474800D01*
X26339800Y16650200D02*
Y16787300D01*
X26365200Y16650200D02*
Y16787300D01*
X26390600Y16650200D02*
Y16787300D01*
X26416000Y16650200D02*
Y16787300D01*
X26441400Y16650200D02*
Y16787300D01*
X26466800Y16650200D02*
Y16787300D01*
X26325200Y16912700D02*
Y17062300D01*
X26474800*
Y16912700*
X26325200*
X26474800*
X26325200Y16938100D02*
X26474800D01*
X26325200Y16963500D02*
X26474800D01*
X26325200Y16988900D02*
X26474800D01*
X26325200Y17014300D02*
X26474800D01*
X26325200Y17039700D02*
X26474800D01*
X26339800Y16912700D02*
Y17062300D01*
X26365200Y16912700D02*
Y17062300D01*
X26390600Y16912700D02*
Y17062300D01*
X26416000Y16912700D02*
Y17062300D01*
X26441400Y16912700D02*
Y17062300D01*
X26466800Y16912700D02*
Y17062300D01*
X27787300Y21237300D02*
Y21162700D01*
X27712700*
Y21237300*
X27787300*
X27712700Y21162700D02*
X27787300D01*
X27712700Y21188100D02*
X27787300D01*
X27712700Y21213500D02*
X27787300D01*
X27736800Y21162700D02*
Y21237300D01*
X27762200Y21162700D02*
Y21237300D01*
X27787300Y21437300D02*
Y21362700D01*
X27712700*
Y21437300*
X27787300*
X27712700Y21362700D02*
X27787300D01*
X27712700Y21388100D02*
X27787300D01*
X27712700Y21413500D02*
X27787300D01*
X27736800Y21362700D02*
Y21437300D01*
X27762200Y21362700D02*
Y21437300D01*
X27837300Y15912700D02*
X27762700D01*
Y15987300*
X27837300*
Y15912700*
X27762700D02*
X27837300D01*
X27762700Y15938100D02*
X27837300D01*
X27762700Y15963500D02*
X27837300D01*
X27787600Y15912700D02*
Y15987300D01*
X27813000Y15912700D02*
Y15987300D01*
X28037300Y15912700D02*
X27962700D01*
Y15987300*
X28037300*
Y15912700*
X27962700D02*
X28037300D01*
X27962700Y15938100D02*
X28037300D01*
X27962700Y15963500D02*
X28037300D01*
X27965400Y15912700D02*
Y15987300D01*
X27990800Y15912700D02*
Y15987300D01*
X28016200Y15912700D02*
Y15987300D01*
X27837300Y20362700D02*
X27762700D01*
Y20437300*
X27837300*
Y20362700*
X27762700D02*
X27837300D01*
X27762700Y20388100D02*
X27837300D01*
X27762700Y20413500D02*
X27837300D01*
X27787600Y20362700D02*
Y20437300D01*
X27813000Y20362700D02*
Y20437300D01*
X28037300Y20362700D02*
X27962700D01*
Y20437300*
X28037300*
Y20362700*
X27962700D02*
X28037300D01*
X27962700Y20388100D02*
X28037300D01*
X27962700Y20413500D02*
X28037300D01*
X27965400Y20362700D02*
Y20437300D01*
X27990800Y20362700D02*
Y20437300D01*
X28016200Y20362700D02*
Y20437300D01*
X29725200Y16650200D02*
Y16787300D01*
X29874800*
Y16650200*
X29725200*
X29874800*
X29725200Y16675600D02*
X29874800D01*
X29725200Y16701000D02*
X29874800D01*
X29725200Y16726400D02*
X29874800D01*
X29725200Y16751800D02*
X29874800D01*
X29725200Y16777200D02*
X29874800D01*
X29743400Y16650200D02*
Y16787300D01*
X29768800Y16650200D02*
Y16787300D01*
X29794200Y16650200D02*
Y16787300D01*
X29819600Y16650200D02*
Y16787300D01*
X29845000Y16650200D02*
Y16787300D01*
X29870400Y16650200D02*
Y16787300D01*
X29725200Y16912700D02*
Y17062300D01*
X29874800*
Y16912700*
X29725200*
X29874800*
X29725200Y16938100D02*
X29874800D01*
X29725200Y16963500D02*
X29874800D01*
X29725200Y16988900D02*
X29874800D01*
X29725200Y17014300D02*
X29874800D01*
X29725200Y17039700D02*
X29874800D01*
X29743400Y16912700D02*
Y17062300D01*
X29768800Y16912700D02*
Y17062300D01*
X29794200Y16912700D02*
Y17062300D01*
X29819600Y16912700D02*
Y17062300D01*
X29845000Y16912700D02*
Y17062300D01*
X29870400Y16912700D02*
Y17062300D01*
X29725200Y21100200D02*
Y21237300D01*
X29874800*
Y21100200*
X29725200*
X29874800*
X29725200Y21125600D02*
X29874800D01*
X29725200Y21151000D02*
X29874800D01*
X29725200Y21176400D02*
X29874800D01*
X29725200Y21201800D02*
X29874800D01*
X29725200Y21227200D02*
X29874800D01*
X29743400Y21100200D02*
Y21237300D01*
X29768800Y21100200D02*
Y21237300D01*
X29794200Y21100200D02*
Y21237300D01*
X29819600Y21100200D02*
Y21237300D01*
X29845000Y21100200D02*
Y21237300D01*
X29870400Y21100200D02*
Y21237300D01*
X29725200Y21362700D02*
Y21512300D01*
X29874800*
Y21362700*
X29725200*
X29874800*
X29725200Y21388100D02*
X29874800D01*
X29725200Y21413500D02*
X29874800D01*
X29725200Y21438900D02*
X29874800D01*
X29725200Y21464300D02*
X29874800D01*
X29725200Y21489700D02*
X29874800D01*
X29743400Y21362700D02*
Y21512300D01*
X29768800Y21362700D02*
Y21512300D01*
X29794200Y21362700D02*
Y21512300D01*
X29819600Y21362700D02*
Y21512300D01*
X29845000Y21362700D02*
Y21512300D01*
X29870400Y21362700D02*
Y21512300D01*
X29487300Y16787300D02*
Y16712700D01*
X29412700*
Y16787300*
X29487300*
X29412700Y16712700D02*
X29487300D01*
X29412700Y16738100D02*
X29487300D01*
X29412700Y16763500D02*
X29487300D01*
X29413200Y16712700D02*
Y16787300D01*
X29438600Y16712700D02*
Y16787300D01*
X29464000Y16712700D02*
Y16787300D01*
X29487300Y16987300D02*
Y16912700D01*
X29412700*
Y16987300*
X29487300*
X29412700Y16912700D02*
X29487300D01*
X29412700Y16938100D02*
X29487300D01*
X29412700Y16963500D02*
X29487300D01*
X29413200Y16912700D02*
Y16987300D01*
X29438600Y16912700D02*
Y16987300D01*
X29464000Y16912700D02*
Y16987300D01*
X29487300Y21237300D02*
Y21162700D01*
X29412700*
Y21237300*
X29487300*
X29412700Y21162700D02*
X29487300D01*
X29412700Y21188100D02*
X29487300D01*
X29412700Y21213500D02*
X29487300D01*
X29413200Y21162700D02*
Y21237300D01*
X29438600Y21162700D02*
Y21237300D01*
X29464000Y21162700D02*
Y21237300D01*
X29487300Y21437300D02*
Y21362700D01*
X29412700*
Y21437300*
X29487300*
X29412700Y21362700D02*
X29487300D01*
X29412700Y21388100D02*
X29487300D01*
X29412700Y21413500D02*
X29487300D01*
X29413200Y21362700D02*
Y21437300D01*
X29438600Y21362700D02*
Y21437300D01*
X29464000Y21362700D02*
Y21437300D01*
X29537300Y15912700D02*
X29462700D01*
Y15987300*
X29537300*
Y15912700*
X29462700D02*
X29537300D01*
X29462700Y15938100D02*
X29537300D01*
X29462700Y15963500D02*
X29537300D01*
X29464000Y15912700D02*
Y15987300D01*
X29489400Y15912700D02*
Y15987300D01*
X29514800Y15912700D02*
Y15987300D01*
X29737300Y15912700D02*
X29662700D01*
Y15987300*
X29737300*
Y15912700*
X29662700D02*
X29737300D01*
X29662700Y15938100D02*
X29737300D01*
X29662700Y15963500D02*
X29737300D01*
X29667200Y15912700D02*
Y15987300D01*
X29692600Y15912700D02*
Y15987300D01*
X29718000Y15912700D02*
Y15987300D01*
X29537300Y20362700D02*
X29462700D01*
Y20437300*
X29537300*
Y20362700*
X29462700D02*
X29537300D01*
X29462700Y20388100D02*
X29537300D01*
X29462700Y20413500D02*
X29537300D01*
X29464000Y20362700D02*
Y20437300D01*
X29489400Y20362700D02*
Y20437300D01*
X29514800Y20362700D02*
Y20437300D01*
X29737300Y20362700D02*
X29662700D01*
Y20437300*
X29737300*
Y20362700*
X29662700D02*
X29737300D01*
X29662700Y20388100D02*
X29737300D01*
X29662700Y20413500D02*
X29737300D01*
X29667200Y20362700D02*
Y20437300D01*
X29692600Y20362700D02*
Y20437300D01*
X29718000Y20362700D02*
Y20437300D01*
X31425200Y16650200D02*
Y16787300D01*
X31574800*
Y16650200*
X31425200*
X31574800*
X31425200Y16675600D02*
X31574800D01*
X31425200Y16701000D02*
X31574800D01*
X31425200Y16726400D02*
X31574800D01*
X31425200Y16751800D02*
X31574800D01*
X31425200Y16777200D02*
X31574800D01*
X31445200Y16650200D02*
Y16787300D01*
X31470600Y16650200D02*
Y16787300D01*
X31496000Y16650200D02*
Y16787300D01*
X31521400Y16650200D02*
Y16787300D01*
X31546800Y16650200D02*
Y16787300D01*
X31572200Y16650200D02*
Y16787300D01*
X31425200Y16912700D02*
Y17062300D01*
X31574800*
Y16912700*
X31425200*
X31574800*
X31425200Y16938100D02*
X31574800D01*
X31425200Y16963500D02*
X31574800D01*
X31425200Y16988900D02*
X31574800D01*
X31425200Y17014300D02*
X31574800D01*
X31425200Y17039700D02*
X31574800D01*
X31445200Y16912700D02*
Y17062300D01*
X31470600Y16912700D02*
Y17062300D01*
X31496000Y16912700D02*
Y17062300D01*
X31521400Y16912700D02*
Y17062300D01*
X31546800Y16912700D02*
Y17062300D01*
X31572200Y16912700D02*
Y17062300D01*
X26325200Y21100200D02*
Y21237300D01*
X26474800*
Y21100200*
X26325200*
X26474800*
X26325200Y21125600D02*
X26474800D01*
X26325200Y21151000D02*
X26474800D01*
X26325200Y21176400D02*
X26474800D01*
X26325200Y21201800D02*
X26474800D01*
X26325200Y21227200D02*
X26474800D01*
X26339800Y21100200D02*
Y21237300D01*
X26365200Y21100200D02*
Y21237300D01*
X26390600Y21100200D02*
Y21237300D01*
X26416000Y21100200D02*
Y21237300D01*
X26441400Y21100200D02*
Y21237300D01*
X26466800Y21100200D02*
Y21237300D01*
X26325200Y21362700D02*
Y21512300D01*
X26474800*
Y21362700*
X26325200*
X26474800*
X26325200Y21388100D02*
X26474800D01*
X26325200Y21413500D02*
X26474800D01*
X26325200Y21438900D02*
X26474800D01*
X26325200Y21464300D02*
X26474800D01*
X26325200Y21489700D02*
X26474800D01*
X26339800Y21362700D02*
Y21512300D01*
X26365200Y21362700D02*
Y21512300D01*
X26390600Y21362700D02*
Y21512300D01*
X26416000Y21362700D02*
Y21512300D01*
X26441400Y21362700D02*
Y21512300D01*
X26466800Y21362700D02*
Y21512300D01*
X31425200Y21100200D02*
Y21237300D01*
X31574800*
Y21100200*
X31425200*
X31574800*
X31425200Y21125600D02*
X31574800D01*
X31425200Y21151000D02*
X31574800D01*
X31425200Y21176400D02*
X31574800D01*
X31425200Y21201800D02*
X31574800D01*
X31425200Y21227200D02*
X31574800D01*
X31445200Y21100200D02*
Y21237300D01*
X31470600Y21100200D02*
Y21237300D01*
X31496000Y21100200D02*
Y21237300D01*
X31521400Y21100200D02*
Y21237300D01*
X31546800Y21100200D02*
Y21237300D01*
X31572200Y21100200D02*
Y21237300D01*
X31425200Y21362700D02*
Y21512300D01*
X31574800*
Y21362700*
X31425200*
X31574800*
X31425200Y21388100D02*
X31574800D01*
X31425200Y21413500D02*
X31574800D01*
X31425200Y21438900D02*
X31574800D01*
X31425200Y21464300D02*
X31574800D01*
X31425200Y21489700D02*
X31574800D01*
X31445200Y21362700D02*
Y21512300D01*
X31470600Y21362700D02*
Y21512300D01*
X31496000Y21362700D02*
Y21512300D01*
X31521400Y21362700D02*
Y21512300D01*
X31546800Y21362700D02*
Y21512300D01*
X31572200Y21362700D02*
Y21512300D01*
X31187300Y16787300D02*
Y16712700D01*
X31112700*
Y16787300*
X31187300*
X31112700Y16712700D02*
X31187300D01*
X31112700Y16738100D02*
X31187300D01*
X31112700Y16763500D02*
X31187300D01*
X31115000Y16712700D02*
Y16787300D01*
X31140400Y16712700D02*
Y16787300D01*
X31165800Y16712700D02*
Y16787300D01*
X31187300Y16987300D02*
Y16912700D01*
X31112700*
Y16987300*
X31187300*
X31112700Y16912700D02*
X31187300D01*
X31112700Y16938100D02*
X31187300D01*
X31112700Y16963500D02*
X31187300D01*
X31115000Y16912700D02*
Y16987300D01*
X31140400Y16912700D02*
Y16987300D01*
X31165800Y16912700D02*
Y16987300D01*
X31187300Y21237300D02*
Y21162700D01*
X31112700*
Y21237300*
X31187300*
X31112700Y21162700D02*
X31187300D01*
X31112700Y21188100D02*
X31187300D01*
X31112700Y21213500D02*
X31187300D01*
X31115000Y21162700D02*
Y21237300D01*
X31140400Y21162700D02*
Y21237300D01*
X31165800Y21162700D02*
Y21237300D01*
X31187300Y21437300D02*
Y21362700D01*
X31112700*
Y21437300*
X31187300*
X31112700Y21362700D02*
X31187300D01*
X31112700Y21388100D02*
X31187300D01*
X31112700Y21413500D02*
X31187300D01*
X31115000Y21362700D02*
Y21437300D01*
X31140400Y21362700D02*
Y21437300D01*
X31165800Y21362700D02*
Y21437300D01*
X31237300Y15912700D02*
X31162700D01*
Y15987300*
X31237300*
Y15912700*
X31162700D02*
X31237300D01*
X31162700Y15938100D02*
X31237300D01*
X31162700Y15963500D02*
X31237300D01*
X31165800Y15912700D02*
Y15987300D01*
X31191200Y15912700D02*
Y15987300D01*
X31216600Y15912700D02*
Y15987300D01*
X31437300Y15912700D02*
X31362700D01*
Y15987300*
X31437300*
Y15912700*
X31362700D02*
X31437300D01*
X31362700Y15938100D02*
X31437300D01*
X31362700Y15963500D02*
X31437300D01*
X31369000Y15912700D02*
Y15987300D01*
X31394400Y15912700D02*
Y15987300D01*
X31419800Y15912700D02*
Y15987300D01*
X31237300Y20362700D02*
X31162700D01*
Y20437300*
X31237300*
Y20362700*
X31162700D02*
X31237300D01*
X31162700Y20388100D02*
X31237300D01*
X31162700Y20413500D02*
X31237300D01*
X31165800Y20362700D02*
Y20437300D01*
X31191200Y20362700D02*
Y20437300D01*
X31216600Y20362700D02*
Y20437300D01*
X31437300Y20362700D02*
X31362700D01*
Y20437300*
X31437300*
Y20362700*
X31362700D02*
X31437300D01*
X31362700Y20388100D02*
X31437300D01*
X31362700Y20413500D02*
X31437300D01*
X31369000Y20362700D02*
Y20437300D01*
X31394400Y20362700D02*
Y20437300D01*
X31419800Y20362700D02*
Y20437300D01*
X33125200Y16650200D02*
Y16787300D01*
X33274800*
Y16650200*
X33125200*
X33274800*
X33125200Y16675600D02*
X33274800D01*
X33125200Y16701000D02*
X33274800D01*
X33125200Y16726400D02*
X33274800D01*
X33125200Y16751800D02*
X33274800D01*
X33125200Y16777200D02*
X33274800D01*
X33147000Y16650200D02*
Y16787300D01*
X33172400Y16650200D02*
Y16787300D01*
X33197800Y16650200D02*
Y16787300D01*
X33223200Y16650200D02*
Y16787300D01*
X33248600Y16650200D02*
Y16787300D01*
X33274000Y16650200D02*
Y16787300D01*
X33125200Y16912700D02*
Y17062300D01*
X33274800*
Y16912700*
X33125200*
X33274800*
X33125200Y16938100D02*
X33274800D01*
X33125200Y16963500D02*
X33274800D01*
X33125200Y16988900D02*
X33274800D01*
X33125200Y17014300D02*
X33274800D01*
X33125200Y17039700D02*
X33274800D01*
X33147000Y16912700D02*
Y17062300D01*
X33172400Y16912700D02*
Y17062300D01*
X33197800Y16912700D02*
Y17062300D01*
X33223200Y16912700D02*
Y17062300D01*
X33248600Y16912700D02*
Y17062300D01*
X33274000Y16912700D02*
Y17062300D01*
X33125200Y21100200D02*
Y21237300D01*
X33274800*
Y21100200*
X33125200*
X33274800*
X33125200Y21125600D02*
X33274800D01*
X33125200Y21151000D02*
X33274800D01*
X33125200Y21176400D02*
X33274800D01*
X33125200Y21201800D02*
X33274800D01*
X33125200Y21227200D02*
X33274800D01*
X33147000Y21100200D02*
Y21237300D01*
X33172400Y21100200D02*
Y21237300D01*
X33197800Y21100200D02*
Y21237300D01*
X33223200Y21100200D02*
Y21237300D01*
X33248600Y21100200D02*
Y21237300D01*
X33274000Y21100200D02*
Y21237300D01*
X33125200Y21362700D02*
Y21512300D01*
X33274800*
Y21362700*
X33125200*
X33274800*
X33125200Y21388100D02*
X33274800D01*
X33125200Y21413500D02*
X33274800D01*
X33125200Y21438900D02*
X33274800D01*
X33125200Y21464300D02*
X33274800D01*
X33125200Y21489700D02*
X33274800D01*
X33147000Y21362700D02*
Y21512300D01*
X33172400Y21362700D02*
Y21512300D01*
X33197800Y21362700D02*
Y21512300D01*
X33223200Y21362700D02*
Y21512300D01*
X33248600Y21362700D02*
Y21512300D01*
X33274000Y21362700D02*
Y21512300D01*
X32887300Y16787300D02*
Y16712700D01*
X32812700*
Y16787300*
X32887300*
X32812700Y16712700D02*
X32887300D01*
X32812700Y16738100D02*
X32887300D01*
X32812700Y16763500D02*
X32887300D01*
X32816800Y16712700D02*
Y16787300D01*
X32842200Y16712700D02*
Y16787300D01*
X32867600Y16712700D02*
Y16787300D01*
X32887300Y16987300D02*
Y16912700D01*
X32812700*
Y16987300*
X32887300*
X32812700Y16912700D02*
X32887300D01*
X32812700Y16938100D02*
X32887300D01*
X32812700Y16963500D02*
X32887300D01*
X32816800Y16912700D02*
Y16987300D01*
X32842200Y16912700D02*
Y16987300D01*
X32867600Y16912700D02*
Y16987300D01*
X32887300Y21237300D02*
Y21162700D01*
X32812700*
Y21237300*
X32887300*
X32812700Y21162700D02*
X32887300D01*
X32812700Y21188100D02*
X32887300D01*
X32812700Y21213500D02*
X32887300D01*
X32816800Y21162700D02*
Y21237300D01*
X32842200Y21162700D02*
Y21237300D01*
X32867600Y21162700D02*
Y21237300D01*
X32887300Y21437300D02*
Y21362700D01*
X32812700*
Y21437300*
X32887300*
X32812700Y21362700D02*
X32887300D01*
X32812700Y21388100D02*
X32887300D01*
X32812700Y21413500D02*
X32887300D01*
X32816800Y21362700D02*
Y21437300D01*
X32842200Y21362700D02*
Y21437300D01*
X32867600Y21362700D02*
Y21437300D01*
X32937300Y15912700D02*
X32862700D01*
Y15987300*
X32937300*
Y15912700*
X32862700D02*
X32937300D01*
X32862700Y15938100D02*
X32937300D01*
X32862700Y15963500D02*
X32937300D01*
X32867600Y15912700D02*
Y15987300D01*
X32893000Y15912700D02*
Y15987300D01*
X32918400Y15912700D02*
Y15987300D01*
X33137300Y15912700D02*
X33062700D01*
Y15987300*
X33137300*
Y15912700*
X33062700D02*
X33137300D01*
X33062700Y15938100D02*
X33137300D01*
X33062700Y15963500D02*
X33137300D01*
X33070800Y15912700D02*
Y15987300D01*
X33096200Y15912700D02*
Y15987300D01*
X33121600Y15912700D02*
Y15987300D01*
X26087300Y16787300D02*
Y16712700D01*
X26012700*
Y16787300*
X26087300*
X26012700Y16712700D02*
X26087300D01*
X26012700Y16738100D02*
X26087300D01*
X26012700Y16763500D02*
X26087300D01*
X26035000Y16712700D02*
Y16787300D01*
X26060400Y16712700D02*
Y16787300D01*
X26085800Y16712700D02*
Y16787300D01*
X26087300Y16987300D02*
Y16912700D01*
X26012700*
Y16987300*
X26087300*
X26012700Y16912700D02*
X26087300D01*
X26012700Y16938100D02*
X26087300D01*
X26012700Y16963500D02*
X26087300D01*
X26035000Y16912700D02*
Y16987300D01*
X26060400Y16912700D02*
Y16987300D01*
X26085800Y16912700D02*
Y16987300D01*
X32937300Y20362700D02*
X32862700D01*
Y20437300*
X32937300*
Y20362700*
X32862700D02*
X32937300D01*
X32862700Y20388100D02*
X32937300D01*
X32862700Y20413500D02*
X32937300D01*
X32867600Y20362700D02*
Y20437300D01*
X32893000Y20362700D02*
Y20437300D01*
X32918400Y20362700D02*
Y20437300D01*
X33137300Y20362700D02*
X33062700D01*
Y20437300*
X33137300*
Y20362700*
X33062700D02*
X33137300D01*
X33062700Y20388100D02*
X33137300D01*
X33062700Y20413500D02*
X33137300D01*
X33070800Y20362700D02*
Y20437300D01*
X33096200Y20362700D02*
Y20437300D01*
X33121600Y20362700D02*
Y20437300D01*
X34825200Y16650200D02*
Y16787300D01*
X34974800*
Y16650200*
X34825200*
X34974800*
X34825200Y16675600D02*
X34974800D01*
X34825200Y16701000D02*
X34974800D01*
X34825200Y16726400D02*
X34974800D01*
X34825200Y16751800D02*
X34974800D01*
X34825200Y16777200D02*
X34974800D01*
X34848800Y16650200D02*
Y16787300D01*
X34874200Y16650200D02*
Y16787300D01*
X34899600Y16650200D02*
Y16787300D01*
X34925000Y16650200D02*
Y16787300D01*
X34950400Y16650200D02*
Y16787300D01*
X34825200Y16912700D02*
Y17062300D01*
X34974800*
Y16912700*
X34825200*
X34974800*
X34825200Y16938100D02*
X34974800D01*
X34825200Y16963500D02*
X34974800D01*
X34825200Y16988900D02*
X34974800D01*
X34825200Y17014300D02*
X34974800D01*
X34825200Y17039700D02*
X34974800D01*
X34848800Y16912700D02*
Y17062300D01*
X34874200Y16912700D02*
Y17062300D01*
X34899600Y16912700D02*
Y17062300D01*
X34925000Y16912700D02*
Y17062300D01*
X34950400Y16912700D02*
Y17062300D01*
X34587300Y16787300D02*
Y16712700D01*
X34512700*
Y16787300*
X34587300*
X34512700Y16712700D02*
X34587300D01*
X34512700Y16738100D02*
X34587300D01*
X34512700Y16763500D02*
X34587300D01*
X34518600Y16712700D02*
Y16787300D01*
X34544000Y16712700D02*
Y16787300D01*
X34569400Y16712700D02*
Y16787300D01*
X34587300Y16987300D02*
Y16912700D01*
X34512700*
Y16987300*
X34587300*
X34512700Y16912700D02*
X34587300D01*
X34512700Y16938100D02*
X34587300D01*
X34512700Y16963500D02*
X34587300D01*
X34518600Y16912700D02*
Y16987300D01*
X34544000Y16912700D02*
Y16987300D01*
X34569400Y16912700D02*
Y16987300D01*
X34825200Y21100200D02*
Y21237300D01*
X34974800*
Y21100200*
X34825200*
X34974800*
X34825200Y21125600D02*
X34974800D01*
X34825200Y21151000D02*
X34974800D01*
X34825200Y21176400D02*
X34974800D01*
X34825200Y21201800D02*
X34974800D01*
X34825200Y21227200D02*
X34974800D01*
X34848800Y21100200D02*
Y21237300D01*
X34874200Y21100200D02*
Y21237300D01*
X34899600Y21100200D02*
Y21237300D01*
X34925000Y21100200D02*
Y21237300D01*
X34950400Y21100200D02*
Y21237300D01*
X34825200Y21362700D02*
Y21512300D01*
X34974800*
Y21362700*
X34825200*
X34974800*
X34825200Y21388100D02*
X34974800D01*
X34825200Y21413500D02*
X34974800D01*
X34825200Y21438900D02*
X34974800D01*
X34825200Y21464300D02*
X34974800D01*
X34825200Y21489700D02*
X34974800D01*
X34848800Y21362700D02*
Y21512300D01*
X34874200Y21362700D02*
Y21512300D01*
X34899600Y21362700D02*
Y21512300D01*
X34925000Y21362700D02*
Y21512300D01*
X34950400Y21362700D02*
Y21512300D01*
X34587300Y21237300D02*
Y21162700D01*
X34512700*
Y21237300*
X34587300*
X34512700Y21162700D02*
X34587300D01*
X34512700Y21188100D02*
X34587300D01*
X34512700Y21213500D02*
X34587300D01*
X34518600Y21162700D02*
Y21237300D01*
X34544000Y21162700D02*
Y21237300D01*
X34569400Y21162700D02*
Y21237300D01*
X34587300Y21437300D02*
Y21362700D01*
X34512700*
Y21437300*
X34587300*
X34512700Y21362700D02*
X34587300D01*
X34512700Y21388100D02*
X34587300D01*
X34512700Y21413500D02*
X34587300D01*
X34518600Y21362700D02*
Y21437300D01*
X34544000Y21362700D02*
Y21437300D01*
X34569400Y21362700D02*
Y21437300D01*
X34637300Y15912700D02*
X34562700D01*
Y15987300*
X34637300*
Y15912700*
X34562700D02*
X34637300D01*
X34562700Y15938100D02*
X34637300D01*
X34562700Y15963500D02*
X34637300D01*
X34569400Y15912700D02*
Y15987300D01*
X34594800Y15912700D02*
Y15987300D01*
X34620200Y15912700D02*
Y15987300D01*
X34837300Y15912700D02*
X34762700D01*
Y15987300*
X34837300*
Y15912700*
X34762700D02*
X34837300D01*
X34762700Y15938100D02*
X34837300D01*
X34762700Y15963500D02*
X34837300D01*
X34772600Y15912700D02*
Y15987300D01*
X34798000Y15912700D02*
Y15987300D01*
X34823400Y15912700D02*
Y15987300D01*
X34637300Y20362700D02*
X34562700D01*
Y20437300*
X34637300*
Y20362700*
X34562700D02*
X34637300D01*
X34562700Y20388100D02*
X34637300D01*
X34562700Y20413500D02*
X34637300D01*
X34569400Y20362700D02*
Y20437300D01*
X34594800Y20362700D02*
Y20437300D01*
X34620200Y20362700D02*
Y20437300D01*
X34837300Y20362700D02*
X34762700D01*
Y20437300*
X34837300*
Y20362700*
X34762700D02*
X34837300D01*
X34762700Y20388100D02*
X34837300D01*
X34762700Y20413500D02*
X34837300D01*
X34772600Y20362700D02*
Y20437300D01*
X34798000Y20362700D02*
Y20437300D01*
X34823400Y20362700D02*
Y20437300D01*
X36525200Y16650200D02*
Y16787300D01*
X36674800*
Y16650200*
X36525200*
X36674800*
X36525200Y16675600D02*
X36674800D01*
X36525200Y16701000D02*
X36674800D01*
X36525200Y16726400D02*
X36674800D01*
X36525200Y16751800D02*
X36674800D01*
X36525200Y16777200D02*
X36674800D01*
X36525200Y16650200D02*
Y16787300D01*
X36550600Y16650200D02*
Y16787300D01*
X36576000Y16650200D02*
Y16787300D01*
X36601400Y16650200D02*
Y16787300D01*
X36626800Y16650200D02*
Y16787300D01*
X36652200Y16650200D02*
Y16787300D01*
X36525200Y16912700D02*
Y17062300D01*
X36674800*
Y16912700*
X36525200*
X36674800*
X36525200Y16938100D02*
X36674800D01*
X36525200Y16963500D02*
X36674800D01*
X36525200Y16988900D02*
X36674800D01*
X36525200Y17014300D02*
X36674800D01*
X36525200Y17039700D02*
X36674800D01*
X36525200Y16912700D02*
Y17062300D01*
X36550600Y16912700D02*
Y17062300D01*
X36576000Y16912700D02*
Y17062300D01*
X36601400Y16912700D02*
Y17062300D01*
X36626800Y16912700D02*
Y17062300D01*
X36652200Y16912700D02*
Y17062300D01*
X36525200Y21100200D02*
Y21237300D01*
X36674800*
Y21100200*
X36525200*
X36674800*
X36525200Y21125600D02*
X36674800D01*
X36525200Y21151000D02*
X36674800D01*
X36525200Y21176400D02*
X36674800D01*
X36525200Y21201800D02*
X36674800D01*
X36525200Y21227200D02*
X36674800D01*
X36525200Y21100200D02*
Y21237300D01*
X36550600Y21100200D02*
Y21237300D01*
X36576000Y21100200D02*
Y21237300D01*
X36601400Y21100200D02*
Y21237300D01*
X36626800Y21100200D02*
Y21237300D01*
X36652200Y21100200D02*
Y21237300D01*
X36525200Y21362700D02*
Y21512300D01*
X36674800*
Y21362700*
X36525200*
X36674800*
X36525200Y21388100D02*
X36674800D01*
X36525200Y21413500D02*
X36674800D01*
X36525200Y21438900D02*
X36674800D01*
X36525200Y21464300D02*
X36674800D01*
X36525200Y21489700D02*
X36674800D01*
X36525200Y21362700D02*
Y21512300D01*
X36550600Y21362700D02*
Y21512300D01*
X36576000Y21362700D02*
Y21512300D01*
X36601400Y21362700D02*
Y21512300D01*
X36626800Y21362700D02*
Y21512300D01*
X36652200Y21362700D02*
Y21512300D01*
X36287300Y16787300D02*
Y16712700D01*
X36212700*
Y16787300*
X36287300*
X36212700Y16712700D02*
X36287300D01*
X36212700Y16738100D02*
X36287300D01*
X36212700Y16763500D02*
X36287300D01*
X36220400Y16712700D02*
Y16787300D01*
X36245800Y16712700D02*
Y16787300D01*
X36271200Y16712700D02*
Y16787300D01*
X36287300Y16987300D02*
Y16912700D01*
X36212700*
Y16987300*
X36287300*
X36212700Y16912700D02*
X36287300D01*
X36212700Y16938100D02*
X36287300D01*
X36212700Y16963500D02*
X36287300D01*
X36220400Y16912700D02*
Y16987300D01*
X36245800Y16912700D02*
Y16987300D01*
X36271200Y16912700D02*
Y16987300D01*
X26087300Y21237300D02*
Y21162700D01*
X26012700*
Y21237300*
X26087300*
X26012700Y21162700D02*
X26087300D01*
X26012700Y21188100D02*
X26087300D01*
X26012700Y21213500D02*
X26087300D01*
X26035000Y21162700D02*
Y21237300D01*
X26060400Y21162700D02*
Y21237300D01*
X26085800Y21162700D02*
Y21237300D01*
X26087300Y21437300D02*
Y21362700D01*
X26012700*
Y21437300*
X26087300*
X26012700Y21362700D02*
X26087300D01*
X26012700Y21388100D02*
X26087300D01*
X26012700Y21413500D02*
X26087300D01*
X26035000Y21362700D02*
Y21437300D01*
X26060400Y21362700D02*
Y21437300D01*
X26085800Y21362700D02*
Y21437300D01*
X36287300Y21237300D02*
Y21162700D01*
X36212700*
Y21237300*
X36287300*
X36212700Y21162700D02*
X36287300D01*
X36212700Y21188100D02*
X36287300D01*
X36212700Y21213500D02*
X36287300D01*
X36220400Y21162700D02*
Y21237300D01*
X36245800Y21162700D02*
Y21237300D01*
X36271200Y21162700D02*
Y21237300D01*
X36287300Y21437300D02*
Y21362700D01*
X36212700*
Y21437300*
X36287300*
X36212700Y21362700D02*
X36287300D01*
X36212700Y21388100D02*
X36287300D01*
X36212700Y21413500D02*
X36287300D01*
X36220400Y21362700D02*
Y21437300D01*
X36245800Y21362700D02*
Y21437300D01*
X36271200Y21362700D02*
Y21437300D01*
X36337300Y15912700D02*
X36262700D01*
Y15987300*
X36337300*
Y15912700*
X36262700D02*
X36337300D01*
X36262700Y15938100D02*
X36337300D01*
X36262700Y15963500D02*
X36337300D01*
X36271200Y15912700D02*
Y15987300D01*
X36296600Y15912700D02*
Y15987300D01*
X36322000Y15912700D02*
Y15987300D01*
X36537300Y15912700D02*
X36462700D01*
Y15987300*
X36537300*
Y15912700*
X36462700D02*
X36537300D01*
X36462700Y15938100D02*
X36537300D01*
X36462700Y15963500D02*
X36537300D01*
X36474400Y15912700D02*
Y15987300D01*
X36499800Y15912700D02*
Y15987300D01*
X36525200Y15912700D02*
Y15987300D01*
X36337300Y20362700D02*
X36262700D01*
Y20437300*
X36337300*
Y20362700*
X36262700D02*
X36337300D01*
X36262700Y20388100D02*
X36337300D01*
X36262700Y20413500D02*
X36337300D01*
X36271200Y20362700D02*
Y20437300D01*
X36296600Y20362700D02*
Y20437300D01*
X36322000Y20362700D02*
Y20437300D01*
X36537300Y20362700D02*
X36462700D01*
Y20437300*
X36537300*
Y20362700*
X36462700D02*
X36537300D01*
X36462700Y20388100D02*
X36537300D01*
X36462700Y20413500D02*
X36537300D01*
X36474400Y20362700D02*
Y20437300D01*
X36499800Y20362700D02*
Y20437300D01*
X36525200Y20362700D02*
Y20437300D01*
X38225200Y16650200D02*
Y16787300D01*
X38374800*
Y16650200*
X38225200*
X38374800*
X38225200Y16675600D02*
X38374800D01*
X38225200Y16701000D02*
X38374800D01*
X38225200Y16726400D02*
X38374800D01*
X38225200Y16751800D02*
X38374800D01*
X38225200Y16777200D02*
X38374800D01*
X38227000Y16650200D02*
Y16787300D01*
X38252400Y16650200D02*
Y16787300D01*
X38277800Y16650200D02*
Y16787300D01*
X38303200Y16650200D02*
Y16787300D01*
X38328600Y16650200D02*
Y16787300D01*
X38354000Y16650200D02*
Y16787300D01*
X38225200Y16912700D02*
Y17062300D01*
X38374800*
Y16912700*
X38225200*
X38374800*
X38225200Y16938100D02*
X38374800D01*
X38225200Y16963500D02*
X38374800D01*
X38225200Y16988900D02*
X38374800D01*
X38225200Y17014300D02*
X38374800D01*
X38225200Y17039700D02*
X38374800D01*
X38227000Y16912700D02*
Y17062300D01*
X38252400Y16912700D02*
Y17062300D01*
X38277800Y16912700D02*
Y17062300D01*
X38303200Y16912700D02*
Y17062300D01*
X38328600Y16912700D02*
Y17062300D01*
X38354000Y16912700D02*
Y17062300D01*
X37987300Y16787300D02*
Y16712700D01*
X37912700*
Y16787300*
X37987300*
X37912700Y16712700D02*
X37987300D01*
X37912700Y16738100D02*
X37987300D01*
X37912700Y16763500D02*
X37987300D01*
X37922200Y16712700D02*
Y16787300D01*
X37947600Y16712700D02*
Y16787300D01*
X37973000Y16712700D02*
Y16787300D01*
X37987300Y16987300D02*
Y16912700D01*
X37912700*
Y16987300*
X37987300*
X37912700Y16912700D02*
X37987300D01*
X37912700Y16938100D02*
X37987300D01*
X37912700Y16963500D02*
X37987300D01*
X37922200Y16912700D02*
Y16987300D01*
X37947600Y16912700D02*
Y16987300D01*
X37973000Y16912700D02*
Y16987300D01*
X38225200Y21100200D02*
Y21237300D01*
X38374800*
Y21100200*
X38225200*
X38374800*
X38225200Y21125600D02*
X38374800D01*
X38225200Y21151000D02*
X38374800D01*
X38225200Y21176400D02*
X38374800D01*
X38225200Y21201800D02*
X38374800D01*
X38225200Y21227200D02*
X38374800D01*
X38227000Y21100200D02*
Y21237300D01*
X38252400Y21100200D02*
Y21237300D01*
X38277800Y21100200D02*
Y21237300D01*
X38303200Y21100200D02*
Y21237300D01*
X38328600Y21100200D02*
Y21237300D01*
X38354000Y21100200D02*
Y21237300D01*
X38225200Y21362700D02*
Y21512300D01*
X38374800*
Y21362700*
X38225200*
X38374800*
X38225200Y21388100D02*
X38374800D01*
X38225200Y21413500D02*
X38374800D01*
X38225200Y21438900D02*
X38374800D01*
X38225200Y21464300D02*
X38374800D01*
X38225200Y21489700D02*
X38374800D01*
X38227000Y21362700D02*
Y21512300D01*
X38252400Y21362700D02*
Y21512300D01*
X38277800Y21362700D02*
Y21512300D01*
X38303200Y21362700D02*
Y21512300D01*
X38328600Y21362700D02*
Y21512300D01*
X38354000Y21362700D02*
Y21512300D01*
X37987300Y21237300D02*
Y21162700D01*
X37912700*
Y21237300*
X37987300*
X37912700Y21162700D02*
X37987300D01*
X37912700Y21188100D02*
X37987300D01*
X37912700Y21213500D02*
X37987300D01*
X37922200Y21162700D02*
Y21237300D01*
X37947600Y21162700D02*
Y21237300D01*
X37973000Y21162700D02*
Y21237300D01*
X37987300Y21437300D02*
Y21362700D01*
X37912700*
Y21437300*
X37987300*
X37912700Y21362700D02*
X37987300D01*
X37912700Y21388100D02*
X37987300D01*
X37912700Y21413500D02*
X37987300D01*
X37922200Y21362700D02*
Y21437300D01*
X37947600Y21362700D02*
Y21437300D01*
X37973000Y21362700D02*
Y21437300D01*
X38037300Y15912700D02*
X37962700D01*
Y15987300*
X38037300*
Y15912700*
X37962700D02*
X38037300D01*
X37962700Y15938100D02*
X38037300D01*
X37962700Y15963500D02*
X38037300D01*
X37973000Y15912700D02*
Y15987300D01*
X37998400Y15912700D02*
Y15987300D01*
X38023800Y15912700D02*
Y15987300D01*
X38237300Y15912700D02*
X38162700D01*
Y15987300*
X38237300*
Y15912700*
X38162700D02*
X38237300D01*
X38162700Y15938100D02*
X38237300D01*
X38162700Y15963500D02*
X38237300D01*
X38176200Y15912700D02*
Y15987300D01*
X38201600Y15912700D02*
Y15987300D01*
X38227000Y15912700D02*
Y15987300D01*
X38037300Y20362700D02*
X37962700D01*
Y20437300*
X38037300*
Y20362700*
X37962700D02*
X38037300D01*
X37962700Y20388100D02*
X38037300D01*
X37962700Y20413500D02*
X38037300D01*
X37973000Y20362700D02*
Y20437300D01*
X37998400Y20362700D02*
Y20437300D01*
X38023800Y20362700D02*
Y20437300D01*
X38237300Y20362700D02*
X38162700D01*
Y20437300*
X38237300*
Y20362700*
X38162700D02*
X38237300D01*
X38162700Y20388100D02*
X38237300D01*
X38162700Y20413500D02*
X38237300D01*
X38176200Y20362700D02*
Y20437300D01*
X38201600Y20362700D02*
Y20437300D01*
X38227000Y20362700D02*
Y20437300D01*
X26137300Y15912700D02*
X26062700D01*
Y15987300*
X26137300*
Y15912700*
X26062700D02*
X26137300D01*
X26062700Y15938100D02*
X26137300D01*
X26062700Y15963500D02*
X26137300D01*
X26085800Y15912700D02*
Y15987300D01*
X26111200Y15912700D02*
Y15987300D01*
X26136600Y15912700D02*
Y15987300D01*
X26337300Y15912700D02*
X26262700D01*
Y15987300*
X26337300*
Y15912700*
X26262700D02*
X26337300D01*
X26262700Y15938100D02*
X26337300D01*
X26262700Y15963500D02*
X26337300D01*
X26263600Y15912700D02*
Y15987300D01*
X26289000Y15912700D02*
Y15987300D01*
X26314400Y15912700D02*
Y15987300D01*
X26137300Y20362700D02*
X26062700D01*
Y20437300*
X26137300*
Y20362700*
X26062700D02*
X26137300D01*
X26062700Y20388100D02*
X26137300D01*
X26062700Y20413500D02*
X26137300D01*
X26085800Y20362700D02*
Y20437300D01*
X26111200Y20362700D02*
Y20437300D01*
X26136600Y20362700D02*
Y20437300D01*
X26337300Y20362700D02*
X26262700D01*
Y20437300*
X26337300*
Y20362700*
X26262700D02*
X26337300D01*
X26262700Y20388100D02*
X26337300D01*
X26262700Y20413500D02*
X26337300D01*
X26263600Y20362700D02*
Y20437300D01*
X26289000Y20362700D02*
Y20437300D01*
X26314400Y20362700D02*
Y20437300D01*
X28025200Y16650200D02*
Y16787300D01*
X28174800*
Y16650200*
X28025200*
X28174800*
X28025200Y16675600D02*
X28174800D01*
X28025200Y16701000D02*
X28174800D01*
X28025200Y16726400D02*
X28174800D01*
X28025200Y16751800D02*
X28174800D01*
X28025200Y16777200D02*
X28174800D01*
X28041600Y16650200D02*
Y16787300D01*
X28067000Y16650200D02*
Y16787300D01*
X28092400Y16650200D02*
Y16787300D01*
X28117800Y16650200D02*
Y16787300D01*
X28143200Y16650200D02*
Y16787300D01*
X28168600Y16650200D02*
Y16787300D01*
X28025200Y16912700D02*
Y17062300D01*
X28174800*
Y16912700*
X28025200*
X28174800*
X28025200Y16938100D02*
X28174800D01*
X28025200Y16963500D02*
X28174800D01*
X28025200Y16988900D02*
X28174800D01*
X28025200Y17014300D02*
X28174800D01*
X28025200Y17039700D02*
X28174800D01*
X28041600Y16912700D02*
Y17062300D01*
X28067000Y16912700D02*
Y17062300D01*
X28092400Y16912700D02*
Y17062300D01*
X28117800Y16912700D02*
Y17062300D01*
X28143200Y16912700D02*
Y17062300D01*
X28168600Y16912700D02*
Y17062300D01*
X27787300Y16787300D02*
Y16712700D01*
X27712700*
Y16787300*
X27787300*
X27712700Y16712700D02*
X27787300D01*
X27712700Y16738100D02*
X27787300D01*
X27712700Y16763500D02*
X27787300D01*
X27736800Y16712700D02*
Y16787300D01*
X27762200Y16712700D02*
Y16787300D01*
X27787300Y16987300D02*
Y16912700D01*
X27712700*
Y16987300*
X27787300*
X27712700Y16912700D02*
X27787300D01*
X27712700Y16938100D02*
X27787300D01*
X27712700Y16963500D02*
X27787300D01*
X27736800Y16912700D02*
Y16987300D01*
X27762200Y16912700D02*
Y16987300D01*
X28025200Y21100200D02*
Y21237300D01*
X28174800*
Y21100200*
X28025200*
X28174800*
X28025200Y21125600D02*
X28174800D01*
X28025200Y21151000D02*
X28174800D01*
X28025200Y21176400D02*
X28174800D01*
X28025200Y21201800D02*
X28174800D01*
X28025200Y21227200D02*
X28174800D01*
X28041600Y21100200D02*
Y21237300D01*
X28067000Y21100200D02*
Y21237300D01*
X28092400Y21100200D02*
Y21237300D01*
X28117800Y21100200D02*
Y21237300D01*
X28143200Y21100200D02*
Y21237300D01*
X28168600Y21100200D02*
Y21237300D01*
X28025200Y21362700D02*
Y21512300D01*
X28174800*
Y21362700*
X28025200*
X28174800*
X28025200Y21388100D02*
X28174800D01*
X28025200Y21413500D02*
X28174800D01*
X28025200Y21438900D02*
X28174800D01*
X28025200Y21464300D02*
X28174800D01*
X28025200Y21489700D02*
X28174800D01*
X28041600Y21362700D02*
Y21512300D01*
X28067000Y21362700D02*
Y21512300D01*
X28092400Y21362700D02*
Y21512300D01*
X28117800Y21362700D02*
Y21512300D01*
X28143200Y21362700D02*
Y21512300D01*
X28168600Y21362700D02*
Y21512300D01*
X25400000Y12700000D02*
Y25400000D01*
X39660000*
Y12700000*
X25400000*
G54D61*
X36075000Y24200000D03*
Y23700000D03*
X35075000Y24200000D03*
Y23700000D03*
X36075000Y24200000D03*
Y23700000D03*
X35075000Y24200000D03*
Y23700000D03*
X35324000Y24973000D02*
X35578000D01*
G54D62*
X35475000Y24100000D03*
Y23800000D03*
X35675000Y24100000D03*
Y23800000D03*
X36475000Y24100000D03*
Y23800000D03*
X36675000Y24100000D03*
Y23800000D03*
X36875000Y24100000D03*
Y23800000D03*
X26339700Y16211100D03*
Y16388900D03*
X26050000Y16300000D03*
X33139700Y20661100D03*
Y20838900D03*
X32850000Y20750000D03*
X34839700Y16211100D03*
Y16388900D03*
X34550000Y16300000D03*
X34839700Y20661100D03*
Y20838900D03*
X34550000Y20750000D03*
X36539700Y16211100D03*
Y16388900D03*
X36250000Y16300000D03*
X36539700Y20661100D03*
Y20838900D03*
X36250000Y20750000D03*
X38239700Y16211100D03*
Y16388900D03*
X37950000Y16300000D03*
X38239700Y20661100D03*
Y20838900D03*
X37950000Y20750000D03*
X26339700Y20661100D03*
Y20838900D03*
X26050000Y20750000D03*
X28039700Y16211100D03*
Y16388900D03*
X27750000Y16300000D03*
X28039700Y20661100D03*
Y20838900D03*
X27750000Y20750000D03*
X29739700Y16211100D03*
Y16388900D03*
X29450000Y16300000D03*
X29739700Y20661100D03*
Y20838900D03*
X29450000Y20750000D03*
X31439700Y16211100D03*
Y16388900D03*
X31150000Y16300000D03*
X31439700Y20661100D03*
Y20838900D03*
X31150000Y20750000D03*
X33139700Y16211100D03*
Y16388900D03*
X32850000Y16300000D03*
X26400000Y17050000D03*
Y16662500D03*
X27750000Y21450000D03*
Y21150000D03*
X28050000Y15950000D03*
X27750000D03*
X28050000Y20400000D03*
X27750000D03*
X29800000Y17050000D03*
Y16662500D03*
Y21500000D03*
Y21112500D03*
X29450000Y17000000D03*
Y16700000D03*
Y21450000D03*
Y21150000D03*
X29750000Y15950000D03*
X29450000D03*
X29750000Y20400000D03*
X29450000D03*
X31500000Y17050000D03*
Y16662500D03*
X26400000Y21500000D03*
Y21112500D03*
X31500000Y21500000D03*
Y21112500D03*
X31150000Y17000000D03*
Y16700000D03*
Y21450000D03*
Y21150000D03*
X31450000Y15950000D03*
X31150000D03*
X31450000Y20400000D03*
X31150000D03*
X33200000Y17050000D03*
Y16662500D03*
Y21500000D03*
Y21112500D03*
X32850000Y17000000D03*
Y16700000D03*
Y21450000D03*
Y21150000D03*
X33150000Y15950000D03*
X32850000D03*
X26050000Y17000000D03*
Y16700000D03*
X33150000Y20400000D03*
X32850000D03*
X34900000Y17050000D03*
Y16662500D03*
X34550000Y17000000D03*
Y16700000D03*
X34900000Y21500000D03*
Y21112500D03*
X34550000Y21450000D03*
Y21150000D03*
X34850000Y15950000D03*
X34550000D03*
X34850000Y20400000D03*
X34550000D03*
X36600000Y17050000D03*
Y16662500D03*
Y21500000D03*
Y21112500D03*
X36250000Y17000000D03*
Y16700000D03*
X26050000Y21450000D03*
Y21150000D03*
X36250000Y21450000D03*
Y21150000D03*
X36550000Y15950000D03*
X36250000D03*
X36550000Y20400000D03*
X36250000D03*
X38300000Y17050000D03*
Y16662500D03*
X37950000Y17000000D03*
Y16700000D03*
X38300000Y21500000D03*
Y21112500D03*
X37950000Y21450000D03*
Y21150000D03*
X38250000Y15950000D03*
X37950000D03*
X38250000Y20400000D03*
X37950000D03*
X26350000Y15950000D03*
X26050000D03*
X26350000Y20400000D03*
X26050000D03*
X28100000Y17050000D03*
Y16662500D03*
X27750000Y17000000D03*
Y16700000D03*
X28100000Y21500000D03*
Y21112500D03*
X35475000Y24100000D03*
Y23800000D03*
X35675000Y24100000D03*
Y23800000D03*
X36475000Y24100000D03*
Y23800000D03*
X36675000Y24100000D03*
Y23800000D03*
X36875000Y24100000D03*
Y23800000D03*
X26339700Y16211100D03*
Y16388900D03*
X26050000Y16300000D03*
X33139700Y20661100D03*
Y20838900D03*
X32850000Y20750000D03*
X34839700Y16211100D03*
Y16388900D03*
X34550000Y16300000D03*
X34839700Y20661100D03*
Y20838900D03*
X34550000Y20750000D03*
X36539700Y16211100D03*
Y16388900D03*
X36250000Y16300000D03*
X36539700Y20661100D03*
Y20838900D03*
X36250000Y20750000D03*
X38239700Y16211100D03*
Y16388900D03*
X37950000Y16300000D03*
X38239700Y20661100D03*
Y20838900D03*
X37950000Y20750000D03*
X26339700Y20661100D03*
Y20838900D03*
X26050000Y20750000D03*
X28039700Y16211100D03*
Y16388900D03*
X27750000Y16300000D03*
X28039700Y20661100D03*
Y20838900D03*
X27750000Y20750000D03*
X29739700Y16211100D03*
Y16388900D03*
X29450000Y16300000D03*
X29739700Y20661100D03*
Y20838900D03*
X29450000Y20750000D03*
X31439700Y16211100D03*
Y16388900D03*
X31150000Y16300000D03*
X31439700Y20661100D03*
Y20838900D03*
X31150000Y20750000D03*
X33139700Y16211100D03*
Y16388900D03*
X32850000Y16300000D03*
X26400000Y17050000D03*
Y16662500D03*
X27750000Y21450000D03*
Y21150000D03*
X28050000Y15950000D03*
X27750000D03*
X28050000Y20400000D03*
X27750000D03*
X29800000Y17050000D03*
Y16662500D03*
Y21500000D03*
Y21112500D03*
X29450000Y17000000D03*
Y16700000D03*
Y21450000D03*
Y21150000D03*
X29750000Y15950000D03*
X29450000D03*
X29750000Y20400000D03*
X29450000D03*
X31500000Y17050000D03*
Y16662500D03*
X26400000Y21500000D03*
Y21112500D03*
X31500000Y21500000D03*
Y21112500D03*
X31150000Y17000000D03*
Y16700000D03*
Y21450000D03*
Y21150000D03*
X31450000Y15950000D03*
X31150000D03*
X31450000Y20400000D03*
X31150000D03*
X33200000Y17050000D03*
Y16662500D03*
Y21500000D03*
Y21112500D03*
X32850000Y17000000D03*
Y16700000D03*
Y21450000D03*
Y21150000D03*
X33150000Y15950000D03*
X32850000D03*
X26050000Y17000000D03*
Y16700000D03*
X33150000Y20400000D03*
X32850000D03*
X34900000Y17050000D03*
Y16662500D03*
X34550000Y17000000D03*
Y16700000D03*
X34900000Y21500000D03*
Y21112500D03*
X34550000Y21450000D03*
Y21150000D03*
X34850000Y15950000D03*
X34550000D03*
X34850000Y20400000D03*
X34550000D03*
X36600000Y17050000D03*
Y16662500D03*
Y21500000D03*
Y21112500D03*
X36250000Y17000000D03*
Y16700000D03*
X26050000Y21450000D03*
Y21150000D03*
X36250000Y21450000D03*
Y21150000D03*
X36550000Y15950000D03*
X36250000D03*
X36550000Y20400000D03*
X36250000D03*
X38300000Y17050000D03*
Y16662500D03*
X37950000Y17000000D03*
Y16700000D03*
X38300000Y21500000D03*
Y21112500D03*
X37950000Y21450000D03*
Y21150000D03*
X38250000Y15950000D03*
X37950000D03*
X38250000Y20400000D03*
X37950000D03*
X26350000Y15950000D03*
X26050000D03*
X26350000Y20400000D03*
X26050000D03*
X28100000Y17050000D03*
Y16662500D03*
X27750000Y17000000D03*
Y16700000D03*
X28100000Y21500000D03*
Y21112500D03*
G54D63*
X30752000Y13127000D02*
Y14702000D01*
X30850000Y14800000*
Y19075000*
X31640000Y13001000D02*
Y14287500D01*
X31727500Y14375000*
X34100000*
X34175000Y14450000*
X31640000Y13001000D02*
X31768000Y12873000D01*
Y13127000D02*
Y14212500D01*
X31855500Y14300000*
X34150000*
X34250000Y14400000*
Y19075000*
X31768000Y13127000D02*
Y14212500D01*
X31855500Y14300000*
X34150000*
X34250000Y14400000*
X31514000Y13127000D02*
Y14362500D01*
X31601500Y14450000*
X33512500*
X33600000Y14537500*
Y15600000*
X31514000Y13127000D02*
Y14362500D01*
X31601500Y14450000*
X33512500*
X33600000Y14537500*
Y15600000*
X33622000Y15622000*
X33900000*
X31260000Y13127000D02*
Y14512500D01*
X31347500Y14600000*
X32450000*
X32550000Y14700000*
Y19075000*
X31260000Y13127000D02*
Y14512500D01*
X31347500Y14600000*
X32450000*
X32550000Y14700000*
X31006000Y13127000D02*
Y14662500D01*
X31093500Y14750000*
X31812500*
X31900000Y14837500*
Y15600000*
X31006000Y13127000D02*
Y14662500D01*
X31093500Y14750000*
X31812500*
X31900000Y14837500*
Y15600000*
X31922000Y15622000*
X32200000*
X32660000Y12997000D02*
Y13687500D01*
X32747500Y13775000*
X37500000*
X37575000Y13850000*
X32660000Y12997000D02*
X32784000Y12873000D01*
X32400000Y13003000D02*
Y13837500D01*
X32487500Y13925000*
X35875000*
X36025000Y14075000*
Y14862500*
X36112500Y14950000*
X36700000*
X32400000Y13003000D02*
X32530000Y12873000D01*
X32150000Y12999000D02*
Y13987500D01*
X32237500Y14075000*
X35775000*
X35875000Y14175000*
X32150000Y12999000D02*
X32276000Y12873000D01*
X31900000Y12995000D02*
Y14137500D01*
X31987500Y14225000*
X34200000*
X34325000Y14350000*
Y14862500*
X34412500Y14950000*
X35000000*
X31900000Y12995000D02*
X32022000Y12873000D01*
X32784000Y13127000D02*
Y13612500D01*
X32871500Y13700000*
X37550000*
X37650000Y13800000*
Y19075000*
X32784000Y13127000D02*
Y13612500D01*
X32871500Y13700000*
X37550000*
X37650000Y13800000*
X32530000Y13127000D02*
Y13762500D01*
X32617500Y13850000*
X36912500*
X37000000Y13937500*
X32530000Y13127000D02*
Y13762500D01*
X32617500Y13850000*
X36912500*
X37000000Y13937500*
Y15600000*
X37022000Y15622000*
X37300000*
X32276000Y13127000D02*
Y13912500D01*
X32363500Y14000000*
X35825000*
X35950000Y14125000*
Y19075000*
X32276000Y13127000D02*
Y13912500D01*
X32363500Y14000000*
X35825000*
X35950000Y14125000*
X32022000Y13127000D02*
Y14062500D01*
X32109500Y14150000*
X35212500*
X35300000Y14237500*
Y15600000*
X32022000Y13127000D02*
Y14062500D01*
X32109500Y14150000*
X35212500*
X35300000Y14237500*
Y15600000*
X35322000Y15622000*
X35600000*
X33165000Y13000000D02*
Y13387500D01*
X33252500Y13475000*
X37700000*
X37875000Y13650000*
Y14550000*
X37975000Y14650000*
X39200000*
X39275000Y14725000*
X33165000Y13000000D02*
X33292000Y12873000D01*
X32910000Y13001000D02*
Y13537500D01*
X32997500Y13625000*
X37600000*
X37725000Y13750000*
Y14862500*
X37812500Y14950000*
X38400000*
X32910000Y13001000D02*
X33038000Y12873000D01*
X33292000Y13127000D02*
Y13312500D01*
X33379500Y13400000*
X37750000*
X37950000Y13600000*
Y14500000*
X38025000Y14575000*
X39250000*
X39350000Y14675000*
Y19075000*
X33292000Y13127000D02*
Y13312500D01*
X33379500Y13400000*
X37750000*
X37950000Y13600000*
Y14500000*
X38025000Y14575000*
X39250000*
X39350000Y14675000*
X33038000Y13127000D02*
Y13462500D01*
X33125500Y13550000*
X37650000*
X37800000Y13700000*
Y14600000*
X37925000Y14725000*
X38612500*
X38700000Y14812500*
Y15600000*
X33038000Y13127000D02*
Y13462500D01*
X33125500Y13550000*
X37650000*
X37800000Y13700000*
Y14600000*
X37925000Y14725000*
X38612500*
X38700000Y14812500*
Y15600000*
X38722000Y15622000*
X39000000*
X26800000Y14212500D02*
Y15600000D01*
X26822000Y15622000*
X27100000*
X26800000Y14212500D02*
X26887500Y14125000D01*
X29394500*
X29482000Y14037500*
Y13127000*
X26500000Y14950000D02*
Y14137500D01*
X26587500Y14050000*
X29212500*
X29300000Y13962500*
Y12923000*
X29350000Y12873000*
X29482000*
X27100000Y14950000D02*
X27300000Y15150000D01*
Y15930000*
X28200000Y14950000D02*
Y14437500D01*
X28287500Y14350000*
X29772500*
X29860000Y14262500*
Y13003000*
X29990000Y12873000*
X28800000Y14950000D02*
X29000000Y15150000D01*
Y15930000*
X30630000Y14730000D02*
Y12995000D01*
X30752000Y12873000*
X30630000Y14730000D02*
X30775000Y14875000D01*
Y19025000*
X30200000Y14675000D02*
Y15600000D01*
X30222000Y15622000*
X30500000*
X30200000Y14675000D02*
X30498000Y14377000D01*
Y13127000*
X29900000Y14950000D02*
Y14825000D01*
X30375000Y14350000*
Y12996000*
X30498000Y12873000*
X30500000Y14950000D02*
X30700000Y15150000D01*
Y15930000*
X31390000Y14437500D02*
Y12997000D01*
X31514000Y12873000*
X31390000Y14437500D02*
X31477500Y14525000D01*
X32525000*
X32625000Y14625000*
Y14862500*
X32712500Y14950000*
X33300000*
X31130000Y14587500D02*
Y13003000D01*
X31260000Y12873000*
X31130000Y14587500D02*
X31217500Y14675000D01*
X32387500*
X32475000Y14762500*
Y19025000*
X30880000Y14680000D02*
Y12999000D01*
X31006000Y12873000*
X30880000Y14680000D02*
X31150000Y14950000D01*
X31600000*
X32200000D02*
X32400000Y15150000D01*
Y15930000*
X33900000Y14950000D02*
X34100000Y15150000D01*
Y15930000*
X35600000Y14950000D02*
X35800000Y15150000D01*
X37300000Y14950000D02*
X37500000Y15150000D01*
X39000000Y14950000D02*
X39200000Y15150000D01*
X26339700Y16211100D02*
X26350000Y16200800D01*
Y15950000*
Y15600000D02*
X26800000D01*
Y14212500*
X26887500Y14125000*
X29394500*
X29482000Y14037500*
Y13127000*
X27100000Y16130000D02*
X27300000Y15930000D01*
X28500000Y15600000D02*
Y14512500D01*
X28587500Y14425000*
X29850000*
X29990000Y14285000*
Y13127000*
X28500000Y15600000D02*
X28522000Y15622000D01*
X28800000*
Y16130000D02*
X29000000Y15930000D01*
X28039700Y16211100D02*
X28050000Y16200800D01*
Y15950000*
Y15600000D02*
X28500000D01*
Y14512500*
X28587500Y14425000*
X29850000*
X29990000Y14285000*
Y13127000*
X29739700Y16211100D02*
X29750000Y16200800D01*
Y15950000*
Y15600000D02*
X30200000D01*
Y14675000*
X30498000Y14377000*
Y13127000*
X30500000Y16130000D02*
X30700000Y15930000D01*
X31439700Y16211100D02*
X31450000Y16200800D01*
Y15950000*
Y15600000D02*
X31900000D01*
X32200000Y16130000D02*
X32400000Y15930000D01*
X33900000Y16130000D02*
X34100000Y15930000D01*
X33139700Y16211100D02*
X33150000Y16200800D01*
Y15950000*
Y15600000D02*
X33600000D01*
X34400000Y16350000D02*
Y17575000D01*
X34450000Y17625000*
X34750000*
X34800000Y17575000*
Y17450000*
X34400000Y16350000D02*
X34450000Y16300000D01*
X34550000*
X34839700Y16211100D02*
X34850000Y16200800D01*
Y15950000*
Y15600000D02*
X35300000D01*
X35600000Y16130000D02*
X35800000Y15930000D01*
Y15150000*
X36539700Y16211100D02*
X36550000Y16200800D01*
Y15950000*
Y15600000D02*
X37000000D01*
Y13937500*
X37300000Y16130000D02*
X37500000Y15930000D01*
Y15150000*
X38239700Y16211100D02*
X38250000Y16200800D01*
Y15950000*
Y15600000D02*
X38700000D01*
X39000000Y16130000D02*
X39200000Y15930000D01*
Y15150000*
X26050000Y17000000D02*
Y17200000D01*
X26100000Y17250000*
Y17450000*
X26400000Y17050000D02*
Y17121000D01*
X26425000Y17146000*
X27100000*
X27750000Y17000000D02*
Y17200000D01*
X27800000Y17250000*
Y17450000*
X28100000Y17050000D02*
Y17121000D01*
X28125000Y17146000*
X28800000*
X29450000Y17000000D02*
Y17200000D01*
X29500000Y17250000*
Y17450000*
X29800000Y17050000D02*
Y17121000D01*
X29825000Y17146000*
X30500000*
X31150000Y17000000D02*
Y17200000D01*
X31200000Y17250000*
Y17450000*
X31500000Y17050000D02*
Y17121000D01*
X31525000Y17146000*
X32200000*
X32850000Y17000000D02*
Y17200000D01*
X32900000Y17250000*
Y17450000*
X33200000Y17050000D02*
Y17121000D01*
X33225000Y17146000*
X33900000*
X34550000Y17000000D02*
Y17200000D01*
X34600000Y17250000*
Y17450000*
X34900000Y17050000D02*
Y17121000D01*
X34925000Y17146000*
X35600000*
X36250000Y17000000D02*
Y17200000D01*
X36300000Y17250000*
Y17450000*
X36600000Y17050000D02*
Y17121000D01*
X36625000Y17146000*
X37300000*
X37950000Y17000000D02*
Y17200000D01*
X38000000Y17250000*
Y17450000*
X38300000Y17050000D02*
Y17121000D01*
X38325000Y17146000*
X39000000*
X25900000Y17550000D02*
Y17575000D01*
X25950000Y17625000*
X26250000*
X26300000Y17575000*
Y17450000*
X25900000Y17550000D02*
Y16350000D01*
X25950000Y16300000*
X26050000*
X26300000Y17450000D02*
X26575000D01*
X26625000Y17400000*
X27100000*
X27600000Y17550000D02*
Y17575000D01*
X27650000Y17625000*
X27950000*
X28000000Y17575000*
Y17450000*
X27600000Y17550000D02*
Y16350000D01*
X27650000Y16300000*
X27750000*
X28000000Y17450000D02*
X28275000D01*
X28325000Y17400000*
X28800000*
X29300000Y17550000D02*
Y16350000D01*
X29350000Y16300000*
X29450000*
X29300000Y17550000D02*
Y17575000D01*
X29350000Y17625000*
X29650000*
X29700000Y17575000*
Y17450000*
X29975000*
X30025000Y17400000*
X30500000*
X31000000Y17550000D02*
Y16350000D01*
X31050000Y16300000*
X31150000*
X31000000Y17550000D02*
Y17575000D01*
X31050000Y17625000*
X31350000*
X31400000Y17575000*
Y17450000*
X31675000*
X31725000Y17400000*
X32200000*
X32700000Y17550000D02*
Y16350000D01*
X32750000Y16300000*
X32850000*
X32700000Y17550000D02*
Y17575000D01*
X32750000Y17625000*
X33050000*
X33100000Y17575000*
Y17450000*
X33375000*
X33425000Y17400000*
X33900000*
X34800000Y17450000D02*
X35075000D01*
X35125000Y17400000*
X35600000*
X36100000Y17550000D02*
Y16350000D01*
X36150000Y16300000*
X36250000*
X36100000Y17550000D02*
Y17575000D01*
X36150000Y17625000*
X36450000*
X36500000Y17575000*
Y17450000*
X36775000*
X36825000Y17400000*
X37300000*
X37800000Y17575000D02*
Y16350000D01*
X37850000Y16300000*
X37950000*
X37800000Y17575000D02*
X37850000Y17625000D01*
X38150000*
X38200000Y17575000*
Y17450000*
X38475000*
X38525000Y17400000*
X39000000*
X26500000Y19400000D02*
Y19150000D01*
X26550000Y19100000*
X27300000*
X27375000Y19025000*
Y14300000*
X27475000Y14200000*
X29522500*
X29610000Y14112500*
Y12999000*
X29736000Y12873000*
X26800000Y19225000D02*
Y20050000D01*
X26822000Y20072000*
X27100000*
X26800000Y19225000D02*
X26850000Y19175000D01*
X27350000*
X27450000Y19075000*
Y14350000*
X27525000Y14275000*
X29648500*
X29736000Y14187500*
Y13127000*
X27100000Y19400000D02*
X27300000Y19600000D01*
Y20380000*
X28500000Y19262500D02*
Y20050000D01*
X28522000Y20072000*
X28800000*
X28500000Y19262500D02*
X28587500Y19175000D01*
X29050000*
X29150000Y19075000*
Y14650000*
X29225000Y14575000*
X30000000*
X30244000Y14331000*
Y13127000*
X28200000Y19400000D02*
Y19175000D01*
X28275000Y19100000*
X29000000*
X29075000Y19025000*
Y14600000*
X29175000Y14500000*
X29925000*
X30120000Y14305000*
Y12997000*
X30244000Y12873000*
X28800000Y19400000D02*
X29000000Y19600000D01*
Y20380000*
X29900000Y19400000D02*
Y19175000D01*
X29975000Y19100000*
X30700000*
X30775000Y19025000*
X30500000Y19400000D02*
X30700000Y19600000D01*
Y20380000*
X31600000Y19400000D02*
Y19175000D01*
X31675000Y19100000*
X32400000*
X32475000Y19025000*
X31900000Y19262500D02*
Y20050000D01*
X31922000Y20072000*
X32200000*
X31900000Y19262500D02*
X31987500Y19175000D01*
X32450000*
X32550000Y19075000*
Y14700000*
X32200000Y19400000D02*
X32400000Y19600000D01*
Y20380000*
X33600000Y19262500D02*
Y20050000D01*
X33622000Y20072000*
X33900000*
X33600000Y19262500D02*
X33687500Y19175000D01*
X34150000*
X34250000Y19075000*
Y14400000*
X33300000Y19400000D02*
Y19175000D01*
X33375000Y19100000*
X34100000*
X34175000Y19025000*
Y14450000*
X33900000Y19400000D02*
X34100000Y19600000D01*
Y20380000*
X35300000Y19262500D02*
Y20050000D01*
X35322000Y20072000*
X35600000*
X35300000Y19262500D02*
X35387500Y19175000D01*
X35850000*
X35950000Y19075000*
Y14125000*
X35000000Y19400000D02*
Y19175000D01*
X35075000Y19100000*
X35800000*
X35875000Y19025000*
Y14175000*
X35600000Y19400000D02*
X35800000Y19600000D01*
X36700000Y19400000D02*
Y19175000D01*
X36775000Y19100000*
X37500000*
X37575000Y19025000*
Y13850000*
X37000000Y19262500D02*
Y20050000D01*
X37022000Y20072000*
X37300000*
X37000000Y19262500D02*
X37087500Y19175000D01*
X37550000*
X37650000Y19075000*
Y13800000*
X37300000Y19400000D02*
X37500000Y19600000D01*
X38700000Y19262500D02*
Y20050000D01*
X38722000Y20072000*
X39000000*
X38700000Y19262500D02*
X38787500Y19175000D01*
X39250000*
X39350000Y19075000*
Y14675000*
X38400000Y19400000D02*
Y19175000D01*
X38475000Y19100000*
X39200000*
X39275000Y19025000*
Y14725000*
X39000000Y19400000D02*
X39200000Y19600000D01*
X26350000Y20050000D02*
X26800000D01*
Y19225000*
X26850000Y19175000*
X27350000*
X27450000Y19075000*
Y14350000*
X27525000Y14275000*
X29648500*
X29736000Y14187500*
Y13127000*
X28050000Y20050000D02*
X28500000D01*
Y19262500*
X28587500Y19175000*
X29050000*
X29150000Y19075000*
Y14650000*
X29225000Y14575000*
X30000000*
X30244000Y14331000*
Y13127000*
X29750000Y20050000D02*
X30200000D01*
Y19262500*
X30287500Y19175000*
X30750000*
X30850000Y19075000*
X30200000Y20050000D02*
Y19262500D01*
X30287500Y19175000*
X30750000*
X30850000Y19075000*
X30200000Y20050000D02*
X30222000Y20072000D01*
X30500000*
X31450000Y20050000D02*
X31900000D01*
Y19262500*
X31987500Y19175000*
X32450000*
X32550000Y19075000*
X33150000Y20050000D02*
X33600000D01*
Y19262500*
X33687500Y19175000*
X34150000*
X34250000Y19075000*
X34850000Y20050000D02*
X35300000D01*
Y19262500*
X35387500Y19175000*
X35850000*
X35950000Y19075000*
X36550000Y20050000D02*
X37000000D01*
Y19262500*
X37087500Y19175000*
X37550000*
X37650000Y19075000*
X38250000Y20050000D02*
X38700000D01*
Y19262500*
X38787500Y19175000*
X39250000*
X39350000Y19075000*
X26050000Y21450000D02*
Y21650000D01*
X26100000Y21700000*
Y21900000*
X26339700Y20661100D02*
X26350000Y20650800D01*
Y20400000*
X27600000Y20800000D02*
Y22025000D01*
X27650000Y22075000*
X27950000*
X28000000Y22025000*
Y21900000*
X27600000Y20800000D02*
X27650000Y20750000D01*
X27750000*
X27100000Y20580000D02*
X27300000Y20380000D01*
X27750000Y21450000D02*
Y21650000D01*
X27800000Y21700000*
Y21900000*
X28800000Y20580000D02*
X29000000Y20380000D01*
X28039700Y20661100D02*
X28050000Y20650800D01*
Y20400000*
X29300000Y20800000D02*
Y22025000D01*
X29350000Y22075000*
X29650000*
X29700000Y22025000*
Y21900000*
X29300000Y20800000D02*
X29350000Y20750000D01*
X29450000*
Y21450000D02*
Y21650000D01*
X29500000Y21700000*
Y21900000*
X29739700Y20661100D02*
X29750000Y20650800D01*
Y20400000*
X30500000Y20580000D02*
X30700000Y20380000D01*
X31000000Y20800000D02*
Y22025000D01*
X31050000Y22075000*
X31350000*
X31400000Y22025000*
Y21900000*
X31000000Y20800000D02*
X31050000Y20750000D01*
X31150000*
Y21450000D02*
Y21650000D01*
X31200000Y21700000*
Y21900000*
X31439700Y20661100D02*
X31450000Y20650800D01*
Y20400000*
X32700000Y20800000D02*
Y22025000D01*
X32750000Y22075000*
X33050000*
X33100000Y22025000*
Y21900000*
X32700000Y20800000D02*
X32750000Y20750000D01*
X32850000*
X32200000Y20580000D02*
X32400000Y20380000D01*
X32850000Y21450000D02*
Y21650000D01*
X32900000Y21700000*
Y21900000*
X33900000Y20580000D02*
X34100000Y20380000D01*
X33139700Y20661100D02*
X33150000Y20650800D01*
Y20400000*
X34400000Y20800000D02*
Y22025000D01*
X34450000Y22075000*
X34750000*
X34800000Y22025000*
Y21900000*
X34400000Y20800000D02*
X34450000Y20750000D01*
X34550000*
Y21450000D02*
Y21650000D01*
X34600000Y21700000*
Y21900000*
X34839700Y20661100D02*
X34850000Y20650800D01*
Y20400000*
X35600000Y20580000D02*
X35800000Y20380000D01*
Y19600000*
X36250000Y21450000D02*
Y21650000D01*
X36300000Y21700000*
Y21900000*
X36539700Y20661100D02*
X36550000Y20650800D01*
Y20400000*
X37800000Y20800000D02*
Y22025000D01*
X37850000Y22075000*
X38150000*
X38200000Y22025000*
Y21900000*
X37800000Y20800000D02*
X37850000Y20750000D01*
X37950000*
X37300000Y20580000D02*
X37500000Y20380000D01*
Y19600000*
X37950000Y21450000D02*
Y21650000D01*
X38000000Y21700000*
Y21900000*
X38239700Y20661100D02*
X38250000Y20650800D01*
Y20400000*
X39000000Y20580000D02*
X39200000Y20380000D01*
Y19600000*
X25900000Y22000000D02*
Y22025000D01*
X25950000Y22075000*
X26250000*
X26300000Y22025000*
Y21900000*
X25900000Y22000000D02*
Y20800000D01*
X25950000Y20750000*
X26050000*
X26400000Y21500000D02*
Y21571000D01*
X26425000Y21596000*
X27100000*
X26300000Y21900000D02*
X26575000D01*
X26625000Y21850000*
X27100000*
X28100000Y21500000D02*
Y21571000D01*
X28125000Y21596000*
X28800000*
X28000000Y21900000D02*
X28275000D01*
X28325000Y21850000*
X28800000*
X29800000Y21500000D02*
Y21571000D01*
X29825000Y21596000*
X30500000*
X29700000Y21900000D02*
X29975000D01*
X30025000Y21850000*
X30500000*
X31500000Y21500000D02*
Y21571000D01*
X31525000Y21596000*
X32200000*
X31400000Y21900000D02*
X31675000D01*
X31725000Y21850000*
X32200000*
X33200000Y21500000D02*
Y21571000D01*
X33225000Y21596000*
X33900000*
X33100000Y21900000D02*
X33375000D01*
X33425000Y21850000*
X33900000*
X34900000Y21500000D02*
Y21571000D01*
X34925000Y21596000*
X35600000*
X34800000Y21900000D02*
X35075000D01*
X35125000Y21850000*
X35600000*
X36100000Y22025000D02*
Y20800000D01*
X36150000Y20750000*
X36250000*
X36100000Y22025000D02*
X36150000Y22075000D01*
X36450000*
X36500000Y22025000*
Y21900000*
X36600000Y21500000D02*
Y21571000D01*
X36625000Y21596000*
X37300000*
X36500000Y21900000D02*
X36775000D01*
X36825000Y21850000*
X37300000*
X38300000Y21500000D02*
Y21571000D01*
X38325000Y21596000*
X39000000*
X38200000Y21900000D02*
X38475000D01*
X38525000Y21850000*
X39000000*
G54D98*
X31450000Y20050000D03*
X33150000Y15600000D03*
Y20050000D03*
X34850000Y15600000D03*
Y20050000D03*
X36550000Y15600000D03*
Y20050000D03*
X38250000Y15600000D03*
Y20050000D03*
X26350000Y15600000D03*
Y20050000D03*
X28050000Y15600000D03*
Y20050000D03*
X29750000Y15600000D03*
Y20050000D03*
X31450000Y15600000D03*
G54D103*
X31196000Y20050000D03*
X32896000Y15600000D03*
Y20050000D03*
X34596000Y15600000D03*
Y20050000D03*
X36296000Y15600000D03*
Y20050000D03*
X37996000Y15600000D03*
Y20050000D03*
X26096000Y15600000D03*
Y20050000D03*
X27796000Y15600000D03*
Y20050000D03*
X29496000Y15600000D03*
Y20050000D03*
X31196000Y15600000D03*
G54D104*
X27100000Y17400000D03*
X33900000Y21850000D03*
X35600000Y17400000D03*
Y21850000D03*
X37300000Y17400000D03*
Y21850000D03*
X39000000Y17400000D03*
Y21850000D03*
X27100000D03*
X28800000Y17400000D03*
Y21850000D03*
X30500000Y17400000D03*
Y21850000D03*
X32200000Y17400000D03*
Y21850000D03*
X33900000Y17400000D03*
G54D105*
X27100000Y17146000D03*
Y15622000D03*
Y16130000D03*
X33900000Y21596000D03*
Y20072000D03*
Y20580000D03*
X35600000Y17146000D03*
Y15622000D03*
Y16130000D03*
Y21596000D03*
Y20072000D03*
Y20580000D03*
X37300000Y17146000D03*
Y15622000D03*
Y16130000D03*
Y21596000D03*
Y20072000D03*
Y20580000D03*
X39000000Y17146000D03*
Y15622000D03*
Y16130000D03*
Y21596000D03*
Y20072000D03*
Y20580000D03*
X27100000Y21596000D03*
Y20072000D03*
Y20580000D03*
X28800000Y17146000D03*
Y15622000D03*
Y16130000D03*
Y21596000D03*
Y20072000D03*
Y20580000D03*
X30500000Y17146000D03*
Y15622000D03*
Y16130000D03*
Y21596000D03*
Y20072000D03*
Y20580000D03*
X32200000Y17146000D03*
Y15622000D03*
Y16130000D03*
Y21596000D03*
Y20072000D03*
Y20580000D03*
X33900000Y17146000D03*
Y15622000D03*
Y16130000D03*
G54D106*
X25800000Y25000000D03*
X39260000D03*
Y13100000D03*
X25800000D03*
G54D107*
X25775000Y16000000D02*
Y22425000D01*
X25850000Y22500000*
X29556250*
X29600000Y22543750*
X25775000Y16000000D02*
X25825000Y15950000D01*
X26050000*
X30875000Y19175000D02*
Y22181250D01*
X30918750Y22225000*
X31081250*
X31125000Y22268750*
X30875000Y19175000D02*
X30925000Y19125000D01*
Y15993750*
X30968750Y15950000*
X31150000*
X29225000Y20443750D02*
Y22200000D01*
X29275000Y22250000*
X30835250*
X30879000Y22293750*
X29225000Y20443750D02*
X29268750Y20400000D01*
X29450000*
X30925000Y20443750D02*
Y22150000D01*
X30950000Y22175000*
X31331250*
X31375000Y22218750*
X30925000Y20443750D02*
X30968750Y20400000D01*
X31150000*
X25825000Y22400000D02*
Y20450000D01*
X25875000Y20400000*
X26050000*
X25825000Y22400000D02*
X25875000Y22450000D01*
X29831250*
X29875000Y22493750*
Y25088000*
X27525000Y22300000D02*
Y20443750D01*
X27568750Y20400000*
X27750000*
X27525000Y22300000D02*
X27575000Y22350000D01*
X30331250*
X30375000Y22393750*
Y25096000*
X27475000Y22325000D02*
Y19175000D01*
X27525000Y19125000*
Y15993750*
X27568750Y15950000*
X27750000*
X27475000Y22325000D02*
X27550000Y22400000D01*
X30081250*
X30125000Y22443750*
Y25092000*
X29175000Y22225000D02*
Y19175000D01*
X29225000Y19125000*
Y15993750*
X29268750Y15950000*
X29450000*
X29175000Y22225000D02*
X29250000Y22300000D01*
X30581250*
X30625000Y22343750*
Y25100000*
X29736000Y25227000D02*
X29875000Y25088000D01*
X29482000Y25227000D02*
X29600000Y25109000D01*
Y22543750*
X30752000Y25227000D02*
X30879000Y25100000D01*
Y22293750*
X30498000Y25227000D02*
X30625000Y25100000D01*
X30244000Y25227000D02*
X30375000Y25096000D01*
X29990000Y25227000D02*
X30125000Y25092000D01*
X31768000Y25227000D02*
X31900000Y25095000D01*
Y22268750*
X31943750Y22225000*
X32550000*
X32625000Y22150000*
Y20443750*
X32668750Y20400000*
X32850000*
X31514000Y25227000D02*
X31641000Y25100000D01*
Y22218750*
X31684750Y22175000*
X32525000*
X32575000Y22125000*
Y19175000*
X32625000Y19125000*
Y15993750*
X32668750Y15950000*
X32850000*
X31260000Y25227000D02*
X31375000Y25112000D01*
Y22218750*
X31006000Y25227000D02*
X31125000Y25108000D01*
Y22268750*
X32784000Y25227000D02*
X32900000Y25111000D01*
Y22468750*
X32943750Y22425000*
X35950000*
X36025000Y22350000*
Y20443750*
X36068750Y20400000*
X36250000*
X32530000Y25227000D02*
X32650000Y25107000D01*
Y22418750*
X32693750Y22375000*
X35925000*
X35975000Y22325000*
Y19175000*
X36025000Y19125000*
Y15993750*
X36068750Y15950000*
X36250000*
X32276000Y25227000D02*
X32400000Y25103000D01*
Y22368750*
X32443750Y22325000*
X34250000*
X34325000Y22250000*
Y20443750*
X34368750Y20400000*
X34550000*
X32022000Y25227000D02*
X32150000Y25099000D01*
Y22318750*
X32193750Y22275000*
X34225000*
X34275000Y22225000*
Y19175000*
X34325000Y19125000*
Y15993750*
X34368750Y15950000*
X34550000*
X33292000Y25227000D02*
X33425000Y25094000D01*
Y22568750*
X33468750Y22525000*
X37650000*
X37725000Y22450000*
Y20443750*
X37768750Y20400000*
X37950000*
X33038000Y25227000D02*
X33175000Y25090000D01*
Y22518750*
X33218750Y22475000*
X37625000*
X37675000Y22425000*
Y19200000*
X37725000Y19150000*
Y15993750*
X37768750Y15950000*
X37950000*
G54D108*
X39535000Y16505000D02*
Y16770000D01*
G75*
G03X39520000Y16785000I-15000J0D01*
G01X39455001*
X39455001D02*
G03X39440001Y16770000I-0J-15000D01*
G01X39440001D02*
Y16505000D01*
X39440001D02*
G03X39455001Y16490000I15000J0D01*
G01X39455001D02*
X39520000D01*
G03X39535000Y16505000I0J15000*
G01Y16830000D02*
Y24037574D01*
G03X39530607Y24048180I-15000J-0*
G01X39473180Y24105607*
X39473180D02*
G03X39462574Y24110000I-10606J-10607D01*
G01X38593787*
X38485000Y24218787*
Y25187574*
G03X38480607Y25198180I-15000J-0*
G01X38398180Y25280607*
X38398180D02*
G03X38387574Y25285000I-10606J-10607D01*
G01X35722874*
G03X35708494Y25265732I-0J-15000*
G01X35651775Y25112606D02*
G03X35708494Y25265732I-73775J114394D01*
G01X35651775Y25112606D02*
G03Y25087394I8130J-12606D01*
G01X35508595Y24855903D02*
G03X35651775Y25087394I69405J117097D01*
G01X35508594Y24855903D02*
G03X35500946Y24857999I-7648J-12904D01*
G01X35500946D02*
X35401054D01*
X35401054D02*
G03X35393406Y24855903I-0J-15000D01*
G01X35209606Y24899225D02*
G03X35393405Y24855903I114394J73775D01*
G01X35209606Y24899225D02*
G03X35184394I-12606J-8130D01*
G01Y25046775D02*
G03Y24899225I-114394J-73775D01*
G01Y25046775D02*
G03X35209606I12606J8130D01*
G01X35393405Y25090097D02*
G03X35209606Y25046775I-69405J-117097D01*
G01X35393406Y25090097D02*
G03X35401054Y25088001I7648J12904D01*
G01X35401054D02*
X35491620D01*
X35491620D02*
G03X35500194Y25115308I-0J15000D01*
G01X35447506Y25265732D02*
G03X35500194Y25115309I130494J-38732D01*
G01X35447506Y25265732D02*
G03X35433126Y25285000I-14380J4268D01*
G01X34960874*
G03X34946494Y25265732I-0J-15000*
G01X34701606Y25153225D02*
G03X34946494Y25265732I114394J73775D01*
G01X34701606Y25153225D02*
G03X34676394I-12606J-8130D01*
G01X34447606D02*
G03X34676394I114394J73775D01*
G01X34447606D02*
G03X34422394I-12606J-8130D01*
G01X34193606D02*
G03X34422394I114394J73775D01*
G01X34193606D02*
G03X34168394I-12606J-8130D01*
G01X34127775Y25112606D02*
G03X34168394Y25153225I-73775J114394D01*
G01X34127775Y25112606D02*
G03Y25087394I8130J-12606D01*
G01X33939606Y24899225D02*
G03X34127775Y25087394I114394J73775D01*
G01X33939606Y24899225D02*
G03X33914394I-12606J-8130D01*
G01X33685606D02*
G03X33914394I114394J73775D01*
G01X33685606D02*
G03X33660394I-12606J-8130D01*
G01X33520329Y24839322D02*
G03X33660394Y24899225I25671J133678D01*
G01X33520329Y24839322D02*
G03X33502501Y24824591I-2828J-14731D01*
G01X33502501D02*
Y22617501D01*
X33502501D02*
G03X33517501Y22602501I15000J-0D01*
G01X33517501D02*
X37650000D01*
X37704801Y22579801D02*
G03X37650000Y22602501I-54801J-54801D01*
G01X37704801Y22579801D02*
X37779801Y22504801D01*
X37802500Y22450000D02*
G03X37779801Y22504801I-77500J0D01*
G01X37802501Y22450000D02*
Y22280000D01*
X37802501D02*
G03X37817501Y22265000I15000J0D01*
G01X37817501D02*
X39122188D01*
G03X39124837Y22265236I-0J15000*
G01X39290000Y22151443D02*
G03X39124837Y22265236I-140000J-26443D01*
G01X39290000Y22151443D02*
Y20380335D01*
Y20380287*
Y20380000D02*
G03Y20380287I-90000J0D01*
G01X39290001Y20380000D02*
Y19600000D01*
X39290000Y19599713D02*
G03X39290001Y19600000I-90000J287D01*
G01X39290000Y19599713D02*
Y19599665D01*
Y19264443*
G03X39297143Y19251666I15000J0*
G01X39313640Y19238640D02*
G03X39297143Y19251666I-63640J-63640D01*
G01X39313640Y19238640D02*
X39413640Y19138640D01*
X39440001Y19075000D02*
G03X39413640Y19138640I-90001J0D01*
G01X39440001Y19075000D02*
Y16830000D01*
X39440001D02*
G03X39455001Y16815000I15000J0D01*
G01X39455001D02*
X39520000D01*
G03X39535000Y16830000I0J15000*
G01X32384999Y16505000D02*
Y16770000D01*
X32384999D02*
G03X32369999Y16785000I-15000J0D01*
G01X32369999D02*
X31667501D01*
X31667501D02*
G03X31652501Y16770000I-0J-15000D01*
G01X31652501D02*
Y16637500D01*
X31587500Y16572499D02*
G03X31652501Y16637500I0J65001D01*
G01X31587500Y16572499D02*
X31558095D01*
X31558095D02*
G03X31550833Y16570624I-0J-15000D01*
G01X31449167Y16570625D02*
G03X31550833I50833J91875D01*
G01X31449167Y16570624D02*
G03X31441905Y16572499I-7262J-13125D01*
G01X31441905D02*
X31412500D01*
X31347499Y16637500D02*
G03X31412500Y16572499I65001J0D01*
G01X31347499Y16637500D02*
Y16770000D01*
X31347499D02*
G03X31332499Y16785000I-15000J0D01*
G01X31332499D02*
X31280001D01*
X31280001D02*
G03X31265001Y16770000I-0J-15000D01*
G01X31265001D02*
Y16700000D01*
X31244688Y16652798D02*
G03X31265001Y16700000I-44688J47202D01*
G01X31244688Y16652798D02*
G03X31241876Y16649167I10312J-10893D01*
G01X31110626Y16602662D02*
G03X31241875Y16649167I39374J97338D01*
G01X31110625Y16602662D02*
G03X31090001Y16588756I-5624J-13906D01*
G01X31090001D02*
Y16505000D01*
X31090001D02*
G03X31105001Y16490000I15000J0D01*
G01X31105001D02*
X31250000D01*
X31365000Y16375000D02*
G03X31250000Y16490000I-115000J0D01*
G01X31365000Y16375000D02*
Y16355000D01*
G03X31380000Y16340000I15000J0*
G01X31745000*
G03X31760000Y16355000I0J15000*
G01Y16375000*
X31875000Y16490000D02*
G03X31760000Y16375000I0J-115000D01*
G01X31875000Y16490000D02*
X32369999D01*
X32369999D02*
G03X32384999Y16505000I0J15000D01*
G01X32497499Y20980000D02*
Y21220000D01*
X32497499D02*
G03X32482499Y21235000I-15000J0D01*
G01X32482499D02*
X31667501D01*
X31667501D02*
G03X31652501Y21220000I-0J-15000D01*
G01X31652501D02*
Y21087500D01*
X31587500Y21022499D02*
G03X31652501Y21087500I0J65001D01*
G01X31587500Y21022499D02*
X31558095D01*
X31558095D02*
G03X31550833Y21020624I-0J-15000D01*
G01X31449167Y21020625D02*
G03X31550833I50833J91875D01*
G01X31449167Y21020624D02*
G03X31441905Y21022499I-7262J-13125D01*
G01X31441905D02*
X31412500D01*
X31347499Y21087500D02*
G03X31412500Y21022499I65001J0D01*
G01X31347499Y21087500D02*
Y21220000D01*
X31347499D02*
G03X31332499Y21235000I-15000J0D01*
G01X31332499D02*
X31280001D01*
X31280001D02*
G03X31265001Y21220000I-0J-15000D01*
G01X31265001D02*
Y21150000D01*
X31244688Y21102798D02*
G03X31265001Y21150000I-44688J47202D01*
G01X31244688Y21102798D02*
G03X31241876Y21099167I10312J-10893D01*
G01X31110626Y21052662D02*
G03X31241875Y21099167I39374J97338D01*
G01X31110625Y21052662D02*
G03X31090001Y21038756I-5624J-13906D01*
G01X31090001D02*
Y20980000D01*
X31090001D02*
G03X31105001Y20965000I15000J0D01*
G01X31105001D02*
X31225000D01*
X31340000Y20850000D02*
G03X31225000Y20965000I-115000J0D01*
G01X31340000Y20850000D02*
Y20805000D01*
G03X31355000Y20790000I15000J0*
G01X31745000*
G03X31760000Y20805000I0J15000*
G01Y20850000*
X31875000Y20965000D02*
G03X31760000Y20850000I0J-115000D01*
G01X31875000Y20965000D02*
X32482499D01*
X32482499D02*
G03X32497499Y20980000I0J15000D01*
G01X30684999Y16505000D02*
Y16770000D01*
X30684999D02*
G03X30669999Y16785000I-15000J0D01*
G01X30669999D02*
X29967501D01*
X29967501D02*
G03X29952501Y16770000I-0J-15000D01*
G01X29952501D02*
Y16637500D01*
X29887500Y16572499D02*
G03X29952501Y16637500I0J65001D01*
G01X29887500Y16572499D02*
X29858095D01*
X29858095D02*
G03X29850833Y16570624I-0J-15000D01*
G01X29749167Y16570625D02*
G03X29850833I50833J91875D01*
G01X29749167Y16570624D02*
G03X29741905Y16572499I-7262J-13125D01*
G01X29741905D02*
X29712500D01*
X29647499Y16637500D02*
G03X29712500Y16572499I65001J0D01*
G01X29647499Y16637500D02*
Y16770000D01*
X29647499D02*
G03X29632499Y16785000I-15000J0D01*
G01X29632499D02*
X29580001D01*
X29580001D02*
G03X29565001Y16770000I-0J-15000D01*
G01X29565001D02*
Y16700000D01*
X29544688Y16652798D02*
G03X29565001Y16700000I-44688J47202D01*
G01X29544688Y16652798D02*
G03X29541876Y16649167I10312J-10893D01*
G01X29410626Y16602662D02*
G03X29541875Y16649167I39374J97338D01*
G01X29410625Y16602662D02*
G03X29390001Y16588756I-5624J-13906D01*
G01X29390001D02*
Y16505000D01*
X29390001D02*
G03X29405001Y16490000I15000J0D01*
G01X29405001D02*
X29550000D01*
X29665000Y16375000D02*
G03X29550000Y16490000I-115000J0D01*
G01X29665000Y16375000D02*
Y16341901D01*
X29665000D02*
G03X29680000Y16326901I15000J-0D01*
G01X29680000D02*
X29739700D01*
X29773810Y16317231D02*
G03X29739700Y16326901I-34110J-55331D01*
G01X29773810Y16317231D02*
G03X29781682Y16315000I7872J12769D01*
G01X30045000*
G03X30060000Y16330000I0J15000*
G01Y16375000*
X30175000Y16490000D02*
G03X30060000Y16375000I0J-115000D01*
G01X30175000Y16490000D02*
X30669999D01*
X30669999D02*
G03X30684999Y16505000I0J15000D01*
G01X30797499Y20980000D02*
Y21220000D01*
X30797499D02*
G03X30782499Y21235000I-15000J0D01*
G01X30782499D02*
X29967501D01*
X29967501D02*
G03X29952501Y21220000I-0J-15000D01*
G01X29952501D02*
Y21087500D01*
X29887500Y21022499D02*
G03X29952501Y21087500I0J65001D01*
G01X29887500Y21022499D02*
X29858095D01*
X29858095D02*
G03X29850833Y21020624I-0J-15000D01*
G01X29749167Y21020625D02*
G03X29850833I50833J91875D01*
G01X29749167Y21020624D02*
G03X29741905Y21022499I-7262J-13125D01*
G01X29741905D02*
X29712500D01*
X29647499Y21087500D02*
G03X29712500Y21022499I65001J0D01*
G01X29647499Y21087500D02*
Y21220000D01*
X29647499D02*
G03X29632499Y21235000I-15000J0D01*
G01X29632499D02*
X29580001D01*
X29580001D02*
G03X29565001Y21220000I-0J-15000D01*
G01X29565001D02*
Y21150000D01*
X29544688Y21102798D02*
G03X29565001Y21150000I-44688J47202D01*
G01X29544688Y21102798D02*
G03X29541876Y21099167I10312J-10893D01*
G01X29410626Y21052662D02*
G03X29541875Y21099167I39374J97338D01*
G01X29410625Y21052662D02*
G03X29390001Y21038756I-5624J-13906D01*
G01X29390001D02*
Y20980000D01*
X29390001D02*
G03X29405001Y20965000I15000J0D01*
G01X29405001D02*
X29525000D01*
X29640000Y20850000D02*
G03X29525000Y20965000I-115000J0D01*
G01X29640000Y20850000D02*
Y20805000D01*
G03X29655000Y20790000I15000J0*
G01X30045000*
G03X30060000Y20805000I0J15000*
G01Y20850000*
X30175000Y20965000D02*
G03X30060000Y20850000I0J-115000D01*
G01X30175000Y20965000D02*
X30782499D01*
X30782499D02*
G03X30797499Y20980000I0J15000D01*
G01X30047499Y22492501D02*
Y25053685D01*
X30047499D02*
G03X30043106Y25064292I-15000J0D01*
G01X30019701Y25087697*
X30019700D02*
G03X30007199Y25091970I-10606J-10606D01*
G01X29969734Y25092397D02*
G03X30007199Y25091970I20266J134603D01*
G01X29969734Y25092396D02*
G03X29952501Y25077564I-2233J-14832D01*
G01X29952501D02*
Y22493750D01*
X29952493Y22492703D02*
G03X29952501Y22493750I-77493J1047D01*
G01X29952494Y22492703D02*
G03X29967492Y22477501I14998J-202D01*
G01X29967492D02*
X30032499D01*
X30032499D02*
G03X30047499Y22492501I0J15000D01*
G01X28984999Y16505000D02*
Y16770000D01*
X28984999D02*
G03X28969999Y16785000I-15000J0D01*
G01X28969999D02*
X28267501D01*
X28267501D02*
G03X28252501Y16770000I-0J-15000D01*
G01X28252501D02*
Y16637500D01*
X28187500Y16572499D02*
G03X28252501Y16637500I0J65001D01*
G01X28187500Y16572499D02*
X28158095D01*
X28158095D02*
G03X28150833Y16570624I-0J-15000D01*
G01X28049167Y16570625D02*
G03X28150833I50833J91875D01*
G01X28049167Y16570624D02*
G03X28041905Y16572499I-7262J-13125D01*
G01X28041905D02*
X28012500D01*
X27947499Y16637500D02*
G03X28012500Y16572499I65001J0D01*
G01X27947499Y16637500D02*
Y16770000D01*
X27947499D02*
G03X27932499Y16785000I-15000J0D01*
G01X27932499D02*
X27880001D01*
X27880001D02*
G03X27865001Y16770000I-0J-15000D01*
G01X27865001D02*
Y16700000D01*
X27844688Y16652798D02*
G03X27865001Y16700000I-44688J47202D01*
G01X27844688Y16652798D02*
G03X27841876Y16649167I10312J-10893D01*
G01X27710626Y16602662D02*
G03X27841875Y16649167I39374J97338D01*
G01X27710625Y16602662D02*
G03X27690001Y16588756I-5624J-13906D01*
G01X27690001D02*
Y16505000D01*
X27690001D02*
G03X27705001Y16490000I15000J0D01*
G01X27705001D02*
X27825000D01*
X27940000Y16375000D02*
G03X27825000Y16490000I-115000J0D01*
G01X27940000Y16375000D02*
Y16355000D01*
G03X27955000Y16340000I15000J0*
G01X28345000*
G03X28360000Y16355000I0J15000*
G01Y16375000*
X28475000Y16490000D02*
G03X28360000Y16375000I0J-115000D01*
G01X28475000Y16490000D02*
X28969999D01*
X28969999D02*
G03X28984999Y16505000I0J15000D01*
G01X29097499Y20980000D02*
Y21220000D01*
X29097499D02*
G03X29082499Y21235000I-15000J0D01*
G01X29082499D02*
X28267501D01*
X28267501D02*
G03X28252501Y21220000I-0J-15000D01*
G01X28252501D02*
Y21087500D01*
X28187500Y21022499D02*
G03X28252501Y21087500I0J65001D01*
G01X28187500Y21022499D02*
X28158095D01*
X28158095D02*
G03X28150833Y21020624I-0J-15000D01*
G01X28049167Y21020625D02*
G03X28150833I50833J91875D01*
G01X28049167Y21020624D02*
G03X28041905Y21022499I-7262J-13125D01*
G01X28041905D02*
X28012500D01*
X27947499Y21087500D02*
G03X28012500Y21022499I65001J0D01*
G01X27947499Y21087500D02*
Y21220000D01*
X27947499D02*
G03X27932499Y21235000I-15000J0D01*
G01X27932499D02*
X27880001D01*
X27880001D02*
G03X27865001Y21220000I-0J-15000D01*
G01X27865001D02*
Y21150000D01*
X27844688Y21102798D02*
G03X27865001Y21150000I-44688J47202D01*
G01X27844688Y21102798D02*
G03X27841876Y21099167I10312J-10893D01*
G01X27710626Y21052662D02*
G03X27841875Y21099167I39374J97338D01*
G01X27710625Y21052662D02*
G03X27690001Y21038756I-5624J-13906D01*
G01X27690001D02*
Y20980000D01*
X27690001D02*
G03X27705001Y20965000I15000J0D01*
G01X27705001D02*
X27825000D01*
X27940000Y20850000D02*
G03X27825000Y20965000I-115000J0D01*
G01X27940000Y20850000D02*
Y20805000D01*
G03X27955000Y20790000I15000J0*
G01X28345000*
G03X28360000Y20805000I0J15000*
G01Y20850000*
X28475000Y20965000D02*
G03X28360000Y20850000I0J-115000D01*
G01X28475000Y20965000D02*
X29082499D01*
X29082499D02*
G03X29097499Y20980000I0J15000D01*
G01X27284999Y16505000D02*
Y16770000D01*
X27284999D02*
G03X27269999Y16785000I-15000J0D01*
G01X27269999D02*
X26567501D01*
X26567501D02*
G03X26552501Y16770000I-0J-15000D01*
G01X26552501D02*
Y16637500D01*
X26487500Y16572499D02*
G03X26552501Y16637500I0J65001D01*
G01X26487500Y16572499D02*
X26458095D01*
X26458095D02*
G03X26450833Y16570624I-0J-15000D01*
G01X26349167Y16570625D02*
G03X26450833I50833J91875D01*
G01X26349167Y16570624D02*
G03X26341905Y16572499I-7262J-13125D01*
G01X26341905D02*
X26312500D01*
X26247499Y16637500D02*
G03X26312500Y16572499I65001J0D01*
G01X26247499Y16637500D02*
Y16770000D01*
X26247499D02*
G03X26232499Y16785000I-15000J0D01*
G01X26232499D02*
X26180001D01*
X26180001D02*
G03X26165001Y16770000I-0J-15000D01*
G01X26165001D02*
Y16700000D01*
X26144688Y16652798D02*
G03X26165001Y16700000I-44688J47202D01*
G01X26144688Y16652798D02*
G03X26141876Y16649167I10312J-10893D01*
G01X26010626Y16602662D02*
G03X26141875Y16649167I39374J97338D01*
G01X26010625Y16602662D02*
G03X25990001Y16588756I-5624J-13906D01*
G01X25990001D02*
Y16505000D01*
X25990001D02*
G03X26005001Y16490000I15000J0D01*
G01X26005001D02*
X26125000D01*
X26240000Y16375000D02*
G03X26125000Y16490000I-115000J0D01*
G01X26240000Y16375000D02*
Y16355000D01*
G03X26255000Y16340000I15000J0*
G01X26645000*
G03X26660000Y16355000I0J15000*
G01Y16375000*
X26775000Y16490000D02*
G03X26660000Y16375000I0J-115000D01*
G01X26775000Y16490000D02*
X27269999D01*
X27269999D02*
G03X27284999Y16505000I0J15000D01*
G01X27397499Y20980000D02*
Y21220000D01*
X27397499D02*
G03X27382499Y21235000I-15000J0D01*
G01X27382499D02*
X26567501D01*
X26567501D02*
G03X26552501Y21220000I-0J-15000D01*
G01X26552501D02*
Y21087500D01*
X26487500Y21022499D02*
G03X26552501Y21087500I0J65001D01*
G01X26487500Y21022499D02*
X26458095D01*
X26458095D02*
G03X26450833Y21020624I-0J-15000D01*
G01X26349167Y21020625D02*
G03X26450833I50833J91875D01*
G01X26349167Y21020624D02*
G03X26341905Y21022499I-7262J-13125D01*
G01X26341905D02*
X26312500D01*
X26247499Y21087500D02*
G03X26312500Y21022499I65001J0D01*
G01X26247499Y21087500D02*
Y21220000D01*
X26247499D02*
G03X26232499Y21235000I-15000J0D01*
G01X26232499D02*
X26180001D01*
X26180001D02*
G03X26165001Y21220000I-0J-15000D01*
G01X26165001D02*
Y21150000D01*
X26144688Y21102798D02*
G03X26165001Y21150000I-44688J47202D01*
G01X26144688Y21102798D02*
G03X26141876Y21099167I10312J-10893D01*
G01X26010626Y21052662D02*
G03X26141875Y21099167I39374J97338D01*
G01X26010625Y21052662D02*
G03X25990001Y21038756I-5624J-13906D01*
G01X25990001D02*
Y20980000D01*
X25990001D02*
G03X26005001Y20965000I15000J0D01*
G01X26005001D02*
X26125000D01*
X26240000Y20850000D02*
G03X26125000Y20965000I-115000J0D01*
G01X26240000Y20850000D02*
Y20805000D01*
G03X26255000Y20790000I15000J0*
G01X26645000*
G03X26660000Y20805000I0J15000*
G01Y20850000*
X26775000Y20965000D02*
G03X26660000Y20850000I0J-115000D01*
G01X26775000Y20965000D02*
X27382499D01*
X27382499D02*
G03X27397499Y20980000I0J15000D01*
G01X37484999Y16505000D02*
Y16770000D01*
X37484999D02*
G03X37469999Y16785000I-15000J0D01*
G01X37469999D02*
X36767501D01*
X36767501D02*
G03X36752501Y16770000I-0J-15000D01*
G01X36752501D02*
Y16637500D01*
X36687500Y16572499D02*
G03X36752501Y16637500I0J65001D01*
G01X36687500Y16572499D02*
X36658095D01*
X36658095D02*
G03X36650833Y16570624I-0J-15000D01*
G01X36549167Y16570625D02*
G03X36650833I50833J91875D01*
G01X36549167Y16570624D02*
G03X36541905Y16572499I-7262J-13125D01*
G01X36541905D02*
X36512500D01*
X36447499Y16637500D02*
G03X36512500Y16572499I65001J0D01*
G01X36447499Y16637500D02*
Y16770000D01*
X36447499D02*
G03X36432499Y16785000I-15000J0D01*
G01X36432499D02*
X36380001D01*
X36380001D02*
G03X36365001Y16770000I-0J-15000D01*
G01X36365001D02*
Y16700000D01*
X36344688Y16652798D02*
G03X36365001Y16700000I-44688J47202D01*
G01X36344688Y16652798D02*
G03X36341876Y16649167I10312J-10893D01*
G01X36210626Y16602662D02*
G03X36341875Y16649167I39374J97338D01*
G01X36210625Y16602662D02*
G03X36190001Y16588756I-5624J-13906D01*
G01X36190001D02*
Y16505000D01*
X36190001D02*
G03X36205001Y16490000I15000J0D01*
G01X36205001D02*
X36350000D01*
X36465000Y16375000D02*
G03X36350000Y16490000I-115000J0D01*
G01X36465000Y16375000D02*
Y16355000D01*
G03X36480000Y16340000I15000J0*
G01X36820000*
G03X36835000Y16355000I0J15000*
G01Y16375000*
X36950000Y16490000D02*
G03X36835000Y16375000I0J-115000D01*
G01X36950000Y16490000D02*
X37469999D01*
X37469999D02*
G03X37484999Y16505000I0J15000D01*
G01X37597499Y20980000D02*
Y21220000D01*
X37597499D02*
G03X37582499Y21235000I-15000J0D01*
G01X37582499D02*
X36767501D01*
X36767501D02*
G03X36752501Y21220000I-0J-15000D01*
G01X36752501D02*
Y21087500D01*
X36687500Y21022499D02*
G03X36752501Y21087500I0J65001D01*
G01X36687500Y21022499D02*
X36658095D01*
X36658095D02*
G03X36650833Y21020624I-0J-15000D01*
G01X36549167Y21020625D02*
G03X36650833I50833J91875D01*
G01X36549167Y21020624D02*
G03X36541905Y21022499I-7262J-13125D01*
G01X36541905D02*
X36512500D01*
X36447499Y21087500D02*
G03X36512500Y21022499I65001J0D01*
G01X36447499Y21087500D02*
Y21220000D01*
X36447499D02*
G03X36432499Y21235000I-15000J0D01*
G01X36432499D02*
X36380001D01*
X36380001D02*
G03X36365001Y21220000I-0J-15000D01*
G01X36365001D02*
Y21150000D01*
X36344688Y21102798D02*
G03X36365001Y21150000I-44688J47202D01*
G01X36344688Y21102798D02*
G03X36341876Y21099167I10312J-10893D01*
G01X36210626Y21052662D02*
G03X36341875Y21099167I39374J97338D01*
G01X36210625Y21052662D02*
G03X36190001Y21038756I-5624J-13906D01*
G01X36190001D02*
Y20980000D01*
X36190001D02*
G03X36205001Y20965000I15000J0D01*
G01X36205001D02*
X36325000D01*
X36440000Y20850000D02*
G03X36325000Y20965000I-115000J0D01*
G01X36440000Y20850000D02*
Y20805000D01*
G03X36455000Y20790000I15000J0*
G01X36870000*
G03X36885000Y20805000I0J15000*
G01Y20850000*
X37000000Y20965000D02*
G03X36885000Y20850000I0J-115000D01*
G01X37000000Y20965000D02*
X37582499D01*
X37582499D02*
G03X37597499Y20980000I0J15000D01*
G01X35784999Y16505000D02*
Y16770000D01*
X35784999D02*
G03X35769999Y16785000I-15000J0D01*
G01X35769999D02*
X35067501D01*
X35067501D02*
G03X35052501Y16770000I-0J-15000D01*
G01X35052501D02*
Y16637500D01*
X34987500Y16572499D02*
G03X35052501Y16637500I0J65001D01*
G01X34987500Y16572499D02*
X34958095D01*
X34958095D02*
G03X34950833Y16570624I-0J-15000D01*
G01X34849167Y16570625D02*
G03X34950833I50833J91875D01*
G01X34849167Y16570624D02*
G03X34841905Y16572499I-7262J-13125D01*
G01X34841905D02*
X34812500D01*
X34747499Y16637500D02*
G03X34812500Y16572499I65001J0D01*
G01X34747499Y16637500D02*
Y16770000D01*
X34747499D02*
G03X34732499Y16785000I-15000J0D01*
G01X34732499D02*
X34680001D01*
X34680001D02*
G03X34665001Y16770000I-0J-15000D01*
G01X34665001D02*
Y16700000D01*
X34644688Y16652798D02*
G03X34665001Y16700000I-44688J47202D01*
G01X34644688Y16652798D02*
G03X34641876Y16649167I10312J-10893D01*
G01X34510626Y16602662D02*
G03X34641875Y16649167I39374J97338D01*
G01X34510625Y16602662D02*
G03X34490001Y16588756I-5624J-13906D01*
G01X34490001D02*
Y16505000D01*
X34490001D02*
G03X34505001Y16490000I15000J0D01*
G01X34505001D02*
X34650000D01*
X34765000Y16375000D02*
G03X34650000Y16490000I-115000J0D01*
G01X34765000Y16375000D02*
Y16355000D01*
G03X34780000Y16340000I15000J0*
G01X35145000*
G03X35160000Y16355000I0J15000*
G01Y16375000*
X35275000Y16490000D02*
G03X35160000Y16375000I0J-115000D01*
G01X35275000Y16490000D02*
X35769999D01*
X35769999D02*
G03X35784999Y16505000I0J15000D01*
G01X35897499Y20980000D02*
Y21220000D01*
X35897499D02*
G03X35882499Y21235000I-15000J0D01*
G01X35882499D02*
X35067501D01*
X35067501D02*
G03X35052501Y21220000I-0J-15000D01*
G01X35052501D02*
Y21087500D01*
X34987500Y21022499D02*
G03X35052501Y21087500I0J65001D01*
G01X34987500Y21022499D02*
X34958095D01*
X34958095D02*
G03X34950833Y21020624I-0J-15000D01*
G01X34849167Y21020625D02*
G03X34950833I50833J91875D01*
G01X34849167Y21020624D02*
G03X34841905Y21022499I-7262J-13125D01*
G01X34841905D02*
X34812500D01*
X34747499Y21087500D02*
G03X34812500Y21022499I65001J0D01*
G01X34747499Y21087500D02*
Y21220000D01*
X34747499D02*
G03X34732499Y21235000I-15000J0D01*
G01X34732499D02*
X34680001D01*
X34680001D02*
G03X34665001Y21220000I-0J-15000D01*
G01X34665001D02*
Y21150000D01*
X34644688Y21102798D02*
G03X34665001Y21150000I-44688J47202D01*
G01X34644688Y21102798D02*
G03X34641876Y21099167I10312J-10893D01*
G01X34510626Y21052662D02*
G03X34641875Y21099167I39374J97338D01*
G01X34510625Y21052662D02*
G03X34490001Y21038756I-5624J-13906D01*
G01X34490001D02*
Y20980000D01*
X34490001D02*
G03X34505001Y20965000I15000J0D01*
G01X34505001D02*
X34625000D01*
X34740000Y20850000D02*
G03X34625000Y20965000I-115000J0D01*
G01X34740000Y20850000D02*
Y20805000D01*
G03X34755000Y20790000I15000J0*
G01X35145000*
G03X35160000Y20805000I0J15000*
G01Y20850000*
X35275000Y20965000D02*
G03X35160000Y20850000I0J-115000D01*
G01X35275000Y20965000D02*
X35882499D01*
X35882499D02*
G03X35897499Y20980000I0J15000D01*
G01X34084999Y16505000D02*
Y16770000D01*
X34084999D02*
G03X34069999Y16785000I-15000J0D01*
G01X34069999D02*
X33367501D01*
X33367501D02*
G03X33352501Y16770000I-0J-15000D01*
G01X33352501D02*
Y16637500D01*
X33287500Y16572499D02*
G03X33352501Y16637500I0J65001D01*
G01X33287500Y16572499D02*
X33258095D01*
X33258095D02*
G03X33250833Y16570624I-0J-15000D01*
G01X33149167Y16570625D02*
G03X33250833I50833J91875D01*
G01X33149167Y16570624D02*
G03X33141905Y16572499I-7262J-13125D01*
G01X33141905D02*
X33112500D01*
X33047499Y16637500D02*
G03X33112500Y16572499I65001J0D01*
G01X33047499Y16637500D02*
Y16770000D01*
X33047499D02*
G03X33032499Y16785000I-15000J0D01*
G01X33032499D02*
X32980001D01*
X32980001D02*
G03X32965001Y16770000I-0J-15000D01*
G01X32965001D02*
Y16700000D01*
X32944688Y16652798D02*
G03X32965001Y16700000I-44688J47202D01*
G01X32944688Y16652798D02*
G03X32941876Y16649167I10312J-10893D01*
G01X32810626Y16602662D02*
G03X32941875Y16649167I39374J97338D01*
G01X32810625Y16602662D02*
G03X32790001Y16588756I-5624J-13906D01*
G01X32790001D02*
Y16505000D01*
X32790001D02*
G03X32805001Y16490000I15000J0D01*
G01X32805001D02*
X32950000D01*
X33065000Y16375000D02*
G03X32950000Y16490000I-115000J0D01*
G01X33065000Y16375000D02*
Y16355000D01*
G03X33080000Y16340000I15000J0*
G01X33645000*
G03X33660000Y16355000I0J15000*
G01Y16375000*
X33775000Y16490000D02*
G03X33660000Y16375000I0J-115000D01*
G01X33775000Y16490000D02*
X34069999D01*
X34069999D02*
G03X34084999Y16505000I0J15000D01*
G01X34197499Y20980000D02*
Y21220000D01*
X34197499D02*
G03X34182499Y21235000I-15000J0D01*
G01X34182499D02*
X33367501D01*
X33367501D02*
G03X33352501Y21220000I-0J-15000D01*
G01X33352501D02*
Y21087500D01*
X33287500Y21022499D02*
G03X33352501Y21087500I0J65001D01*
G01X33287500Y21022499D02*
X33258095D01*
X33258095D02*
G03X33250833Y21020624I-0J-15000D01*
G01X33149167Y21020625D02*
G03X33250833I50833J91875D01*
G01X33149167Y21020624D02*
G03X33141905Y21022499I-7262J-13125D01*
G01X33141905D02*
X33112500D01*
X33047499Y21087500D02*
G03X33112500Y21022499I65001J0D01*
G01X33047499Y21087500D02*
Y21220000D01*
X33047499D02*
G03X33032499Y21235000I-15000J0D01*
G01X33032499D02*
X32980001D01*
X32980001D02*
G03X32965001Y21220000I-0J-15000D01*
G01X32965001D02*
Y21150000D01*
X32944688Y21102798D02*
G03X32965001Y21150000I-44688J47202D01*
G01X32944688Y21102798D02*
G03X32941876Y21099167I10312J-10893D01*
G01X32810626Y21052662D02*
G03X32941875Y21099167I39374J97338D01*
G01X32810625Y21052662D02*
G03X32790001Y21038756I-5624J-13906D01*
G01X32790001D02*
Y20980000D01*
X32790001D02*
G03X32805001Y20965000I15000J0D01*
G01X32805001D02*
X32925000D01*
X33040000Y20850000D02*
G03X32925000Y20965000I-115000J0D01*
G01X33040000Y20850000D02*
Y20805000D01*
G03X33055000Y20790000I15000J0*
G01X33445000*
G03X33460000Y20805000I0J15000*
G01Y20850000*
X33575000Y20965000D02*
G03X33460000Y20850000I0J-115000D01*
G01X33575000Y20965000D02*
X34182499D01*
X34182499D02*
G03X34197499Y20980000I0J15000D01*
G01X39184999Y16505000D02*
Y16770000D01*
X39184999D02*
G03X39169999Y16785000I-15000J0D01*
G01X39169999D02*
X38467501D01*
X38467501D02*
G03X38452501Y16770000I-0J-15000D01*
G01X38452501D02*
Y16637500D01*
X38387500Y16572499D02*
G03X38452501Y16637500I0J65001D01*
G01X38387500Y16572499D02*
X38358095D01*
X38358095D02*
G03X38350833Y16570624I-0J-15000D01*
G01X38249167Y16570625D02*
G03X38350833I50833J91875D01*
G01X38249167Y16570624D02*
G03X38241905Y16572499I-7262J-13125D01*
G01X38241905D02*
X38212500D01*
X38147499Y16637500D02*
G03X38212500Y16572499I65001J0D01*
G01X38147499Y16637500D02*
Y16770000D01*
X38147499D02*
G03X38132499Y16785000I-15000J0D01*
G01X38132499D02*
X38080001D01*
X38080001D02*
G03X38065001Y16770000I-0J-15000D01*
G01X38065001D02*
Y16700000D01*
X38044688Y16652798D02*
G03X38065001Y16700000I-44688J47202D01*
G01X38044688Y16652798D02*
G03X38041876Y16649167I10312J-10893D01*
G01X37910626Y16602662D02*
G03X38041875Y16649167I39374J97338D01*
G01X37910625Y16602662D02*
G03X37890001Y16588756I-5624J-13906D01*
G01X37890001D02*
Y16505000D01*
X37890001D02*
G03X37905001Y16490000I15000J0D01*
G01X37905001D02*
X38050000D01*
X38165000Y16375000D02*
G03X38050000Y16490000I-115000J0D01*
G01X38165000Y16375000D02*
Y16355000D01*
G03X38180000Y16340000I15000J0*
G01X38545000*
G03X38560000Y16355000I0J15000*
G01Y16375000*
X38675000Y16490000D02*
G03X38560000Y16375000I0J-115000D01*
G01X38675000Y16490000D02*
X39169999D01*
X39169999D02*
G03X39184999Y16505000I0J15000D01*
G01X39210000Y20980000D02*
Y21220000D01*
G03X39195000Y21235000I-15000J0*
G01X38467501*
X38467501D02*
G03X38452501Y21220000I-0J-15000D01*
G01X38452501D02*
Y21087500D01*
X38387500Y21022499D02*
G03X38452501Y21087500I0J65001D01*
G01X38387500Y21022499D02*
X38358095D01*
X38358095D02*
G03X38350833Y21020624I-0J-15000D01*
G01X38249167Y21020625D02*
G03X38350833I50833J91875D01*
G01X38249167Y21020624D02*
G03X38241905Y21022499I-7262J-13125D01*
G01X38241905D02*
X38212500D01*
X38147499Y21087500D02*
G03X38212500Y21022499I65001J0D01*
G01X38147499Y21087500D02*
Y21220000D01*
X38147499D02*
G03X38132499Y21235000I-15000J0D01*
G01X38132499D02*
X38080001D01*
X38080001D02*
G03X38065001Y21220000I-0J-15000D01*
G01X38065001D02*
Y21150000D01*
X38044688Y21102798D02*
G03X38065001Y21150000I-44688J47202D01*
G01X38044688Y21102798D02*
G03X38041876Y21099167I10312J-10893D01*
G01X37910626Y21052662D02*
G03X38041875Y21099167I39374J97338D01*
G01X37910625Y21052662D02*
G03X37890001Y21038756I-5624J-13906D01*
G01X37890001D02*
Y20980000D01*
X37890001D02*
G03X37905001Y20965000I15000J0D01*
G01X37905001D02*
X38025000D01*
X38140000Y20850000D02*
G03X38025000Y20965000I-115000J0D01*
G01X38140000Y20850000D02*
Y20805000D01*
G03X38155000Y20790000I15000J0*
G01X38545000*
G03X38560000Y20805000I0J15000*
G01Y20850000*
X38675000Y20965000D02*
G03X38560000Y20850000I0J-115000D01*
G01X38675000Y20965000D02*
X39195000D01*
G03X39210000Y20980000I0J15000*
G01X36990001Y24100000D02*
Y24000000D01*
X36925000Y23934999D02*
G03X36990001Y24000000I0J65001D01*
G01X36925000Y23934999D02*
X36825000D01*
X36784375Y23949259D02*
G03X36825000Y23934999I40625J50741D01*
G01X36784375Y23949259D02*
G03X36765625I-9375J-11710D01*
G01X36725000Y23934999D02*
G03X36765625Y23949259I0J65001D01*
G01X36725000Y23934999D02*
X36625000D01*
X36584375Y23949259D02*
G03X36625000Y23934999I40625J50741D01*
G01X36584375Y23949259D02*
G03X36565625I-9375J-11710D01*
G01X36525000Y23934999D02*
G03X36565625Y23949259I0J65001D01*
G01X36525000Y23934999D02*
X36425000D01*
X36359999Y24000000D02*
G03X36425000Y23934999I65001J0D01*
G01X36359999Y24000000D02*
Y24100000D01*
X36380312Y24147202D02*
G03X36359999Y24100000I44688J-47202D01*
G01X36380312Y24147202D02*
G03X36383124Y24150833I-10312J10893D01*
G01X36562500Y24158042D02*
G03X36383125Y24150833I-87500J-58042D01*
G01X36562500Y24158042D02*
G03X36587500I12500J8291D01*
G01X36762500D02*
G03X36587500I-87500J-58042D01*
G01X36762500D02*
G03X36787500I12500J8291D01*
G01X36966875Y24150833D02*
G03X36787500Y24158042I-91875J-50833D01*
G01X36966875Y24150833D02*
G03X36969688Y24147202I13125J7262D01*
G01X36990000Y24100000D02*
G03X36969688Y24147202I-65000J0D01*
G01X36190001Y24200000D02*
Y24050000D01*
X36125000Y23984999D02*
G03X36190001Y24050000I0J65001D01*
G01X36125000Y23984999D02*
X36025000D01*
X35959999Y24050000D02*
G03X36025000Y23984999I65001J0D01*
G01X35959999Y24050000D02*
Y24200000D01*
X36190001D02*
G03X35959999I-115001J0D01*
G01X35790001Y24100000D02*
Y24000000D01*
X35725000Y23934999D02*
G03X35790001Y24000000I0J65001D01*
G01X35725000Y23934999D02*
X35625000D01*
X35584375Y23949259D02*
G03X35625000Y23934999I40625J50741D01*
G01X35584375Y23949259D02*
G03X35565625I-9375J-11710D01*
G01X35525000Y23934999D02*
G03X35565625Y23949259I0J65001D01*
G01X35525000Y23934999D02*
X35425000D01*
X35359999Y24000000D02*
G03X35425000Y23934999I65001J0D01*
G01X35359999Y24000000D02*
Y24100000D01*
X35380312Y24147202D02*
G03X35359999Y24100000I44688J-47202D01*
G01X35380312Y24147202D02*
G03X35383124Y24150833I-10312J10893D01*
G01X35562500Y24158042D02*
G03X35383125Y24150833I-87500J-58042D01*
G01X35562500Y24158042D02*
G03X35587500I12500J8291D01*
G01X35766875Y24150833D02*
G03X35587500Y24158042I-91875J-50833D01*
G01X35766875Y24150833D02*
G03X35769688Y24147202I13125J7262D01*
G01X35790000Y24100000D02*
G03X35769688Y24147202I-65000J0D01*
G01X35190001Y24200000D02*
Y24050000D01*
X35125000Y23984999D02*
G03X35190001Y24050000I0J65001D01*
G01X35125000Y23984999D02*
X35025000D01*
X34959999Y24050000D02*
G03X35025000Y23984999I65001J0D01*
G01X34959999Y24050000D02*
Y24200000D01*
X35190001D02*
G03X34959999I-115001J0D01*
G01X38452501Y21201967D02*
X39210000D01*
X38452501Y21174967D02*
X39210000D01*
X38452501Y21147967D02*
X39210000D01*
X38452501Y21120967D02*
X39210000D01*
X38452501Y21093967D02*
X39210000D01*
X38449172Y21066967D02*
X39210000D01*
X38431836Y21039967D02*
X39210000D01*
X38333440Y21012967D02*
X39210000D01*
X37890001Y20985967D02*
X39210000D01*
X38455476Y21228967D02*
X39207025D01*
X38061760Y20958967D02*
X38638240D01*
X38105663Y20931967D02*
X38594337D01*
X38126013Y20904967D02*
X38573987D01*
X38136548Y20877967D02*
X38563452D01*
X38139996Y20850967D02*
X38560004D01*
X38140000Y20823967D02*
X38560000D01*
X38142333Y20796967D02*
X38557667D01*
X37890001Y21012967D02*
X38266560D01*
X37890049Y21039967D02*
X38168164D01*
X38014270Y21066967D02*
X38150828D01*
X38065001Y21201967D02*
X38147499D01*
X38065001Y21174967D02*
X38147499D01*
X38064969Y21147967D02*
X38147499D01*
X38058156Y21120967D02*
X38147499D01*
X38038800Y21093967D02*
X38147499D01*
X38067976Y21228967D02*
X38144524D01*
X38452501Y16746967D02*
X39184999D01*
X38452501Y16719967D02*
X39184999D01*
X38452501Y16692967D02*
X39184999D01*
X38452501Y16665967D02*
X39184999D01*
X38452501Y16638967D02*
X39184999D01*
X38447276Y16611967D02*
X39184999D01*
X38425779Y16584967D02*
X39184999D01*
X38309894Y16557967D02*
X39184999D01*
X37890001Y16530967D02*
X39184999D01*
X37890036Y16503967D02*
X39184964D01*
X38453035Y16773967D02*
X39184465D01*
X38103177Y16476967D02*
X38621823D01*
X38137207Y16449967D02*
X38587793D01*
X38154519Y16422967D02*
X38570481D01*
X38163073Y16395967D02*
X38561927D01*
X38165000Y16368967D02*
X38560000D01*
X38172575Y16341967D02*
X38552425D01*
X37890001Y16557967D02*
X38290106D01*
X37890001Y16584967D02*
X38174221D01*
X38007230Y16611967D02*
X38152724D01*
X38065001Y16746967D02*
X38147499D01*
X38065001Y16719967D02*
X38147499D01*
X38064619Y16692967D02*
X38147499D01*
X38055379Y16665967D02*
X38147499D01*
X38035440Y16638967D02*
X38147499D01*
X38065535Y16773967D02*
X38146965D01*
X33352501Y21201967D02*
X34197499D01*
X33352501Y21174967D02*
X34197499D01*
X33352501Y21147967D02*
X34197499D01*
X33352501Y21120967D02*
X34197499D01*
X33352501Y21093967D02*
X34197499D01*
X33349172Y21066967D02*
X34197499D01*
X33331836Y21039967D02*
X34197499D01*
X33233440Y21012967D02*
X34197499D01*
X32790001Y20985967D02*
X34197499D01*
X33355476Y21228967D02*
X34194524D01*
X32961760Y20958967D02*
X33538240D01*
X33005663Y20931967D02*
X33494337D01*
X33026013Y20904967D02*
X33473987D01*
X33036548Y20877967D02*
X33463452D01*
X33039996Y20850967D02*
X33460004D01*
X33040000Y20823967D02*
X33460000D01*
X33042333Y20796967D02*
X33457667D01*
X32790001Y21012967D02*
X33166560D01*
X32790049Y21039967D02*
X33068164D01*
X32914270Y21066967D02*
X33050828D01*
X32965001Y21201967D02*
X33047499D01*
X32965001Y21174967D02*
X33047499D01*
X32964969Y21147967D02*
X33047499D01*
X32958156Y21120967D02*
X33047499D01*
X32938800Y21093967D02*
X33047499D01*
X32967976Y21228967D02*
X33044524D01*
X33352501Y16746967D02*
X34084999D01*
X33352501Y16719967D02*
X34084999D01*
X33352501Y16692967D02*
X34084999D01*
X33352501Y16665967D02*
X34084999D01*
X33352501Y16638967D02*
X34084999D01*
X33347276Y16611967D02*
X34084999D01*
X33325779Y16584967D02*
X34084999D01*
X33209894Y16557967D02*
X34084999D01*
X32790001Y16530967D02*
X34084999D01*
X32790036Y16503967D02*
X34084964D01*
X33353035Y16773967D02*
X34084465D01*
X33003177Y16476967D02*
X33721823D01*
X33037207Y16449967D02*
X33687793D01*
X33054519Y16422967D02*
X33670481D01*
X33063073Y16395967D02*
X33661927D01*
X33065000Y16368967D02*
X33660000D01*
X33072575Y16341967D02*
X33652425D01*
X32790001Y16557967D02*
X33190106D01*
X32790001Y16584967D02*
X33074221D01*
X32907230Y16611967D02*
X33052724D01*
X32965001Y16746967D02*
X33047499D01*
X32965001Y16719967D02*
X33047499D01*
X32964619Y16692967D02*
X33047499D01*
X32955379Y16665967D02*
X33047499D01*
X32935440Y16638967D02*
X33047499D01*
X32965535Y16773967D02*
X33046965D01*
X35052501Y21201967D02*
X35897499D01*
X35052501Y21174967D02*
X35897499D01*
X35052501Y21147967D02*
X35897499D01*
X35052501Y21120967D02*
X35897499D01*
X35052501Y21093967D02*
X35897499D01*
X35049172Y21066967D02*
X35897499D01*
X35031836Y21039967D02*
X35897499D01*
X34933440Y21012967D02*
X35897499D01*
X34490001Y20985967D02*
X35897499D01*
X35055476Y21228967D02*
X35894524D01*
X34661760Y20958967D02*
X35238240D01*
X34705663Y20931967D02*
X35194337D01*
X34726013Y20904967D02*
X35173987D01*
X34736548Y20877967D02*
X35163452D01*
X34739996Y20850967D02*
X35160004D01*
X34740000Y20823967D02*
X35160000D01*
X34742333Y20796967D02*
X35157667D01*
X34490001Y21012967D02*
X34866560D01*
X34490049Y21039967D02*
X34768164D01*
X34614270Y21066967D02*
X34750828D01*
X34665001Y21201967D02*
X34747499D01*
X34665001Y21174967D02*
X34747499D01*
X34664969Y21147967D02*
X34747499D01*
X34658156Y21120967D02*
X34747499D01*
X34638800Y21093967D02*
X34747499D01*
X34667976Y21228967D02*
X34744524D01*
X35052501Y16746967D02*
X35784999D01*
X35052501Y16719967D02*
X35784999D01*
X35052501Y16692967D02*
X35784999D01*
X35052501Y16665967D02*
X35784999D01*
X35052501Y16638967D02*
X35784999D01*
X35047276Y16611967D02*
X35784999D01*
X35025779Y16584967D02*
X35784999D01*
X34909894Y16557967D02*
X35784999D01*
X34490001Y16530967D02*
X35784999D01*
X34490036Y16503967D02*
X35784964D01*
X35053035Y16773967D02*
X35784465D01*
X34703177Y16476967D02*
X35221823D01*
X34737207Y16449967D02*
X35187793D01*
X34754519Y16422967D02*
X35170481D01*
X34763073Y16395967D02*
X35161927D01*
X34765000Y16368967D02*
X35160000D01*
X34772575Y16341967D02*
X35152425D01*
X34490001Y16557967D02*
X34890106D01*
X34490001Y16584967D02*
X34774221D01*
X34607230Y16611967D02*
X34752724D01*
X34665001Y16746967D02*
X34747499D01*
X34665001Y16719967D02*
X34747499D01*
X34664619Y16692967D02*
X34747499D01*
X34655379Y16665967D02*
X34747499D01*
X34635440Y16638967D02*
X34747499D01*
X34665535Y16773967D02*
X34746965D01*
X36752501Y21201967D02*
X37597499D01*
X36752501Y21174967D02*
X37597499D01*
X36752501Y21147967D02*
X37597499D01*
X36752501Y21120967D02*
X37597499D01*
X36752501Y21093967D02*
X37597499D01*
X36749172Y21066967D02*
X37597499D01*
X36731836Y21039967D02*
X37597499D01*
X36633440Y21012967D02*
X37597499D01*
X36190001Y20985967D02*
X37597499D01*
X36755476Y21228967D02*
X37594524D01*
X36361760Y20958967D02*
X36963240D01*
X36405663Y20931967D02*
X36919337D01*
X36426013Y20904967D02*
X36898987D01*
X36436548Y20877967D02*
X36888452D01*
X36439996Y20850967D02*
X36885004D01*
X36440000Y20823967D02*
X36885000D01*
X36442333Y20796967D02*
X36882667D01*
X36190001Y21012967D02*
X36566560D01*
X36190049Y21039967D02*
X36468164D01*
X36314270Y21066967D02*
X36450828D01*
X36365001Y21201967D02*
X36447499D01*
X36365001Y21174967D02*
X36447499D01*
X36364969Y21147967D02*
X36447499D01*
X36358156Y21120967D02*
X36447499D01*
X36338800Y21093967D02*
X36447499D01*
X36367976Y21228967D02*
X36444524D01*
X36752501Y16746967D02*
X37484999D01*
X36752501Y16719967D02*
X37484999D01*
X36752501Y16692967D02*
X37484999D01*
X36752501Y16665967D02*
X37484999D01*
X36752501Y16638967D02*
X37484999D01*
X36747276Y16611967D02*
X37484999D01*
X36725779Y16584967D02*
X37484999D01*
X36609894Y16557967D02*
X37484999D01*
X36190001Y16530967D02*
X37484999D01*
X36190036Y16503967D02*
X37484964D01*
X36753035Y16773967D02*
X37484465D01*
X36403177Y16476967D02*
X36896823D01*
X36437207Y16449967D02*
X36862793D01*
X36454519Y16422967D02*
X36845481D01*
X36463073Y16395967D02*
X36836927D01*
X36465000Y16368967D02*
X36835000D01*
X36472575Y16341967D02*
X36827425D01*
X36190001Y16557967D02*
X36590106D01*
X36190001Y16584967D02*
X36474221D01*
X36307230Y16611967D02*
X36452724D01*
X36365001Y16746967D02*
X36447499D01*
X36365001Y16719967D02*
X36447499D01*
X36364619Y16692967D02*
X36447499D01*
X36355379Y16665967D02*
X36447499D01*
X36335440Y16638967D02*
X36447499D01*
X36365535Y16773967D02*
X36446965D01*
X26552501Y21201967D02*
X27397499D01*
X26552501Y21174967D02*
X27397499D01*
X26552501Y21147967D02*
X27397499D01*
X26552501Y21120967D02*
X27397499D01*
X26552501Y21093967D02*
X27397499D01*
X26549172Y21066967D02*
X27397499D01*
X26531836Y21039967D02*
X27397499D01*
X26433440Y21012967D02*
X27397499D01*
X25990001Y20985967D02*
X27397499D01*
X26555476Y21228967D02*
X27394524D01*
X26161760Y20958967D02*
X26738240D01*
X26205663Y20931967D02*
X26694337D01*
X26226013Y20904967D02*
X26673987D01*
X26236548Y20877967D02*
X26663452D01*
X26239996Y20850967D02*
X26660004D01*
X26240000Y20823967D02*
X26660000D01*
X26242333Y20796967D02*
X26657667D01*
X25990001Y21012967D02*
X26366560D01*
X25990049Y21039967D02*
X26268164D01*
X26114270Y21066967D02*
X26250828D01*
X26165001Y21201967D02*
X26247499D01*
X26165001Y21174967D02*
X26247499D01*
X26164969Y21147967D02*
X26247499D01*
X26158156Y21120967D02*
X26247499D01*
X26138800Y21093967D02*
X26247499D01*
X26167976Y21228967D02*
X26244524D01*
X26552501Y16746967D02*
X27284999D01*
X26552501Y16719967D02*
X27284999D01*
X26552501Y16692967D02*
X27284999D01*
X26552501Y16665967D02*
X27284999D01*
X26552501Y16638967D02*
X27284999D01*
X26547276Y16611967D02*
X27284999D01*
X26525779Y16584967D02*
X27284999D01*
X26409894Y16557967D02*
X27284999D01*
X25990001Y16530967D02*
X27284999D01*
X25990036Y16503967D02*
X27284964D01*
X26553035Y16773967D02*
X27284465D01*
X26178177Y16476967D02*
X26721823D01*
X26212207Y16449967D02*
X26687793D01*
X26229519Y16422967D02*
X26670481D01*
X26238073Y16395967D02*
X26661927D01*
X26240000Y16368967D02*
X26660000D01*
X26247575Y16341967D02*
X26652425D01*
X25990001Y16557967D02*
X26390106D01*
X25990001Y16584967D02*
X26274221D01*
X26107230Y16611967D02*
X26252724D01*
X26165001Y16746967D02*
X26247499D01*
X26165001Y16719967D02*
X26247499D01*
X26164619Y16692967D02*
X26247499D01*
X26155379Y16665967D02*
X26247499D01*
X26135440Y16638967D02*
X26247499D01*
X26165535Y16773967D02*
X26246965D01*
X28252501Y21201967D02*
X29097499D01*
X28252501Y21174967D02*
X29097499D01*
X28252501Y21147967D02*
X29097499D01*
X28252501Y21120967D02*
X29097499D01*
X28252501Y21093967D02*
X29097499D01*
X28249172Y21066967D02*
X29097499D01*
X28231836Y21039967D02*
X29097499D01*
X28133440Y21012967D02*
X29097499D01*
X27690001Y20985967D02*
X29097499D01*
X28255476Y21228967D02*
X29094524D01*
X27861760Y20958967D02*
X28438240D01*
X27905663Y20931967D02*
X28394337D01*
X27926013Y20904967D02*
X28373987D01*
X27936548Y20877967D02*
X28363452D01*
X27939996Y20850967D02*
X28360004D01*
X27940000Y20823967D02*
X28360000D01*
X27942333Y20796967D02*
X28357667D01*
X27690001Y21012967D02*
X28066560D01*
X27690049Y21039967D02*
X27968164D01*
X27814270Y21066967D02*
X27950828D01*
X27865001Y21201967D02*
X27947499D01*
X27865001Y21174967D02*
X27947499D01*
X27864969Y21147967D02*
X27947499D01*
X27858156Y21120967D02*
X27947499D01*
X27838800Y21093967D02*
X27947499D01*
X27867976Y21228967D02*
X27944524D01*
X28252501Y16746967D02*
X28984999D01*
X28252501Y16719967D02*
X28984999D01*
X28252501Y16692967D02*
X28984999D01*
X28252501Y16665967D02*
X28984999D01*
X28252501Y16638967D02*
X28984999D01*
X28247276Y16611967D02*
X28984999D01*
X28225779Y16584967D02*
X28984999D01*
X28109894Y16557967D02*
X28984999D01*
X27690001Y16530967D02*
X28984999D01*
X27690036Y16503967D02*
X28984964D01*
X28253035Y16773967D02*
X28984465D01*
X27878177Y16476967D02*
X28421823D01*
X27912207Y16449967D02*
X28387793D01*
X27929519Y16422967D02*
X28370481D01*
X27938073Y16395967D02*
X28361927D01*
X27940000Y16368967D02*
X28360000D01*
X27947575Y16341967D02*
X28352425D01*
X27690001Y16557967D02*
X28090106D01*
X27690001Y16584967D02*
X27974221D01*
X27807230Y16611967D02*
X27952724D01*
X27865001Y16746967D02*
X27947499D01*
X27865001Y16719967D02*
X27947499D01*
X27864619Y16692967D02*
X27947499D01*
X27855379Y16665967D02*
X27947499D01*
X27835440Y16638967D02*
X27947499D01*
X27865535Y16773967D02*
X27946965D01*
X29952501Y25035967D02*
X30047499D01*
X29952501Y25008967D02*
X30047499D01*
X29952501Y24981967D02*
X30047499D01*
X29952501Y24954967D02*
X30047499D01*
X29952501Y24927967D02*
X30047499D01*
X29952501Y24900967D02*
X30047499D01*
X29952501Y24873967D02*
X30047499D01*
X29952501Y24846967D02*
X30047499D01*
X29952501Y24819967D02*
X30047499D01*
X29952501Y24792967D02*
X30047499D01*
X29952501Y24765967D02*
X30047499D01*
X29952501Y24738967D02*
X30047499D01*
X29952501Y24711967D02*
X30047499D01*
X29952501Y24684967D02*
X30047499D01*
X29952501Y24657967D02*
X30047499D01*
X29952501Y24630967D02*
X30047499D01*
X29952501Y24603967D02*
X30047499D01*
X29952501Y24576967D02*
X30047499D01*
X29952501Y24549967D02*
X30047499D01*
X29952501Y24522967D02*
X30047499D01*
X29952501Y24495967D02*
X30047499D01*
X29952501Y24468967D02*
X30047499D01*
X29952501Y24441967D02*
X30047499D01*
X29952501Y24414967D02*
X30047499D01*
X29952501Y24387967D02*
X30047499D01*
X29952501Y24360967D02*
X30047499D01*
X29952501Y24333967D02*
X30047499D01*
X29952501Y24306967D02*
X30047499D01*
X29952501Y24279967D02*
X30047499D01*
X29952501Y24252967D02*
X30047499D01*
X29952501Y24225967D02*
X30047499D01*
X29952501Y24198967D02*
X30047499D01*
X29952501Y24171967D02*
X30047499D01*
X29952501Y24144967D02*
X30047499D01*
X29952501Y24117967D02*
X30047499D01*
X29952501Y24090967D02*
X30047499D01*
X29952501Y24063967D02*
X30047499D01*
X29952501Y24036967D02*
X30047499D01*
X29952501Y24009967D02*
X30047499D01*
X29952501Y23982967D02*
X30047499D01*
X29952501Y23955967D02*
X30047499D01*
X29952501Y23928967D02*
X30047499D01*
X29952501Y23901967D02*
X30047499D01*
X29952501Y23874967D02*
X30047499D01*
X29952501Y23847967D02*
X30047499D01*
X29952501Y23820967D02*
X30047499D01*
X29952501Y23793967D02*
X30047499D01*
X29952501Y23766967D02*
X30047499D01*
X29952501Y23739967D02*
X30047499D01*
X29952501Y23712967D02*
X30047499D01*
X29952501Y23685967D02*
X30047499D01*
X29952501Y23658967D02*
X30047499D01*
X29952501Y23631967D02*
X30047499D01*
X29952501Y23604967D02*
X30047499D01*
X29952501Y23577967D02*
X30047499D01*
X29952501Y23550967D02*
X30047499D01*
X29952501Y23523967D02*
X30047499D01*
X29952501Y23496967D02*
X30047499D01*
X29952501Y23469967D02*
X30047499D01*
X29952501Y23442967D02*
X30047499D01*
X29952501Y23415967D02*
X30047499D01*
X29952501Y23388967D02*
X30047499D01*
X29952501Y23361967D02*
X30047499D01*
X29952501Y23334967D02*
X30047499D01*
X29952501Y23307967D02*
X30047499D01*
X29952501Y23280967D02*
X30047499D01*
X29952501Y23253967D02*
X30047499D01*
X29952501Y23226967D02*
X30047499D01*
X29952501Y23199967D02*
X30047499D01*
X29952501Y23172967D02*
X30047499D01*
X29952501Y23145967D02*
X30047499D01*
X29952501Y23118967D02*
X30047499D01*
X29952501Y23091967D02*
X30047499D01*
X29952501Y23064967D02*
X30047499D01*
X29952501Y23037967D02*
X30047499D01*
X29952501Y23010967D02*
X30047499D01*
X29952501Y22983967D02*
X30047499D01*
X29952501Y22956967D02*
X30047499D01*
X29952501Y22929967D02*
X30047499D01*
X29952501Y22902967D02*
X30047499D01*
X29952501Y22875967D02*
X30047499D01*
X29952501Y22848967D02*
X30047499D01*
X29952501Y22821967D02*
X30047499D01*
X29952501Y22794967D02*
X30047499D01*
X29952501Y22767967D02*
X30047499D01*
X29952501Y22740967D02*
X30047499D01*
X29952501Y22713967D02*
X30047499D01*
X29952501Y22686967D02*
X30047499D01*
X29952501Y22659967D02*
X30047499D01*
X29952501Y22632967D02*
X30047499D01*
X29952501Y22605967D02*
X30047499D01*
X29952501Y22578967D02*
X30047499D01*
X29952501Y22551967D02*
X30047499D01*
X29952501Y22524967D02*
X30047499D01*
X29952501Y22497967D02*
X30047499D01*
X29952501Y25062967D02*
X30044283D01*
X29959064Y25089967D02*
X30016789D01*
X29952501Y21201967D02*
X30797499D01*
X29952501Y21174967D02*
X30797499D01*
X29952501Y21147967D02*
X30797499D01*
X29952501Y21120967D02*
X30797499D01*
X29952501Y21093967D02*
X30797499D01*
X29949172Y21066967D02*
X30797499D01*
X29931836Y21039967D02*
X30797499D01*
X29833440Y21012967D02*
X30797499D01*
X29390001Y20985967D02*
X30797499D01*
X29955476Y21228967D02*
X30794524D01*
X29561760Y20958967D02*
X30138240D01*
X29605663Y20931967D02*
X30094337D01*
X29626013Y20904967D02*
X30073987D01*
X29636548Y20877967D02*
X30063452D01*
X29639996Y20850967D02*
X30060004D01*
X29640000Y20823967D02*
X30060000D01*
X29642333Y20796967D02*
X30057667D01*
X29390001Y21012967D02*
X29766560D01*
X29390049Y21039967D02*
X29668164D01*
X29514270Y21066967D02*
X29650828D01*
X29565001Y21201967D02*
X29647499D01*
X29565001Y21174967D02*
X29647499D01*
X29564969Y21147967D02*
X29647499D01*
X29558156Y21120967D02*
X29647499D01*
X29538800Y21093967D02*
X29647499D01*
X29567976Y21228967D02*
X29644524D01*
X29952501Y16746967D02*
X30684999D01*
X29952501Y16719967D02*
X30684999D01*
X29952501Y16692967D02*
X30684999D01*
X29952501Y16665967D02*
X30684999D01*
X29952501Y16638967D02*
X30684999D01*
X29947276Y16611967D02*
X30684999D01*
X29925779Y16584967D02*
X30684999D01*
X29809894Y16557967D02*
X30684999D01*
X29390001Y16530967D02*
X30684999D01*
X29390036Y16503967D02*
X30684964D01*
X29953035Y16773967D02*
X30684465D01*
X29603177Y16476967D02*
X30121823D01*
X29637207Y16449967D02*
X30087793D01*
X29654519Y16422967D02*
X30070481D01*
X29663073Y16395967D02*
X30061927D01*
X29665000Y16368967D02*
X30060000D01*
X29665000Y16341967D02*
X30060000D01*
X29390001Y16557967D02*
X29790106D01*
X29390001Y16584967D02*
X29674221D01*
X29507230Y16611967D02*
X29652724D01*
X29565001Y16746967D02*
X29647499D01*
X29565001Y16719967D02*
X29647499D01*
X29564619Y16692967D02*
X29647499D01*
X29555379Y16665967D02*
X29647499D01*
X29535440Y16638967D02*
X29647499D01*
X29565535Y16773967D02*
X29646965D01*
X31652501Y21201967D02*
X32497499D01*
X31652501Y21174967D02*
X32497499D01*
X31652501Y21147967D02*
X32497499D01*
X31652501Y21120967D02*
X32497499D01*
X31652501Y21093967D02*
X32497499D01*
X31649172Y21066967D02*
X32497499D01*
X31631836Y21039967D02*
X32497499D01*
X31533440Y21012967D02*
X32497499D01*
X31090001Y20985967D02*
X32497499D01*
X31655476Y21228967D02*
X32494524D01*
X31261760Y20958967D02*
X31838240D01*
X31305663Y20931967D02*
X31794337D01*
X31326013Y20904967D02*
X31773987D01*
X31336548Y20877967D02*
X31763452D01*
X31339996Y20850967D02*
X31760004D01*
X31340000Y20823967D02*
X31760000D01*
X31342333Y20796967D02*
X31757667D01*
X31090001Y21012967D02*
X31466560D01*
X31090049Y21039967D02*
X31368164D01*
X31214270Y21066967D02*
X31350828D01*
X31265001Y21201967D02*
X31347499D01*
X31265001Y21174967D02*
X31347499D01*
X31264969Y21147967D02*
X31347499D01*
X31258156Y21120967D02*
X31347499D01*
X31238800Y21093967D02*
X31347499D01*
X31267976Y21228967D02*
X31344524D01*
X31652501Y16746967D02*
X32384999D01*
X31652501Y16719967D02*
X32384999D01*
X31652501Y16692967D02*
X32384999D01*
X31652501Y16665967D02*
X32384999D01*
X31652501Y16638967D02*
X32384999D01*
X31647276Y16611967D02*
X32384999D01*
X31625779Y16584967D02*
X32384999D01*
X31509894Y16557967D02*
X32384999D01*
X31090001Y16530967D02*
X32384999D01*
X31090036Y16503967D02*
X32384964D01*
X31653035Y16773967D02*
X32384465D01*
X31303177Y16476967D02*
X31821823D01*
X31337207Y16449967D02*
X31787793D01*
X31354519Y16422967D02*
X31770481D01*
X31363073Y16395967D02*
X31761927D01*
X31365000Y16368967D02*
X31760000D01*
X31372575Y16341967D02*
X31752425D01*
X31090001Y16557967D02*
X31490106D01*
X31090001Y16584967D02*
X31374221D01*
X31207230Y16611967D02*
X31352724D01*
X31265001Y16746967D02*
X31347499D01*
X31265001Y16719967D02*
X31347499D01*
X31264619Y16692967D02*
X31347499D01*
X31255379Y16665967D02*
X31347499D01*
X31235440Y16638967D02*
X31347499D01*
X31265535Y16773967D02*
X31346965D01*
X36990001Y24036967D02*
X39535000D01*
X36990001Y24009967D02*
X39535000D01*
X36987729Y23982967D02*
X39535000D01*
X36972814Y23955967D02*
X39535000D01*
X33502501Y23928967D02*
X39535000D01*
X33502501Y23901967D02*
X39535000D01*
X33502501Y23874967D02*
X39535000D01*
X33502501Y23847967D02*
X39535000D01*
X33502501Y23820967D02*
X39535000D01*
X33502501Y23793967D02*
X39535000D01*
X33502501Y23766967D02*
X39535000D01*
X33502501Y23739967D02*
X39535000D01*
X33502501Y23712967D02*
X39535000D01*
X33502501Y23685967D02*
X39535000D01*
X33502501Y23658967D02*
X39535000D01*
X33502501Y23631967D02*
X39535000D01*
X33502501Y23604967D02*
X39535000D01*
X33502501Y23577967D02*
X39535000D01*
X33502501Y23550967D02*
X39535000D01*
X33502501Y23523967D02*
X39535000D01*
X33502501Y23496967D02*
X39535000D01*
X33502501Y23469967D02*
X39535000D01*
X33502501Y23442967D02*
X39535000D01*
X33502501Y23415967D02*
X39535000D01*
X33502501Y23388967D02*
X39535000D01*
X33502501Y23361967D02*
X39535000D01*
X33502501Y23334967D02*
X39535000D01*
X33502501Y23307967D02*
X39535000D01*
X33502501Y23280967D02*
X39535000D01*
X33502501Y23253967D02*
X39535000D01*
X33502501Y23226967D02*
X39535000D01*
X33502501Y23199967D02*
X39535000D01*
X33502501Y23172967D02*
X39535000D01*
X33502501Y23145967D02*
X39535000D01*
X33502501Y23118967D02*
X39535000D01*
X33502501Y23091967D02*
X39535000D01*
X33502501Y23064967D02*
X39535000D01*
X33502501Y23037967D02*
X39535000D01*
X33502501Y23010967D02*
X39535000D01*
X33502501Y22983967D02*
X39535000D01*
X33502501Y22956967D02*
X39535000D01*
X33502501Y22929967D02*
X39535000D01*
X33502501Y22902967D02*
X39535000D01*
X33502501Y22875967D02*
X39535000D01*
X33502501Y22848967D02*
X39535000D01*
X33502501Y22821967D02*
X39535000D01*
X33502501Y22794967D02*
X39535000D01*
X33502501Y22767967D02*
X39535000D01*
X33502501Y22740967D02*
X39535000D01*
X33502501Y22713967D02*
X39535000D01*
X33502501Y22686967D02*
X39535000D01*
X33502501Y22659967D02*
X39535000D01*
X33502501Y22632967D02*
X39535000D01*
X33507910Y22605967D02*
X39535000D01*
X37705636Y22578967D02*
X39535000D01*
X37732636Y22551967D02*
X39535000D01*
X37759636Y22524967D02*
X39535000D01*
X37785873Y22497967D02*
X39535000D01*
X37799611Y22470967D02*
X39535000D01*
X37802501Y22443967D02*
X39535000D01*
X37802501Y22416967D02*
X39535000D01*
X37802501Y22389967D02*
X39535000D01*
X37802501Y22362967D02*
X39535000D01*
X37802501Y22335967D02*
X39535000D01*
X37802501Y22308967D02*
X39535000D01*
X37802501Y22281967D02*
X39535000D01*
X39208377Y22254967D02*
X39535000D01*
X39248474Y22227967D02*
X39535000D01*
X39270533Y22200967D02*
X39535000D01*
X39283797Y22173967D02*
X39535000D01*
X39290000Y22146967D02*
X39535000D01*
X39290000Y22119967D02*
X39535000D01*
X39290000Y22092967D02*
X39535000D01*
X39290000Y22065967D02*
X39535000D01*
X39290000Y22038967D02*
X39535000D01*
X39290000Y22011967D02*
X39535000D01*
X39290000Y21984967D02*
X39535000D01*
X39290000Y21957967D02*
X39535000D01*
X39290000Y21930967D02*
X39535000D01*
X39290000Y21903967D02*
X39535000D01*
X39290000Y21876967D02*
X39535000D01*
X39290000Y21849967D02*
X39535000D01*
X39290000Y21822967D02*
X39535000D01*
X39290000Y21795967D02*
X39535000D01*
X39290000Y21768967D02*
X39535000D01*
X39290000Y21741967D02*
X39535000D01*
X39290000Y21714967D02*
X39535000D01*
X39290000Y21687967D02*
X39535000D01*
X39290000Y21660967D02*
X39535000D01*
X39290000Y21633967D02*
X39535000D01*
X39290000Y21606967D02*
X39535000D01*
X39290000Y21579967D02*
X39535000D01*
X39290000Y21552967D02*
X39535000D01*
X39290000Y21525967D02*
X39535000D01*
X39290000Y21498967D02*
X39535000D01*
X39290000Y21471967D02*
X39535000D01*
X39290000Y21444967D02*
X39535000D01*
X39290000Y21417967D02*
X39535000D01*
X39290000Y21390967D02*
X39535000D01*
X39290000Y21363967D02*
X39535000D01*
X39290000Y21336967D02*
X39535000D01*
X39290000Y21309967D02*
X39535000D01*
X39290000Y21282967D02*
X39535000D01*
X39290000Y21255967D02*
X39535000D01*
X39290000Y21228967D02*
X39535000D01*
X39290000Y21201967D02*
X39535000D01*
X39290000Y21174967D02*
X39535000D01*
X39290000Y21147967D02*
X39535000D01*
X39290000Y21120967D02*
X39535000D01*
X39290000Y21093967D02*
X39535000D01*
X39290000Y21066967D02*
X39535000D01*
X39290000Y21039967D02*
X39535000D01*
X39290000Y21012967D02*
X39535000D01*
X39290000Y20985967D02*
X39535000D01*
X39290000Y20958967D02*
X39535000D01*
X39290000Y20931967D02*
X39535000D01*
X39290000Y20904967D02*
X39535000D01*
X39290000Y20877967D02*
X39535000D01*
X39290000Y20850967D02*
X39535000D01*
X39290000Y20823967D02*
X39535000D01*
X39290000Y20796967D02*
X39535000D01*
X39290000Y20769967D02*
X39535000D01*
X39290000Y20742967D02*
X39535000D01*
X39290000Y20715967D02*
X39535000D01*
X39290000Y20688967D02*
X39535000D01*
X39290000Y20661967D02*
X39535000D01*
X39290000Y20634967D02*
X39535000D01*
X39290000Y20607967D02*
X39535000D01*
X39290000Y20580967D02*
X39535000D01*
X39290000Y20553967D02*
X39535000D01*
X39290000Y20526967D02*
X39535000D01*
X39290000Y20499967D02*
X39535000D01*
X39290000Y20472967D02*
X39535000D01*
X39290000Y20445967D02*
X39535000D01*
X39290000Y20418967D02*
X39535000D01*
X39290000Y20391967D02*
X39535000D01*
X39290001Y20364967D02*
X39535000D01*
X39290001Y20337967D02*
X39535000D01*
X39290001Y20310967D02*
X39535000D01*
X39290001Y20283967D02*
X39535000D01*
X39290001Y20256967D02*
X39535000D01*
X39290001Y20229967D02*
X39535000D01*
X39290001Y20202967D02*
X39535000D01*
X39290001Y20175967D02*
X39535000D01*
X39290001Y20148967D02*
X39535000D01*
X39290001Y20121967D02*
X39535000D01*
X39290001Y20094967D02*
X39535000D01*
X39290001Y20067967D02*
X39535000D01*
X39290001Y20040967D02*
X39535000D01*
X39290001Y20013967D02*
X39535000D01*
X39290001Y19986967D02*
X39535000D01*
X39290001Y19959967D02*
X39535000D01*
X39290001Y19932967D02*
X39535000D01*
X39290001Y19905967D02*
X39535000D01*
X39290001Y19878967D02*
X39535000D01*
X39290001Y19851967D02*
X39535000D01*
X39290001Y19824967D02*
X39535000D01*
X39290001Y19797967D02*
X39535000D01*
X39290001Y19770967D02*
X39535000D01*
X39290001Y19743967D02*
X39535000D01*
X39290001Y19716967D02*
X39535000D01*
X39290001Y19689967D02*
X39535000D01*
X39290001Y19662967D02*
X39535000D01*
X39290001Y19635967D02*
X39535000D01*
X39290001Y19608967D02*
X39535000D01*
X39290000Y19581967D02*
X39535000D01*
X39290000Y19554967D02*
X39535000D01*
X39290000Y19527967D02*
X39535000D01*
X39290000Y19500967D02*
X39535000D01*
X39290000Y19473967D02*
X39535000D01*
X39290000Y19446967D02*
X39535000D01*
X39290000Y19419967D02*
X39535000D01*
X39290000Y19392967D02*
X39535000D01*
X39290000Y19365967D02*
X39535000D01*
X39290000Y19338967D02*
X39535000D01*
X39290000Y19311967D02*
X39535000D01*
X39290000Y19284967D02*
X39535000D01*
X39291470Y19257967D02*
X39535000D01*
X39321313Y19230967D02*
X39535000D01*
X39348313Y19203967D02*
X39535000D01*
X39375313Y19176967D02*
X39535000D01*
X39402313Y19149967D02*
X39535000D01*
X39426153Y19122967D02*
X39535000D01*
X39437524Y19095967D02*
X39535000D01*
X39440001Y19068967D02*
X39535000D01*
X39440001Y19041967D02*
X39535000D01*
X39440001Y19014967D02*
X39535000D01*
X39440001Y18987967D02*
X39535000D01*
X39440001Y18960967D02*
X39535000D01*
X39440001Y18933967D02*
X39535000D01*
X39440001Y18906967D02*
X39535000D01*
X39440001Y18879967D02*
X39535000D01*
X39440001Y18852967D02*
X39535000D01*
X39440001Y18825967D02*
X39535000D01*
X39440001Y18798967D02*
X39535000D01*
X39440001Y18771967D02*
X39535000D01*
X39440001Y18744967D02*
X39535000D01*
X39440001Y18717967D02*
X39535000D01*
X39440001Y18690967D02*
X39535000D01*
X39440001Y18663967D02*
X39535000D01*
X39440001Y18636967D02*
X39535000D01*
X39440001Y18609967D02*
X39535000D01*
X39440001Y18582967D02*
X39535000D01*
X39440001Y18555967D02*
X39535000D01*
X39440001Y18528967D02*
X39535000D01*
X39440001Y18501967D02*
X39535000D01*
X39440001Y18474967D02*
X39535000D01*
X39440001Y18447967D02*
X39535000D01*
X39440001Y18420967D02*
X39535000D01*
X39440001Y18393967D02*
X39535000D01*
X39440001Y18366967D02*
X39535000D01*
X39440001Y18339967D02*
X39535000D01*
X39440001Y18312967D02*
X39535000D01*
X39440001Y18285967D02*
X39535000D01*
X39440001Y18258967D02*
X39535000D01*
X39440001Y18231967D02*
X39535000D01*
X39440001Y18204967D02*
X39535000D01*
X39440001Y18177967D02*
X39535000D01*
X39440001Y18150967D02*
X39535000D01*
X39440001Y18123967D02*
X39535000D01*
X39440001Y18096967D02*
X39535000D01*
X39440001Y18069967D02*
X39535000D01*
X39440001Y18042967D02*
X39535000D01*
X39440001Y18015967D02*
X39535000D01*
X39440001Y17988967D02*
X39535000D01*
X39440001Y17961967D02*
X39535000D01*
X39440001Y17934967D02*
X39535000D01*
X39440001Y17907967D02*
X39535000D01*
X39440001Y17880967D02*
X39535000D01*
X39440001Y17853967D02*
X39535000D01*
X39440001Y17826967D02*
X39535000D01*
X39440001Y17799967D02*
X39535000D01*
X39440001Y17772967D02*
X39535000D01*
X39440001Y17745967D02*
X39535000D01*
X39440001Y17718967D02*
X39535000D01*
X39440001Y17691967D02*
X39535000D01*
X39440001Y17664967D02*
X39535000D01*
X39440001Y17637967D02*
X39535000D01*
X39440001Y17610967D02*
X39535000D01*
X39440001Y17583967D02*
X39535000D01*
X39440001Y17556967D02*
X39535000D01*
X39440001Y17529967D02*
X39535000D01*
X39440001Y17502967D02*
X39535000D01*
X39440001Y17475967D02*
X39535000D01*
X39440001Y17448967D02*
X39535000D01*
X39440001Y17421967D02*
X39535000D01*
X39440001Y17394967D02*
X39535000D01*
X39440001Y17367967D02*
X39535000D01*
X39440001Y17340967D02*
X39535000D01*
X39440001Y17313967D02*
X39535000D01*
X39440001Y17286967D02*
X39535000D01*
X39440001Y17259967D02*
X39535000D01*
X39440001Y17232967D02*
X39535000D01*
X39440001Y17205967D02*
X39535000D01*
X39440001Y17178967D02*
X39535000D01*
X39440001Y17151967D02*
X39535000D01*
X39440001Y17124967D02*
X39535000D01*
X39440001Y17097967D02*
X39535000D01*
X39440001Y17070967D02*
X39535000D01*
X39440001Y17043967D02*
X39535000D01*
X39440001Y17016967D02*
X39535000D01*
X39440001Y16989967D02*
X39535000D01*
X39440001Y16962967D02*
X39535000D01*
X39440001Y16935967D02*
X39535000D01*
X39440001Y16908967D02*
X39535000D01*
X39440001Y16881967D02*
X39535000D01*
X39440001Y16854967D02*
X39535000D01*
X39440139Y16827967D02*
X39534862D01*
X36990001Y24063967D02*
X39514820D01*
X36990001Y24090967D02*
X39487820D01*
X36987468Y24117967D02*
X38585820D01*
X36971937Y24144967D02*
X38558820D01*
X36951459Y24171967D02*
X38531820D01*
X36910081Y24198967D02*
X38504820D01*
X35702053Y25170967D02*
X38485000D01*
X35685862Y25143967D02*
X38485000D01*
X35658134Y25116967D02*
X38485000D01*
X35648754Y25089967D02*
X38485000D01*
X35680151Y25062967D02*
X38485000D01*
X35698681Y25035967D02*
X38485000D01*
X35709283Y25008967D02*
X38485000D01*
X35713825Y24981967D02*
X38485000D01*
X35712921Y24954967D02*
X38485000D01*
X35706455Y24927967D02*
X38485000D01*
X35693499Y24900967D02*
X38485000D01*
X35671387Y24873967D02*
X38485000D01*
X35629424Y24846967D02*
X38485000D01*
X33502501Y24819967D02*
X38485000D01*
X33502501Y24792967D02*
X38485000D01*
X33502501Y24765967D02*
X38485000D01*
X33502501Y24738967D02*
X38485000D01*
X33502501Y24711967D02*
X38485000D01*
X33502501Y24684967D02*
X38485000D01*
X33502501Y24657967D02*
X38485000D01*
X33502501Y24630967D02*
X38485000D01*
X33502501Y24603967D02*
X38485000D01*
X33502501Y24576967D02*
X38485000D01*
X33502501Y24549967D02*
X38485000D01*
X33502501Y24522967D02*
X38485000D01*
X33502501Y24495967D02*
X38485000D01*
X33502501Y24468967D02*
X38485000D01*
X33502501Y24441967D02*
X38485000D01*
X33502501Y24414967D02*
X38485000D01*
X33502501Y24387967D02*
X38485000D01*
X33502501Y24360967D02*
X38485000D01*
X33502501Y24333967D02*
X38485000D01*
X36117229Y24306967D02*
X38485000D01*
X36157647Y24279967D02*
X38485000D01*
X36177077Y24252967D02*
X38485000D01*
X36187031Y24225967D02*
X38485000D01*
X35710988Y25197967D02*
X38480816D01*
X35714105Y25224967D02*
X38453820D01*
X35711811Y25251967D02*
X38426820D01*
X35710849Y25278967D02*
X38399820D01*
X36710081Y24198967D02*
X36839919D01*
X36751459Y24171967D02*
X36798541D01*
X36510081Y24198967D02*
X36639919D01*
X36551459Y24171967D02*
X36598541D01*
X36190001Y24198967D02*
X36439919D01*
X36190001Y24171967D02*
X36398541D01*
X36190001Y24144967D02*
X36378063D01*
X35772814Y23955967D02*
X36377186D01*
X36190001Y24117967D02*
X36362532D01*
X35787729Y23982967D02*
X36362271D01*
X36190001Y24090967D02*
X36359999D01*
X36190001Y24063967D02*
X36359999D01*
X36188680Y24036967D02*
X36359999D01*
X36176209Y24009967D02*
X36359999D01*
X35117229Y24306967D02*
X36032771D01*
X35157647Y24279967D02*
X35992353D01*
X35790001Y24009967D02*
X35973791D01*
X35177077Y24252967D02*
X35972923D01*
X35187031Y24225967D02*
X35962969D01*
X35790001Y24036967D02*
X35961320D01*
X35710081Y24198967D02*
X35959999D01*
X35751459Y24171967D02*
X35959999D01*
X35771937Y24144967D02*
X35959999D01*
X35787468Y24117967D02*
X35959999D01*
X35790001Y24090967D02*
X35959999D01*
X35790001Y24063967D02*
X35959999D01*
X35510081Y24198967D02*
X35639919D01*
X35551459Y24171967D02*
X35598541D01*
X35375424Y24846967D02*
X35526576D01*
X35393630Y25089967D02*
X35499044D01*
X34896134Y25116967D02*
X35497866D01*
X34923862Y25143967D02*
X35470138D01*
X34940053Y25170967D02*
X35453947D01*
X34948849Y25278967D02*
X35445151D01*
X34948988Y25197967D02*
X35445012D01*
X34949811Y25251967D02*
X35444189D01*
X34952105Y25224967D02*
X35441895D01*
X35190001Y24198967D02*
X35439919D01*
X35190001Y24171967D02*
X35398541D01*
X35190001Y24144967D02*
X35378063D01*
X33502501Y23955967D02*
X35377186D01*
X35190001Y24117967D02*
X35362532D01*
X33502501Y23982967D02*
X35362271D01*
X35190001Y24090967D02*
X35359999D01*
X35190001Y24063967D02*
X35359999D01*
X35188680Y24036967D02*
X35359999D01*
X35176209Y24009967D02*
X35359999D01*
X35121424Y24846967D02*
X35272576D01*
X35139625Y25089967D02*
X35254375D01*
X35163387Y24873967D02*
X35230613D01*
X35172151Y25062967D02*
X35221849D01*
X35185706Y24900967D02*
X35208294D01*
X33502501Y24306967D02*
X35032771D01*
X34105424Y24846967D02*
X35018576D01*
X34124754Y25089967D02*
X35000375D01*
X33502501Y24279967D02*
X34992353D01*
X34147387Y24873967D02*
X34976613D01*
X33502501Y24009967D02*
X34973791D01*
X33502501Y24252967D02*
X34972923D01*
X34156151Y25062967D02*
X34967849D01*
X33502501Y24225967D02*
X34962969D01*
X33502501Y24036967D02*
X34961320D01*
X33502501Y24198967D02*
X34959999D01*
X33502501Y24171967D02*
X34959999D01*
X33502501Y24144967D02*
X34959999D01*
X33502501Y24117967D02*
X34959999D01*
X33502501Y24090967D02*
X34959999D01*
X33502501Y24063967D02*
X34959999D01*
X34169499Y24900967D02*
X34954501D01*
X34174681Y25035967D02*
X34949319D01*
X34182455Y24927967D02*
X34941545D01*
X34185283Y25008967D02*
X34938717D01*
X34188921Y24954967D02*
X34935079D01*
X34189825Y24981967D02*
X34934175D01*
X34642134Y25116967D02*
X34735866D01*
X34669862Y25143967D02*
X34708138D01*
X34388134Y25116967D02*
X34481866D01*
X34415862Y25143967D02*
X34454138D01*
X34134134Y25116967D02*
X34227866D01*
X34161862Y25143967D02*
X34200138D01*
X33851424Y24846967D02*
X34002576D01*
X33893387Y24873967D02*
X33960613D01*
X33915706Y24900967D02*
X33938294D01*
X33597424Y24846967D02*
X33748576D01*
X33639387Y24873967D02*
X33706613D01*
X33661706Y24900967D02*
X33684294D01*
X39440001Y16746967D02*
X39535000D01*
X39440001Y16719967D02*
X39535000D01*
X39440001Y16692967D02*
X39535000D01*
X39440001Y16665967D02*
X39535000D01*
X39440001Y16638967D02*
X39535000D01*
X39440001Y16611967D02*
X39535000D01*
X39440001Y16584967D02*
X39535000D01*
X39440001Y16557967D02*
X39535000D01*
X39440001Y16530967D02*
X39535000D01*
X39440036Y16503967D02*
X39534964D01*
X39440535Y16773967D02*
X39534466D01*
G74*
X0Y0D02*
M02*
