*
*
G04 PADS Layout (Build Number 2005.266.2) generated Gerber (RS-274-X) file*
G04 PC Version=2.1*
*
%IN "cecs_module_relay_1031."*%
*
%MOMM*%
*
%FSLAX35Y35*%
*
*
*
*
G04 PC Standard Apertures*
*
*
G04 Thermal Relief Aperture macro.*
%AMTER*
1,1,$1,0,0*
1,0,$1-$2,0,0*
21,0,$3,$4,0,0,45*
21,0,$3,$4,0,0,135*
%
*
*
G04 Annular Aperture macro.*
%AMANN*
1,1,$1,0,0*
1,0,$2,0,0*
%
*
*
G04 Odd Aperture macro.*
%AMODD*
1,1,$1,0,0*
1,0,$1-0.005,0,0*
%
*
*
G04 PC Custom Aperture Macros*
*
*
*
*
*
*
G04 PC Aperture Table*
*
%ADD058C,0.254*%
%ADD079R,1.65X1.65*%
%ADD083C,1.55*%
%ADD084R,1.4724X1.4724*%
%ADD085C,1.4724*%
%ADD086C,2.05*%
%ADD089C,1.65*%
%ADD111C,0.85*%
%ADD112C,1.05*%
%ADD113R,1.85X1.85*%
%ADD114C,1.85*%
%ADD115C,4.55*%
*
*
*
*
G04 PC Custom Flashes*
G04 Layer Name cecs_module_relay_1031. - flashes*
%LPD*%
*
*
G04 PC Circuitry*
G04 Layer Name cecs_module_relay_1031. - circuitry*
%LPD*%
*
G54D58*
G01X35514800Y24089800D02*
Y24010200D01*
X35435200*
Y24089800*
X35514800*
X35435200Y24010200D02*
X35514800D01*
X35435200Y24035600D02*
X35514800D01*
X35435200Y24061000D02*
X35514800D01*
X35435200Y24086400D02*
X35514800D01*
X35458400Y24010200D02*
Y24089800D01*
X35483800Y24010200D02*
Y24089800D01*
X35509200Y24010200D02*
Y24089800D01*
X35514800Y23810200D02*
Y23889800D01*
X35435200*
Y23810200*
X35514800*
X35435200D02*
X35514800D01*
X35435200Y23835600D02*
X35514800D01*
X35435200Y23861000D02*
X35514800D01*
X35435200Y23886400D02*
X35514800D01*
X35458400Y23810200D02*
Y23889800D01*
X35483800Y23810200D02*
Y23889800D01*
X35509200Y23810200D02*
Y23889800D01*
X35714800Y24089800D02*
Y24010200D01*
X35635200*
Y24089800*
X35714800*
X35635200Y24010200D02*
X35714800D01*
X35635200Y24035600D02*
X35714800D01*
X35635200Y24061000D02*
X35714800D01*
X35635200Y24086400D02*
X35714800D01*
X35636200Y24010200D02*
Y24089800D01*
X35661600Y24010200D02*
Y24089800D01*
X35687000Y24010200D02*
Y24089800D01*
X35712400Y24010200D02*
Y24089800D01*
X35714800Y23810200D02*
Y23889800D01*
X35635200*
Y23810200*
X35714800*
X35635200D02*
X35714800D01*
X35635200Y23835600D02*
X35714800D01*
X35635200Y23861000D02*
X35714800D01*
X35635200Y23886400D02*
X35714800D01*
X35636200Y23810200D02*
Y23889800D01*
X35661600Y23810200D02*
Y23889800D01*
X35687000Y23810200D02*
Y23889800D01*
X35712400Y23810200D02*
Y23889800D01*
X36514800Y24089800D02*
Y24010200D01*
X36435200*
Y24089800*
X36514800*
X36435200Y24010200D02*
X36514800D01*
X36435200Y24035600D02*
X36514800D01*
X36435200Y24061000D02*
X36514800D01*
X36435200Y24086400D02*
X36514800D01*
X36449000Y24010200D02*
Y24089800D01*
X36474400Y24010200D02*
Y24089800D01*
X36499800Y24010200D02*
Y24089800D01*
X36514800Y23810200D02*
Y23889800D01*
X36435200*
Y23810200*
X36514800*
X36435200D02*
X36514800D01*
X36435200Y23835600D02*
X36514800D01*
X36435200Y23861000D02*
X36514800D01*
X36435200Y23886400D02*
X36514800D01*
X36449000Y23810200D02*
Y23889800D01*
X36474400Y23810200D02*
Y23889800D01*
X36499800Y23810200D02*
Y23889800D01*
X36714800Y24089800D02*
Y24010200D01*
X36635200*
Y24089800*
X36714800*
X36635200Y24010200D02*
X36714800D01*
X36635200Y24035600D02*
X36714800D01*
X36635200Y24061000D02*
X36714800D01*
X36635200Y24086400D02*
X36714800D01*
X36652200Y24010200D02*
Y24089800D01*
X36677600Y24010200D02*
Y24089800D01*
X36703000Y24010200D02*
Y24089800D01*
X36714800Y23810200D02*
Y23889800D01*
X36635200*
Y23810200*
X36714800*
X36635200D02*
X36714800D01*
X36635200Y23835600D02*
X36714800D01*
X36635200Y23861000D02*
X36714800D01*
X36635200Y23886400D02*
X36714800D01*
X36652200Y23810200D02*
Y23889800D01*
X36677600Y23810200D02*
Y23889800D01*
X36703000Y23810200D02*
Y23889800D01*
X36914800Y24089800D02*
Y24010200D01*
X36835200*
Y24089800*
X36914800*
X36835200Y24010200D02*
X36914800D01*
X36835200Y24035600D02*
X36914800D01*
X36835200Y24061000D02*
X36914800D01*
X36835200Y24086400D02*
X36914800D01*
X36855400Y24010200D02*
Y24089800D01*
X36880800Y24010200D02*
Y24089800D01*
X36906200Y24010200D02*
Y24089800D01*
X36914800Y23810200D02*
Y23889800D01*
X36835200*
Y23810200*
X36914800*
X36835200D02*
X36914800D01*
X36835200Y23835600D02*
X36914800D01*
X36835200Y23861000D02*
X36914800D01*
X36835200Y23886400D02*
X36914800D01*
X36855400Y23810200D02*
Y23889800D01*
X36880800Y23810200D02*
Y23889800D01*
X36906200Y23810200D02*
Y23889800D01*
X36035200Y23710200D02*
Y23839800D01*
X36114800*
Y23710200*
X36035200*
X36114800*
X36035200Y23735600D02*
X36114800D01*
X36035200Y23761000D02*
X36114800D01*
X36035200Y23786400D02*
X36114800D01*
X36035200Y23811800D02*
X36114800D01*
X36035200Y23837200D02*
X36114800D01*
X36042600Y23710200D02*
Y23839800D01*
X36068000Y23710200D02*
Y23839800D01*
X36093400Y23710200D02*
Y23839800D01*
X36035200Y24189800D02*
Y24060200D01*
X36114800*
Y24189800*
X36035200*
Y24060200D02*
X36114800D01*
X36035200Y24085600D02*
X36114800D01*
X36035200Y24111000D02*
X36114800D01*
X36035200Y24136400D02*
X36114800D01*
X36035200Y24161800D02*
X36114800D01*
X36035200Y24187200D02*
X36114800D01*
X36042600Y24060200D02*
Y24189800D01*
X36068000Y24060200D02*
Y24189800D01*
X36093400Y24060200D02*
Y24189800D01*
X35035200Y23710200D02*
Y23839800D01*
X35114800*
Y23710200*
X35035200*
X35114800*
X35035200Y23735600D02*
X35114800D01*
X35035200Y23761000D02*
X35114800D01*
X35035200Y23786400D02*
X35114800D01*
X35035200Y23811800D02*
X35114800D01*
X35035200Y23837200D02*
X35114800D01*
X35052000Y23710200D02*
Y23839800D01*
X35077400Y23710200D02*
Y23839800D01*
X35102800Y23710200D02*
Y23839800D01*
X35035200Y24189800D02*
Y24060200D01*
X35114800*
Y24189800*
X35035200*
Y24060200D02*
X35114800D01*
X35035200Y24085600D02*
X35114800D01*
X35035200Y24111000D02*
X35114800D01*
X35035200Y24136400D02*
X35114800D01*
X35035200Y24161800D02*
X35114800D01*
X35035200Y24187200D02*
X35114800D01*
X35052000Y24060200D02*
Y24189800D01*
X35077400Y24060200D02*
Y24189800D01*
X35102800Y24060200D02*
Y24189800D01*
X26035200Y16260200D02*
Y16339800D01*
X26127300*
Y16260200*
X26035200*
X26127300*
X26035200Y16285600D02*
X26127300D01*
X26035200Y16311000D02*
X26127300D01*
X26035200Y16336400D02*
X26127300D01*
X26060400Y16260200D02*
Y16339800D01*
X26085800Y16260200D02*
Y16339800D01*
X26111200Y16260200D02*
Y16339800D01*
X26261000Y16170500D02*
Y16251700D01*
X26329500*
Y16170500*
X26261000*
X26329500*
X26261000Y16195900D02*
X26329500D01*
X26261000Y16221300D02*
X26329500D01*
X26261000Y16246700D02*
X26329500D01*
X26263600Y16170500D02*
Y16251700D01*
X26289000Y16170500D02*
Y16251700D01*
X26314400Y16170500D02*
Y16251700D01*
X26261000Y16348300D02*
Y16429500D01*
X26329500*
Y16348300*
X26261000*
X26329500*
X26261000Y16373700D02*
X26329500D01*
X26261000Y16399100D02*
X26329500D01*
X26261000Y16424500D02*
X26329500D01*
X26263600Y16348300D02*
Y16429500D01*
X26289000Y16348300D02*
Y16429500D01*
X26314400Y16348300D02*
Y16429500D01*
X32835200Y20710200D02*
Y20789800D01*
X32927300*
Y20710200*
X32835200*
X32927300*
X32835200Y20735600D02*
X32927300D01*
X32835200Y20761000D02*
X32927300D01*
X32835200Y20786400D02*
X32927300D01*
X32842200Y20710200D02*
Y20789800D01*
X32867600Y20710200D02*
Y20789800D01*
X32893000Y20710200D02*
Y20789800D01*
X32918400Y20710200D02*
Y20789800D01*
X33061000Y20620500D02*
Y20701700D01*
X33129500*
Y20620500*
X33061000*
X33129500*
X33061000Y20645900D02*
X33129500D01*
X33061000Y20671300D02*
X33129500D01*
X33061000Y20696700D02*
X33129500D01*
X33070800Y20620500D02*
Y20701700D01*
X33096200Y20620500D02*
Y20701700D01*
X33121600Y20620500D02*
Y20701700D01*
X33061000Y20798300D02*
Y20879500D01*
X33129500*
Y20798300*
X33061000*
X33129500*
X33061000Y20823700D02*
X33129500D01*
X33061000Y20849100D02*
X33129500D01*
X33061000Y20874500D02*
X33129500D01*
X33070800Y20798300D02*
Y20879500D01*
X33096200Y20798300D02*
Y20879500D01*
X33121600Y20798300D02*
Y20879500D01*
X34535200Y16260200D02*
Y16339800D01*
X34627300*
Y16260200*
X34535200*
X34627300*
X34535200Y16285600D02*
X34627300D01*
X34535200Y16311000D02*
X34627300D01*
X34535200Y16336400D02*
X34627300D01*
X34544000Y16260200D02*
Y16339800D01*
X34569400Y16260200D02*
Y16339800D01*
X34594800Y16260200D02*
Y16339800D01*
X34620200Y16260200D02*
Y16339800D01*
X34761000Y16170500D02*
Y16251700D01*
X34829500*
Y16170500*
X34761000*
X34829500*
X34761000Y16195900D02*
X34829500D01*
X34761000Y16221300D02*
X34829500D01*
X34761000Y16246700D02*
X34829500D01*
X34772600Y16170500D02*
Y16251700D01*
X34798000Y16170500D02*
Y16251700D01*
X34823400Y16170500D02*
Y16251700D01*
X34761000Y16348300D02*
Y16429500D01*
X34829500*
Y16348300*
X34761000*
X34829500*
X34761000Y16373700D02*
X34829500D01*
X34761000Y16399100D02*
X34829500D01*
X34761000Y16424500D02*
X34829500D01*
X34772600Y16348300D02*
Y16429500D01*
X34798000Y16348300D02*
Y16429500D01*
X34823400Y16348300D02*
Y16429500D01*
X34535200Y20710200D02*
Y20789800D01*
X34627300*
Y20710200*
X34535200*
X34627300*
X34535200Y20735600D02*
X34627300D01*
X34535200Y20761000D02*
X34627300D01*
X34535200Y20786400D02*
X34627300D01*
X34544000Y20710200D02*
Y20789800D01*
X34569400Y20710200D02*
Y20789800D01*
X34594800Y20710200D02*
Y20789800D01*
X34620200Y20710200D02*
Y20789800D01*
X34761000Y20620500D02*
Y20701700D01*
X34829500*
Y20620500*
X34761000*
X34829500*
X34761000Y20645900D02*
X34829500D01*
X34761000Y20671300D02*
X34829500D01*
X34761000Y20696700D02*
X34829500D01*
X34772600Y20620500D02*
Y20701700D01*
X34798000Y20620500D02*
Y20701700D01*
X34823400Y20620500D02*
Y20701700D01*
X34761000Y20798300D02*
Y20879500D01*
X34829500*
Y20798300*
X34761000*
X34829500*
X34761000Y20823700D02*
X34829500D01*
X34761000Y20849100D02*
X34829500D01*
X34761000Y20874500D02*
X34829500D01*
X34772600Y20798300D02*
Y20879500D01*
X34798000Y20798300D02*
Y20879500D01*
X34823400Y20798300D02*
Y20879500D01*
X36235200Y16260200D02*
Y16339800D01*
X36327300*
Y16260200*
X36235200*
X36327300*
X36235200Y16285600D02*
X36327300D01*
X36235200Y16311000D02*
X36327300D01*
X36235200Y16336400D02*
X36327300D01*
X36245800Y16260200D02*
Y16339800D01*
X36271200Y16260200D02*
Y16339800D01*
X36296600Y16260200D02*
Y16339800D01*
X36322000Y16260200D02*
Y16339800D01*
X36461000Y16170500D02*
Y16251700D01*
X36529500*
Y16170500*
X36461000*
X36529500*
X36461000Y16195900D02*
X36529500D01*
X36461000Y16221300D02*
X36529500D01*
X36461000Y16246700D02*
X36529500D01*
X36474400Y16170500D02*
Y16251700D01*
X36499800Y16170500D02*
Y16251700D01*
X36525200Y16170500D02*
Y16251700D01*
X36461000Y16348300D02*
Y16429500D01*
X36529500*
Y16348300*
X36461000*
X36529500*
X36461000Y16373700D02*
X36529500D01*
X36461000Y16399100D02*
X36529500D01*
X36461000Y16424500D02*
X36529500D01*
X36474400Y16348300D02*
Y16429500D01*
X36499800Y16348300D02*
Y16429500D01*
X36525200Y16348300D02*
Y16429500D01*
X36235200Y20710200D02*
Y20789800D01*
X36327300*
Y20710200*
X36235200*
X36327300*
X36235200Y20735600D02*
X36327300D01*
X36235200Y20761000D02*
X36327300D01*
X36235200Y20786400D02*
X36327300D01*
X36245800Y20710200D02*
Y20789800D01*
X36271200Y20710200D02*
Y20789800D01*
X36296600Y20710200D02*
Y20789800D01*
X36322000Y20710200D02*
Y20789800D01*
X36461000Y20620500D02*
Y20701700D01*
X36529500*
Y20620500*
X36461000*
X36529500*
X36461000Y20645900D02*
X36529500D01*
X36461000Y20671300D02*
X36529500D01*
X36461000Y20696700D02*
X36529500D01*
X36474400Y20620500D02*
Y20701700D01*
X36499800Y20620500D02*
Y20701700D01*
X36525200Y20620500D02*
Y20701700D01*
X36461000Y20798300D02*
Y20879500D01*
X36529500*
Y20798300*
X36461000*
X36529500*
X36461000Y20823700D02*
X36529500D01*
X36461000Y20849100D02*
X36529500D01*
X36461000Y20874500D02*
X36529500D01*
X36474400Y20798300D02*
Y20879500D01*
X36499800Y20798300D02*
Y20879500D01*
X36525200Y20798300D02*
Y20879500D01*
X37935200Y16260200D02*
Y16339800D01*
X38027300*
Y16260200*
X37935200*
X38027300*
X37935200Y16285600D02*
X38027300D01*
X37935200Y16311000D02*
X38027300D01*
X37935200Y16336400D02*
X38027300D01*
X37947600Y16260200D02*
Y16339800D01*
X37973000Y16260200D02*
Y16339800D01*
X37998400Y16260200D02*
Y16339800D01*
X38023800Y16260200D02*
Y16339800D01*
X38161000Y16170500D02*
Y16251700D01*
X38229500*
Y16170500*
X38161000*
X38229500*
X38161000Y16195900D02*
X38229500D01*
X38161000Y16221300D02*
X38229500D01*
X38161000Y16246700D02*
X38229500D01*
X38176200Y16170500D02*
Y16251700D01*
X38201600Y16170500D02*
Y16251700D01*
X38227000Y16170500D02*
Y16251700D01*
X38161000Y16348300D02*
Y16429500D01*
X38229500*
Y16348300*
X38161000*
X38229500*
X38161000Y16373700D02*
X38229500D01*
X38161000Y16399100D02*
X38229500D01*
X38161000Y16424500D02*
X38229500D01*
X38176200Y16348300D02*
Y16429500D01*
X38201600Y16348300D02*
Y16429500D01*
X38227000Y16348300D02*
Y16429500D01*
X37935200Y20710200D02*
Y20789800D01*
X38027300*
Y20710200*
X37935200*
X38027300*
X37935200Y20735600D02*
X38027300D01*
X37935200Y20761000D02*
X38027300D01*
X37935200Y20786400D02*
X38027300D01*
X37947600Y20710200D02*
Y20789800D01*
X37973000Y20710200D02*
Y20789800D01*
X37998400Y20710200D02*
Y20789800D01*
X38023800Y20710200D02*
Y20789800D01*
X38161000Y20620500D02*
Y20701700D01*
X38229500*
Y20620500*
X38161000*
X38229500*
X38161000Y20645900D02*
X38229500D01*
X38161000Y20671300D02*
X38229500D01*
X38161000Y20696700D02*
X38229500D01*
X38176200Y20620500D02*
Y20701700D01*
X38201600Y20620500D02*
Y20701700D01*
X38227000Y20620500D02*
Y20701700D01*
X38161000Y20798300D02*
Y20879500D01*
X38229500*
Y20798300*
X38161000*
X38229500*
X38161000Y20823700D02*
X38229500D01*
X38161000Y20849100D02*
X38229500D01*
X38161000Y20874500D02*
X38229500D01*
X38176200Y20798300D02*
Y20879500D01*
X38201600Y20798300D02*
Y20879500D01*
X38227000Y20798300D02*
Y20879500D01*
X26035200Y20710200D02*
Y20789800D01*
X26127300*
Y20710200*
X26035200*
X26127300*
X26035200Y20735600D02*
X26127300D01*
X26035200Y20761000D02*
X26127300D01*
X26035200Y20786400D02*
X26127300D01*
X26060400Y20710200D02*
Y20789800D01*
X26085800Y20710200D02*
Y20789800D01*
X26111200Y20710200D02*
Y20789800D01*
X26261000Y20620500D02*
Y20701700D01*
X26329500*
Y20620500*
X26261000*
X26329500*
X26261000Y20645900D02*
X26329500D01*
X26261000Y20671300D02*
X26329500D01*
X26261000Y20696700D02*
X26329500D01*
X26263600Y20620500D02*
Y20701700D01*
X26289000Y20620500D02*
Y20701700D01*
X26314400Y20620500D02*
Y20701700D01*
X26261000Y20798300D02*
Y20879500D01*
X26329500*
Y20798300*
X26261000*
X26329500*
X26261000Y20823700D02*
X26329500D01*
X26261000Y20849100D02*
X26329500D01*
X26261000Y20874500D02*
X26329500D01*
X26263600Y20798300D02*
Y20879500D01*
X26289000Y20798300D02*
Y20879500D01*
X26314400Y20798300D02*
Y20879500D01*
X27735200Y16260200D02*
Y16339800D01*
X27827300*
Y16260200*
X27735200*
X27827300*
X27735200Y16285600D02*
X27827300D01*
X27735200Y16311000D02*
X27827300D01*
X27735200Y16336400D02*
X27827300D01*
X27736800Y16260200D02*
Y16339800D01*
X27762200Y16260200D02*
Y16339800D01*
X27787600Y16260200D02*
Y16339800D01*
X27813000Y16260200D02*
Y16339800D01*
X27961000Y16170500D02*
Y16251700D01*
X28029500*
Y16170500*
X27961000*
X28029500*
X27961000Y16195900D02*
X28029500D01*
X27961000Y16221300D02*
X28029500D01*
X27961000Y16246700D02*
X28029500D01*
X27965400Y16170500D02*
Y16251700D01*
X27990800Y16170500D02*
Y16251700D01*
X28016200Y16170500D02*
Y16251700D01*
X27961000Y16348300D02*
Y16429500D01*
X28029500*
Y16348300*
X27961000*
X28029500*
X27961000Y16373700D02*
X28029500D01*
X27961000Y16399100D02*
X28029500D01*
X27961000Y16424500D02*
X28029500D01*
X27965400Y16348300D02*
Y16429500D01*
X27990800Y16348300D02*
Y16429500D01*
X28016200Y16348300D02*
Y16429500D01*
X27735200Y20710200D02*
Y20789800D01*
X27827300*
Y20710200*
X27735200*
X27827300*
X27735200Y20735600D02*
X27827300D01*
X27735200Y20761000D02*
X27827300D01*
X27735200Y20786400D02*
X27827300D01*
X27736800Y20710200D02*
Y20789800D01*
X27762200Y20710200D02*
Y20789800D01*
X27787600Y20710200D02*
Y20789800D01*
X27813000Y20710200D02*
Y20789800D01*
X27961000Y20620500D02*
Y20701700D01*
X28029500*
Y20620500*
X27961000*
X28029500*
X27961000Y20645900D02*
X28029500D01*
X27961000Y20671300D02*
X28029500D01*
X27961000Y20696700D02*
X28029500D01*
X27965400Y20620500D02*
Y20701700D01*
X27990800Y20620500D02*
Y20701700D01*
X28016200Y20620500D02*
Y20701700D01*
X27961000Y20798300D02*
Y20879500D01*
X28029500*
Y20798300*
X27961000*
X28029500*
X27961000Y20823700D02*
X28029500D01*
X27961000Y20849100D02*
X28029500D01*
X27961000Y20874500D02*
X28029500D01*
X27965400Y20798300D02*
Y20879500D01*
X27990800Y20798300D02*
Y20879500D01*
X28016200Y20798300D02*
Y20879500D01*
X29435200Y16260200D02*
Y16339800D01*
X29527300*
Y16260200*
X29435200*
X29527300*
X29435200Y16285600D02*
X29527300D01*
X29435200Y16311000D02*
X29527300D01*
X29435200Y16336400D02*
X29527300D01*
X29438600Y16260200D02*
Y16339800D01*
X29464000Y16260200D02*
Y16339800D01*
X29489400Y16260200D02*
Y16339800D01*
X29514800Y16260200D02*
Y16339800D01*
X29661000Y16170500D02*
Y16251700D01*
X29729500*
Y16170500*
X29661000*
X29729500*
X29661000Y16195900D02*
X29729500D01*
X29661000Y16221300D02*
X29729500D01*
X29661000Y16246700D02*
X29729500D01*
X29667200Y16170500D02*
Y16251700D01*
X29692600Y16170500D02*
Y16251700D01*
X29718000Y16170500D02*
Y16251700D01*
X29661000Y16348300D02*
Y16429500D01*
X29729500*
Y16348300*
X29661000*
X29729500*
X29661000Y16373700D02*
X29729500D01*
X29661000Y16399100D02*
X29729500D01*
X29661000Y16424500D02*
X29729500D01*
X29667200Y16348300D02*
Y16429500D01*
X29692600Y16348300D02*
Y16429500D01*
X29718000Y16348300D02*
Y16429500D01*
X29435200Y20710200D02*
Y20789800D01*
X29527300*
Y20710200*
X29435200*
X29527300*
X29435200Y20735600D02*
X29527300D01*
X29435200Y20761000D02*
X29527300D01*
X29435200Y20786400D02*
X29527300D01*
X29438600Y20710200D02*
Y20789800D01*
X29464000Y20710200D02*
Y20789800D01*
X29489400Y20710200D02*
Y20789800D01*
X29514800Y20710200D02*
Y20789800D01*
X29661000Y20620500D02*
Y20701700D01*
X29729500*
Y20620500*
X29661000*
X29729500*
X29661000Y20645900D02*
X29729500D01*
X29661000Y20671300D02*
X29729500D01*
X29661000Y20696700D02*
X29729500D01*
X29667200Y20620500D02*
Y20701700D01*
X29692600Y20620500D02*
Y20701700D01*
X29718000Y20620500D02*
Y20701700D01*
X29661000Y20798300D02*
Y20879500D01*
X29729500*
Y20798300*
X29661000*
X29729500*
X29661000Y20823700D02*
X29729500D01*
X29661000Y20849100D02*
X29729500D01*
X29661000Y20874500D02*
X29729500D01*
X29667200Y20798300D02*
Y20879500D01*
X29692600Y20798300D02*
Y20879500D01*
X29718000Y20798300D02*
Y20879500D01*
X31135200Y16260200D02*
Y16339800D01*
X31227300*
Y16260200*
X31135200*
X31227300*
X31135200Y16285600D02*
X31227300D01*
X31135200Y16311000D02*
X31227300D01*
X31135200Y16336400D02*
X31227300D01*
X31140400Y16260200D02*
Y16339800D01*
X31165800Y16260200D02*
Y16339800D01*
X31191200Y16260200D02*
Y16339800D01*
X31216600Y16260200D02*
Y16339800D01*
X31361000Y16170500D02*
Y16251700D01*
X31429500*
Y16170500*
X31361000*
X31429500*
X31361000Y16195900D02*
X31429500D01*
X31361000Y16221300D02*
X31429500D01*
X31361000Y16246700D02*
X31429500D01*
X31369000Y16170500D02*
Y16251700D01*
X31394400Y16170500D02*
Y16251700D01*
X31419800Y16170500D02*
Y16251700D01*
X31361000Y16348300D02*
Y16429500D01*
X31429500*
Y16348300*
X31361000*
X31429500*
X31361000Y16373700D02*
X31429500D01*
X31361000Y16399100D02*
X31429500D01*
X31361000Y16424500D02*
X31429500D01*
X31369000Y16348300D02*
Y16429500D01*
X31394400Y16348300D02*
Y16429500D01*
X31419800Y16348300D02*
Y16429500D01*
X31135200Y20710200D02*
Y20789800D01*
X31227300*
Y20710200*
X31135200*
X31227300*
X31135200Y20735600D02*
X31227300D01*
X31135200Y20761000D02*
X31227300D01*
X31135200Y20786400D02*
X31227300D01*
X31140400Y20710200D02*
Y20789800D01*
X31165800Y20710200D02*
Y20789800D01*
X31191200Y20710200D02*
Y20789800D01*
X31216600Y20710200D02*
Y20789800D01*
X31361000Y20620500D02*
Y20701700D01*
X31429500*
Y20620500*
X31361000*
X31429500*
X31361000Y20645900D02*
X31429500D01*
X31361000Y20671300D02*
X31429500D01*
X31361000Y20696700D02*
X31429500D01*
X31369000Y20620500D02*
Y20701700D01*
X31394400Y20620500D02*
Y20701700D01*
X31419800Y20620500D02*
Y20701700D01*
X31361000Y20798300D02*
Y20879500D01*
X31429500*
Y20798300*
X31361000*
X31429500*
X31361000Y20823700D02*
X31429500D01*
X31361000Y20849100D02*
X31429500D01*
X31361000Y20874500D02*
X31429500D01*
X31369000Y20798300D02*
Y20879500D01*
X31394400Y20798300D02*
Y20879500D01*
X31419800Y20798300D02*
Y20879500D01*
X32835200Y16260200D02*
Y16339800D01*
X32927300*
Y16260200*
X32835200*
X32927300*
X32835200Y16285600D02*
X32927300D01*
X32835200Y16311000D02*
X32927300D01*
X32835200Y16336400D02*
X32927300D01*
X32842200Y16260200D02*
Y16339800D01*
X32867600Y16260200D02*
Y16339800D01*
X32893000Y16260200D02*
Y16339800D01*
X32918400Y16260200D02*
Y16339800D01*
X33061000Y16170500D02*
Y16251700D01*
X33129500*
Y16170500*
X33061000*
X33129500*
X33061000Y16195900D02*
X33129500D01*
X33061000Y16221300D02*
X33129500D01*
X33061000Y16246700D02*
X33129500D01*
X33070800Y16170500D02*
Y16251700D01*
X33096200Y16170500D02*
Y16251700D01*
X33121600Y16170500D02*
Y16251700D01*
X33061000Y16348300D02*
Y16429500D01*
X33129500*
Y16348300*
X33061000*
X33129500*
X33061000Y16373700D02*
X33129500D01*
X33061000Y16399100D02*
X33129500D01*
X33061000Y16424500D02*
X33129500D01*
X33070800Y16348300D02*
Y16429500D01*
X33096200Y16348300D02*
Y16429500D01*
X33121600Y16348300D02*
Y16429500D01*
X26322700Y16647700D02*
Y16789800D01*
X26477300*
Y16647700*
X26322700*
X26477300*
X26322700Y16673100D02*
X26477300D01*
X26322700Y16698500D02*
X26477300D01*
X26322700Y16723900D02*
X26477300D01*
X26322700Y16749300D02*
X26477300D01*
X26322700Y16774700D02*
X26477300D01*
X26339800Y16647700D02*
Y16789800D01*
X26365200Y16647700D02*
Y16789800D01*
X26390600Y16647700D02*
Y16789800D01*
X26416000Y16647700D02*
Y16789800D01*
X26441400Y16647700D02*
Y16789800D01*
X26466800Y16647700D02*
Y16789800D01*
X26322700Y16910200D02*
Y17064800D01*
X26477300*
Y16910200*
X26322700*
X26477300*
X26322700Y16935600D02*
X26477300D01*
X26322700Y16961000D02*
X26477300D01*
X26322700Y16986400D02*
X26477300D01*
X26322700Y17011800D02*
X26477300D01*
X26322700Y17037200D02*
X26477300D01*
X26322700Y17062600D02*
X26477300D01*
X26339800Y16910200D02*
Y17064800D01*
X26365200Y16910200D02*
Y17064800D01*
X26390600Y16910200D02*
Y17064800D01*
X26416000Y16910200D02*
Y17064800D01*
X26441400Y16910200D02*
Y17064800D01*
X26466800Y16910200D02*
Y17064800D01*
X27789800Y21239800D02*
Y21160200D01*
X27710200*
Y21239800*
X27789800*
X27710200Y21160200D02*
X27789800D01*
X27710200Y21185600D02*
X27789800D01*
X27710200Y21211000D02*
X27789800D01*
X27710200Y21236400D02*
X27789800D01*
X27711400Y21160200D02*
Y21239800D01*
X27736800Y21160200D02*
Y21239800D01*
X27762200Y21160200D02*
Y21239800D01*
X27787600Y21160200D02*
Y21239800D01*
X27789800Y21439800D02*
Y21360200D01*
X27710200*
Y21439800*
X27789800*
X27710200Y21360200D02*
X27789800D01*
X27710200Y21385600D02*
X27789800D01*
X27710200Y21411000D02*
X27789800D01*
X27710200Y21436400D02*
X27789800D01*
X27711400Y21360200D02*
Y21439800D01*
X27736800Y21360200D02*
Y21439800D01*
X27762200Y21360200D02*
Y21439800D01*
X27787600Y21360200D02*
Y21439800D01*
X27839800Y15910200D02*
X27760200D01*
Y15989800*
X27839800*
Y15910200*
X27760200D02*
X27839800D01*
X27760200Y15935600D02*
X27839800D01*
X27760200Y15961000D02*
X27839800D01*
X27760200Y15986400D02*
X27839800D01*
X27762200Y15910200D02*
Y15989800D01*
X27787600Y15910200D02*
Y15989800D01*
X27813000Y15910200D02*
Y15989800D01*
X27838400Y15910200D02*
Y15989800D01*
X28039800Y15910200D02*
X27960200D01*
Y15989800*
X28039800*
Y15910200*
X27960200D02*
X28039800D01*
X27960200Y15935600D02*
X28039800D01*
X27960200Y15961000D02*
X28039800D01*
X27960200Y15986400D02*
X28039800D01*
X27965400Y15910200D02*
Y15989800D01*
X27990800Y15910200D02*
Y15989800D01*
X28016200Y15910200D02*
Y15989800D01*
X27839800Y20360200D02*
X27760200D01*
Y20439800*
X27839800*
Y20360200*
X27760200D02*
X27839800D01*
X27760200Y20385600D02*
X27839800D01*
X27760200Y20411000D02*
X27839800D01*
X27760200Y20436400D02*
X27839800D01*
X27762200Y20360200D02*
Y20439800D01*
X27787600Y20360200D02*
Y20439800D01*
X27813000Y20360200D02*
Y20439800D01*
X27838400Y20360200D02*
Y20439800D01*
X28039800Y20360200D02*
X27960200D01*
Y20439800*
X28039800*
Y20360200*
X27960200D02*
X28039800D01*
X27960200Y20385600D02*
X28039800D01*
X27960200Y20411000D02*
X28039800D01*
X27960200Y20436400D02*
X28039800D01*
X27965400Y20360200D02*
Y20439800D01*
X27990800Y20360200D02*
Y20439800D01*
X28016200Y20360200D02*
Y20439800D01*
X29722700Y16647700D02*
Y16789800D01*
X29877300*
Y16647700*
X29722700*
X29877300*
X29722700Y16673100D02*
X29877300D01*
X29722700Y16698500D02*
X29877300D01*
X29722700Y16723900D02*
X29877300D01*
X29722700Y16749300D02*
X29877300D01*
X29722700Y16774700D02*
X29877300D01*
X29743400Y16647700D02*
Y16789800D01*
X29768800Y16647700D02*
Y16789800D01*
X29794200Y16647700D02*
Y16789800D01*
X29819600Y16647700D02*
Y16789800D01*
X29845000Y16647700D02*
Y16789800D01*
X29870400Y16647700D02*
Y16789800D01*
X29722700Y16910200D02*
Y17064800D01*
X29877300*
Y16910200*
X29722700*
X29877300*
X29722700Y16935600D02*
X29877300D01*
X29722700Y16961000D02*
X29877300D01*
X29722700Y16986400D02*
X29877300D01*
X29722700Y17011800D02*
X29877300D01*
X29722700Y17037200D02*
X29877300D01*
X29722700Y17062600D02*
X29877300D01*
X29743400Y16910200D02*
Y17064800D01*
X29768800Y16910200D02*
Y17064800D01*
X29794200Y16910200D02*
Y17064800D01*
X29819600Y16910200D02*
Y17064800D01*
X29845000Y16910200D02*
Y17064800D01*
X29870400Y16910200D02*
Y17064800D01*
X29722700Y21097700D02*
Y21239800D01*
X29877300*
Y21097700*
X29722700*
X29877300*
X29722700Y21123100D02*
X29877300D01*
X29722700Y21148500D02*
X29877300D01*
X29722700Y21173900D02*
X29877300D01*
X29722700Y21199300D02*
X29877300D01*
X29722700Y21224700D02*
X29877300D01*
X29743400Y21097700D02*
Y21239800D01*
X29768800Y21097700D02*
Y21239800D01*
X29794200Y21097700D02*
Y21239800D01*
X29819600Y21097700D02*
Y21239800D01*
X29845000Y21097700D02*
Y21239800D01*
X29870400Y21097700D02*
Y21239800D01*
X29722700Y21360200D02*
Y21514800D01*
X29877300*
Y21360200*
X29722700*
X29877300*
X29722700Y21385600D02*
X29877300D01*
X29722700Y21411000D02*
X29877300D01*
X29722700Y21436400D02*
X29877300D01*
X29722700Y21461800D02*
X29877300D01*
X29722700Y21487200D02*
X29877300D01*
X29722700Y21512600D02*
X29877300D01*
X29743400Y21360200D02*
Y21514800D01*
X29768800Y21360200D02*
Y21514800D01*
X29794200Y21360200D02*
Y21514800D01*
X29819600Y21360200D02*
Y21514800D01*
X29845000Y21360200D02*
Y21514800D01*
X29870400Y21360200D02*
Y21514800D01*
X29489800Y16789800D02*
Y16710200D01*
X29410200*
Y16789800*
X29489800*
X29410200Y16710200D02*
X29489800D01*
X29410200Y16735600D02*
X29489800D01*
X29410200Y16761000D02*
X29489800D01*
X29410200Y16786400D02*
X29489800D01*
X29413200Y16710200D02*
Y16789800D01*
X29438600Y16710200D02*
Y16789800D01*
X29464000Y16710200D02*
Y16789800D01*
X29489400Y16710200D02*
Y16789800D01*
X29489800Y16989800D02*
Y16910200D01*
X29410200*
Y16989800*
X29489800*
X29410200Y16910200D02*
X29489800D01*
X29410200Y16935600D02*
X29489800D01*
X29410200Y16961000D02*
X29489800D01*
X29410200Y16986400D02*
X29489800D01*
X29413200Y16910200D02*
Y16989800D01*
X29438600Y16910200D02*
Y16989800D01*
X29464000Y16910200D02*
Y16989800D01*
X29489400Y16910200D02*
Y16989800D01*
X29489800Y21239800D02*
Y21160200D01*
X29410200*
Y21239800*
X29489800*
X29410200Y21160200D02*
X29489800D01*
X29410200Y21185600D02*
X29489800D01*
X29410200Y21211000D02*
X29489800D01*
X29410200Y21236400D02*
X29489800D01*
X29413200Y21160200D02*
Y21239800D01*
X29438600Y21160200D02*
Y21239800D01*
X29464000Y21160200D02*
Y21239800D01*
X29489400Y21160200D02*
Y21239800D01*
X29489800Y21439800D02*
Y21360200D01*
X29410200*
Y21439800*
X29489800*
X29410200Y21360200D02*
X29489800D01*
X29410200Y21385600D02*
X29489800D01*
X29410200Y21411000D02*
X29489800D01*
X29410200Y21436400D02*
X29489800D01*
X29413200Y21360200D02*
Y21439800D01*
X29438600Y21360200D02*
Y21439800D01*
X29464000Y21360200D02*
Y21439800D01*
X29489400Y21360200D02*
Y21439800D01*
X29539800Y15910200D02*
X29460200D01*
Y15989800*
X29539800*
Y15910200*
X29460200D02*
X29539800D01*
X29460200Y15935600D02*
X29539800D01*
X29460200Y15961000D02*
X29539800D01*
X29460200Y15986400D02*
X29539800D01*
X29464000Y15910200D02*
Y15989800D01*
X29489400Y15910200D02*
Y15989800D01*
X29514800Y15910200D02*
Y15989800D01*
X29739800Y15910200D02*
X29660200D01*
Y15989800*
X29739800*
Y15910200*
X29660200D02*
X29739800D01*
X29660200Y15935600D02*
X29739800D01*
X29660200Y15961000D02*
X29739800D01*
X29660200Y15986400D02*
X29739800D01*
X29667200Y15910200D02*
Y15989800D01*
X29692600Y15910200D02*
Y15989800D01*
X29718000Y15910200D02*
Y15989800D01*
X29539800Y20360200D02*
X29460200D01*
Y20439800*
X29539800*
Y20360200*
X29460200D02*
X29539800D01*
X29460200Y20385600D02*
X29539800D01*
X29460200Y20411000D02*
X29539800D01*
X29460200Y20436400D02*
X29539800D01*
X29464000Y20360200D02*
Y20439800D01*
X29489400Y20360200D02*
Y20439800D01*
X29514800Y20360200D02*
Y20439800D01*
X29739800Y20360200D02*
X29660200D01*
Y20439800*
X29739800*
Y20360200*
X29660200D02*
X29739800D01*
X29660200Y20385600D02*
X29739800D01*
X29660200Y20411000D02*
X29739800D01*
X29660200Y20436400D02*
X29739800D01*
X29667200Y20360200D02*
Y20439800D01*
X29692600Y20360200D02*
Y20439800D01*
X29718000Y20360200D02*
Y20439800D01*
X31422700Y16647700D02*
Y16789800D01*
X31577300*
Y16647700*
X31422700*
X31577300*
X31422700Y16673100D02*
X31577300D01*
X31422700Y16698500D02*
X31577300D01*
X31422700Y16723900D02*
X31577300D01*
X31422700Y16749300D02*
X31577300D01*
X31422700Y16774700D02*
X31577300D01*
X31445200Y16647700D02*
Y16789800D01*
X31470600Y16647700D02*
Y16789800D01*
X31496000Y16647700D02*
Y16789800D01*
X31521400Y16647700D02*
Y16789800D01*
X31546800Y16647700D02*
Y16789800D01*
X31572200Y16647700D02*
Y16789800D01*
X31422700Y16910200D02*
Y17064800D01*
X31577300*
Y16910200*
X31422700*
X31577300*
X31422700Y16935600D02*
X31577300D01*
X31422700Y16961000D02*
X31577300D01*
X31422700Y16986400D02*
X31577300D01*
X31422700Y17011800D02*
X31577300D01*
X31422700Y17037200D02*
X31577300D01*
X31422700Y17062600D02*
X31577300D01*
X31445200Y16910200D02*
Y17064800D01*
X31470600Y16910200D02*
Y17064800D01*
X31496000Y16910200D02*
Y17064800D01*
X31521400Y16910200D02*
Y17064800D01*
X31546800Y16910200D02*
Y17064800D01*
X31572200Y16910200D02*
Y17064800D01*
X26322700Y21097700D02*
Y21239800D01*
X26477300*
Y21097700*
X26322700*
X26477300*
X26322700Y21123100D02*
X26477300D01*
X26322700Y21148500D02*
X26477300D01*
X26322700Y21173900D02*
X26477300D01*
X26322700Y21199300D02*
X26477300D01*
X26322700Y21224700D02*
X26477300D01*
X26339800Y21097700D02*
Y21239800D01*
X26365200Y21097700D02*
Y21239800D01*
X26390600Y21097700D02*
Y21239800D01*
X26416000Y21097700D02*
Y21239800D01*
X26441400Y21097700D02*
Y21239800D01*
X26466800Y21097700D02*
Y21239800D01*
X26322700Y21360200D02*
Y21514800D01*
X26477300*
Y21360200*
X26322700*
X26477300*
X26322700Y21385600D02*
X26477300D01*
X26322700Y21411000D02*
X26477300D01*
X26322700Y21436400D02*
X26477300D01*
X26322700Y21461800D02*
X26477300D01*
X26322700Y21487200D02*
X26477300D01*
X26322700Y21512600D02*
X26477300D01*
X26339800Y21360200D02*
Y21514800D01*
X26365200Y21360200D02*
Y21514800D01*
X26390600Y21360200D02*
Y21514800D01*
X26416000Y21360200D02*
Y21514800D01*
X26441400Y21360200D02*
Y21514800D01*
X26466800Y21360200D02*
Y21514800D01*
X31422700Y21097700D02*
Y21239800D01*
X31577300*
Y21097700*
X31422700*
X31577300*
X31422700Y21123100D02*
X31577300D01*
X31422700Y21148500D02*
X31577300D01*
X31422700Y21173900D02*
X31577300D01*
X31422700Y21199300D02*
X31577300D01*
X31422700Y21224700D02*
X31577300D01*
X31445200Y21097700D02*
Y21239800D01*
X31470600Y21097700D02*
Y21239800D01*
X31496000Y21097700D02*
Y21239800D01*
X31521400Y21097700D02*
Y21239800D01*
X31546800Y21097700D02*
Y21239800D01*
X31572200Y21097700D02*
Y21239800D01*
X31422700Y21360200D02*
Y21514800D01*
X31577300*
Y21360200*
X31422700*
X31577300*
X31422700Y21385600D02*
X31577300D01*
X31422700Y21411000D02*
X31577300D01*
X31422700Y21436400D02*
X31577300D01*
X31422700Y21461800D02*
X31577300D01*
X31422700Y21487200D02*
X31577300D01*
X31422700Y21512600D02*
X31577300D01*
X31445200Y21360200D02*
Y21514800D01*
X31470600Y21360200D02*
Y21514800D01*
X31496000Y21360200D02*
Y21514800D01*
X31521400Y21360200D02*
Y21514800D01*
X31546800Y21360200D02*
Y21514800D01*
X31572200Y21360200D02*
Y21514800D01*
X31189800Y16789800D02*
Y16710200D01*
X31110200*
Y16789800*
X31189800*
X31110200Y16710200D02*
X31189800D01*
X31110200Y16735600D02*
X31189800D01*
X31110200Y16761000D02*
X31189800D01*
X31110200Y16786400D02*
X31189800D01*
X31115000Y16710200D02*
Y16789800D01*
X31140400Y16710200D02*
Y16789800D01*
X31165800Y16710200D02*
Y16789800D01*
X31189800Y16989800D02*
Y16910200D01*
X31110200*
Y16989800*
X31189800*
X31110200Y16910200D02*
X31189800D01*
X31110200Y16935600D02*
X31189800D01*
X31110200Y16961000D02*
X31189800D01*
X31110200Y16986400D02*
X31189800D01*
X31115000Y16910200D02*
Y16989800D01*
X31140400Y16910200D02*
Y16989800D01*
X31165800Y16910200D02*
Y16989800D01*
X31189800Y21239800D02*
Y21160200D01*
X31110200*
Y21239800*
X31189800*
X31110200Y21160200D02*
X31189800D01*
X31110200Y21185600D02*
X31189800D01*
X31110200Y21211000D02*
X31189800D01*
X31110200Y21236400D02*
X31189800D01*
X31115000Y21160200D02*
Y21239800D01*
X31140400Y21160200D02*
Y21239800D01*
X31165800Y21160200D02*
Y21239800D01*
X31189800Y21439800D02*
Y21360200D01*
X31110200*
Y21439800*
X31189800*
X31110200Y21360200D02*
X31189800D01*
X31110200Y21385600D02*
X31189800D01*
X31110200Y21411000D02*
X31189800D01*
X31110200Y21436400D02*
X31189800D01*
X31115000Y21360200D02*
Y21439800D01*
X31140400Y21360200D02*
Y21439800D01*
X31165800Y21360200D02*
Y21439800D01*
X31239800Y15910200D02*
X31160200D01*
Y15989800*
X31239800*
Y15910200*
X31160200D02*
X31239800D01*
X31160200Y15935600D02*
X31239800D01*
X31160200Y15961000D02*
X31239800D01*
X31160200Y15986400D02*
X31239800D01*
X31165800Y15910200D02*
Y15989800D01*
X31191200Y15910200D02*
Y15989800D01*
X31216600Y15910200D02*
Y15989800D01*
X31439800Y15910200D02*
X31360200D01*
Y15989800*
X31439800*
Y15910200*
X31360200D02*
X31439800D01*
X31360200Y15935600D02*
X31439800D01*
X31360200Y15961000D02*
X31439800D01*
X31360200Y15986400D02*
X31439800D01*
X31369000Y15910200D02*
Y15989800D01*
X31394400Y15910200D02*
Y15989800D01*
X31419800Y15910200D02*
Y15989800D01*
X31239800Y20360200D02*
X31160200D01*
Y20439800*
X31239800*
Y20360200*
X31160200D02*
X31239800D01*
X31160200Y20385600D02*
X31239800D01*
X31160200Y20411000D02*
X31239800D01*
X31160200Y20436400D02*
X31239800D01*
X31165800Y20360200D02*
Y20439800D01*
X31191200Y20360200D02*
Y20439800D01*
X31216600Y20360200D02*
Y20439800D01*
X31439800Y20360200D02*
X31360200D01*
Y20439800*
X31439800*
Y20360200*
X31360200D02*
X31439800D01*
X31360200Y20385600D02*
X31439800D01*
X31360200Y20411000D02*
X31439800D01*
X31360200Y20436400D02*
X31439800D01*
X31369000Y20360200D02*
Y20439800D01*
X31394400Y20360200D02*
Y20439800D01*
X31419800Y20360200D02*
Y20439800D01*
X33122700Y16647700D02*
Y16789800D01*
X33277300*
Y16647700*
X33122700*
X33277300*
X33122700Y16673100D02*
X33277300D01*
X33122700Y16698500D02*
X33277300D01*
X33122700Y16723900D02*
X33277300D01*
X33122700Y16749300D02*
X33277300D01*
X33122700Y16774700D02*
X33277300D01*
X33147000Y16647700D02*
Y16789800D01*
X33172400Y16647700D02*
Y16789800D01*
X33197800Y16647700D02*
Y16789800D01*
X33223200Y16647700D02*
Y16789800D01*
X33248600Y16647700D02*
Y16789800D01*
X33274000Y16647700D02*
Y16789800D01*
X33122700Y16910200D02*
Y17064800D01*
X33277300*
Y16910200*
X33122700*
X33277300*
X33122700Y16935600D02*
X33277300D01*
X33122700Y16961000D02*
X33277300D01*
X33122700Y16986400D02*
X33277300D01*
X33122700Y17011800D02*
X33277300D01*
X33122700Y17037200D02*
X33277300D01*
X33122700Y17062600D02*
X33277300D01*
X33147000Y16910200D02*
Y17064800D01*
X33172400Y16910200D02*
Y17064800D01*
X33197800Y16910200D02*
Y17064800D01*
X33223200Y16910200D02*
Y17064800D01*
X33248600Y16910200D02*
Y17064800D01*
X33274000Y16910200D02*
Y17064800D01*
X33122700Y21097700D02*
Y21239800D01*
X33277300*
Y21097700*
X33122700*
X33277300*
X33122700Y21123100D02*
X33277300D01*
X33122700Y21148500D02*
X33277300D01*
X33122700Y21173900D02*
X33277300D01*
X33122700Y21199300D02*
X33277300D01*
X33122700Y21224700D02*
X33277300D01*
X33147000Y21097700D02*
Y21239800D01*
X33172400Y21097700D02*
Y21239800D01*
X33197800Y21097700D02*
Y21239800D01*
X33223200Y21097700D02*
Y21239800D01*
X33248600Y21097700D02*
Y21239800D01*
X33274000Y21097700D02*
Y21239800D01*
X33122700Y21360200D02*
Y21514800D01*
X33277300*
Y21360200*
X33122700*
X33277300*
X33122700Y21385600D02*
X33277300D01*
X33122700Y21411000D02*
X33277300D01*
X33122700Y21436400D02*
X33277300D01*
X33122700Y21461800D02*
X33277300D01*
X33122700Y21487200D02*
X33277300D01*
X33122700Y21512600D02*
X33277300D01*
X33147000Y21360200D02*
Y21514800D01*
X33172400Y21360200D02*
Y21514800D01*
X33197800Y21360200D02*
Y21514800D01*
X33223200Y21360200D02*
Y21514800D01*
X33248600Y21360200D02*
Y21514800D01*
X33274000Y21360200D02*
Y21514800D01*
X32889800Y16789800D02*
Y16710200D01*
X32810200*
Y16789800*
X32889800*
X32810200Y16710200D02*
X32889800D01*
X32810200Y16735600D02*
X32889800D01*
X32810200Y16761000D02*
X32889800D01*
X32810200Y16786400D02*
X32889800D01*
X32816800Y16710200D02*
Y16789800D01*
X32842200Y16710200D02*
Y16789800D01*
X32867600Y16710200D02*
Y16789800D01*
X32889800Y16989800D02*
Y16910200D01*
X32810200*
Y16989800*
X32889800*
X32810200Y16910200D02*
X32889800D01*
X32810200Y16935600D02*
X32889800D01*
X32810200Y16961000D02*
X32889800D01*
X32810200Y16986400D02*
X32889800D01*
X32816800Y16910200D02*
Y16989800D01*
X32842200Y16910200D02*
Y16989800D01*
X32867600Y16910200D02*
Y16989800D01*
X32889800Y21239800D02*
Y21160200D01*
X32810200*
Y21239800*
X32889800*
X32810200Y21160200D02*
X32889800D01*
X32810200Y21185600D02*
X32889800D01*
X32810200Y21211000D02*
X32889800D01*
X32810200Y21236400D02*
X32889800D01*
X32816800Y21160200D02*
Y21239800D01*
X32842200Y21160200D02*
Y21239800D01*
X32867600Y21160200D02*
Y21239800D01*
X32889800Y21439800D02*
Y21360200D01*
X32810200*
Y21439800*
X32889800*
X32810200Y21360200D02*
X32889800D01*
X32810200Y21385600D02*
X32889800D01*
X32810200Y21411000D02*
X32889800D01*
X32810200Y21436400D02*
X32889800D01*
X32816800Y21360200D02*
Y21439800D01*
X32842200Y21360200D02*
Y21439800D01*
X32867600Y21360200D02*
Y21439800D01*
X32939800Y15910200D02*
X32860200D01*
Y15989800*
X32939800*
Y15910200*
X32860200D02*
X32939800D01*
X32860200Y15935600D02*
X32939800D01*
X32860200Y15961000D02*
X32939800D01*
X32860200Y15986400D02*
X32939800D01*
X32867600Y15910200D02*
Y15989800D01*
X32893000Y15910200D02*
Y15989800D01*
X32918400Y15910200D02*
Y15989800D01*
X33139800Y15910200D02*
X33060200D01*
Y15989800*
X33139800*
Y15910200*
X33060200D02*
X33139800D01*
X33060200Y15935600D02*
X33139800D01*
X33060200Y15961000D02*
X33139800D01*
X33060200Y15986400D02*
X33139800D01*
X33070800Y15910200D02*
Y15989800D01*
X33096200Y15910200D02*
Y15989800D01*
X33121600Y15910200D02*
Y15989800D01*
X26089800Y16789800D02*
Y16710200D01*
X26010200*
Y16789800*
X26089800*
X26010200Y16710200D02*
X26089800D01*
X26010200Y16735600D02*
X26089800D01*
X26010200Y16761000D02*
X26089800D01*
X26010200Y16786400D02*
X26089800D01*
X26035000Y16710200D02*
Y16789800D01*
X26060400Y16710200D02*
Y16789800D01*
X26085800Y16710200D02*
Y16789800D01*
X26089800Y16989800D02*
Y16910200D01*
X26010200*
Y16989800*
X26089800*
X26010200Y16910200D02*
X26089800D01*
X26010200Y16935600D02*
X26089800D01*
X26010200Y16961000D02*
X26089800D01*
X26010200Y16986400D02*
X26089800D01*
X26035000Y16910200D02*
Y16989800D01*
X26060400Y16910200D02*
Y16989800D01*
X26085800Y16910200D02*
Y16989800D01*
X32939800Y20360200D02*
X32860200D01*
Y20439800*
X32939800*
Y20360200*
X32860200D02*
X32939800D01*
X32860200Y20385600D02*
X32939800D01*
X32860200Y20411000D02*
X32939800D01*
X32860200Y20436400D02*
X32939800D01*
X32867600Y20360200D02*
Y20439800D01*
X32893000Y20360200D02*
Y20439800D01*
X32918400Y20360200D02*
Y20439800D01*
X33139800Y20360200D02*
X33060200D01*
Y20439800*
X33139800*
Y20360200*
X33060200D02*
X33139800D01*
X33060200Y20385600D02*
X33139800D01*
X33060200Y20411000D02*
X33139800D01*
X33060200Y20436400D02*
X33139800D01*
X33070800Y20360200D02*
Y20439800D01*
X33096200Y20360200D02*
Y20439800D01*
X33121600Y20360200D02*
Y20439800D01*
X34822700Y16647700D02*
Y16789800D01*
X34977300*
Y16647700*
X34822700*
X34977300*
X34822700Y16673100D02*
X34977300D01*
X34822700Y16698500D02*
X34977300D01*
X34822700Y16723900D02*
X34977300D01*
X34822700Y16749300D02*
X34977300D01*
X34822700Y16774700D02*
X34977300D01*
X34823400Y16647700D02*
Y16789800D01*
X34848800Y16647700D02*
Y16789800D01*
X34874200Y16647700D02*
Y16789800D01*
X34899600Y16647700D02*
Y16789800D01*
X34925000Y16647700D02*
Y16789800D01*
X34950400Y16647700D02*
Y16789800D01*
X34975800Y16647700D02*
Y16789800D01*
X34822700Y16910200D02*
Y17064800D01*
X34977300*
Y16910200*
X34822700*
X34977300*
X34822700Y16935600D02*
X34977300D01*
X34822700Y16961000D02*
X34977300D01*
X34822700Y16986400D02*
X34977300D01*
X34822700Y17011800D02*
X34977300D01*
X34822700Y17037200D02*
X34977300D01*
X34822700Y17062600D02*
X34977300D01*
X34823400Y16910200D02*
Y17064800D01*
X34848800Y16910200D02*
Y17064800D01*
X34874200Y16910200D02*
Y17064800D01*
X34899600Y16910200D02*
Y17064800D01*
X34925000Y16910200D02*
Y17064800D01*
X34950400Y16910200D02*
Y17064800D01*
X34975800Y16910200D02*
Y17064800D01*
X34589800Y16789800D02*
Y16710200D01*
X34510200*
Y16789800*
X34589800*
X34510200Y16710200D02*
X34589800D01*
X34510200Y16735600D02*
X34589800D01*
X34510200Y16761000D02*
X34589800D01*
X34510200Y16786400D02*
X34589800D01*
X34518600Y16710200D02*
Y16789800D01*
X34544000Y16710200D02*
Y16789800D01*
X34569400Y16710200D02*
Y16789800D01*
X34589800Y16989800D02*
Y16910200D01*
X34510200*
Y16989800*
X34589800*
X34510200Y16910200D02*
X34589800D01*
X34510200Y16935600D02*
X34589800D01*
X34510200Y16961000D02*
X34589800D01*
X34510200Y16986400D02*
X34589800D01*
X34518600Y16910200D02*
Y16989800D01*
X34544000Y16910200D02*
Y16989800D01*
X34569400Y16910200D02*
Y16989800D01*
X34822700Y21097700D02*
Y21239800D01*
X34977300*
Y21097700*
X34822700*
X34977300*
X34822700Y21123100D02*
X34977300D01*
X34822700Y21148500D02*
X34977300D01*
X34822700Y21173900D02*
X34977300D01*
X34822700Y21199300D02*
X34977300D01*
X34822700Y21224700D02*
X34977300D01*
X34823400Y21097700D02*
Y21239800D01*
X34848800Y21097700D02*
Y21239800D01*
X34874200Y21097700D02*
Y21239800D01*
X34899600Y21097700D02*
Y21239800D01*
X34925000Y21097700D02*
Y21239800D01*
X34950400Y21097700D02*
Y21239800D01*
X34975800Y21097700D02*
Y21239800D01*
X34822700Y21360200D02*
Y21514800D01*
X34977300*
Y21360200*
X34822700*
X34977300*
X34822700Y21385600D02*
X34977300D01*
X34822700Y21411000D02*
X34977300D01*
X34822700Y21436400D02*
X34977300D01*
X34822700Y21461800D02*
X34977300D01*
X34822700Y21487200D02*
X34977300D01*
X34822700Y21512600D02*
X34977300D01*
X34823400Y21360200D02*
Y21514800D01*
X34848800Y21360200D02*
Y21514800D01*
X34874200Y21360200D02*
Y21514800D01*
X34899600Y21360200D02*
Y21514800D01*
X34925000Y21360200D02*
Y21514800D01*
X34950400Y21360200D02*
Y21514800D01*
X34975800Y21360200D02*
Y21514800D01*
X34589800Y21239800D02*
Y21160200D01*
X34510200*
Y21239800*
X34589800*
X34510200Y21160200D02*
X34589800D01*
X34510200Y21185600D02*
X34589800D01*
X34510200Y21211000D02*
X34589800D01*
X34510200Y21236400D02*
X34589800D01*
X34518600Y21160200D02*
Y21239800D01*
X34544000Y21160200D02*
Y21239800D01*
X34569400Y21160200D02*
Y21239800D01*
X34589800Y21439800D02*
Y21360200D01*
X34510200*
Y21439800*
X34589800*
X34510200Y21360200D02*
X34589800D01*
X34510200Y21385600D02*
X34589800D01*
X34510200Y21411000D02*
X34589800D01*
X34510200Y21436400D02*
X34589800D01*
X34518600Y21360200D02*
Y21439800D01*
X34544000Y21360200D02*
Y21439800D01*
X34569400Y21360200D02*
Y21439800D01*
X34639800Y15910200D02*
X34560200D01*
Y15989800*
X34639800*
Y15910200*
X34560200D02*
X34639800D01*
X34560200Y15935600D02*
X34639800D01*
X34560200Y15961000D02*
X34639800D01*
X34560200Y15986400D02*
X34639800D01*
X34569400Y15910200D02*
Y15989800D01*
X34594800Y15910200D02*
Y15989800D01*
X34620200Y15910200D02*
Y15989800D01*
X34839800Y15910200D02*
X34760200D01*
Y15989800*
X34839800*
Y15910200*
X34760200D02*
X34839800D01*
X34760200Y15935600D02*
X34839800D01*
X34760200Y15961000D02*
X34839800D01*
X34760200Y15986400D02*
X34839800D01*
X34772600Y15910200D02*
Y15989800D01*
X34798000Y15910200D02*
Y15989800D01*
X34823400Y15910200D02*
Y15989800D01*
X34639800Y20360200D02*
X34560200D01*
Y20439800*
X34639800*
Y20360200*
X34560200D02*
X34639800D01*
X34560200Y20385600D02*
X34639800D01*
X34560200Y20411000D02*
X34639800D01*
X34560200Y20436400D02*
X34639800D01*
X34569400Y20360200D02*
Y20439800D01*
X34594800Y20360200D02*
Y20439800D01*
X34620200Y20360200D02*
Y20439800D01*
X34839800Y20360200D02*
X34760200D01*
Y20439800*
X34839800*
Y20360200*
X34760200D02*
X34839800D01*
X34760200Y20385600D02*
X34839800D01*
X34760200Y20411000D02*
X34839800D01*
X34760200Y20436400D02*
X34839800D01*
X34772600Y20360200D02*
Y20439800D01*
X34798000Y20360200D02*
Y20439800D01*
X34823400Y20360200D02*
Y20439800D01*
X36522700Y16647700D02*
Y16789800D01*
X36677300*
Y16647700*
X36522700*
X36677300*
X36522700Y16673100D02*
X36677300D01*
X36522700Y16698500D02*
X36677300D01*
X36522700Y16723900D02*
X36677300D01*
X36522700Y16749300D02*
X36677300D01*
X36522700Y16774700D02*
X36677300D01*
X36525200Y16647700D02*
Y16789800D01*
X36550600Y16647700D02*
Y16789800D01*
X36576000Y16647700D02*
Y16789800D01*
X36601400Y16647700D02*
Y16789800D01*
X36626800Y16647700D02*
Y16789800D01*
X36652200Y16647700D02*
Y16789800D01*
X36522700Y16910200D02*
Y17064800D01*
X36677300*
Y16910200*
X36522700*
X36677300*
X36522700Y16935600D02*
X36677300D01*
X36522700Y16961000D02*
X36677300D01*
X36522700Y16986400D02*
X36677300D01*
X36522700Y17011800D02*
X36677300D01*
X36522700Y17037200D02*
X36677300D01*
X36522700Y17062600D02*
X36677300D01*
X36525200Y16910200D02*
Y17064800D01*
X36550600Y16910200D02*
Y17064800D01*
X36576000Y16910200D02*
Y17064800D01*
X36601400Y16910200D02*
Y17064800D01*
X36626800Y16910200D02*
Y17064800D01*
X36652200Y16910200D02*
Y17064800D01*
X36522700Y21097700D02*
Y21239800D01*
X36677300*
Y21097700*
X36522700*
X36677300*
X36522700Y21123100D02*
X36677300D01*
X36522700Y21148500D02*
X36677300D01*
X36522700Y21173900D02*
X36677300D01*
X36522700Y21199300D02*
X36677300D01*
X36522700Y21224700D02*
X36677300D01*
X36525200Y21097700D02*
Y21239800D01*
X36550600Y21097700D02*
Y21239800D01*
X36576000Y21097700D02*
Y21239800D01*
X36601400Y21097700D02*
Y21239800D01*
X36626800Y21097700D02*
Y21239800D01*
X36652200Y21097700D02*
Y21239800D01*
X36522700Y21360200D02*
Y21514800D01*
X36677300*
Y21360200*
X36522700*
X36677300*
X36522700Y21385600D02*
X36677300D01*
X36522700Y21411000D02*
X36677300D01*
X36522700Y21436400D02*
X36677300D01*
X36522700Y21461800D02*
X36677300D01*
X36522700Y21487200D02*
X36677300D01*
X36522700Y21512600D02*
X36677300D01*
X36525200Y21360200D02*
Y21514800D01*
X36550600Y21360200D02*
Y21514800D01*
X36576000Y21360200D02*
Y21514800D01*
X36601400Y21360200D02*
Y21514800D01*
X36626800Y21360200D02*
Y21514800D01*
X36652200Y21360200D02*
Y21514800D01*
X36289800Y16789800D02*
Y16710200D01*
X36210200*
Y16789800*
X36289800*
X36210200Y16710200D02*
X36289800D01*
X36210200Y16735600D02*
X36289800D01*
X36210200Y16761000D02*
X36289800D01*
X36210200Y16786400D02*
X36289800D01*
X36220400Y16710200D02*
Y16789800D01*
X36245800Y16710200D02*
Y16789800D01*
X36271200Y16710200D02*
Y16789800D01*
X36289800Y16989800D02*
Y16910200D01*
X36210200*
Y16989800*
X36289800*
X36210200Y16910200D02*
X36289800D01*
X36210200Y16935600D02*
X36289800D01*
X36210200Y16961000D02*
X36289800D01*
X36210200Y16986400D02*
X36289800D01*
X36220400Y16910200D02*
Y16989800D01*
X36245800Y16910200D02*
Y16989800D01*
X36271200Y16910200D02*
Y16989800D01*
X26089800Y21239800D02*
Y21160200D01*
X26010200*
Y21239800*
X26089800*
X26010200Y21160200D02*
X26089800D01*
X26010200Y21185600D02*
X26089800D01*
X26010200Y21211000D02*
X26089800D01*
X26010200Y21236400D02*
X26089800D01*
X26035000Y21160200D02*
Y21239800D01*
X26060400Y21160200D02*
Y21239800D01*
X26085800Y21160200D02*
Y21239800D01*
X26089800Y21439800D02*
Y21360200D01*
X26010200*
Y21439800*
X26089800*
X26010200Y21360200D02*
X26089800D01*
X26010200Y21385600D02*
X26089800D01*
X26010200Y21411000D02*
X26089800D01*
X26010200Y21436400D02*
X26089800D01*
X26035000Y21360200D02*
Y21439800D01*
X26060400Y21360200D02*
Y21439800D01*
X26085800Y21360200D02*
Y21439800D01*
X36289800Y21239800D02*
Y21160200D01*
X36210200*
Y21239800*
X36289800*
X36210200Y21160200D02*
X36289800D01*
X36210200Y21185600D02*
X36289800D01*
X36210200Y21211000D02*
X36289800D01*
X36210200Y21236400D02*
X36289800D01*
X36220400Y21160200D02*
Y21239800D01*
X36245800Y21160200D02*
Y21239800D01*
X36271200Y21160200D02*
Y21239800D01*
X36289800Y21439800D02*
Y21360200D01*
X36210200*
Y21439800*
X36289800*
X36210200Y21360200D02*
X36289800D01*
X36210200Y21385600D02*
X36289800D01*
X36210200Y21411000D02*
X36289800D01*
X36210200Y21436400D02*
X36289800D01*
X36220400Y21360200D02*
Y21439800D01*
X36245800Y21360200D02*
Y21439800D01*
X36271200Y21360200D02*
Y21439800D01*
X36339800Y15910200D02*
X36260200D01*
Y15989800*
X36339800*
Y15910200*
X36260200D02*
X36339800D01*
X36260200Y15935600D02*
X36339800D01*
X36260200Y15961000D02*
X36339800D01*
X36260200Y15986400D02*
X36339800D01*
X36271200Y15910200D02*
Y15989800D01*
X36296600Y15910200D02*
Y15989800D01*
X36322000Y15910200D02*
Y15989800D01*
X36539800Y15910200D02*
X36460200D01*
Y15989800*
X36539800*
Y15910200*
X36460200D02*
X36539800D01*
X36460200Y15935600D02*
X36539800D01*
X36460200Y15961000D02*
X36539800D01*
X36460200Y15986400D02*
X36539800D01*
X36474400Y15910200D02*
Y15989800D01*
X36499800Y15910200D02*
Y15989800D01*
X36525200Y15910200D02*
Y15989800D01*
X36339800Y20360200D02*
X36260200D01*
Y20439800*
X36339800*
Y20360200*
X36260200D02*
X36339800D01*
X36260200Y20385600D02*
X36339800D01*
X36260200Y20411000D02*
X36339800D01*
X36260200Y20436400D02*
X36339800D01*
X36271200Y20360200D02*
Y20439800D01*
X36296600Y20360200D02*
Y20439800D01*
X36322000Y20360200D02*
Y20439800D01*
X36539800Y20360200D02*
X36460200D01*
Y20439800*
X36539800*
Y20360200*
X36460200D02*
X36539800D01*
X36460200Y20385600D02*
X36539800D01*
X36460200Y20411000D02*
X36539800D01*
X36460200Y20436400D02*
X36539800D01*
X36474400Y20360200D02*
Y20439800D01*
X36499800Y20360200D02*
Y20439800D01*
X36525200Y20360200D02*
Y20439800D01*
X38222700Y16647700D02*
Y16789800D01*
X38377300*
Y16647700*
X38222700*
X38377300*
X38222700Y16673100D02*
X38377300D01*
X38222700Y16698500D02*
X38377300D01*
X38222700Y16723900D02*
X38377300D01*
X38222700Y16749300D02*
X38377300D01*
X38222700Y16774700D02*
X38377300D01*
X38227000Y16647700D02*
Y16789800D01*
X38252400Y16647700D02*
Y16789800D01*
X38277800Y16647700D02*
Y16789800D01*
X38303200Y16647700D02*
Y16789800D01*
X38328600Y16647700D02*
Y16789800D01*
X38354000Y16647700D02*
Y16789800D01*
X38222700Y16910200D02*
Y17064800D01*
X38377300*
Y16910200*
X38222700*
X38377300*
X38222700Y16935600D02*
X38377300D01*
X38222700Y16961000D02*
X38377300D01*
X38222700Y16986400D02*
X38377300D01*
X38222700Y17011800D02*
X38377300D01*
X38222700Y17037200D02*
X38377300D01*
X38222700Y17062600D02*
X38377300D01*
X38227000Y16910200D02*
Y17064800D01*
X38252400Y16910200D02*
Y17064800D01*
X38277800Y16910200D02*
Y17064800D01*
X38303200Y16910200D02*
Y17064800D01*
X38328600Y16910200D02*
Y17064800D01*
X38354000Y16910200D02*
Y17064800D01*
X37989800Y16789800D02*
Y16710200D01*
X37910200*
Y16789800*
X37989800*
X37910200Y16710200D02*
X37989800D01*
X37910200Y16735600D02*
X37989800D01*
X37910200Y16761000D02*
X37989800D01*
X37910200Y16786400D02*
X37989800D01*
X37922200Y16710200D02*
Y16789800D01*
X37947600Y16710200D02*
Y16789800D01*
X37973000Y16710200D02*
Y16789800D01*
X37989800Y16989800D02*
Y16910200D01*
X37910200*
Y16989800*
X37989800*
X37910200Y16910200D02*
X37989800D01*
X37910200Y16935600D02*
X37989800D01*
X37910200Y16961000D02*
X37989800D01*
X37910200Y16986400D02*
X37989800D01*
X37922200Y16910200D02*
Y16989800D01*
X37947600Y16910200D02*
Y16989800D01*
X37973000Y16910200D02*
Y16989800D01*
X38222700Y21097700D02*
Y21239800D01*
X38377300*
Y21097700*
X38222700*
X38377300*
X38222700Y21123100D02*
X38377300D01*
X38222700Y21148500D02*
X38377300D01*
X38222700Y21173900D02*
X38377300D01*
X38222700Y21199300D02*
X38377300D01*
X38222700Y21224700D02*
X38377300D01*
X38227000Y21097700D02*
Y21239800D01*
X38252400Y21097700D02*
Y21239800D01*
X38277800Y21097700D02*
Y21239800D01*
X38303200Y21097700D02*
Y21239800D01*
X38328600Y21097700D02*
Y21239800D01*
X38354000Y21097700D02*
Y21239800D01*
X38222700Y21360200D02*
Y21514800D01*
X38377300*
Y21360200*
X38222700*
X38377300*
X38222700Y21385600D02*
X38377300D01*
X38222700Y21411000D02*
X38377300D01*
X38222700Y21436400D02*
X38377300D01*
X38222700Y21461800D02*
X38377300D01*
X38222700Y21487200D02*
X38377300D01*
X38222700Y21512600D02*
X38377300D01*
X38227000Y21360200D02*
Y21514800D01*
X38252400Y21360200D02*
Y21514800D01*
X38277800Y21360200D02*
Y21514800D01*
X38303200Y21360200D02*
Y21514800D01*
X38328600Y21360200D02*
Y21514800D01*
X38354000Y21360200D02*
Y21514800D01*
X37989800Y21239800D02*
Y21160200D01*
X37910200*
Y21239800*
X37989800*
X37910200Y21160200D02*
X37989800D01*
X37910200Y21185600D02*
X37989800D01*
X37910200Y21211000D02*
X37989800D01*
X37910200Y21236400D02*
X37989800D01*
X37922200Y21160200D02*
Y21239800D01*
X37947600Y21160200D02*
Y21239800D01*
X37973000Y21160200D02*
Y21239800D01*
X37989800Y21439800D02*
Y21360200D01*
X37910200*
Y21439800*
X37989800*
X37910200Y21360200D02*
X37989800D01*
X37910200Y21385600D02*
X37989800D01*
X37910200Y21411000D02*
X37989800D01*
X37910200Y21436400D02*
X37989800D01*
X37922200Y21360200D02*
Y21439800D01*
X37947600Y21360200D02*
Y21439800D01*
X37973000Y21360200D02*
Y21439800D01*
X38039800Y15910200D02*
X37960200D01*
Y15989800*
X38039800*
Y15910200*
X37960200D02*
X38039800D01*
X37960200Y15935600D02*
X38039800D01*
X37960200Y15961000D02*
X38039800D01*
X37960200Y15986400D02*
X38039800D01*
X37973000Y15910200D02*
Y15989800D01*
X37998400Y15910200D02*
Y15989800D01*
X38023800Y15910200D02*
Y15989800D01*
X38239800Y15910200D02*
X38160200D01*
Y15989800*
X38239800*
Y15910200*
X38160200D02*
X38239800D01*
X38160200Y15935600D02*
X38239800D01*
X38160200Y15961000D02*
X38239800D01*
X38160200Y15986400D02*
X38239800D01*
X38176200Y15910200D02*
Y15989800D01*
X38201600Y15910200D02*
Y15989800D01*
X38227000Y15910200D02*
Y15989800D01*
X38039800Y20360200D02*
X37960200D01*
Y20439800*
X38039800*
Y20360200*
X37960200D02*
X38039800D01*
X37960200Y20385600D02*
X38039800D01*
X37960200Y20411000D02*
X38039800D01*
X37960200Y20436400D02*
X38039800D01*
X37973000Y20360200D02*
Y20439800D01*
X37998400Y20360200D02*
Y20439800D01*
X38023800Y20360200D02*
Y20439800D01*
X38239800Y20360200D02*
X38160200D01*
Y20439800*
X38239800*
Y20360200*
X38160200D02*
X38239800D01*
X38160200Y20385600D02*
X38239800D01*
X38160200Y20411000D02*
X38239800D01*
X38160200Y20436400D02*
X38239800D01*
X38176200Y20360200D02*
Y20439800D01*
X38201600Y20360200D02*
Y20439800D01*
X38227000Y20360200D02*
Y20439800D01*
X26139800Y15910200D02*
X26060200D01*
Y15989800*
X26139800*
Y15910200*
X26060200D02*
X26139800D01*
X26060200Y15935600D02*
X26139800D01*
X26060200Y15961000D02*
X26139800D01*
X26060200Y15986400D02*
X26139800D01*
X26060400Y15910200D02*
Y15989800D01*
X26085800Y15910200D02*
Y15989800D01*
X26111200Y15910200D02*
Y15989800D01*
X26136600Y15910200D02*
Y15989800D01*
X26339800Y15910200D02*
X26260200D01*
Y15989800*
X26339800*
Y15910200*
X26260200D02*
X26339800D01*
X26260200Y15935600D02*
X26339800D01*
X26260200Y15961000D02*
X26339800D01*
X26260200Y15986400D02*
X26339800D01*
X26263600Y15910200D02*
Y15989800D01*
X26289000Y15910200D02*
Y15989800D01*
X26314400Y15910200D02*
Y15989800D01*
X26339800Y15910200D02*
Y15989800D01*
X26139800Y20360200D02*
X26060200D01*
Y20439800*
X26139800*
Y20360200*
X26060200D02*
X26139800D01*
X26060200Y20385600D02*
X26139800D01*
X26060200Y20411000D02*
X26139800D01*
X26060200Y20436400D02*
X26139800D01*
X26060400Y20360200D02*
Y20439800D01*
X26085800Y20360200D02*
Y20439800D01*
X26111200Y20360200D02*
Y20439800D01*
X26136600Y20360200D02*
Y20439800D01*
X26339800Y20360200D02*
X26260200D01*
Y20439800*
X26339800*
Y20360200*
X26260200D02*
X26339800D01*
X26260200Y20385600D02*
X26339800D01*
X26260200Y20411000D02*
X26339800D01*
X26260200Y20436400D02*
X26339800D01*
X26263600Y20360200D02*
Y20439800D01*
X26289000Y20360200D02*
Y20439800D01*
X26314400Y20360200D02*
Y20439800D01*
X26339800Y20360200D02*
Y20439800D01*
X28022700Y16647700D02*
Y16789800D01*
X28177300*
Y16647700*
X28022700*
X28177300*
X28022700Y16673100D02*
X28177300D01*
X28022700Y16698500D02*
X28177300D01*
X28022700Y16723900D02*
X28177300D01*
X28022700Y16749300D02*
X28177300D01*
X28022700Y16774700D02*
X28177300D01*
X28041600Y16647700D02*
Y16789800D01*
X28067000Y16647700D02*
Y16789800D01*
X28092400Y16647700D02*
Y16789800D01*
X28117800Y16647700D02*
Y16789800D01*
X28143200Y16647700D02*
Y16789800D01*
X28168600Y16647700D02*
Y16789800D01*
X28022700Y16910200D02*
Y17064800D01*
X28177300*
Y16910200*
X28022700*
X28177300*
X28022700Y16935600D02*
X28177300D01*
X28022700Y16961000D02*
X28177300D01*
X28022700Y16986400D02*
X28177300D01*
X28022700Y17011800D02*
X28177300D01*
X28022700Y17037200D02*
X28177300D01*
X28022700Y17062600D02*
X28177300D01*
X28041600Y16910200D02*
Y17064800D01*
X28067000Y16910200D02*
Y17064800D01*
X28092400Y16910200D02*
Y17064800D01*
X28117800Y16910200D02*
Y17064800D01*
X28143200Y16910200D02*
Y17064800D01*
X28168600Y16910200D02*
Y17064800D01*
X27789800Y16789800D02*
Y16710200D01*
X27710200*
Y16789800*
X27789800*
X27710200Y16710200D02*
X27789800D01*
X27710200Y16735600D02*
X27789800D01*
X27710200Y16761000D02*
X27789800D01*
X27710200Y16786400D02*
X27789800D01*
X27711400Y16710200D02*
Y16789800D01*
X27736800Y16710200D02*
Y16789800D01*
X27762200Y16710200D02*
Y16789800D01*
X27787600Y16710200D02*
Y16789800D01*
X27789800Y16989800D02*
Y16910200D01*
X27710200*
Y16989800*
X27789800*
X27710200Y16910200D02*
X27789800D01*
X27710200Y16935600D02*
X27789800D01*
X27710200Y16961000D02*
X27789800D01*
X27710200Y16986400D02*
X27789800D01*
X27711400Y16910200D02*
Y16989800D01*
X27736800Y16910200D02*
Y16989800D01*
X27762200Y16910200D02*
Y16989800D01*
X27787600Y16910200D02*
Y16989800D01*
X28022700Y21097700D02*
Y21239800D01*
X28177300*
Y21097700*
X28022700*
X28177300*
X28022700Y21123100D02*
X28177300D01*
X28022700Y21148500D02*
X28177300D01*
X28022700Y21173900D02*
X28177300D01*
X28022700Y21199300D02*
X28177300D01*
X28022700Y21224700D02*
X28177300D01*
X28041600Y21097700D02*
Y21239800D01*
X28067000Y21097700D02*
Y21239800D01*
X28092400Y21097700D02*
Y21239800D01*
X28117800Y21097700D02*
Y21239800D01*
X28143200Y21097700D02*
Y21239800D01*
X28168600Y21097700D02*
Y21239800D01*
X28022700Y21360200D02*
Y21514800D01*
X28177300*
Y21360200*
X28022700*
X28177300*
X28022700Y21385600D02*
X28177300D01*
X28022700Y21411000D02*
X28177300D01*
X28022700Y21436400D02*
X28177300D01*
X28022700Y21461800D02*
X28177300D01*
X28022700Y21487200D02*
X28177300D01*
X28022700Y21512600D02*
X28177300D01*
X28041600Y21360200D02*
Y21514800D01*
X28067000Y21360200D02*
Y21514800D01*
X28092400Y21360200D02*
Y21514800D01*
X28117800Y21360200D02*
Y21514800D01*
X28143200Y21360200D02*
Y21514800D01*
X28168600Y21360200D02*
Y21514800D01*
X25400000Y12700000D02*
Y25400000D01*
X39660000*
Y12700000*
X25400000*
G54D79*
X31450000Y20050000D03*
X33150000Y15600000D03*
Y20050000D03*
X34850000Y15600000D03*
Y20050000D03*
X36550000Y15600000D03*
Y20050000D03*
X38250000Y15600000D03*
Y20050000D03*
X26350000Y15600000D03*
Y20050000D03*
X28050000Y15600000D03*
Y20050000D03*
X29750000Y15600000D03*
Y20050000D03*
X31450000Y15600000D03*
G54D83*
X26300000Y17450000D03*
X26100000D03*
X33100000Y21900000D03*
X32900000D03*
X34800000Y17450000D03*
X34600000D03*
X34800000Y21900000D03*
X34600000D03*
X36500000Y17450000D03*
X36300000D03*
X36500000Y21900000D03*
X36300000D03*
X38200000Y17450000D03*
X38000000D03*
X38200000Y21900000D03*
X38000000D03*
X26300000D03*
X26100000D03*
X28000000Y17450000D03*
X27800000D03*
X28000000Y21900000D03*
X27800000D03*
X29700000Y17450000D03*
X29500000D03*
X29700000Y21900000D03*
X29500000D03*
X31400000Y17450000D03*
X31200000D03*
X31400000Y21900000D03*
X31200000D03*
X33100000Y17450000D03*
X32900000D03*
G54D84*
X29482000Y13127000D03*
Y25227000D03*
G54D85*
Y12873000D03*
X29736000Y13127000D03*
Y12873000D03*
X29990000Y13127000D03*
Y12873000D03*
X30244000Y13127000D03*
Y12873000D03*
X30498000Y13127000D03*
Y12873000D03*
X30752000Y13127000D03*
Y12873000D03*
X31006000Y13127000D03*
Y12873000D03*
X31260000Y13127000D03*
Y12873000D03*
X31514000Y13127000D03*
Y12873000D03*
X31768000Y13127000D03*
Y12873000D03*
X32022000Y13127000D03*
Y12873000D03*
X32276000Y13127000D03*
Y12873000D03*
X32530000Y13127000D03*
Y12873000D03*
X32784000Y13127000D03*
Y12873000D03*
X33038000Y13127000D03*
Y12873000D03*
X33292000Y13127000D03*
Y12873000D03*
X33546000Y13127000D03*
Y12873000D03*
X33800000Y13127000D03*
Y12873000D03*
X34054000Y13127000D03*
Y12873000D03*
X34308000Y13127000D03*
Y12873000D03*
X34562000Y13127000D03*
Y12873000D03*
X34816000Y13127000D03*
Y12873000D03*
X35070000Y13127000D03*
Y12873000D03*
X35324000Y13127000D03*
Y12873000D03*
X35578000Y13127000D03*
Y12873000D03*
X29482000Y24973000D03*
X29736000Y25227000D03*
Y24973000D03*
X29990000Y25227000D03*
Y24973000D03*
X30244000Y25227000D03*
Y24973000D03*
X30498000Y25227000D03*
Y24973000D03*
X30752000Y25227000D03*
Y24973000D03*
X31006000Y25227000D03*
Y24973000D03*
X31260000Y25227000D03*
Y24973000D03*
X31514000Y25227000D03*
Y24973000D03*
X31768000Y25227000D03*
Y24973000D03*
X32022000Y25227000D03*
Y24973000D03*
X32276000Y25227000D03*
Y24973000D03*
X32530000Y25227000D03*
Y24973000D03*
X32784000Y25227000D03*
Y24973000D03*
X33038000Y25227000D03*
Y24973000D03*
X33292000Y25227000D03*
Y24973000D03*
X33546000Y25227000D03*
Y24973000D03*
X33800000Y25227000D03*
Y24973000D03*
X34054000Y25227000D03*
Y24973000D03*
X34308000Y25227000D03*
Y24973000D03*
X34562000Y25227000D03*
Y24973000D03*
X34816000Y25227000D03*
Y24973000D03*
X35070000Y25227000D03*
Y24973000D03*
X35324000Y25227000D03*
Y24973000D03*
X35578000Y25227000D03*
Y24973000D03*
G54D86*
X27100000Y14950000D03*
X26500000D03*
X33900000Y19400000D03*
X33300000D03*
X35600000Y14950000D03*
X35000000D03*
X35600000Y19400000D03*
X35000000D03*
X37300000Y14950000D03*
X36700000D03*
X37300000Y19400000D03*
X36700000D03*
X39000000Y14950000D03*
X38400000D03*
X39000000Y19400000D03*
X38400000D03*
X27100000D03*
X26500000D03*
X28800000Y14950000D03*
X28200000D03*
X28800000Y19400000D03*
X28200000D03*
X30500000Y14950000D03*
X29900000D03*
X30500000Y19400000D03*
X29900000D03*
X32200000Y14950000D03*
X31600000D03*
X32200000Y19400000D03*
X31600000D03*
X33900000Y14950000D03*
X33300000D03*
G54D89*
X31196000Y20050000D03*
X32896000Y15600000D03*
Y20050000D03*
X34596000Y15600000D03*
Y20050000D03*
X36296000Y15600000D03*
Y20050000D03*
X37996000Y15600000D03*
Y20050000D03*
X26096000Y15600000D03*
Y20050000D03*
X27796000Y15600000D03*
Y20050000D03*
X29496000Y15600000D03*
Y20050000D03*
X31196000Y15600000D03*
G54D111*
X35475000Y24100000D03*
Y23800000D03*
X35675000Y24100000D03*
Y23800000D03*
X36475000Y24100000D03*
Y23800000D03*
X36675000Y24100000D03*
Y23800000D03*
X36875000Y24100000D03*
Y23800000D03*
X26339700Y16211100D03*
Y16388900D03*
X26050000Y16300000D03*
X33139700Y20661100D03*
Y20838900D03*
X32850000Y20750000D03*
X34839700Y16211100D03*
Y16388900D03*
X34550000Y16300000D03*
X34839700Y20661100D03*
Y20838900D03*
X34550000Y20750000D03*
X36539700Y16211100D03*
Y16388900D03*
X36250000Y16300000D03*
X36539700Y20661100D03*
Y20838900D03*
X36250000Y20750000D03*
X38239700Y16211100D03*
Y16388900D03*
X37950000Y16300000D03*
X38239700Y20661100D03*
Y20838900D03*
X37950000Y20750000D03*
X26339700Y20661100D03*
Y20838900D03*
X26050000Y20750000D03*
X28039700Y16211100D03*
Y16388900D03*
X27750000Y16300000D03*
X28039700Y20661100D03*
Y20838900D03*
X27750000Y20750000D03*
X29739700Y16211100D03*
Y16388900D03*
X29450000Y16300000D03*
X29739700Y20661100D03*
Y20838900D03*
X29450000Y20750000D03*
X31439700Y16211100D03*
Y16388900D03*
X31150000Y16300000D03*
X31439700Y20661100D03*
Y20838900D03*
X31150000Y20750000D03*
X33139700Y16211100D03*
Y16388900D03*
X32850000Y16300000D03*
X26400000Y17050000D03*
Y16662500D03*
X27750000Y21450000D03*
Y21150000D03*
X28050000Y15950000D03*
X27750000D03*
X28050000Y20400000D03*
X27750000D03*
X29800000Y17050000D03*
Y16662500D03*
Y21500000D03*
Y21112500D03*
X29450000Y17000000D03*
Y16700000D03*
Y21450000D03*
Y21150000D03*
X29750000Y15950000D03*
X29450000D03*
X29750000Y20400000D03*
X29450000D03*
X31500000Y17050000D03*
Y16662500D03*
X26400000Y21500000D03*
Y21112500D03*
X31500000Y21500000D03*
Y21112500D03*
X31150000Y17000000D03*
Y16700000D03*
Y21450000D03*
Y21150000D03*
X31450000Y15950000D03*
X31150000D03*
X31450000Y20400000D03*
X31150000D03*
X33200000Y17050000D03*
Y16662500D03*
Y21500000D03*
Y21112500D03*
X32850000Y17000000D03*
Y16700000D03*
Y21450000D03*
Y21150000D03*
X33150000Y15950000D03*
X32850000D03*
X26050000Y17000000D03*
Y16700000D03*
X33150000Y20400000D03*
X32850000D03*
X34900000Y17050000D03*
Y16662500D03*
X34550000Y17000000D03*
Y16700000D03*
X34900000Y21500000D03*
Y21112500D03*
X34550000Y21450000D03*
Y21150000D03*
X34850000Y15950000D03*
X34550000D03*
X34850000Y20400000D03*
X34550000D03*
X36600000Y17050000D03*
Y16662500D03*
Y21500000D03*
Y21112500D03*
X36250000Y17000000D03*
Y16700000D03*
X26050000Y21450000D03*
Y21150000D03*
X36250000Y21450000D03*
Y21150000D03*
X36550000Y15950000D03*
X36250000D03*
X36550000Y20400000D03*
X36250000D03*
X38300000Y17050000D03*
Y16662500D03*
X37950000Y17000000D03*
Y16700000D03*
X38300000Y21500000D03*
Y21112500D03*
X37950000Y21450000D03*
Y21150000D03*
X38250000Y15950000D03*
X37950000D03*
X38250000Y20400000D03*
X37950000D03*
X26350000Y15950000D03*
X26050000D03*
X26350000Y20400000D03*
X26050000D03*
X28100000Y17050000D03*
Y16662500D03*
X27750000Y17000000D03*
Y16700000D03*
X28100000Y21500000D03*
Y21112500D03*
X35475000Y24100000D03*
Y23800000D03*
X35675000Y24100000D03*
Y23800000D03*
X36475000Y24100000D03*
Y23800000D03*
X36675000Y24100000D03*
Y23800000D03*
X36875000Y24100000D03*
Y23800000D03*
X26339700Y16211100D03*
Y16388900D03*
X26050000Y16300000D03*
X33139700Y20661100D03*
Y20838900D03*
X32850000Y20750000D03*
X34839700Y16211100D03*
Y16388900D03*
X34550000Y16300000D03*
X34839700Y20661100D03*
Y20838900D03*
X34550000Y20750000D03*
X36539700Y16211100D03*
Y16388900D03*
X36250000Y16300000D03*
X36539700Y20661100D03*
Y20838900D03*
X36250000Y20750000D03*
X38239700Y16211100D03*
Y16388900D03*
X37950000Y16300000D03*
X38239700Y20661100D03*
Y20838900D03*
X37950000Y20750000D03*
X26339700Y20661100D03*
Y20838900D03*
X26050000Y20750000D03*
X28039700Y16211100D03*
Y16388900D03*
X27750000Y16300000D03*
X28039700Y20661100D03*
Y20838900D03*
X27750000Y20750000D03*
X29739700Y16211100D03*
Y16388900D03*
X29450000Y16300000D03*
X29739700Y20661100D03*
Y20838900D03*
X29450000Y20750000D03*
X31439700Y16211100D03*
Y16388900D03*
X31150000Y16300000D03*
X31439700Y20661100D03*
Y20838900D03*
X31150000Y20750000D03*
X33139700Y16211100D03*
Y16388900D03*
X32850000Y16300000D03*
X26400000Y17050000D03*
Y16662500D03*
X27750000Y21450000D03*
Y21150000D03*
X28050000Y15950000D03*
X27750000D03*
X28050000Y20400000D03*
X27750000D03*
X29800000Y17050000D03*
Y16662500D03*
Y21500000D03*
Y21112500D03*
X29450000Y17000000D03*
Y16700000D03*
Y21450000D03*
Y21150000D03*
X29750000Y15950000D03*
X29450000D03*
X29750000Y20400000D03*
X29450000D03*
X31500000Y17050000D03*
Y16662500D03*
X26400000Y21500000D03*
Y21112500D03*
X31500000Y21500000D03*
Y21112500D03*
X31150000Y17000000D03*
Y16700000D03*
Y21450000D03*
Y21150000D03*
X31450000Y15950000D03*
X31150000D03*
X31450000Y20400000D03*
X31150000D03*
X33200000Y17050000D03*
Y16662500D03*
Y21500000D03*
Y21112500D03*
X32850000Y17000000D03*
Y16700000D03*
Y21450000D03*
Y21150000D03*
X33150000Y15950000D03*
X32850000D03*
X26050000Y17000000D03*
Y16700000D03*
X33150000Y20400000D03*
X32850000D03*
X34900000Y17050000D03*
Y16662500D03*
X34550000Y17000000D03*
Y16700000D03*
X34900000Y21500000D03*
Y21112500D03*
X34550000Y21450000D03*
Y21150000D03*
X34850000Y15950000D03*
X34550000D03*
X34850000Y20400000D03*
X34550000D03*
X36600000Y17050000D03*
Y16662500D03*
Y21500000D03*
Y21112500D03*
X36250000Y17000000D03*
Y16700000D03*
X26050000Y21450000D03*
Y21150000D03*
X36250000Y21450000D03*
Y21150000D03*
X36550000Y15950000D03*
X36250000D03*
X36550000Y20400000D03*
X36250000D03*
X38300000Y17050000D03*
Y16662500D03*
X37950000Y17000000D03*
Y16700000D03*
X38300000Y21500000D03*
Y21112500D03*
X37950000Y21450000D03*
Y21150000D03*
X38250000Y15950000D03*
X37950000D03*
X38250000Y20400000D03*
X37950000D03*
X26350000Y15950000D03*
X26050000D03*
X26350000Y20400000D03*
X26050000D03*
X28100000Y17050000D03*
Y16662500D03*
X27750000Y17000000D03*
Y16700000D03*
X28100000Y21500000D03*
Y21112500D03*
G54D112*
X36075000Y24200000D03*
Y23700000D03*
X35075000Y24200000D03*
Y23700000D03*
X36075000Y24200000D03*
Y23700000D03*
X35075000Y24200000D03*
Y23700000D03*
G54D113*
X27100000Y17400000D03*
X33900000Y21850000D03*
X35600000Y17400000D03*
Y21850000D03*
X37300000Y17400000D03*
Y21850000D03*
X39000000Y17400000D03*
Y21850000D03*
X27100000D03*
X28800000Y17400000D03*
Y21850000D03*
X30500000Y17400000D03*
Y21850000D03*
X32200000Y17400000D03*
Y21850000D03*
X33900000Y17400000D03*
G54D114*
X27100000Y17146000D03*
Y15622000D03*
Y16130000D03*
X33900000Y21596000D03*
Y20072000D03*
Y20580000D03*
X35600000Y17146000D03*
Y15622000D03*
Y16130000D03*
Y21596000D03*
Y20072000D03*
Y20580000D03*
X37300000Y17146000D03*
Y15622000D03*
Y16130000D03*
Y21596000D03*
Y20072000D03*
Y20580000D03*
X39000000Y17146000D03*
Y15622000D03*
Y16130000D03*
Y21596000D03*
Y20072000D03*
Y20580000D03*
X27100000Y21596000D03*
Y20072000D03*
Y20580000D03*
X28800000Y17146000D03*
Y15622000D03*
Y16130000D03*
Y21596000D03*
Y20072000D03*
Y20580000D03*
X30500000Y17146000D03*
Y15622000D03*
Y16130000D03*
Y21596000D03*
Y20072000D03*
Y20580000D03*
X32200000Y17146000D03*
Y15622000D03*
Y16130000D03*
Y21596000D03*
Y20072000D03*
Y20580000D03*
X33900000Y17146000D03*
Y15622000D03*
Y16130000D03*
G54D115*
X25800000Y25000000D03*
X39260000D03*
Y13100000D03*
X25800000D03*
X0Y0D02*
M02*
