*
*
G04 PADS Layout (Build Number 2005.266.2) generated Gerber (RS-274-X) file*
G04 PC Version=2.1*
*
%IN "cecs_module_relay_1031."*%
*
%MOMM*%
*
%FSLAX35Y35*%
*
*
*
*
G04 PC Standard Apertures*
*
*
G04 Thermal Relief Aperture macro.*
%AMTER*
1,1,$1,0,0*
1,0,$1-$2,0,0*
21,0,$3,$4,0,0,45*
21,0,$3,$4,0,0,135*
%
*
*
G04 Annular Aperture macro.*
%AMANN*
1,1,$1,0,0*
1,0,$2,0,0*
%
*
*
G04 Odd Aperture macro.*
%AMODD*
1,1,$1,0,0*
1,0,$1-0.005,0,0*
%
*
*
G04 PC Custom Aperture Macros*
*
*
*
*
*
*
G04 PC Aperture Table*
*
%ADD058C,0.254*%
*
*
*
*
G04 PC Custom Flashes*
G04 Layer Name cecs_module_relay_1031. - flashes*
%LPD*%
*
*
G04 PC Circuitry*
G04 Layer Name cecs_module_relay_1031. - circuitry*
%LPD*%
*
G54D58*
G01X35512300Y24087300D02*
Y24012700D01*
X35437700*
Y24087300*
X35512300*
X35437700Y24012700D02*
X35512300D01*
X35437700Y24038100D02*
X35512300D01*
X35437700Y24063500D02*
X35512300D01*
X35458400Y24012700D02*
Y24087300D01*
X35483800Y24012700D02*
Y24087300D01*
X35509200Y24012700D02*
Y24087300D01*
X35512300Y23812700D02*
Y23887300D01*
X35437700*
Y23812700*
X35512300*
X35437700D02*
X35512300D01*
X35437700Y23838100D02*
X35512300D01*
X35437700Y23863500D02*
X35512300D01*
X35458400Y23812700D02*
Y23887300D01*
X35483800Y23812700D02*
Y23887300D01*
X35509200Y23812700D02*
Y23887300D01*
X35712300Y24087300D02*
Y24012700D01*
X35637700*
Y24087300*
X35712300*
X35637700Y24012700D02*
X35712300D01*
X35637700Y24038100D02*
X35712300D01*
X35637700Y24063500D02*
X35712300D01*
X35661600Y24012700D02*
Y24087300D01*
X35687000Y24012700D02*
Y24087300D01*
X35712300Y23812700D02*
Y23887300D01*
X35637700*
Y23812700*
X35712300*
X35637700D02*
X35712300D01*
X35637700Y23838100D02*
X35712300D01*
X35637700Y23863500D02*
X35712300D01*
X35661600Y23812700D02*
Y23887300D01*
X35687000Y23812700D02*
Y23887300D01*
X36512300Y24087300D02*
Y24012700D01*
X36437700*
Y24087300*
X36512300*
X36437700Y24012700D02*
X36512300D01*
X36437700Y24038100D02*
X36512300D01*
X36437700Y24063500D02*
X36512300D01*
X36449000Y24012700D02*
Y24087300D01*
X36474400Y24012700D02*
Y24087300D01*
X36499800Y24012700D02*
Y24087300D01*
X36512300Y23812700D02*
Y23887300D01*
X36437700*
Y23812700*
X36512300*
X36437700D02*
X36512300D01*
X36437700Y23838100D02*
X36512300D01*
X36437700Y23863500D02*
X36512300D01*
X36449000Y23812700D02*
Y23887300D01*
X36474400Y23812700D02*
Y23887300D01*
X36499800Y23812700D02*
Y23887300D01*
X36712300Y24087300D02*
Y24012700D01*
X36637700*
Y24087300*
X36712300*
X36637700Y24012700D02*
X36712300D01*
X36637700Y24038100D02*
X36712300D01*
X36637700Y24063500D02*
X36712300D01*
X36652200Y24012700D02*
Y24087300D01*
X36677600Y24012700D02*
Y24087300D01*
X36703000Y24012700D02*
Y24087300D01*
X36712300Y23812700D02*
Y23887300D01*
X36637700*
Y23812700*
X36712300*
X36637700D02*
X36712300D01*
X36637700Y23838100D02*
X36712300D01*
X36637700Y23863500D02*
X36712300D01*
X36652200Y23812700D02*
Y23887300D01*
X36677600Y23812700D02*
Y23887300D01*
X36703000Y23812700D02*
Y23887300D01*
X36912300Y24087300D02*
Y24012700D01*
X36837700*
Y24087300*
X36912300*
X36837700Y24012700D02*
X36912300D01*
X36837700Y24038100D02*
X36912300D01*
X36837700Y24063500D02*
X36912300D01*
X36855400Y24012700D02*
Y24087300D01*
X36880800Y24012700D02*
Y24087300D01*
X36906200Y24012700D02*
Y24087300D01*
X36912300Y23812700D02*
Y23887300D01*
X36837700*
Y23812700*
X36912300*
X36837700D02*
X36912300D01*
X36837700Y23838100D02*
X36912300D01*
X36837700Y23863500D02*
X36912300D01*
X36855400Y23812700D02*
Y23887300D01*
X36880800Y23812700D02*
Y23887300D01*
X36906200Y23812700D02*
Y23887300D01*
X36037700Y23712700D02*
Y23837300D01*
X36112300*
Y23712700*
X36037700*
X36112300*
X36037700Y23738100D02*
X36112300D01*
X36037700Y23763500D02*
X36112300D01*
X36037700Y23788900D02*
X36112300D01*
X36037700Y23814300D02*
X36112300D01*
X36042600Y23712700D02*
Y23837300D01*
X36068000Y23712700D02*
Y23837300D01*
X36093400Y23712700D02*
Y23837300D01*
X36037700Y24187300D02*
Y24062700D01*
X36112300*
Y24187300*
X36037700*
Y24062700D02*
X36112300D01*
X36037700Y24088100D02*
X36112300D01*
X36037700Y24113500D02*
X36112300D01*
X36037700Y24138900D02*
X36112300D01*
X36037700Y24164300D02*
X36112300D01*
X36042600Y24062700D02*
Y24187300D01*
X36068000Y24062700D02*
Y24187300D01*
X36093400Y24062700D02*
Y24187300D01*
X35037700Y23712700D02*
Y23837300D01*
X35112300*
Y23712700*
X35037700*
X35112300*
X35037700Y23738100D02*
X35112300D01*
X35037700Y23763500D02*
X35112300D01*
X35037700Y23788900D02*
X35112300D01*
X35037700Y23814300D02*
X35112300D01*
X35052000Y23712700D02*
Y23837300D01*
X35077400Y23712700D02*
Y23837300D01*
X35102800Y23712700D02*
Y23837300D01*
X35037700Y24187300D02*
Y24062700D01*
X35112300*
Y24187300*
X35037700*
Y24062700D02*
X35112300D01*
X35037700Y24088100D02*
X35112300D01*
X35037700Y24113500D02*
X35112300D01*
X35037700Y24138900D02*
X35112300D01*
X35037700Y24164300D02*
X35112300D01*
X35052000Y24062700D02*
Y24187300D01*
X35077400Y24062700D02*
Y24187300D01*
X35102800Y24062700D02*
Y24187300D01*
X26037700Y16262700D02*
Y16337300D01*
X26124800*
Y16262700*
X26037700*
X26124800*
X26037700Y16288100D02*
X26124800D01*
X26037700Y16313500D02*
X26124800D01*
X26060400Y16262700D02*
Y16337300D01*
X26085800Y16262700D02*
Y16337300D01*
X26111200Y16262700D02*
Y16337300D01*
X26263500Y16173000D02*
Y16249200D01*
X26327000*
Y16173000*
X26263500*
X26327000*
X26263500Y16198400D02*
X26327000D01*
X26263500Y16223800D02*
X26327000D01*
X26263500Y16249200D02*
X26327000D01*
X26263600Y16173000D02*
Y16249200D01*
X26289000Y16173000D02*
Y16249200D01*
X26314400Y16173000D02*
Y16249200D01*
X26263500Y16350800D02*
Y16427000D01*
X26327000*
Y16350800*
X26263500*
X26327000*
X26263500Y16376200D02*
X26327000D01*
X26263500Y16401600D02*
X26327000D01*
X26263500Y16427000D02*
X26327000D01*
X26263600Y16350800D02*
Y16427000D01*
X26289000Y16350800D02*
Y16427000D01*
X26314400Y16350800D02*
Y16427000D01*
X32837700Y20712700D02*
Y20787300D01*
X32924800*
Y20712700*
X32837700*
X32924800*
X32837700Y20738100D02*
X32924800D01*
X32837700Y20763500D02*
X32924800D01*
X32842200Y20712700D02*
Y20787300D01*
X32867600Y20712700D02*
Y20787300D01*
X32893000Y20712700D02*
Y20787300D01*
X32918400Y20712700D02*
Y20787300D01*
X33063500Y20623000D02*
Y20699200D01*
X33127000*
Y20623000*
X33063500*
X33127000*
X33063500Y20648400D02*
X33127000D01*
X33063500Y20673800D02*
X33127000D01*
X33063500Y20699200D02*
X33127000D01*
X33070800Y20623000D02*
Y20699200D01*
X33096200Y20623000D02*
Y20699200D01*
X33121600Y20623000D02*
Y20699200D01*
X33063500Y20800800D02*
Y20877000D01*
X33127000*
Y20800800*
X33063500*
X33127000*
X33063500Y20826200D02*
X33127000D01*
X33063500Y20851600D02*
X33127000D01*
X33063500Y20877000D02*
X33127000D01*
X33070800Y20800800D02*
Y20877000D01*
X33096200Y20800800D02*
Y20877000D01*
X33121600Y20800800D02*
Y20877000D01*
X34537700Y16262700D02*
Y16337300D01*
X34624800*
Y16262700*
X34537700*
X34624800*
X34537700Y16288100D02*
X34624800D01*
X34537700Y16313500D02*
X34624800D01*
X34544000Y16262700D02*
Y16337300D01*
X34569400Y16262700D02*
Y16337300D01*
X34594800Y16262700D02*
Y16337300D01*
X34620200Y16262700D02*
Y16337300D01*
X34763500Y16173000D02*
Y16249200D01*
X34827000*
Y16173000*
X34763500*
X34827000*
X34763500Y16198400D02*
X34827000D01*
X34763500Y16223800D02*
X34827000D01*
X34763500Y16249200D02*
X34827000D01*
X34772600Y16173000D02*
Y16249200D01*
X34798000Y16173000D02*
Y16249200D01*
X34823400Y16173000D02*
Y16249200D01*
X34763500Y16350800D02*
Y16427000D01*
X34827000*
Y16350800*
X34763500*
X34827000*
X34763500Y16376200D02*
X34827000D01*
X34763500Y16401600D02*
X34827000D01*
X34763500Y16427000D02*
X34827000D01*
X34772600Y16350800D02*
Y16427000D01*
X34798000Y16350800D02*
Y16427000D01*
X34823400Y16350800D02*
Y16427000D01*
X34537700Y20712700D02*
Y20787300D01*
X34624800*
Y20712700*
X34537700*
X34624800*
X34537700Y20738100D02*
X34624800D01*
X34537700Y20763500D02*
X34624800D01*
X34544000Y20712700D02*
Y20787300D01*
X34569400Y20712700D02*
Y20787300D01*
X34594800Y20712700D02*
Y20787300D01*
X34620200Y20712700D02*
Y20787300D01*
X34763500Y20623000D02*
Y20699200D01*
X34827000*
Y20623000*
X34763500*
X34827000*
X34763500Y20648400D02*
X34827000D01*
X34763500Y20673800D02*
X34827000D01*
X34763500Y20699200D02*
X34827000D01*
X34772600Y20623000D02*
Y20699200D01*
X34798000Y20623000D02*
Y20699200D01*
X34823400Y20623000D02*
Y20699200D01*
X34763500Y20800800D02*
Y20877000D01*
X34827000*
Y20800800*
X34763500*
X34827000*
X34763500Y20826200D02*
X34827000D01*
X34763500Y20851600D02*
X34827000D01*
X34763500Y20877000D02*
X34827000D01*
X34772600Y20800800D02*
Y20877000D01*
X34798000Y20800800D02*
Y20877000D01*
X34823400Y20800800D02*
Y20877000D01*
X36237700Y16262700D02*
Y16337300D01*
X36324800*
Y16262700*
X36237700*
X36324800*
X36237700Y16288100D02*
X36324800D01*
X36237700Y16313500D02*
X36324800D01*
X36245800Y16262700D02*
Y16337300D01*
X36271200Y16262700D02*
Y16337300D01*
X36296600Y16262700D02*
Y16337300D01*
X36322000Y16262700D02*
Y16337300D01*
X36463500Y16173000D02*
Y16249200D01*
X36527000*
Y16173000*
X36463500*
X36527000*
X36463500Y16198400D02*
X36527000D01*
X36463500Y16223800D02*
X36527000D01*
X36463500Y16249200D02*
X36527000D01*
X36474400Y16173000D02*
Y16249200D01*
X36499800Y16173000D02*
Y16249200D01*
X36525200Y16173000D02*
Y16249200D01*
X36463500Y16350800D02*
Y16427000D01*
X36527000*
Y16350800*
X36463500*
X36527000*
X36463500Y16376200D02*
X36527000D01*
X36463500Y16401600D02*
X36527000D01*
X36463500Y16427000D02*
X36527000D01*
X36474400Y16350800D02*
Y16427000D01*
X36499800Y16350800D02*
Y16427000D01*
X36525200Y16350800D02*
Y16427000D01*
X36237700Y20712700D02*
Y20787300D01*
X36324800*
Y20712700*
X36237700*
X36324800*
X36237700Y20738100D02*
X36324800D01*
X36237700Y20763500D02*
X36324800D01*
X36245800Y20712700D02*
Y20787300D01*
X36271200Y20712700D02*
Y20787300D01*
X36296600Y20712700D02*
Y20787300D01*
X36322000Y20712700D02*
Y20787300D01*
X36463500Y20623000D02*
Y20699200D01*
X36527000*
Y20623000*
X36463500*
X36527000*
X36463500Y20648400D02*
X36527000D01*
X36463500Y20673800D02*
X36527000D01*
X36463500Y20699200D02*
X36527000D01*
X36474400Y20623000D02*
Y20699200D01*
X36499800Y20623000D02*
Y20699200D01*
X36525200Y20623000D02*
Y20699200D01*
X36463500Y20800800D02*
Y20877000D01*
X36527000*
Y20800800*
X36463500*
X36527000*
X36463500Y20826200D02*
X36527000D01*
X36463500Y20851600D02*
X36527000D01*
X36463500Y20877000D02*
X36527000D01*
X36474400Y20800800D02*
Y20877000D01*
X36499800Y20800800D02*
Y20877000D01*
X36525200Y20800800D02*
Y20877000D01*
X37937700Y16262700D02*
Y16337300D01*
X38024800*
Y16262700*
X37937700*
X38024800*
X37937700Y16288100D02*
X38024800D01*
X37937700Y16313500D02*
X38024800D01*
X37947600Y16262700D02*
Y16337300D01*
X37973000Y16262700D02*
Y16337300D01*
X37998400Y16262700D02*
Y16337300D01*
X38023800Y16262700D02*
Y16337300D01*
X38163500Y16173000D02*
Y16249200D01*
X38227000*
Y16173000*
X38163500*
X38227000*
X38163500Y16198400D02*
X38227000D01*
X38163500Y16223800D02*
X38227000D01*
X38163500Y16249200D02*
X38227000D01*
X38176200Y16173000D02*
Y16249200D01*
X38201600Y16173000D02*
Y16249200D01*
X38227000Y16173000D02*
Y16249200D01*
X38163500Y16350800D02*
Y16427000D01*
X38227000*
Y16350800*
X38163500*
X38227000*
X38163500Y16376200D02*
X38227000D01*
X38163500Y16401600D02*
X38227000D01*
X38163500Y16427000D02*
X38227000D01*
X38176200Y16350800D02*
Y16427000D01*
X38201600Y16350800D02*
Y16427000D01*
X38227000Y16350800D02*
Y16427000D01*
X37937700Y20712700D02*
Y20787300D01*
X38024800*
Y20712700*
X37937700*
X38024800*
X37937700Y20738100D02*
X38024800D01*
X37937700Y20763500D02*
X38024800D01*
X37947600Y20712700D02*
Y20787300D01*
X37973000Y20712700D02*
Y20787300D01*
X37998400Y20712700D02*
Y20787300D01*
X38023800Y20712700D02*
Y20787300D01*
X38163500Y20623000D02*
Y20699200D01*
X38227000*
Y20623000*
X38163500*
X38227000*
X38163500Y20648400D02*
X38227000D01*
X38163500Y20673800D02*
X38227000D01*
X38163500Y20699200D02*
X38227000D01*
X38176200Y20623000D02*
Y20699200D01*
X38201600Y20623000D02*
Y20699200D01*
X38227000Y20623000D02*
Y20699200D01*
X38163500Y20800800D02*
Y20877000D01*
X38227000*
Y20800800*
X38163500*
X38227000*
X38163500Y20826200D02*
X38227000D01*
X38163500Y20851600D02*
X38227000D01*
X38163500Y20877000D02*
X38227000D01*
X38176200Y20800800D02*
Y20877000D01*
X38201600Y20800800D02*
Y20877000D01*
X38227000Y20800800D02*
Y20877000D01*
X26037700Y20712700D02*
Y20787300D01*
X26124800*
Y20712700*
X26037700*
X26124800*
X26037700Y20738100D02*
X26124800D01*
X26037700Y20763500D02*
X26124800D01*
X26060400Y20712700D02*
Y20787300D01*
X26085800Y20712700D02*
Y20787300D01*
X26111200Y20712700D02*
Y20787300D01*
X26263500Y20623000D02*
Y20699200D01*
X26327000*
Y20623000*
X26263500*
X26327000*
X26263500Y20648400D02*
X26327000D01*
X26263500Y20673800D02*
X26327000D01*
X26263500Y20699200D02*
X26327000D01*
X26263600Y20623000D02*
Y20699200D01*
X26289000Y20623000D02*
Y20699200D01*
X26314400Y20623000D02*
Y20699200D01*
X26263500Y20800800D02*
Y20877000D01*
X26327000*
Y20800800*
X26263500*
X26327000*
X26263500Y20826200D02*
X26327000D01*
X26263500Y20851600D02*
X26327000D01*
X26263500Y20877000D02*
X26327000D01*
X26263600Y20800800D02*
Y20877000D01*
X26289000Y20800800D02*
Y20877000D01*
X26314400Y20800800D02*
Y20877000D01*
X27737700Y16262700D02*
Y16337300D01*
X27824800*
Y16262700*
X27737700*
X27824800*
X27737700Y16288100D02*
X27824800D01*
X27737700Y16313500D02*
X27824800D01*
X27762200Y16262700D02*
Y16337300D01*
X27787600Y16262700D02*
Y16337300D01*
X27813000Y16262700D02*
Y16337300D01*
X27963500Y16173000D02*
Y16249200D01*
X28027000*
Y16173000*
X27963500*
X28027000*
X27963500Y16198400D02*
X28027000D01*
X27963500Y16223800D02*
X28027000D01*
X27963500Y16249200D02*
X28027000D01*
X27965400Y16173000D02*
Y16249200D01*
X27990800Y16173000D02*
Y16249200D01*
X28016200Y16173000D02*
Y16249200D01*
X27963500Y16350800D02*
Y16427000D01*
X28027000*
Y16350800*
X27963500*
X28027000*
X27963500Y16376200D02*
X28027000D01*
X27963500Y16401600D02*
X28027000D01*
X27963500Y16427000D02*
X28027000D01*
X27965400Y16350800D02*
Y16427000D01*
X27990800Y16350800D02*
Y16427000D01*
X28016200Y16350800D02*
Y16427000D01*
X27737700Y20712700D02*
Y20787300D01*
X27824800*
Y20712700*
X27737700*
X27824800*
X27737700Y20738100D02*
X27824800D01*
X27737700Y20763500D02*
X27824800D01*
X27762200Y20712700D02*
Y20787300D01*
X27787600Y20712700D02*
Y20787300D01*
X27813000Y20712700D02*
Y20787300D01*
X27963500Y20623000D02*
Y20699200D01*
X28027000*
Y20623000*
X27963500*
X28027000*
X27963500Y20648400D02*
X28027000D01*
X27963500Y20673800D02*
X28027000D01*
X27963500Y20699200D02*
X28027000D01*
X27965400Y20623000D02*
Y20699200D01*
X27990800Y20623000D02*
Y20699200D01*
X28016200Y20623000D02*
Y20699200D01*
X27963500Y20800800D02*
Y20877000D01*
X28027000*
Y20800800*
X27963500*
X28027000*
X27963500Y20826200D02*
X28027000D01*
X27963500Y20851600D02*
X28027000D01*
X27963500Y20877000D02*
X28027000D01*
X27965400Y20800800D02*
Y20877000D01*
X27990800Y20800800D02*
Y20877000D01*
X28016200Y20800800D02*
Y20877000D01*
X29437700Y16262700D02*
Y16337300D01*
X29524800*
Y16262700*
X29437700*
X29524800*
X29437700Y16288100D02*
X29524800D01*
X29437700Y16313500D02*
X29524800D01*
X29438600Y16262700D02*
Y16337300D01*
X29464000Y16262700D02*
Y16337300D01*
X29489400Y16262700D02*
Y16337300D01*
X29514800Y16262700D02*
Y16337300D01*
X29663500Y16173000D02*
Y16249200D01*
X29727000*
Y16173000*
X29663500*
X29727000*
X29663500Y16198400D02*
X29727000D01*
X29663500Y16223800D02*
X29727000D01*
X29663500Y16249200D02*
X29727000D01*
X29667200Y16173000D02*
Y16249200D01*
X29692600Y16173000D02*
Y16249200D01*
X29718000Y16173000D02*
Y16249200D01*
X29663500Y16350800D02*
Y16427000D01*
X29727000*
Y16350800*
X29663500*
X29727000*
X29663500Y16376200D02*
X29727000D01*
X29663500Y16401600D02*
X29727000D01*
X29663500Y16427000D02*
X29727000D01*
X29667200Y16350800D02*
Y16427000D01*
X29692600Y16350800D02*
Y16427000D01*
X29718000Y16350800D02*
Y16427000D01*
X29437700Y20712700D02*
Y20787300D01*
X29524800*
Y20712700*
X29437700*
X29524800*
X29437700Y20738100D02*
X29524800D01*
X29437700Y20763500D02*
X29524800D01*
X29438600Y20712700D02*
Y20787300D01*
X29464000Y20712700D02*
Y20787300D01*
X29489400Y20712700D02*
Y20787300D01*
X29514800Y20712700D02*
Y20787300D01*
X29663500Y20623000D02*
Y20699200D01*
X29727000*
Y20623000*
X29663500*
X29727000*
X29663500Y20648400D02*
X29727000D01*
X29663500Y20673800D02*
X29727000D01*
X29663500Y20699200D02*
X29727000D01*
X29667200Y20623000D02*
Y20699200D01*
X29692600Y20623000D02*
Y20699200D01*
X29718000Y20623000D02*
Y20699200D01*
X29663500Y20800800D02*
Y20877000D01*
X29727000*
Y20800800*
X29663500*
X29727000*
X29663500Y20826200D02*
X29727000D01*
X29663500Y20851600D02*
X29727000D01*
X29663500Y20877000D02*
X29727000D01*
X29667200Y20800800D02*
Y20877000D01*
X29692600Y20800800D02*
Y20877000D01*
X29718000Y20800800D02*
Y20877000D01*
X31137700Y16262700D02*
Y16337300D01*
X31224800*
Y16262700*
X31137700*
X31224800*
X31137700Y16288100D02*
X31224800D01*
X31137700Y16313500D02*
X31224800D01*
X31140400Y16262700D02*
Y16337300D01*
X31165800Y16262700D02*
Y16337300D01*
X31191200Y16262700D02*
Y16337300D01*
X31216600Y16262700D02*
Y16337300D01*
X31363500Y16173000D02*
Y16249200D01*
X31427000*
Y16173000*
X31363500*
X31427000*
X31363500Y16198400D02*
X31427000D01*
X31363500Y16223800D02*
X31427000D01*
X31363500Y16249200D02*
X31427000D01*
X31369000Y16173000D02*
Y16249200D01*
X31394400Y16173000D02*
Y16249200D01*
X31419800Y16173000D02*
Y16249200D01*
X31363500Y16350800D02*
Y16427000D01*
X31427000*
Y16350800*
X31363500*
X31427000*
X31363500Y16376200D02*
X31427000D01*
X31363500Y16401600D02*
X31427000D01*
X31363500Y16427000D02*
X31427000D01*
X31369000Y16350800D02*
Y16427000D01*
X31394400Y16350800D02*
Y16427000D01*
X31419800Y16350800D02*
Y16427000D01*
X31137700Y20712700D02*
Y20787300D01*
X31224800*
Y20712700*
X31137700*
X31224800*
X31137700Y20738100D02*
X31224800D01*
X31137700Y20763500D02*
X31224800D01*
X31140400Y20712700D02*
Y20787300D01*
X31165800Y20712700D02*
Y20787300D01*
X31191200Y20712700D02*
Y20787300D01*
X31216600Y20712700D02*
Y20787300D01*
X31363500Y20623000D02*
Y20699200D01*
X31427000*
Y20623000*
X31363500*
X31427000*
X31363500Y20648400D02*
X31427000D01*
X31363500Y20673800D02*
X31427000D01*
X31363500Y20699200D02*
X31427000D01*
X31369000Y20623000D02*
Y20699200D01*
X31394400Y20623000D02*
Y20699200D01*
X31419800Y20623000D02*
Y20699200D01*
X31363500Y20800800D02*
Y20877000D01*
X31427000*
Y20800800*
X31363500*
X31427000*
X31363500Y20826200D02*
X31427000D01*
X31363500Y20851600D02*
X31427000D01*
X31363500Y20877000D02*
X31427000D01*
X31369000Y20800800D02*
Y20877000D01*
X31394400Y20800800D02*
Y20877000D01*
X31419800Y20800800D02*
Y20877000D01*
X32837700Y16262700D02*
Y16337300D01*
X32924800*
Y16262700*
X32837700*
X32924800*
X32837700Y16288100D02*
X32924800D01*
X32837700Y16313500D02*
X32924800D01*
X32842200Y16262700D02*
Y16337300D01*
X32867600Y16262700D02*
Y16337300D01*
X32893000Y16262700D02*
Y16337300D01*
X32918400Y16262700D02*
Y16337300D01*
X33063500Y16173000D02*
Y16249200D01*
X33127000*
Y16173000*
X33063500*
X33127000*
X33063500Y16198400D02*
X33127000D01*
X33063500Y16223800D02*
X33127000D01*
X33063500Y16249200D02*
X33127000D01*
X33070800Y16173000D02*
Y16249200D01*
X33096200Y16173000D02*
Y16249200D01*
X33121600Y16173000D02*
Y16249200D01*
X33063500Y16350800D02*
Y16427000D01*
X33127000*
Y16350800*
X33063500*
X33127000*
X33063500Y16376200D02*
X33127000D01*
X33063500Y16401600D02*
X33127000D01*
X33063500Y16427000D02*
X33127000D01*
X33070800Y16350800D02*
Y16427000D01*
X33096200Y16350800D02*
Y16427000D01*
X33121600Y16350800D02*
Y16427000D01*
X26325200Y16650200D02*
Y16787300D01*
X26474800*
Y16650200*
X26325200*
X26474800*
X26325200Y16675600D02*
X26474800D01*
X26325200Y16701000D02*
X26474800D01*
X26325200Y16726400D02*
X26474800D01*
X26325200Y16751800D02*
X26474800D01*
X26325200Y16777200D02*
X26474800D01*
X26339800Y16650200D02*
Y16787300D01*
X26365200Y16650200D02*
Y16787300D01*
X26390600Y16650200D02*
Y16787300D01*
X26416000Y16650200D02*
Y16787300D01*
X26441400Y16650200D02*
Y16787300D01*
X26466800Y16650200D02*
Y16787300D01*
X26325200Y16912700D02*
Y17062300D01*
X26474800*
Y16912700*
X26325200*
X26474800*
X26325200Y16938100D02*
X26474800D01*
X26325200Y16963500D02*
X26474800D01*
X26325200Y16988900D02*
X26474800D01*
X26325200Y17014300D02*
X26474800D01*
X26325200Y17039700D02*
X26474800D01*
X26339800Y16912700D02*
Y17062300D01*
X26365200Y16912700D02*
Y17062300D01*
X26390600Y16912700D02*
Y17062300D01*
X26416000Y16912700D02*
Y17062300D01*
X26441400Y16912700D02*
Y17062300D01*
X26466800Y16912700D02*
Y17062300D01*
X27787300Y21237300D02*
Y21162700D01*
X27712700*
Y21237300*
X27787300*
X27712700Y21162700D02*
X27787300D01*
X27712700Y21188100D02*
X27787300D01*
X27712700Y21213500D02*
X27787300D01*
X27736800Y21162700D02*
Y21237300D01*
X27762200Y21162700D02*
Y21237300D01*
X27787300Y21437300D02*
Y21362700D01*
X27712700*
Y21437300*
X27787300*
X27712700Y21362700D02*
X27787300D01*
X27712700Y21388100D02*
X27787300D01*
X27712700Y21413500D02*
X27787300D01*
X27736800Y21362700D02*
Y21437300D01*
X27762200Y21362700D02*
Y21437300D01*
X27837300Y15912700D02*
X27762700D01*
Y15987300*
X27837300*
Y15912700*
X27762700D02*
X27837300D01*
X27762700Y15938100D02*
X27837300D01*
X27762700Y15963500D02*
X27837300D01*
X27787600Y15912700D02*
Y15987300D01*
X27813000Y15912700D02*
Y15987300D01*
X28037300Y15912700D02*
X27962700D01*
Y15987300*
X28037300*
Y15912700*
X27962700D02*
X28037300D01*
X27962700Y15938100D02*
X28037300D01*
X27962700Y15963500D02*
X28037300D01*
X27965400Y15912700D02*
Y15987300D01*
X27990800Y15912700D02*
Y15987300D01*
X28016200Y15912700D02*
Y15987300D01*
X27837300Y20362700D02*
X27762700D01*
Y20437300*
X27837300*
Y20362700*
X27762700D02*
X27837300D01*
X27762700Y20388100D02*
X27837300D01*
X27762700Y20413500D02*
X27837300D01*
X27787600Y20362700D02*
Y20437300D01*
X27813000Y20362700D02*
Y20437300D01*
X28037300Y20362700D02*
X27962700D01*
Y20437300*
X28037300*
Y20362700*
X27962700D02*
X28037300D01*
X27962700Y20388100D02*
X28037300D01*
X27962700Y20413500D02*
X28037300D01*
X27965400Y20362700D02*
Y20437300D01*
X27990800Y20362700D02*
Y20437300D01*
X28016200Y20362700D02*
Y20437300D01*
X29725200Y16650200D02*
Y16787300D01*
X29874800*
Y16650200*
X29725200*
X29874800*
X29725200Y16675600D02*
X29874800D01*
X29725200Y16701000D02*
X29874800D01*
X29725200Y16726400D02*
X29874800D01*
X29725200Y16751800D02*
X29874800D01*
X29725200Y16777200D02*
X29874800D01*
X29743400Y16650200D02*
Y16787300D01*
X29768800Y16650200D02*
Y16787300D01*
X29794200Y16650200D02*
Y16787300D01*
X29819600Y16650200D02*
Y16787300D01*
X29845000Y16650200D02*
Y16787300D01*
X29870400Y16650200D02*
Y16787300D01*
X29725200Y16912700D02*
Y17062300D01*
X29874800*
Y16912700*
X29725200*
X29874800*
X29725200Y16938100D02*
X29874800D01*
X29725200Y16963500D02*
X29874800D01*
X29725200Y16988900D02*
X29874800D01*
X29725200Y17014300D02*
X29874800D01*
X29725200Y17039700D02*
X29874800D01*
X29743400Y16912700D02*
Y17062300D01*
X29768800Y16912700D02*
Y17062300D01*
X29794200Y16912700D02*
Y17062300D01*
X29819600Y16912700D02*
Y17062300D01*
X29845000Y16912700D02*
Y17062300D01*
X29870400Y16912700D02*
Y17062300D01*
X29725200Y21100200D02*
Y21237300D01*
X29874800*
Y21100200*
X29725200*
X29874800*
X29725200Y21125600D02*
X29874800D01*
X29725200Y21151000D02*
X29874800D01*
X29725200Y21176400D02*
X29874800D01*
X29725200Y21201800D02*
X29874800D01*
X29725200Y21227200D02*
X29874800D01*
X29743400Y21100200D02*
Y21237300D01*
X29768800Y21100200D02*
Y21237300D01*
X29794200Y21100200D02*
Y21237300D01*
X29819600Y21100200D02*
Y21237300D01*
X29845000Y21100200D02*
Y21237300D01*
X29870400Y21100200D02*
Y21237300D01*
X29725200Y21362700D02*
Y21512300D01*
X29874800*
Y21362700*
X29725200*
X29874800*
X29725200Y21388100D02*
X29874800D01*
X29725200Y21413500D02*
X29874800D01*
X29725200Y21438900D02*
X29874800D01*
X29725200Y21464300D02*
X29874800D01*
X29725200Y21489700D02*
X29874800D01*
X29743400Y21362700D02*
Y21512300D01*
X29768800Y21362700D02*
Y21512300D01*
X29794200Y21362700D02*
Y21512300D01*
X29819600Y21362700D02*
Y21512300D01*
X29845000Y21362700D02*
Y21512300D01*
X29870400Y21362700D02*
Y21512300D01*
X29487300Y16787300D02*
Y16712700D01*
X29412700*
Y16787300*
X29487300*
X29412700Y16712700D02*
X29487300D01*
X29412700Y16738100D02*
X29487300D01*
X29412700Y16763500D02*
X29487300D01*
X29413200Y16712700D02*
Y16787300D01*
X29438600Y16712700D02*
Y16787300D01*
X29464000Y16712700D02*
Y16787300D01*
X29487300Y16987300D02*
Y16912700D01*
X29412700*
Y16987300*
X29487300*
X29412700Y16912700D02*
X29487300D01*
X29412700Y16938100D02*
X29487300D01*
X29412700Y16963500D02*
X29487300D01*
X29413200Y16912700D02*
Y16987300D01*
X29438600Y16912700D02*
Y16987300D01*
X29464000Y16912700D02*
Y16987300D01*
X29487300Y21237300D02*
Y21162700D01*
X29412700*
Y21237300*
X29487300*
X29412700Y21162700D02*
X29487300D01*
X29412700Y21188100D02*
X29487300D01*
X29412700Y21213500D02*
X29487300D01*
X29413200Y21162700D02*
Y21237300D01*
X29438600Y21162700D02*
Y21237300D01*
X29464000Y21162700D02*
Y21237300D01*
X29487300Y21437300D02*
Y21362700D01*
X29412700*
Y21437300*
X29487300*
X29412700Y21362700D02*
X29487300D01*
X29412700Y21388100D02*
X29487300D01*
X29412700Y21413500D02*
X29487300D01*
X29413200Y21362700D02*
Y21437300D01*
X29438600Y21362700D02*
Y21437300D01*
X29464000Y21362700D02*
Y21437300D01*
X29537300Y15912700D02*
X29462700D01*
Y15987300*
X29537300*
Y15912700*
X29462700D02*
X29537300D01*
X29462700Y15938100D02*
X29537300D01*
X29462700Y15963500D02*
X29537300D01*
X29464000Y15912700D02*
Y15987300D01*
X29489400Y15912700D02*
Y15987300D01*
X29514800Y15912700D02*
Y15987300D01*
X29737300Y15912700D02*
X29662700D01*
Y15987300*
X29737300*
Y15912700*
X29662700D02*
X29737300D01*
X29662700Y15938100D02*
X29737300D01*
X29662700Y15963500D02*
X29737300D01*
X29667200Y15912700D02*
Y15987300D01*
X29692600Y15912700D02*
Y15987300D01*
X29718000Y15912700D02*
Y15987300D01*
X29537300Y20362700D02*
X29462700D01*
Y20437300*
X29537300*
Y20362700*
X29462700D02*
X29537300D01*
X29462700Y20388100D02*
X29537300D01*
X29462700Y20413500D02*
X29537300D01*
X29464000Y20362700D02*
Y20437300D01*
X29489400Y20362700D02*
Y20437300D01*
X29514800Y20362700D02*
Y20437300D01*
X29737300Y20362700D02*
X29662700D01*
Y20437300*
X29737300*
Y20362700*
X29662700D02*
X29737300D01*
X29662700Y20388100D02*
X29737300D01*
X29662700Y20413500D02*
X29737300D01*
X29667200Y20362700D02*
Y20437300D01*
X29692600Y20362700D02*
Y20437300D01*
X29718000Y20362700D02*
Y20437300D01*
X31425200Y16650200D02*
Y16787300D01*
X31574800*
Y16650200*
X31425200*
X31574800*
X31425200Y16675600D02*
X31574800D01*
X31425200Y16701000D02*
X31574800D01*
X31425200Y16726400D02*
X31574800D01*
X31425200Y16751800D02*
X31574800D01*
X31425200Y16777200D02*
X31574800D01*
X31445200Y16650200D02*
Y16787300D01*
X31470600Y16650200D02*
Y16787300D01*
X31496000Y16650200D02*
Y16787300D01*
X31521400Y16650200D02*
Y16787300D01*
X31546800Y16650200D02*
Y16787300D01*
X31572200Y16650200D02*
Y16787300D01*
X31425200Y16912700D02*
Y17062300D01*
X31574800*
Y16912700*
X31425200*
X31574800*
X31425200Y16938100D02*
X31574800D01*
X31425200Y16963500D02*
X31574800D01*
X31425200Y16988900D02*
X31574800D01*
X31425200Y17014300D02*
X31574800D01*
X31425200Y17039700D02*
X31574800D01*
X31445200Y16912700D02*
Y17062300D01*
X31470600Y16912700D02*
Y17062300D01*
X31496000Y16912700D02*
Y17062300D01*
X31521400Y16912700D02*
Y17062300D01*
X31546800Y16912700D02*
Y17062300D01*
X31572200Y16912700D02*
Y17062300D01*
X26325200Y21100200D02*
Y21237300D01*
X26474800*
Y21100200*
X26325200*
X26474800*
X26325200Y21125600D02*
X26474800D01*
X26325200Y21151000D02*
X26474800D01*
X26325200Y21176400D02*
X26474800D01*
X26325200Y21201800D02*
X26474800D01*
X26325200Y21227200D02*
X26474800D01*
X26339800Y21100200D02*
Y21237300D01*
X26365200Y21100200D02*
Y21237300D01*
X26390600Y21100200D02*
Y21237300D01*
X26416000Y21100200D02*
Y21237300D01*
X26441400Y21100200D02*
Y21237300D01*
X26466800Y21100200D02*
Y21237300D01*
X26325200Y21362700D02*
Y21512300D01*
X26474800*
Y21362700*
X26325200*
X26474800*
X26325200Y21388100D02*
X26474800D01*
X26325200Y21413500D02*
X26474800D01*
X26325200Y21438900D02*
X26474800D01*
X26325200Y21464300D02*
X26474800D01*
X26325200Y21489700D02*
X26474800D01*
X26339800Y21362700D02*
Y21512300D01*
X26365200Y21362700D02*
Y21512300D01*
X26390600Y21362700D02*
Y21512300D01*
X26416000Y21362700D02*
Y21512300D01*
X26441400Y21362700D02*
Y21512300D01*
X26466800Y21362700D02*
Y21512300D01*
X31425200Y21100200D02*
Y21237300D01*
X31574800*
Y21100200*
X31425200*
X31574800*
X31425200Y21125600D02*
X31574800D01*
X31425200Y21151000D02*
X31574800D01*
X31425200Y21176400D02*
X31574800D01*
X31425200Y21201800D02*
X31574800D01*
X31425200Y21227200D02*
X31574800D01*
X31445200Y21100200D02*
Y21237300D01*
X31470600Y21100200D02*
Y21237300D01*
X31496000Y21100200D02*
Y21237300D01*
X31521400Y21100200D02*
Y21237300D01*
X31546800Y21100200D02*
Y21237300D01*
X31572200Y21100200D02*
Y21237300D01*
X31425200Y21362700D02*
Y21512300D01*
X31574800*
Y21362700*
X31425200*
X31574800*
X31425200Y21388100D02*
X31574800D01*
X31425200Y21413500D02*
X31574800D01*
X31425200Y21438900D02*
X31574800D01*
X31425200Y21464300D02*
X31574800D01*
X31425200Y21489700D02*
X31574800D01*
X31445200Y21362700D02*
Y21512300D01*
X31470600Y21362700D02*
Y21512300D01*
X31496000Y21362700D02*
Y21512300D01*
X31521400Y21362700D02*
Y21512300D01*
X31546800Y21362700D02*
Y21512300D01*
X31572200Y21362700D02*
Y21512300D01*
X31187300Y16787300D02*
Y16712700D01*
X31112700*
Y16787300*
X31187300*
X31112700Y16712700D02*
X31187300D01*
X31112700Y16738100D02*
X31187300D01*
X31112700Y16763500D02*
X31187300D01*
X31115000Y16712700D02*
Y16787300D01*
X31140400Y16712700D02*
Y16787300D01*
X31165800Y16712700D02*
Y16787300D01*
X31187300Y16987300D02*
Y16912700D01*
X31112700*
Y16987300*
X31187300*
X31112700Y16912700D02*
X31187300D01*
X31112700Y16938100D02*
X31187300D01*
X31112700Y16963500D02*
X31187300D01*
X31115000Y16912700D02*
Y16987300D01*
X31140400Y16912700D02*
Y16987300D01*
X31165800Y16912700D02*
Y16987300D01*
X31187300Y21237300D02*
Y21162700D01*
X31112700*
Y21237300*
X31187300*
X31112700Y21162700D02*
X31187300D01*
X31112700Y21188100D02*
X31187300D01*
X31112700Y21213500D02*
X31187300D01*
X31115000Y21162700D02*
Y21237300D01*
X31140400Y21162700D02*
Y21237300D01*
X31165800Y21162700D02*
Y21237300D01*
X31187300Y21437300D02*
Y21362700D01*
X31112700*
Y21437300*
X31187300*
X31112700Y21362700D02*
X31187300D01*
X31112700Y21388100D02*
X31187300D01*
X31112700Y21413500D02*
X31187300D01*
X31115000Y21362700D02*
Y21437300D01*
X31140400Y21362700D02*
Y21437300D01*
X31165800Y21362700D02*
Y21437300D01*
X31237300Y15912700D02*
X31162700D01*
Y15987300*
X31237300*
Y15912700*
X31162700D02*
X31237300D01*
X31162700Y15938100D02*
X31237300D01*
X31162700Y15963500D02*
X31237300D01*
X31165800Y15912700D02*
Y15987300D01*
X31191200Y15912700D02*
Y15987300D01*
X31216600Y15912700D02*
Y15987300D01*
X31437300Y15912700D02*
X31362700D01*
Y15987300*
X31437300*
Y15912700*
X31362700D02*
X31437300D01*
X31362700Y15938100D02*
X31437300D01*
X31362700Y15963500D02*
X31437300D01*
X31369000Y15912700D02*
Y15987300D01*
X31394400Y15912700D02*
Y15987300D01*
X31419800Y15912700D02*
Y15987300D01*
X31237300Y20362700D02*
X31162700D01*
Y20437300*
X31237300*
Y20362700*
X31162700D02*
X31237300D01*
X31162700Y20388100D02*
X31237300D01*
X31162700Y20413500D02*
X31237300D01*
X31165800Y20362700D02*
Y20437300D01*
X31191200Y20362700D02*
Y20437300D01*
X31216600Y20362700D02*
Y20437300D01*
X31437300Y20362700D02*
X31362700D01*
Y20437300*
X31437300*
Y20362700*
X31362700D02*
X31437300D01*
X31362700Y20388100D02*
X31437300D01*
X31362700Y20413500D02*
X31437300D01*
X31369000Y20362700D02*
Y20437300D01*
X31394400Y20362700D02*
Y20437300D01*
X31419800Y20362700D02*
Y20437300D01*
X33125200Y16650200D02*
Y16787300D01*
X33274800*
Y16650200*
X33125200*
X33274800*
X33125200Y16675600D02*
X33274800D01*
X33125200Y16701000D02*
X33274800D01*
X33125200Y16726400D02*
X33274800D01*
X33125200Y16751800D02*
X33274800D01*
X33125200Y16777200D02*
X33274800D01*
X33147000Y16650200D02*
Y16787300D01*
X33172400Y16650200D02*
Y16787300D01*
X33197800Y16650200D02*
Y16787300D01*
X33223200Y16650200D02*
Y16787300D01*
X33248600Y16650200D02*
Y16787300D01*
X33274000Y16650200D02*
Y16787300D01*
X33125200Y16912700D02*
Y17062300D01*
X33274800*
Y16912700*
X33125200*
X33274800*
X33125200Y16938100D02*
X33274800D01*
X33125200Y16963500D02*
X33274800D01*
X33125200Y16988900D02*
X33274800D01*
X33125200Y17014300D02*
X33274800D01*
X33125200Y17039700D02*
X33274800D01*
X33147000Y16912700D02*
Y17062300D01*
X33172400Y16912700D02*
Y17062300D01*
X33197800Y16912700D02*
Y17062300D01*
X33223200Y16912700D02*
Y17062300D01*
X33248600Y16912700D02*
Y17062300D01*
X33274000Y16912700D02*
Y17062300D01*
X33125200Y21100200D02*
Y21237300D01*
X33274800*
Y21100200*
X33125200*
X33274800*
X33125200Y21125600D02*
X33274800D01*
X33125200Y21151000D02*
X33274800D01*
X33125200Y21176400D02*
X33274800D01*
X33125200Y21201800D02*
X33274800D01*
X33125200Y21227200D02*
X33274800D01*
X33147000Y21100200D02*
Y21237300D01*
X33172400Y21100200D02*
Y21237300D01*
X33197800Y21100200D02*
Y21237300D01*
X33223200Y21100200D02*
Y21237300D01*
X33248600Y21100200D02*
Y21237300D01*
X33274000Y21100200D02*
Y21237300D01*
X33125200Y21362700D02*
Y21512300D01*
X33274800*
Y21362700*
X33125200*
X33274800*
X33125200Y21388100D02*
X33274800D01*
X33125200Y21413500D02*
X33274800D01*
X33125200Y21438900D02*
X33274800D01*
X33125200Y21464300D02*
X33274800D01*
X33125200Y21489700D02*
X33274800D01*
X33147000Y21362700D02*
Y21512300D01*
X33172400Y21362700D02*
Y21512300D01*
X33197800Y21362700D02*
Y21512300D01*
X33223200Y21362700D02*
Y21512300D01*
X33248600Y21362700D02*
Y21512300D01*
X33274000Y21362700D02*
Y21512300D01*
X32887300Y16787300D02*
Y16712700D01*
X32812700*
Y16787300*
X32887300*
X32812700Y16712700D02*
X32887300D01*
X32812700Y16738100D02*
X32887300D01*
X32812700Y16763500D02*
X32887300D01*
X32816800Y16712700D02*
Y16787300D01*
X32842200Y16712700D02*
Y16787300D01*
X32867600Y16712700D02*
Y16787300D01*
X32887300Y16987300D02*
Y16912700D01*
X32812700*
Y16987300*
X32887300*
X32812700Y16912700D02*
X32887300D01*
X32812700Y16938100D02*
X32887300D01*
X32812700Y16963500D02*
X32887300D01*
X32816800Y16912700D02*
Y16987300D01*
X32842200Y16912700D02*
Y16987300D01*
X32867600Y16912700D02*
Y16987300D01*
X32887300Y21237300D02*
Y21162700D01*
X32812700*
Y21237300*
X32887300*
X32812700Y21162700D02*
X32887300D01*
X32812700Y21188100D02*
X32887300D01*
X32812700Y21213500D02*
X32887300D01*
X32816800Y21162700D02*
Y21237300D01*
X32842200Y21162700D02*
Y21237300D01*
X32867600Y21162700D02*
Y21237300D01*
X32887300Y21437300D02*
Y21362700D01*
X32812700*
Y21437300*
X32887300*
X32812700Y21362700D02*
X32887300D01*
X32812700Y21388100D02*
X32887300D01*
X32812700Y21413500D02*
X32887300D01*
X32816800Y21362700D02*
Y21437300D01*
X32842200Y21362700D02*
Y21437300D01*
X32867600Y21362700D02*
Y21437300D01*
X32937300Y15912700D02*
X32862700D01*
Y15987300*
X32937300*
Y15912700*
X32862700D02*
X32937300D01*
X32862700Y15938100D02*
X32937300D01*
X32862700Y15963500D02*
X32937300D01*
X32867600Y15912700D02*
Y15987300D01*
X32893000Y15912700D02*
Y15987300D01*
X32918400Y15912700D02*
Y15987300D01*
X33137300Y15912700D02*
X33062700D01*
Y15987300*
X33137300*
Y15912700*
X33062700D02*
X33137300D01*
X33062700Y15938100D02*
X33137300D01*
X33062700Y15963500D02*
X33137300D01*
X33070800Y15912700D02*
Y15987300D01*
X33096200Y15912700D02*
Y15987300D01*
X33121600Y15912700D02*
Y15987300D01*
X26087300Y16787300D02*
Y16712700D01*
X26012700*
Y16787300*
X26087300*
X26012700Y16712700D02*
X26087300D01*
X26012700Y16738100D02*
X26087300D01*
X26012700Y16763500D02*
X26087300D01*
X26035000Y16712700D02*
Y16787300D01*
X26060400Y16712700D02*
Y16787300D01*
X26085800Y16712700D02*
Y16787300D01*
X26087300Y16987300D02*
Y16912700D01*
X26012700*
Y16987300*
X26087300*
X26012700Y16912700D02*
X26087300D01*
X26012700Y16938100D02*
X26087300D01*
X26012700Y16963500D02*
X26087300D01*
X26035000Y16912700D02*
Y16987300D01*
X26060400Y16912700D02*
Y16987300D01*
X26085800Y16912700D02*
Y16987300D01*
X32937300Y20362700D02*
X32862700D01*
Y20437300*
X32937300*
Y20362700*
X32862700D02*
X32937300D01*
X32862700Y20388100D02*
X32937300D01*
X32862700Y20413500D02*
X32937300D01*
X32867600Y20362700D02*
Y20437300D01*
X32893000Y20362700D02*
Y20437300D01*
X32918400Y20362700D02*
Y20437300D01*
X33137300Y20362700D02*
X33062700D01*
Y20437300*
X33137300*
Y20362700*
X33062700D02*
X33137300D01*
X33062700Y20388100D02*
X33137300D01*
X33062700Y20413500D02*
X33137300D01*
X33070800Y20362700D02*
Y20437300D01*
X33096200Y20362700D02*
Y20437300D01*
X33121600Y20362700D02*
Y20437300D01*
X34825200Y16650200D02*
Y16787300D01*
X34974800*
Y16650200*
X34825200*
X34974800*
X34825200Y16675600D02*
X34974800D01*
X34825200Y16701000D02*
X34974800D01*
X34825200Y16726400D02*
X34974800D01*
X34825200Y16751800D02*
X34974800D01*
X34825200Y16777200D02*
X34974800D01*
X34848800Y16650200D02*
Y16787300D01*
X34874200Y16650200D02*
Y16787300D01*
X34899600Y16650200D02*
Y16787300D01*
X34925000Y16650200D02*
Y16787300D01*
X34950400Y16650200D02*
Y16787300D01*
X34825200Y16912700D02*
Y17062300D01*
X34974800*
Y16912700*
X34825200*
X34974800*
X34825200Y16938100D02*
X34974800D01*
X34825200Y16963500D02*
X34974800D01*
X34825200Y16988900D02*
X34974800D01*
X34825200Y17014300D02*
X34974800D01*
X34825200Y17039700D02*
X34974800D01*
X34848800Y16912700D02*
Y17062300D01*
X34874200Y16912700D02*
Y17062300D01*
X34899600Y16912700D02*
Y17062300D01*
X34925000Y16912700D02*
Y17062300D01*
X34950400Y16912700D02*
Y17062300D01*
X34587300Y16787300D02*
Y16712700D01*
X34512700*
Y16787300*
X34587300*
X34512700Y16712700D02*
X34587300D01*
X34512700Y16738100D02*
X34587300D01*
X34512700Y16763500D02*
X34587300D01*
X34518600Y16712700D02*
Y16787300D01*
X34544000Y16712700D02*
Y16787300D01*
X34569400Y16712700D02*
Y16787300D01*
X34587300Y16987300D02*
Y16912700D01*
X34512700*
Y16987300*
X34587300*
X34512700Y16912700D02*
X34587300D01*
X34512700Y16938100D02*
X34587300D01*
X34512700Y16963500D02*
X34587300D01*
X34518600Y16912700D02*
Y16987300D01*
X34544000Y16912700D02*
Y16987300D01*
X34569400Y16912700D02*
Y16987300D01*
X34825200Y21100200D02*
Y21237300D01*
X34974800*
Y21100200*
X34825200*
X34974800*
X34825200Y21125600D02*
X34974800D01*
X34825200Y21151000D02*
X34974800D01*
X34825200Y21176400D02*
X34974800D01*
X34825200Y21201800D02*
X34974800D01*
X34825200Y21227200D02*
X34974800D01*
X34848800Y21100200D02*
Y21237300D01*
X34874200Y21100200D02*
Y21237300D01*
X34899600Y21100200D02*
Y21237300D01*
X34925000Y21100200D02*
Y21237300D01*
X34950400Y21100200D02*
Y21237300D01*
X34825200Y21362700D02*
Y21512300D01*
X34974800*
Y21362700*
X34825200*
X34974800*
X34825200Y21388100D02*
X34974800D01*
X34825200Y21413500D02*
X34974800D01*
X34825200Y21438900D02*
X34974800D01*
X34825200Y21464300D02*
X34974800D01*
X34825200Y21489700D02*
X34974800D01*
X34848800Y21362700D02*
Y21512300D01*
X34874200Y21362700D02*
Y21512300D01*
X34899600Y21362700D02*
Y21512300D01*
X34925000Y21362700D02*
Y21512300D01*
X34950400Y21362700D02*
Y21512300D01*
X34587300Y21237300D02*
Y21162700D01*
X34512700*
Y21237300*
X34587300*
X34512700Y21162700D02*
X34587300D01*
X34512700Y21188100D02*
X34587300D01*
X34512700Y21213500D02*
X34587300D01*
X34518600Y21162700D02*
Y21237300D01*
X34544000Y21162700D02*
Y21237300D01*
X34569400Y21162700D02*
Y21237300D01*
X34587300Y21437300D02*
Y21362700D01*
X34512700*
Y21437300*
X34587300*
X34512700Y21362700D02*
X34587300D01*
X34512700Y21388100D02*
X34587300D01*
X34512700Y21413500D02*
X34587300D01*
X34518600Y21362700D02*
Y21437300D01*
X34544000Y21362700D02*
Y21437300D01*
X34569400Y21362700D02*
Y21437300D01*
X34637300Y15912700D02*
X34562700D01*
Y15987300*
X34637300*
Y15912700*
X34562700D02*
X34637300D01*
X34562700Y15938100D02*
X34637300D01*
X34562700Y15963500D02*
X34637300D01*
X34569400Y15912700D02*
Y15987300D01*
X34594800Y15912700D02*
Y15987300D01*
X34620200Y15912700D02*
Y15987300D01*
X34837300Y15912700D02*
X34762700D01*
Y15987300*
X34837300*
Y15912700*
X34762700D02*
X34837300D01*
X34762700Y15938100D02*
X34837300D01*
X34762700Y15963500D02*
X34837300D01*
X34772600Y15912700D02*
Y15987300D01*
X34798000Y15912700D02*
Y15987300D01*
X34823400Y15912700D02*
Y15987300D01*
X34637300Y20362700D02*
X34562700D01*
Y20437300*
X34637300*
Y20362700*
X34562700D02*
X34637300D01*
X34562700Y20388100D02*
X34637300D01*
X34562700Y20413500D02*
X34637300D01*
X34569400Y20362700D02*
Y20437300D01*
X34594800Y20362700D02*
Y20437300D01*
X34620200Y20362700D02*
Y20437300D01*
X34837300Y20362700D02*
X34762700D01*
Y20437300*
X34837300*
Y20362700*
X34762700D02*
X34837300D01*
X34762700Y20388100D02*
X34837300D01*
X34762700Y20413500D02*
X34837300D01*
X34772600Y20362700D02*
Y20437300D01*
X34798000Y20362700D02*
Y20437300D01*
X34823400Y20362700D02*
Y20437300D01*
X36525200Y16650200D02*
Y16787300D01*
X36674800*
Y16650200*
X36525200*
X36674800*
X36525200Y16675600D02*
X36674800D01*
X36525200Y16701000D02*
X36674800D01*
X36525200Y16726400D02*
X36674800D01*
X36525200Y16751800D02*
X36674800D01*
X36525200Y16777200D02*
X36674800D01*
X36525200Y16650200D02*
Y16787300D01*
X36550600Y16650200D02*
Y16787300D01*
X36576000Y16650200D02*
Y16787300D01*
X36601400Y16650200D02*
Y16787300D01*
X36626800Y16650200D02*
Y16787300D01*
X36652200Y16650200D02*
Y16787300D01*
X36525200Y16912700D02*
Y17062300D01*
X36674800*
Y16912700*
X36525200*
X36674800*
X36525200Y16938100D02*
X36674800D01*
X36525200Y16963500D02*
X36674800D01*
X36525200Y16988900D02*
X36674800D01*
X36525200Y17014300D02*
X36674800D01*
X36525200Y17039700D02*
X36674800D01*
X36525200Y16912700D02*
Y17062300D01*
X36550600Y16912700D02*
Y17062300D01*
X36576000Y16912700D02*
Y17062300D01*
X36601400Y16912700D02*
Y17062300D01*
X36626800Y16912700D02*
Y17062300D01*
X36652200Y16912700D02*
Y17062300D01*
X36525200Y21100200D02*
Y21237300D01*
X36674800*
Y21100200*
X36525200*
X36674800*
X36525200Y21125600D02*
X36674800D01*
X36525200Y21151000D02*
X36674800D01*
X36525200Y21176400D02*
X36674800D01*
X36525200Y21201800D02*
X36674800D01*
X36525200Y21227200D02*
X36674800D01*
X36525200Y21100200D02*
Y21237300D01*
X36550600Y21100200D02*
Y21237300D01*
X36576000Y21100200D02*
Y21237300D01*
X36601400Y21100200D02*
Y21237300D01*
X36626800Y21100200D02*
Y21237300D01*
X36652200Y21100200D02*
Y21237300D01*
X36525200Y21362700D02*
Y21512300D01*
X36674800*
Y21362700*
X36525200*
X36674800*
X36525200Y21388100D02*
X36674800D01*
X36525200Y21413500D02*
X36674800D01*
X36525200Y21438900D02*
X36674800D01*
X36525200Y21464300D02*
X36674800D01*
X36525200Y21489700D02*
X36674800D01*
X36525200Y21362700D02*
Y21512300D01*
X36550600Y21362700D02*
Y21512300D01*
X36576000Y21362700D02*
Y21512300D01*
X36601400Y21362700D02*
Y21512300D01*
X36626800Y21362700D02*
Y21512300D01*
X36652200Y21362700D02*
Y21512300D01*
X36287300Y16787300D02*
Y16712700D01*
X36212700*
Y16787300*
X36287300*
X36212700Y16712700D02*
X36287300D01*
X36212700Y16738100D02*
X36287300D01*
X36212700Y16763500D02*
X36287300D01*
X36220400Y16712700D02*
Y16787300D01*
X36245800Y16712700D02*
Y16787300D01*
X36271200Y16712700D02*
Y16787300D01*
X36287300Y16987300D02*
Y16912700D01*
X36212700*
Y16987300*
X36287300*
X36212700Y16912700D02*
X36287300D01*
X36212700Y16938100D02*
X36287300D01*
X36212700Y16963500D02*
X36287300D01*
X36220400Y16912700D02*
Y16987300D01*
X36245800Y16912700D02*
Y16987300D01*
X36271200Y16912700D02*
Y16987300D01*
X26087300Y21237300D02*
Y21162700D01*
X26012700*
Y21237300*
X26087300*
X26012700Y21162700D02*
X26087300D01*
X26012700Y21188100D02*
X26087300D01*
X26012700Y21213500D02*
X26087300D01*
X26035000Y21162700D02*
Y21237300D01*
X26060400Y21162700D02*
Y21237300D01*
X26085800Y21162700D02*
Y21237300D01*
X26087300Y21437300D02*
Y21362700D01*
X26012700*
Y21437300*
X26087300*
X26012700Y21362700D02*
X26087300D01*
X26012700Y21388100D02*
X26087300D01*
X26012700Y21413500D02*
X26087300D01*
X26035000Y21362700D02*
Y21437300D01*
X26060400Y21362700D02*
Y21437300D01*
X26085800Y21362700D02*
Y21437300D01*
X36287300Y21237300D02*
Y21162700D01*
X36212700*
Y21237300*
X36287300*
X36212700Y21162700D02*
X36287300D01*
X36212700Y21188100D02*
X36287300D01*
X36212700Y21213500D02*
X36287300D01*
X36220400Y21162700D02*
Y21237300D01*
X36245800Y21162700D02*
Y21237300D01*
X36271200Y21162700D02*
Y21237300D01*
X36287300Y21437300D02*
Y21362700D01*
X36212700*
Y21437300*
X36287300*
X36212700Y21362700D02*
X36287300D01*
X36212700Y21388100D02*
X36287300D01*
X36212700Y21413500D02*
X36287300D01*
X36220400Y21362700D02*
Y21437300D01*
X36245800Y21362700D02*
Y21437300D01*
X36271200Y21362700D02*
Y21437300D01*
X36337300Y15912700D02*
X36262700D01*
Y15987300*
X36337300*
Y15912700*
X36262700D02*
X36337300D01*
X36262700Y15938100D02*
X36337300D01*
X36262700Y15963500D02*
X36337300D01*
X36271200Y15912700D02*
Y15987300D01*
X36296600Y15912700D02*
Y15987300D01*
X36322000Y15912700D02*
Y15987300D01*
X36537300Y15912700D02*
X36462700D01*
Y15987300*
X36537300*
Y15912700*
X36462700D02*
X36537300D01*
X36462700Y15938100D02*
X36537300D01*
X36462700Y15963500D02*
X36537300D01*
X36474400Y15912700D02*
Y15987300D01*
X36499800Y15912700D02*
Y15987300D01*
X36525200Y15912700D02*
Y15987300D01*
X36337300Y20362700D02*
X36262700D01*
Y20437300*
X36337300*
Y20362700*
X36262700D02*
X36337300D01*
X36262700Y20388100D02*
X36337300D01*
X36262700Y20413500D02*
X36337300D01*
X36271200Y20362700D02*
Y20437300D01*
X36296600Y20362700D02*
Y20437300D01*
X36322000Y20362700D02*
Y20437300D01*
X36537300Y20362700D02*
X36462700D01*
Y20437300*
X36537300*
Y20362700*
X36462700D02*
X36537300D01*
X36462700Y20388100D02*
X36537300D01*
X36462700Y20413500D02*
X36537300D01*
X36474400Y20362700D02*
Y20437300D01*
X36499800Y20362700D02*
Y20437300D01*
X36525200Y20362700D02*
Y20437300D01*
X38225200Y16650200D02*
Y16787300D01*
X38374800*
Y16650200*
X38225200*
X38374800*
X38225200Y16675600D02*
X38374800D01*
X38225200Y16701000D02*
X38374800D01*
X38225200Y16726400D02*
X38374800D01*
X38225200Y16751800D02*
X38374800D01*
X38225200Y16777200D02*
X38374800D01*
X38227000Y16650200D02*
Y16787300D01*
X38252400Y16650200D02*
Y16787300D01*
X38277800Y16650200D02*
Y16787300D01*
X38303200Y16650200D02*
Y16787300D01*
X38328600Y16650200D02*
Y16787300D01*
X38354000Y16650200D02*
Y16787300D01*
X38225200Y16912700D02*
Y17062300D01*
X38374800*
Y16912700*
X38225200*
X38374800*
X38225200Y16938100D02*
X38374800D01*
X38225200Y16963500D02*
X38374800D01*
X38225200Y16988900D02*
X38374800D01*
X38225200Y17014300D02*
X38374800D01*
X38225200Y17039700D02*
X38374800D01*
X38227000Y16912700D02*
Y17062300D01*
X38252400Y16912700D02*
Y17062300D01*
X38277800Y16912700D02*
Y17062300D01*
X38303200Y16912700D02*
Y17062300D01*
X38328600Y16912700D02*
Y17062300D01*
X38354000Y16912700D02*
Y17062300D01*
X37987300Y16787300D02*
Y16712700D01*
X37912700*
Y16787300*
X37987300*
X37912700Y16712700D02*
X37987300D01*
X37912700Y16738100D02*
X37987300D01*
X37912700Y16763500D02*
X37987300D01*
X37922200Y16712700D02*
Y16787300D01*
X37947600Y16712700D02*
Y16787300D01*
X37973000Y16712700D02*
Y16787300D01*
X37987300Y16987300D02*
Y16912700D01*
X37912700*
Y16987300*
X37987300*
X37912700Y16912700D02*
X37987300D01*
X37912700Y16938100D02*
X37987300D01*
X37912700Y16963500D02*
X37987300D01*
X37922200Y16912700D02*
Y16987300D01*
X37947600Y16912700D02*
Y16987300D01*
X37973000Y16912700D02*
Y16987300D01*
X38225200Y21100200D02*
Y21237300D01*
X38374800*
Y21100200*
X38225200*
X38374800*
X38225200Y21125600D02*
X38374800D01*
X38225200Y21151000D02*
X38374800D01*
X38225200Y21176400D02*
X38374800D01*
X38225200Y21201800D02*
X38374800D01*
X38225200Y21227200D02*
X38374800D01*
X38227000Y21100200D02*
Y21237300D01*
X38252400Y21100200D02*
Y21237300D01*
X38277800Y21100200D02*
Y21237300D01*
X38303200Y21100200D02*
Y21237300D01*
X38328600Y21100200D02*
Y21237300D01*
X38354000Y21100200D02*
Y21237300D01*
X38225200Y21362700D02*
Y21512300D01*
X38374800*
Y21362700*
X38225200*
X38374800*
X38225200Y21388100D02*
X38374800D01*
X38225200Y21413500D02*
X38374800D01*
X38225200Y21438900D02*
X38374800D01*
X38225200Y21464300D02*
X38374800D01*
X38225200Y21489700D02*
X38374800D01*
X38227000Y21362700D02*
Y21512300D01*
X38252400Y21362700D02*
Y21512300D01*
X38277800Y21362700D02*
Y21512300D01*
X38303200Y21362700D02*
Y21512300D01*
X38328600Y21362700D02*
Y21512300D01*
X38354000Y21362700D02*
Y21512300D01*
X37987300Y21237300D02*
Y21162700D01*
X37912700*
Y21237300*
X37987300*
X37912700Y21162700D02*
X37987300D01*
X37912700Y21188100D02*
X37987300D01*
X37912700Y21213500D02*
X37987300D01*
X37922200Y21162700D02*
Y21237300D01*
X37947600Y21162700D02*
Y21237300D01*
X37973000Y21162700D02*
Y21237300D01*
X37987300Y21437300D02*
Y21362700D01*
X37912700*
Y21437300*
X37987300*
X37912700Y21362700D02*
X37987300D01*
X37912700Y21388100D02*
X37987300D01*
X37912700Y21413500D02*
X37987300D01*
X37922200Y21362700D02*
Y21437300D01*
X37947600Y21362700D02*
Y21437300D01*
X37973000Y21362700D02*
Y21437300D01*
X38037300Y15912700D02*
X37962700D01*
Y15987300*
X38037300*
Y15912700*
X37962700D02*
X38037300D01*
X37962700Y15938100D02*
X38037300D01*
X37962700Y15963500D02*
X38037300D01*
X37973000Y15912700D02*
Y15987300D01*
X37998400Y15912700D02*
Y15987300D01*
X38023800Y15912700D02*
Y15987300D01*
X38237300Y15912700D02*
X38162700D01*
Y15987300*
X38237300*
Y15912700*
X38162700D02*
X38237300D01*
X38162700Y15938100D02*
X38237300D01*
X38162700Y15963500D02*
X38237300D01*
X38176200Y15912700D02*
Y15987300D01*
X38201600Y15912700D02*
Y15987300D01*
X38227000Y15912700D02*
Y15987300D01*
X38037300Y20362700D02*
X37962700D01*
Y20437300*
X38037300*
Y20362700*
X37962700D02*
X38037300D01*
X37962700Y20388100D02*
X38037300D01*
X37962700Y20413500D02*
X38037300D01*
X37973000Y20362700D02*
Y20437300D01*
X37998400Y20362700D02*
Y20437300D01*
X38023800Y20362700D02*
Y20437300D01*
X38237300Y20362700D02*
X38162700D01*
Y20437300*
X38237300*
Y20362700*
X38162700D02*
X38237300D01*
X38162700Y20388100D02*
X38237300D01*
X38162700Y20413500D02*
X38237300D01*
X38176200Y20362700D02*
Y20437300D01*
X38201600Y20362700D02*
Y20437300D01*
X38227000Y20362700D02*
Y20437300D01*
X26137300Y15912700D02*
X26062700D01*
Y15987300*
X26137300*
Y15912700*
X26062700D02*
X26137300D01*
X26062700Y15938100D02*
X26137300D01*
X26062700Y15963500D02*
X26137300D01*
X26085800Y15912700D02*
Y15987300D01*
X26111200Y15912700D02*
Y15987300D01*
X26136600Y15912700D02*
Y15987300D01*
X26337300Y15912700D02*
X26262700D01*
Y15987300*
X26337300*
Y15912700*
X26262700D02*
X26337300D01*
X26262700Y15938100D02*
X26337300D01*
X26262700Y15963500D02*
X26337300D01*
X26263600Y15912700D02*
Y15987300D01*
X26289000Y15912700D02*
Y15987300D01*
X26314400Y15912700D02*
Y15987300D01*
X26137300Y20362700D02*
X26062700D01*
Y20437300*
X26137300*
Y20362700*
X26062700D02*
X26137300D01*
X26062700Y20388100D02*
X26137300D01*
X26062700Y20413500D02*
X26137300D01*
X26085800Y20362700D02*
Y20437300D01*
X26111200Y20362700D02*
Y20437300D01*
X26136600Y20362700D02*
Y20437300D01*
X26337300Y20362700D02*
X26262700D01*
Y20437300*
X26337300*
Y20362700*
X26262700D02*
X26337300D01*
X26262700Y20388100D02*
X26337300D01*
X26262700Y20413500D02*
X26337300D01*
X26263600Y20362700D02*
Y20437300D01*
X26289000Y20362700D02*
Y20437300D01*
X26314400Y20362700D02*
Y20437300D01*
X28025200Y16650200D02*
Y16787300D01*
X28174800*
Y16650200*
X28025200*
X28174800*
X28025200Y16675600D02*
X28174800D01*
X28025200Y16701000D02*
X28174800D01*
X28025200Y16726400D02*
X28174800D01*
X28025200Y16751800D02*
X28174800D01*
X28025200Y16777200D02*
X28174800D01*
X28041600Y16650200D02*
Y16787300D01*
X28067000Y16650200D02*
Y16787300D01*
X28092400Y16650200D02*
Y16787300D01*
X28117800Y16650200D02*
Y16787300D01*
X28143200Y16650200D02*
Y16787300D01*
X28168600Y16650200D02*
Y16787300D01*
X28025200Y16912700D02*
Y17062300D01*
X28174800*
Y16912700*
X28025200*
X28174800*
X28025200Y16938100D02*
X28174800D01*
X28025200Y16963500D02*
X28174800D01*
X28025200Y16988900D02*
X28174800D01*
X28025200Y17014300D02*
X28174800D01*
X28025200Y17039700D02*
X28174800D01*
X28041600Y16912700D02*
Y17062300D01*
X28067000Y16912700D02*
Y17062300D01*
X28092400Y16912700D02*
Y17062300D01*
X28117800Y16912700D02*
Y17062300D01*
X28143200Y16912700D02*
Y17062300D01*
X28168600Y16912700D02*
Y17062300D01*
X27787300Y16787300D02*
Y16712700D01*
X27712700*
Y16787300*
X27787300*
X27712700Y16712700D02*
X27787300D01*
X27712700Y16738100D02*
X27787300D01*
X27712700Y16763500D02*
X27787300D01*
X27736800Y16712700D02*
Y16787300D01*
X27762200Y16712700D02*
Y16787300D01*
X27787300Y16987300D02*
Y16912700D01*
X27712700*
Y16987300*
X27787300*
X27712700Y16912700D02*
X27787300D01*
X27712700Y16938100D02*
X27787300D01*
X27712700Y16963500D02*
X27787300D01*
X27736800Y16912700D02*
Y16987300D01*
X27762200Y16912700D02*
Y16987300D01*
X28025200Y21100200D02*
Y21237300D01*
X28174800*
Y21100200*
X28025200*
X28174800*
X28025200Y21125600D02*
X28174800D01*
X28025200Y21151000D02*
X28174800D01*
X28025200Y21176400D02*
X28174800D01*
X28025200Y21201800D02*
X28174800D01*
X28025200Y21227200D02*
X28174800D01*
X28041600Y21100200D02*
Y21237300D01*
X28067000Y21100200D02*
Y21237300D01*
X28092400Y21100200D02*
Y21237300D01*
X28117800Y21100200D02*
Y21237300D01*
X28143200Y21100200D02*
Y21237300D01*
X28168600Y21100200D02*
Y21237300D01*
X28025200Y21362700D02*
Y21512300D01*
X28174800*
Y21362700*
X28025200*
X28174800*
X28025200Y21388100D02*
X28174800D01*
X28025200Y21413500D02*
X28174800D01*
X28025200Y21438900D02*
X28174800D01*
X28025200Y21464300D02*
X28174800D01*
X28025200Y21489700D02*
X28174800D01*
X28041600Y21362700D02*
Y21512300D01*
X28067000Y21362700D02*
Y21512300D01*
X28092400Y21362700D02*
Y21512300D01*
X28117800Y21362700D02*
Y21512300D01*
X28143200Y21362700D02*
Y21512300D01*
X28168600Y21362700D02*
Y21512300D01*
X25400000Y12700000D02*
Y25400000D01*
X39660000*
Y12700000*
X25400000*
X0Y0D02*
M02*
