*
*
G04 PADS Layout (Build Number 2005.266.2) generated Gerber (RS-274-X) file*
G04 PC Version=2.1*
*
%IN "cecs_module_relay_1031."*%
*
%MOMM*%
*
%FSLAX35Y35*%
*
*
*
*
G04 PC Standard Apertures*
*
*
G04 Thermal Relief Aperture macro.*
%AMTER*
1,1,$1,0,0*
1,0,$1-$2,0,0*
21,0,$3,$4,0,0,45*
21,0,$3,$4,0,0,135*
%
*
*
G04 Annular Aperture macro.*
%AMANN*
1,1,$1,0,0*
1,0,$2,0,0*
%
*
*
G04 Odd Aperture macro.*
%AMODD*
1,1,$1,0,0*
1,0,$1-0.005,0,0*
%
*
*
G04 PC Custom Aperture Macros*
*
*
*
*
*
*
G04 PC Aperture Table*
*
%ADD012C,0.1524*%
%ADD056C,0.1*%
%ADD058C,0.254*%
%ADD059C,0.3048*%
%ADD109C,0.2*%
%ADD110C,0.508*%
%ADD116C,0.4*%
*
*
*
*
G04 PC Custom Flashes*
G04 Layer Name cecs_module_relay_1031. - flashes*
%LPD*%
*
*
G04 PC Circuitry*
G04 Layer Name cecs_module_relay_1031. - circuitry*
%LPD*%
*
G54D12*
G01X27260000Y17660000D02*
X26750000D01*
Y15370000*
X27260000*
Y17660000*
X26936500Y16522000D02*
X27063500D01*
X27000000Y16585500D02*
Y16458500D01*
X26964500Y17149500D02*
X26854500D01*
Y17199500*
X26804500Y17219500*
X26904500Y17249500*
X26804500Y17279500*
X26894500Y17299500*
X26804500Y17329500*
X26854500Y17349500*
Y17409500*
X26964500*
X26898800Y16128000D02*
X26972000D01*
X26898800D02*
X26924200Y16153400D01*
X26898800Y16128000D02*
X26924200Y16102600D01*
X26975000Y15608000D02*
X26924200D01*
X26848000Y16116000*
X34060000Y22110000D02*
X33550000D01*
Y19820000*
X34060000*
Y22110000*
X33736500Y20972000D02*
X33863500D01*
X33800000Y21035500D02*
Y20908500D01*
X33764500Y21599500D02*
X33654500D01*
Y21649500*
X33604500Y21669500*
X33704500Y21699500*
X33604500Y21729500*
X33694500Y21749500*
X33604500Y21779500*
X33654500Y21799500*
Y21859500*
X33764500*
X33698800Y20578000D02*
X33772000D01*
X33698800D02*
X33724200Y20603400D01*
X33698800Y20578000D02*
X33724200Y20552600D01*
X33775000Y20058000D02*
X33724200D01*
X33648000Y20566000*
X35760000Y17660000D02*
X35250000D01*
Y15370000*
X35760000*
Y17660000*
X35436500Y16522000D02*
X35563500D01*
X35500000Y16585500D02*
Y16458500D01*
X35464500Y17149500D02*
X35354500D01*
Y17199500*
X35304500Y17219500*
X35404500Y17249500*
X35304500Y17279500*
X35394500Y17299500*
X35304500Y17329500*
X35354500Y17349500*
Y17409500*
X35464500*
X35398800Y16128000D02*
X35472000D01*
X35398800D02*
X35424200Y16153400D01*
X35398800Y16128000D02*
X35424200Y16102600D01*
X35475000Y15608000D02*
X35424200D01*
X35348000Y16116000*
X35760000Y22110000D02*
X35250000D01*
Y19820000*
X35760000*
Y22110000*
X35436500Y20972000D02*
X35563500D01*
X35500000Y21035500D02*
Y20908500D01*
X35464500Y21599500D02*
X35354500D01*
Y21649500*
X35304500Y21669500*
X35404500Y21699500*
X35304500Y21729500*
X35394500Y21749500*
X35304500Y21779500*
X35354500Y21799500*
Y21859500*
X35464500*
X35398800Y20578000D02*
X35472000D01*
X35398800D02*
X35424200Y20603400D01*
X35398800Y20578000D02*
X35424200Y20552600D01*
X35475000Y20058000D02*
X35424200D01*
X35348000Y20566000*
X37460000Y17660000D02*
X36950000D01*
Y15370000*
X37460000*
Y17660000*
X37136500Y16522000D02*
X37263500D01*
X37200000Y16585500D02*
Y16458500D01*
X37164500Y17149500D02*
X37054500D01*
Y17199500*
X37004500Y17219500*
X37104500Y17249500*
X37004500Y17279500*
X37094500Y17299500*
X37004500Y17329500*
X37054500Y17349500*
Y17409500*
X37164500*
X37098800Y16128000D02*
X37172000D01*
X37098800D02*
X37124200Y16153400D01*
X37098800Y16128000D02*
X37124200Y16102600D01*
X37175000Y15608000D02*
X37124200D01*
X37048000Y16116000*
X37460000Y22110000D02*
X36950000D01*
Y19820000*
X37460000*
Y22110000*
X37136500Y20972000D02*
X37263500D01*
X37200000Y21035500D02*
Y20908500D01*
X37164500Y21599500D02*
X37054500D01*
Y21649500*
X37004500Y21669500*
X37104500Y21699500*
X37004500Y21729500*
X37094500Y21749500*
X37004500Y21779500*
X37054500Y21799500*
Y21859500*
X37164500*
X37098800Y20578000D02*
X37172000D01*
X37098800D02*
X37124200Y20603400D01*
X37098800Y20578000D02*
X37124200Y20552600D01*
X37175000Y20058000D02*
X37124200D01*
X37048000Y20566000*
X39160000Y17660000D02*
X38650000D01*
Y15370000*
X39160000*
Y17660000*
X38836500Y16522000D02*
X38963500D01*
X38900000Y16585500D02*
Y16458500D01*
X38864500Y17149500D02*
X38754500D01*
Y17199500*
X38704500Y17219500*
X38804500Y17249500*
X38704500Y17279500*
X38794500Y17299500*
X38704500Y17329500*
X38754500Y17349500*
Y17409500*
X38864500*
X38798800Y16128000D02*
X38872000D01*
X38798800D02*
X38824200Y16153400D01*
X38798800Y16128000D02*
X38824200Y16102600D01*
X38875000Y15608000D02*
X38824200D01*
X38748000Y16116000*
X39160000Y22110000D02*
X38650000D01*
Y19820000*
X39160000*
Y22110000*
X38836500Y20972000D02*
X38963500D01*
X38900000Y21035500D02*
Y20908500D01*
X38864500Y21599500D02*
X38754500D01*
Y21649500*
X38704500Y21669500*
X38804500Y21699500*
X38704500Y21729500*
X38794500Y21749500*
X38704500Y21779500*
X38754500Y21799500*
Y21859500*
X38864500*
X38798800Y20578000D02*
X38872000D01*
X38798800D02*
X38824200Y20603400D01*
X38798800Y20578000D02*
X38824200Y20552600D01*
X38875000Y20058000D02*
X38824200D01*
X38748000Y20566000*
X27260000Y22110000D02*
X26750000D01*
Y19820000*
X27260000*
Y22110000*
X26936500Y20972000D02*
X27063500D01*
X27000000Y21035500D02*
Y20908500D01*
X26964500Y21599500D02*
X26854500D01*
Y21649500*
X26804500Y21669500*
X26904500Y21699500*
X26804500Y21729500*
X26894500Y21749500*
X26804500Y21779500*
X26854500Y21799500*
Y21859500*
X26964500*
X26898800Y20578000D02*
X26972000D01*
X26898800D02*
X26924200Y20603400D01*
X26898800Y20578000D02*
X26924200Y20552600D01*
X26975000Y20058000D02*
X26924200D01*
X26848000Y20566000*
X28960000Y17660000D02*
X28450000D01*
Y15370000*
X28960000*
Y17660000*
X28636500Y16522000D02*
X28763500D01*
X28700000Y16585500D02*
Y16458500D01*
X28664500Y17149500D02*
X28554500D01*
Y17199500*
X28504500Y17219500*
X28604500Y17249500*
X28504500Y17279500*
X28594500Y17299500*
X28504500Y17329500*
X28554500Y17349500*
Y17409500*
X28664500*
X28598800Y16128000D02*
X28672000D01*
X28598800D02*
X28624200Y16153400D01*
X28598800Y16128000D02*
X28624200Y16102600D01*
X28675000Y15608000D02*
X28624200D01*
X28548000Y16116000*
X28960000Y22110000D02*
X28450000D01*
Y19820000*
X28960000*
Y22110000*
X28636500Y20972000D02*
X28763500D01*
X28700000Y21035500D02*
Y20908500D01*
X28664500Y21599500D02*
X28554500D01*
Y21649500*
X28504500Y21669500*
X28604500Y21699500*
X28504500Y21729500*
X28594500Y21749500*
X28504500Y21779500*
X28554500Y21799500*
Y21859500*
X28664500*
X28598800Y20578000D02*
X28672000D01*
X28598800D02*
X28624200Y20603400D01*
X28598800Y20578000D02*
X28624200Y20552600D01*
X28675000Y20058000D02*
X28624200D01*
X28548000Y20566000*
X30660000Y17660000D02*
X30150000D01*
Y15370000*
X30660000*
Y17660000*
X30336500Y16522000D02*
X30463500D01*
X30400000Y16585500D02*
Y16458500D01*
X30364500Y17149500D02*
X30254500D01*
Y17199500*
X30204500Y17219500*
X30304500Y17249500*
X30204500Y17279500*
X30294500Y17299500*
X30204500Y17329500*
X30254500Y17349500*
Y17409500*
X30364500*
X30298800Y16128000D02*
X30372000D01*
X30298800D02*
X30324200Y16153400D01*
X30298800Y16128000D02*
X30324200Y16102600D01*
X30375000Y15608000D02*
X30324200D01*
X30248000Y16116000*
X30660000Y22110000D02*
X30150000D01*
Y19820000*
X30660000*
Y22110000*
X30336500Y20972000D02*
X30463500D01*
X30400000Y21035500D02*
Y20908500D01*
X30364500Y21599500D02*
X30254500D01*
Y21649500*
X30204500Y21669500*
X30304500Y21699500*
X30204500Y21729500*
X30294500Y21749500*
X30204500Y21779500*
X30254500Y21799500*
Y21859500*
X30364500*
X30298800Y20578000D02*
X30372000D01*
X30298800D02*
X30324200Y20603400D01*
X30298800Y20578000D02*
X30324200Y20552600D01*
X30375000Y20058000D02*
X30324200D01*
X30248000Y20566000*
X32360000Y17660000D02*
X31850000D01*
Y15370000*
X32360000*
Y17660000*
X32036500Y16522000D02*
X32163500D01*
X32100000Y16585500D02*
Y16458500D01*
X32064500Y17149500D02*
X31954500D01*
Y17199500*
X31904500Y17219500*
X32004500Y17249500*
X31904500Y17279500*
X31994500Y17299500*
X31904500Y17329500*
X31954500Y17349500*
Y17409500*
X32064500*
X31998800Y16128000D02*
X32072000D01*
X31998800D02*
X32024200Y16153400D01*
X31998800Y16128000D02*
X32024200Y16102600D01*
X32075000Y15608000D02*
X32024200D01*
X31948000Y16116000*
X32360000Y22110000D02*
X31850000D01*
Y19820000*
X32360000*
Y22110000*
X32036500Y20972000D02*
X32163500D01*
X32100000Y21035500D02*
Y20908500D01*
X32064500Y21599500D02*
X31954500D01*
Y21649500*
X31904500Y21669500*
X32004500Y21699500*
X31904500Y21729500*
X31994500Y21749500*
X31904500Y21779500*
X31954500Y21799500*
Y21859500*
X32064500*
X31998800Y20578000D02*
X32072000D01*
X31998800D02*
X32024200Y20603400D01*
X31998800Y20578000D02*
X32024200Y20552600D01*
X32075000Y20058000D02*
X32024200D01*
X31948000Y20566000*
X34060000Y17660000D02*
X33550000D01*
Y15370000*
X34060000*
Y17660000*
X33736500Y16522000D02*
X33863500D01*
X33800000Y16585500D02*
Y16458500D01*
X33764500Y17149500D02*
X33654500D01*
Y17199500*
X33604500Y17219500*
X33704500Y17249500*
X33604500Y17279500*
X33694500Y17299500*
X33604500Y17329500*
X33654500Y17349500*
Y17409500*
X33764500*
X33698800Y16128000D02*
X33772000D01*
X33698800D02*
X33724200Y16153400D01*
X33698800Y16128000D02*
X33724200Y16102600D01*
X33775000Y15608000D02*
X33724200D01*
X33648000Y16116000*
G54D56*
X35465909Y24260000D02*
X35463182Y24267500D01*
X35457727Y24275000*
X35452273Y24278750*
X35441364*
X35435909Y24275000*
X35430455Y24267500*
X35430455D02*
X35427727Y24260000D01*
X35425000Y24248750*
Y24230000*
X35427727Y24218750*
X35430455Y24211250*
X35430455D02*
X35435909Y24203750D01*
X35441364Y24200000*
X35452273*
X35457727Y24203750*
X35463182Y24211250*
X35465909Y24218750*
X35490455Y24263750D02*
X35495909Y24267500D01*
X35504091Y24278750*
Y24200000*
X35665909Y24260000D02*
X35663182Y24267500D01*
X35657727Y24275000*
X35652273Y24278750*
X35641364*
X35635909Y24275000*
X35630455Y24267500*
X35630455D02*
X35627727Y24260000D01*
X35625000Y24248750*
Y24230000*
X35627727Y24218750*
X35630455Y24211250*
X35630455D02*
X35635909Y24203750D01*
X35641364Y24200000*
X35652273*
X35657727Y24203750*
X35663182Y24211250*
X35665909Y24218750*
X35693182Y24260000D02*
Y24263750D01*
X35695909Y24271250*
X35698636Y24275000*
X35704091Y24278750*
X35715000*
X35720455Y24275000*
X35720455D02*
X35723182Y24271250D01*
X35725909Y24263750*
Y24256250*
X35723182Y24248750*
X35717727Y24237500*
X35690455Y24200000*
X35690455D02*
X35728636D01*
X36490909Y24285000D02*
X36488182Y24292500D01*
X36482727Y24300000*
X36477273Y24303750*
X36466364*
X36460909Y24300000*
X36455455Y24292500*
X36455455D02*
X36452727Y24285000D01*
X36450000Y24273750*
Y24255000*
X36452727Y24243750*
X36455455Y24236250*
X36455455D02*
X36460909Y24228750D01*
X36466364Y24225000*
X36477273*
X36482727Y24228750*
X36488182Y24236250*
X36490909Y24243750*
X36520909Y24303750D02*
X36550909D01*
X36534545Y24273750*
X36542727*
X36548182Y24270000*
X36550909Y24266250*
X36553636Y24255000*
Y24247500*
X36550909Y24236250*
X36545455Y24228750*
X36545455D02*
X36537273Y24225000D01*
X36529091*
X36520909Y24228750*
X36518182Y24232500*
X36515455Y24240000*
X36690909Y24285000D02*
X36688182Y24292500D01*
X36682727Y24300000*
X36677273Y24303750*
X36666364*
X36660909Y24300000*
X36655455Y24292500*
X36655455D02*
X36652727Y24285000D01*
X36650000Y24273750*
Y24255000*
X36652727Y24243750*
X36655455Y24236250*
X36655455D02*
X36660909Y24228750D01*
X36666364Y24225000*
X36677273*
X36682727Y24228750*
X36688182Y24236250*
X36690909Y24243750*
X36742727Y24303750D02*
X36715455Y24251250D01*
X36715455D02*
X36756364D01*
X36742727Y24303750D02*
Y24225000D01*
X36890909Y24285000D02*
X36888182Y24292500D01*
X36882727Y24300000*
X36877273Y24303750*
X36866364*
X36860909Y24300000*
X36855455Y24292500*
X36855455D02*
X36852727Y24285000D01*
X36850000Y24273750*
Y24255000*
X36852727Y24243750*
X36855455Y24236250*
X36855455D02*
X36860909Y24228750D01*
X36866364Y24225000*
X36877273*
X36882727Y24228750*
X36888182Y24236250*
X36890909Y24243750*
X36950909Y24303750D02*
X36923636D01*
X36920909Y24270000*
X36923636Y24273750*
X36931818Y24277500*
X36940000*
X36948182Y24273750*
X36953636Y24266250*
X36956364Y24255000*
X36953636Y24247500*
X36950909Y24236250*
X36945455Y24228750*
X36945455D02*
X36937273Y24225000D01*
X36929091*
X36920909Y24228750*
X36918182Y24232500*
X36915455Y24240000*
X26150000Y17828750D02*
Y17750000D01*
Y17828750D02*
X26169091D01*
X26177273Y17825000*
X26182727Y17817500*
X26185455Y17810000*
X26185455D02*
X26188182Y17798750D01*
Y17780000*
X26185455Y17768750*
X26185455D02*
X26182727Y17761250D01*
X26177273Y17753750*
X26169091Y17750000*
X26150000*
X26212727Y17813750D02*
X26218182Y17817500D01*
X26226364Y17828750*
Y17750000*
X32950000Y22278750D02*
Y22200000D01*
Y22278750D02*
X32969091D01*
X32977273Y22275000*
X32982727Y22267500*
X32985455Y22260000*
X32985455D02*
X32988182Y22248750D01*
Y22230000*
X32985455Y22218750*
X32985455D02*
X32982727Y22211250D01*
X32977273Y22203750*
X32969091Y22200000*
X32950000*
X33012727Y22263750D02*
X33018182Y22267500D01*
X33026364Y22278750*
Y22200000*
X33067273Y22278750D02*
X33059091Y22275000D01*
X33053636Y22263750*
X33050909Y22245000*
Y22233750*
X33053636Y22215000*
X33059091Y22203750*
X33067273Y22200000*
X33072727*
X33080909Y22203750*
X33086364Y22215000*
X33089091Y22233750*
Y22245000*
X33086364Y22263750*
X33080909Y22275000*
X33072727Y22278750*
X33067273*
X34650000Y17828750D02*
Y17750000D01*
Y17828750D02*
X34669091D01*
X34677273Y17825000*
X34682727Y17817500*
X34685455Y17810000*
X34685455D02*
X34688182Y17798750D01*
Y17780000*
X34685455Y17768750*
X34685455D02*
X34682727Y17761250D01*
X34677273Y17753750*
X34669091Y17750000*
X34650000*
X34712727Y17813750D02*
X34718182Y17817500D01*
X34726364Y17828750*
Y17750000*
X34750909Y17813750D02*
X34756364Y17817500D01*
X34764545Y17828750*
Y17750000*
X34650000Y22278750D02*
Y22200000D01*
Y22278750D02*
X34669091D01*
X34677273Y22275000*
X34682727Y22267500*
X34685455Y22260000*
X34685455D02*
X34688182Y22248750D01*
Y22230000*
X34685455Y22218750*
X34685455D02*
X34682727Y22211250D01*
X34677273Y22203750*
X34669091Y22200000*
X34650000*
X34712727Y22263750D02*
X34718182Y22267500D01*
X34726364Y22278750*
Y22200000*
X34753636Y22260000D02*
Y22263750D01*
X34756364Y22271250*
X34759091Y22275000*
X34764545Y22278750*
X34775455*
X34775455D02*
X34780909Y22275000D01*
X34783636Y22271250*
X34786364Y22263750*
Y22256250*
X34783636Y22248750*
X34778182Y22237500*
X34750909Y22200000*
X34789091*
X36350000Y17828750D02*
Y17750000D01*
Y17828750D02*
X36369091D01*
X36377273Y17825000*
X36382727Y17817500*
X36385455Y17810000*
X36385455D02*
X36388182Y17798750D01*
Y17780000*
X36385455Y17768750*
X36385455D02*
X36382727Y17761250D01*
X36377273Y17753750*
X36369091Y17750000*
X36350000*
X36412727Y17813750D02*
X36418182Y17817500D01*
X36426364Y17828750*
Y17750000*
X36456364Y17828750D02*
X36486364D01*
X36470000Y17798750*
X36478182*
X36483636Y17795000*
X36486364Y17791250*
X36489091Y17780000*
Y17772500*
X36486364Y17761250*
X36480909Y17753750*
X36472727Y17750000*
X36464545*
X36456364Y17753750*
X36453636Y17757500*
X36450909Y17765000*
X36350000Y22278750D02*
Y22200000D01*
Y22278750D02*
X36369091D01*
X36377273Y22275000*
X36382727Y22267500*
X36385455Y22260000*
X36385455D02*
X36388182Y22248750D01*
Y22230000*
X36385455Y22218750*
X36385455D02*
X36382727Y22211250D01*
X36377273Y22203750*
X36369091Y22200000*
X36350000*
X36412727Y22263750D02*
X36418182Y22267500D01*
X36426364Y22278750*
Y22200000*
X36478182Y22278750D02*
X36450909Y22226250D01*
X36491818*
X36478182Y22278750D02*
Y22200000D01*
X38050000Y17828750D02*
Y17750000D01*
Y17828750D02*
X38069091D01*
X38077273Y17825000*
X38082727Y17817500*
X38085455Y17810000*
X38085455D02*
X38088182Y17798750D01*
Y17780000*
X38085455Y17768750*
X38085455D02*
X38082727Y17761250D01*
X38077273Y17753750*
X38069091Y17750000*
X38050000*
X38112727Y17813750D02*
X38118182Y17817500D01*
X38126364Y17828750*
Y17750000*
X38186364Y17828750D02*
X38159091D01*
X38156364Y17795000*
X38159091Y17798750*
X38167273Y17802500*
X38175455*
X38175455D02*
X38183636Y17798750D01*
X38189091Y17791250*
X38191818Y17780000*
X38189091Y17772500*
X38186364Y17761250*
X38180909Y17753750*
X38172727Y17750000*
X38164545*
X38156364Y17753750*
X38153636Y17757500*
X38150909Y17765000*
X38050000Y22278750D02*
Y22200000D01*
Y22278750D02*
X38069091D01*
X38077273Y22275000*
X38082727Y22267500*
X38085455Y22260000*
X38085455D02*
X38088182Y22248750D01*
Y22230000*
X38085455Y22218750*
X38085455D02*
X38082727Y22211250D01*
X38077273Y22203750*
X38069091Y22200000*
X38050000*
X38112727Y22263750D02*
X38118182Y22267500D01*
X38126364Y22278750*
Y22200000*
X38183636Y22267500D02*
X38180909Y22275000D01*
X38172727Y22278750*
X38167273*
X38159091Y22275000*
X38153636Y22263750*
X38150909Y22245000*
Y22226250*
X38153636Y22211250*
X38159091Y22203750*
X38167273Y22200000*
X38170000*
X38178182Y22203750*
X38183636Y22211250*
X38186364Y22222500*
Y22226250*
X38183636Y22237500*
X38178182Y22245000*
X38170000Y22248750*
X38167273*
X38159091Y22245000*
X38153636Y22237500*
X38150909Y22226250*
X26150000Y22278750D02*
Y22200000D01*
Y22278750D02*
X26169091D01*
X26177273Y22275000*
X26182727Y22267500*
X26185455Y22260000*
X26185455D02*
X26188182Y22248750D01*
Y22230000*
X26185455Y22218750*
X26185455D02*
X26182727Y22211250D01*
X26177273Y22203750*
X26169091Y22200000*
X26150000*
X26215455Y22260000D02*
Y22263750D01*
X26215455D02*
X26218182Y22271250D01*
X26220909Y22275000*
X26226364Y22278750*
X26237273*
X26242727Y22275000*
X26245455Y22271250*
X26245455D02*
X26248182Y22263750D01*
Y22256250*
X26245455Y22248750*
X26245455D02*
X26240000Y22237500D01*
X26212727Y22200000*
X26250909*
X27850000Y17828750D02*
Y17750000D01*
Y17828750D02*
X27869091D01*
X27877273Y17825000*
X27882727Y17817500*
X27885455Y17810000*
X27885455D02*
X27888182Y17798750D01*
Y17780000*
X27885455Y17768750*
X27885455D02*
X27882727Y17761250D01*
X27877273Y17753750*
X27869091Y17750000*
X27850000*
X27918182Y17828750D02*
X27948182D01*
X27931818Y17798750*
X27940000*
X27945455Y17795000*
X27945455D02*
X27948182Y17791250D01*
X27950909Y17780000*
Y17772500*
X27948182Y17761250*
X27942727Y17753750*
X27934545Y17750000*
X27926364*
X27918182Y17753750*
X27915455Y17757500*
X27915455D02*
X27912727Y17765000D01*
X27850000Y22278750D02*
Y22200000D01*
Y22278750D02*
X27869091D01*
X27877273Y22275000*
X27882727Y22267500*
X27885455Y22260000*
X27885455D02*
X27888182Y22248750D01*
Y22230000*
X27885455Y22218750*
X27885455D02*
X27882727Y22211250D01*
X27877273Y22203750*
X27869091Y22200000*
X27850000*
X27940000Y22278750D02*
X27912727Y22226250D01*
X27953636*
X27940000Y22278750D02*
Y22200000D01*
X29550000Y17828750D02*
Y17750000D01*
Y17828750D02*
X29569091D01*
X29577273Y17825000*
X29582727Y17817500*
X29585455Y17810000*
X29585455D02*
X29588182Y17798750D01*
Y17780000*
X29585455Y17768750*
X29585455D02*
X29582727Y17761250D01*
X29577273Y17753750*
X29569091Y17750000*
X29550000*
X29648182Y17828750D02*
X29620909D01*
X29618182Y17795000*
X29620909Y17798750*
X29629091Y17802500*
X29637273*
X29645455Y17798750*
X29645455D02*
X29650909Y17791250D01*
X29653636Y17780000*
X29650909Y17772500*
X29648182Y17761250*
X29642727Y17753750*
X29634545Y17750000*
X29626364*
X29618182Y17753750*
X29615455Y17757500*
X29615455D02*
X29612727Y17765000D01*
X29550000Y22278750D02*
Y22200000D01*
Y22278750D02*
X29569091D01*
X29577273Y22275000*
X29582727Y22267500*
X29585455Y22260000*
X29585455D02*
X29588182Y22248750D01*
Y22230000*
X29585455Y22218750*
X29585455D02*
X29582727Y22211250D01*
X29577273Y22203750*
X29569091Y22200000*
X29550000*
X29645455Y22267500D02*
X29642727Y22275000D01*
X29634545Y22278750*
X29629091*
X29620909Y22275000*
X29615455Y22263750*
X29615455D02*
X29612727Y22245000D01*
Y22226250*
X29615455Y22211250*
X29615455D02*
X29620909Y22203750D01*
X29629091Y22200000*
X29631818*
X29640000Y22203750*
X29645455Y22211250*
X29645455D02*
X29648182Y22222500D01*
Y22226250*
X29645455Y22237500*
X29645455D02*
X29640000Y22245000D01*
X29631818Y22248750*
X29629091*
X29620909Y22245000*
X29615455Y22237500*
X29615455D02*
X29612727Y22226250D01*
X31250000Y17828750D02*
Y17750000D01*
Y17828750D02*
X31269091D01*
X31277273Y17825000*
X31282727Y17817500*
X31285455Y17810000*
X31285455D02*
X31288182Y17798750D01*
Y17780000*
X31285455Y17768750*
X31285455D02*
X31282727Y17761250D01*
X31277273Y17753750*
X31269091Y17750000*
X31250000*
X31350909Y17828750D02*
X31323636Y17750000D01*
X31312727Y17828750D02*
X31350909D01*
X31250000Y22278750D02*
Y22200000D01*
Y22278750D02*
X31269091D01*
X31277273Y22275000*
X31282727Y22267500*
X31285455Y22260000*
X31285455D02*
X31288182Y22248750D01*
Y22230000*
X31285455Y22218750*
X31285455D02*
X31282727Y22211250D01*
X31277273Y22203750*
X31269091Y22200000*
X31250000*
X31326364Y22278750D02*
X31318182Y22275000D01*
X31315455Y22267500*
X31315455D02*
Y22260000D01*
X31315455D02*
X31318182Y22252500D01*
X31323636Y22248750*
X31334545Y22245000*
X31342727Y22241250*
X31348182Y22233750*
X31350909Y22226250*
Y22215000*
X31348182Y22207500*
X31345455Y22203750*
X31345455D02*
X31337273Y22200000D01*
X31326364*
X31318182Y22203750*
X31315455Y22207500*
X31315455D02*
X31312727Y22215000D01*
Y22226250*
X31315455Y22233750*
X31315455D02*
X31320909Y22241250D01*
X31329091Y22245000*
X31340000Y22248750*
X31345455Y22252500*
X31345455D02*
X31348182Y22260000D01*
Y22267500*
X31345455Y22275000*
X31345455D02*
X31337273Y22278750D01*
X31326364*
X32950000Y17828750D02*
Y17750000D01*
Y17828750D02*
X32969091D01*
X32977273Y17825000*
X32982727Y17817500*
X32985455Y17810000*
X32985455D02*
X32988182Y17798750D01*
Y17780000*
X32985455Y17768750*
X32985455D02*
X32982727Y17761250D01*
X32977273Y17753750*
X32969091Y17750000*
X32950000*
X33048182Y17802500D02*
X33045455Y17791250D01*
X33045455D02*
X33040000Y17783750D01*
X33031818Y17780000*
X33029091*
X33020909Y17783750*
X33015455Y17791250*
X33015455D02*
X33012727Y17802500D01*
Y17806250*
X33015455Y17817500*
X33015455D02*
X33020909Y17825000D01*
X33029091Y17828750*
X33031818*
X33040000Y17825000*
X33045455Y17817500*
X33045455D02*
X33048182Y17802500D01*
Y17783750*
X33045455Y17765000*
X33045455D02*
X33040000Y17753750D01*
X33031818Y17750000*
X33026364*
X33018182Y17753750*
X33015455Y17761250*
X36000000Y24378750D02*
Y24300000D01*
Y24378750D02*
X36035455D01*
X36000000Y24341250D02*
X36021818D01*
X36000000Y24300000D02*
X36035455D01*
X36100909Y24360000D02*
X36098182Y24367500D01*
X36092727Y24375000*
X36087273Y24378750*
X36076364*
X36070909Y24375000*
X36065455Y24367500*
X36065455D02*
X36062727Y24360000D01*
X36060000Y24348750*
Y24330000*
X36062727Y24318750*
X36065455Y24311250*
X36065455D02*
X36070909Y24303750D01*
X36076364Y24300000*
X36087273*
X36092727Y24303750*
X36098182Y24311250*
X36100909Y24318750*
X36125455Y24363750D02*
X36130909Y24367500D01*
X36139091Y24378750*
Y24300000*
X35000000Y24378750D02*
Y24300000D01*
Y24378750D02*
X35035455D01*
X35000000Y24341250D02*
X35021818D01*
X35000000Y24300000D02*
X35035455D01*
X35100909Y24360000D02*
X35098182Y24367500D01*
X35092727Y24375000*
X35087273Y24378750*
X35076364*
X35070909Y24375000*
X35065455Y24367500*
X35065455D02*
X35062727Y24360000D01*
X35060000Y24348750*
Y24330000*
X35062727Y24318750*
X35065455Y24311250*
X35065455D02*
X35070909Y24303750D01*
X35076364Y24300000*
X35087273*
X35092727Y24303750*
X35098182Y24311250*
X35100909Y24318750*
X35128182Y24360000D02*
Y24363750D01*
X35130909Y24371250*
X35133636Y24375000*
X35139091Y24378750*
X35150000*
X35155455Y24375000*
X35155455D02*
X35158182Y24371250D01*
X35160909Y24363750*
Y24356250*
X35158182Y24348750*
X35152727Y24337500*
X35125455Y24300000*
X35125455D02*
X35163636D01*
X31252273Y19828750D02*
Y19768750D01*
X31249545Y19757500*
X31249545D02*
X31246818Y19753750D01*
X31241364Y19750000*
X31235909*
X31230455Y19753750*
X31227727Y19757500*
X31225000Y19768750*
Y19776250*
X31276818Y19813750D02*
X31282273Y19817500D01*
X31290455Y19828750*
Y19750000*
X31331364Y19828750D02*
X31323182Y19825000D01*
X31317727Y19813750*
X31315000Y19795000*
Y19783750*
X31317727Y19765000*
X31323182Y19753750*
X31331364Y19750000*
X31336818*
X31345000Y19753750*
X31350455Y19765000*
X31353182Y19783750*
Y19795000*
X31350455Y19813750*
X31345000Y19825000*
X31336818Y19828750*
X31331364*
X32977273Y15378750D02*
Y15318750D01*
X32974545Y15307500*
X32974545D02*
X32971818Y15303750D01*
X32966364Y15300000*
X32960909*
X32955455Y15303750*
X32952727Y15307500*
X32950000Y15318750*
Y15326250*
X33001818Y15363750D02*
X33007273Y15367500D01*
X33015455Y15378750*
Y15300000*
X33040000Y15363750D02*
X33045455Y15367500D01*
X33053636Y15378750*
Y15300000*
X32952273Y19828750D02*
Y19768750D01*
X32949545Y19757500*
X32949545D02*
X32946818Y19753750D01*
X32941364Y19750000*
X32935909*
X32930455Y19753750*
X32927727Y19757500*
X32925000Y19768750*
Y19776250*
X32976818Y19813750D02*
X32982273Y19817500D01*
X32990455Y19828750*
Y19750000*
X33017727Y19810000D02*
Y19813750D01*
X33020455Y19821250*
X33023182Y19825000*
X33028636Y19828750*
X33039545*
X33039545D02*
X33045000Y19825000D01*
X33047727Y19821250*
X33050455Y19813750*
Y19806250*
X33047727Y19798750*
X33042273Y19787500*
X33015000Y19750000*
X33053182*
X34677273Y15378750D02*
Y15318750D01*
X34674545Y15307500*
X34674545D02*
X34671818Y15303750D01*
X34666364Y15300000*
X34660909*
X34655455Y15303750*
X34652727Y15307500*
X34650000Y15318750*
Y15326250*
X34701818Y15363750D02*
X34707273Y15367500D01*
X34715455Y15378750*
Y15300000*
X34745455Y15378750D02*
X34775455D01*
X34759091Y15348750*
X34767273*
X34772727Y15345000*
X34775455Y15341250*
X34778182Y15330000*
Y15322500*
X34775455Y15311250*
X34770000Y15303750*
X34761818Y15300000*
X34753636*
X34745455Y15303750*
X34742727Y15307500*
X34740000Y15315000*
X34652273Y19828750D02*
Y19768750D01*
X34649545Y19757500*
X34649545D02*
X34646818Y19753750D01*
X34641364Y19750000*
X34635909*
X34630455Y19753750*
X34627727Y19757500*
X34625000Y19768750*
Y19776250*
X34676818Y19813750D02*
X34682273Y19817500D01*
X34690455Y19828750*
Y19750000*
X34742273Y19828750D02*
X34715000Y19776250D01*
X34755909*
X34742273Y19828750D02*
Y19750000D01*
X36377273Y15378750D02*
Y15318750D01*
X36374545Y15307500*
X36374545D02*
X36371818Y15303750D01*
X36366364Y15300000*
X36360909*
X36355455Y15303750*
X36352727Y15307500*
X36350000Y15318750*
Y15326250*
X36401818Y15363750D02*
X36407273Y15367500D01*
X36415455Y15378750*
Y15300000*
X36475455Y15378750D02*
X36448182D01*
X36445455Y15345000*
X36448182Y15348750*
X36456364Y15352500*
X36464545*
X36464545D02*
X36472727Y15348750D01*
X36478182Y15341250*
X36480909Y15330000*
X36478182Y15322500*
X36475455Y15311250*
X36470000Y15303750*
X36461818Y15300000*
X36453636*
X36445455Y15303750*
X36442727Y15307500*
X36440000Y15315000*
X36352273Y19828750D02*
Y19768750D01*
X36349545Y19757500*
X36349545D02*
X36346818Y19753750D01*
X36341364Y19750000*
X36335909*
X36330455Y19753750*
X36327727Y19757500*
X36325000Y19768750*
Y19776250*
X36376818Y19813750D02*
X36382273Y19817500D01*
X36390455Y19828750*
Y19750000*
X36447727Y19817500D02*
X36445000Y19825000D01*
X36436818Y19828750*
X36431364*
X36423182Y19825000*
X36417727Y19813750*
X36415000Y19795000*
Y19776250*
X36417727Y19761250*
X36423182Y19753750*
X36431364Y19750000*
X36434091*
X36442273Y19753750*
X36447727Y19761250*
X36450455Y19772500*
Y19776250*
X36447727Y19787500*
X36442273Y19795000*
X36434091Y19798750*
X36431364*
X36423182Y19795000*
X36417727Y19787500*
X36415000Y19776250*
X38077273Y15378750D02*
Y15318750D01*
X38074545Y15307500*
X38074545D02*
X38071818Y15303750D01*
X38066364Y15300000*
X38060909*
X38055455Y15303750*
X38052727Y15307500*
X38050000Y15318750*
Y15326250*
X38101818Y15363750D02*
X38107273Y15367500D01*
X38115455Y15378750*
Y15300000*
X38178182Y15378750D02*
X38150909Y15300000D01*
X38140000Y15378750D02*
X38178182D01*
X38052273Y19828750D02*
Y19768750D01*
X38049545Y19757500*
X38049545D02*
X38046818Y19753750D01*
X38041364Y19750000*
X38035909*
X38030455Y19753750*
X38027727Y19757500*
X38025000Y19768750*
Y19776250*
X38076818Y19813750D02*
X38082273Y19817500D01*
X38090455Y19828750*
Y19750000*
X38128636Y19828750D02*
X38120455Y19825000D01*
X38117727Y19817500*
Y19810000*
X38120455Y19802500*
X38125909Y19798750*
X38136818Y19795000*
X38145000Y19791250*
X38150455Y19783750*
X38153182Y19776250*
Y19765000*
X38150455Y19757500*
X38147727Y19753750*
X38139545Y19750000*
X38139545D02*
X38128636D01*
X38120455Y19753750*
X38117727Y19757500*
X38115000Y19765000*
Y19776250*
X38117727Y19783750*
X38123182Y19791250*
X38131364Y19795000*
X38142273Y19798750*
X38147727Y19802500*
X38150455Y19810000*
Y19817500*
X38147727Y19825000*
X38139545Y19828750*
X38139545D02*
X38128636D01*
X26177273Y15378750D02*
Y15318750D01*
X26174545Y15307500*
X26174545D02*
X26171818Y15303750D01*
X26166364Y15300000*
X26160909*
X26155455Y15303750*
X26152727Y15307500*
X26150000Y15318750*
Y15326250*
X26207273Y15378750D02*
X26237273D01*
X26220909Y15348750*
X26229091*
X26234545Y15345000*
X26234545D02*
X26237273Y15341250D01*
X26240000Y15330000*
Y15322500*
X26237273Y15311250*
X26231818Y15303750*
X26223636Y15300000*
X26215455*
X26207273Y15303750*
X26204545Y15307500*
X26204545D02*
X26201818Y15315000D01*
X26152273Y19828750D02*
Y19768750D01*
X26149545Y19757500*
X26149545D02*
X26146818Y19753750D01*
X26141364Y19750000*
X26135909*
X26130455Y19753750*
X26127727Y19757500*
X26125000Y19768750*
Y19776250*
X26204091Y19828750D02*
X26176818Y19776250D01*
X26217727*
X26204091Y19828750D02*
Y19750000D01*
X27877273Y15378750D02*
Y15318750D01*
X27874545Y15307500*
X27874545D02*
X27871818Y15303750D01*
X27866364Y15300000*
X27860909*
X27855455Y15303750*
X27852727Y15307500*
X27850000Y15318750*
Y15326250*
X27937273Y15378750D02*
X27910000D01*
X27907273Y15345000*
X27910000Y15348750*
X27918182Y15352500*
X27926364*
X27934545Y15348750*
X27934545D02*
X27940000Y15341250D01*
X27942727Y15330000*
X27940000Y15322500*
X27937273Y15311250*
X27931818Y15303750*
X27923636Y15300000*
X27915455*
X27907273Y15303750*
X27904545Y15307500*
X27904545D02*
X27901818Y15315000D01*
X27852273Y19828750D02*
Y19768750D01*
X27849545Y19757500*
X27849545D02*
X27846818Y19753750D01*
X27841364Y19750000*
X27835909*
X27830455Y19753750*
X27827727Y19757500*
X27825000Y19768750*
Y19776250*
X27909545Y19817500D02*
X27906818Y19825000D01*
X27898636Y19828750*
X27893182*
X27885000Y19825000*
X27879545Y19813750*
X27879545D02*
X27876818Y19795000D01*
Y19776250*
X27879545Y19761250*
X27879545D02*
X27885000Y19753750D01*
X27893182Y19750000*
X27895909*
X27904091Y19753750*
X27909545Y19761250*
X27909545D02*
X27912273Y19772500D01*
Y19776250*
X27909545Y19787500*
X27909545D02*
X27904091Y19795000D01*
X27895909Y19798750*
X27893182*
X27885000Y19795000*
X27879545Y19787500*
X27879545D02*
X27876818Y19776250D01*
X29577273Y15378750D02*
Y15318750D01*
X29574545Y15307500*
X29574545D02*
X29571818Y15303750D01*
X29566364Y15300000*
X29560909*
X29555455Y15303750*
X29552727Y15307500*
X29550000Y15318750*
Y15326250*
X29640000Y15378750D02*
X29612727Y15300000D01*
X29601818Y15378750D02*
X29640000D01*
X29552273Y19828750D02*
Y19768750D01*
X29549545Y19757500*
X29549545D02*
X29546818Y19753750D01*
X29541364Y19750000*
X29535909*
X29530455Y19753750*
X29527727Y19757500*
X29525000Y19768750*
Y19776250*
X29590455Y19828750D02*
X29582273Y19825000D01*
X29579545Y19817500*
X29579545D02*
Y19810000D01*
X29579545D02*
X29582273Y19802500D01*
X29587727Y19798750*
X29598636Y19795000*
X29606818Y19791250*
X29612273Y19783750*
X29615000Y19776250*
Y19765000*
X29612273Y19757500*
X29609545Y19753750*
X29609545D02*
X29601364Y19750000D01*
X29590455*
X29582273Y19753750*
X29579545Y19757500*
X29579545D02*
X29576818Y19765000D01*
Y19776250*
X29579545Y19783750*
X29579545D02*
X29585000Y19791250D01*
X29593182Y19795000*
X29604091Y19798750*
X29609545Y19802500*
X29609545D02*
X29612273Y19810000D01*
Y19817500*
X29609545Y19825000*
X29609545D02*
X29601364Y19828750D01*
X29590455*
X31277273Y15378750D02*
Y15318750D01*
X31274545Y15307500*
X31274545D02*
X31271818Y15303750D01*
X31266364Y15300000*
X31260909*
X31255455Y15303750*
X31252727Y15307500*
X31250000Y15318750*
Y15326250*
X31337273Y15352500D02*
X31334545Y15341250D01*
X31334545D02*
X31329091Y15333750D01*
X31320909Y15330000*
X31318182*
X31310000Y15333750*
X31304545Y15341250*
X31304545D02*
X31301818Y15352500D01*
Y15356250*
X31304545Y15367500*
X31304545D02*
X31310000Y15375000D01*
X31318182Y15378750*
X31320909*
X31329091Y15375000*
X31334545Y15367500*
X31334545D02*
X31337273Y15352500D01*
Y15333750*
X31334545Y15315000*
X31334545D02*
X31329091Y15303750D01*
X31320909Y15300000*
X31315455*
X31307273Y15303750*
X31304545Y15311250*
X25766364Y16328750D02*
X25760909Y16325000D01*
X25755455Y16317500*
X25755455D02*
X25752727Y16310000D01*
X25750000Y16298750*
Y16280000*
X25752727Y16268750*
X25755455Y16261250*
X25755455D02*
X25760909Y16253750D01*
X25766364Y16250000*
X25777273*
X25782727Y16253750*
X25788182Y16261250*
X25790909Y16268750*
X25793636Y16280000*
Y16298750*
X25790909Y16310000*
X25788182Y16317500*
X25782727Y16325000*
X25777273Y16328750*
X25766364*
X25774545Y16265000D02*
X25790909Y16242500D01*
X25818182Y16313750D02*
X25823636Y16317500D01*
X25831818Y16328750*
Y16250000*
X32616364Y20778750D02*
X32610909Y20775000D01*
X32605455Y20767500*
X32605455D02*
X32602727Y20760000D01*
X32600000Y20748750*
Y20730000*
X32602727Y20718750*
X32605455Y20711250*
X32605455D02*
X32610909Y20703750D01*
X32616364Y20700000*
X32627273*
X32632727Y20703750*
X32638182Y20711250*
X32640909Y20718750*
X32643636Y20730000*
Y20748750*
X32640909Y20760000*
X32638182Y20767500*
X32632727Y20775000*
X32627273Y20778750*
X32616364*
X32624545Y20715000D02*
X32640909Y20692500D01*
X32668182Y20763750D02*
X32673636Y20767500D01*
X32681818Y20778750*
Y20700000*
X32722727Y20778750D02*
X32714545Y20775000D01*
X32709091Y20763750*
X32706364Y20745000*
Y20733750*
X32709091Y20715000*
X32714545Y20703750*
X32722727Y20700000*
X32728182*
X32736364Y20703750*
X32741818Y20715000*
X32744545Y20733750*
Y20745000*
X32741818Y20763750*
X32736364Y20775000*
X32728182Y20778750*
X32722727*
X34266364Y16328750D02*
X34260909Y16325000D01*
X34255455Y16317500*
X34255455D02*
X34252727Y16310000D01*
X34250000Y16298750*
Y16280000*
X34252727Y16268750*
X34255455Y16261250*
X34255455D02*
X34260909Y16253750D01*
X34266364Y16250000*
X34277273*
X34282727Y16253750*
X34288182Y16261250*
X34290909Y16268750*
X34293636Y16280000*
Y16298750*
X34290909Y16310000*
X34288182Y16317500*
X34282727Y16325000*
X34277273Y16328750*
X34266364*
X34274545Y16265000D02*
X34290909Y16242500D01*
X34318182Y16313750D02*
X34323636Y16317500D01*
X34331818Y16328750*
Y16250000*
X34356364Y16313750D02*
X34361818Y16317500D01*
X34370000Y16328750*
Y16250000*
X34316364Y20778750D02*
X34310909Y20775000D01*
X34305455Y20767500*
X34305455D02*
X34302727Y20760000D01*
X34300000Y20748750*
Y20730000*
X34302727Y20718750*
X34305455Y20711250*
X34305455D02*
X34310909Y20703750D01*
X34316364Y20700000*
X34327273*
X34332727Y20703750*
X34338182Y20711250*
X34340909Y20718750*
X34343636Y20730000*
Y20748750*
X34340909Y20760000*
X34338182Y20767500*
X34332727Y20775000*
X34327273Y20778750*
X34316364*
X34324545Y20715000D02*
X34340909Y20692500D01*
X34368182Y20763750D02*
X34373636Y20767500D01*
X34381818Y20778750*
Y20700000*
X34409091Y20760000D02*
Y20763750D01*
X34411818Y20771250*
X34414545Y20775000*
X34420000Y20778750*
X34430909*
X34436364Y20775000*
X34439091Y20771250*
X34441818Y20763750*
Y20756250*
X34439091Y20748750*
X34433636Y20737500*
X34406364Y20700000*
X34444545*
X35966364Y16328750D02*
X35960909Y16325000D01*
X35955455Y16317500*
X35955455D02*
X35952727Y16310000D01*
X35950000Y16298750*
Y16280000*
X35952727Y16268750*
X35955455Y16261250*
X35955455D02*
X35960909Y16253750D01*
X35966364Y16250000*
X35977273*
X35982727Y16253750*
X35988182Y16261250*
X35990909Y16268750*
X35993636Y16280000*
Y16298750*
X35990909Y16310000*
X35988182Y16317500*
X35982727Y16325000*
X35977273Y16328750*
X35966364*
X35974545Y16265000D02*
X35990909Y16242500D01*
X36018182Y16313750D02*
X36023636Y16317500D01*
X36031818Y16328750*
Y16250000*
X36061818Y16328750D02*
X36091818D01*
X36075455Y16298750*
X36075455D02*
X36083636D01*
X36089091Y16295000*
X36091818Y16291250*
X36094545Y16280000*
Y16272500*
X36091818Y16261250*
X36086364Y16253750*
X36078182Y16250000*
X36070000*
X36061818Y16253750*
X36059091Y16257500*
X36056364Y16265000*
X36016364Y20778750D02*
X36010909Y20775000D01*
X36005455Y20767500*
X36005455D02*
X36002727Y20760000D01*
X36000000Y20748750*
Y20730000*
X36002727Y20718750*
X36005455Y20711250*
X36005455D02*
X36010909Y20703750D01*
X36016364Y20700000*
X36027273*
X36032727Y20703750*
X36038182Y20711250*
X36040909Y20718750*
X36043636Y20730000*
Y20748750*
X36040909Y20760000*
X36038182Y20767500*
X36032727Y20775000*
X36027273Y20778750*
X36016364*
X36024545Y20715000D02*
X36040909Y20692500D01*
X36068182Y20763750D02*
X36073636Y20767500D01*
X36081818Y20778750*
Y20700000*
X36133636Y20778750D02*
X36106364Y20726250D01*
X36147273*
X36133636Y20778750D02*
Y20700000D01*
X37666364Y16328750D02*
X37660909Y16325000D01*
X37655455Y16317500*
X37655455D02*
X37652727Y16310000D01*
X37650000Y16298750*
Y16280000*
X37652727Y16268750*
X37655455Y16261250*
X37655455D02*
X37660909Y16253750D01*
X37666364Y16250000*
X37677273*
X37682727Y16253750*
X37688182Y16261250*
X37690909Y16268750*
X37693636Y16280000*
Y16298750*
X37690909Y16310000*
X37688182Y16317500*
X37682727Y16325000*
X37677273Y16328750*
X37666364*
X37674545Y16265000D02*
X37690909Y16242500D01*
X37718182Y16313750D02*
X37723636Y16317500D01*
X37731818Y16328750*
Y16250000*
X37791818Y16328750D02*
X37764545D01*
X37761818Y16295000*
X37764545Y16298750*
X37772727Y16302500*
X37780909*
X37789091Y16298750*
X37794545Y16291250*
X37797273Y16280000*
X37794545Y16272500*
X37791818Y16261250*
X37786364Y16253750*
X37778182Y16250000*
X37770000*
X37761818Y16253750*
X37759091Y16257500*
X37756364Y16265000*
X37716364Y20778750D02*
X37710909Y20775000D01*
X37705455Y20767500*
X37705455D02*
X37702727Y20760000D01*
X37700000Y20748750*
Y20730000*
X37702727Y20718750*
X37705455Y20711250*
X37705455D02*
X37710909Y20703750D01*
X37716364Y20700000*
X37727273*
X37732727Y20703750*
X37738182Y20711250*
X37740909Y20718750*
X37743636Y20730000*
Y20748750*
X37740909Y20760000*
X37738182Y20767500*
X37732727Y20775000*
X37727273Y20778750*
X37716364*
X37724545Y20715000D02*
X37740909Y20692500D01*
X37768182Y20763750D02*
X37773636Y20767500D01*
X37781818Y20778750*
Y20700000*
X37839091Y20767500D02*
X37836364Y20775000D01*
X37828182Y20778750*
X37822727*
X37814545Y20775000*
X37809091Y20763750*
X37806364Y20745000*
Y20726250*
X37809091Y20711250*
X37814545Y20703750*
X37822727Y20700000*
X37825455*
X37825455D02*
X37833636Y20703750D01*
X37839091Y20711250*
X37841818Y20722500*
Y20726250*
X37839091Y20737500*
X37833636Y20745000*
X37825455Y20748750*
X37825455D02*
X37822727D01*
X37814545Y20745000*
X37809091Y20737500*
X37806364Y20726250*
X25816364Y20778750D02*
X25810909Y20775000D01*
X25805455Y20767500*
X25805455D02*
X25802727Y20760000D01*
X25800000Y20748750*
Y20730000*
X25802727Y20718750*
X25805455Y20711250*
X25805455D02*
X25810909Y20703750D01*
X25816364Y20700000*
X25827273*
X25832727Y20703750*
X25838182Y20711250*
X25840909Y20718750*
X25843636Y20730000*
Y20748750*
X25840909Y20760000*
X25838182Y20767500*
X25832727Y20775000*
X25827273Y20778750*
X25816364*
X25824545Y20715000D02*
X25840909Y20692500D01*
X25870909Y20760000D02*
Y20763750D01*
X25873636Y20771250*
X25876364Y20775000*
X25881818Y20778750*
X25892727*
X25898182Y20775000*
X25900909Y20771250*
X25903636Y20763750*
Y20756250*
X25900909Y20748750*
X25895455Y20737500*
X25895455D02*
X25868182Y20700000D01*
X25906364*
X27466364Y16328750D02*
X27460909Y16325000D01*
X27455455Y16317500*
X27455455D02*
X27452727Y16310000D01*
X27450000Y16298750*
Y16280000*
X27452727Y16268750*
X27455455Y16261250*
X27455455D02*
X27460909Y16253750D01*
X27466364Y16250000*
X27477273*
X27482727Y16253750*
X27488182Y16261250*
X27490909Y16268750*
X27493636Y16280000*
Y16298750*
X27490909Y16310000*
X27488182Y16317500*
X27482727Y16325000*
X27477273Y16328750*
X27466364*
X27474545Y16265000D02*
X27490909Y16242500D01*
X27523636Y16328750D02*
X27553636D01*
X27537273Y16298750*
X27545455*
X27545455D02*
X27550909Y16295000D01*
X27553636Y16291250*
X27556364Y16280000*
Y16272500*
X27553636Y16261250*
X27548182Y16253750*
X27540000Y16250000*
X27531818*
X27523636Y16253750*
X27520909Y16257500*
X27518182Y16265000*
X27516364Y20778750D02*
X27510909Y20775000D01*
X27505455Y20767500*
X27505455D02*
X27502727Y20760000D01*
X27500000Y20748750*
Y20730000*
X27502727Y20718750*
X27505455Y20711250*
X27505455D02*
X27510909Y20703750D01*
X27516364Y20700000*
X27527273*
X27532727Y20703750*
X27538182Y20711250*
X27540909Y20718750*
X27543636Y20730000*
Y20748750*
X27540909Y20760000*
X27538182Y20767500*
X27532727Y20775000*
X27527273Y20778750*
X27516364*
X27524545Y20715000D02*
X27540909Y20692500D01*
X27595455Y20778750D02*
X27568182Y20726250D01*
X27609091*
X27595455Y20778750D02*
Y20700000D01*
X29166364Y16328750D02*
X29160909Y16325000D01*
X29155455Y16317500*
X29155455D02*
X29152727Y16310000D01*
X29150000Y16298750*
Y16280000*
X29152727Y16268750*
X29155455Y16261250*
X29155455D02*
X29160909Y16253750D01*
X29166364Y16250000*
X29177273*
X29182727Y16253750*
X29188182Y16261250*
X29190909Y16268750*
X29193636Y16280000*
Y16298750*
X29190909Y16310000*
X29188182Y16317500*
X29182727Y16325000*
X29177273Y16328750*
X29166364*
X29174545Y16265000D02*
X29190909Y16242500D01*
X29253636Y16328750D02*
X29226364D01*
X29223636Y16295000*
X29226364Y16298750*
X29234545Y16302500*
X29242727*
X29250909Y16298750*
X29256364Y16291250*
X29259091Y16280000*
X29256364Y16272500*
X29253636Y16261250*
X29248182Y16253750*
X29240000Y16250000*
X29231818*
X29223636Y16253750*
X29220909Y16257500*
X29218182Y16265000*
X29216364Y20778750D02*
X29210909Y20775000D01*
X29205455Y20767500*
X29205455D02*
X29202727Y20760000D01*
X29200000Y20748750*
Y20730000*
X29202727Y20718750*
X29205455Y20711250*
X29205455D02*
X29210909Y20703750D01*
X29216364Y20700000*
X29227273*
X29232727Y20703750*
X29238182Y20711250*
X29240909Y20718750*
X29243636Y20730000*
Y20748750*
X29240909Y20760000*
X29238182Y20767500*
X29232727Y20775000*
X29227273Y20778750*
X29216364*
X29224545Y20715000D02*
X29240909Y20692500D01*
X29300909Y20767500D02*
X29298182Y20775000D01*
X29290000Y20778750*
X29284545*
X29276364Y20775000*
X29270909Y20763750*
X29268182Y20745000*
Y20726250*
X29270909Y20711250*
X29276364Y20703750*
X29284545Y20700000*
X29287273*
X29295455Y20703750*
X29295455D02*
X29300909Y20711250D01*
X29303636Y20722500*
Y20726250*
X29300909Y20737500*
X29295455Y20745000*
X29295455D02*
X29287273Y20748750D01*
X29284545*
X29276364Y20745000*
X29270909Y20737500*
X29268182Y20726250*
X30866364Y16328750D02*
X30860909Y16325000D01*
X30855455Y16317500*
X30855455D02*
X30852727Y16310000D01*
X30850000Y16298750*
Y16280000*
X30852727Y16268750*
X30855455Y16261250*
X30855455D02*
X30860909Y16253750D01*
X30866364Y16250000*
X30877273*
X30882727Y16253750*
X30888182Y16261250*
X30890909Y16268750*
X30893636Y16280000*
Y16298750*
X30890909Y16310000*
X30888182Y16317500*
X30882727Y16325000*
X30877273Y16328750*
X30866364*
X30874545Y16265000D02*
X30890909Y16242500D01*
X30956364Y16328750D02*
X30929091Y16250000D01*
X30918182Y16328750D02*
X30956364D01*
X30916364Y20778750D02*
X30910909Y20775000D01*
X30905455Y20767500*
X30905455D02*
X30902727Y20760000D01*
X30900000Y20748750*
Y20730000*
X30902727Y20718750*
X30905455Y20711250*
X30905455D02*
X30910909Y20703750D01*
X30916364Y20700000*
X30927273*
X30932727Y20703750*
X30938182Y20711250*
X30940909Y20718750*
X30943636Y20730000*
Y20748750*
X30940909Y20760000*
X30938182Y20767500*
X30932727Y20775000*
X30927273Y20778750*
X30916364*
X30924545Y20715000D02*
X30940909Y20692500D01*
X30981818Y20778750D02*
X30973636Y20775000D01*
X30970909Y20767500*
Y20760000*
X30973636Y20752500*
X30979091Y20748750*
X30990000Y20745000*
X30998182Y20741250*
X31003636Y20733750*
X31006364Y20726250*
Y20715000*
X31003636Y20707500*
X31000909Y20703750*
X30992727Y20700000*
X30981818*
X30973636Y20703750*
X30970909Y20707500*
X30968182Y20715000*
Y20726250*
X30970909Y20733750*
X30976364Y20741250*
X30984545Y20745000*
X30995455Y20748750*
X30995455D02*
X31000909Y20752500D01*
X31003636Y20760000*
Y20767500*
X31000909Y20775000*
X30992727Y20778750*
X30981818*
X32566364Y16328750D02*
X32560909Y16325000D01*
X32555455Y16317500*
X32555455D02*
X32552727Y16310000D01*
X32550000Y16298750*
Y16280000*
X32552727Y16268750*
X32555455Y16261250*
X32555455D02*
X32560909Y16253750D01*
X32566364Y16250000*
X32577273*
X32582727Y16253750*
X32588182Y16261250*
X32590909Y16268750*
X32593636Y16280000*
Y16298750*
X32590909Y16310000*
X32588182Y16317500*
X32582727Y16325000*
X32577273Y16328750*
X32566364*
X32574545Y16265000D02*
X32590909Y16242500D01*
X32653636Y16302500D02*
X32650909Y16291250D01*
X32645455Y16283750*
X32645455D02*
X32637273Y16280000D01*
X32634545*
X32626364Y16283750*
X32620909Y16291250*
X32618182Y16302500*
Y16306250*
X32620909Y16317500*
X32626364Y16325000*
X32634545Y16328750*
X32637273*
X32645455Y16325000*
X32645455D02*
X32650909Y16317500D01*
X32653636Y16302500*
Y16283750*
X32650909Y16265000*
X32645455Y16253750*
X32645455D02*
X32637273Y16250000D01*
X32631818*
X32623636Y16253750*
X32620909Y16261250*
X26600000Y16878750D02*
Y16800000D01*
Y16878750D02*
X26624545D01*
X26632727Y16875000*
X26635455Y16871250*
X26635455D02*
X26638182Y16863750D01*
Y16856250*
X26635455Y16848750*
X26635455D02*
X26632727Y16845000D01*
X26624545Y16841250*
X26600000*
X26619091D02*
X26638182Y16800000D01*
X26662727Y16863750D02*
X26668182Y16867500D01*
X26676364Y16878750*
Y16800000*
X27425000Y21328750D02*
Y21250000D01*
Y21328750D02*
X27449545D01*
X27457727Y21325000*
X27460455Y21321250*
X27460455D02*
X27463182Y21313750D01*
Y21306250*
X27460455Y21298750*
X27460455D02*
X27457727Y21295000D01*
X27449545Y21291250*
X27425000*
X27444091D02*
X27463182Y21250000D01*
X27487727Y21313750D02*
X27493182Y21317500D01*
X27501364Y21328750*
Y21250000*
X27542273Y21328750D02*
X27534091Y21325000D01*
X27528636Y21313750*
X27525909Y21295000*
Y21283750*
X27528636Y21265000*
X27534091Y21253750*
X27542273Y21250000*
X27547727*
X27555909Y21253750*
X27561364Y21265000*
X27564091Y21283750*
Y21295000*
X27561364Y21313750*
X27555909Y21325000*
X27547727Y21328750*
X27542273*
X27450000Y15953750D02*
Y15875000D01*
Y15953750D02*
X27474545D01*
X27482727Y15950000*
X27485455Y15946250*
X27485455D02*
X27488182Y15938750D01*
Y15931250*
X27485455Y15923750*
X27485455D02*
X27482727Y15920000D01*
X27474545Y15916250*
X27450000*
X27469091D02*
X27488182Y15875000D01*
X27512727Y15938750D02*
X27518182Y15942500D01*
X27526364Y15953750*
Y15875000*
X27550909Y15938750D02*
X27556364Y15942500D01*
X27564545Y15953750*
Y15875000*
X27450000Y20428750D02*
Y20350000D01*
Y20428750D02*
X27474545D01*
X27482727Y20425000*
X27485455Y20421250*
X27485455D02*
X27488182Y20413750D01*
Y20406250*
X27485455Y20398750*
X27485455D02*
X27482727Y20395000D01*
X27474545Y20391250*
X27450000*
X27469091D02*
X27488182Y20350000D01*
X27512727Y20413750D02*
X27518182Y20417500D01*
X27526364Y20428750*
Y20350000*
X27553636Y20410000D02*
Y20413750D01*
X27556364Y20421250*
X27559091Y20425000*
X27564545Y20428750*
X27575455*
X27575455D02*
X27580909Y20425000D01*
X27583636Y20421250*
X27586364Y20413750*
Y20406250*
X27583636Y20398750*
X27578182Y20387500*
X27550909Y20350000*
X27589091*
X29975000Y16878750D02*
Y16800000D01*
Y16878750D02*
X29999545D01*
X30007727Y16875000*
X30010455Y16871250*
X30010455D02*
X30013182Y16863750D01*
Y16856250*
X30010455Y16848750*
X30010455D02*
X30007727Y16845000D01*
X29999545Y16841250*
X29975000*
X29994091D02*
X30013182Y16800000D01*
X30037727Y16863750D02*
X30043182Y16867500D01*
X30051364Y16878750*
Y16800000*
X30081364Y16878750D02*
X30111364D01*
X30095000Y16848750*
X30103182*
X30108636Y16845000*
X30111364Y16841250*
X30114091Y16830000*
Y16822500*
X30111364Y16811250*
X30105909Y16803750*
X30097727Y16800000*
X30089545*
X30081364Y16803750*
X30078636Y16807500*
X30075909Y16815000*
X29975000Y21353750D02*
Y21275000D01*
Y21353750D02*
X29999545D01*
X30007727Y21350000*
X30010455Y21346250*
X30010455D02*
X30013182Y21338750D01*
Y21331250*
X30010455Y21323750*
X30010455D02*
X30007727Y21320000D01*
X29999545Y21316250*
X29975000*
X29994091D02*
X30013182Y21275000D01*
X30037727Y21338750D02*
X30043182Y21342500D01*
X30051364Y21353750*
Y21275000*
X30103182Y21353750D02*
X30075909Y21301250D01*
X30116818*
X30103182Y21353750D02*
Y21275000D01*
X29150000Y16878750D02*
Y16800000D01*
Y16878750D02*
X29174545D01*
X29182727Y16875000*
X29185455Y16871250*
X29185455D02*
X29188182Y16863750D01*
Y16856250*
X29185455Y16848750*
X29185455D02*
X29182727Y16845000D01*
X29174545Y16841250*
X29150000*
X29169091D02*
X29188182Y16800000D01*
X29212727Y16863750D02*
X29218182Y16867500D01*
X29226364Y16878750*
Y16800000*
X29286364Y16878750D02*
X29259091D01*
X29256364Y16845000*
X29259091Y16848750*
X29267273Y16852500*
X29275455*
X29275455D02*
X29283636Y16848750D01*
X29289091Y16841250*
X29291818Y16830000*
X29289091Y16822500*
X29286364Y16811250*
X29280909Y16803750*
X29272727Y16800000*
X29264545*
X29256364Y16803750*
X29253636Y16807500*
X29250909Y16815000*
X29150000Y21353750D02*
Y21275000D01*
Y21353750D02*
X29174545D01*
X29182727Y21350000*
X29185455Y21346250*
X29185455D02*
X29188182Y21338750D01*
Y21331250*
X29185455Y21323750*
X29185455D02*
X29182727Y21320000D01*
X29174545Y21316250*
X29150000*
X29169091D02*
X29188182Y21275000D01*
X29212727Y21338750D02*
X29218182Y21342500D01*
X29226364Y21353750*
Y21275000*
X29283636Y21342500D02*
X29280909Y21350000D01*
X29272727Y21353750*
X29267273*
X29259091Y21350000*
X29253636Y21338750*
X29250909Y21320000*
Y21301250*
X29253636Y21286250*
X29259091Y21278750*
X29267273Y21275000*
X29270000*
X29278182Y21278750*
X29283636Y21286250*
X29286364Y21297500*
Y21301250*
X29283636Y21312500*
X29278182Y21320000*
X29270000Y21323750*
X29267273*
X29259091Y21320000*
X29253636Y21312500*
X29250909Y21301250*
X29150000Y15953750D02*
Y15875000D01*
Y15953750D02*
X29174545D01*
X29182727Y15950000*
X29185455Y15946250*
X29185455D02*
X29188182Y15938750D01*
Y15931250*
X29185455Y15923750*
X29185455D02*
X29182727Y15920000D01*
X29174545Y15916250*
X29150000*
X29169091D02*
X29188182Y15875000D01*
X29212727Y15938750D02*
X29218182Y15942500D01*
X29226364Y15953750*
Y15875000*
X29289091Y15953750D02*
X29261818Y15875000D01*
X29250909Y15953750D02*
X29289091D01*
X29150000Y20428750D02*
Y20350000D01*
Y20428750D02*
X29174545D01*
X29182727Y20425000*
X29185455Y20421250*
X29185455D02*
X29188182Y20413750D01*
Y20406250*
X29185455Y20398750*
X29185455D02*
X29182727Y20395000D01*
X29174545Y20391250*
X29150000*
X29169091D02*
X29188182Y20350000D01*
X29212727Y20413750D02*
X29218182Y20417500D01*
X29226364Y20428750*
Y20350000*
X29264545Y20428750D02*
X29256364Y20425000D01*
X29253636Y20417500*
Y20410000*
X29256364Y20402500*
X29261818Y20398750*
X29272727Y20395000*
X29280909Y20391250*
X29286364Y20383750*
X29289091Y20376250*
Y20365000*
X29286364Y20357500*
X29283636Y20353750*
X29275455Y20350000*
X29275455D02*
X29264545D01*
X29256364Y20353750*
X29253636Y20357500*
X29250909Y20365000*
Y20376250*
X29253636Y20383750*
X29259091Y20391250*
X29267273Y20395000*
X29278182Y20398750*
X29283636Y20402500*
X29286364Y20410000*
Y20417500*
X29283636Y20425000*
X29275455Y20428750*
X29275455D02*
X29264545D01*
X31675000Y16903750D02*
Y16825000D01*
Y16903750D02*
X31699545D01*
X31707727Y16900000*
X31710455Y16896250*
X31710455D02*
X31713182Y16888750D01*
Y16881250*
X31710455Y16873750*
X31710455D02*
X31707727Y16870000D01*
X31699545Y16866250*
X31675000*
X31694091D02*
X31713182Y16825000D01*
X31737727Y16888750D02*
X31743182Y16892500D01*
X31751364Y16903750*
Y16825000*
X31811364Y16877500D02*
X31808636Y16866250D01*
X31803182Y16858750*
X31795000Y16855000*
X31792273*
X31784091Y16858750*
X31778636Y16866250*
X31775909Y16877500*
Y16881250*
X31778636Y16892500*
X31784091Y16900000*
X31792273Y16903750*
X31795000*
X31803182Y16900000*
X31808636Y16892500*
X31811364Y16877500*
Y16858750*
X31808636Y16840000*
X31803182Y16828750*
X31795000Y16825000*
X31789545*
X31781364Y16828750*
X31778636Y16836250*
X26600000Y21328750D02*
Y21250000D01*
Y21328750D02*
X26624545D01*
X26632727Y21325000*
X26635455Y21321250*
X26635455D02*
X26638182Y21313750D01*
Y21306250*
X26635455Y21298750*
X26635455D02*
X26632727Y21295000D01*
X26624545Y21291250*
X26600000*
X26619091D02*
X26638182Y21250000D01*
X26665455Y21310000D02*
Y21313750D01*
X26665455D02*
X26668182Y21321250D01*
X26670909Y21325000*
X26676364Y21328750*
X26687273*
X26692727Y21325000*
X26695455Y21321250*
X26695455D02*
X26698182Y21313750D01*
Y21306250*
X26695455Y21298750*
X26695455D02*
X26690000Y21287500D01*
X26662727Y21250000*
X26700909*
X31650000Y21353750D02*
Y21275000D01*
Y21353750D02*
X31674545D01*
X31682727Y21350000*
X31685455Y21346250*
X31685455D02*
X31688182Y21338750D01*
Y21331250*
X31685455Y21323750*
X31685455D02*
X31682727Y21320000D01*
X31674545Y21316250*
X31650000*
X31669091D02*
X31688182Y21275000D01*
X31715455Y21335000D02*
Y21338750D01*
X31715455D02*
X31718182Y21346250D01*
X31720909Y21350000*
X31726364Y21353750*
X31737273*
X31742727Y21350000*
X31745455Y21346250*
X31745455D02*
X31748182Y21338750D01*
Y21331250*
X31745455Y21323750*
X31745455D02*
X31740000Y21312500D01*
X31712727Y21275000*
X31750909*
X31791818Y21353750D02*
X31783636Y21350000D01*
X31778182Y21338750*
X31775455Y21320000*
X31775455D02*
Y21308750D01*
X31775455D02*
X31778182Y21290000D01*
X31783636Y21278750*
X31791818Y21275000*
X31797273*
X31805455Y21278750*
X31805455D02*
X31810909Y21290000D01*
X31813636Y21308750*
Y21320000*
X31810909Y21338750*
X31805455Y21350000*
X31805455D02*
X31797273Y21353750D01*
X31791818*
X30850000Y16878750D02*
Y16800000D01*
Y16878750D02*
X30874545D01*
X30882727Y16875000*
X30885455Y16871250*
X30885455D02*
X30888182Y16863750D01*
Y16856250*
X30885455Y16848750*
X30885455D02*
X30882727Y16845000D01*
X30874545Y16841250*
X30850000*
X30869091D02*
X30888182Y16800000D01*
X30915455Y16860000D02*
Y16863750D01*
X30915455D02*
X30918182Y16871250D01*
X30920909Y16875000*
X30926364Y16878750*
X30937273*
X30942727Y16875000*
X30945455Y16871250*
X30945455D02*
X30948182Y16863750D01*
Y16856250*
X30945455Y16848750*
X30945455D02*
X30940000Y16837500D01*
X30912727Y16800000*
X30950909*
X30975455Y16863750D02*
X30980909Y16867500D01*
X30989091Y16878750*
Y16800000*
X30825000Y21353750D02*
Y21275000D01*
Y21353750D02*
X30849545D01*
X30857727Y21350000*
X30860455Y21346250*
X30860455D02*
X30863182Y21338750D01*
Y21331250*
X30860455Y21323750*
X30860455D02*
X30857727Y21320000D01*
X30849545Y21316250*
X30825000*
X30844091D02*
X30863182Y21275000D01*
X30890455Y21335000D02*
Y21338750D01*
X30890455D02*
X30893182Y21346250D01*
X30895909Y21350000*
X30901364Y21353750*
X30912273*
X30917727Y21350000*
X30920455Y21346250*
X30920455D02*
X30923182Y21338750D01*
Y21331250*
X30920455Y21323750*
X30920455D02*
X30915000Y21312500D01*
X30887727Y21275000*
X30925909*
X30953182Y21335000D02*
Y21338750D01*
X30955909Y21346250*
X30958636Y21350000*
X30964091Y21353750*
X30975000*
X30980455Y21350000*
X30980455D02*
X30983182Y21346250D01*
X30985909Y21338750*
Y21331250*
X30983182Y21323750*
X30977727Y21312500*
X30950455Y21275000*
X30950455D02*
X30988636D01*
X30850000Y15953750D02*
Y15875000D01*
Y15953750D02*
X30874545D01*
X30882727Y15950000*
X30885455Y15946250*
X30885455D02*
X30888182Y15938750D01*
Y15931250*
X30885455Y15923750*
X30885455D02*
X30882727Y15920000D01*
X30874545Y15916250*
X30850000*
X30869091D02*
X30888182Y15875000D01*
X30915455Y15935000D02*
Y15938750D01*
X30915455D02*
X30918182Y15946250D01*
X30920909Y15950000*
X30926364Y15953750*
X30937273*
X30942727Y15950000*
X30945455Y15946250*
X30945455D02*
X30948182Y15938750D01*
Y15931250*
X30945455Y15923750*
X30945455D02*
X30940000Y15912500D01*
X30912727Y15875000*
X30950909*
X30980909Y15953750D02*
X31010909D01*
X30994545Y15923750*
X31002727*
X31008182Y15920000*
X31010909Y15916250*
X31013636Y15905000*
Y15897500*
X31010909Y15886250*
X31005455Y15878750*
X31005455D02*
X30997273Y15875000D01*
X30989091*
X30980909Y15878750*
X30978182Y15882500*
X30975455Y15890000*
X30850000Y20428750D02*
Y20350000D01*
Y20428750D02*
X30874545D01*
X30882727Y20425000*
X30885455Y20421250*
X30885455D02*
X30888182Y20413750D01*
Y20406250*
X30885455Y20398750*
X30885455D02*
X30882727Y20395000D01*
X30874545Y20391250*
X30850000*
X30869091D02*
X30888182Y20350000D01*
X30915455Y20410000D02*
Y20413750D01*
X30915455D02*
X30918182Y20421250D01*
X30920909Y20425000*
X30926364Y20428750*
X30937273*
X30942727Y20425000*
X30945455Y20421250*
X30945455D02*
X30948182Y20413750D01*
Y20406250*
X30945455Y20398750*
X30945455D02*
X30940000Y20387500D01*
X30912727Y20350000*
X30950909*
X31002727Y20428750D02*
X30975455Y20376250D01*
X30975455D02*
X31016364D01*
X31002727Y20428750D02*
Y20350000D01*
X33350000Y16903750D02*
Y16825000D01*
Y16903750D02*
X33374545D01*
X33382727Y16900000*
X33385455Y16896250*
X33385455D02*
X33388182Y16888750D01*
Y16881250*
X33385455Y16873750*
X33385455D02*
X33382727Y16870000D01*
X33374545Y16866250*
X33350000*
X33369091D02*
X33388182Y16825000D01*
X33415455Y16885000D02*
Y16888750D01*
X33415455D02*
X33418182Y16896250D01*
X33420909Y16900000*
X33426364Y16903750*
X33437273*
X33442727Y16900000*
X33445455Y16896250*
X33445455D02*
X33448182Y16888750D01*
Y16881250*
X33445455Y16873750*
X33445455D02*
X33440000Y16862500D01*
X33412727Y16825000*
X33450909*
X33510909Y16903750D02*
X33483636D01*
X33480909Y16870000*
X33483636Y16873750*
X33491818Y16877500*
X33500000*
X33508182Y16873750*
X33513636Y16866250*
X33516364Y16855000*
X33513636Y16847500*
X33510909Y16836250*
X33505455Y16828750*
X33505455D02*
X33497273Y16825000D01*
X33489091*
X33480909Y16828750*
X33478182Y16832500*
X33475455Y16840000*
X33350000Y21328750D02*
Y21250000D01*
Y21328750D02*
X33374545D01*
X33382727Y21325000*
X33385455Y21321250*
X33385455D02*
X33388182Y21313750D01*
Y21306250*
X33385455Y21298750*
X33385455D02*
X33382727Y21295000D01*
X33374545Y21291250*
X33350000*
X33369091D02*
X33388182Y21250000D01*
X33415455Y21310000D02*
Y21313750D01*
X33415455D02*
X33418182Y21321250D01*
X33420909Y21325000*
X33426364Y21328750*
X33437273*
X33442727Y21325000*
X33445455Y21321250*
X33445455D02*
X33448182Y21313750D01*
Y21306250*
X33445455Y21298750*
X33445455D02*
X33440000Y21287500D01*
X33412727Y21250000*
X33450909*
X33508182Y21317500D02*
X33505455Y21325000D01*
X33505455D02*
X33497273Y21328750D01*
X33491818*
X33483636Y21325000*
X33478182Y21313750*
X33475455Y21295000*
X33475455D02*
Y21276250D01*
X33475455D02*
X33478182Y21261250D01*
X33483636Y21253750*
X33491818Y21250000*
X33494545*
X33502727Y21253750*
X33508182Y21261250*
X33510909Y21272500*
Y21276250*
X33508182Y21287500*
X33502727Y21295000*
X33494545Y21298750*
X33491818*
X33483636Y21295000*
X33478182Y21287500*
X33475455Y21276250*
X32550000Y16878750D02*
Y16800000D01*
Y16878750D02*
X32574545D01*
X32582727Y16875000*
X32585455Y16871250*
X32585455D02*
X32588182Y16863750D01*
Y16856250*
X32585455Y16848750*
X32585455D02*
X32582727Y16845000D01*
X32574545Y16841250*
X32550000*
X32569091D02*
X32588182Y16800000D01*
X32615455Y16860000D02*
Y16863750D01*
X32615455D02*
X32618182Y16871250D01*
X32620909Y16875000*
X32626364Y16878750*
X32637273*
X32642727Y16875000*
X32645455Y16871250*
X32645455D02*
X32648182Y16863750D01*
Y16856250*
X32645455Y16848750*
X32645455D02*
X32640000Y16837500D01*
X32612727Y16800000*
X32650909*
X32713636Y16878750D02*
X32686364Y16800000D01*
X32675455Y16878750D02*
X32713636D01*
X32575000Y21328750D02*
Y21250000D01*
Y21328750D02*
X32599545D01*
X32607727Y21325000*
X32610455Y21321250*
X32610455D02*
X32613182Y21313750D01*
Y21306250*
X32610455Y21298750*
X32610455D02*
X32607727Y21295000D01*
X32599545Y21291250*
X32575000*
X32594091D02*
X32613182Y21250000D01*
X32640455Y21310000D02*
Y21313750D01*
X32640455D02*
X32643182Y21321250D01*
X32645909Y21325000*
X32651364Y21328750*
X32662273*
X32667727Y21325000*
X32670455Y21321250*
X32670455D02*
X32673182Y21313750D01*
Y21306250*
X32670455Y21298750*
X32670455D02*
X32665000Y21287500D01*
X32637727Y21250000*
X32675909*
X32714091Y21328750D02*
X32705909Y21325000D01*
X32703182Y21317500*
Y21310000*
X32705909Y21302500*
X32711364Y21298750*
X32722273Y21295000*
X32730455Y21291250*
X32730455D02*
X32735909Y21283750D01*
X32738636Y21276250*
Y21265000*
X32735909Y21257500*
X32733182Y21253750*
X32725000Y21250000*
X32714091*
X32705909Y21253750*
X32703182Y21257500*
X32700455Y21265000*
X32700455D02*
Y21276250D01*
X32700455D02*
X32703182Y21283750D01*
X32708636Y21291250*
X32716818Y21295000*
X32727727Y21298750*
X32733182Y21302500*
X32735909Y21310000*
Y21317500*
X32733182Y21325000*
X32725000Y21328750*
X32714091*
X32550000Y15953750D02*
Y15875000D01*
Y15953750D02*
X32574545D01*
X32582727Y15950000*
X32585455Y15946250*
X32585455D02*
X32588182Y15938750D01*
Y15931250*
X32585455Y15923750*
X32585455D02*
X32582727Y15920000D01*
X32574545Y15916250*
X32550000*
X32569091D02*
X32588182Y15875000D01*
X32615455Y15935000D02*
Y15938750D01*
X32615455D02*
X32618182Y15946250D01*
X32620909Y15950000*
X32626364Y15953750*
X32637273*
X32642727Y15950000*
X32645455Y15946250*
X32645455D02*
X32648182Y15938750D01*
Y15931250*
X32645455Y15923750*
X32645455D02*
X32640000Y15912500D01*
X32612727Y15875000*
X32650909*
X32710909Y15927500D02*
X32708182Y15916250D01*
X32702727Y15908750*
X32694545Y15905000*
X32691818*
X32683636Y15908750*
X32678182Y15916250*
X32675455Y15927500*
X32675455D02*
Y15931250D01*
X32675455D02*
X32678182Y15942500D01*
X32683636Y15950000*
X32691818Y15953750*
X32694545*
X32702727Y15950000*
X32708182Y15942500*
X32710909Y15927500*
Y15908750*
X32708182Y15890000*
X32702727Y15878750*
X32694545Y15875000*
X32689091*
X32680909Y15878750*
X32678182Y15886250*
X25750000Y16878750D02*
Y16800000D01*
Y16878750D02*
X25774545D01*
X25782727Y16875000*
X25785455Y16871250*
X25785455D02*
X25788182Y16863750D01*
Y16856250*
X25785455Y16848750*
X25785455D02*
X25782727Y16845000D01*
X25774545Y16841250*
X25750000*
X25769091D02*
X25788182Y16800000D01*
X25818182Y16878750D02*
X25848182D01*
X25831818Y16848750*
X25840000*
X25845455Y16845000*
X25845455D02*
X25848182Y16841250D01*
X25850909Y16830000*
Y16822500*
X25848182Y16811250*
X25842727Y16803750*
X25834545Y16800000*
X25826364*
X25818182Y16803750*
X25815455Y16807500*
X25815455D02*
X25812727Y16815000D01*
X32550000Y20428750D02*
Y20350000D01*
Y20428750D02*
X32574545D01*
X32582727Y20425000*
X32585455Y20421250*
X32585455D02*
X32588182Y20413750D01*
Y20406250*
X32585455Y20398750*
X32585455D02*
X32582727Y20395000D01*
X32574545Y20391250*
X32550000*
X32569091D02*
X32588182Y20350000D01*
X32618182Y20428750D02*
X32648182D01*
X32631818Y20398750*
X32640000*
X32645455Y20395000*
X32645455D02*
X32648182Y20391250D01*
X32650909Y20380000*
Y20372500*
X32648182Y20361250*
X32642727Y20353750*
X32634545Y20350000*
X32626364*
X32618182Y20353750*
X32615455Y20357500*
X32615455D02*
X32612727Y20365000D01*
X32691818Y20428750D02*
X32683636Y20425000D01*
X32678182Y20413750*
X32675455Y20395000*
X32675455D02*
Y20383750D01*
X32675455D02*
X32678182Y20365000D01*
X32683636Y20353750*
X32691818Y20350000*
X32697273*
X32705455Y20353750*
X32705455D02*
X32710909Y20365000D01*
X32713636Y20383750*
Y20395000*
X32710909Y20413750*
X32705455Y20425000*
X32705455D02*
X32697273Y20428750D01*
X32691818*
X35075000Y16878750D02*
Y16800000D01*
Y16878750D02*
X35099545D01*
X35107727Y16875000*
X35110455Y16871250*
X35110455D02*
X35113182Y16863750D01*
Y16856250*
X35110455Y16848750*
X35110455D02*
X35107727Y16845000D01*
X35099545Y16841250*
X35075000*
X35094091D02*
X35113182Y16800000D01*
X35143182Y16878750D02*
X35173182D01*
X35156818Y16848750*
X35165000*
X35170455Y16845000*
X35170455D02*
X35173182Y16841250D01*
X35175909Y16830000*
Y16822500*
X35173182Y16811250*
X35167727Y16803750*
X35159545Y16800000*
X35151364*
X35143182Y16803750*
X35140455Y16807500*
X35140455D02*
X35137727Y16815000D01*
X35200455Y16863750D02*
X35205909Y16867500D01*
X35214091Y16878750*
Y16800000*
X34225000Y16878750D02*
Y16800000D01*
Y16878750D02*
X34249545D01*
X34257727Y16875000*
X34260455Y16871250*
X34260455D02*
X34263182Y16863750D01*
Y16856250*
X34260455Y16848750*
X34260455D02*
X34257727Y16845000D01*
X34249545Y16841250*
X34225000*
X34244091D02*
X34263182Y16800000D01*
X34293182Y16878750D02*
X34323182D01*
X34306818Y16848750*
X34315000*
X34320455Y16845000*
X34320455D02*
X34323182Y16841250D01*
X34325909Y16830000*
Y16822500*
X34323182Y16811250*
X34317727Y16803750*
X34309545Y16800000*
X34301364*
X34293182Y16803750*
X34290455Y16807500*
X34290455D02*
X34287727Y16815000D01*
X34353182Y16860000D02*
Y16863750D01*
X34355909Y16871250*
X34358636Y16875000*
X34364091Y16878750*
X34375000*
X34380455Y16875000*
X34380455D02*
X34383182Y16871250D01*
X34385909Y16863750*
Y16856250*
X34383182Y16848750*
X34377727Y16837500*
X34350455Y16800000*
X34350455D02*
X34388636D01*
X35050000Y21353750D02*
Y21275000D01*
Y21353750D02*
X35074545D01*
X35082727Y21350000*
X35085455Y21346250*
X35085455D02*
X35088182Y21338750D01*
Y21331250*
X35085455Y21323750*
X35085455D02*
X35082727Y21320000D01*
X35074545Y21316250*
X35050000*
X35069091D02*
X35088182Y21275000D01*
X35118182Y21353750D02*
X35148182D01*
X35131818Y21323750*
X35140000*
X35145455Y21320000*
X35145455D02*
X35148182Y21316250D01*
X35150909Y21305000*
Y21297500*
X35148182Y21286250*
X35142727Y21278750*
X35134545Y21275000*
X35126364*
X35118182Y21278750*
X35115455Y21282500*
X35115455D02*
X35112727Y21290000D01*
X35180909Y21353750D02*
X35210909D01*
X35194545Y21323750*
X35202727*
X35208182Y21320000*
X35210909Y21316250*
X35213636Y21305000*
Y21297500*
X35210909Y21286250*
X35205455Y21278750*
X35205455D02*
X35197273Y21275000D01*
X35189091*
X35180909Y21278750*
X35178182Y21282500*
X35175455Y21290000*
X34225000Y21328750D02*
Y21250000D01*
Y21328750D02*
X34249545D01*
X34257727Y21325000*
X34260455Y21321250*
X34260455D02*
X34263182Y21313750D01*
Y21306250*
X34260455Y21298750*
X34260455D02*
X34257727Y21295000D01*
X34249545Y21291250*
X34225000*
X34244091D02*
X34263182Y21250000D01*
X34293182Y21328750D02*
X34323182D01*
X34306818Y21298750*
X34315000*
X34320455Y21295000*
X34320455D02*
X34323182Y21291250D01*
X34325909Y21280000*
Y21272500*
X34323182Y21261250*
X34317727Y21253750*
X34309545Y21250000*
X34301364*
X34293182Y21253750*
X34290455Y21257500*
X34290455D02*
X34287727Y21265000D01*
X34377727Y21328750D02*
X34350455Y21276250D01*
X34350455D02*
X34391364D01*
X34377727Y21328750D02*
Y21250000D01*
X34250000Y15953750D02*
Y15875000D01*
Y15953750D02*
X34274545D01*
X34282727Y15950000*
X34285455Y15946250*
X34285455D02*
X34288182Y15938750D01*
Y15931250*
X34285455Y15923750*
X34285455D02*
X34282727Y15920000D01*
X34274545Y15916250*
X34250000*
X34269091D02*
X34288182Y15875000D01*
X34318182Y15953750D02*
X34348182D01*
X34331818Y15923750*
X34340000*
X34345455Y15920000*
X34345455D02*
X34348182Y15916250D01*
X34350909Y15905000*
Y15897500*
X34348182Y15886250*
X34342727Y15878750*
X34334545Y15875000*
X34326364*
X34318182Y15878750*
X34315455Y15882500*
X34315455D02*
X34312727Y15890000D01*
X34410909Y15953750D02*
X34383636D01*
X34380909Y15920000*
X34383636Y15923750*
X34391818Y15927500*
X34400000*
X34408182Y15923750*
X34413636Y15916250*
X34416364Y15905000*
X34413636Y15897500*
X34410909Y15886250*
X34405455Y15878750*
X34405455D02*
X34397273Y15875000D01*
X34389091*
X34380909Y15878750*
X34378182Y15882500*
X34375455Y15890000*
X34250000Y20428750D02*
Y20350000D01*
Y20428750D02*
X34274545D01*
X34282727Y20425000*
X34285455Y20421250*
X34285455D02*
X34288182Y20413750D01*
Y20406250*
X34285455Y20398750*
X34285455D02*
X34282727Y20395000D01*
X34274545Y20391250*
X34250000*
X34269091D02*
X34288182Y20350000D01*
X34318182Y20428750D02*
X34348182D01*
X34331818Y20398750*
X34340000*
X34345455Y20395000*
X34345455D02*
X34348182Y20391250D01*
X34350909Y20380000*
Y20372500*
X34348182Y20361250*
X34342727Y20353750*
X34334545Y20350000*
X34326364*
X34318182Y20353750*
X34315455Y20357500*
X34315455D02*
X34312727Y20365000D01*
X34408182Y20417500D02*
X34405455Y20425000D01*
X34405455D02*
X34397273Y20428750D01*
X34391818*
X34383636Y20425000*
X34378182Y20413750*
X34375455Y20395000*
X34375455D02*
Y20376250D01*
X34375455D02*
X34378182Y20361250D01*
X34383636Y20353750*
X34391818Y20350000*
X34394545*
X34402727Y20353750*
X34408182Y20361250*
X34410909Y20372500*
Y20376250*
X34408182Y20387500*
X34402727Y20395000*
X34394545Y20398750*
X34391818*
X34383636Y20395000*
X34378182Y20387500*
X34375455Y20376250*
X36750000Y16878750D02*
Y16800000D01*
Y16878750D02*
X36774545D01*
X36782727Y16875000*
X36785455Y16871250*
X36785455D02*
X36788182Y16863750D01*
Y16856250*
X36785455Y16848750*
X36785455D02*
X36782727Y16845000D01*
X36774545Y16841250*
X36750000*
X36769091D02*
X36788182Y16800000D01*
X36818182Y16878750D02*
X36848182D01*
X36831818Y16848750*
X36840000*
X36845455Y16845000*
X36845455D02*
X36848182Y16841250D01*
X36850909Y16830000*
Y16822500*
X36848182Y16811250*
X36842727Y16803750*
X36834545Y16800000*
X36826364*
X36818182Y16803750*
X36815455Y16807500*
X36815455D02*
X36812727Y16815000D01*
X36913636Y16878750D02*
X36886364Y16800000D01*
X36875455Y16878750D02*
X36913636D01*
X36750000Y21353750D02*
Y21275000D01*
Y21353750D02*
X36774545D01*
X36782727Y21350000*
X36785455Y21346250*
X36785455D02*
X36788182Y21338750D01*
Y21331250*
X36785455Y21323750*
X36785455D02*
X36782727Y21320000D01*
X36774545Y21316250*
X36750000*
X36769091D02*
X36788182Y21275000D01*
X36818182Y21353750D02*
X36848182D01*
X36831818Y21323750*
X36840000*
X36845455Y21320000*
X36845455D02*
X36848182Y21316250D01*
X36850909Y21305000*
Y21297500*
X36848182Y21286250*
X36842727Y21278750*
X36834545Y21275000*
X36826364*
X36818182Y21278750*
X36815455Y21282500*
X36815455D02*
X36812727Y21290000D01*
X36889091Y21353750D02*
X36880909Y21350000D01*
X36878182Y21342500*
Y21335000*
X36880909Y21327500*
X36886364Y21323750*
X36897273Y21320000*
X36905455Y21316250*
X36905455D02*
X36910909Y21308750D01*
X36913636Y21301250*
Y21290000*
X36910909Y21282500*
X36908182Y21278750*
X36900000Y21275000*
X36889091*
X36880909Y21278750*
X36878182Y21282500*
X36875455Y21290000*
X36875455D02*
Y21301250D01*
X36875455D02*
X36878182Y21308750D01*
X36883636Y21316250*
X36891818Y21320000*
X36902727Y21323750*
X36908182Y21327500*
X36910909Y21335000*
Y21342500*
X36908182Y21350000*
X36900000Y21353750*
X36889091*
X35875000Y16878750D02*
Y16800000D01*
Y16878750D02*
X35899545D01*
X35907727Y16875000*
X35910455Y16871250*
X35910455D02*
X35913182Y16863750D01*
Y16856250*
X35910455Y16848750*
X35910455D02*
X35907727Y16845000D01*
X35899545Y16841250*
X35875000*
X35894091D02*
X35913182Y16800000D01*
X35943182Y16878750D02*
X35973182D01*
X35956818Y16848750*
X35965000*
X35970455Y16845000*
X35970455D02*
X35973182Y16841250D01*
X35975909Y16830000*
Y16822500*
X35973182Y16811250*
X35967727Y16803750*
X35959545Y16800000*
X35951364*
X35943182Y16803750*
X35940455Y16807500*
X35940455D02*
X35937727Y16815000D01*
X36035909Y16852500D02*
X36033182Y16841250D01*
X36027727Y16833750*
X36019545Y16830000*
X36016818*
X36008636Y16833750*
X36003182Y16841250*
X36000455Y16852500*
X36000455D02*
Y16856250D01*
X36000455D02*
X36003182Y16867500D01*
X36008636Y16875000*
X36016818Y16878750*
X36019545*
X36027727Y16875000*
X36033182Y16867500*
X36035909Y16852500*
Y16833750*
X36033182Y16815000*
X36027727Y16803750*
X36019545Y16800000*
X36014091*
X36005909Y16803750*
X36003182Y16811250*
X25807273Y21312500D02*
Y21233750D01*
Y21312500D02*
X25831818D01*
X25840000Y21308750*
X25842727Y21305000*
X25845455Y21297500*
X25845455D02*
Y21290000D01*
X25845455D02*
X25842727Y21282500D01*
X25840000Y21278750*
X25831818Y21275000*
X25807273*
X25826364D02*
X25845455Y21233750D01*
X25897273Y21312500D02*
X25870000Y21260000D01*
X25910909*
X25897273Y21312500D02*
Y21233750D01*
X35925000Y21353750D02*
Y21275000D01*
Y21353750D02*
X35949545D01*
X35957727Y21350000*
X35960455Y21346250*
X35960455D02*
X35963182Y21338750D01*
Y21331250*
X35960455Y21323750*
X35960455D02*
X35957727Y21320000D01*
X35949545Y21316250*
X35925000*
X35944091D02*
X35963182Y21275000D01*
X36015000Y21353750D02*
X35987727Y21301250D01*
X36028636*
X36015000Y21353750D02*
Y21275000D01*
X36069545Y21353750D02*
X36061364Y21350000D01*
X36055909Y21338750*
X36053182Y21320000*
Y21308750*
X36055909Y21290000*
X36061364Y21278750*
X36069545Y21275000*
X36075000*
X36083182Y21278750*
X36088636Y21290000*
X36091364Y21308750*
Y21320000*
X36088636Y21338750*
X36083182Y21350000*
X36075000Y21353750*
X36069545*
X35950000Y15953750D02*
Y15875000D01*
Y15953750D02*
X35974545D01*
X35982727Y15950000*
X35985455Y15946250*
X35985455D02*
X35988182Y15938750D01*
Y15931250*
X35985455Y15923750*
X35985455D02*
X35982727Y15920000D01*
X35974545Y15916250*
X35950000*
X35969091D02*
X35988182Y15875000D01*
X36040000Y15953750D02*
X36012727Y15901250D01*
X36053636*
X36040000Y15953750D02*
Y15875000D01*
X36078182Y15938750D02*
X36083636Y15942500D01*
X36091818Y15953750*
Y15875000*
X35950000Y20428750D02*
Y20350000D01*
Y20428750D02*
X35974545D01*
X35982727Y20425000*
X35985455Y20421250*
X35985455D02*
X35988182Y20413750D01*
Y20406250*
X35985455Y20398750*
X35985455D02*
X35982727Y20395000D01*
X35974545Y20391250*
X35950000*
X35969091D02*
X35988182Y20350000D01*
X36040000Y20428750D02*
X36012727Y20376250D01*
X36053636*
X36040000Y20428750D02*
Y20350000D01*
X36080909Y20410000D02*
Y20413750D01*
X36083636Y20421250*
X36086364Y20425000*
X36091818Y20428750*
X36102727*
X36108182Y20425000*
X36110909Y20421250*
X36113636Y20413750*
Y20406250*
X36110909Y20398750*
X36105455Y20387500*
X36105455D02*
X36078182Y20350000D01*
X36116364*
X38450000Y16878750D02*
Y16800000D01*
Y16878750D02*
X38474545D01*
X38482727Y16875000*
X38485455Y16871250*
X38485455D02*
X38488182Y16863750D01*
Y16856250*
X38485455Y16848750*
X38485455D02*
X38482727Y16845000D01*
X38474545Y16841250*
X38450000*
X38469091D02*
X38488182Y16800000D01*
X38540000Y16878750D02*
X38512727Y16826250D01*
X38553636*
X38540000Y16878750D02*
Y16800000D01*
X38583636Y16878750D02*
X38613636D01*
X38597273Y16848750*
X38605455*
X38605455D02*
X38610909Y16845000D01*
X38613636Y16841250*
X38616364Y16830000*
Y16822500*
X38613636Y16811250*
X38608182Y16803750*
X38600000Y16800000*
X38591818*
X38583636Y16803750*
X38580909Y16807500*
X38578182Y16815000*
X37650000Y16878750D02*
Y16800000D01*
Y16878750D02*
X37674545D01*
X37682727Y16875000*
X37685455Y16871250*
X37685455D02*
X37688182Y16863750D01*
Y16856250*
X37685455Y16848750*
X37685455D02*
X37682727Y16845000D01*
X37674545Y16841250*
X37650000*
X37669091D02*
X37688182Y16800000D01*
X37740000Y16878750D02*
X37712727Y16826250D01*
X37753636*
X37740000Y16878750D02*
Y16800000D01*
X37805455Y16878750D02*
X37778182Y16826250D01*
X37819091*
X37805455Y16878750D02*
Y16800000D01*
X38450000Y21328750D02*
Y21250000D01*
Y21328750D02*
X38474545D01*
X38482727Y21325000*
X38485455Y21321250*
X38485455D02*
X38488182Y21313750D01*
Y21306250*
X38485455Y21298750*
X38485455D02*
X38482727Y21295000D01*
X38474545Y21291250*
X38450000*
X38469091D02*
X38488182Y21250000D01*
X38540000Y21328750D02*
X38512727Y21276250D01*
X38553636*
X38540000Y21328750D02*
Y21250000D01*
X38613636Y21328750D02*
X38586364D01*
X38583636Y21295000*
X38586364Y21298750*
X38594545Y21302500*
X38602727*
X38610909Y21298750*
X38616364Y21291250*
X38619091Y21280000*
X38616364Y21272500*
X38613636Y21261250*
X38608182Y21253750*
X38600000Y21250000*
X38591818*
X38583636Y21253750*
X38580909Y21257500*
X38578182Y21265000*
X37637273Y21337500D02*
Y21258750D01*
Y21337500D02*
X37661818D01*
X37670000Y21333750*
X37672727Y21330000*
X37675455Y21322500*
X37675455D02*
Y21315000D01*
X37675455D02*
X37672727Y21307500D01*
X37670000Y21303750*
X37661818Y21300000*
X37637273*
X37656364D02*
X37675455Y21258750D01*
X37727273Y21337500D02*
X37700000Y21285000D01*
X37740909*
X37727273Y21337500D02*
Y21258750D01*
X37798182Y21326250D02*
X37795455Y21333750D01*
X37795455D02*
X37787273Y21337500D01*
X37781818*
X37773636Y21333750*
X37768182Y21322500*
X37765455Y21303750*
X37765455D02*
Y21285000D01*
X37765455D02*
X37768182Y21270000D01*
X37773636Y21262500*
X37781818Y21258750*
X37784545*
X37792727Y21262500*
X37798182Y21270000*
X37800909Y21281250*
Y21285000*
X37798182Y21296250*
X37792727Y21303750*
X37784545Y21307500*
X37781818*
X37773636Y21303750*
X37768182Y21296250*
X37765455Y21285000*
X37650000Y15953750D02*
Y15875000D01*
Y15953750D02*
X37674545D01*
X37682727Y15950000*
X37685455Y15946250*
X37685455D02*
X37688182Y15938750D01*
Y15931250*
X37685455Y15923750*
X37685455D02*
X37682727Y15920000D01*
X37674545Y15916250*
X37650000*
X37669091D02*
X37688182Y15875000D01*
X37740000Y15953750D02*
X37712727Y15901250D01*
X37753636*
X37740000Y15953750D02*
Y15875000D01*
X37816364Y15953750D02*
X37789091Y15875000D01*
X37778182Y15953750D02*
X37816364D01*
X37650000Y20428750D02*
Y20350000D01*
Y20428750D02*
X37674545D01*
X37682727Y20425000*
X37685455Y20421250*
X37685455D02*
X37688182Y20413750D01*
Y20406250*
X37685455Y20398750*
X37685455D02*
X37682727Y20395000D01*
X37674545Y20391250*
X37650000*
X37669091D02*
X37688182Y20350000D01*
X37740000Y20428750D02*
X37712727Y20376250D01*
X37753636*
X37740000Y20428750D02*
Y20350000D01*
X37791818Y20428750D02*
X37783636Y20425000D01*
X37780909Y20417500*
Y20410000*
X37783636Y20402500*
X37789091Y20398750*
X37800000Y20395000*
X37808182Y20391250*
X37813636Y20383750*
X37816364Y20376250*
Y20365000*
X37813636Y20357500*
X37810909Y20353750*
X37802727Y20350000*
X37791818*
X37783636Y20353750*
X37780909Y20357500*
X37778182Y20365000*
Y20376250*
X37780909Y20383750*
X37786364Y20391250*
X37794545Y20395000*
X37805455Y20398750*
X37805455D02*
X37810909Y20402500D01*
X37813636Y20410000*
Y20417500*
X37810909Y20425000*
X37802727Y20428750*
X37791818*
X25750000Y15953750D02*
Y15875000D01*
Y15953750D02*
X25774545D01*
X25782727Y15950000*
X25785455Y15946250*
X25785455D02*
X25788182Y15938750D01*
Y15931250*
X25785455Y15923750*
X25785455D02*
X25782727Y15920000D01*
X25774545Y15916250*
X25750000*
X25769091D02*
X25788182Y15875000D01*
X25848182Y15953750D02*
X25820909D01*
X25818182Y15920000*
X25820909Y15923750*
X25829091Y15927500*
X25837273*
X25845455Y15923750*
X25845455D02*
X25850909Y15916250D01*
X25853636Y15905000*
X25850909Y15897500*
X25848182Y15886250*
X25842727Y15878750*
X25834545Y15875000*
X25826364*
X25818182Y15878750*
X25815455Y15882500*
X25815455D02*
X25812727Y15890000D01*
X25750000Y20428750D02*
Y20350000D01*
Y20428750D02*
X25774545D01*
X25782727Y20425000*
X25785455Y20421250*
X25785455D02*
X25788182Y20413750D01*
Y20406250*
X25785455Y20398750*
X25785455D02*
X25782727Y20395000D01*
X25774545Y20391250*
X25750000*
X25769091D02*
X25788182Y20350000D01*
X25845455Y20417500D02*
X25842727Y20425000D01*
X25834545Y20428750*
X25829091*
X25820909Y20425000*
X25815455Y20413750*
X25815455D02*
X25812727Y20395000D01*
Y20376250*
X25815455Y20361250*
X25815455D02*
X25820909Y20353750D01*
X25829091Y20350000*
X25831818*
X25840000Y20353750*
X25845455Y20361250*
X25845455D02*
X25848182Y20372500D01*
Y20376250*
X25845455Y20387500*
X25845455D02*
X25840000Y20395000D01*
X25831818Y20398750*
X25829091*
X25820909Y20395000*
X25815455Y20387500*
X25815455D02*
X25812727Y20376250D01*
X28275000Y16878750D02*
Y16800000D01*
Y16878750D02*
X28299545D01*
X28307727Y16875000*
X28310455Y16871250*
X28310455D02*
X28313182Y16863750D01*
Y16856250*
X28310455Y16848750*
X28310455D02*
X28307727Y16845000D01*
X28299545Y16841250*
X28275000*
X28294091D02*
X28313182Y16800000D01*
X28375909Y16878750D02*
X28348636Y16800000D01*
X28337727Y16878750D02*
X28375909D01*
X27475000D02*
Y16800000D01*
Y16878750D02*
X27499545D01*
X27507727Y16875000*
X27510455Y16871250*
X27510455D02*
X27513182Y16863750D01*
Y16856250*
X27510455Y16848750*
X27510455D02*
X27507727Y16845000D01*
X27499545Y16841250*
X27475000*
X27494091D02*
X27513182Y16800000D01*
X27551364Y16878750D02*
X27543182Y16875000D01*
X27540455Y16867500*
X27540455D02*
Y16860000D01*
X27540455D02*
X27543182Y16852500D01*
X27548636Y16848750*
X27559545Y16845000*
X27567727Y16841250*
X27573182Y16833750*
X27575909Y16826250*
Y16815000*
X27573182Y16807500*
X27570455Y16803750*
X27570455D02*
X27562273Y16800000D01*
X27551364*
X27543182Y16803750*
X27540455Y16807500*
X27540455D02*
X27537727Y16815000D01*
Y16826250*
X27540455Y16833750*
X27540455D02*
X27545909Y16841250D01*
X27554091Y16845000*
X27565000Y16848750*
X27570455Y16852500*
X27570455D02*
X27573182Y16860000D01*
Y16867500*
X27570455Y16875000*
X27570455D02*
X27562273Y16878750D01*
X27551364*
X28275000Y21353750D02*
Y21275000D01*
Y21353750D02*
X28299545D01*
X28307727Y21350000*
X28310455Y21346250*
X28310455D02*
X28313182Y21338750D01*
Y21331250*
X28310455Y21323750*
X28310455D02*
X28307727Y21320000D01*
X28299545Y21316250*
X28275000*
X28294091D02*
X28313182Y21275000D01*
X28373182Y21327500D02*
X28370455Y21316250D01*
X28370455D02*
X28365000Y21308750D01*
X28356818Y21305000*
X28354091*
X28345909Y21308750*
X28340455Y21316250*
X28340455D02*
X28337727Y21327500D01*
Y21331250*
X28340455Y21342500*
X28340455D02*
X28345909Y21350000D01*
X28354091Y21353750*
X28356818*
X28365000Y21350000*
X28370455Y21342500*
X28370455D02*
X28373182Y21327500D01*
Y21308750*
X28370455Y21290000*
X28370455D02*
X28365000Y21278750D01*
X28356818Y21275000*
X28351364*
X28343182Y21278750*
X28340455Y21286250*
X26725000Y14728750D02*
Y14650000D01*
Y14728750D02*
X26749545D01*
X26749545D02*
X26757727Y14725000D01*
X26760455Y14721250*
X26763182Y14713750*
Y14706250*
X26760455Y14698750*
X26757727Y14695000*
X26749545Y14691250*
X26749545D02*
X26725000D01*
X26744091D02*
X26763182Y14650000D01*
X26806818Y14728750D02*
Y14650000D01*
X26787727Y14728750D02*
X26825909D01*
X26850455Y14713750D02*
X26855909Y14717500D01*
X26864091Y14728750*
Y14650000*
X33550000Y19153750D02*
Y19075000D01*
Y19153750D02*
X33574545D01*
X33574545D02*
X33582727Y19150000D01*
X33585455Y19146250*
X33588182Y19138750*
Y19131250*
X33585455Y19123750*
X33582727Y19120000*
X33574545Y19116250*
X33574545D02*
X33550000D01*
X33569091D02*
X33588182Y19075000D01*
X33631818Y19153750D02*
Y19075000D01*
X33612727Y19153750D02*
X33650909D01*
X33675455Y19138750D02*
X33680909Y19142500D01*
X33689091Y19153750*
Y19075000*
X33730000Y19153750D02*
X33721818Y19150000D01*
X33716364Y19138750*
X33713636Y19120000*
Y19108750*
X33716364Y19090000*
X33721818Y19078750*
X33730000Y19075000*
X33735455*
X33743636Y19078750*
X33749091Y19090000*
X33751818Y19108750*
Y19120000*
X33749091Y19138750*
X33743636Y19150000*
X33735455Y19153750*
X33730000*
X35225000Y14728750D02*
Y14650000D01*
Y14728750D02*
X35249545D01*
X35249545D02*
X35257727Y14725000D01*
X35260455Y14721250*
X35263182Y14713750*
Y14706250*
X35260455Y14698750*
X35257727Y14695000*
X35249545Y14691250*
X35249545D02*
X35225000D01*
X35244091D02*
X35263182Y14650000D01*
X35306818Y14728750D02*
Y14650000D01*
X35287727Y14728750D02*
X35325909D01*
X35350455Y14713750D02*
X35355909Y14717500D01*
X35364091Y14728750*
Y14650000*
X35388636Y14713750D02*
X35394091Y14717500D01*
X35402273Y14728750*
Y14650000*
X35250000Y19153750D02*
Y19075000D01*
Y19153750D02*
X35274545D01*
X35274545D02*
X35282727Y19150000D01*
X35285455Y19146250*
X35288182Y19138750*
Y19131250*
X35285455Y19123750*
X35282727Y19120000*
X35274545Y19116250*
X35274545D02*
X35250000D01*
X35269091D02*
X35288182Y19075000D01*
X35331818Y19153750D02*
Y19075000D01*
X35312727Y19153750D02*
X35350909D01*
X35375455Y19138750D02*
X35380909Y19142500D01*
X35389091Y19153750*
Y19075000*
X35416364Y19135000D02*
Y19138750D01*
X35419091Y19146250*
X35421818Y19150000*
X35427273Y19153750*
X35438182*
X35443636Y19150000*
X35446364Y19146250*
X35449091Y19138750*
Y19131250*
X35446364Y19123750*
X35440909Y19112500*
X35413636Y19075000*
X35451818*
X36925000Y14728750D02*
Y14650000D01*
Y14728750D02*
X36949545D01*
X36949545D02*
X36957727Y14725000D01*
X36960455Y14721250*
X36963182Y14713750*
Y14706250*
X36960455Y14698750*
X36957727Y14695000*
X36949545Y14691250*
X36949545D02*
X36925000D01*
X36944091D02*
X36963182Y14650000D01*
X37006818Y14728750D02*
Y14650000D01*
X36987727Y14728750D02*
X37025909D01*
X37050455Y14713750D02*
X37055909Y14717500D01*
X37064091Y14728750*
Y14650000*
X37094091Y14728750D02*
X37124091D01*
X37107727Y14698750*
X37115909*
X37121364Y14695000*
X37124091Y14691250*
X37126818Y14680000*
Y14672500*
X37124091Y14661250*
X37118636Y14653750*
X37110455Y14650000*
X37102273*
X37094091Y14653750*
X37091364Y14657500*
X37088636Y14665000*
X36950000Y19153750D02*
Y19075000D01*
Y19153750D02*
X36974545D01*
X36974545D02*
X36982727Y19150000D01*
X36985455Y19146250*
X36988182Y19138750*
Y19131250*
X36985455Y19123750*
X36982727Y19120000*
X36974545Y19116250*
X36974545D02*
X36950000D01*
X36969091D02*
X36988182Y19075000D01*
X37031818Y19153750D02*
Y19075000D01*
X37012727Y19153750D02*
X37050909D01*
X37075455Y19138750D02*
X37080909Y19142500D01*
X37089091Y19153750*
Y19075000*
X37140909Y19153750D02*
X37113636Y19101250D01*
X37154545*
X37140909Y19153750D02*
Y19075000D01*
X38625000Y14728750D02*
Y14650000D01*
Y14728750D02*
X38649545D01*
X38649545D02*
X38657727Y14725000D01*
X38660455Y14721250*
X38663182Y14713750*
Y14706250*
X38660455Y14698750*
X38657727Y14695000*
X38649545Y14691250*
X38649545D02*
X38625000D01*
X38644091D02*
X38663182Y14650000D01*
X38706818Y14728750D02*
Y14650000D01*
X38687727Y14728750D02*
X38725909D01*
X38750455Y14713750D02*
X38755909Y14717500D01*
X38764091Y14728750*
Y14650000*
X38824091Y14728750D02*
X38796818D01*
X38794091Y14695000*
X38796818Y14698750*
X38805000Y14702500*
X38813182*
X38821364Y14698750*
X38826818Y14691250*
X38829545Y14680000*
X38829545D02*
X38826818Y14672500D01*
X38824091Y14661250*
X38818636Y14653750*
X38810455Y14650000*
X38802273*
X38794091Y14653750*
X38791364Y14657500*
X38788636Y14665000*
X38650000Y19153750D02*
Y19075000D01*
Y19153750D02*
X38674545D01*
X38674545D02*
X38682727Y19150000D01*
X38685455Y19146250*
X38688182Y19138750*
Y19131250*
X38685455Y19123750*
X38682727Y19120000*
X38674545Y19116250*
X38674545D02*
X38650000D01*
X38669091D02*
X38688182Y19075000D01*
X38731818Y19153750D02*
Y19075000D01*
X38712727Y19153750D02*
X38750909D01*
X38775455Y19138750D02*
X38780909Y19142500D01*
X38789091Y19153750*
Y19075000*
X38846364Y19142500D02*
X38843636Y19150000D01*
X38835455Y19153750*
X38830000*
X38821818Y19150000*
X38816364Y19138750*
X38813636Y19120000*
Y19101250*
X38816364Y19086250*
X38821818Y19078750*
X38830000Y19075000*
X38832727*
X38840909Y19078750*
X38846364Y19086250*
X38849091Y19097500*
Y19101250*
X38846364Y19112500*
X38840909Y19120000*
X38832727Y19123750*
X38830000*
X38821818Y19120000*
X38816364Y19112500*
X38813636Y19101250*
X26750000Y19153750D02*
Y19075000D01*
Y19153750D02*
X26774545D01*
X26774545D02*
X26782727Y19150000D01*
X26785455Y19146250*
X26788182Y19138750*
Y19131250*
X26785455Y19123750*
X26782727Y19120000*
X26774545Y19116250*
X26774545D02*
X26750000D01*
X26769091D02*
X26788182Y19075000D01*
X26831818Y19153750D02*
Y19075000D01*
X26812727Y19153750D02*
X26850909D01*
X26878182Y19135000D02*
Y19138750D01*
X26880909Y19146250*
X26883636Y19150000*
X26889091Y19153750*
X26900000*
X26905455Y19150000*
X26908182Y19146250*
X26910909Y19138750*
Y19131250*
X26908182Y19123750*
X26902727Y19112500*
X26875455Y19075000*
X26913636*
X28425000Y14728750D02*
Y14650000D01*
Y14728750D02*
X28449545D01*
X28449545D02*
X28457727Y14725000D01*
X28460455Y14721250*
X28463182Y14713750*
Y14706250*
X28460455Y14698750*
X28457727Y14695000*
X28449545Y14691250*
X28449545D02*
X28425000D01*
X28444091D02*
X28463182Y14650000D01*
X28506818Y14728750D02*
Y14650000D01*
X28487727Y14728750D02*
X28525909D01*
X28555909D02*
X28585909D01*
X28569545Y14698750*
X28569545D02*
X28577727D01*
X28583182Y14695000*
X28585909Y14691250*
X28588636Y14680000*
Y14672500*
X28585909Y14661250*
X28580455Y14653750*
X28572273Y14650000*
X28564091*
X28555909Y14653750*
X28553182Y14657500*
X28550455Y14665000*
X28450000Y19153750D02*
Y19075000D01*
Y19153750D02*
X28474545D01*
X28474545D02*
X28482727Y19150000D01*
X28485455Y19146250*
X28488182Y19138750*
Y19131250*
X28485455Y19123750*
X28482727Y19120000*
X28474545Y19116250*
X28474545D02*
X28450000D01*
X28469091D02*
X28488182Y19075000D01*
X28531818Y19153750D02*
Y19075000D01*
X28512727Y19153750D02*
X28550909D01*
X28602727D02*
X28575455Y19101250D01*
X28616364*
X28602727Y19153750D02*
Y19075000D01*
X30125000Y14728750D02*
Y14650000D01*
Y14728750D02*
X30149545D01*
X30149545D02*
X30157727Y14725000D01*
X30160455Y14721250*
X30163182Y14713750*
Y14706250*
X30160455Y14698750*
X30157727Y14695000*
X30149545Y14691250*
X30149545D02*
X30125000D01*
X30144091D02*
X30163182Y14650000D01*
X30206818Y14728750D02*
Y14650000D01*
X30187727Y14728750D02*
X30225909D01*
X30285909D02*
X30258636D01*
X30255909Y14695000*
X30258636Y14698750*
X30266818Y14702500*
X30275000*
X30283182Y14698750*
X30288636Y14691250*
X30291364Y14680000*
X30288636Y14672500*
X30285909Y14661250*
X30280455Y14653750*
X30272273Y14650000*
X30264091*
X30255909Y14653750*
X30253182Y14657500*
X30250455Y14665000*
X30150000Y19153750D02*
Y19075000D01*
Y19153750D02*
X30174545D01*
X30174545D02*
X30182727Y19150000D01*
X30185455Y19146250*
X30188182Y19138750*
Y19131250*
X30185455Y19123750*
X30182727Y19120000*
X30174545Y19116250*
X30174545D02*
X30150000D01*
X30169091D02*
X30188182Y19075000D01*
X30231818Y19153750D02*
Y19075000D01*
X30212727Y19153750D02*
X30250909D01*
X30308182Y19142500D02*
X30305455Y19150000D01*
X30297273Y19153750*
X30291818*
X30283636Y19150000*
X30278182Y19138750*
X30275455Y19120000*
Y19101250*
X30278182Y19086250*
X30283636Y19078750*
X30291818Y19075000*
X30294545*
X30294545D02*
X30302727Y19078750D01*
X30308182Y19086250*
X30310909Y19097500*
Y19101250*
X30308182Y19112500*
X30302727Y19120000*
X30294545Y19123750*
X30294545D02*
X30291818D01*
X30283636Y19120000*
X30278182Y19112500*
X30275455Y19101250*
X31825000Y14728750D02*
Y14650000D01*
Y14728750D02*
X31849545D01*
X31849545D02*
X31857727Y14725000D01*
X31860455Y14721250*
X31863182Y14713750*
Y14706250*
X31860455Y14698750*
X31857727Y14695000*
X31849545Y14691250*
X31849545D02*
X31825000D01*
X31844091D02*
X31863182Y14650000D01*
X31906818Y14728750D02*
Y14650000D01*
X31887727Y14728750D02*
X31925909D01*
X31988636D02*
X31961364Y14650000D01*
X31950455Y14728750D02*
X31988636D01*
X31850000Y19153750D02*
Y19075000D01*
Y19153750D02*
X31874545D01*
X31874545D02*
X31882727Y19150000D01*
X31885455Y19146250*
X31888182Y19138750*
Y19131250*
X31885455Y19123750*
X31882727Y19120000*
X31874545Y19116250*
X31874545D02*
X31850000D01*
X31869091D02*
X31888182Y19075000D01*
X31931818Y19153750D02*
Y19075000D01*
X31912727Y19153750D02*
X31950909D01*
X31989091D02*
X31980909Y19150000D01*
X31978182Y19142500*
Y19135000*
X31980909Y19127500*
X31986364Y19123750*
X31997273Y19120000*
X32005455Y19116250*
X32010909Y19108750*
X32013636Y19101250*
Y19090000*
X32010909Y19082500*
X32008182Y19078750*
X32000000Y19075000*
X31989091*
X31980909Y19078750*
X31978182Y19082500*
X31975455Y19090000*
Y19101250*
X31978182Y19108750*
X31983636Y19116250*
X31991818Y19120000*
X32002727Y19123750*
X32008182Y19127500*
X32010909Y19135000*
Y19142500*
X32008182Y19150000*
X32000000Y19153750*
X31989091*
X33525000Y14728750D02*
Y14650000D01*
Y14728750D02*
X33549545D01*
X33549545D02*
X33557727Y14725000D01*
X33560455Y14721250*
X33563182Y14713750*
Y14706250*
X33560455Y14698750*
X33557727Y14695000*
X33549545Y14691250*
X33549545D02*
X33525000D01*
X33544091D02*
X33563182Y14650000D01*
X33606818Y14728750D02*
Y14650000D01*
X33587727Y14728750D02*
X33625909D01*
X33685909Y14702500D02*
X33683182Y14691250D01*
X33677727Y14683750*
X33669545Y14680000*
X33669545D02*
X33666818D01*
X33658636Y14683750*
X33653182Y14691250*
X33650455Y14702500*
Y14706250*
X33653182Y14717500*
X33658636Y14725000*
X33666818Y14728750*
X33669545*
X33669545D02*
X33677727Y14725000D01*
X33683182Y14717500*
X33685909Y14702500*
Y14683750*
X33683182Y14665000*
X33677727Y14653750*
X33669545Y14650000*
X33669545D02*
X33664091D01*
X33655909Y14653750*
X33653182Y14661250*
X26950000Y17828750D02*
Y17772500D01*
X26952727Y17761250*
X26958182Y17753750*
X26966364Y17750000*
X26971818*
X26980000Y17753750*
X26985455Y17761250*
X26985455D02*
X26988182Y17772500D01*
Y17828750*
X27012727Y17813750D02*
X27018182Y17817500D01*
X27026364Y17828750*
Y17750000*
X33700000Y22278750D02*
Y22222500D01*
X33702727Y22211250*
X33708182Y22203750*
X33716364Y22200000*
X33721818*
X33730000Y22203750*
X33735455Y22211250*
X33735455D02*
X33738182Y22222500D01*
Y22278750*
X33762727Y22263750D02*
X33768182Y22267500D01*
X33776364Y22278750*
Y22200000*
X33817273Y22278750D02*
X33809091Y22275000D01*
X33803636Y22263750*
X33800909Y22245000*
Y22233750*
X33803636Y22215000*
X33809091Y22203750*
X33817273Y22200000*
X33822727*
X33830909Y22203750*
X33836364Y22215000*
X33839091Y22233750*
Y22245000*
X33836364Y22263750*
X33830909Y22275000*
X33822727Y22278750*
X33817273*
X35450000Y17828750D02*
Y17772500D01*
X35452727Y17761250*
X35458182Y17753750*
X35466364Y17750000*
X35471818*
X35480000Y17753750*
X35485455Y17761250*
X35485455D02*
X35488182Y17772500D01*
Y17828750*
X35512727Y17813750D02*
X35518182Y17817500D01*
X35526364Y17828750*
Y17750000*
X35550909Y17813750D02*
X35556364Y17817500D01*
X35564545Y17828750*
Y17750000*
X35400000Y22278750D02*
Y22222500D01*
X35402727Y22211250*
X35408182Y22203750*
X35416364Y22200000*
X35421818*
X35430000Y22203750*
X35435455Y22211250*
X35435455D02*
X35438182Y22222500D01*
Y22278750*
X35462727Y22263750D02*
X35468182Y22267500D01*
X35476364Y22278750*
Y22200000*
X35503636Y22260000D02*
Y22263750D01*
X35506364Y22271250*
X35509091Y22275000*
X35514545Y22278750*
X35525455*
X35525455D02*
X35530909Y22275000D01*
X35533636Y22271250*
X35536364Y22263750*
Y22256250*
X35533636Y22248750*
X35528182Y22237500*
X35500909Y22200000*
X35539091*
X37150000Y17828750D02*
Y17772500D01*
X37152727Y17761250*
X37158182Y17753750*
X37166364Y17750000*
X37171818*
X37180000Y17753750*
X37185455Y17761250*
X37185455D02*
X37188182Y17772500D01*
Y17828750*
X37212727Y17813750D02*
X37218182Y17817500D01*
X37226364Y17828750*
Y17750000*
X37256364Y17828750D02*
X37286364D01*
X37270000Y17798750*
X37278182*
X37283636Y17795000*
X37286364Y17791250*
X37289091Y17780000*
Y17772500*
X37286364Y17761250*
X37280909Y17753750*
X37272727Y17750000*
X37264545*
X37256364Y17753750*
X37253636Y17757500*
X37250909Y17765000*
X37100000Y22278750D02*
Y22222500D01*
X37102727Y22211250*
X37108182Y22203750*
X37116364Y22200000*
X37121818*
X37130000Y22203750*
X37135455Y22211250*
X37135455D02*
X37138182Y22222500D01*
Y22278750*
X37162727Y22263750D02*
X37168182Y22267500D01*
X37176364Y22278750*
Y22200000*
X37228182Y22278750D02*
X37200909Y22226250D01*
X37241818*
X37228182Y22278750D02*
Y22200000D01*
X38850000Y17828750D02*
Y17772500D01*
X38852727Y17761250*
X38858182Y17753750*
X38866364Y17750000*
X38871818*
X38880000Y17753750*
X38885455Y17761250*
X38885455D02*
X38888182Y17772500D01*
Y17828750*
X38912727Y17813750D02*
X38918182Y17817500D01*
X38926364Y17828750*
Y17750000*
X38986364Y17828750D02*
X38959091D01*
X38956364Y17795000*
X38959091Y17798750*
X38967273Y17802500*
X38975455*
X38975455D02*
X38983636Y17798750D01*
X38989091Y17791250*
X38991818Y17780000*
X38989091Y17772500*
X38986364Y17761250*
X38980909Y17753750*
X38972727Y17750000*
X38964545*
X38956364Y17753750*
X38953636Y17757500*
X38950909Y17765000*
X38800000Y22278750D02*
Y22222500D01*
X38802727Y22211250*
X38808182Y22203750*
X38816364Y22200000*
X38821818*
X38830000Y22203750*
X38835455Y22211250*
X38835455D02*
X38838182Y22222500D01*
Y22278750*
X38862727Y22263750D02*
X38868182Y22267500D01*
X38876364Y22278750*
Y22200000*
X38933636Y22267500D02*
X38930909Y22275000D01*
X38922727Y22278750*
X38917273*
X38909091Y22275000*
X38903636Y22263750*
X38900909Y22245000*
Y22226250*
X38903636Y22211250*
X38909091Y22203750*
X38917273Y22200000*
X38920000*
X38928182Y22203750*
X38933636Y22211250*
X38936364Y22222500*
Y22226250*
X38933636Y22237500*
X38928182Y22245000*
X38920000Y22248750*
X38917273*
X38909091Y22245000*
X38903636Y22237500*
X38900909Y22226250*
X26900000Y22278750D02*
Y22222500D01*
X26902727Y22211250*
X26908182Y22203750*
X26916364Y22200000*
X26921818*
X26930000Y22203750*
X26935455Y22211250*
X26935455D02*
X26938182Y22222500D01*
Y22278750*
X26965455Y22260000D02*
Y22263750D01*
X26965455D02*
X26968182Y22271250D01*
X26970909Y22275000*
X26976364Y22278750*
X26987273*
X26992727Y22275000*
X26995455Y22271250*
X26995455D02*
X26998182Y22263750D01*
Y22256250*
X26995455Y22248750*
X26995455D02*
X26990000Y22237500D01*
X26962727Y22200000*
X27000909*
X28650000Y17828750D02*
Y17772500D01*
X28652727Y17761250*
X28658182Y17753750*
X28666364Y17750000*
X28671818*
X28680000Y17753750*
X28685455Y17761250*
X28685455D02*
X28688182Y17772500D01*
Y17828750*
X28718182D02*
X28748182D01*
X28731818Y17798750*
X28740000*
X28745455Y17795000*
X28745455D02*
X28748182Y17791250D01*
X28750909Y17780000*
Y17772500*
X28748182Y17761250*
X28742727Y17753750*
X28734545Y17750000*
X28726364*
X28718182Y17753750*
X28715455Y17757500*
X28715455D02*
X28712727Y17765000D01*
X28600000Y22278750D02*
Y22222500D01*
X28602727Y22211250*
X28608182Y22203750*
X28616364Y22200000*
X28621818*
X28630000Y22203750*
X28635455Y22211250*
X28635455D02*
X28638182Y22222500D01*
Y22278750*
X28690000D02*
X28662727Y22226250D01*
X28703636*
X28690000Y22278750D02*
Y22200000D01*
X30350000Y17828750D02*
Y17772500D01*
X30352727Y17761250*
X30358182Y17753750*
X30366364Y17750000*
X30371818*
X30380000Y17753750*
X30385455Y17761250*
X30385455D02*
X30388182Y17772500D01*
Y17828750*
X30448182D02*
X30420909D01*
X30418182Y17795000*
X30420909Y17798750*
X30429091Y17802500*
X30437273*
X30445455Y17798750*
X30445455D02*
X30450909Y17791250D01*
X30453636Y17780000*
X30450909Y17772500*
X30448182Y17761250*
X30442727Y17753750*
X30434545Y17750000*
X30426364*
X30418182Y17753750*
X30415455Y17757500*
X30415455D02*
X30412727Y17765000D01*
X30300000Y22278750D02*
Y22222500D01*
X30302727Y22211250*
X30308182Y22203750*
X30316364Y22200000*
X30321818*
X30330000Y22203750*
X30335455Y22211250*
X30335455D02*
X30338182Y22222500D01*
Y22278750*
X30395455Y22267500D02*
X30392727Y22275000D01*
X30384545Y22278750*
X30379091*
X30370909Y22275000*
X30365455Y22263750*
X30365455D02*
X30362727Y22245000D01*
Y22226250*
X30365455Y22211250*
X30365455D02*
X30370909Y22203750D01*
X30379091Y22200000*
X30381818*
X30390000Y22203750*
X30395455Y22211250*
X30395455D02*
X30398182Y22222500D01*
Y22226250*
X30395455Y22237500*
X30395455D02*
X30390000Y22245000D01*
X30381818Y22248750*
X30379091*
X30370909Y22245000*
X30365455Y22237500*
X30365455D02*
X30362727Y22226250D01*
X32050000Y17828750D02*
Y17772500D01*
X32052727Y17761250*
X32058182Y17753750*
X32066364Y17750000*
X32071818*
X32080000Y17753750*
X32085455Y17761250*
X32085455D02*
X32088182Y17772500D01*
Y17828750*
X32150909D02*
X32123636Y17750000D01*
X32112727Y17828750D02*
X32150909D01*
X32000000Y22278750D02*
Y22222500D01*
X32002727Y22211250*
X32008182Y22203750*
X32016364Y22200000*
X32021818*
X32030000Y22203750*
X32035455Y22211250*
X32035455D02*
X32038182Y22222500D01*
Y22278750*
X32076364D02*
X32068182Y22275000D01*
X32065455Y22267500*
X32065455D02*
Y22260000D01*
X32065455D02*
X32068182Y22252500D01*
X32073636Y22248750*
X32084545Y22245000*
X32092727Y22241250*
X32098182Y22233750*
X32100909Y22226250*
Y22215000*
X32098182Y22207500*
X32095455Y22203750*
X32095455D02*
X32087273Y22200000D01*
X32076364*
X32068182Y22203750*
X32065455Y22207500*
X32065455D02*
X32062727Y22215000D01*
Y22226250*
X32065455Y22233750*
X32065455D02*
X32070909Y22241250D01*
X32079091Y22245000*
X32090000Y22248750*
X32095455Y22252500*
X32095455D02*
X32098182Y22260000D01*
Y22267500*
X32095455Y22275000*
X32095455D02*
X32087273Y22278750D01*
X32076364*
X33750000Y17828750D02*
Y17772500D01*
X33752727Y17761250*
X33758182Y17753750*
X33766364Y17750000*
X33771818*
X33780000Y17753750*
X33785455Y17761250*
X33785455D02*
X33788182Y17772500D01*
Y17828750*
X33848182Y17802500D02*
X33845455Y17791250D01*
X33845455D02*
X33840000Y17783750D01*
X33831818Y17780000*
X33829091*
X33820909Y17783750*
X33815455Y17791250*
X33815455D02*
X33812727Y17802500D01*
Y17806250*
X33815455Y17817500*
X33815455D02*
X33820909Y17825000D01*
X33829091Y17828750*
X33831818*
X33840000Y17825000*
X33845455Y17817500*
X33845455D02*
X33848182Y17802500D01*
Y17783750*
X33845455Y17765000*
X33845455D02*
X33840000Y17753750D01*
X33831818Y17750000*
X33826364*
X33818182Y17753750*
X33815455Y17761250*
G54D58*
X35550000Y23950000D02*
X35400000D01*
X35550000Y23988100D02*
Y24128206D01*
X35525006Y24153200*
X35424994*
X35400000Y24128206*
Y23988100*
X35550000Y23911900D02*
Y23746800D01*
X35400000*
Y23911900*
X35750000Y23950000D02*
X35600000D01*
X35750000Y23988100D02*
Y24128206D01*
X35725006Y24153200*
X35624994*
X35600000Y24128206*
Y23988100*
X35750000Y23911900D02*
Y23746800D01*
X35600000*
Y23911900*
X36550000Y23950000D02*
X36400000D01*
X36550000Y23988100D02*
Y24128206D01*
X36525006Y24153200*
X36424994*
X36400000Y24128206*
Y23988100*
X36550000Y23911900D02*
Y23746800D01*
X36400000*
Y23911900*
X36750000Y23950000D02*
X36600000D01*
X36750000Y23988100D02*
Y24128206D01*
X36725006Y24153200*
X36624994*
X36600000Y24128206*
Y23988100*
X36750000Y23911900D02*
Y23746800D01*
X36600000*
Y23911900*
X36950000Y23950000D02*
X36800000D01*
X36950000Y23988100D02*
Y24128206D01*
X36925006Y24153200*
X36824994*
X36800000Y24128206*
Y23988100*
X36950000Y23911900D02*
Y23746800D01*
X36800000*
Y23911900*
X35825000Y23700000D02*
X35975000D01*
Y23900000*
X36175000*
Y23700000*
X36325000*
Y24130000*
X36255000Y24200000*
X36175000*
Y24000000*
X35975000*
Y24200000*
X35895000*
X35825000Y24130000*
Y23700000*
X35975000Y23975000D02*
G75*
G03Y23925000I0J-25000D01*
G01Y23975000D02*
X36175000D01*
Y23925000D02*
G03Y23975000I0J25000D01*
G01Y23925000D02*
X35975000D01*
X34825000Y23700000D02*
X34975000D01*
Y23900000*
X35175000*
Y23700000*
X35325000*
Y24130000*
X35255000Y24200000*
X35175000*
Y24000000*
X34975000*
Y24200000*
X34895000*
X34825000Y24130000*
Y23700000*
X34975000Y23975000D02*
G03Y23925000I0J-25000D01*
G01Y23975000D02*
X35175000D01*
Y23925000D02*
G03Y23975000I0J25000D01*
G01Y23925000D02*
X34975000D01*
X31577000Y19923000D02*
X31069000D01*
Y20177000*
X31577000*
Y19923000*
X33277000Y15473000D02*
X32769000D01*
Y15727000*
X33277000*
Y15473000*
Y19923000D02*
X32769000D01*
Y20177000*
X33277000*
Y19923000*
X34977000Y15473000D02*
X34469000D01*
Y15727000*
X34977000*
Y15473000*
Y19923000D02*
X34469000D01*
Y20177000*
X34977000*
Y19923000*
X36677000Y15473000D02*
X36169000D01*
Y15727000*
X36677000*
Y15473000*
Y19923000D02*
X36169000D01*
Y20177000*
X36677000*
Y19923000*
X38377000Y15473000D02*
X37869000D01*
Y15727000*
X38377000*
Y15473000*
Y19923000D02*
X37869000D01*
Y20177000*
X38377000*
Y19923000*
X26477000Y15473000D02*
X25969000D01*
Y15727000*
X26477000*
Y15473000*
Y19923000D02*
X25969000D01*
Y20177000*
X26477000*
Y19923000*
X28177000Y15473000D02*
X27669000D01*
Y15727000*
X28177000*
Y15473000*
Y19923000D02*
X27669000D01*
Y20177000*
X28177000*
Y19923000*
X29877000Y15473000D02*
X29369000D01*
Y15727000*
X29877000*
Y15473000*
Y19923000D02*
X29369000D01*
Y20177000*
X29877000*
Y19923000*
X31577000Y15473000D02*
X31069000D01*
Y15727000*
X31577000*
Y15473000*
X26098400Y16223800D02*
Y16160300D01*
X26225400*
X26098400Y16376200D02*
Y16439700D01*
X26225400*
X26327000Y16287300D02*
Y16312700D01*
X32898400Y20673800D02*
Y20610300D01*
X33025400*
X32898400Y20826200D02*
Y20889700D01*
X33025400*
X33127000Y20737300D02*
Y20762700D01*
X34598400Y16223800D02*
Y16160300D01*
X34725400*
X34598400Y16376200D02*
Y16439700D01*
X34725400*
X34827000Y16287300D02*
Y16312700D01*
X34598400Y20673800D02*
Y20610300D01*
X34725400*
X34598400Y20826200D02*
Y20889700D01*
X34725400*
X34827000Y20737300D02*
Y20762700D01*
X36298400Y16223800D02*
Y16160300D01*
X36425400*
X36298400Y16376200D02*
Y16439700D01*
X36425400*
X36527000Y16287300D02*
Y16312700D01*
X36298400Y20673800D02*
Y20610300D01*
X36425400*
X36298400Y20826200D02*
Y20889700D01*
X36425400*
X36527000Y20737300D02*
Y20762700D01*
X37998400Y16223800D02*
Y16160300D01*
X38125400*
X37998400Y16376200D02*
Y16439700D01*
X38125400*
X38227000Y16287300D02*
Y16312700D01*
X37998400Y20673800D02*
Y20610300D01*
X38125400*
X37998400Y20826200D02*
Y20889700D01*
X38125400*
X38227000Y20737300D02*
Y20762700D01*
X26098400Y20673800D02*
Y20610300D01*
X26225400*
X26098400Y20826200D02*
Y20889700D01*
X26225400*
X26327000Y20737300D02*
Y20762700D01*
X27798400Y16223800D02*
Y16160300D01*
X27925400*
X27798400Y16376200D02*
Y16439700D01*
X27925400*
X28027000Y16287300D02*
Y16312700D01*
X27798400Y20673800D02*
Y20610300D01*
X27925400*
X27798400Y20826200D02*
Y20889700D01*
X27925400*
X28027000Y20737300D02*
Y20762700D01*
X29498400Y16223800D02*
Y16160300D01*
X29625400*
X29498400Y16376200D02*
Y16439700D01*
X29625400*
X29727000Y16287300D02*
Y16312700D01*
X29498400Y20673800D02*
Y20610300D01*
X29625400*
X29498400Y20826200D02*
Y20889700D01*
X29625400*
X29727000Y20737300D02*
Y20762700D01*
X31198400Y16223800D02*
Y16160300D01*
X31325400*
X31198400Y16376200D02*
Y16439700D01*
X31325400*
X31427000Y16287300D02*
Y16312700D01*
X31198400Y20673800D02*
Y20610300D01*
X31325400*
X31198400Y20826200D02*
Y20889700D01*
X31325400*
X31427000Y20737300D02*
Y20762700D01*
X32898400Y16223800D02*
Y16160300D01*
X33025400*
X32898400Y16376200D02*
Y16439700D01*
X33025400*
X33127000Y16287300D02*
Y16312700D01*
X26285700Y16786500D02*
Y16600000D01*
X26514300*
Y16786500*
X26285700Y16913500D02*
Y17112500D01*
X26514300*
Y16913500*
X27825000Y21300000D02*
X27675000D01*
X27825000Y21338100D02*
Y21503200D01*
X27675000*
Y21338100*
X27825000Y21261900D02*
Y21096800D01*
X27675000*
Y21261900*
X27900000Y15875000D02*
Y16025000D01*
X27938100Y15875000D02*
X28103200D01*
Y16025000*
X27938100*
X27861900Y15875000D02*
X27696800D01*
Y16025000*
X27861900*
X27900000Y20325000D02*
Y20475000D01*
X27938100Y20325000D02*
X28103200D01*
Y20475000*
X27938100*
X27861900Y20325000D02*
X27696800D01*
Y20475000*
X27861900*
X29685700Y16786500D02*
Y16600000D01*
X29914300*
Y16786500*
X29685700Y16913500D02*
Y17112500D01*
X29914300*
Y16913500*
X29685700Y21236500D02*
Y21050000D01*
X29914300*
Y21236500*
X29685700Y21363500D02*
Y21562500D01*
X29914300*
Y21363500*
X29525000Y16850000D02*
X29375000D01*
X29525000Y16888100D02*
Y17053200D01*
X29375000*
Y16888100*
X29525000Y16811900D02*
Y16646800D01*
X29375000*
Y16811900*
X29525000Y21300000D02*
X29375000D01*
X29525000Y21338100D02*
Y21503200D01*
X29375000*
Y21338100*
X29525000Y21261900D02*
Y21096800D01*
X29375000*
Y21261900*
X29600000Y15875000D02*
Y16025000D01*
X29638100Y15875000D02*
X29803200D01*
Y16025000*
X29638100*
X29561900Y15875000D02*
X29396800D01*
Y16025000*
X29561900*
X29600000Y20325000D02*
Y20475000D01*
X29638100Y20325000D02*
X29803200D01*
Y20475000*
X29638100*
X29561900Y20325000D02*
X29396800D01*
Y20475000*
X29561900*
X31385700Y16786500D02*
Y16600000D01*
X31614300*
Y16786500*
X31385700Y16913500D02*
Y17112500D01*
X31614300*
Y16913500*
X26285700Y21236500D02*
Y21050000D01*
X26514300*
Y21236500*
X26285700Y21363500D02*
Y21562500D01*
X26514300*
Y21363500*
X31385700Y21236500D02*
Y21050000D01*
X31614300*
Y21236500*
X31385700Y21363500D02*
Y21562500D01*
X31614300*
Y21363500*
X31225000Y16850000D02*
X31075000D01*
X31225000Y16888100D02*
Y17053200D01*
X31075000*
Y16888100*
X31225000Y16811900D02*
Y16646800D01*
X31075000*
Y16811900*
X31225000Y21300000D02*
X31075000D01*
X31225000Y21338100D02*
Y21503200D01*
X31075000*
Y21338100*
X31225000Y21261900D02*
Y21096800D01*
X31075000*
Y21261900*
X31300000Y15875000D02*
Y16025000D01*
X31338100Y15875000D02*
X31503200D01*
Y16025000*
X31338100*
X31261900Y15875000D02*
X31096800D01*
Y16025000*
X31261900*
X31300000Y20325000D02*
Y20475000D01*
X31338100Y20325000D02*
X31503200D01*
Y20475000*
X31338100*
X31261900Y20325000D02*
X31096800D01*
Y20475000*
X31261900*
X33085700Y16786500D02*
Y16600000D01*
X33314300*
Y16786500*
X33085700Y16913500D02*
Y17112500D01*
X33314300*
Y16913500*
X33085700Y21236500D02*
Y21050000D01*
X33314300*
Y21236500*
X33085700Y21363500D02*
Y21562500D01*
X33314300*
Y21363500*
X32925000Y16850000D02*
X32775000D01*
X32925000Y16888100D02*
Y17053200D01*
X32775000*
Y16888100*
X32925000Y16811900D02*
Y16646800D01*
X32775000*
Y16811900*
X32925000Y21300000D02*
X32775000D01*
X32925000Y21338100D02*
Y21503200D01*
X32775000*
Y21338100*
X32925000Y21261900D02*
Y21096800D01*
X32775000*
Y21261900*
X33000000Y15875000D02*
Y16025000D01*
X33038100Y15875000D02*
X33203200D01*
Y16025000*
X33038100*
X32961900Y15875000D02*
X32796800D01*
Y16025000*
X32961900*
X26125000Y16850000D02*
X25975000D01*
X26125000Y16888100D02*
Y17053200D01*
X25975000*
Y16888100*
X26125000Y16811900D02*
Y16646800D01*
X25975000*
Y16811900*
X33000000Y20325000D02*
Y20475000D01*
X33038100Y20325000D02*
X33203200D01*
Y20475000*
X33038100*
X32961900Y20325000D02*
X32796800D01*
Y20475000*
X32961900*
X34785700Y16786500D02*
Y16600000D01*
X35014300*
Y16786500*
X34785700Y16913500D02*
Y17112500D01*
X35014300*
Y16913500*
X34625000Y16850000D02*
X34475000D01*
X34625000Y16888100D02*
Y17053200D01*
X34475000*
Y16888100*
X34625000Y16811900D02*
Y16646800D01*
X34475000*
Y16811900*
X34785700Y21236500D02*
Y21050000D01*
X35014300*
Y21236500*
X34785700Y21363500D02*
Y21562500D01*
X35014300*
Y21363500*
X34625000Y21300000D02*
X34475000D01*
X34625000Y21338100D02*
Y21503200D01*
X34475000*
Y21338100*
X34625000Y21261900D02*
Y21096800D01*
X34475000*
Y21261900*
X34700000Y15875000D02*
Y16025000D01*
X34738100Y15875000D02*
X34903200D01*
Y16025000*
X34738100*
X34661900Y15875000D02*
X34496800D01*
Y16025000*
X34661900*
X34700000Y20325000D02*
Y20475000D01*
X34738100Y20325000D02*
X34903200D01*
Y20475000*
X34738100*
X34661900Y20325000D02*
X34496800D01*
Y20475000*
X34661900*
X36485700Y16786500D02*
Y16600000D01*
X36714300*
Y16786500*
X36485700Y16913500D02*
Y17112500D01*
X36714300*
Y16913500*
X36485700Y21236500D02*
Y21050000D01*
X36714300*
Y21236500*
X36485700Y21363500D02*
Y21562500D01*
X36714300*
Y21363500*
X36325000Y16850000D02*
X36175000D01*
X36325000Y16888100D02*
Y17053200D01*
X36175000*
Y16888100*
X36325000Y16811900D02*
Y16646800D01*
X36175000*
Y16811900*
X26125000Y21300000D02*
X25975000D01*
X26125000Y21338100D02*
Y21503200D01*
X25975000*
Y21338100*
X26125000Y21261900D02*
Y21096800D01*
X25975000*
Y21261900*
X36325000Y21300000D02*
X36175000D01*
X36325000Y21338100D02*
Y21503200D01*
X36175000*
Y21338100*
X36325000Y21261900D02*
Y21096800D01*
X36175000*
Y21261900*
X36400000Y15875000D02*
Y16025000D01*
X36438100Y15875000D02*
X36603200D01*
Y16025000*
X36438100*
X36361900Y15875000D02*
X36196800D01*
Y16025000*
X36361900*
X36400000Y20325000D02*
Y20475000D01*
X36438100Y20325000D02*
X36603200D01*
Y20475000*
X36438100*
X36361900Y20325000D02*
X36196800D01*
Y20475000*
X36361900*
X38185700Y16786500D02*
Y16600000D01*
X38414300*
Y16786500*
X38185700Y16913500D02*
Y17112500D01*
X38414300*
Y16913500*
X38025000Y16850000D02*
X37875000D01*
X38025000Y16888100D02*
Y17053200D01*
X37875000*
Y16888100*
X38025000Y16811900D02*
Y16646800D01*
X37875000*
Y16811900*
X38185700Y21236500D02*
Y21050000D01*
X38414300*
Y21236500*
X38185700Y21363500D02*
Y21562500D01*
X38414300*
Y21363500*
X38025000Y21300000D02*
X37875000D01*
X38025000Y21338100D02*
Y21503200D01*
X37875000*
Y21338100*
X38025000Y21261900D02*
Y21096800D01*
X37875000*
Y21261900*
X38100000Y15875000D02*
Y16025000D01*
X38138100Y15875000D02*
X38303200D01*
Y16025000*
X38138100*
X38061900Y15875000D02*
X37896800D01*
Y16025000*
X38061900*
X38100000Y20325000D02*
Y20475000D01*
X38138100Y20325000D02*
X38303200D01*
Y20475000*
X38138100*
X38061900Y20325000D02*
X37896800D01*
Y20475000*
X38061900*
X26200000Y15875000D02*
Y16025000D01*
X26238100Y15875000D02*
X26403200D01*
Y16025000*
X26238100*
X26161900Y15875000D02*
X25996800D01*
Y16025000*
X26161900*
X26200000Y20325000D02*
Y20475000D01*
X26238100Y20325000D02*
X26403200D01*
Y20475000*
X26238100*
X26161900Y20325000D02*
X25996800D01*
Y20475000*
X26161900*
X27985700Y16786500D02*
Y16600000D01*
X28214300*
Y16786500*
X27985700Y16913500D02*
Y17112500D01*
X28214300*
Y16913500*
X27825000Y16850000D02*
X27675000D01*
X27825000Y16888100D02*
Y17053200D01*
X27675000*
Y16888100*
X27825000Y16811900D02*
Y16646800D01*
X27675000*
Y16811900*
X27985700Y21236500D02*
Y21050000D01*
X28214300*
Y21236500*
X27985700Y21363500D02*
Y21562500D01*
X28214300*
Y21363500*
X26650000Y14950000D02*
G03X26650000I-150000J0D01*
G01X27250000D02*
G03X27250000I-150000J0D01*
G01X26950000D02*
X26900000D01*
X26850000Y14865000*
X26800000Y15065000*
X26750000Y14865000*
X26700000Y14950000*
X26650000*
X33450000Y19400000D02*
G03X33450000I-150000J0D01*
G01X34050000D02*
G03X34050000I-150000J0D01*
G01X33750000D02*
X33700000D01*
X33650000Y19315000*
X33600000Y19515000*
X33550000Y19315000*
X33500000Y19400000*
X33450000*
X35150000Y14950000D02*
G03X35150000I-150000J0D01*
G01X35750000D02*
G03X35750000I-150000J0D01*
G01X35450000D02*
X35400000D01*
X35350000Y14865000*
X35300000Y15065000*
X35250000Y14865000*
X35200000Y14950000*
X35150000*
Y19400000D02*
G03X35150000I-150000J0D01*
G01X35750000D02*
G03X35750000I-150000J0D01*
G01X35450000D02*
X35400000D01*
X35350000Y19315000*
X35300000Y19515000*
X35250000Y19315000*
X35200000Y19400000*
X35150000*
X36850000Y14950000D02*
G03X36850000I-150000J0D01*
G01X37450000D02*
G03X37450000I-150000J0D01*
G01X37150000D02*
X37100000D01*
X37050000Y14865000*
X37000000Y15065000*
X36950000Y14865000*
X36900000Y14950000*
X36850000*
Y19400000D02*
G03X36850000I-150000J0D01*
G01X37450000D02*
G03X37450000I-150000J0D01*
G01X37150000D02*
X37100000D01*
X37050000Y19315000*
X37000000Y19515000*
X36950000Y19315000*
X36900000Y19400000*
X36850000*
X38550000Y14950000D02*
G03X38550000I-150000J0D01*
G01X39150000D02*
G03X39150000I-150000J0D01*
G01X38850000D02*
X38800000D01*
X38750000Y14865000*
X38700000Y15065000*
X38650000Y14865000*
X38600000Y14950000*
X38550000*
Y19400000D02*
G03X38550000I-150000J0D01*
G01X39150000D02*
G03X39150000I-150000J0D01*
G01X38850000D02*
X38800000D01*
X38750000Y19315000*
X38700000Y19515000*
X38650000Y19315000*
X38600000Y19400000*
X38550000*
X26650000D02*
G03X26650000I-150000J0D01*
G01X27250000D02*
G03X27250000I-150000J0D01*
G01X26950000D02*
X26900000D01*
X26850000Y19315000*
X26800000Y19515000*
X26750000Y19315000*
X26700000Y19400000*
X26650000*
X28350000Y14950000D02*
G03X28350000I-150000J0D01*
G01X28950000D02*
G03X28950000I-150000J0D01*
G01X28650000D02*
X28600000D01*
X28550000Y14865000*
X28500000Y15065000*
X28450000Y14865000*
X28400000Y14950000*
X28350000*
Y19400000D02*
G03X28350000I-150000J0D01*
G01X28950000D02*
G03X28950000I-150000J0D01*
G01X28650000D02*
X28600000D01*
X28550000Y19315000*
X28500000Y19515000*
X28450000Y19315000*
X28400000Y19400000*
X28350000*
X30050000Y14950000D02*
G03X30050000I-150000J0D01*
G01X30650000D02*
G03X30650000I-150000J0D01*
G01X30350000D02*
X30300000D01*
X30250000Y14865000*
X30200000Y15065000*
X30150000Y14865000*
X30100000Y14950000*
X30050000*
Y19400000D02*
G03X30050000I-150000J0D01*
G01X30650000D02*
G03X30650000I-150000J0D01*
G01X30350000D02*
X30300000D01*
X30250000Y19315000*
X30200000Y19515000*
X30150000Y19315000*
X30100000Y19400000*
X30050000*
X31750000Y14950000D02*
G03X31750000I-150000J0D01*
G01X32350000D02*
G03X32350000I-150000J0D01*
G01X32050000D02*
X32000000D01*
X31950000Y14865000*
X31900000Y15065000*
X31850000Y14865000*
X31800000Y14950000*
X31750000*
Y19400000D02*
G03X31750000I-150000J0D01*
G01X32350000D02*
G03X32350000I-150000J0D01*
G01X32050000D02*
X32000000D01*
X31950000Y19315000*
X31900000Y19515000*
X31850000Y19315000*
X31800000Y19400000*
X31750000*
X33450000Y14950000D02*
G03X33450000I-150000J0D01*
G01X34050000D02*
G03X34050000I-150000J0D01*
G01X33750000D02*
X33700000D01*
X33650000Y14865000*
X33600000Y15065000*
X33550000Y14865000*
X33500000Y14950000*
X33450000*
X26075000Y25000000D02*
G03X26075000I-275000J0D01*
G01X26026385D02*
G03X26026385I-226385J0D01*
G01X39535000D02*
G03X39535000I-275000J0D01*
G01X39486385D02*
G03X39486385I-226385J0D01*
G01X39535000Y13100000D02*
G03X39535000I-275000J0D01*
G01X39486385D02*
G03X39486385I-226385J0D01*
G01X26075000D02*
G03X26075000I-275000J0D01*
G01X26026385D02*
G03X26026385I-226385J0D01*
G01X25400000Y12700000D02*
Y25400000D01*
X39660000*
Y12700000*
X25400000*
G54D59*
X26400000Y17450000D02*
G03X26400000I-200000J0D01*
G01X33200000Y21900000D02*
G03X33200000I-200000J0D01*
G01X34900000Y17450000D02*
G03X34900000I-200000J0D01*
G01Y21900000D02*
G03X34900000I-200000J0D01*
G01X36600000Y17450000D02*
G03X36600000I-200000J0D01*
G01Y21900000D02*
G03X36600000I-200000J0D01*
G01X38300000Y17450000D02*
G03X38300000I-200000J0D01*
G01Y21900000D02*
G03X38300000I-200000J0D01*
G01X26400000D02*
G03X26400000I-200000J0D01*
G01X28100000Y17450000D02*
G03X28100000I-200000J0D01*
G01Y21900000D02*
G03X28100000I-200000J0D01*
G01X29800000Y17450000D02*
G03X29800000I-200000J0D01*
G01Y21900000D02*
G03X29800000I-200000J0D01*
G01X31500000Y17450000D02*
G03X31500000I-200000J0D01*
G01Y21900000D02*
G03X31500000I-200000J0D01*
G01X33200000Y17450000D02*
G03X33200000I-200000J0D01*
G54D109*
G01X26200000D02*
G03X26200000I-100000J0D01*
G01X33000000Y21900000D02*
G03X33000000I-100000J0D01*
G01X34700000Y17450000D02*
G03X34700000I-100000J0D01*
G01Y21900000D02*
G03X34700000I-100000J0D01*
G01X36400000Y17450000D02*
G03X36400000I-100000J0D01*
G01Y21900000D02*
G03X36400000I-100000J0D01*
G01X38100000Y17450000D02*
G03X38100000I-100000J0D01*
G01Y21900000D02*
G03X38100000I-100000J0D01*
G01X26200000D02*
G03X26200000I-100000J0D01*
G01X27900000Y17450000D02*
G03X27900000I-100000J0D01*
G01Y21900000D02*
G03X27900000I-100000J0D01*
G01X29600000Y17450000D02*
G03X29600000I-100000J0D01*
G01Y21900000D02*
G03X29600000I-100000J0D01*
G01X31300000Y17450000D02*
G03X31300000I-100000J0D01*
G01Y21900000D02*
G03X31300000I-100000J0D01*
G01X33000000Y17450000D02*
G03X33000000I-100000J0D01*
G01X35930000Y23775000D02*
G03X35930000I-30000J0D01*
G01X36280000D02*
G03X36280000I-30000J0D01*
G01X35930000Y24125000D02*
G03X35930000I-30000J0D01*
G01X36280000D02*
G03X36280000I-30000J0D01*
G01X34930000Y23775000D02*
G03X34930000I-30000J0D01*
G01X35280000D02*
G03X35280000I-30000J0D01*
G01X34930000Y24125000D02*
G03X34930000I-30000J0D01*
G01X35280000D02*
G03X35280000I-30000J0D01*
G54D110*
G01X26300000Y16850000D02*
X26500000D01*
X29700000D02*
X29900000D01*
X29700000Y21300000D02*
X29900000D01*
X31400000Y16850000D02*
X31600000D01*
X26300000Y21300000D02*
X26500000D01*
X31400000D02*
X31600000D01*
X33100000Y16850000D02*
X33300000D01*
X33100000Y21300000D02*
X33300000D01*
X34800000Y16850000D02*
X35000000D01*
X34800000Y21300000D02*
X35000000D01*
X36500000Y16850000D02*
X36700000D01*
X36500000Y21300000D02*
X36700000D01*
X38200000Y16850000D02*
X38400000D01*
X38200000Y21300000D02*
X38400000D01*
X28000000Y16850000D02*
X28200000D01*
X28000000Y21300000D02*
X28200000D01*
G54D116*
X30600000Y14337500D02*
Y14075000D01*
Y14337500D02*
X30681818D01*
X30709091Y14325000*
X30718182Y14312500*
X30727273Y14287500*
Y14262500*
X30718182Y14237500*
X30709091Y14225000*
X30681818Y14212500*
X30600000*
X30663636D02*
X30727273Y14075000D01*
X30809091Y14337500D02*
Y14075000D01*
Y14337500D02*
X30927273D01*
X30809091Y14212500D02*
X30881818D01*
X30809091Y14075000D02*
X30927273D01*
X31009091Y14337500D02*
Y14075000D01*
X31118182*
X31272727Y14337500D02*
X31200000Y14075000D01*
X31272727Y14337500D02*
X31345455Y14075000D01*
X31227273Y14162500D02*
X31318182D01*
X31427273Y14337500D02*
X31500000Y14212500D01*
Y14075000*
X31572727Y14337500D02*
X31500000Y14212500D01*
X31863636Y14337500D02*
Y14075000D01*
Y14337500D02*
X31936364Y14075000D01*
X32009091Y14337500D02*
X31936364Y14075000D01*
X32009091Y14337500D02*
Y14075000D01*
X32145455Y14337500D02*
X32127273Y14325000D01*
X32109091Y14300000*
X32100000Y14275000*
X32090909Y14237500*
Y14175000*
X32100000Y14137500*
X32109091Y14112500*
X32127273Y14087500*
X32145455Y14075000*
X32145455D02*
X32181818D01*
X32200000Y14087500*
X32218182Y14112500*
X32227273Y14137500*
X32236364Y14175000*
Y14237500*
X32227273Y14275000*
X32218182Y14300000*
X32200000Y14325000*
X32181818Y14337500*
X32145455*
X32318182D02*
Y14075000D01*
Y14337500D02*
X32381818D01*
X32409091Y14325000*
X32427273Y14300000*
X32436364Y14275000*
X32445455Y14237500*
X32445455D02*
Y14175000D01*
X32445455D02*
X32436364Y14137500D01*
X32427273Y14112500*
X32409091Y14087500*
X32381818Y14075000*
X32318182*
X32527273Y14337500D02*
Y14150000D01*
X32536364Y14112500*
X32554545Y14087500*
X32581818Y14075000*
X32600000*
X32627273Y14087500*
X32645455Y14112500*
X32645455D02*
X32654545Y14150000D01*
Y14337500*
X32736364D02*
Y14075000D01*
X32845455*
X32927273Y14337500D02*
Y14075000D01*
Y14337500D02*
X33045455D01*
X32927273Y14212500D02*
X33000000D01*
X32927273Y14075000D02*
X33045455D01*
X33345455Y14275000D02*
Y14287500D01*
X33345455D02*
X33354545Y14312500D01*
X33363636Y14325000*
X33381818Y14337500*
X33418182*
X33436364Y14325000*
X33445455Y14312500*
X33445455D02*
X33454545Y14287500D01*
Y14262500*
X33445455Y14237500*
X33445455D02*
X33427273Y14200000D01*
X33336364Y14075000*
X33463636*
X33600000Y14337500D02*
X33572727Y14325000D01*
X33554545Y14287500*
X33545455Y14225000*
X33545455D02*
Y14187500D01*
X33545455D02*
X33554545Y14125000D01*
X33572727Y14087500*
X33600000Y14075000*
X33618182*
X33645455Y14087500*
X33645455D02*
X33663636Y14125000D01*
X33672727Y14187500*
Y14225000*
X33663636Y14287500*
X33645455Y14325000*
X33645455D02*
X33618182Y14337500D01*
X33600000*
X33754545Y14287500D02*
X33772727Y14300000D01*
X33800000Y14337500*
Y14075000*
X33990909Y14300000D02*
X33981818Y14325000D01*
X33954545Y14337500*
X33936364*
X33909091Y14325000*
X33890909Y14287500*
X33881818Y14225000*
Y14162500*
X33890909Y14112500*
X33909091Y14087500*
X33936364Y14075000*
X33945455*
X33945455D02*
X33972727Y14087500D01*
X33990909Y14112500*
X34000000Y14150000*
Y14162500*
X33990909Y14200000*
X33972727Y14225000*
X33945455Y14237500*
X33945455D02*
X33936364D01*
X33909091Y14225000*
X33890909Y14200000*
X33881818Y14162500*
G74*
X0Y0D02*
M02*
