*
*
G04 PADS Layout (Build Number 2005.266.2) generated Gerber (RS-274-X) file*
G04 PC Version=2.1*
*
%IN "cecs_module_relay_1031."*%
*
%MOMM*%
*
%FSLAX35Y35*%
*
*
*
*
G04 PC Standard Apertures*
*
*
G04 Thermal Relief Aperture macro.*
%AMTER*
1,1,$1,0,0*
1,0,$1-$2,0,0*
21,0,$3,$4,0,0,45*
21,0,$3,$4,0,0,135*
%
*
*
G04 Annular Aperture macro.*
%AMANN*
1,1,$1,0,0*
1,0,$2,0,0*
%
*
*
G04 Odd Aperture macro.*
%AMODD*
1,1,$1,0,0*
1,0,$1-0.005,0,0*
%
*
*
G04 PC Custom Aperture Macros*
*
*
*
*
*
*
G04 PC Aperture Table*
*
%ADD012C,0.1524*%
%ADD056C,0.1*%
%ADD058C,0.254*%
*
*
*
*
G04 PC Custom Flashes*
G04 Layer Name cecs_module_relay_1031. - flashes*
%LPD*%
*
*
G04 PC Circuitry*
G04 Layer Name cecs_module_relay_1031. - circuitry*
%LPD*%
*
G54D12*
G01X29355000Y13254000D02*
Y12746000D01*
X35705000*
Y13254000*
X29355000*
Y13000000D02*
X29609000D01*
Y13254000*
X29269275Y13127000D02*
X29266100Y13122382D01*
X29256575Y13115455*
X29256575D02*
X29323250D01*
X29272450Y12870691D02*
X29269275D01*
X29262925Y12868382*
X29259750Y12866073*
X29256575Y12861455*
X29256575D02*
Y12852218D01*
X29259750Y12847600*
X29262925Y12845291*
X29269275Y12842982*
X29275625*
X29281975Y12845291*
X29291500Y12849909*
X29323250Y12873000*
Y12840673*
X35765325Y13167409D02*
X35809775Y13190500D01*
Y13155864*
X35765325Y13167409D02*
X35832000D01*
X35787550Y13105064D02*
X35797075Y13107373D01*
X35803425Y13111991*
X35806600Y13118918*
Y13121227*
X35803425Y13128155*
X35803425D02*
X35797075Y13132773D01*
X35787550Y13135082*
X35784375*
X35774850Y13132773*
X35768500Y13128155*
X35768500D02*
X35765325Y13121227D01*
Y13118918*
X35768500Y13111991*
X35774850Y13107373*
X35787550Y13105064*
X35803425*
X35819300Y13107373*
X35828825Y13111991*
X35832000Y13118918*
Y13123536*
X35828825Y13130464*
X35822475Y13132773*
X35765325Y12874732D02*
Y12897823D01*
X35793900Y12900132*
X35790725Y12897823*
X35787550Y12890895*
Y12883968*
X35790725Y12877041*
X35797075Y12872423*
X35806600Y12870114*
X35812950Y12872423*
X35822475Y12874732*
X35828825Y12879350*
X35832000Y12886277*
Y12893205*
X35832000D02*
X35828825Y12900132D01*
X35825650Y12902441*
X35819300Y12904750*
X35765325Y12835477D02*
X35768500Y12842405D01*
X35768500D02*
X35778025Y12847023D01*
X35793900Y12849332*
X35803425*
X35819300Y12847023*
X35828825Y12842405*
X35828825D02*
X35832000Y12835477D01*
Y12830859*
X35828825Y12823932*
X35819300Y12819314*
X35803425Y12817005*
X35803425D02*
X35793900D01*
X35793900D02*
X35778025Y12819314D01*
X35768500Y12823932*
X35765325Y12830859*
Y12835477*
X29355000Y25354000D02*
Y24846000D01*
X35705000*
Y25354000*
X29355000*
Y25100000D02*
X29609000D01*
Y25354000*
X29269275Y25227000D02*
X29266100Y25222382D01*
X29256575Y25215455*
X29256575D02*
X29323250D01*
X29272450Y24970691D02*
X29269275D01*
X29262925Y24968382*
X29259750Y24966073*
X29256575Y24961455*
X29256575D02*
Y24952218D01*
X29259750Y24947600*
X29262925Y24945291*
X29269275Y24942982*
X29275625*
X29281975Y24945291*
X29291500Y24949909*
X29323250Y24973000*
Y24940673*
X35765325Y25267409D02*
X35809775Y25290500D01*
Y25255864*
X35765325Y25267409D02*
X35832000D01*
X35787550Y25205064D02*
X35797075Y25207373D01*
X35803425Y25211991*
X35806600Y25218918*
Y25221227*
X35803425Y25228155*
X35803425D02*
X35797075Y25232773D01*
X35787550Y25235082*
X35784375*
X35774850Y25232773*
X35768500Y25228155*
X35768500D02*
X35765325Y25221227D01*
Y25218918*
X35768500Y25211991*
X35774850Y25207373*
X35787550Y25205064*
X35803425*
X35819300Y25207373*
X35828825Y25211991*
X35832000Y25218918*
Y25223536*
X35828825Y25230464*
X35822475Y25232773*
X35765325Y24974732D02*
Y24997823D01*
X35793900Y25000132*
X35790725Y24997823*
X35787550Y24990895*
Y24983968*
X35790725Y24977041*
X35797075Y24972423*
X35806600Y24970114*
X35812950Y24972423*
X35822475Y24974732*
X35828825Y24979350*
X35832000Y24986277*
Y24993205*
X35832000D02*
X35828825Y25000132D01*
X35825650Y25002441*
X35819300Y25004750*
X35765325Y24935477D02*
X35768500Y24942405D01*
X35768500D02*
X35778025Y24947023D01*
X35793900Y24949332*
X35803425*
X35819300Y24947023*
X35828825Y24942405*
X35828825D02*
X35832000Y24935477D01*
Y24930859*
X35828825Y24923932*
X35819300Y24919314*
X35803425Y24917005*
X35803425D02*
X35793900D01*
X35793900D02*
X35778025Y24919314D01*
X35768500Y24923932*
X35765325Y24930859*
Y24935477*
G54D56*
X32247727Y13428750D02*
Y13368750D01*
X32250455Y13357500*
X32253182Y13353750*
X32258636Y13350000*
X32264091*
X32269545Y13353750*
X32269545D02*
X32272273Y13357500D01*
X32275000Y13368750*
Y13376250*
X32223182Y13413750D02*
X32217727Y13417500D01*
X32209545Y13428750*
X32209545D02*
Y13350000D01*
X32322727Y24728750D02*
Y24668750D01*
X32325455Y24657500*
X32325455D02*
X32328182Y24653750D01*
X32333636Y24650000*
X32339091*
X32344545Y24653750*
X32347273Y24657500*
X32350000Y24668750*
Y24676250*
X32295455Y24710000D02*
Y24713750D01*
X32295455D02*
X32292727Y24721250D01*
X32290000Y24725000*
X32284545Y24728750*
X32273636*
X32268182Y24725000*
X32265455Y24721250*
X32265455D02*
X32262727Y24713750D01*
Y24706250*
X32265455Y24698750*
X32265455D02*
X32270909Y24687500D01*
X32298182Y24650000*
X32260000*
G54D58*
X25400000Y12700000D02*
Y25400000D01*
X39660000*
Y12700000*
X25400000*
X0Y0D02*
M02*
