*
*
G04 PADS 9.4.1 Build Number: 494907 generated Gerber (RS-274-X) file*
G04 PC Version=2.1*
*
%IN "CECS_Module_IsoInput_Ch"*%
*
%MOIN*%
*
%FSLAX35Y35*%
*
*
*
*
G04 PC Standard Apertures*
*
*
G04 Thermal Relief Aperture macro.*
%AMTER*
1,1,$1,0,0*
1,0,$1-$2,0,0*
21,0,$3,$4,0,0,45*
21,0,$3,$4,0,0,135*
%
*
*
G04 Annular Aperture macro.*
%AMANN*
1,1,$1,0,0*
1,0,$2,0,0*
%
*
*
G04 Odd Aperture macro.*
%AMODD*
1,1,$1,0,0*
1,0,$1-0.005,0,0*
%
*
*
G04 PC Custom Aperture Macros*
*
*
*
*
*
*
G04 PC Aperture Table*
*
%ADD010C,0.001*%
%ADD031C,0.01*%
*
*
*
*
G04 PC Circuitry*
G04 Layer Name CECS_Module_IsoInput_Ch - circuitry*
%LPD*%
*
*
G04 PC Custom Flashes*
G04 Layer Name CECS_Module_IsoInput_Ch - flashes*
%LPD*%
*
*
G04 PC Circuitry*
G04 Layer Name CECS_Module_IsoInput_Ch - circuitry*
%LPD*%
*
G54D10*
G01X100000Y100000D02*
X100003D01*
X887402D02*
X887404D01*
X946457D02*
X946459D01*
X887402D02*
X887404D01*
X946457D02*
X946459D01*
X946457Y395276D02*
X946459D01*
G54D31*
X111748Y115748D02*
X119748D01*
X115748Y111748D02*
Y119748D01*
X867654Y115748D02*
X875654D01*
X871654Y111748D02*
Y119748D01*
X111748Y379528D02*
X119748D01*
X115748Y375528D02*
Y383528D01*
X867654Y379528D02*
X875654D01*
X871654Y375528D02*
Y383528D01*
X560567Y180646D02*
X568567Y188646D01*
X560567D02*
X568567Y180646D01*
X560567Y192457D02*
X568567Y200457D01*
X560567D02*
X568567Y192457D01*
X375528Y160961D02*
X383528Y168961D01*
X375528D02*
X383528Y160961D01*
X375528Y149150D02*
X383528Y157150D01*
X375528D02*
X383528Y149150D01*
X391276Y160961D02*
X399276Y168961D01*
X391276D02*
X399276Y160961D01*
X391276Y149150D02*
X399276Y157150D01*
X391276D02*
X399276Y149150D01*
X513323Y180646D02*
X521323Y188646D01*
X513323D02*
X521323Y180646D01*
X513323Y192457D02*
X521323Y200457D01*
X513323D02*
X521323Y192457D01*
X241669Y196394D02*
X249669Y204394D01*
X241669D02*
X249669Y196394D01*
X241669Y208205D02*
X249669Y216205D01*
X241669D02*
X249669Y208205D01*
X267260Y131433D02*
X275260Y139433D01*
X267260D02*
X275260Y131433D01*
X255449D02*
X263449Y139433D01*
X255449D02*
X263449Y131433D01*
X330252D02*
X338252Y139433D01*
X330252D02*
X338252Y131433D01*
X318441D02*
X326441Y139433D01*
X318441D02*
X326441Y131433D01*
X347969Y204268D02*
X355969Y212268D01*
X347969D02*
X355969Y204268D01*
X347969Y192457D02*
X355969Y200457D01*
X347969D02*
X355969Y192457D01*
X241669Y188520D02*
X249669Y196520D01*
X241669D02*
X249669Y188520D01*
X241669Y176709D02*
X249669Y184709D01*
X241669D02*
X249669Y176709D01*
X812535Y314504D02*
X820535Y322504D01*
X812535D02*
X820535Y314504D01*
X812535Y326315D02*
X820535Y334315D01*
X812535D02*
X820535Y326315D01*
X721984Y298756D02*
X729984Y306756D01*
X721984D02*
X729984Y298756D01*
X721984Y286945D02*
X729984Y294945D01*
X721984D02*
X729984Y286945D01*
X607811Y180646D02*
X615811Y188646D01*
X607811D02*
X615811Y180646D01*
X607811Y192457D02*
X615811Y200457D01*
X607811D02*
X615811Y192457D01*
X714110Y267260D02*
X722110Y275260D01*
X714110D02*
X722110Y267260D01*
X714110Y255449D02*
X722110Y263449D01*
X714110D02*
X722110Y255449D01*
X651118Y363717D02*
X659118Y371717D01*
X651118D02*
X659118Y363717D01*
X651118Y375528D02*
X659118Y383528D01*
X651118D02*
X659118Y375528D01*
X779071Y351906D02*
X787071Y359906D01*
X779071D02*
X787071Y351906D01*
X767260D02*
X775260Y359906D01*
X767260D02*
X775260Y351906D01*
X741669Y255449D02*
X749669Y263449D01*
X741669D02*
X749669Y255449D01*
X741669Y267260D02*
X749669Y275260D01*
X741669D02*
X749669Y267260D01*
X745606Y172772D02*
X753606Y180772D01*
X745606D02*
X753606Y172772D01*
X745606Y160961D02*
X753606Y168961D01*
X745606D02*
X753606Y160961D01*
X737732Y141276D02*
X745732Y149276D01*
X737732D02*
X745732Y141276D01*
X737732Y129465D02*
X745732Y137465D01*
X737732D02*
X745732Y129465D01*
X672772Y186551D02*
X680772Y194551D01*
X672772D02*
X680772Y186551D01*
X660961D02*
X668961Y194551D01*
X660961D02*
X668961Y186551D01*
X802693D02*
X810693Y194551D01*
X802693D02*
X810693Y186551D01*
X790882D02*
X798882Y194551D01*
X790882D02*
X798882Y186551D01*
X765291Y129465D02*
X773291Y137465D01*
X765291D02*
X773291Y129465D01*
X765291Y141276D02*
X773291Y149276D01*
X765291D02*
X773291Y141276D01*
X426709Y192457D02*
X434709Y200457D01*
X426709D02*
X434709Y192457D01*
X426709Y180646D02*
X434709Y188646D01*
X426709D02*
X434709Y180646D01*
X208205Y190488D02*
X216205Y198488D01*
X208205D02*
X216205Y190488D01*
X220016D02*
X228016Y198488D01*
X220016D02*
X228016Y190488D01*
X220016Y158992D02*
X228016Y166992D01*
X220016D02*
X228016Y158992D01*
X208205D02*
X216205Y166992D01*
X208205D02*
X216205Y158992D01*
X157024Y166866D02*
X165024Y174866D01*
X157024D02*
X165024Y166866D01*
X168835D02*
X176835Y174866D01*
X168835D02*
X176835Y166866D01*
X399150Y160961D02*
X407150Y168961D01*
X399150D02*
X407150Y160961D01*
X399150Y149150D02*
X407150Y157150D01*
X399150D02*
X407150Y149150D01*
X363717Y192457D02*
X371717Y200457D01*
X363717D02*
X371717Y192457D01*
X363717Y180646D02*
X371717Y188646D01*
X363717D02*
X371717Y180646D01*
X383402Y160961D02*
X391402Y168961D01*
X383402D02*
X391402Y160961D01*
X383402Y149150D02*
X391402Y157150D01*
X383402D02*
X391402Y149150D01*
X178677Y273165D02*
X186677Y281165D01*
X178677D02*
X186677Y273165D01*
X190488D02*
X198488Y281165D01*
X190488D02*
X198488Y273165D01*
X229858Y243638D02*
X237858Y251638D01*
X229858D02*
X237858Y243638D01*
X229858Y231827D02*
X237858Y239827D01*
X229858D02*
X237858Y231827D01*
X304661Y273165D02*
X312661Y281165D01*
X304661D02*
X312661Y273165D01*
X316472D02*
X324472Y281165D01*
X316472D02*
X324472Y273165D01*
X367654D02*
X375654Y281165D01*
X367654D02*
X375654Y273165D01*
X379465D02*
X387465Y281165D01*
X379465D02*
X387465Y273165D01*
X300724Y306630D02*
X308724Y314630D01*
X300724D02*
X308724Y306630D01*
X300724Y294819D02*
X308724Y302819D01*
X300724D02*
X308724Y294819D01*
X284976Y243638D02*
X292976Y251638D01*
X284976D02*
X292976Y243638D01*
X284976Y231827D02*
X292976Y239827D01*
X284976D02*
X292976Y231827D01*
X347969Y243638D02*
X355969Y251638D01*
X347969D02*
X355969Y243638D01*
X347969Y231827D02*
X355969Y239827D01*
X347969D02*
X355969Y231827D01*
X424740Y135370D02*
X432740Y143370D01*
X424740D02*
X432740Y135370D01*
X412929D02*
X420929Y143370D01*
X412929D02*
X420929Y135370D01*
X363717Y306630D02*
X371717Y314630D01*
X363717D02*
X371717Y306630D01*
X363717Y294819D02*
X371717Y302819D01*
X363717D02*
X371717Y294819D01*
X424740Y127496D02*
X432740Y135496D01*
X424740D02*
X432740Y127496D01*
X412929D02*
X420929Y135496D01*
X412929D02*
X420929Y127496D01*
X292850Y243638D02*
X300850Y251638D01*
X292850D02*
X300850Y243638D01*
X292850Y231827D02*
X300850Y239827D01*
X292850D02*
X300850Y231827D01*
X241669Y273165D02*
X249669Y281165D01*
X241669D02*
X249669Y273165D01*
X253480D02*
X261480Y281165D01*
X253480D02*
X261480Y273165D01*
X355843Y243638D02*
X363843Y251638D01*
X355843D02*
X363843Y243638D01*
X355843Y231827D02*
X363843Y239827D01*
X355843D02*
X363843Y231827D01*
X430646Y273165D02*
X438646Y281165D01*
X430646D02*
X438646Y273165D01*
X442457D02*
X450457Y281165D01*
X442457D02*
X450457Y273165D01*
X493638D02*
X501638Y281165D01*
X493638D02*
X501638Y273165D01*
X505449D02*
X513449Y281165D01*
X505449D02*
X513449Y273165D01*
X426709Y306630D02*
X434709Y314630D01*
X426709D02*
X434709Y306630D01*
X426709Y294819D02*
X434709Y302819D01*
X426709D02*
X434709Y294819D01*
X410961Y243638D02*
X418961Y251638D01*
X410961D02*
X418961Y243638D01*
X410961Y231827D02*
X418961Y239827D01*
X410961D02*
X418961Y231827D01*
X489701Y306630D02*
X497701Y314630D01*
X489701D02*
X497701Y306630D01*
X489701Y294819D02*
X497701Y302819D01*
X489701D02*
X497701Y294819D01*
X473953Y243638D02*
X481953Y251638D01*
X473953D02*
X481953Y243638D01*
X473953Y231827D02*
X481953Y239827D01*
X473953D02*
X481953Y231827D01*
X448362Y127496D02*
X456362Y135496D01*
X448362D02*
X456362Y127496D01*
X436551D02*
X444551Y135496D01*
X436551D02*
X444551Y127496D01*
X448362Y135370D02*
X456362Y143370D01*
X448362D02*
X456362Y135370D01*
X436551D02*
X444551Y143370D01*
X436551D02*
X444551Y135370D01*
X418835Y243638D02*
X426835Y251638D01*
X418835D02*
X426835Y243638D01*
X418835Y231827D02*
X426835Y239827D01*
X418835D02*
X426835Y231827D01*
X158992Y243638D02*
X166992Y251638D01*
X158992D02*
X166992Y243638D01*
X158992Y231827D02*
X166992Y239827D01*
X158992D02*
X166992Y231827D01*
X481827Y243638D02*
X489827Y251638D01*
X481827D02*
X489827Y243638D01*
X481827Y231827D02*
X489827Y239827D01*
X481827D02*
X489827Y231827D01*
X556630Y273165D02*
X564630Y281165D01*
X556630D02*
X564630Y273165D01*
X568441D02*
X576441Y281165D01*
X568441D02*
X576441Y273165D01*
X619622D02*
X627622Y281165D01*
X619622D02*
X627622Y273165D01*
X631433D02*
X639433Y281165D01*
X631433D02*
X639433Y273165D01*
X552693Y306630D02*
X560693Y314630D01*
X552693D02*
X560693Y306630D01*
X552693Y294819D02*
X560693Y302819D01*
X552693D02*
X560693Y294819D01*
X536945Y243638D02*
X544945Y251638D01*
X536945D02*
X544945Y243638D01*
X536945Y231827D02*
X544945Y239827D01*
X536945D02*
X544945Y231827D01*
X615685Y306630D02*
X623685Y314630D01*
X615685D02*
X623685Y306630D01*
X615685Y294819D02*
X623685Y302819D01*
X615685D02*
X623685Y294819D01*
X599937Y243638D02*
X607937Y251638D01*
X599937D02*
X607937Y243638D01*
X599937Y231827D02*
X607937Y239827D01*
X599937D02*
X607937Y231827D01*
X448362Y143244D02*
X456362Y151244D01*
X448362D02*
X456362Y143244D01*
X436551D02*
X444551Y151244D01*
X436551D02*
X444551Y143244D01*
X448362Y151118D02*
X456362Y159118D01*
X448362D02*
X456362Y151118D01*
X436551D02*
X444551Y159118D01*
X436551D02*
X444551Y151118D01*
X544819Y243638D02*
X552819Y251638D01*
X544819D02*
X552819Y243638D01*
X544819Y231827D02*
X552819Y239827D01*
X544819D02*
X552819Y231827D01*
X174740Y306630D02*
X182740Y314630D01*
X174740D02*
X182740Y306630D01*
X174740Y294819D02*
X182740Y302819D01*
X174740D02*
X182740Y294819D01*
X607811Y243638D02*
X615811Y251638D01*
X607811D02*
X615811Y243638D01*
X607811Y231827D02*
X615811Y239827D01*
X607811D02*
X615811Y231827D01*
X184583Y190488D02*
X192583Y198488D01*
X184583D02*
X192583Y190488D01*
X196394D02*
X204394Y198488D01*
X196394D02*
X204394Y190488D01*
X184583Y182614D02*
X192583Y190614D01*
X184583D02*
X192583Y182614D01*
X196394D02*
X204394Y190614D01*
X196394D02*
X204394Y182614D01*
X233795Y176709D02*
X241795Y184709D01*
X233795D02*
X241795Y176709D01*
X233795Y188520D02*
X241795Y196520D01*
X233795D02*
X241795Y188520D01*
X184583Y174740D02*
X192583Y182740D01*
X184583D02*
X192583Y174740D01*
X196394D02*
X204394Y182740D01*
X196394D02*
X204394Y174740D01*
X184583Y166866D02*
X192583Y174866D01*
X184583D02*
X192583Y166866D01*
X196394D02*
X204394Y174866D01*
X196394D02*
X204394Y166866D01*
X233795Y208205D02*
X241795Y216205D01*
X233795D02*
X241795Y208205D01*
X233795Y196394D02*
X241795Y204394D01*
X233795D02*
X241795Y196394D01*
X149150Y198362D02*
X157150Y206362D01*
X149150D02*
X157150Y198362D01*
X137339D02*
X145339Y206362D01*
X137339D02*
X145339Y198362D01*
X149150Y190488D02*
X157150Y198488D01*
X149150D02*
X157150Y190488D01*
X137339D02*
X145339Y198488D01*
X137339D02*
X145339Y190488D01*
X149150Y174740D02*
X157150Y182740D01*
X149150D02*
X157150Y174740D01*
X137339D02*
X145339Y182740D01*
X137339D02*
X145339Y174740D01*
X237732Y306630D02*
X245732Y314630D01*
X237732D02*
X245732Y306630D01*
X237732Y294819D02*
X245732Y302819D01*
X237732D02*
X245732Y294819D01*
X149150Y182614D02*
X157150Y190614D01*
X149150D02*
X157150Y182614D01*
X137339D02*
X145339Y190614D01*
X137339D02*
X145339Y182614D01*
X168835D02*
X176835Y190614D01*
X168835D02*
X176835Y182614D01*
X157024D02*
X165024Y190614D01*
X157024D02*
X165024Y182614D01*
X168835Y174740D02*
X176835Y182740D01*
X168835D02*
X176835Y174740D01*
X157024D02*
X165024Y182740D01*
X157024D02*
X165024Y174740D01*
X168835Y190488D02*
X176835Y198488D01*
X168835D02*
X176835Y190488D01*
X157024D02*
X165024Y198488D01*
X157024D02*
X165024Y190488D01*
X168835Y198362D02*
X176835Y206362D01*
X168835D02*
X176835Y198362D01*
X157024D02*
X165024Y206362D01*
X157024D02*
X165024Y198362D01*
X168835Y206236D02*
X176835Y214236D01*
X168835D02*
X176835Y206236D01*
X157024D02*
X165024Y214236D01*
X157024D02*
X165024Y206236D01*
X137339D02*
X145339Y214236D01*
X137339D02*
X145339Y206236D01*
X149150D02*
X157150Y214236D01*
X149150D02*
X157150Y206236D01*
X458205Y180646D02*
X466205Y188646D01*
X458205D02*
X466205Y180646D01*
X458205Y192457D02*
X466205Y200457D01*
X458205D02*
X466205Y192457D01*
X296787Y117654D02*
X304787Y125654D01*
X296787D02*
X304787Y117654D01*
X296787Y129465D02*
X304787Y137465D01*
X296787D02*
X304787Y129465D01*
X281039D02*
X289039Y137465D01*
X281039D02*
X289039Y129465D01*
X281039Y117654D02*
X289039Y125654D01*
X281039D02*
X289039Y117654D01*
X221984Y243638D02*
X229984Y251638D01*
X221984D02*
X229984Y243638D01*
X221984Y231827D02*
X229984Y239827D01*
X221984D02*
X229984Y231827D01*
X389307Y127496D02*
X397307Y135496D01*
X389307D02*
X397307Y127496D01*
X401118D02*
X409118Y135496D01*
X401118D02*
X409118Y127496D01*
X288913Y129465D02*
X296913Y137465D01*
X288913D02*
X296913Y129465D01*
X288913Y117654D02*
X296913Y125654D01*
X288913D02*
X296913Y117654D01*
X389307Y135370D02*
X397307Y143370D01*
X389307D02*
X397307Y135370D01*
X401118D02*
X409118Y143370D01*
X401118D02*
X409118Y135370D01*
X762831Y292850D02*
X770831Y300850D01*
X762831D02*
X770831Y292850D01*
X791374D02*
X799374Y300850D01*
X791374D02*
X799374Y292850D01*
X729858Y267260D02*
X737858Y275260D01*
X729858D02*
X737858Y267260D01*
X729858Y255449D02*
X737858Y263449D01*
X729858D02*
X737858Y255449D01*
X714110Y286945D02*
X722110Y294945D01*
X714110D02*
X722110Y286945D01*
X714110Y298756D02*
X722110Y306756D01*
X714110D02*
X722110Y298756D01*
X721984Y267260D02*
X729984Y275260D01*
X721984D02*
X729984Y267260D01*
X721984Y255449D02*
X729984Y263449D01*
X721984D02*
X729984Y255449D01*
X932614Y269228D02*
X940614Y277228D01*
X932614D02*
X940614Y269228D01*
X920803D02*
X928803Y277228D01*
X920803D02*
X928803Y269228D01*
X932614Y300724D02*
X940614Y308724D01*
X932614D02*
X940614Y300724D01*
X920803D02*
X928803Y308724D01*
X920803D02*
X928803Y300724D01*
X932614Y332220D02*
X940614Y340220D01*
X932614D02*
X940614Y332220D01*
X920803D02*
X928803Y340220D01*
X920803D02*
X928803Y332220D01*
X424740Y151118D02*
X432740Y159118D01*
X424740D02*
X432740Y151118D01*
X412929D02*
X420929Y159118D01*
X412929D02*
X420929Y151118D01*
X932614Y363717D02*
X940614Y371717D01*
X932614D02*
X940614Y363717D01*
X920803D02*
X928803Y371717D01*
X920803D02*
X928803Y363717D01*
X893244D02*
X901244Y371717D01*
X893244D02*
X901244Y363717D01*
X905055D02*
X913055Y371717D01*
X905055D02*
X913055Y363717D01*
X893244Y332220D02*
X901244Y340220D01*
X893244D02*
X901244Y332220D01*
X905055D02*
X913055Y340220D01*
X905055D02*
X913055Y332220D01*
X893244Y300724D02*
X901244Y308724D01*
X893244D02*
X901244Y300724D01*
X905055D02*
X913055Y308724D01*
X905055D02*
X913055Y300724D01*
X893244Y269228D02*
X901244Y277228D01*
X893244D02*
X901244Y269228D01*
X905055D02*
X913055Y277228D01*
X905055D02*
X913055Y269228D01*
X893244Y237732D02*
X901244Y245732D01*
X893244D02*
X901244Y237732D01*
X905055D02*
X913055Y245732D01*
X905055D02*
X913055Y237732D01*
X893244Y206236D02*
X901244Y214236D01*
X893244D02*
X901244Y206236D01*
X905055D02*
X913055Y214236D01*
X905055D02*
X913055Y206236D01*
X893244Y174740D02*
X901244Y182740D01*
X893244D02*
X901244Y174740D01*
X905055D02*
X913055Y182740D01*
X905055D02*
X913055Y174740D01*
X893244Y143244D02*
X901244Y151244D01*
X893244D02*
X901244Y143244D01*
X905055D02*
X913055Y151244D01*
X905055D02*
X913055Y143244D01*
X790390Y166866D02*
X798390Y174866D01*
X790390D02*
X798390Y166866D01*
X818933D02*
X826933Y174866D01*
X818933D02*
X826933Y166866D01*
X424740Y143244D02*
X432740Y151244D01*
X424740D02*
X432740Y143244D01*
X412929D02*
X420929Y151244D01*
X412929D02*
X420929Y143244D01*
X753480Y141276D02*
X761480Y149276D01*
X753480D02*
X761480Y141276D01*
X753480Y129465D02*
X761480Y137465D01*
X753480D02*
X761480Y129465D01*
X737732Y160961D02*
X745732Y168961D01*
X737732D02*
X745732Y160961D01*
X737732Y172772D02*
X745732Y180772D01*
X737732D02*
X745732Y172772D01*
X660961Y178677D02*
X668961Y186677D01*
X660961D02*
X668961Y178677D01*
X672772D02*
X680772Y186677D01*
X672772D02*
X680772Y178677D01*
X745606Y141276D02*
X753606Y149276D01*
X745606D02*
X753606Y141276D01*
X745606Y129465D02*
X753606Y137465D01*
X745606D02*
X753606Y129465D01*
X166866Y243638D02*
X174866Y251638D01*
X166866D02*
X174866Y243638D01*
X166866Y231827D02*
X174866Y239827D01*
X166866D02*
X174866Y231827D01*
X930646Y253480D02*
X938646D01*
Y261480*
X930646*
Y253480*
X934646Y257480D02*
Y261480D01*
X922772Y253480D02*
X930772D01*
Y261480*
X922772*
Y253480*
X926772Y257480D02*
Y261480D01*
X930646Y284976D02*
X938646D01*
Y292976*
X930646*
Y284976*
X934646Y288976D02*
Y292976D01*
X922772Y284976D02*
X930772D01*
Y292976*
X922772*
Y284976*
X926772Y288976D02*
Y292976D01*
X930646Y316472D02*
X938646D01*
Y324472*
X930646*
Y316472*
X934646Y320472D02*
Y324472D01*
X922772Y316472D02*
X930772D01*
Y324472*
X922772*
Y316472*
X926772Y320472D02*
Y324472D01*
X930646Y347969D02*
X938646D01*
Y355969*
X930646*
Y347969*
X934646Y351969D02*
Y355969D01*
X922772Y347969D02*
X930772D01*
Y355969*
X922772*
Y347969*
X926772Y351969D02*
Y355969D01*
X895213Y347969D02*
X903213D01*
Y355969*
X895213*
Y347969*
X899213Y351969D02*
Y355969D01*
X903087Y347969D02*
X911087D01*
Y355969*
X903087*
Y347969*
X907087Y351969D02*
Y355969D01*
X895213Y316472D02*
X903213D01*
Y324472*
X895213*
Y316472*
X899213Y320472D02*
Y324472D01*
X903087Y316472D02*
X911087D01*
Y324472*
X903087*
Y316472*
X907087Y320472D02*
Y324472D01*
X895213Y284976D02*
X903213D01*
Y292976*
X895213*
Y284976*
X899213Y288976D02*
Y292976D01*
X903087Y284976D02*
X911087D01*
Y292976*
X903087*
Y284976*
X907087Y288976D02*
Y292976D01*
X895213Y253480D02*
X903213D01*
Y261480*
X895213*
Y253480*
X899213Y257480D02*
Y261480D01*
X903087Y253480D02*
X911087D01*
Y261480*
X903087*
Y253480*
X907087Y257480D02*
Y261480D01*
X895213Y221984D02*
X903213D01*
Y229984*
X895213*
Y221984*
X899213Y225984D02*
Y229984D01*
X903087Y221984D02*
X911087D01*
Y229984*
X903087*
Y221984*
X907087Y225984D02*
Y229984D01*
X895213Y190488D02*
X903213D01*
Y198488*
X895213*
Y190488*
X899213Y194488D02*
Y198488D01*
X903087Y190488D02*
X911087D01*
Y198488*
X903087*
Y190488*
X907087Y194488D02*
Y198488D01*
X895213Y158992D02*
X903213D01*
Y166992*
X895213*
Y158992*
X899213Y162992D02*
Y166992D01*
X903087Y158992D02*
X911087D01*
Y166992*
X903087*
Y158992*
X907087Y162992D02*
Y166992D01*
X895213Y127496D02*
X903213D01*
Y135496*
X895213*
Y127496*
X899213Y131496D02*
Y135496D01*
X903087Y127496D02*
X911087D01*
Y135496*
X903087*
Y127496*
X907087Y131496D02*
Y135496D01*
X660961Y137339D02*
X668961D01*
Y145339*
X660961*
Y137339*
X664961Y141339D02*
Y145339D01*
X660961Y145213D02*
X668961D01*
Y153213*
X660961*
Y145213*
X664961Y149213D02*
Y153213D01*
X487850Y132614D02*
X495850D01*
Y140614*
X487850*
Y132614*
X491850Y136614D02*
Y140614D01*
X479819Y132614D02*
X487819D01*
Y140614*
X479819*
Y132614*
X483819Y136614D02*
Y140614D01*
X483835Y142614D02*
X491835D01*
Y150614*
X483835*
Y142614*
X487835Y146614D02*
Y150614D01*
X475803Y142614D02*
X483803D01*
Y150614*
X475803*
Y142614*
X479803Y146614D02*
Y150614D01*
X505512Y123559D02*
X509512Y127559D01*
X505512Y131559*
X501512Y127559*
X505512Y123559*
Y127559D02*
Y131559D01*
X466142Y123559D02*
X470142Y127559D01*
X466142Y131559*
X462142Y127559*
X466142Y123559*
Y127559D02*
Y131559D01*
X550843Y132614D02*
X558843D01*
Y140614*
X550843*
Y132614*
X554843Y136614D02*
Y140614D01*
X542811Y132614D02*
X550811D01*
Y140614*
X542811*
Y132614*
X546811Y136614D02*
Y140614D01*
X546827Y142614D02*
X554827D01*
Y150614*
X546827*
Y142614*
X550827Y146614D02*
Y150614D01*
X538795Y142614D02*
X546795D01*
Y150614*
X538795*
Y142614*
X542795Y146614D02*
Y150614D01*
X568504Y123559D02*
X572504Y127559D01*
X568504Y131559*
X564504Y127559*
X568504Y123559*
Y127559D02*
Y131559D01*
X529134Y123559D02*
X533134Y127559D01*
X529134Y131559*
X525134Y127559*
X529134Y123559*
Y127559D02*
Y131559D01*
X160961Y344031D02*
X168961D01*
Y352031*
X160961*
Y344031*
X164961Y348031D02*
Y352031D01*
X141276Y344031D02*
X149276D01*
Y352031*
X141276*
Y344031*
X145276Y348031D02*
Y352031D01*
X141276Y312535D02*
X149276D01*
Y320535*
X141276*
Y312535*
X145276Y316535D02*
Y320535D01*
X160961Y312535D02*
X168961D01*
Y320535*
X160961*
Y312535*
X164961Y316535D02*
Y320535D01*
X475921Y344031D02*
X483921D01*
Y352031*
X475921*
Y344031*
X479921Y348031D02*
Y352031D01*
X456236Y344031D02*
X464236D01*
Y352031*
X456236*
Y344031*
X460236Y348031D02*
Y352031D01*
X456236Y312535D02*
X464236D01*
Y320535*
X456236*
Y312535*
X460236Y316535D02*
Y320535D01*
X475921Y312535D02*
X483921D01*
Y320535*
X475921*
Y312535*
X479921Y316535D02*
Y320535D01*
X538913Y344031D02*
X546913D01*
Y352031*
X538913*
Y344031*
X542913Y348031D02*
Y352031D01*
X519228Y344031D02*
X527228D01*
Y352031*
X519228*
Y344031*
X523228Y348031D02*
Y352031D01*
X519228Y312535D02*
X527228D01*
Y320535*
X519228*
Y312535*
X523228Y316535D02*
Y320535D01*
X538913Y312535D02*
X546913D01*
Y320535*
X538913*
Y312535*
X542913Y316535D02*
Y320535D01*
X601906Y344031D02*
X609906D01*
Y352031*
X601906*
Y344031*
X605906Y348031D02*
Y352031D01*
X582220Y344031D02*
X590220D01*
Y352031*
X582220*
Y344031*
X586220Y348031D02*
Y352031D01*
X582220Y312535D02*
X590220D01*
Y320535*
X582220*
Y312535*
X586220Y316535D02*
Y320535D01*
X601906Y312535D02*
X609906D01*
Y320535*
X601906*
Y312535*
X605906Y316535D02*
Y320535D01*
X223953Y344031D02*
X231953D01*
Y352031*
X223953*
Y344031*
X227953Y348031D02*
Y352031D01*
X204268Y344031D02*
X212268D01*
Y352031*
X204268*
Y344031*
X208268Y348031D02*
Y352031D01*
X204268Y312535D02*
X212268D01*
Y320535*
X204268*
Y312535*
X208268Y316535D02*
Y320535D01*
X223953Y312535D02*
X231953D01*
Y320535*
X223953*
Y312535*
X227953Y316535D02*
Y320535D01*
X286945Y344031D02*
X294945D01*
Y352031*
X286945*
Y344031*
X290945Y348031D02*
Y352031D01*
X267260Y344031D02*
X275260D01*
Y352031*
X267260*
Y344031*
X271260Y348031D02*
Y352031D01*
X267260Y312535D02*
X275260D01*
Y320535*
X267260*
Y312535*
X271260Y316535D02*
Y320535D01*
X286945Y312535D02*
X294945D01*
Y320535*
X286945*
Y312535*
X290945Y316535D02*
Y320535D01*
X349937Y344031D02*
X357937D01*
Y352031*
X349937*
Y344031*
X353937Y348031D02*
Y352031D01*
X330252Y344031D02*
X338252D01*
Y352031*
X330252*
Y344031*
X334252Y348031D02*
Y352031D01*
X330252Y312535D02*
X338252D01*
Y320535*
X330252*
Y312535*
X334252Y316535D02*
Y320535D01*
X349937Y312535D02*
X357937D01*
Y320535*
X349937*
Y312535*
X353937Y316535D02*
Y320535D01*
X412929Y344031D02*
X420929D01*
Y352031*
X412929*
Y344031*
X416929Y348031D02*
Y352031D01*
X393244Y344031D02*
X401244D01*
Y352031*
X393244*
Y344031*
X397244Y348031D02*
Y352031D01*
X393244Y312535D02*
X401244D01*
Y320535*
X393244*
Y312535*
X397244Y316535D02*
Y320535D01*
X412929Y312535D02*
X420929D01*
Y320535*
X412929*
Y312535*
X416929Y316535D02*
Y320535D01*
X440488Y285961D02*
X448488Y293961D01*
X440488D02*
X448488Y285961D01*
X440488Y307614D02*
X448488Y315614D01*
X440488D02*
X448488Y307614D01*
X503480Y285961D02*
X511480Y293961D01*
X503480D02*
X511480Y285961D01*
X503480Y307614D02*
X511480Y315614D01*
X503480D02*
X511480Y307614D01*
X566472Y285961D02*
X574472Y293961D01*
X566472D02*
X574472Y285961D01*
X566472Y307614D02*
X574472Y315614D01*
X566472D02*
X574472Y307614D01*
X629465Y285961D02*
X637465Y293961D01*
X629465D02*
X637465Y285961D01*
X629465Y307614D02*
X637465Y315614D01*
X629465D02*
X637465Y307614D01*
X188520Y285961D02*
X196520Y293961D01*
X188520D02*
X196520Y285961D01*
X188520Y307614D02*
X196520Y315614D01*
X188520D02*
X196520Y307614D01*
X251512Y285961D02*
X259512Y293961D01*
X251512D02*
X259512Y285961D01*
X251512Y307614D02*
X259512Y315614D01*
X251512D02*
X259512Y307614D01*
X314504Y285961D02*
X322504Y293961D01*
X314504D02*
X322504Y285961D01*
X314504Y307614D02*
X322504Y315614D01*
X314504D02*
X322504Y307614D01*
X377496Y285961D02*
X385496Y293961D01*
X377496D02*
X385496Y285961D01*
X377496Y307614D02*
X385496Y315614D01*
X377496D02*
X385496Y307614D01*
X447378Y164898D02*
X455378Y172898D01*
X447378D02*
X455378Y164898D01*
X453283D02*
X461283Y172898D01*
X453283D02*
X461283Y164898D01*
X437535D02*
X445535Y172898D01*
X437535D02*
X445535Y164898D01*
X431630D02*
X439630Y172898D01*
X431630D02*
X439630Y164898D01*
X828283Y317457D02*
X836283Y325457D01*
X828283D02*
X836283Y317457D01*
X828283Y323362D02*
X836283Y331362D01*
X828283D02*
X836283Y323362D01*
X221984Y363717D02*
X229984D01*
X221984Y371717*
X229984*
X221984Y363717*
X208234D02*
X216234D01*
X208234Y371717*
X216234*
X208234Y363717*
X284976D02*
X292976D01*
X284976Y371717*
X292976*
X284976Y363717*
X271226D02*
X279226D01*
X271226Y371717*
X279226*
X271226Y363717*
X347969D02*
X355969D01*
X347969Y371717*
X355969*
X347969Y363717*
X334219D02*
X342219D01*
X334219Y371717*
X342219*
X334219Y363717*
X410961D02*
X418961D01*
X410961Y371717*
X418961*
X410961Y363717*
X397211D02*
X405211D01*
X397211Y371717*
X405211*
X397211Y363717*
X473953D02*
X481953D01*
X473953Y371717*
X481953*
X473953Y363717*
X460203D02*
X468203D01*
X460203Y371717*
X468203*
X460203Y363717*
X536945D02*
X544945D01*
X536945Y371717*
X544945*
X536945Y363717*
X523195D02*
X531195D01*
X523195Y371717*
X531195*
X523195Y363717*
X599937D02*
X607937D01*
X599937Y371717*
X607937*
X599937Y363717*
X586187D02*
X594187D01*
X586187Y371717*
X594187*
X586187Y363717*
X158992D02*
X166992D01*
X158992Y371717*
X166992*
X158992Y363717*
X145242D02*
X153242D01*
X145242Y371717*
X153242*
X145242Y363717*
X334189Y115685D02*
X342189Y123685D01*
X334189D02*
X342189Y115685D01*
X314504D02*
X322504Y123685D01*
X314504D02*
X322504Y115685D01*
X271197D02*
X279197Y123685D01*
X271197D02*
X279197Y115685D01*
X251512D02*
X259512Y123685D01*
X251512D02*
X259512Y115685D01*
X660961Y363717D02*
X668961Y371717D01*
X660961D02*
X668961Y363717D01*
X688520D02*
X696520Y371717D01*
X688520D02*
X696520Y363717D01*
X790882Y328283D02*
X798882Y336283D01*
X790882D02*
X798882Y328283D01*
X763323D02*
X771323Y336283D01*
X763323D02*
X771323Y328283D01*
X688520Y210173D02*
X696520Y218173D01*
X688520D02*
X696520Y210173D01*
X660961D02*
X668961Y218173D01*
X660961D02*
X668961Y210173D01*
X814504D02*
X822504Y218173D01*
X814504D02*
X822504Y210173D01*
X786945D02*
X794945Y218173D01*
X786945D02*
X794945Y210173D01*
X182614Y346000D02*
X190614Y354000D01*
X182614D02*
X190614Y346000D01*
X182614Y318441D02*
X190614Y326441D01*
X182614D02*
X190614Y318441D01*
X682614Y299740D02*
X690614Y307740D01*
X682614D02*
X690614Y299740D01*
X682614Y254465D02*
X690614Y262465D01*
X682614D02*
X690614Y254465D01*
X702299Y177693D02*
X710299Y185693D01*
X702299D02*
X710299Y177693D01*
X702299Y132417D02*
X710299Y140417D01*
X702299D02*
X710299Y132417D01*
X245606Y346000D02*
X253606Y354000D01*
X245606D02*
X253606Y346000D01*
X245606Y318441D02*
X253606Y326441D01*
X245606D02*
X253606Y318441D01*
X308598Y346000D02*
X316598Y354000D01*
X308598D02*
X316598Y346000D01*
X308598Y318441D02*
X316598Y326441D01*
X308598D02*
X316598Y318441D01*
X371591Y346000D02*
X379591Y354000D01*
X371591D02*
X379591Y346000D01*
X371591Y318441D02*
X379591Y326441D01*
X371591D02*
X379591Y318441D01*
X434583Y346000D02*
X442583Y354000D01*
X434583D02*
X442583Y346000D01*
X434583Y318441D02*
X442583Y326441D01*
X434583D02*
X442583Y318441D01*
X497575Y346000D02*
X505575Y354000D01*
X497575D02*
X505575Y346000D01*
X497575Y318441D02*
X505575Y326441D01*
X497575D02*
X505575Y318441D01*
X560567Y346000D02*
X568567Y354000D01*
X560567D02*
X568567Y346000D01*
X560567Y318441D02*
X568567Y326441D01*
X560567D02*
X568567Y318441D01*
X623559Y346000D02*
X631559Y354000D01*
X623559D02*
X631559Y346000D01*
X623559Y318441D02*
X631559Y326441D01*
X623559D02*
X631559Y318441D01*
X859780Y269228D02*
X867780Y277228D01*
Y269228*
X859780Y277228*
Y269228*
Y186551D02*
X867780Y194551D01*
Y186551*
X859780Y194551*
Y186551*
X190488Y261354D02*
X198488D01*
Y269354*
X190488*
Y261354*
X194488Y265354D02*
Y269354D01*
X180488Y261354D02*
X188488D01*
Y269354*
X180488*
Y261354*
X184488Y265354D02*
Y269354D01*
X180488Y231354D02*
X188488D01*
Y239354*
X180488*
Y231354*
X184488Y235354D02*
Y239354D01*
X190488Y231354D02*
X198488D01*
Y239354*
X190488*
Y231354*
X194488Y235354D02*
Y239354D01*
X253480Y261354D02*
X261480D01*
Y269354*
X253480*
Y261354*
X257480Y265354D02*
Y269354D01*
X243480Y261354D02*
X251480D01*
Y269354*
X243480*
Y261354*
X247480Y265354D02*
Y269354D01*
X243480Y231354D02*
X251480D01*
Y239354*
X243480*
Y231354*
X247480Y235354D02*
Y239354D01*
X253480Y231354D02*
X261480D01*
Y239354*
X253480*
Y231354*
X257480Y235354D02*
Y239354D01*
X316472Y261354D02*
X324472D01*
Y269354*
X316472*
Y261354*
X320472Y265354D02*
Y269354D01*
X306472Y261354D02*
X314472D01*
Y269354*
X306472*
Y261354*
X310472Y265354D02*
Y269354D01*
X306472Y231354D02*
X314472D01*
Y239354*
X306472*
Y231354*
X310472Y235354D02*
Y239354D01*
X316472Y231354D02*
X324472D01*
Y239354*
X316472*
Y231354*
X320472Y235354D02*
Y239354D01*
X379465Y261354D02*
X387465D01*
Y269354*
X379465*
Y261354*
X383465Y265354D02*
Y269354D01*
X369465Y261354D02*
X377465D01*
Y269354*
X369465*
Y261354*
X373465Y265354D02*
Y269354D01*
X369465Y231354D02*
X377465D01*
Y239354*
X369465*
Y231354*
X373465Y235354D02*
Y239354D01*
X379465Y231354D02*
X387465D01*
Y239354*
X379465*
Y231354*
X383465Y235354D02*
Y239354D01*
X442457Y261354D02*
X450457D01*
Y269354*
X442457*
Y261354*
X446457Y265354D02*
Y269354D01*
X432457Y261354D02*
X440457D01*
Y269354*
X432457*
Y261354*
X436457Y265354D02*
Y269354D01*
X432457Y231354D02*
X440457D01*
Y239354*
X432457*
Y231354*
X436457Y235354D02*
Y239354D01*
X442457Y231354D02*
X450457D01*
Y239354*
X442457*
Y231354*
X446457Y235354D02*
Y239354D01*
X505449Y261354D02*
X513449D01*
Y269354*
X505449*
Y261354*
X509449Y265354D02*
Y269354D01*
X495449Y261354D02*
X503449D01*
Y269354*
X495449*
Y261354*
X499449Y265354D02*
Y269354D01*
X495449Y231354D02*
X503449D01*
Y239354*
X495449*
Y231354*
X499449Y235354D02*
Y239354D01*
X505449Y231354D02*
X513449D01*
Y239354*
X505449*
Y231354*
X509449Y235354D02*
Y239354D01*
X568441Y261354D02*
X576441D01*
Y269354*
X568441*
Y261354*
X572441Y265354D02*
Y269354D01*
X558441Y261354D02*
X566441D01*
Y269354*
X558441*
Y261354*
X562441Y265354D02*
Y269354D01*
X558441Y231354D02*
X566441D01*
Y239354*
X558441*
Y231354*
X562441Y235354D02*
Y239354D01*
X568441Y231354D02*
X576441D01*
Y239354*
X568441*
Y231354*
X572441Y235354D02*
Y239354D01*
X631433Y261354D02*
X639433D01*
Y269354*
X631433*
Y261354*
X635433Y265354D02*
Y269354D01*
X621433Y261354D02*
X629433D01*
Y269354*
X621433*
Y261354*
X625433Y265354D02*
Y269354D01*
X621433Y231354D02*
X629433D01*
Y239354*
X621433*
Y231354*
X625433Y235354D02*
Y239354D01*
X631433Y231354D02*
X639433D01*
Y239354*
X631433*
Y231354*
X635433Y235354D02*
Y239354D01*
X414898Y103874D02*
X422898D01*
Y111874*
X414898*
Y103874*
X418898Y107874D02*
Y111874D01*
X424740Y103874D02*
X432740D01*
Y111874*
X424740*
Y103874*
X428740Y107874D02*
Y111874D01*
X434583Y103874D02*
X442583D01*
Y111874*
X434583*
Y103874*
X438583Y107874D02*
Y111874D01*
X363717Y103874D02*
X371717D01*
Y111874*
X363717*
Y103874*
X367717Y107874D02*
Y111874D01*
X373559Y103874D02*
X381559D01*
Y111874*
X373559*
Y103874*
X377559Y107874D02*
Y111874D01*
X383402Y103874D02*
X391402D01*
Y111874*
X383402*
Y103874*
X387402Y107874D02*
Y111874D01*
X859780Y314566D02*
X867780D01*
X863780Y310566D02*
Y318566D01*
X866689Y319848D02*
X865780Y316566D01*
X866689Y319848D02*
X867598Y316566D01*
X866120Y317660D02*
X867257D01*
X859780Y334252D02*
X867780D01*
X863780Y330252D02*
Y338252D01*
X866689Y339534D02*
X865780Y336252D01*
X866689Y339534D02*
X867598Y336252D01*
X866120Y337346D02*
X867257D01*
X398713Y243232D02*
X406713Y251232D01*
X398713D02*
X406713Y243232D01*
X391713D02*
X399713Y251232D01*
X391713D02*
X399713Y243232D01*
X395213Y231827D02*
X403213Y239827D01*
X395213D02*
X403213Y231827D01*
X461705Y243232D02*
X469705Y251232D01*
X461705D02*
X469705Y243232D01*
X454705D02*
X462705Y251232D01*
X454705D02*
X462705Y243232D01*
X458205Y231827D02*
X466205Y239827D01*
X458205D02*
X466205Y231827D01*
X524697Y243232D02*
X532697Y251232D01*
X524697D02*
X532697Y243232D01*
X517697D02*
X525697Y251232D01*
X517697D02*
X525697Y243232D01*
X521197Y231827D02*
X529197Y239827D01*
X521197D02*
X529197Y231827D01*
X587689Y243232D02*
X595689Y251232D01*
X587689D02*
X595689Y243232D01*
X580689D02*
X588689Y251232D01*
X580689D02*
X588689Y243232D01*
X584189Y231827D02*
X592189Y239827D01*
X584189D02*
X592189Y231827D01*
X146744Y243232D02*
X154744Y251232D01*
X146744D02*
X154744Y243232D01*
X139744D02*
X147744Y251232D01*
X139744D02*
X147744Y243232D01*
X143244Y231827D02*
X151244Y239827D01*
X143244D02*
X151244Y231827D01*
X209736Y243232D02*
X217736Y251232D01*
X209736D02*
X217736Y243232D01*
X202736D02*
X210736Y251232D01*
X202736D02*
X210736Y243232D01*
X206236Y231827D02*
X214236Y239827D01*
X206236D02*
X214236Y231827D01*
X272728Y243232D02*
X280728Y251232D01*
X272728D02*
X280728Y243232D01*
X265728D02*
X273728Y251232D01*
X265728D02*
X273728Y243232D01*
X269228Y231827D02*
X277228Y239827D01*
X269228D02*
X277228Y231827D01*
X335720Y243232D02*
X343720Y251232D01*
X335720D02*
X343720Y243232D01*
X328720D02*
X336720Y251232D01*
X328720D02*
X336720Y243232D01*
X332220Y231827D02*
X340220Y239827D01*
X332220D02*
X340220Y231827D01*
X221984Y202299D02*
X229984D01*
Y210299*
X221984*
Y202299*
X225984Y206299D02*
Y210299D01*
X211984Y202299D02*
X219984D01*
Y210299*
X211984*
Y202299*
X215984Y206299D02*
Y210299D01*
X115685Y178740D02*
X123685D01*
X119685Y174740D02*
Y182740D01*
X121685Y184021D02*
Y180740D01*
Y184021D02*
X122708D01*
X123049Y183865*
X123162Y183709*
X123276Y183396*
Y183084*
X123162Y182771*
X123049Y182615*
X122708Y182459*
X121685D02*
X122708D01*
X123049Y182303*
X123162Y182146*
X123276Y181834*
Y181365*
X123162Y181053*
X123049Y180896*
X122708Y180740*
X121685*
X107811Y178740D02*
X115811D01*
X111811Y174740D02*
Y182740D01*
X113811Y184021D02*
Y180740D01*
Y184021D02*
X114834D01*
X115175Y183865*
X115288Y183709*
X115402Y183396*
Y183084*
X115288Y182771*
X115175Y182615*
X114834Y182459*
X113811D02*
X114834D01*
X115175Y182303*
X115288Y182146*
X115402Y181834*
Y181365*
X115288Y181053*
X115175Y180896*
X114834Y180740*
X113811*
X115685Y186614D02*
X123685D01*
X119685Y182614D02*
Y190614D01*
X121685Y191895D02*
Y188614D01*
Y191895D02*
X122708D01*
X123049Y191739*
X123162Y191583*
X123276Y191270*
Y190958*
X123162Y190645*
X123049Y190489*
X122708Y190333*
X121685D02*
X122708D01*
X123049Y190177*
X123162Y190020*
X123276Y189708*
Y189239*
X123162Y188927*
X123049Y188770*
X122708Y188614*
X121685*
X107811Y186614D02*
X115811D01*
X111811Y182614D02*
Y190614D01*
X113811Y191895D02*
Y188614D01*
Y191895D02*
X114834D01*
X115175Y191739*
X115288Y191583*
X115402Y191270*
Y190958*
X115288Y190645*
X115175Y190489*
X114834Y190333*
X113811D02*
X114834D01*
X115175Y190177*
X115288Y190020*
X115402Y189708*
Y189239*
X115288Y188927*
X115175Y188770*
X114834Y188614*
X113811*
X115685Y194488D02*
X123685D01*
X119685Y190488D02*
Y198488D01*
X121685Y199769D02*
Y196488D01*
Y199769D02*
X122708D01*
X123049Y199613*
X123162Y199457*
X123276Y199144*
Y198832*
X123162Y198519*
X123049Y198363*
X122708Y198207*
X121685D02*
X122708D01*
X123049Y198051*
X123162Y197894*
X123276Y197582*
Y197113*
X123162Y196801*
X123049Y196644*
X122708Y196488*
X121685*
X107811Y194488D02*
X115811D01*
X111811Y190488D02*
Y198488D01*
X113811Y199769D02*
Y196488D01*
Y199769D02*
X114834D01*
X115175Y199613*
X115288Y199457*
X115402Y199144*
Y198832*
X115288Y198519*
X115175Y198363*
X114834Y198207*
X113811D02*
X114834D01*
X115175Y198051*
X115288Y197894*
X115402Y197582*
Y197113*
X115288Y196801*
X115175Y196644*
X114834Y196488*
X113811*
X115685Y202362D02*
X123685D01*
X119685Y198362D02*
Y206362D01*
X121685Y207643D02*
Y204362D01*
Y207643D02*
X122708D01*
X123049Y207487*
X123162Y207331*
X123276Y207018*
Y206706*
X123162Y206393*
X123049Y206237*
X122708Y206081*
X121685D02*
X122708D01*
X123049Y205925*
X123162Y205768*
X123276Y205456*
Y204987*
X123162Y204675*
X123049Y204518*
X122708Y204362*
X121685*
X107811Y202362D02*
X115811D01*
X111811Y198362D02*
Y206362D01*
X113811Y207643D02*
Y204362D01*
Y207643D02*
X114834D01*
X115175Y207487*
X115288Y207331*
X115402Y207018*
Y206706*
X115288Y206393*
X115175Y206237*
X114834Y206081*
X113811D02*
X114834D01*
X115175Y205925*
X115288Y205768*
X115402Y205456*
Y204987*
X115288Y204675*
X115175Y204518*
X114834Y204362*
X113811*
X115685Y210236D02*
X123685D01*
X119685Y206236D02*
Y214236D01*
X121685Y215517D02*
Y212236D01*
Y215517D02*
X122708D01*
X123049Y215361*
X123162Y215205*
X123276Y214892*
Y214580*
X123162Y214267*
X123049Y214111*
X122708Y213955*
X121685D02*
X122708D01*
X123049Y213799*
X123162Y213642*
X123276Y213330*
Y212861*
X123162Y212549*
X123049Y212392*
X122708Y212236*
X121685*
X107811Y210236D02*
X115811D01*
X111811Y206236D02*
Y214236D01*
X113811Y215517D02*
Y212236D01*
Y215517D02*
X114834D01*
X115175Y215361*
X115288Y215205*
X115402Y214892*
Y214580*
X115288Y214267*
X115175Y214111*
X114834Y213955*
X113811D02*
X114834D01*
X115175Y213799*
X115288Y213642*
X115402Y213330*
Y212861*
X115288Y212549*
X115175Y212392*
X114834Y212236*
X113811*
X631433Y198425D02*
X639433D01*
X635433Y194425D02*
Y202425D01*
X637433Y203706D02*
Y200425D01*
Y203706D02*
X638456D01*
X638797Y203550*
X638910Y203394*
X639024Y203081*
Y202769*
X638910Y202456*
X638797Y202300*
X638456Y202144*
X637433D02*
X638456D01*
X638797Y201988*
X638910Y201831*
X639024Y201519*
Y201050*
X638910Y200738*
X638797Y200581*
X638456Y200425*
X637433*
X639307Y198425D02*
X647307D01*
X643307Y194425D02*
Y202425D01*
X645307Y203706D02*
Y200425D01*
Y203706D02*
X646330D01*
X646671Y203550*
X646784Y203394*
X646898Y203081*
Y202769*
X646784Y202456*
X646671Y202300*
X646330Y202144*
X645307D02*
X646330D01*
X646671Y201988*
X646784Y201831*
X646898Y201519*
Y201050*
X646784Y200738*
X646671Y200581*
X646330Y200425*
X645307*
X631433Y190551D02*
X639433D01*
X635433Y186551D02*
Y194551D01*
X637433Y195832D02*
Y192551D01*
Y195832D02*
X638456D01*
X638797Y195676*
X638910Y195520*
X639024Y195207*
Y194895*
X638910Y194582*
X638797Y194426*
X638456Y194270*
X637433D02*
X638456D01*
X638797Y194114*
X638910Y193957*
X639024Y193645*
Y193176*
X638910Y192864*
X638797Y192707*
X638456Y192551*
X637433*
X639307Y190551D02*
X647307D01*
X643307Y186551D02*
Y194551D01*
X645307Y195832D02*
Y192551D01*
Y195832D02*
X646330D01*
X646671Y195676*
X646784Y195520*
X646898Y195207*
Y194895*
X646784Y194582*
X646671Y194426*
X646330Y194270*
X645307D02*
X646330D01*
X646671Y194114*
X646784Y193957*
X646898Y193645*
Y193176*
X646784Y192864*
X646671Y192707*
X646330Y192551*
X645307*
X631433Y182677D02*
X639433D01*
X635433Y178677D02*
Y186677D01*
X637433Y187958D02*
Y184677D01*
Y187958D02*
X638456D01*
X638797Y187802*
X638910Y187646*
X639024Y187333*
Y187021*
X638910Y186708*
X638797Y186552*
X638456Y186396*
X637433D02*
X638456D01*
X638797Y186240*
X638910Y186083*
X639024Y185771*
Y185302*
X638910Y184990*
X638797Y184833*
X638456Y184677*
X637433*
X639307Y182677D02*
X647307D01*
X643307Y178677D02*
Y186677D01*
X645307Y187958D02*
Y184677D01*
Y187958D02*
X646330D01*
X646671Y187802*
X646784Y187646*
X646898Y187333*
Y187021*
X646784Y186708*
X646671Y186552*
X646330Y186396*
X645307D02*
X646330D01*
X646671Y186240*
X646784Y186083*
X646898Y185771*
Y185302*
X646784Y184990*
X646671Y184833*
X646330Y184677*
X645307*
X631433Y174803D02*
X639433D01*
X635433Y170803D02*
Y178803D01*
X637433Y180084D02*
Y176803D01*
Y180084D02*
X638456D01*
X638797Y179928*
X638910Y179772*
X639024Y179459*
Y179147*
X638910Y178834*
X638797Y178678*
X638456Y178522*
X637433D02*
X638456D01*
X638797Y178366*
X638910Y178209*
X639024Y177897*
Y177428*
X638910Y177116*
X638797Y176959*
X638456Y176803*
X637433*
X639307Y174803D02*
X647307D01*
X643307Y170803D02*
Y178803D01*
X645307Y180084D02*
Y176803D01*
Y180084D02*
X646330D01*
X646671Y179928*
X646784Y179772*
X646898Y179459*
Y179147*
X646784Y178834*
X646671Y178678*
X646330Y178522*
X645307D02*
X646330D01*
X646671Y178366*
X646784Y178209*
X646898Y177897*
Y177428*
X646784Y177116*
X646671Y176959*
X646330Y176803*
X645307*
X631433Y166929D02*
X639433D01*
X635433Y162929D02*
Y170929D01*
X637433Y172210D02*
Y168929D01*
Y172210D02*
X638456D01*
X638797Y172054*
X638910Y171898*
X639024Y171585*
Y171273*
X638910Y170960*
X638797Y170804*
X638456Y170648*
X637433D02*
X638456D01*
X638797Y170492*
X638910Y170335*
X639024Y170023*
Y169554*
X638910Y169242*
X638797Y169085*
X638456Y168929*
X637433*
X639307Y166929D02*
X647307D01*
X643307Y162929D02*
Y170929D01*
X645307Y172210D02*
Y168929D01*
Y172210D02*
X646330D01*
X646671Y172054*
X646784Y171898*
X646898Y171585*
Y171273*
X646784Y170960*
X646671Y170804*
X646330Y170648*
X645307D02*
X646330D01*
X646671Y170492*
X646784Y170335*
X646898Y170023*
Y169554*
X646784Y169242*
X646671Y169085*
X646330Y168929*
X645307*
X631433Y159055D02*
X639433D01*
X635433Y155055D02*
Y163055D01*
X637433Y164336D02*
Y161055D01*
Y164336D02*
X638456D01*
X638797Y164180*
X638910Y164024*
X639024Y163711*
Y163399*
X638910Y163086*
X638797Y162930*
X638456Y162774*
X637433D02*
X638456D01*
X638797Y162618*
X638910Y162461*
X639024Y162149*
Y161680*
X638910Y161368*
X638797Y161211*
X638456Y161055*
X637433*
X639307Y159055D02*
X647307D01*
X643307Y155055D02*
Y163055D01*
X645307Y164336D02*
Y161055D01*
Y164336D02*
X646330D01*
X646671Y164180*
X646784Y164024*
X646898Y163711*
Y163399*
X646784Y163086*
X646671Y162930*
X646330Y162774*
X645307D02*
X646330D01*
X646671Y162618*
X646784Y162461*
X646898Y162149*
Y161680*
X646784Y161368*
X646671Y161211*
X646330Y161055*
X645307*
X631433Y151181D02*
X639433D01*
X635433Y147181D02*
Y155181D01*
X637433Y156462D02*
Y153181D01*
Y156462D02*
X638456D01*
X638797Y156306*
X638910Y156150*
X639024Y155837*
Y155525*
X638910Y155212*
X638797Y155056*
X638456Y154900*
X637433D02*
X638456D01*
X638797Y154744*
X638910Y154587*
X639024Y154275*
Y153806*
X638910Y153494*
X638797Y153337*
X638456Y153181*
X637433*
X639307Y151181D02*
X647307D01*
X643307Y147181D02*
Y155181D01*
X645307Y156462D02*
Y153181D01*
Y156462D02*
X646330D01*
X646671Y156306*
X646784Y156150*
X646898Y155837*
Y155525*
X646784Y155212*
X646671Y155056*
X646330Y154900*
X645307D02*
X646330D01*
X646671Y154744*
X646784Y154587*
X646898Y154275*
Y153806*
X646784Y153494*
X646671Y153337*
X646330Y153181*
X645307*
X631433Y143307D02*
X639433D01*
X635433Y139307D02*
Y147307D01*
X637433Y148588D02*
Y145307D01*
Y148588D02*
X638456D01*
X638797Y148432*
X638910Y148276*
X639024Y147963*
Y147651*
X638910Y147338*
X638797Y147182*
X638456Y147026*
X637433D02*
X638456D01*
X638797Y146870*
X638910Y146713*
X639024Y146401*
Y145932*
X638910Y145620*
X638797Y145463*
X638456Y145307*
X637433*
X639307Y143307D02*
X647307D01*
X643307Y139307D02*
Y147307D01*
X645307Y148588D02*
Y145307D01*
Y148588D02*
X646330D01*
X646671Y148432*
X646784Y148276*
X646898Y147963*
Y147651*
X646784Y147338*
X646671Y147182*
X646330Y147026*
X645307D02*
X646330D01*
X646671Y146870*
X646784Y146713*
X646898Y146401*
Y145932*
X646784Y145620*
X646671Y145463*
X646330Y145307*
X645307*
X930646Y210236D02*
X938646D01*
X934646Y206236D02*
Y214236D01*
X936646Y215517D02*
Y212236D01*
Y215517D02*
X937668D01*
X938009Y215361*
X938123Y215205*
X938237Y214892*
Y214580*
X938123Y214267*
X938009Y214111*
X937668Y213955*
X936646D02*
X937668D01*
X938009Y213799*
X938123Y213642*
X938237Y213330*
Y212861*
X938123Y212549*
X938009Y212392*
X937668Y212236*
X936646*
X922772Y210236D02*
X930772D01*
X926772Y206236D02*
Y214236D01*
X928772Y215517D02*
Y212236D01*
Y215517D02*
X929794D01*
X930135Y215361*
X930249Y215205*
X930363Y214892*
Y214580*
X930249Y214267*
X930135Y214111*
X929794Y213955*
X928772D02*
X929794D01*
X930135Y213799*
X930249Y213642*
X930363Y213330*
Y212861*
X930249Y212549*
X930135Y212392*
X929794Y212236*
X928772*
X930646Y202362D02*
X938646D01*
X934646Y198362D02*
Y206362D01*
X936646Y207643D02*
Y204362D01*
Y207643D02*
X937668D01*
X938009Y207487*
X938123Y207331*
X938237Y207018*
Y206706*
X938123Y206393*
X938009Y206237*
X937668Y206081*
X936646D02*
X937668D01*
X938009Y205925*
X938123Y205768*
X938237Y205456*
Y204987*
X938123Y204675*
X938009Y204518*
X937668Y204362*
X936646*
X922772Y202362D02*
X930772D01*
X926772Y198362D02*
Y206362D01*
X928772Y207643D02*
Y204362D01*
Y207643D02*
X929794D01*
X930135Y207487*
X930249Y207331*
X930363Y207018*
Y206706*
X930249Y206393*
X930135Y206237*
X929794Y206081*
X928772D02*
X929794D01*
X930135Y205925*
X930249Y205768*
X930363Y205456*
Y204987*
X930249Y204675*
X930135Y204518*
X929794Y204362*
X928772*
X930646Y194488D02*
X938646D01*
X934646Y190488D02*
Y198488D01*
X936646Y199769D02*
Y196488D01*
Y199769D02*
X937668D01*
X938009Y199613*
X938123Y199457*
X938237Y199144*
Y198832*
X938123Y198519*
X938009Y198363*
X937668Y198207*
X936646D02*
X937668D01*
X938009Y198051*
X938123Y197894*
X938237Y197582*
Y197113*
X938123Y196801*
X938009Y196644*
X937668Y196488*
X936646*
X922772Y194488D02*
X930772D01*
X926772Y190488D02*
Y198488D01*
X928772Y199769D02*
Y196488D01*
Y199769D02*
X929794D01*
X930135Y199613*
X930249Y199457*
X930363Y199144*
Y198832*
X930249Y198519*
X930135Y198363*
X929794Y198207*
X928772D02*
X929794D01*
X930135Y198051*
X930249Y197894*
X930363Y197582*
Y197113*
X930249Y196801*
X930135Y196644*
X929794Y196488*
X928772*
X930646Y186614D02*
X938646D01*
X934646Y182614D02*
Y190614D01*
X936646Y191895D02*
Y188614D01*
Y191895D02*
X937668D01*
X938009Y191739*
X938123Y191583*
X938237Y191270*
Y190958*
X938123Y190645*
X938009Y190489*
X937668Y190333*
X936646D02*
X937668D01*
X938009Y190177*
X938123Y190020*
X938237Y189708*
Y189239*
X938123Y188927*
X938009Y188770*
X937668Y188614*
X936646*
X922772Y186614D02*
X930772D01*
X926772Y182614D02*
Y190614D01*
X928772Y191895D02*
Y188614D01*
Y191895D02*
X929794D01*
X930135Y191739*
X930249Y191583*
X930363Y191270*
Y190958*
X930249Y190645*
X930135Y190489*
X929794Y190333*
X928772D02*
X929794D01*
X930135Y190177*
X930249Y190020*
X930363Y189708*
Y189239*
X930249Y188927*
X930135Y188770*
X929794Y188614*
X928772*
X930646Y178740D02*
X938646D01*
X934646Y174740D02*
Y182740D01*
X936646Y184021D02*
Y180740D01*
Y184021D02*
X937668D01*
X938009Y183865*
X938123Y183709*
X938237Y183396*
Y183084*
X938123Y182771*
X938009Y182615*
X937668Y182459*
X936646D02*
X937668D01*
X938009Y182303*
X938123Y182146*
X938237Y181834*
Y181365*
X938123Y181053*
X938009Y180896*
X937668Y180740*
X936646*
X922772Y178740D02*
X930772D01*
X926772Y174740D02*
Y182740D01*
X928772Y184021D02*
Y180740D01*
Y184021D02*
X929794D01*
X930135Y183865*
X930249Y183709*
X930363Y183396*
Y183084*
X930249Y182771*
X930135Y182615*
X929794Y182459*
X928772D02*
X929794D01*
X930135Y182303*
X930249Y182146*
X930363Y181834*
Y181365*
X930249Y181053*
X930135Y180896*
X929794Y180740*
X928772*
X930646Y170866D02*
X938646D01*
X934646Y166866D02*
Y174866D01*
X936646Y176147D02*
Y172866D01*
Y176147D02*
X937668D01*
X938009Y175991*
X938123Y175835*
X938237Y175522*
Y175210*
X938123Y174897*
X938009Y174741*
X937668Y174585*
X936646D02*
X937668D01*
X938009Y174429*
X938123Y174272*
X938237Y173960*
Y173491*
X938123Y173179*
X938009Y173022*
X937668Y172866*
X936646*
X922772Y170866D02*
X930772D01*
X926772Y166866D02*
Y174866D01*
X928772Y176147D02*
Y172866D01*
Y176147D02*
X929794D01*
X930135Y175991*
X930249Y175835*
X930363Y175522*
Y175210*
X930249Y174897*
X930135Y174741*
X929794Y174585*
X928772D02*
X929794D01*
X930135Y174429*
X930249Y174272*
X930363Y173960*
Y173491*
X930249Y173179*
X930135Y173022*
X929794Y172866*
X928772*
X930646Y162992D02*
X938646D01*
X934646Y158992D02*
Y166992D01*
X936646Y168273D02*
Y164992D01*
Y168273D02*
X937668D01*
X938009Y168117*
X938123Y167961*
X938237Y167648*
Y167336*
X938123Y167023*
X938009Y166867*
X937668Y166711*
X936646D02*
X937668D01*
X938009Y166555*
X938123Y166398*
X938237Y166086*
Y165617*
X938123Y165305*
X938009Y165148*
X937668Y164992*
X936646*
X922772Y162992D02*
X930772D01*
X926772Y158992D02*
Y166992D01*
X928772Y168273D02*
Y164992D01*
Y168273D02*
X929794D01*
X930135Y168117*
X930249Y167961*
X930363Y167648*
Y167336*
X930249Y167023*
X930135Y166867*
X929794Y166711*
X928772D02*
X929794D01*
X930135Y166555*
X930249Y166398*
X930363Y166086*
Y165617*
X930249Y165305*
X930135Y165148*
X929794Y164992*
X928772*
X930646Y155118D02*
X938646D01*
X934646Y151118D02*
Y159118D01*
X936646Y160399D02*
Y157118D01*
Y160399D02*
X937668D01*
X938009Y160243*
X938123Y160087*
X938237Y159774*
Y159462*
X938123Y159149*
X938009Y158993*
X937668Y158837*
X936646D02*
X937668D01*
X938009Y158681*
X938123Y158524*
X938237Y158212*
Y157743*
X938123Y157431*
X938009Y157274*
X937668Y157118*
X936646*
X922772Y155118D02*
X930772D01*
X926772Y151118D02*
Y159118D01*
X928772Y160399D02*
Y157118D01*
Y160399D02*
X929794D01*
X930135Y160243*
X930249Y160087*
X930363Y159774*
Y159462*
X930249Y159149*
X930135Y158993*
X929794Y158837*
X928772D02*
X929794D01*
X930135Y158681*
X930249Y158524*
X930363Y158212*
Y157743*
X930249Y157431*
X930135Y157274*
X929794Y157118*
X928772*
X180646Y359780D02*
X188646D01*
Y367780*
X180646*
Y359780*
X184646Y363780D02*
Y367780D01*
X184583Y383402D02*
X192583D01*
Y391402*
X184583*
Y383402*
X188583Y387402D02*
Y391402D01*
X243638Y359780D02*
X251638D01*
Y367780*
X243638*
Y359780*
X247638Y363780D02*
Y367780D01*
X247575Y383402D02*
X255575D01*
Y391402*
X247575*
Y383402*
X251575Y387402D02*
Y391402D01*
X306630Y359780D02*
X314630D01*
Y367780*
X306630*
Y359780*
X310630Y363780D02*
Y367780D01*
X310567Y383402D02*
X318567D01*
Y391402*
X310567*
Y383402*
X314567Y387402D02*
Y391402D01*
X369622Y359780D02*
X377622D01*
Y367780*
X369622*
Y359780*
X373622Y363780D02*
Y367780D01*
X373559Y383402D02*
X381559D01*
Y391402*
X373559*
Y383402*
X377559Y387402D02*
Y391402D01*
X432614Y359780D02*
X440614D01*
Y367780*
X432614*
Y359780*
X436614Y363780D02*
Y367780D01*
X436551Y383402D02*
X444551D01*
Y391402*
X436551*
Y383402*
X440551Y387402D02*
Y391402D01*
X495606Y359780D02*
X503606D01*
Y367780*
X495606*
Y359780*
X499606Y363780D02*
Y367780D01*
X499543Y383402D02*
X507543D01*
Y391402*
X499543*
Y383402*
X503543Y387402D02*
Y391402D01*
X558598Y359780D02*
X566598D01*
Y367780*
X558598*
Y359780*
X562598Y363780D02*
Y367780D01*
X562535Y383402D02*
X570535D01*
Y391402*
X562535*
Y383402*
X566535Y387402D02*
Y391402D01*
X621591Y359780D02*
X629591D01*
Y367780*
X621591*
Y359780*
X625591Y363780D02*
Y367780D01*
X625528Y383402D02*
X633528D01*
Y391402*
X625528*
Y383402*
X629528Y387402D02*
Y391402D01*
X826315Y308598D02*
X834315D01*
Y316598*
X826315*
Y308598*
X830315Y312598D02*
Y316598D01*
X830252Y332220D02*
X838252D01*
Y340220*
X830252*
Y332220*
X834252Y336220D02*
Y340220D01*
X160118Y283165D02*
X168118Y291165D01*
X160118D02*
X168118Y283165D01*
X151118D02*
X159118Y291165D01*
X151118D02*
X159118Y283165D01*
X142118D02*
X150118Y291165D01*
X142118D02*
X150118Y283165D01*
X151118Y258415D02*
X159118Y266415D01*
X151118D02*
X159118Y258415D01*
X475079Y283165D02*
X483079Y291165D01*
X475079D02*
X483079Y283165D01*
X466079D02*
X474079Y291165D01*
X466079D02*
X474079Y283165D01*
X457079D02*
X465079Y291165D01*
X457079D02*
X465079Y283165D01*
X466079Y258415D02*
X474079Y266415D01*
X466079D02*
X474079Y258415D01*
X538071Y283165D02*
X546071Y291165D01*
X538071D02*
X546071Y283165D01*
X529071D02*
X537071Y291165D01*
X529071D02*
X537071Y283165D01*
X520071D02*
X528071Y291165D01*
X520071D02*
X528071Y283165D01*
X529071Y258415D02*
X537071Y266415D01*
X529071D02*
X537071Y258415D01*
X601063Y283165D02*
X609063Y291165D01*
X601063D02*
X609063Y283165D01*
X592063D02*
X600063Y291165D01*
X592063D02*
X600063Y283165D01*
X583063D02*
X591063Y291165D01*
X583063D02*
X591063Y283165D01*
X592063Y258415D02*
X600063Y266415D01*
X592063D02*
X600063Y258415D01*
X223110Y283165D02*
X231110Y291165D01*
X223110D02*
X231110Y283165D01*
X214110D02*
X222110Y291165D01*
X214110D02*
X222110Y283165D01*
X205110D02*
X213110Y291165D01*
X205110D02*
X213110Y283165D01*
X214110Y258415D02*
X222110Y266415D01*
X214110D02*
X222110Y258415D01*
X286102Y283165D02*
X294102Y291165D01*
X286102D02*
X294102Y283165D01*
X277102D02*
X285102Y291165D01*
X277102D02*
X285102Y283165D01*
X268102D02*
X276102Y291165D01*
X268102D02*
X276102Y283165D01*
X277102Y258415D02*
X285102Y266415D01*
X277102D02*
X285102Y258415D01*
X349094Y283165D02*
X357094Y291165D01*
X349094D02*
X357094Y283165D01*
X340094D02*
X348094Y291165D01*
X340094D02*
X348094Y283165D01*
X331094D02*
X339094Y291165D01*
X331094D02*
X339094Y283165D01*
X340094Y258415D02*
X348094Y266415D01*
X340094D02*
X348094Y258415D01*
X412087Y283165D02*
X420087Y291165D01*
X412087D02*
X420087Y283165D01*
X403087D02*
X411087Y291165D01*
X403087D02*
X411087Y283165D01*
X394087D02*
X402087Y291165D01*
X394087D02*
X402087Y283165D01*
X403087Y258415D02*
X411087Y266415D01*
X403087D02*
X411087Y258415D01*
X209386Y168441D02*
X217386Y176441D01*
X209386D02*
X217386Y168441D01*
X218835Y181039D02*
X226835Y189039D01*
X218835D02*
X226835Y181039D01*
X182614Y103874D02*
X190614D01*
Y111874*
X182614*
Y103874*
X186614Y107874D02*
Y111874D01*
X192614Y103874D02*
X200614D01*
Y111874*
X192614*
Y103874*
X196614Y107874D02*
Y111874D01*
X202614Y103874D02*
X210614D01*
Y111874*
X202614*
Y103874*
X206614Y107874D02*
Y111874D01*
X212614Y103874D02*
X220614D01*
Y111874*
X212614*
Y103874*
X216614Y107874D02*
Y111874D01*
X212614Y133874D02*
X220614D01*
Y141874*
X212614*
Y133874*
X216614Y137874D02*
Y141874D01*
X202614Y133874D02*
X210614D01*
Y141874*
X202614*
Y133874*
X206614Y137874D02*
Y141874D01*
X192614Y133874D02*
X200614D01*
Y141874*
X192614*
Y133874*
X196614Y137874D02*
Y141874D01*
X182614Y133874D02*
X190614D01*
Y141874*
X182614*
Y133874*
X186614Y137874D02*
Y141874D01*
X347969Y178740D02*
X355969D01*
X351969Y174740D02*
Y182740D01*
X353969Y184021D02*
Y180740D01*
Y184021D02*
X354991D01*
X355332Y183865*
X355446Y183709*
X355559Y183396*
Y183084*
X355446Y182771*
X355332Y182615*
X354991Y182459*
X353969D02*
X354991D01*
X355332Y182303*
X355446Y182146*
X355559Y181834*
Y181365*
X355446Y181053*
X355332Y180896*
X354991Y180740*
X353969*
X653087Y322441D02*
X661087D01*
X657087Y318441D02*
Y326441D01*
X659087Y327722D02*
Y324441D01*
Y327722D02*
X660109D01*
X660450Y327566*
X660564Y327410*
X660678Y327097*
Y326785*
X660564Y326472*
X660450Y326316*
X660109Y326160*
X659087D02*
X660109D01*
X660450Y326003*
X660564Y325847*
X660678Y325535*
Y325066*
X660564Y324753*
X660450Y324597*
X660109Y324441*
X659087*
X686551Y190551D02*
X694551D01*
X690551Y186551D02*
Y194551D01*
X692551Y195832D02*
Y192551D01*
Y195832D02*
X693574D01*
X693915Y195676*
X694028Y195520*
X694142Y195207*
Y194895*
X694028Y194582*
X693915Y194426*
X693574Y194270*
X692551D02*
X693574D01*
X693915Y194114*
X694028Y193957*
X694142Y193645*
Y193176*
X694028Y192864*
X693915Y192707*
X693574Y192551*
X692551*
X828283Y359843D02*
X836283D01*
X832283Y355843D02*
Y363843D01*
X834283Y365124D02*
Y361843D01*
Y365124D02*
X835306D01*
X835647Y364968*
X835761Y364811*
X835874Y364499*
Y364186*
X835761Y363874*
X835647Y363718*
X835306Y363561*
X834283D02*
X835306D01*
X835647Y363405*
X835761Y363249*
X835874Y362936*
Y362468*
X835761Y362155*
X835647Y361999*
X835306Y361843*
X834283*
X912929Y111811D02*
X920929D01*
X916929Y107811D02*
Y115811D01*
X912929Y383465D02*
X920929D01*
X916929Y379465D02*
Y387465D01*
X164898Y153087D02*
X172898Y161087D01*
X164898D02*
X172898Y153087D01*
X225921D02*
X233921Y161087D01*
X225921D02*
X233921Y153087D01*
X374543Y122575D02*
X382543Y130575D01*
X374543D02*
X382543Y122575D01*
X374543Y127496D02*
X382543Y135496D01*
X374543D02*
X382543Y127496D01*
X749543Y119622D02*
X757543Y127622D01*
X749543D02*
X757543Y119622D01*
X255449Y194425D02*
X263449Y202425D01*
X255449D02*
X263449Y194425D01*
X250528Y191472D02*
X258528Y199472D01*
X250528D02*
X258528Y191472D01*
X292850Y169819D02*
X300850Y177819D01*
X292850D02*
X300850Y169819D01*
X296787Y167850D02*
X304787Y175850D01*
X296787D02*
X304787Y167850D01*
X308598Y160961D02*
X316598Y168961D01*
X308598D02*
X316598Y160961D01*
X296787Y162929D02*
X304787Y170929D01*
X296787D02*
X304787Y162929D01*
X304661D02*
X312661Y170929D01*
X304661D02*
X312661Y162929D01*
X300724Y160961D02*
X308724Y168961D01*
X300724D02*
X308724Y160961D01*
X290882Y173756D02*
X298882Y181756D01*
X290882D02*
X298882Y173756D01*
X273165Y194425D02*
X281165Y202425D01*
X273165D02*
X281165Y194425D01*
X312535D02*
X320535Y202425D01*
X312535D02*
X320535Y194425D01*
X314504Y188520D02*
X322504Y196520D01*
X314504D02*
X322504Y188520D01*
X310567Y157024D02*
X318567Y165024D01*
X310567D02*
X318567Y157024D01*
X315488Y183598D02*
X323488Y191598D01*
X315488D02*
X323488Y183598D01*
X384760Y166866D02*
X392760Y174866D01*
X384760D02*
X392760Y166866D01*
X367654Y172772D02*
X375654Y180772D01*
X367654D02*
X375654Y172772D01*
X387339Y188520D02*
X395339Y196520D01*
X387339D02*
X395339Y188520D01*
X363717Y168835D02*
X371717Y176835D01*
X363717D02*
X371717Y168835D01*
X383402Y186551D02*
X391402Y194551D01*
X383402D02*
X391402Y186551D01*
X393244Y190488D02*
X401244Y198488D01*
X393244D02*
X401244Y190488D01*
X399150D02*
X407150Y198488D01*
X399150D02*
X407150Y190488D01*
X466079Y166866D02*
X474079Y174866D01*
X466079D02*
X474079Y166866D01*
X483795D02*
X491795Y174866D01*
X483795D02*
X491795Y166866D01*
X489701D02*
X497701Y174866D01*
X489701D02*
X497701Y166866D01*
X499543D02*
X507543Y174866D01*
X499543D02*
X507543Y166866D01*
X475921Y182614D02*
X483921Y190614D01*
X475921D02*
X483921Y182614D01*
X536945D02*
X544945Y190614D01*
X536945D02*
X544945Y182614D01*
X540882Y162929D02*
X548882Y170929D01*
X540882D02*
X548882Y162929D01*
X546787Y182614D02*
X554787Y190614D01*
X546787D02*
X554787Y182614D01*
X531039Y162929D02*
X539039Y170929D01*
X531039D02*
X539039Y162929D01*
X584189Y182614D02*
X592189Y190614D01*
X584189D02*
X592189Y182614D01*
X578283Y165882D02*
X586283Y173882D01*
X578283D02*
X586283Y165882D01*
X574346Y160961D02*
X582346Y168961D01*
X574346D02*
X582346Y160961D01*
X607811Y174740D02*
X615811Y182740D01*
X607811D02*
X615811Y174740D01*
X594189Y182614D02*
X602189Y190614D01*
X594189D02*
X602189Y182614D01*
X609780Y170803D02*
X617780Y178803D01*
X609780D02*
X617780Y170803D01*
X172772Y220016D02*
X180772Y228016D01*
X172772D02*
X180772Y220016D01*
X277102Y196394D02*
X285102Y204394D01*
X277102D02*
X285102Y196394D01*
X281039Y198362D02*
X289039Y206362D01*
X281039D02*
X289039Y198362D01*
X318441Y216079D02*
X326441Y224079D01*
X318441D02*
X326441Y216079D01*
X434957Y208205D02*
X442957Y216205D01*
X434957D02*
X442957Y208205D01*
X499543Y204268D02*
X507543Y212268D01*
X499543D02*
X507543Y204268D01*
X479858D02*
X487858Y212268D01*
X479858D02*
X487858Y204268D01*
X501512Y210173D02*
X509512Y218173D01*
X501512D02*
X509512Y210173D01*
X489701Y204268D02*
X497701Y212268D01*
X489701D02*
X497701Y204268D01*
X484780Y206236D02*
X492780Y214236D01*
X484780D02*
X492780Y206236D01*
X536945D02*
X544945Y214236D01*
X536945D02*
X544945Y206236D01*
X546787D02*
X554787Y214236D01*
X546787D02*
X554787Y206236D01*
X541866Y214110D02*
X549866Y222110D01*
X541866D02*
X549866Y214110D01*
X548756Y218047D02*
X556756Y226047D01*
X548756D02*
X556756Y218047D01*
X541866Y206236D02*
X549866Y214236D01*
X541866D02*
X549866Y206236D01*
X534976Y216079D02*
X542976Y224079D01*
X534976D02*
X542976Y216079D01*
X587142Y221984D02*
X595142Y229984D01*
X587142D02*
X595142Y221984D01*
X589110Y206236D02*
X597110Y214236D01*
X589110D02*
X597110Y206236D01*
X584189D02*
X592189Y214236D01*
X584189D02*
X592189Y206236D01*
X582220Y223953D02*
X590220Y231953D01*
X582220D02*
X590220Y223953D01*
X597969Y220016D02*
X605969Y228016D01*
X597969D02*
X605969Y220016D01*
X599937Y206236D02*
X607937Y214236D01*
X599937D02*
X607937Y206236D01*
X594031D02*
X602031Y214236D01*
X594031D02*
X602031Y206236D01*
X725921Y245606D02*
X733921Y253606D01*
X725921D02*
X733921Y245606D01*
X100000Y100000D02*
X946457D01*
Y395276*
X100000*
Y100000*
X887402Y395276D02*
Y100000D01*
X1005512Y316000D02*
X1263512D01*
X1005512Y292000D02*
X1263512D01*
X1005512Y268000D02*
X1263512D01*
X1005512Y244000D02*
X1263512D01*
X1005512Y220000D02*
X1263512D01*
X1005512Y196000D02*
X1263512D01*
X1005512Y172000D02*
X1263512D01*
X1005512Y148000D02*
X1263512D01*
X1005512Y124000D02*
X1263512D01*
X1005512Y100000D02*
X1263512D01*
X1005512Y316000D02*
Y100000D01*
X1089512Y316000D02*
Y100000D01*
X1125512Y316000D02*
Y100000D01*
X1161512Y316000D02*
Y100000D01*
X1215512Y316000D02*
Y100000D01*
X1263512Y316000D02*
Y100000D01*
X1041012Y304750D02*
X1040466Y305500D01*
X1039648Y305875*
X1038557*
X1037739Y305500*
X1037194Y304750*
Y304000*
X1037466Y303250*
X1037739Y302875*
X1038285Y302500*
X1039921Y301750*
X1040466Y301375*
X1040739Y301000*
X1041012Y300250*
Y299125*
X1040466Y298375*
X1039648Y298000*
X1038557*
X1037739Y298375*
X1037194Y299125*
X1043466Y305875D02*
Y298000D01*
X1049739Y305875D02*
X1045921Y298000D01*
Y305875D02*
X1049739D01*
X1045921Y298000D02*
X1049739D01*
X1052194Y305875D02*
Y298000D01*
Y305875D02*
X1055739D01*
X1052194Y302125D02*
X1054375D01*
X1052194Y298000D02*
X1055739D01*
X1099375Y305875D02*
X1098830Y305500D01*
X1098285Y304750*
X1098012Y304000*
X1097739Y302875*
Y301000*
X1098012Y299875*
X1098285Y299125*
X1098830Y298375*
X1099375Y298000*
X1100466*
X1101012Y298375*
X1101557Y299125*
X1101830Y299875*
X1102103Y301000*
Y302875*
X1101830Y304000*
X1101557Y304750*
X1101012Y305500*
X1100466Y305875*
X1099375*
X1100194Y299500D02*
X1101830Y297250D01*
X1106466Y305875D02*
Y298000D01*
X1104557Y305875D02*
X1108375D01*
X1110830D02*
X1113012Y302125D01*
Y298000*
X1115194Y305875D02*
X1113012Y302125D01*
X1137557Y304750D02*
X1137012Y305500D01*
X1136194Y305875*
X1135103*
X1134285Y305500*
X1133739Y304750*
Y304000*
X1134012Y303250*
X1134285Y302875*
X1134830Y302500*
X1136466Y301750*
X1137012Y301375*
X1137285Y301000*
X1137557Y300250*
Y299125*
X1137012Y298375*
X1136194Y298000*
X1135103*
X1134285Y298375*
X1133739Y299125*
X1140012Y305875D02*
X1142194Y302125D01*
Y298000*
X1144375Y305875D02*
X1142194Y302125D01*
X1146830Y305875D02*
Y298000D01*
Y305875D02*
X1149012Y298000D01*
X1151194Y305875D02*
X1149012Y298000D01*
X1151194Y305875D02*
Y298000D01*
X1173012Y305875D02*
Y298000D01*
Y305875D02*
X1175466D01*
X1176285Y305500*
X1176557Y305125*
X1176830Y304375*
Y303250*
X1176557Y302500*
X1176285Y302125*
X1175466Y301750*
X1173012*
X1179285Y305875D02*
Y298000D01*
X1182557*
X1187194Y305875D02*
X1185012Y298000D01*
X1187194Y305875D02*
X1189375Y298000D01*
X1185830Y300625D02*
X1188557D01*
X1193739Y305875D02*
Y298000D01*
X1191830Y305875D02*
X1195648D01*
X1198103D02*
Y298000D01*
Y305875D02*
X1201648D01*
X1198103Y302125D02*
X1200285D01*
X1198103Y298000D02*
X1201648D01*
X1204103Y305875D02*
Y298000D01*
Y305875D02*
X1206012D01*
X1206830Y305500*
X1207375Y304750*
X1207648Y304000*
X1207921Y302875*
Y301000*
X1207648Y299875*
X1207375Y299125*
X1206830Y298375*
X1206012Y298000*
X1204103*
X1232194Y305875D02*
Y298000D01*
X1230285Y305875D02*
X1234103D01*
X1238194D02*
X1237648Y305500D01*
X1237103Y304750*
X1236830Y304000*
X1236557Y302875*
Y301000*
X1236830Y299875*
X1237103Y299125*
X1237648Y298375*
X1238194Y298000*
X1239285*
X1239830Y298375*
X1240375Y299125*
X1240648Y299875*
X1240921Y301000*
Y302875*
X1240648Y304000*
X1240375Y304750*
X1239830Y305500*
X1239285Y305875*
X1238194*
X1243375D02*
Y298000D01*
X1246648*
X1012057Y281875D02*
X1015057D01*
X1013421Y278875*
X1014239*
X1014785Y278500*
X1015057Y278125*
X1015330Y277000*
Y276250*
X1015057Y275125*
X1014512Y274375*
X1013694Y274000*
X1012875*
X1012057Y274375*
X1011785Y274750*
X1011512Y275500*
X1018057Y274750D02*
X1017785Y274375D01*
X1018057Y274000*
X1018330Y274375*
X1018057Y274750*
X1021057Y280000D02*
Y280375D01*
X1021330Y281125*
X1021603Y281500*
X1022148Y281875*
X1023239*
X1023785Y281500*
X1024057Y281125*
X1024330Y280375*
Y279625*
X1024057Y278875*
X1023512Y277750*
X1020785Y274000*
X1024603*
X1107966Y280750D02*
X1107694Y281500D01*
X1106875Y281875*
X1106330*
X1105512Y281500*
X1104966Y280375*
X1104694Y278500*
Y276625*
X1104966Y275125*
X1105512Y274375*
X1106330Y274000*
X1106603*
X1107421Y274375*
X1107966Y275125*
X1108239Y276250*
Y276625*
X1107966Y277750*
X1107421Y278500*
X1106603Y278875*
X1106330*
X1105512Y278500*
X1104966Y277750*
X1104694Y276625*
X1137512Y280000D02*
X1149512D01*
X1143512Y274000D02*
Y286000D01*
X1170148Y281875D02*
X1172330Y278125D01*
Y274000*
X1174512Y281875D02*
X1172330Y278125D01*
X1176966Y281875D02*
Y274000D01*
Y281875D02*
X1180512D01*
X1176966Y278125D02*
X1179148D01*
X1176966Y274000D02*
X1180512D01*
X1186785Y280750D02*
X1186239Y281500D01*
X1185421Y281875*
X1184330*
X1183512Y281500*
X1182966Y280750*
Y280000*
X1183239Y279250*
X1183512Y278875*
X1184057Y278500*
X1185694Y277750*
X1186239Y277375*
X1186512Y277000*
X1186785Y276250*
Y275125*
X1186239Y274375*
X1185421Y274000*
X1184330*
X1183512Y274375*
X1182966Y275125*
X1223330Y280750D02*
Y274000D01*
X1220875Y277375D02*
X1225785D01*
X1233148Y283375D02*
X1228239Y271375D01*
X1235603Y277375D02*
X1240512D01*
X1244603Y281875D02*
X1243785Y281500D01*
X1243239Y280375*
X1242966Y278500*
Y277375*
X1243239Y275500*
X1243785Y274375*
X1244603Y274000*
X1245148*
X1245966Y274375*
X1246512Y275500*
X1246785Y277375*
Y278500*
X1246512Y280375*
X1245966Y281500*
X1245148Y281875*
X1244603*
X1249512Y274750D02*
X1249239Y274375D01*
X1249512Y274000*
X1249785Y274375*
X1249512Y274750*
X1253875Y281875D02*
X1253057Y281500D01*
X1252512Y280375*
X1252239Y278500*
Y277375*
X1252512Y275500*
X1253057Y274375*
X1253875Y274000*
X1254421*
X1255239Y274375*
X1255785Y275500*
X1256057Y277375*
Y278500*
X1255785Y280375*
X1255239Y281500*
X1254421Y281875*
X1253875*
X1013148Y257875D02*
X1012330Y257500D01*
X1011785Y256375*
X1011512Y254500*
Y253375*
X1011785Y251500*
X1012330Y250375*
X1013148Y250000*
X1013694*
X1014512Y250375*
X1015057Y251500*
X1015330Y253375*
Y254500*
X1015057Y256375*
X1014512Y257500*
X1013694Y257875*
X1013148*
X1018057Y250750D02*
X1017785Y250375D01*
X1018057Y250000*
X1018330Y250375*
X1018057Y250750*
X1021330Y257875D02*
X1024330D01*
X1022694Y254875*
X1023512*
X1024057Y254500*
X1024330Y254125*
X1024603Y253000*
Y252250*
X1024330Y251125*
X1023785Y250375*
X1022966Y250000*
X1022148*
X1021330Y250375*
X1021057Y250750*
X1020785Y251500*
X1099103Y257875D02*
X1102103D01*
X1100466Y254875*
X1101285*
X1101830Y254500*
X1102103Y254125*
X1102375Y253000*
Y252250*
X1102103Y251125*
X1101557Y250375*
X1100739Y250000*
X1099921*
X1099103Y250375*
X1098830Y250750*
X1098557Y251500*
X1108375Y255250D02*
X1108103Y254125D01*
X1107557Y253375*
X1106739Y253000*
X1106466*
X1105648Y253375*
X1105103Y254125*
X1104830Y255250*
Y255625*
X1105103Y256750*
X1105648Y257500*
X1106466Y257875*
X1106739*
X1107557Y257500*
X1108103Y256750*
X1108375Y255250*
Y253375*
X1108103Y251500*
X1107557Y250375*
X1106739Y250000*
X1106194*
X1105375Y250375*
X1105103Y251125*
X1114375Y255250D02*
X1114103Y254125D01*
X1113557Y253375*
X1112739Y253000*
X1112466*
X1111648Y253375*
X1111103Y254125*
X1110830Y255250*
Y255625*
X1111103Y256750*
X1111648Y257500*
X1112466Y257875*
X1112739*
X1113557Y257500*
X1114103Y256750*
X1114375Y255250*
Y253375*
X1114103Y251500*
X1113557Y250375*
X1112739Y250000*
X1112194*
X1111375Y250375*
X1111103Y251125*
X1137512Y250000D02*
X1149512Y262000D01*
X1137512D02*
X1149512Y250000D01*
X1170148Y257875D02*
X1172330Y254125D01*
Y250000*
X1174512Y257875D02*
X1172330Y254125D01*
X1176966Y257875D02*
Y250000D01*
Y257875D02*
X1180512D01*
X1176966Y254125D02*
X1179148D01*
X1176966Y250000D02*
X1180512D01*
X1186785Y256750D02*
X1186239Y257500D01*
X1185421Y257875*
X1184330*
X1183512Y257500*
X1182966Y256750*
Y256000*
X1183239Y255250*
X1183512Y254875*
X1184057Y254500*
X1185694Y253750*
X1186239Y253375*
X1186512Y253000*
X1186785Y252250*
Y251125*
X1186239Y250375*
X1185421Y250000*
X1184330*
X1183512Y250375*
X1182966Y251125*
X1223330Y256750D02*
Y250000D01*
X1220875Y253375D02*
X1225785D01*
X1233148Y259375D02*
X1228239Y247375D01*
X1235603Y253375D02*
X1240512D01*
X1244603Y257875D02*
X1243785Y257500D01*
X1243239Y256375*
X1242966Y254500*
Y253375*
X1243239Y251500*
X1243785Y250375*
X1244603Y250000*
X1245148*
X1245966Y250375*
X1246512Y251500*
X1246785Y253375*
Y254500*
X1246512Y256375*
X1245966Y257500*
X1245148Y257875*
X1244603*
X1249512Y250750D02*
X1249239Y250375D01*
X1249512Y250000*
X1249785Y250375*
X1249512Y250750*
X1253875Y257875D02*
X1253057Y257500D01*
X1252512Y256375*
X1252239Y254500*
Y253375*
X1252512Y251500*
X1253057Y250375*
X1253875Y250000*
X1254421*
X1255239Y250375*
X1255785Y251500*
X1256057Y253375*
Y254500*
X1255785Y256375*
X1255239Y257500*
X1254421Y257875*
X1253875*
X1013148Y233875D02*
X1012330Y233500D01*
X1011785Y232375*
X1011512Y230500*
Y229375*
X1011785Y227500*
X1012330Y226375*
X1013148Y226000*
X1013694*
X1014512Y226375*
X1015057Y227500*
X1015330Y229375*
Y230500*
X1015057Y232375*
X1014512Y233500*
X1013694Y233875*
X1013148*
X1018057Y226750D02*
X1017785Y226375D01*
X1018057Y226000*
X1018330Y226375*
X1018057Y226750*
X1024330Y231250D02*
X1024057Y230125D01*
X1023512Y229375*
X1022694Y229000*
X1022421*
X1021603Y229375*
X1021057Y230125*
X1020785Y231250*
Y231625*
X1021057Y232750*
X1021603Y233500*
X1022421Y233875*
X1022694*
X1023512Y233500*
X1024057Y232750*
X1024330Y231250*
Y229375*
X1024057Y227500*
X1023512Y226375*
X1022694Y226000*
X1022148*
X1021330Y226375*
X1021057Y227125*
X1099512Y232375D02*
X1100057Y232750D01*
X1100875Y233875*
Y226000*
X1103875Y233875D02*
X1106875D01*
X1105239Y230875*
X1106057*
X1106603Y230500*
X1106875Y230125*
X1107148Y229000*
Y228250*
X1106875Y227125*
X1106330Y226375*
X1105512Y226000*
X1104694*
X1103875Y226375*
X1103603Y226750*
X1103330Y227500*
X1109875Y232000D02*
Y232375D01*
X1110148Y233125*
X1110421Y233500*
X1110966Y233875*
X1112057*
X1112603Y233500*
X1112875Y233125*
X1113148Y232375*
Y231625*
X1112875Y230875*
X1112330Y229750*
X1109603Y226000*
X1113421*
X1137512D02*
X1149512D01*
Y238000*
X1137512*
Y226000*
X1143512Y232000D02*
Y238000D01*
X1170148Y233875D02*
X1172330Y230125D01*
Y226000*
X1174512Y233875D02*
X1172330Y230125D01*
X1176966Y233875D02*
Y226000D01*
Y233875D02*
X1180512D01*
X1176966Y230125D02*
X1179148D01*
X1176966Y226000D02*
X1180512D01*
X1186785Y232750D02*
X1186239Y233500D01*
X1185421Y233875*
X1184330*
X1183512Y233500*
X1182966Y232750*
Y232000*
X1183239Y231250*
X1183512Y230875*
X1184057Y230500*
X1185694Y229750*
X1186239Y229375*
X1186512Y229000*
X1186785Y228250*
Y227125*
X1186239Y226375*
X1185421Y226000*
X1184330*
X1183512Y226375*
X1182966Y227125*
X1223330Y232750D02*
Y226000D01*
X1220875Y229375D02*
X1225785D01*
X1233148Y235375D02*
X1228239Y223375D01*
X1235603Y229375D02*
X1240512D01*
X1244603Y233875D02*
X1243785Y233500D01*
X1243239Y232375*
X1242966Y230500*
Y229375*
X1243239Y227500*
X1243785Y226375*
X1244603Y226000*
X1245148*
X1245966Y226375*
X1246512Y227500*
X1246785Y229375*
Y230500*
X1246512Y232375*
X1245966Y233500*
X1245148Y233875*
X1244603*
X1249512Y226750D02*
X1249239Y226375D01*
X1249512Y226000*
X1249785Y226375*
X1249512Y226750*
X1253875Y233875D02*
X1253057Y233500D01*
X1252512Y232375*
X1252239Y230500*
Y229375*
X1252512Y227500*
X1253057Y226375*
X1253875Y226000*
X1254421*
X1255239Y226375*
X1255785Y227500*
X1256057Y229375*
Y230500*
X1255785Y232375*
X1255239Y233500*
X1254421Y233875*
X1253875*
X1011785Y208000D02*
Y208375D01*
X1012057Y209125*
X1012330Y209500*
X1012875Y209875*
X1013966*
X1014512Y209500*
X1014785Y209125*
X1015057Y208375*
Y207625*
X1014785Y206875*
X1014239Y205750*
X1011512Y202000*
X1015330*
X1018057Y202750D02*
X1017785Y202375D01*
X1018057Y202000*
X1018330Y202375*
X1018057Y202750*
X1024330Y209875D02*
X1021603D01*
X1021330Y206500*
X1021603Y206875*
X1022421Y207250*
X1023239*
X1024057Y206875*
X1024603Y206125*
X1024875Y205000*
X1024603Y204250*
X1024330Y203125*
X1023785Y202375*
X1022966Y202000*
X1022148*
X1021330Y202375*
X1021057Y202750*
X1020785Y203500*
X1107148Y209875D02*
X1104421Y204625D01*
X1108512*
X1107148Y209875D02*
Y202000D01*
X1143512D02*
X1149512Y208000D01*
X1143512Y214000*
X1137512Y208000*
X1143512Y202000*
Y208000D02*
Y214000D01*
X1170148Y209875D02*
X1172330Y206125D01*
Y202000*
X1174512Y209875D02*
X1172330Y206125D01*
X1176966Y209875D02*
Y202000D01*
Y209875D02*
X1180512D01*
X1176966Y206125D02*
X1179148D01*
X1176966Y202000D02*
X1180512D01*
X1186785Y208750D02*
X1186239Y209500D01*
X1185421Y209875*
X1184330*
X1183512Y209500*
X1182966Y208750*
Y208000*
X1183239Y207250*
X1183512Y206875*
X1184057Y206500*
X1185694Y205750*
X1186239Y205375*
X1186512Y205000*
X1186785Y204250*
Y203125*
X1186239Y202375*
X1185421Y202000*
X1184330*
X1183512Y202375*
X1182966Y203125*
X1223330Y208750D02*
Y202000D01*
X1220875Y205375D02*
X1225785D01*
X1233148Y211375D02*
X1228239Y199375D01*
X1235603Y205375D02*
X1240512D01*
X1244603Y209875D02*
X1243785Y209500D01*
X1243239Y208375*
X1242966Y206500*
Y205375*
X1243239Y203500*
X1243785Y202375*
X1244603Y202000*
X1245148*
X1245966Y202375*
X1246512Y203500*
X1246785Y205375*
Y206500*
X1246512Y208375*
X1245966Y209500*
X1245148Y209875*
X1244603*
X1249512Y202750D02*
X1249239Y202375D01*
X1249512Y202000*
X1249785Y202375*
X1249512Y202750*
X1253875Y209875D02*
X1253057Y209500D01*
X1252512Y208375*
X1252239Y206500*
Y205375*
X1252512Y203500*
X1253057Y202375*
X1253875Y202000*
X1254421*
X1255239Y202375*
X1255785Y203500*
X1256057Y205375*
Y206500*
X1255785Y208375*
X1255239Y209500*
X1254421Y209875*
X1253875*
X1011512Y184375D02*
X1012057Y184750D01*
X1012875Y185875*
Y178000*
X1015603Y178750D02*
X1015330Y178375D01*
X1015603Y178000*
X1015875Y178375*
X1015603Y178750*
X1018875Y185875D02*
X1021875D01*
X1020239Y182875*
X1021057*
X1021603Y182500*
X1021875Y182125*
X1022148Y181000*
Y180250*
X1021875Y179125*
X1021330Y178375*
X1020512Y178000*
X1019694*
X1018875Y178375*
X1018603Y178750*
X1018330Y179500*
X1102785Y184375D02*
X1103330Y184750D01*
X1104148Y185875*
Y178000*
X1109875Y184750D02*
X1109603Y185500D01*
X1108785Y185875*
X1108239*
X1107421Y185500*
X1106875Y184375*
X1106603Y182500*
Y180625*
X1106875Y179125*
X1107421Y178375*
X1108239Y178000*
X1108512*
X1109330Y178375*
X1109875Y179125*
X1110148Y180250*
Y180625*
X1109875Y181750*
X1109330Y182500*
X1108512Y182875*
X1108239*
X1107421Y182500*
X1106875Y181750*
X1106603Y180625*
X1137512Y178000D02*
X1149512D01*
X1137512Y190000*
X1149512*
X1137512Y178000*
X1170148Y185875D02*
X1172330Y182125D01*
Y178000*
X1174512Y185875D02*
X1172330Y182125D01*
X1176966Y185875D02*
Y178000D01*
Y185875D02*
X1180512D01*
X1176966Y182125D02*
X1179148D01*
X1176966Y178000D02*
X1180512D01*
X1186785Y184750D02*
X1186239Y185500D01*
X1185421Y185875*
X1184330*
X1183512Y185500*
X1182966Y184750*
Y184000*
X1183239Y183250*
X1183512Y182875*
X1184057Y182500*
X1185694Y181750*
X1186239Y181375*
X1186512Y181000*
X1186785Y180250*
Y179125*
X1186239Y178375*
X1185421Y178000*
X1184330*
X1183512Y178375*
X1182966Y179125*
X1223330Y184750D02*
Y178000D01*
X1220875Y181375D02*
X1225785D01*
X1233148Y187375D02*
X1228239Y175375D01*
X1235603Y181375D02*
X1240512D01*
X1244603Y185875D02*
X1243785Y185500D01*
X1243239Y184375*
X1242966Y182500*
Y181375*
X1243239Y179500*
X1243785Y178375*
X1244603Y178000*
X1245148*
X1245966Y178375*
X1246512Y179500*
X1246785Y181375*
Y182500*
X1246512Y184375*
X1245966Y185500*
X1245148Y185875*
X1244603*
X1249512Y178750D02*
X1249239Y178375D01*
X1249512Y178000*
X1249785Y178375*
X1249512Y178750*
X1253875Y185875D02*
X1253057Y185500D01*
X1252512Y184375*
X1252239Y182500*
Y181375*
X1252512Y179500*
X1253057Y178375*
X1253875Y178000*
X1254421*
X1255239Y178375*
X1255785Y179500*
X1256057Y181375*
Y182500*
X1255785Y184375*
X1255239Y185500*
X1254421Y185875*
X1253875*
X1011512Y160375D02*
X1012057Y160750D01*
X1012875Y161875*
Y154000*
X1015603Y154750D02*
X1015330Y154375D01*
X1015603Y154000*
X1015875Y154375*
X1015603Y154750*
X1019694Y161875D02*
X1018875Y161500D01*
X1018603Y160750*
Y160000*
X1018875Y159250*
X1019421Y158875*
X1020512Y158500*
X1021330Y158125*
X1021875Y157375*
X1022148Y156625*
Y155500*
X1021875Y154750*
X1021603Y154375*
X1020785Y154000*
X1019694*
X1018875Y154375*
X1018603Y154750*
X1018330Y155500*
Y156625*
X1018603Y157375*
X1019148Y158125*
X1019966Y158500*
X1021057Y158875*
X1021603Y159250*
X1021875Y160000*
Y160750*
X1021603Y161500*
X1020785Y161875*
X1019694*
X1104830Y160000D02*
Y160375D01*
X1105103Y161125*
X1105375Y161500*
X1105921Y161875*
X1107012*
X1107557Y161500*
X1107830Y161125*
X1108103Y160375*
Y159625*
X1107830Y158875*
X1107285Y157750*
X1104557Y154000*
X1108375*
X1137512D02*
X1149512Y166000D01*
Y154000*
X1137512Y166000*
Y154000*
X1170148Y161875D02*
X1172330Y158125D01*
Y154000*
X1174512Y161875D02*
X1172330Y158125D01*
X1176966Y161875D02*
Y154000D01*
Y161875D02*
X1180512D01*
X1176966Y158125D02*
X1179148D01*
X1176966Y154000D02*
X1180512D01*
X1186785Y160750D02*
X1186239Y161500D01*
X1185421Y161875*
X1184330*
X1183512Y161500*
X1182966Y160750*
Y160000*
X1183239Y159250*
X1183512Y158875*
X1184057Y158500*
X1185694Y157750*
X1186239Y157375*
X1186512Y157000*
X1186785Y156250*
Y155125*
X1186239Y154375*
X1185421Y154000*
X1184330*
X1183512Y154375*
X1182966Y155125*
X1223330Y160750D02*
Y154000D01*
X1220875Y157375D02*
X1225785D01*
X1233148Y163375D02*
X1228239Y151375D01*
X1235603Y157375D02*
X1240512D01*
X1244603Y161875D02*
X1243785Y161500D01*
X1243239Y160375*
X1242966Y158500*
Y157375*
X1243239Y155500*
X1243785Y154375*
X1244603Y154000*
X1245148*
X1245966Y154375*
X1246512Y155500*
X1246785Y157375*
Y158500*
X1246512Y160375*
X1245966Y161500*
X1245148Y161875*
X1244603*
X1249512Y154750D02*
X1249239Y154375D01*
X1249512Y154000*
X1249785Y154375*
X1249512Y154750*
X1253875Y161875D02*
X1253057Y161500D01*
X1252512Y160375*
X1252239Y158500*
Y157375*
X1252512Y155500*
X1253057Y154375*
X1253875Y154000*
X1254421*
X1255239Y154375*
X1255785Y155500*
X1256057Y157375*
Y158500*
X1255785Y160375*
X1255239Y161500*
X1254421Y161875*
X1253875*
X1011512Y136375D02*
X1012057Y136750D01*
X1012875Y137875*
Y130000*
X1015603Y130750D02*
X1015330Y130375D01*
X1015603Y130000*
X1015875Y130375*
X1015603Y130750*
X1021875Y137875D02*
X1019148D01*
X1018875Y134500*
X1019148Y134875*
X1019966Y135250*
X1020785*
X1021603Y134875*
X1022148Y134125*
X1022421Y133000*
X1022148Y132250*
X1021875Y131125*
X1021330Y130375*
X1020512Y130000*
X1019694*
X1018875Y130375*
X1018603Y130750*
X1018330Y131500*
X1104830Y136000D02*
Y136375D01*
X1105103Y137125*
X1105375Y137500*
X1105921Y137875*
X1107012*
X1107557Y137500*
X1107830Y137125*
X1108103Y136375*
Y135625*
X1107830Y134875*
X1107285Y133750*
X1104557Y130000*
X1108375*
X1137512Y136000D02*
X1149512D01*
X1143512Y130000D02*
Y142000D01*
X1148257Y145300D02*
X1146512Y139000D01*
X1148257Y145300D02*
X1150003Y139000D01*
X1147166Y141100D02*
X1149348D01*
X1170148Y137875D02*
X1172330Y134125D01*
Y130000*
X1174512Y137875D02*
X1172330Y134125D01*
X1176966Y137875D02*
Y130000D01*
Y137875D02*
X1180512D01*
X1176966Y134125D02*
X1179148D01*
X1176966Y130000D02*
X1180512D01*
X1186785Y136750D02*
X1186239Y137500D01*
X1185421Y137875*
X1184330*
X1183512Y137500*
X1182966Y136750*
Y136000*
X1183239Y135250*
X1183512Y134875*
X1184057Y134500*
X1185694Y133750*
X1186239Y133375*
X1186512Y133000*
X1186785Y132250*
Y131125*
X1186239Y130375*
X1185421Y130000*
X1184330*
X1183512Y130375*
X1182966Y131125*
X1223330Y136750D02*
Y130000D01*
X1220875Y133375D02*
X1225785D01*
X1233148Y139375D02*
X1228239Y127375D01*
X1235603Y133375D02*
X1240512D01*
X1244603Y137875D02*
X1243785Y137500D01*
X1243239Y136375*
X1242966Y134500*
Y133375*
X1243239Y131500*
X1243785Y130375*
X1244603Y130000*
X1245148*
X1245966Y130375*
X1246512Y131500*
X1246785Y133375*
Y134500*
X1246512Y136375*
X1245966Y137500*
X1245148Y137875*
X1244603*
X1249512Y130750D02*
X1249239Y130375D01*
X1249512Y130000*
X1249785Y130375*
X1249512Y130750*
X1253875Y137875D02*
X1253057Y137500D01*
X1252512Y136375*
X1252239Y134500*
Y133375*
X1252512Y131500*
X1253057Y130375*
X1253875Y130000*
X1254421*
X1255239Y130375*
X1255785Y131500*
X1256057Y133375*
Y134500*
X1255785Y136375*
X1255239Y137500*
X1254421Y137875*
X1253875*
X1013148Y113875D02*
X1012330Y113500D01*
X1011785Y112375*
X1011512Y110500*
Y109375*
X1011785Y107500*
X1012330Y106375*
X1013148Y106000*
X1013694*
X1014512Y106375*
X1015057Y107500*
X1015330Y109375*
Y110500*
X1015057Y112375*
X1014512Y113500*
X1013694Y113875*
X1013148*
X1018057Y106750D02*
X1017785Y106375D01*
X1018057Y106000*
X1018330Y106375*
X1018057Y106750*
X1022148Y113875D02*
X1021330Y113500D01*
X1021057Y112750*
Y112000*
X1021330Y111250*
X1021875Y110875*
X1022966Y110500*
X1023785Y110125*
X1024330Y109375*
X1024603Y108625*
Y107500*
X1024330Y106750*
X1024057Y106375*
X1023239Y106000*
X1022148*
X1021330Y106375*
X1021057Y106750*
X1020785Y107500*
Y108625*
X1021057Y109375*
X1021603Y110125*
X1022421Y110500*
X1023512Y110875*
X1024057Y111250*
X1024330Y112000*
Y112750*
X1024057Y113500*
X1023239Y113875*
X1022148*
X1104148D02*
X1101421Y108625D01*
X1105512*
X1104148Y113875D02*
Y106000D01*
X1111239Y112750D02*
X1110966Y113500D01*
X1110148Y113875*
X1109603*
X1108785Y113500*
X1108239Y112375*
X1107966Y110500*
Y108625*
X1108239Y107125*
X1108785Y106375*
X1109603Y106000*
X1109875*
X1110694Y106375*
X1111239Y107125*
X1111512Y108250*
Y108625*
X1111239Y109750*
X1110694Y110500*
X1109875Y110875*
X1109603*
X1108785Y110500*
X1108239Y109750*
X1107966Y108625*
X1137512Y112000D02*
X1149512D01*
X1143512Y106000D02*
Y118000D01*
X1146512Y121300D02*
Y115000D01*
Y121300D02*
X1148475D01*
X1149130Y121000*
X1149348Y120700*
X1149566Y120100*
Y119500*
X1149348Y118900*
X1149130Y118600*
X1148475Y118300*
X1146512D02*
X1148475D01*
X1149130Y118000*
X1149348Y117700*
X1149566Y117100*
Y116200*
X1149348Y115600*
X1149130Y115300*
X1148475Y115000*
X1146512*
X1170148Y113875D02*
X1172330Y110125D01*
Y106000*
X1174512Y113875D02*
X1172330Y110125D01*
X1176966Y113875D02*
Y106000D01*
Y113875D02*
X1180512D01*
X1176966Y110125D02*
X1179148D01*
X1176966Y106000D02*
X1180512D01*
X1186785Y112750D02*
X1186239Y113500D01*
X1185421Y113875*
X1184330*
X1183512Y113500*
X1182966Y112750*
Y112000*
X1183239Y111250*
X1183512Y110875*
X1184057Y110500*
X1185694Y109750*
X1186239Y109375*
X1186512Y109000*
X1186785Y108250*
Y107125*
X1186239Y106375*
X1185421Y106000*
X1184330*
X1183512Y106375*
X1182966Y107125*
X1223330Y112750D02*
Y106000D01*
X1220875Y109375D02*
X1225785D01*
X1233148Y115375D02*
X1228239Y103375D01*
X1235603Y109375D02*
X1240512D01*
X1244603Y113875D02*
X1243785Y113500D01*
X1243239Y112375*
X1242966Y110500*
Y109375*
X1243239Y107500*
X1243785Y106375*
X1244603Y106000*
X1245148*
X1245966Y106375*
X1246512Y107500*
X1246785Y109375*
Y110500*
X1246512Y112375*
X1245966Y113500*
X1245148Y113875*
X1244603*
X1249512Y106750D02*
X1249239Y106375D01*
X1249512Y106000*
X1249785Y106375*
X1249512Y106750*
X1253875Y113875D02*
X1253057Y113500D01*
X1252512Y112375*
X1252239Y110500*
Y109375*
X1252512Y107500*
X1253057Y106375*
X1253875Y106000*
X1254421*
X1255239Y106375*
X1255785Y107500*
X1256057Y109375*
Y110500*
X1255785Y112375*
X1255239Y113500*
X1254421Y113875*
X1253875*
X0Y0D02*
M02*
