*
*
G04 PADS 9.4.1 Build Number: 494907 generated Gerber (RS-274-X) file*
G04 PC Version=2.1*
*
%IN "CECS_Module_IsoInput_Ch"*%
*
%MOIN*%
*
%FSLAX35Y35*%
*
*
*
*
G04 PC Standard Apertures*
*
*
G04 Thermal Relief Aperture macro.*
%AMTER*
1,1,$1,0,0*
1,0,$1-$2,0,0*
21,0,$3,$4,0,0,45*
21,0,$3,$4,0,0,135*
%
*
*
G04 Annular Aperture macro.*
%AMANN*
1,1,$1,0,0*
1,0,$2,0,0*
%
*
*
G04 Odd Aperture macro.*
%AMODD*
1,1,$1,0,0*
1,0,$1-0.005,0,0*
%
*
*
G04 PC Custom Aperture Macros*
*
*
*
*
*
*
G04 PC Aperture Table*
*
%ADD010C,0.001*%
%ADD031C,0.01*%
%ADD092C,0.18717*%
%ADD095C,0.06906*%
%ADD096C,0.08874*%
%ADD097C,0.07299*%
%ADD099R,0.10843X0.10843*%
%ADD100R,0.07299X0.07299*%
%ADD101C,0.11236*%
%ADD104R,0.05921X0.05921*%
%ADD105C,0.05921*%
%ADD108R,0.08874X0.26591*%
%ADD110R,0.13992X0.33283*%
%ADD112R,0.06906X0.10843*%
%ADD113O,0.034X0.084*%
%ADD114O,0.084X0.034*%
%ADD115O,0.02X0.075*%
%ADD116O,0.075X0.02*%
%ADD124C,0.10843*%
%ADD125R,0.08874X0.11236*%
%ADD126R,0.28559X0.28559*%
%ADD127R,0.05724X0.06512*%
*
*
*
*
G04 PC Circuitry*
G04 Layer Name CECS_Module_IsoInput_Ch - circuitry*
%LPD*%
*
*
G04 PC Custom Flashes*
G04 Layer Name CECS_Module_IsoInput_Ch - flashes*
%LPD*%
*
*
G04 PC Circuitry*
G04 Layer Name CECS_Module_IsoInput_Ch - circuitry*
%LPD*%
*
G54D10*
G54D31*
G01X562598Y184646D02*
X566535D01*
Y188583*
X562598*
Y184646*
X563067D02*
Y188583D01*
X563567Y184646D02*
Y188583D01*
X564067Y184646D02*
Y188583D01*
X564567Y184646D02*
Y188583D01*
X565067Y184646D02*
Y188583D01*
X565567Y184646D02*
Y188583D01*
X566067Y184646D02*
Y188583D01*
X562598Y196457D02*
Y192520D01*
X566535*
Y196457*
X562598*
X563067Y192520D02*
Y196457D01*
X563567Y192520D02*
Y196457D01*
X564067Y192520D02*
Y196457D01*
X564567Y192520D02*
Y196457D01*
X565067Y192520D02*
Y196457D01*
X565567Y192520D02*
Y196457D01*
X566067Y192520D02*
Y196457D01*
X381496Y164961D02*
X377559D01*
Y161024*
X381496*
Y164961*
X378028Y161024D02*
Y164961D01*
X378528Y161024D02*
Y164961D01*
X379028Y161024D02*
Y164961D01*
X379528Y161024D02*
Y164961D01*
X380028Y161024D02*
Y164961D01*
X380528Y161024D02*
Y164961D01*
X381028Y161024D02*
Y164961D01*
X381496Y153150D02*
Y157087D01*
X377559*
Y153150*
X381496*
X378028D02*
Y157087D01*
X378528Y153150D02*
Y157087D01*
X379028Y153150D02*
Y157087D01*
X379528Y153150D02*
Y157087D01*
X380028Y153150D02*
Y157087D01*
X380528Y153150D02*
Y157087D01*
X381028Y153150D02*
Y157087D01*
X397244Y164961D02*
X393307D01*
Y161024*
X397244*
Y164961*
X393776Y161024D02*
Y164961D01*
X394276Y161024D02*
Y164961D01*
X394776Y161024D02*
Y164961D01*
X395276Y161024D02*
Y164961D01*
X395776Y161024D02*
Y164961D01*
X396276Y161024D02*
Y164961D01*
X396776Y161024D02*
Y164961D01*
X397244Y153150D02*
Y157087D01*
X393307*
Y153150*
X397244*
X393776D02*
Y157087D01*
X394276Y153150D02*
Y157087D01*
X394776Y153150D02*
Y157087D01*
X395276Y153150D02*
Y157087D01*
X395776Y153150D02*
Y157087D01*
X396276Y153150D02*
Y157087D01*
X396776Y153150D02*
Y157087D01*
X515354Y184646D02*
X519291D01*
Y188583*
X515354*
Y184646*
X515823D02*
Y188583D01*
X516323Y184646D02*
Y188583D01*
X516823Y184646D02*
Y188583D01*
X517323Y184646D02*
Y188583D01*
X517823Y184646D02*
Y188583D01*
X518323Y184646D02*
Y188583D01*
X518823Y184646D02*
Y188583D01*
X515354Y196457D02*
Y192520D01*
X519291*
Y196457*
X515354*
X515823Y192520D02*
Y196457D01*
X516323Y192520D02*
Y196457D01*
X516823Y192520D02*
Y196457D01*
X517323Y192520D02*
Y196457D01*
X517823Y192520D02*
Y196457D01*
X518323Y192520D02*
Y196457D01*
X518823Y192520D02*
Y196457D01*
X243701Y200394D02*
X247638D01*
Y204331*
X243701*
Y200394*
X244169D02*
Y204331D01*
X244669Y200394D02*
Y204331D01*
X245169Y200394D02*
Y204331D01*
X245669Y200394D02*
Y204331D01*
X246169Y200394D02*
Y204331D01*
X246669Y200394D02*
Y204331D01*
X247169Y200394D02*
Y204331D01*
X243701Y212205D02*
Y208268D01*
X247638*
Y212205*
X243701*
X244169Y208268D02*
Y212205D01*
X244669Y208268D02*
Y212205D01*
X245169Y208268D02*
Y212205D01*
X245669Y208268D02*
Y212205D01*
X246169Y208268D02*
Y212205D01*
X246669Y208268D02*
Y212205D01*
X247169Y208268D02*
Y212205D01*
X271260Y133465D02*
Y137402D01*
X267323*
Y133465*
X271260*
X267354D02*
Y137402D01*
X267854Y133465D02*
Y137402D01*
X268354Y133465D02*
Y137402D01*
X268854Y133465D02*
Y137402D01*
X269354Y133465D02*
Y137402D01*
X269854Y133465D02*
Y137402D01*
X270354Y133465D02*
Y137402D01*
X270854Y133465D02*
Y137402D01*
X259449Y133465D02*
X263386D01*
Y137402*
X259449*
Y133465*
X259854D02*
Y137402D01*
X260354Y133465D02*
Y137402D01*
X260854Y133465D02*
Y137402D01*
X261354Y133465D02*
Y137402D01*
X261854Y133465D02*
Y137402D01*
X262354Y133465D02*
Y137402D01*
X262854Y133465D02*
Y137402D01*
X263354Y133465D02*
Y137402D01*
X334252Y133465D02*
Y137402D01*
X330315*
Y133465*
X334252*
X330346D02*
Y137402D01*
X330846Y133465D02*
Y137402D01*
X331346Y133465D02*
Y137402D01*
X331846Y133465D02*
Y137402D01*
X332346Y133465D02*
Y137402D01*
X332846Y133465D02*
Y137402D01*
X333346Y133465D02*
Y137402D01*
X333846Y133465D02*
Y137402D01*
X322441Y133465D02*
X326378D01*
Y137402*
X322441*
Y133465*
X322846D02*
Y137402D01*
X323346Y133465D02*
Y137402D01*
X323846Y133465D02*
Y137402D01*
X324346Y133465D02*
Y137402D01*
X324846Y133465D02*
Y137402D01*
X325346Y133465D02*
Y137402D01*
X325846Y133465D02*
Y137402D01*
X326346Y133465D02*
Y137402D01*
X353937Y208268D02*
X350000D01*
Y204331*
X353937*
Y208268*
X350469Y204331D02*
Y208268D01*
X350969Y204331D02*
Y208268D01*
X351469Y204331D02*
Y208268D01*
X351969Y204331D02*
Y208268D01*
X352469Y204331D02*
Y208268D01*
X352969Y204331D02*
Y208268D01*
X353469Y204331D02*
Y208268D01*
X353937Y196457D02*
Y200394D01*
X350000*
Y196457*
X353937*
X350469D02*
Y200394D01*
X350969Y196457D02*
Y200394D01*
X351469Y196457D02*
Y200394D01*
X351969Y196457D02*
Y200394D01*
X352469Y196457D02*
Y200394D01*
X352969Y196457D02*
Y200394D01*
X353469Y196457D02*
Y200394D01*
X247638Y192520D02*
X243701D01*
Y188583*
X247638*
Y192520*
X244169Y188583D02*
Y192520D01*
X244669Y188583D02*
Y192520D01*
X245169Y188583D02*
Y192520D01*
X245669Y188583D02*
Y192520D01*
X246169Y188583D02*
Y192520D01*
X246669Y188583D02*
Y192520D01*
X247169Y188583D02*
Y192520D01*
X247638Y180709D02*
Y184646D01*
X243701*
Y180709*
X247638*
X244169D02*
Y184646D01*
X244669Y180709D02*
Y184646D01*
X245169Y180709D02*
Y184646D01*
X245669Y180709D02*
Y184646D01*
X246169Y180709D02*
Y184646D01*
X246669Y180709D02*
Y184646D01*
X247169Y180709D02*
Y184646D01*
X814567Y318504D02*
X818504D01*
Y322441*
X814567*
Y318504*
X815035D02*
Y322441D01*
X815535Y318504D02*
Y322441D01*
X816035Y318504D02*
Y322441D01*
X816535Y318504D02*
Y322441D01*
X817035Y318504D02*
Y322441D01*
X817535Y318504D02*
Y322441D01*
X818035Y318504D02*
Y322441D01*
X814567Y330315D02*
Y326378D01*
X818504*
Y330315*
X814567*
X815035Y326378D02*
Y330315D01*
X815535Y326378D02*
Y330315D01*
X816035Y326378D02*
Y330315D01*
X816535Y326378D02*
Y330315D01*
X817035Y326378D02*
Y330315D01*
X817535Y326378D02*
Y330315D01*
X818035Y326378D02*
Y330315D01*
X727953Y302756D02*
X724016D01*
Y298819*
X727953*
Y302756*
X724484Y298819D02*
Y302756D01*
X724984Y298819D02*
Y302756D01*
X725484Y298819D02*
Y302756D01*
X725984Y298819D02*
Y302756D01*
X726484Y298819D02*
Y302756D01*
X726984Y298819D02*
Y302756D01*
X727484Y298819D02*
Y302756D01*
X727953Y290945D02*
Y294882D01*
X724016*
Y290945*
X727953*
X724484D02*
Y294882D01*
X724984Y290945D02*
Y294882D01*
X725484Y290945D02*
Y294882D01*
X725984Y290945D02*
Y294882D01*
X726484Y290945D02*
Y294882D01*
X726984Y290945D02*
Y294882D01*
X727484Y290945D02*
Y294882D01*
X609843Y184646D02*
X613780D01*
Y188583*
X609843*
Y184646*
X610311D02*
Y188583D01*
X610811Y184646D02*
Y188583D01*
X611311Y184646D02*
Y188583D01*
X611811Y184646D02*
Y188583D01*
X612311Y184646D02*
Y188583D01*
X612811Y184646D02*
Y188583D01*
X613311Y184646D02*
Y188583D01*
X609843Y196457D02*
Y192520D01*
X613780*
Y196457*
X609843*
X610311Y192520D02*
Y196457D01*
X610811Y192520D02*
Y196457D01*
X611311Y192520D02*
Y196457D01*
X611811Y192520D02*
Y196457D01*
X612311Y192520D02*
Y196457D01*
X612811Y192520D02*
Y196457D01*
X613311Y192520D02*
Y196457D01*
X720079Y271260D02*
X716142D01*
Y267323*
X720079*
Y271260*
X716610Y267323D02*
Y271260D01*
X717110Y267323D02*
Y271260D01*
X717610Y267323D02*
Y271260D01*
X718110Y267323D02*
Y271260D01*
X718610Y267323D02*
Y271260D01*
X719110Y267323D02*
Y271260D01*
X719610Y267323D02*
Y271260D01*
X720079Y259449D02*
Y263386D01*
X716142*
Y259449*
X720079*
X716610D02*
Y263386D01*
X717110Y259449D02*
Y263386D01*
X717610Y259449D02*
Y263386D01*
X718110Y259449D02*
Y263386D01*
X718610Y259449D02*
Y263386D01*
X719110Y259449D02*
Y263386D01*
X719610Y259449D02*
Y263386D01*
X653150Y367717D02*
X657087D01*
Y371654*
X653150*
Y367717*
X653618D02*
Y371654D01*
X654118Y367717D02*
Y371654D01*
X654618Y367717D02*
Y371654D01*
X655118Y367717D02*
Y371654D01*
X655618Y367717D02*
Y371654D01*
X656118Y367717D02*
Y371654D01*
X656618Y367717D02*
Y371654D01*
X653150Y379528D02*
Y375591D01*
X657087*
Y379528*
X653150*
X653618Y375591D02*
Y379528D01*
X654118Y375591D02*
Y379528D01*
X654618Y375591D02*
Y379528D01*
X655118Y375591D02*
Y379528D01*
X655618Y375591D02*
Y379528D01*
X656118Y375591D02*
Y379528D01*
X656618Y375591D02*
Y379528D01*
X783071Y353937D02*
Y357874D01*
X779134*
Y353937*
X783071*
X779165D02*
Y357874D01*
X779665Y353937D02*
Y357874D01*
X780165Y353937D02*
Y357874D01*
X780665Y353937D02*
Y357874D01*
X781165Y353937D02*
Y357874D01*
X781665Y353937D02*
Y357874D01*
X782165Y353937D02*
Y357874D01*
X782665Y353937D02*
Y357874D01*
X771260Y353937D02*
X775197D01*
Y357874*
X771260*
Y353937*
X771665D02*
Y357874D01*
X772165Y353937D02*
Y357874D01*
X772665Y353937D02*
Y357874D01*
X773165Y353937D02*
Y357874D01*
X773665Y353937D02*
Y357874D01*
X774165Y353937D02*
Y357874D01*
X774665Y353937D02*
Y357874D01*
X775165Y353937D02*
Y357874D01*
X743701Y259449D02*
X747638D01*
Y263386*
X743701*
Y259449*
X744169D02*
Y263386D01*
X744669Y259449D02*
Y263386D01*
X745169Y259449D02*
Y263386D01*
X745669Y259449D02*
Y263386D01*
X746169Y259449D02*
Y263386D01*
X746669Y259449D02*
Y263386D01*
X747169Y259449D02*
Y263386D01*
X743701Y271260D02*
Y267323D01*
X747638*
Y271260*
X743701*
X744169Y267323D02*
Y271260D01*
X744669Y267323D02*
Y271260D01*
X745169Y267323D02*
Y271260D01*
X745669Y267323D02*
Y271260D01*
X746169Y267323D02*
Y271260D01*
X746669Y267323D02*
Y271260D01*
X747169Y267323D02*
Y271260D01*
X751575Y176772D02*
X747638D01*
Y172835*
X751575*
Y176772*
X748106Y172835D02*
Y176772D01*
X748606Y172835D02*
Y176772D01*
X749106Y172835D02*
Y176772D01*
X749606Y172835D02*
Y176772D01*
X750106Y172835D02*
Y176772D01*
X750606Y172835D02*
Y176772D01*
X751106Y172835D02*
Y176772D01*
X751575Y164961D02*
Y168898D01*
X747638*
Y164961*
X751575*
X748106D02*
Y168898D01*
X748606Y164961D02*
Y168898D01*
X749106Y164961D02*
Y168898D01*
X749606Y164961D02*
Y168898D01*
X750106Y164961D02*
Y168898D01*
X750606Y164961D02*
Y168898D01*
X751106Y164961D02*
Y168898D01*
X743701Y145276D02*
X739764D01*
Y141339*
X743701*
Y145276*
X740232Y141339D02*
Y145276D01*
X740732Y141339D02*
Y145276D01*
X741232Y141339D02*
Y145276D01*
X741732Y141339D02*
Y145276D01*
X742232Y141339D02*
Y145276D01*
X742732Y141339D02*
Y145276D01*
X743232Y141339D02*
Y145276D01*
X743701Y133465D02*
Y137402D01*
X739764*
Y133465*
X743701*
X740232D02*
Y137402D01*
X740732Y133465D02*
Y137402D01*
X741232Y133465D02*
Y137402D01*
X741732Y133465D02*
Y137402D01*
X742232Y133465D02*
Y137402D01*
X742732Y133465D02*
Y137402D01*
X743232Y133465D02*
Y137402D01*
X676772Y188583D02*
Y192520D01*
X672835*
Y188583*
X676772*
X672866D02*
Y192520D01*
X673366Y188583D02*
Y192520D01*
X673866Y188583D02*
Y192520D01*
X674366Y188583D02*
Y192520D01*
X674866Y188583D02*
Y192520D01*
X675366Y188583D02*
Y192520D01*
X675866Y188583D02*
Y192520D01*
X676366Y188583D02*
Y192520D01*
X664961Y188583D02*
X668898D01*
Y192520*
X664961*
Y188583*
X665366D02*
Y192520D01*
X665866Y188583D02*
Y192520D01*
X666366Y188583D02*
Y192520D01*
X666866Y188583D02*
Y192520D01*
X667366Y188583D02*
Y192520D01*
X667866Y188583D02*
Y192520D01*
X668366Y188583D02*
Y192520D01*
X668866Y188583D02*
Y192520D01*
X806693Y188583D02*
Y192520D01*
X802756*
Y188583*
X806693*
X802787D02*
Y192520D01*
X803287Y188583D02*
Y192520D01*
X803787Y188583D02*
Y192520D01*
X804287Y188583D02*
Y192520D01*
X804787Y188583D02*
Y192520D01*
X805287Y188583D02*
Y192520D01*
X805787Y188583D02*
Y192520D01*
X806287Y188583D02*
Y192520D01*
X794882Y188583D02*
X798819D01*
Y192520*
X794882*
Y188583*
X795287D02*
Y192520D01*
X795787Y188583D02*
Y192520D01*
X796287Y188583D02*
Y192520D01*
X796787Y188583D02*
Y192520D01*
X797287Y188583D02*
Y192520D01*
X797787Y188583D02*
Y192520D01*
X798287Y188583D02*
Y192520D01*
X798787Y188583D02*
Y192520D01*
X767323Y133465D02*
X771260D01*
Y137402*
X767323*
Y133465*
X767791D02*
Y137402D01*
X768291Y133465D02*
Y137402D01*
X768791Y133465D02*
Y137402D01*
X769291Y133465D02*
Y137402D01*
X769791Y133465D02*
Y137402D01*
X770291Y133465D02*
Y137402D01*
X770791Y133465D02*
Y137402D01*
X767323Y145276D02*
Y141339D01*
X771260*
Y145276*
X767323*
X767791Y141339D02*
Y145276D01*
X768291Y141339D02*
Y145276D01*
X768791Y141339D02*
Y145276D01*
X769291Y141339D02*
Y145276D01*
X769791Y141339D02*
Y145276D01*
X770291Y141339D02*
Y145276D01*
X770791Y141339D02*
Y145276D01*
X432677Y196457D02*
X428740D01*
Y192520*
X432677*
Y196457*
X429209Y192520D02*
Y196457D01*
X429709Y192520D02*
Y196457D01*
X430209Y192520D02*
Y196457D01*
X430709Y192520D02*
Y196457D01*
X431209Y192520D02*
Y196457D01*
X431709Y192520D02*
Y196457D01*
X432209Y192520D02*
Y196457D01*
X432677Y184646D02*
Y188583D01*
X428740*
Y184646*
X432677*
X429209D02*
Y188583D01*
X429709Y184646D02*
Y188583D01*
X430209Y184646D02*
Y188583D01*
X430709Y184646D02*
Y188583D01*
X431209Y184646D02*
Y188583D01*
X431709Y184646D02*
Y188583D01*
X432209Y184646D02*
Y188583D01*
X212205Y196457D02*
Y192520D01*
X216142*
Y196457*
X212205*
X212610Y192520D02*
Y196457D01*
X213110Y192520D02*
Y196457D01*
X213610Y192520D02*
Y196457D01*
X214110Y192520D02*
Y196457D01*
X214610Y192520D02*
Y196457D01*
X215110Y192520D02*
Y196457D01*
X215610Y192520D02*
Y196457D01*
X216110Y192520D02*
Y196457D01*
X224016D02*
X220079D01*
Y192520*
X224016*
Y196457*
X220110Y192520D02*
Y196457D01*
X220610Y192520D02*
Y196457D01*
X221110Y192520D02*
Y196457D01*
X221610Y192520D02*
Y196457D01*
X222110Y192520D02*
Y196457D01*
X222610Y192520D02*
Y196457D01*
X223110Y192520D02*
Y196457D01*
X223610Y192520D02*
Y196457D01*
X224016Y161024D02*
Y164961D01*
X220079*
Y161024*
X224016*
X220110D02*
Y164961D01*
X220610Y161024D02*
Y164961D01*
X221110Y161024D02*
Y164961D01*
X221610Y161024D02*
Y164961D01*
X222110Y161024D02*
Y164961D01*
X222610Y161024D02*
Y164961D01*
X223110Y161024D02*
Y164961D01*
X223610Y161024D02*
Y164961D01*
X212205Y161024D02*
X216142D01*
Y164961*
X212205*
Y161024*
X212610D02*
Y164961D01*
X213110Y161024D02*
Y164961D01*
X213610Y161024D02*
Y164961D01*
X214110Y161024D02*
Y164961D01*
X214610Y161024D02*
Y164961D01*
X215110Y161024D02*
Y164961D01*
X215610Y161024D02*
Y164961D01*
X216110Y161024D02*
Y164961D01*
X161024Y172835D02*
Y168898D01*
X164961*
Y172835*
X161024*
X161429Y168898D02*
Y172835D01*
X161929Y168898D02*
Y172835D01*
X162429Y168898D02*
Y172835D01*
X162929Y168898D02*
Y172835D01*
X163429Y168898D02*
Y172835D01*
X163929Y168898D02*
Y172835D01*
X164429Y168898D02*
Y172835D01*
X164929Y168898D02*
Y172835D01*
X172835D02*
X168898D01*
Y168898*
X172835*
Y172835*
X168929Y168898D02*
Y172835D01*
X169429Y168898D02*
Y172835D01*
X169929Y168898D02*
Y172835D01*
X170429Y168898D02*
Y172835D01*
X170929Y168898D02*
Y172835D01*
X171429Y168898D02*
Y172835D01*
X171929Y168898D02*
Y172835D01*
X172429Y168898D02*
Y172835D01*
X405118Y164961D02*
X401181D01*
Y161024*
X405118*
Y164961*
X401650Y161024D02*
Y164961D01*
X402150Y161024D02*
Y164961D01*
X402650Y161024D02*
Y164961D01*
X403150Y161024D02*
Y164961D01*
X403650Y161024D02*
Y164961D01*
X404150Y161024D02*
Y164961D01*
X404650Y161024D02*
Y164961D01*
X405118Y153150D02*
Y157087D01*
X401181*
Y153150*
X405118*
X401650D02*
Y157087D01*
X402150Y153150D02*
Y157087D01*
X402650Y153150D02*
Y157087D01*
X403150Y153150D02*
Y157087D01*
X403650Y153150D02*
Y157087D01*
X404150Y153150D02*
Y157087D01*
X404650Y153150D02*
Y157087D01*
X369685Y196457D02*
X365748D01*
Y192520*
X369685*
Y196457*
X366217Y192520D02*
Y196457D01*
X366717Y192520D02*
Y196457D01*
X367217Y192520D02*
Y196457D01*
X367717Y192520D02*
Y196457D01*
X368217Y192520D02*
Y196457D01*
X368717Y192520D02*
Y196457D01*
X369217Y192520D02*
Y196457D01*
X369685Y184646D02*
Y188583D01*
X365748*
Y184646*
X369685*
X366217D02*
Y188583D01*
X366717Y184646D02*
Y188583D01*
X367217Y184646D02*
Y188583D01*
X367717Y184646D02*
Y188583D01*
X368217Y184646D02*
Y188583D01*
X368717Y184646D02*
Y188583D01*
X369217Y184646D02*
Y188583D01*
X389370Y164961D02*
X385433D01*
Y161024*
X389370*
Y164961*
X385902Y161024D02*
Y164961D01*
X386402Y161024D02*
Y164961D01*
X386902Y161024D02*
Y164961D01*
X387402Y161024D02*
Y164961D01*
X387902Y161024D02*
Y164961D01*
X388402Y161024D02*
Y164961D01*
X388902Y161024D02*
Y164961D01*
X389370Y153150D02*
Y157087D01*
X385433*
Y153150*
X389370*
X385902D02*
Y157087D01*
X386402Y153150D02*
Y157087D01*
X386902Y153150D02*
Y157087D01*
X387402Y153150D02*
Y157087D01*
X387902Y153150D02*
Y157087D01*
X388402Y153150D02*
Y157087D01*
X388902Y153150D02*
Y157087D01*
X182677Y279134D02*
Y275197D01*
X186614*
Y279134*
X182677*
X183083Y275197D02*
Y279134D01*
X183583Y275197D02*
Y279134D01*
X184083Y275197D02*
Y279134D01*
X184583Y275197D02*
Y279134D01*
X185083Y275197D02*
Y279134D01*
X185583Y275197D02*
Y279134D01*
X186083Y275197D02*
Y279134D01*
X186583Y275197D02*
Y279134D01*
X190551D02*
Y275197D01*
X194488*
Y279134*
X190551*
X190583Y275197D02*
Y279134D01*
X191083Y275197D02*
Y279134D01*
X191583Y275197D02*
Y279134D01*
X192083Y275197D02*
Y279134D01*
X192583Y275197D02*
Y279134D01*
X193083Y275197D02*
Y279134D01*
X193583Y275197D02*
Y279134D01*
X194083Y275197D02*
Y279134D01*
X235827Y247638D02*
X231890D01*
Y243701*
X235827*
Y247638*
X232358Y243701D02*
Y247638D01*
X232858Y243701D02*
Y247638D01*
X233358Y243701D02*
Y247638D01*
X233858Y243701D02*
Y247638D01*
X234358Y243701D02*
Y247638D01*
X234858Y243701D02*
Y247638D01*
X235358Y243701D02*
Y247638D01*
X235827Y239764D02*
X231890D01*
Y235827*
X235827*
Y239764*
X232358Y235827D02*
Y239764D01*
X232858Y235827D02*
Y239764D01*
X233358Y235827D02*
Y239764D01*
X233858Y235827D02*
Y239764D01*
X234358Y235827D02*
Y239764D01*
X234858Y235827D02*
Y239764D01*
X235358Y235827D02*
Y239764D01*
X308661Y279134D02*
Y275197D01*
X312598*
Y279134*
X308661*
X309067Y275197D02*
Y279134D01*
X309567Y275197D02*
Y279134D01*
X310067Y275197D02*
Y279134D01*
X310567Y275197D02*
Y279134D01*
X311067Y275197D02*
Y279134D01*
X311567Y275197D02*
Y279134D01*
X312067Y275197D02*
Y279134D01*
X312567Y275197D02*
Y279134D01*
X316535D02*
Y275197D01*
X320472*
Y279134*
X316535*
X316567Y275197D02*
Y279134D01*
X317067Y275197D02*
Y279134D01*
X317567Y275197D02*
Y279134D01*
X318067Y275197D02*
Y279134D01*
X318567Y275197D02*
Y279134D01*
X319067Y275197D02*
Y279134D01*
X319567Y275197D02*
Y279134D01*
X320067Y275197D02*
Y279134D01*
X371654D02*
Y275197D01*
X375591*
Y279134*
X371654*
X372059Y275197D02*
Y279134D01*
X372559Y275197D02*
Y279134D01*
X373059Y275197D02*
Y279134D01*
X373559Y275197D02*
Y279134D01*
X374059Y275197D02*
Y279134D01*
X374559Y275197D02*
Y279134D01*
X375059Y275197D02*
Y279134D01*
X375559Y275197D02*
Y279134D01*
X379528D02*
Y275197D01*
X383465*
Y279134*
X379528*
X379559Y275197D02*
Y279134D01*
X380059Y275197D02*
Y279134D01*
X380559Y275197D02*
Y279134D01*
X381059Y275197D02*
Y279134D01*
X381559Y275197D02*
Y279134D01*
X382059Y275197D02*
Y279134D01*
X382559Y275197D02*
Y279134D01*
X383059Y275197D02*
Y279134D01*
X306693Y310630D02*
X302756D01*
Y306693*
X306693*
Y310630*
X303224Y306693D02*
Y310630D01*
X303724Y306693D02*
Y310630D01*
X304224Y306693D02*
Y310630D01*
X304724Y306693D02*
Y310630D01*
X305224Y306693D02*
Y310630D01*
X305724Y306693D02*
Y310630D01*
X306224Y306693D02*
Y310630D01*
X306693Y302756D02*
X302756D01*
Y298819*
X306693*
Y302756*
X303224Y298819D02*
Y302756D01*
X303724Y298819D02*
Y302756D01*
X304224Y298819D02*
Y302756D01*
X304724Y298819D02*
Y302756D01*
X305224Y298819D02*
Y302756D01*
X305724Y298819D02*
Y302756D01*
X306224Y298819D02*
Y302756D01*
X290945Y247638D02*
X287008D01*
Y243701*
X290945*
Y247638*
X287476Y243701D02*
Y247638D01*
X287976Y243701D02*
Y247638D01*
X288476Y243701D02*
Y247638D01*
X288976Y243701D02*
Y247638D01*
X289476Y243701D02*
Y247638D01*
X289976Y243701D02*
Y247638D01*
X290476Y243701D02*
Y247638D01*
X290945Y239764D02*
X287008D01*
Y235827*
X290945*
Y239764*
X287476Y235827D02*
Y239764D01*
X287976Y235827D02*
Y239764D01*
X288476Y235827D02*
Y239764D01*
X288976Y235827D02*
Y239764D01*
X289476Y235827D02*
Y239764D01*
X289976Y235827D02*
Y239764D01*
X290476Y235827D02*
Y239764D01*
X353937Y247638D02*
X350000D01*
Y243701*
X353937*
Y247638*
X350469Y243701D02*
Y247638D01*
X350969Y243701D02*
Y247638D01*
X351469Y243701D02*
Y247638D01*
X351969Y243701D02*
Y247638D01*
X352469Y243701D02*
Y247638D01*
X352969Y243701D02*
Y247638D01*
X353469Y243701D02*
Y247638D01*
X353937Y239764D02*
X350000D01*
Y235827*
X353937*
Y239764*
X350469Y235827D02*
Y239764D01*
X350969Y235827D02*
Y239764D01*
X351469Y235827D02*
Y239764D01*
X351969Y235827D02*
Y239764D01*
X352469Y235827D02*
Y239764D01*
X352969Y235827D02*
Y239764D01*
X353469Y235827D02*
Y239764D01*
X428740Y137402D02*
Y141339D01*
X424803*
Y137402*
X428740*
X424835D02*
Y141339D01*
X425335Y137402D02*
Y141339D01*
X425835Y137402D02*
Y141339D01*
X426335Y137402D02*
Y141339D01*
X426835Y137402D02*
Y141339D01*
X427335Y137402D02*
Y141339D01*
X427835Y137402D02*
Y141339D01*
X428335Y137402D02*
Y141339D01*
X420866Y137402D02*
Y141339D01*
X416929*
Y137402*
X420866*
X417335D02*
Y141339D01*
X417835Y137402D02*
Y141339D01*
X418335Y137402D02*
Y141339D01*
X418835Y137402D02*
Y141339D01*
X419335Y137402D02*
Y141339D01*
X419835Y137402D02*
Y141339D01*
X420335Y137402D02*
Y141339D01*
X420835Y137402D02*
Y141339D01*
X369685Y310630D02*
X365748D01*
Y306693*
X369685*
Y310630*
X366217Y306693D02*
Y310630D01*
X366717Y306693D02*
Y310630D01*
X367217Y306693D02*
Y310630D01*
X367717Y306693D02*
Y310630D01*
X368217Y306693D02*
Y310630D01*
X368717Y306693D02*
Y310630D01*
X369217Y306693D02*
Y310630D01*
X369685Y302756D02*
X365748D01*
Y298819*
X369685*
Y302756*
X366217Y298819D02*
Y302756D01*
X366717Y298819D02*
Y302756D01*
X367217Y298819D02*
Y302756D01*
X367717Y298819D02*
Y302756D01*
X368217Y298819D02*
Y302756D01*
X368717Y298819D02*
Y302756D01*
X369217Y298819D02*
Y302756D01*
X428740Y129528D02*
Y133465D01*
X424803*
Y129528*
X428740*
X424835D02*
Y133465D01*
X425335Y129528D02*
Y133465D01*
X425835Y129528D02*
Y133465D01*
X426335Y129528D02*
Y133465D01*
X426835Y129528D02*
Y133465D01*
X427335Y129528D02*
Y133465D01*
X427835Y129528D02*
Y133465D01*
X428335Y129528D02*
Y133465D01*
X420866Y129528D02*
Y133465D01*
X416929*
Y129528*
X420866*
X417335D02*
Y133465D01*
X417835Y129528D02*
Y133465D01*
X418335Y129528D02*
Y133465D01*
X418835Y129528D02*
Y133465D01*
X419335Y129528D02*
Y133465D01*
X419835Y129528D02*
Y133465D01*
X420335Y129528D02*
Y133465D01*
X420835Y129528D02*
Y133465D01*
X298819Y247638D02*
X294882D01*
Y243701*
X298819*
Y247638*
X295350Y243701D02*
Y247638D01*
X295850Y243701D02*
Y247638D01*
X296350Y243701D02*
Y247638D01*
X296850Y243701D02*
Y247638D01*
X297350Y243701D02*
Y247638D01*
X297850Y243701D02*
Y247638D01*
X298350Y243701D02*
Y247638D01*
X298819Y239764D02*
X294882D01*
Y235827*
X298819*
Y239764*
X295350Y235827D02*
Y239764D01*
X295850Y235827D02*
Y239764D01*
X296350Y235827D02*
Y239764D01*
X296850Y235827D02*
Y239764D01*
X297350Y235827D02*
Y239764D01*
X297850Y235827D02*
Y239764D01*
X298350Y235827D02*
Y239764D01*
X245669Y279134D02*
Y275197D01*
X249606*
Y279134*
X245669*
X246075Y275197D02*
Y279134D01*
X246575Y275197D02*
Y279134D01*
X247075Y275197D02*
Y279134D01*
X247575Y275197D02*
Y279134D01*
X248075Y275197D02*
Y279134D01*
X248575Y275197D02*
Y279134D01*
X249075Y275197D02*
Y279134D01*
X249575Y275197D02*
Y279134D01*
X253543D02*
Y275197D01*
X257480*
Y279134*
X253543*
X253575Y275197D02*
Y279134D01*
X254075Y275197D02*
Y279134D01*
X254575Y275197D02*
Y279134D01*
X255075Y275197D02*
Y279134D01*
X255575Y275197D02*
Y279134D01*
X256075Y275197D02*
Y279134D01*
X256575Y275197D02*
Y279134D01*
X257075Y275197D02*
Y279134D01*
X361811Y247638D02*
X357874D01*
Y243701*
X361811*
Y247638*
X358343Y243701D02*
Y247638D01*
X358843Y243701D02*
Y247638D01*
X359343Y243701D02*
Y247638D01*
X359843Y243701D02*
Y247638D01*
X360343Y243701D02*
Y247638D01*
X360843Y243701D02*
Y247638D01*
X361343Y243701D02*
Y247638D01*
X361811Y239764D02*
X357874D01*
Y235827*
X361811*
Y239764*
X358343Y235827D02*
Y239764D01*
X358843Y235827D02*
Y239764D01*
X359343Y235827D02*
Y239764D01*
X359843Y235827D02*
Y239764D01*
X360343Y235827D02*
Y239764D01*
X360843Y235827D02*
Y239764D01*
X361343Y235827D02*
Y239764D01*
X434646Y279134D02*
Y275197D01*
X438583*
Y279134*
X434646*
X435051Y275197D02*
Y279134D01*
X435551Y275197D02*
Y279134D01*
X436051Y275197D02*
Y279134D01*
X436551Y275197D02*
Y279134D01*
X437051Y275197D02*
Y279134D01*
X437551Y275197D02*
Y279134D01*
X438051Y275197D02*
Y279134D01*
X438551Y275197D02*
Y279134D01*
X442520D02*
Y275197D01*
X446457*
Y279134*
X442520*
X442551Y275197D02*
Y279134D01*
X443051Y275197D02*
Y279134D01*
X443551Y275197D02*
Y279134D01*
X444051Y275197D02*
Y279134D01*
X444551Y275197D02*
Y279134D01*
X445051Y275197D02*
Y279134D01*
X445551Y275197D02*
Y279134D01*
X446051Y275197D02*
Y279134D01*
X497638D02*
Y275197D01*
X501575*
Y279134*
X497638*
X498043Y275197D02*
Y279134D01*
X498543Y275197D02*
Y279134D01*
X499043Y275197D02*
Y279134D01*
X499543Y275197D02*
Y279134D01*
X500043Y275197D02*
Y279134D01*
X500543Y275197D02*
Y279134D01*
X501043Y275197D02*
Y279134D01*
X501543Y275197D02*
Y279134D01*
X505512D02*
Y275197D01*
X509449*
Y279134*
X505512*
X505543Y275197D02*
Y279134D01*
X506043Y275197D02*
Y279134D01*
X506543Y275197D02*
Y279134D01*
X507043Y275197D02*
Y279134D01*
X507543Y275197D02*
Y279134D01*
X508043Y275197D02*
Y279134D01*
X508543Y275197D02*
Y279134D01*
X509043Y275197D02*
Y279134D01*
X432677Y310630D02*
X428740D01*
Y306693*
X432677*
Y310630*
X429209Y306693D02*
Y310630D01*
X429709Y306693D02*
Y310630D01*
X430209Y306693D02*
Y310630D01*
X430709Y306693D02*
Y310630D01*
X431209Y306693D02*
Y310630D01*
X431709Y306693D02*
Y310630D01*
X432209Y306693D02*
Y310630D01*
X432677Y302756D02*
X428740D01*
Y298819*
X432677*
Y302756*
X429209Y298819D02*
Y302756D01*
X429709Y298819D02*
Y302756D01*
X430209Y298819D02*
Y302756D01*
X430709Y298819D02*
Y302756D01*
X431209Y298819D02*
Y302756D01*
X431709Y298819D02*
Y302756D01*
X432209Y298819D02*
Y302756D01*
X416929Y247638D02*
X412992D01*
Y243701*
X416929*
Y247638*
X413461Y243701D02*
Y247638D01*
X413961Y243701D02*
Y247638D01*
X414461Y243701D02*
Y247638D01*
X414961Y243701D02*
Y247638D01*
X415461Y243701D02*
Y247638D01*
X415961Y243701D02*
Y247638D01*
X416461Y243701D02*
Y247638D01*
X416929Y239764D02*
X412992D01*
Y235827*
X416929*
Y239764*
X413461Y235827D02*
Y239764D01*
X413961Y235827D02*
Y239764D01*
X414461Y235827D02*
Y239764D01*
X414961Y235827D02*
Y239764D01*
X415461Y235827D02*
Y239764D01*
X415961Y235827D02*
Y239764D01*
X416461Y235827D02*
Y239764D01*
X495669Y310630D02*
X491732D01*
Y306693*
X495669*
Y310630*
X492201Y306693D02*
Y310630D01*
X492701Y306693D02*
Y310630D01*
X493201Y306693D02*
Y310630D01*
X493701Y306693D02*
Y310630D01*
X494201Y306693D02*
Y310630D01*
X494701Y306693D02*
Y310630D01*
X495201Y306693D02*
Y310630D01*
X495669Y302756D02*
X491732D01*
Y298819*
X495669*
Y302756*
X492201Y298819D02*
Y302756D01*
X492701Y298819D02*
Y302756D01*
X493201Y298819D02*
Y302756D01*
X493701Y298819D02*
Y302756D01*
X494201Y298819D02*
Y302756D01*
X494701Y298819D02*
Y302756D01*
X495201Y298819D02*
Y302756D01*
X479921Y247638D02*
X475984D01*
Y243701*
X479921*
Y247638*
X476453Y243701D02*
Y247638D01*
X476953Y243701D02*
Y247638D01*
X477453Y243701D02*
Y247638D01*
X477953Y243701D02*
Y247638D01*
X478453Y243701D02*
Y247638D01*
X478953Y243701D02*
Y247638D01*
X479453Y243701D02*
Y247638D01*
X479921Y239764D02*
X475984D01*
Y235827*
X479921*
Y239764*
X476453Y235827D02*
Y239764D01*
X476953Y235827D02*
Y239764D01*
X477453Y235827D02*
Y239764D01*
X477953Y235827D02*
Y239764D01*
X478453Y235827D02*
Y239764D01*
X478953Y235827D02*
Y239764D01*
X479453Y235827D02*
Y239764D01*
X452362Y129528D02*
Y133465D01*
X448425*
Y129528*
X452362*
X448457D02*
Y133465D01*
X448957Y129528D02*
Y133465D01*
X449457Y129528D02*
Y133465D01*
X449957Y129528D02*
Y133465D01*
X450457Y129528D02*
Y133465D01*
X450957Y129528D02*
Y133465D01*
X451457Y129528D02*
Y133465D01*
X451957Y129528D02*
Y133465D01*
X444488Y129528D02*
Y133465D01*
X440551*
Y129528*
X444488*
X440957D02*
Y133465D01*
X441457Y129528D02*
Y133465D01*
X441957Y129528D02*
Y133465D01*
X442457Y129528D02*
Y133465D01*
X442957Y129528D02*
Y133465D01*
X443457Y129528D02*
Y133465D01*
X443957Y129528D02*
Y133465D01*
X444457Y129528D02*
Y133465D01*
X452362Y137402D02*
Y141339D01*
X448425*
Y137402*
X452362*
X448457D02*
Y141339D01*
X448957Y137402D02*
Y141339D01*
X449457Y137402D02*
Y141339D01*
X449957Y137402D02*
Y141339D01*
X450457Y137402D02*
Y141339D01*
X450957Y137402D02*
Y141339D01*
X451457Y137402D02*
Y141339D01*
X451957Y137402D02*
Y141339D01*
X444488Y137402D02*
Y141339D01*
X440551*
Y137402*
X444488*
X440957D02*
Y141339D01*
X441457Y137402D02*
Y141339D01*
X441957Y137402D02*
Y141339D01*
X442457Y137402D02*
Y141339D01*
X442957Y137402D02*
Y141339D01*
X443457Y137402D02*
Y141339D01*
X443957Y137402D02*
Y141339D01*
X444457Y137402D02*
Y141339D01*
X424803Y247638D02*
X420866D01*
Y243701*
X424803*
Y247638*
X421335Y243701D02*
Y247638D01*
X421835Y243701D02*
Y247638D01*
X422335Y243701D02*
Y247638D01*
X422835Y243701D02*
Y247638D01*
X423335Y243701D02*
Y247638D01*
X423835Y243701D02*
Y247638D01*
X424335Y243701D02*
Y247638D01*
X424803Y239764D02*
X420866D01*
Y235827*
X424803*
Y239764*
X421335Y235827D02*
Y239764D01*
X421835Y235827D02*
Y239764D01*
X422335Y235827D02*
Y239764D01*
X422835Y235827D02*
Y239764D01*
X423335Y235827D02*
Y239764D01*
X423835Y235827D02*
Y239764D01*
X424335Y235827D02*
Y239764D01*
X164961Y247638D02*
X161024D01*
Y243701*
X164961*
Y247638*
X161492Y243701D02*
Y247638D01*
X161992Y243701D02*
Y247638D01*
X162492Y243701D02*
Y247638D01*
X162992Y243701D02*
Y247638D01*
X163492Y243701D02*
Y247638D01*
X163992Y243701D02*
Y247638D01*
X164492Y243701D02*
Y247638D01*
X164961Y239764D02*
X161024D01*
Y235827*
X164961*
Y239764*
X161492Y235827D02*
Y239764D01*
X161992Y235827D02*
Y239764D01*
X162492Y235827D02*
Y239764D01*
X162992Y235827D02*
Y239764D01*
X163492Y235827D02*
Y239764D01*
X163992Y235827D02*
Y239764D01*
X164492Y235827D02*
Y239764D01*
X487795Y247638D02*
X483858D01*
Y243701*
X487795*
Y247638*
X484327Y243701D02*
Y247638D01*
X484827Y243701D02*
Y247638D01*
X485327Y243701D02*
Y247638D01*
X485827Y243701D02*
Y247638D01*
X486327Y243701D02*
Y247638D01*
X486827Y243701D02*
Y247638D01*
X487327Y243701D02*
Y247638D01*
X487795Y239764D02*
X483858D01*
Y235827*
X487795*
Y239764*
X484327Y235827D02*
Y239764D01*
X484827Y235827D02*
Y239764D01*
X485327Y235827D02*
Y239764D01*
X485827Y235827D02*
Y239764D01*
X486327Y235827D02*
Y239764D01*
X486827Y235827D02*
Y239764D01*
X487327Y235827D02*
Y239764D01*
X560630Y279134D02*
Y275197D01*
X564567*
Y279134*
X560630*
X561035Y275197D02*
Y279134D01*
X561535Y275197D02*
Y279134D01*
X562035Y275197D02*
Y279134D01*
X562535Y275197D02*
Y279134D01*
X563035Y275197D02*
Y279134D01*
X563535Y275197D02*
Y279134D01*
X564035Y275197D02*
Y279134D01*
X564535Y275197D02*
Y279134D01*
X568504D02*
Y275197D01*
X572441*
Y279134*
X568504*
X568535Y275197D02*
Y279134D01*
X569035Y275197D02*
Y279134D01*
X569535Y275197D02*
Y279134D01*
X570035Y275197D02*
Y279134D01*
X570535Y275197D02*
Y279134D01*
X571035Y275197D02*
Y279134D01*
X571535Y275197D02*
Y279134D01*
X572035Y275197D02*
Y279134D01*
X623622D02*
Y275197D01*
X627559*
Y279134*
X623622*
X624028Y275197D02*
Y279134D01*
X624528Y275197D02*
Y279134D01*
X625028Y275197D02*
Y279134D01*
X625528Y275197D02*
Y279134D01*
X626028Y275197D02*
Y279134D01*
X626528Y275197D02*
Y279134D01*
X627028Y275197D02*
Y279134D01*
X627528Y275197D02*
Y279134D01*
X631496D02*
Y275197D01*
X635433*
Y279134*
X631496*
X631528Y275197D02*
Y279134D01*
X632028Y275197D02*
Y279134D01*
X632528Y275197D02*
Y279134D01*
X633028Y275197D02*
Y279134D01*
X633528Y275197D02*
Y279134D01*
X634028Y275197D02*
Y279134D01*
X634528Y275197D02*
Y279134D01*
X635028Y275197D02*
Y279134D01*
X558661Y310630D02*
X554724D01*
Y306693*
X558661*
Y310630*
X555193Y306693D02*
Y310630D01*
X555693Y306693D02*
Y310630D01*
X556193Y306693D02*
Y310630D01*
X556693Y306693D02*
Y310630D01*
X557193Y306693D02*
Y310630D01*
X557693Y306693D02*
Y310630D01*
X558193Y306693D02*
Y310630D01*
X558661Y302756D02*
X554724D01*
Y298819*
X558661*
Y302756*
X555193Y298819D02*
Y302756D01*
X555693Y298819D02*
Y302756D01*
X556193Y298819D02*
Y302756D01*
X556693Y298819D02*
Y302756D01*
X557193Y298819D02*
Y302756D01*
X557693Y298819D02*
Y302756D01*
X558193Y298819D02*
Y302756D01*
X542913Y247638D02*
X538976D01*
Y243701*
X542913*
Y247638*
X539445Y243701D02*
Y247638D01*
X539945Y243701D02*
Y247638D01*
X540445Y243701D02*
Y247638D01*
X540945Y243701D02*
Y247638D01*
X541445Y243701D02*
Y247638D01*
X541945Y243701D02*
Y247638D01*
X542445Y243701D02*
Y247638D01*
X542913Y239764D02*
X538976D01*
Y235827*
X542913*
Y239764*
X539445Y235827D02*
Y239764D01*
X539945Y235827D02*
Y239764D01*
X540445Y235827D02*
Y239764D01*
X540945Y235827D02*
Y239764D01*
X541445Y235827D02*
Y239764D01*
X541945Y235827D02*
Y239764D01*
X542445Y235827D02*
Y239764D01*
X621654Y310630D02*
X617717D01*
Y306693*
X621654*
Y310630*
X618185Y306693D02*
Y310630D01*
X618685Y306693D02*
Y310630D01*
X619185Y306693D02*
Y310630D01*
X619685Y306693D02*
Y310630D01*
X620185Y306693D02*
Y310630D01*
X620685Y306693D02*
Y310630D01*
X621185Y306693D02*
Y310630D01*
X621654Y302756D02*
X617717D01*
Y298819*
X621654*
Y302756*
X618185Y298819D02*
Y302756D01*
X618685Y298819D02*
Y302756D01*
X619185Y298819D02*
Y302756D01*
X619685Y298819D02*
Y302756D01*
X620185Y298819D02*
Y302756D01*
X620685Y298819D02*
Y302756D01*
X621185Y298819D02*
Y302756D01*
X605906Y247638D02*
X601969D01*
Y243701*
X605906*
Y247638*
X602437Y243701D02*
Y247638D01*
X602937Y243701D02*
Y247638D01*
X603437Y243701D02*
Y247638D01*
X603937Y243701D02*
Y247638D01*
X604437Y243701D02*
Y247638D01*
X604937Y243701D02*
Y247638D01*
X605437Y243701D02*
Y247638D01*
X605906Y239764D02*
X601969D01*
Y235827*
X605906*
Y239764*
X602437Y235827D02*
Y239764D01*
X602937Y235827D02*
Y239764D01*
X603437Y235827D02*
Y239764D01*
X603937Y235827D02*
Y239764D01*
X604437Y235827D02*
Y239764D01*
X604937Y235827D02*
Y239764D01*
X605437Y235827D02*
Y239764D01*
X452362Y145276D02*
Y149213D01*
X448425*
Y145276*
X452362*
X448457D02*
Y149213D01*
X448957Y145276D02*
Y149213D01*
X449457Y145276D02*
Y149213D01*
X449957Y145276D02*
Y149213D01*
X450457Y145276D02*
Y149213D01*
X450957Y145276D02*
Y149213D01*
X451457Y145276D02*
Y149213D01*
X451957Y145276D02*
Y149213D01*
X444488Y145276D02*
Y149213D01*
X440551*
Y145276*
X444488*
X440957D02*
Y149213D01*
X441457Y145276D02*
Y149213D01*
X441957Y145276D02*
Y149213D01*
X442457Y145276D02*
Y149213D01*
X442957Y145276D02*
Y149213D01*
X443457Y145276D02*
Y149213D01*
X443957Y145276D02*
Y149213D01*
X444457Y145276D02*
Y149213D01*
X452362Y153150D02*
Y157087D01*
X448425*
Y153150*
X452362*
X448457D02*
Y157087D01*
X448957Y153150D02*
Y157087D01*
X449457Y153150D02*
Y157087D01*
X449957Y153150D02*
Y157087D01*
X450457Y153150D02*
Y157087D01*
X450957Y153150D02*
Y157087D01*
X451457Y153150D02*
Y157087D01*
X451957Y153150D02*
Y157087D01*
X444488Y153150D02*
Y157087D01*
X440551*
Y153150*
X444488*
X440957D02*
Y157087D01*
X441457Y153150D02*
Y157087D01*
X441957Y153150D02*
Y157087D01*
X442457Y153150D02*
Y157087D01*
X442957Y153150D02*
Y157087D01*
X443457Y153150D02*
Y157087D01*
X443957Y153150D02*
Y157087D01*
X444457Y153150D02*
Y157087D01*
X550787Y247638D02*
X546850D01*
Y243701*
X550787*
Y247638*
X547319Y243701D02*
Y247638D01*
X547819Y243701D02*
Y247638D01*
X548319Y243701D02*
Y247638D01*
X548819Y243701D02*
Y247638D01*
X549319Y243701D02*
Y247638D01*
X549819Y243701D02*
Y247638D01*
X550319Y243701D02*
Y247638D01*
X550787Y239764D02*
X546850D01*
Y235827*
X550787*
Y239764*
X547319Y235827D02*
Y239764D01*
X547819Y235827D02*
Y239764D01*
X548319Y235827D02*
Y239764D01*
X548819Y235827D02*
Y239764D01*
X549319Y235827D02*
Y239764D01*
X549819Y235827D02*
Y239764D01*
X550319Y235827D02*
Y239764D01*
X180709Y310630D02*
X176772D01*
Y306693*
X180709*
Y310630*
X177240Y306693D02*
Y310630D01*
X177740Y306693D02*
Y310630D01*
X178240Y306693D02*
Y310630D01*
X178740Y306693D02*
Y310630D01*
X179240Y306693D02*
Y310630D01*
X179740Y306693D02*
Y310630D01*
X180240Y306693D02*
Y310630D01*
X180709Y302756D02*
X176772D01*
Y298819*
X180709*
Y302756*
X177240Y298819D02*
Y302756D01*
X177740Y298819D02*
Y302756D01*
X178240Y298819D02*
Y302756D01*
X178740Y298819D02*
Y302756D01*
X179240Y298819D02*
Y302756D01*
X179740Y298819D02*
Y302756D01*
X180240Y298819D02*
Y302756D01*
X613780Y247638D02*
X609843D01*
Y243701*
X613780*
Y247638*
X610311Y243701D02*
Y247638D01*
X610811Y243701D02*
Y247638D01*
X611311Y243701D02*
Y247638D01*
X611811Y243701D02*
Y247638D01*
X612311Y243701D02*
Y247638D01*
X612811Y243701D02*
Y247638D01*
X613311Y243701D02*
Y247638D01*
X613780Y239764D02*
X609843D01*
Y235827*
X613780*
Y239764*
X610311Y235827D02*
Y239764D01*
X610811Y235827D02*
Y239764D01*
X611311Y235827D02*
Y239764D01*
X611811Y235827D02*
Y239764D01*
X612311Y235827D02*
Y239764D01*
X612811Y235827D02*
Y239764D01*
X613311Y235827D02*
Y239764D01*
X188583Y196457D02*
Y192520D01*
X192520*
Y196457*
X188583*
X188988Y192520D02*
Y196457D01*
X189488Y192520D02*
Y196457D01*
X189988Y192520D02*
Y196457D01*
X190488Y192520D02*
Y196457D01*
X190988Y192520D02*
Y196457D01*
X191488Y192520D02*
Y196457D01*
X191988Y192520D02*
Y196457D01*
X192488Y192520D02*
Y196457D01*
X196457D02*
Y192520D01*
X200394*
Y196457*
X196457*
X196488Y192520D02*
Y196457D01*
X196988Y192520D02*
Y196457D01*
X197488Y192520D02*
Y196457D01*
X197988Y192520D02*
Y196457D01*
X198488Y192520D02*
Y196457D01*
X198988Y192520D02*
Y196457D01*
X199488Y192520D02*
Y196457D01*
X199988Y192520D02*
Y196457D01*
X188583Y188583D02*
Y184646D01*
X192520*
Y188583*
X188583*
X188988Y184646D02*
Y188583D01*
X189488Y184646D02*
Y188583D01*
X189988Y184646D02*
Y188583D01*
X190488Y184646D02*
Y188583D01*
X190988Y184646D02*
Y188583D01*
X191488Y184646D02*
Y188583D01*
X191988Y184646D02*
Y188583D01*
X192488Y184646D02*
Y188583D01*
X196457D02*
Y184646D01*
X200394*
Y188583*
X196457*
X196488Y184646D02*
Y188583D01*
X196988Y184646D02*
Y188583D01*
X197488Y184646D02*
Y188583D01*
X197988Y184646D02*
Y188583D01*
X198488Y184646D02*
Y188583D01*
X198988Y184646D02*
Y188583D01*
X199488Y184646D02*
Y188583D01*
X199988Y184646D02*
Y188583D01*
X235827Y180709D02*
X239764D01*
Y184646*
X235827*
Y180709*
X236295D02*
Y184646D01*
X236795Y180709D02*
Y184646D01*
X237295Y180709D02*
Y184646D01*
X237795Y180709D02*
Y184646D01*
X238295Y180709D02*
Y184646D01*
X238795Y180709D02*
Y184646D01*
X239295Y180709D02*
Y184646D01*
X235827Y188583D02*
X239764D01*
Y192520*
X235827*
Y188583*
X236295D02*
Y192520D01*
X236795Y188583D02*
Y192520D01*
X237295Y188583D02*
Y192520D01*
X237795Y188583D02*
Y192520D01*
X238295Y188583D02*
Y192520D01*
X238795Y188583D02*
Y192520D01*
X239295Y188583D02*
Y192520D01*
X188583Y180709D02*
Y176772D01*
X192520*
Y180709*
X188583*
X188988Y176772D02*
Y180709D01*
X189488Y176772D02*
Y180709D01*
X189988Y176772D02*
Y180709D01*
X190488Y176772D02*
Y180709D01*
X190988Y176772D02*
Y180709D01*
X191488Y176772D02*
Y180709D01*
X191988Y176772D02*
Y180709D01*
X192488Y176772D02*
Y180709D01*
X196457D02*
Y176772D01*
X200394*
Y180709*
X196457*
X196488Y176772D02*
Y180709D01*
X196988Y176772D02*
Y180709D01*
X197488Y176772D02*
Y180709D01*
X197988Y176772D02*
Y180709D01*
X198488Y176772D02*
Y180709D01*
X198988Y176772D02*
Y180709D01*
X199488Y176772D02*
Y180709D01*
X199988Y176772D02*
Y180709D01*
X188583Y172835D02*
Y168898D01*
X192520*
Y172835*
X188583*
X188988Y168898D02*
Y172835D01*
X189488Y168898D02*
Y172835D01*
X189988Y168898D02*
Y172835D01*
X190488Y168898D02*
Y172835D01*
X190988Y168898D02*
Y172835D01*
X191488Y168898D02*
Y172835D01*
X191988Y168898D02*
Y172835D01*
X192488Y168898D02*
Y172835D01*
X196457D02*
Y168898D01*
X200394*
Y172835*
X196457*
X196488Y168898D02*
Y172835D01*
X196988Y168898D02*
Y172835D01*
X197488Y168898D02*
Y172835D01*
X197988Y168898D02*
Y172835D01*
X198488Y168898D02*
Y172835D01*
X198988Y168898D02*
Y172835D01*
X199488Y168898D02*
Y172835D01*
X199988Y168898D02*
Y172835D01*
X239764Y212205D02*
X235827D01*
Y208268*
X239764*
Y212205*
X236295Y208268D02*
Y212205D01*
X236795Y208268D02*
Y212205D01*
X237295Y208268D02*
Y212205D01*
X237795Y208268D02*
Y212205D01*
X238295Y208268D02*
Y212205D01*
X238795Y208268D02*
Y212205D01*
X239295Y208268D02*
Y212205D01*
X239764Y204331D02*
X235827D01*
Y200394*
X239764*
Y204331*
X236295Y200394D02*
Y204331D01*
X236795Y200394D02*
Y204331D01*
X237295Y200394D02*
Y204331D01*
X237795Y200394D02*
Y204331D01*
X238295Y200394D02*
Y204331D01*
X238795Y200394D02*
Y204331D01*
X239295Y200394D02*
Y204331D01*
X153150Y200394D02*
Y204331D01*
X149213*
Y200394*
X153150*
X149244D02*
Y204331D01*
X149744Y200394D02*
Y204331D01*
X150244Y200394D02*
Y204331D01*
X150744Y200394D02*
Y204331D01*
X151244Y200394D02*
Y204331D01*
X151744Y200394D02*
Y204331D01*
X152244Y200394D02*
Y204331D01*
X152744Y200394D02*
Y204331D01*
X145276Y200394D02*
Y204331D01*
X141339*
Y200394*
X145276*
X141744D02*
Y204331D01*
X142244Y200394D02*
Y204331D01*
X142744Y200394D02*
Y204331D01*
X143244Y200394D02*
Y204331D01*
X143744Y200394D02*
Y204331D01*
X144244Y200394D02*
Y204331D01*
X144744Y200394D02*
Y204331D01*
X145244Y200394D02*
Y204331D01*
X153150Y192520D02*
Y196457D01*
X149213*
Y192520*
X153150*
X149244D02*
Y196457D01*
X149744Y192520D02*
Y196457D01*
X150244Y192520D02*
Y196457D01*
X150744Y192520D02*
Y196457D01*
X151244Y192520D02*
Y196457D01*
X151744Y192520D02*
Y196457D01*
X152244Y192520D02*
Y196457D01*
X152744Y192520D02*
Y196457D01*
X145276Y192520D02*
Y196457D01*
X141339*
Y192520*
X145276*
X141744D02*
Y196457D01*
X142244Y192520D02*
Y196457D01*
X142744Y192520D02*
Y196457D01*
X143244Y192520D02*
Y196457D01*
X143744Y192520D02*
Y196457D01*
X144244Y192520D02*
Y196457D01*
X144744Y192520D02*
Y196457D01*
X145244Y192520D02*
Y196457D01*
X153150Y176772D02*
Y180709D01*
X149213*
Y176772*
X153150*
X149244D02*
Y180709D01*
X149744Y176772D02*
Y180709D01*
X150244Y176772D02*
Y180709D01*
X150744Y176772D02*
Y180709D01*
X151244Y176772D02*
Y180709D01*
X151744Y176772D02*
Y180709D01*
X152244Y176772D02*
Y180709D01*
X152744Y176772D02*
Y180709D01*
X145276Y176772D02*
Y180709D01*
X141339*
Y176772*
X145276*
X141744D02*
Y180709D01*
X142244Y176772D02*
Y180709D01*
X142744Y176772D02*
Y180709D01*
X143244Y176772D02*
Y180709D01*
X143744Y176772D02*
Y180709D01*
X144244Y176772D02*
Y180709D01*
X144744Y176772D02*
Y180709D01*
X145244Y176772D02*
Y180709D01*
X243701Y310630D02*
X239764D01*
Y306693*
X243701*
Y310630*
X240232Y306693D02*
Y310630D01*
X240732Y306693D02*
Y310630D01*
X241232Y306693D02*
Y310630D01*
X241732Y306693D02*
Y310630D01*
X242232Y306693D02*
Y310630D01*
X242732Y306693D02*
Y310630D01*
X243232Y306693D02*
Y310630D01*
X243701Y302756D02*
X239764D01*
Y298819*
X243701*
Y302756*
X240232Y298819D02*
Y302756D01*
X240732Y298819D02*
Y302756D01*
X241232Y298819D02*
Y302756D01*
X241732Y298819D02*
Y302756D01*
X242232Y298819D02*
Y302756D01*
X242732Y298819D02*
Y302756D01*
X243232Y298819D02*
Y302756D01*
X153150Y184646D02*
Y188583D01*
X149213*
Y184646*
X153150*
X149244D02*
Y188583D01*
X149744Y184646D02*
Y188583D01*
X150244Y184646D02*
Y188583D01*
X150744Y184646D02*
Y188583D01*
X151244Y184646D02*
Y188583D01*
X151744Y184646D02*
Y188583D01*
X152244Y184646D02*
Y188583D01*
X152744Y184646D02*
Y188583D01*
X145276Y184646D02*
Y188583D01*
X141339*
Y184646*
X145276*
X141744D02*
Y188583D01*
X142244Y184646D02*
Y188583D01*
X142744Y184646D02*
Y188583D01*
X143244Y184646D02*
Y188583D01*
X143744Y184646D02*
Y188583D01*
X144244Y184646D02*
Y188583D01*
X144744Y184646D02*
Y188583D01*
X145244Y184646D02*
Y188583D01*
X172835Y184646D02*
Y188583D01*
X168898*
Y184646*
X172835*
X168929D02*
Y188583D01*
X169429Y184646D02*
Y188583D01*
X169929Y184646D02*
Y188583D01*
X170429Y184646D02*
Y188583D01*
X170929Y184646D02*
Y188583D01*
X171429Y184646D02*
Y188583D01*
X171929Y184646D02*
Y188583D01*
X172429Y184646D02*
Y188583D01*
X164961Y184646D02*
Y188583D01*
X161024*
Y184646*
X164961*
X161429D02*
Y188583D01*
X161929Y184646D02*
Y188583D01*
X162429Y184646D02*
Y188583D01*
X162929Y184646D02*
Y188583D01*
X163429Y184646D02*
Y188583D01*
X163929Y184646D02*
Y188583D01*
X164429Y184646D02*
Y188583D01*
X164929Y184646D02*
Y188583D01*
X172835Y176772D02*
Y180709D01*
X168898*
Y176772*
X172835*
X168929D02*
Y180709D01*
X169429Y176772D02*
Y180709D01*
X169929Y176772D02*
Y180709D01*
X170429Y176772D02*
Y180709D01*
X170929Y176772D02*
Y180709D01*
X171429Y176772D02*
Y180709D01*
X171929Y176772D02*
Y180709D01*
X172429Y176772D02*
Y180709D01*
X164961Y176772D02*
Y180709D01*
X161024*
Y176772*
X164961*
X161429D02*
Y180709D01*
X161929Y176772D02*
Y180709D01*
X162429Y176772D02*
Y180709D01*
X162929Y176772D02*
Y180709D01*
X163429Y176772D02*
Y180709D01*
X163929Y176772D02*
Y180709D01*
X164429Y176772D02*
Y180709D01*
X164929Y176772D02*
Y180709D01*
X172835Y192520D02*
Y196457D01*
X168898*
Y192520*
X172835*
X168929D02*
Y196457D01*
X169429Y192520D02*
Y196457D01*
X169929Y192520D02*
Y196457D01*
X170429Y192520D02*
Y196457D01*
X170929Y192520D02*
Y196457D01*
X171429Y192520D02*
Y196457D01*
X171929Y192520D02*
Y196457D01*
X172429Y192520D02*
Y196457D01*
X164961Y192520D02*
Y196457D01*
X161024*
Y192520*
X164961*
X161429D02*
Y196457D01*
X161929Y192520D02*
Y196457D01*
X162429Y192520D02*
Y196457D01*
X162929Y192520D02*
Y196457D01*
X163429Y192520D02*
Y196457D01*
X163929Y192520D02*
Y196457D01*
X164429Y192520D02*
Y196457D01*
X164929Y192520D02*
Y196457D01*
X172835Y200394D02*
Y204331D01*
X168898*
Y200394*
X172835*
X168929D02*
Y204331D01*
X169429Y200394D02*
Y204331D01*
X169929Y200394D02*
Y204331D01*
X170429Y200394D02*
Y204331D01*
X170929Y200394D02*
Y204331D01*
X171429Y200394D02*
Y204331D01*
X171929Y200394D02*
Y204331D01*
X172429Y200394D02*
Y204331D01*
X164961Y200394D02*
Y204331D01*
X161024*
Y200394*
X164961*
X161429D02*
Y204331D01*
X161929Y200394D02*
Y204331D01*
X162429Y200394D02*
Y204331D01*
X162929Y200394D02*
Y204331D01*
X163429Y200394D02*
Y204331D01*
X163929Y200394D02*
Y204331D01*
X164429Y200394D02*
Y204331D01*
X164929Y200394D02*
Y204331D01*
X172835Y208268D02*
Y212205D01*
X168898*
Y208268*
X172835*
X168929D02*
Y212205D01*
X169429Y208268D02*
Y212205D01*
X169929Y208268D02*
Y212205D01*
X170429Y208268D02*
Y212205D01*
X170929Y208268D02*
Y212205D01*
X171429Y208268D02*
Y212205D01*
X171929Y208268D02*
Y212205D01*
X172429Y208268D02*
Y212205D01*
X164961Y208268D02*
Y212205D01*
X161024*
Y208268*
X164961*
X161429D02*
Y212205D01*
X161929Y208268D02*
Y212205D01*
X162429Y208268D02*
Y212205D01*
X162929Y208268D02*
Y212205D01*
X163429Y208268D02*
Y212205D01*
X163929Y208268D02*
Y212205D01*
X164429Y208268D02*
Y212205D01*
X164929Y208268D02*
Y212205D01*
X141339D02*
Y208268D01*
X145276*
Y212205*
X141339*
X141744Y208268D02*
Y212205D01*
X142244Y208268D02*
Y212205D01*
X142744Y208268D02*
Y212205D01*
X143244Y208268D02*
Y212205D01*
X143744Y208268D02*
Y212205D01*
X144244Y208268D02*
Y212205D01*
X144744Y208268D02*
Y212205D01*
X145244Y208268D02*
Y212205D01*
X149213D02*
Y208268D01*
X153150*
Y212205*
X149213*
X149244Y208268D02*
Y212205D01*
X149744Y208268D02*
Y212205D01*
X150244Y208268D02*
Y212205D01*
X150744Y208268D02*
Y212205D01*
X151244Y208268D02*
Y212205D01*
X151744Y208268D02*
Y212205D01*
X152244Y208268D02*
Y212205D01*
X152744Y208268D02*
Y212205D01*
X460236Y184646D02*
X464173D01*
Y188583*
X460236*
Y184646*
X460705D02*
Y188583D01*
X461205Y184646D02*
Y188583D01*
X461705Y184646D02*
Y188583D01*
X462205Y184646D02*
Y188583D01*
X462705Y184646D02*
Y188583D01*
X463205Y184646D02*
Y188583D01*
X463705Y184646D02*
Y188583D01*
X460236Y192520D02*
X464173D01*
Y196457*
X460236*
Y192520*
X460705D02*
Y196457D01*
X461205Y192520D02*
Y196457D01*
X461705Y192520D02*
Y196457D01*
X462205Y192520D02*
Y196457D01*
X462705Y192520D02*
Y196457D01*
X463205Y192520D02*
Y196457D01*
X463705Y192520D02*
Y196457D01*
X298819Y121654D02*
X302756D01*
Y125591*
X298819*
Y121654*
X299287D02*
Y125591D01*
X299787Y121654D02*
Y125591D01*
X300287Y121654D02*
Y125591D01*
X300787Y121654D02*
Y125591D01*
X301287Y121654D02*
Y125591D01*
X301787Y121654D02*
Y125591D01*
X302287Y121654D02*
Y125591D01*
X298819Y129528D02*
X302756D01*
Y133465*
X298819*
Y129528*
X299287D02*
Y133465D01*
X299787Y129528D02*
Y133465D01*
X300287Y129528D02*
Y133465D01*
X300787Y129528D02*
Y133465D01*
X301287Y129528D02*
Y133465D01*
X301787Y129528D02*
Y133465D01*
X302287Y129528D02*
Y133465D01*
X287008D02*
X283071D01*
Y129528*
X287008*
Y133465*
X283539Y129528D02*
Y133465D01*
X284039Y129528D02*
Y133465D01*
X284539Y129528D02*
Y133465D01*
X285039Y129528D02*
Y133465D01*
X285539Y129528D02*
Y133465D01*
X286039Y129528D02*
Y133465D01*
X286539Y129528D02*
Y133465D01*
X287008Y125591D02*
X283071D01*
Y121654*
X287008*
Y125591*
X283539Y121654D02*
Y125591D01*
X284039Y121654D02*
Y125591D01*
X284539Y121654D02*
Y125591D01*
X285039Y121654D02*
Y125591D01*
X285539Y121654D02*
Y125591D01*
X286039Y121654D02*
Y125591D01*
X286539Y121654D02*
Y125591D01*
X227953Y247638D02*
X224016D01*
Y243701*
X227953*
Y247638*
X224484Y243701D02*
Y247638D01*
X224984Y243701D02*
Y247638D01*
X225484Y243701D02*
Y247638D01*
X225984Y243701D02*
Y247638D01*
X226484Y243701D02*
Y247638D01*
X226984Y243701D02*
Y247638D01*
X227484Y243701D02*
Y247638D01*
X227953Y239764D02*
X224016D01*
Y235827*
X227953*
Y239764*
X224484Y235827D02*
Y239764D01*
X224984Y235827D02*
Y239764D01*
X225484Y235827D02*
Y239764D01*
X225984Y235827D02*
Y239764D01*
X226484Y235827D02*
Y239764D01*
X226984Y235827D02*
Y239764D01*
X227484Y235827D02*
Y239764D01*
X393307Y133465D02*
Y129528D01*
X397244*
Y133465*
X393307*
X393713Y129528D02*
Y133465D01*
X394213Y129528D02*
Y133465D01*
X394713Y129528D02*
Y133465D01*
X395213Y129528D02*
Y133465D01*
X395713Y129528D02*
Y133465D01*
X396213Y129528D02*
Y133465D01*
X396713Y129528D02*
Y133465D01*
X397213Y129528D02*
Y133465D01*
X401181D02*
Y129528D01*
X405118*
Y133465*
X401181*
X401213Y129528D02*
Y133465D01*
X401713Y129528D02*
Y133465D01*
X402213Y129528D02*
Y133465D01*
X402713Y129528D02*
Y133465D01*
X403213Y129528D02*
Y133465D01*
X403713Y129528D02*
Y133465D01*
X404213Y129528D02*
Y133465D01*
X404713Y129528D02*
Y133465D01*
X294882D02*
X290945D01*
Y129528*
X294882*
Y133465*
X291413Y129528D02*
Y133465D01*
X291913Y129528D02*
Y133465D01*
X292413Y129528D02*
Y133465D01*
X292913Y129528D02*
Y133465D01*
X293413Y129528D02*
Y133465D01*
X293913Y129528D02*
Y133465D01*
X294413Y129528D02*
Y133465D01*
X294882Y125591D02*
X290945D01*
Y121654*
X294882*
Y125591*
X291413Y121654D02*
Y125591D01*
X291913Y121654D02*
Y125591D01*
X292413Y121654D02*
Y125591D01*
X292913Y121654D02*
Y125591D01*
X293413Y121654D02*
Y125591D01*
X293913Y121654D02*
Y125591D01*
X294413Y121654D02*
Y125591D01*
X393307Y141339D02*
Y137402D01*
X397244*
Y141339*
X393307*
X393713Y137402D02*
Y141339D01*
X394213Y137402D02*
Y141339D01*
X394713Y137402D02*
Y141339D01*
X395213Y137402D02*
Y141339D01*
X395713Y137402D02*
Y141339D01*
X396213Y137402D02*
Y141339D01*
X396713Y137402D02*
Y141339D01*
X397213Y137402D02*
Y141339D01*
X401181D02*
Y137402D01*
X405118*
Y141339*
X401181*
X401213Y137402D02*
Y141339D01*
X401713Y137402D02*
Y141339D01*
X402213Y137402D02*
Y141339D01*
X402713Y137402D02*
Y141339D01*
X403213Y137402D02*
Y141339D01*
X403713Y137402D02*
Y141339D01*
X404213Y137402D02*
Y141339D01*
X404713Y137402D02*
Y141339D01*
X775197Y289961D02*
Y303740D01*
X765354*
Y289961*
X775197*
X765602D02*
Y303740D01*
X766102Y289961D02*
Y303740D01*
X766602Y289961D02*
Y303740D01*
X767102Y289961D02*
Y303740D01*
X767602Y289961D02*
Y303740D01*
X768102Y289961D02*
Y303740D01*
X768602Y289961D02*
Y303740D01*
X769102Y289961D02*
Y303740D01*
X769602Y289961D02*
Y303740D01*
X770102Y289961D02*
Y303740D01*
X770602Y289961D02*
Y303740D01*
X771102Y289961D02*
Y303740D01*
X771602Y289961D02*
Y303740D01*
X772102Y289961D02*
Y303740D01*
X772602Y289961D02*
Y303740D01*
X773102Y289961D02*
Y303740D01*
X773602Y289961D02*
Y303740D01*
X774102Y289961D02*
Y303740D01*
X774602Y289961D02*
Y303740D01*
X775102Y289961D02*
Y303740D01*
X796850Y289961D02*
Y303740D01*
X787008*
Y289961*
X796850*
X787102D02*
Y303740D01*
X787602Y289961D02*
Y303740D01*
X788102Y289961D02*
Y303740D01*
X788602Y289961D02*
Y303740D01*
X789102Y289961D02*
Y303740D01*
X789602Y289961D02*
Y303740D01*
X790102Y289961D02*
Y303740D01*
X790602Y289961D02*
Y303740D01*
X791102Y289961D02*
Y303740D01*
X791602Y289961D02*
Y303740D01*
X792102Y289961D02*
Y303740D01*
X792602Y289961D02*
Y303740D01*
X793102Y289961D02*
Y303740D01*
X793602Y289961D02*
Y303740D01*
X794102Y289961D02*
Y303740D01*
X794602Y289961D02*
Y303740D01*
X795102Y289961D02*
Y303740D01*
X795602Y289961D02*
Y303740D01*
X796102Y289961D02*
Y303740D01*
X796602Y289961D02*
Y303740D01*
X735827Y271260D02*
X731890D01*
Y267323*
X735827*
Y271260*
X732358Y267323D02*
Y271260D01*
X732858Y267323D02*
Y271260D01*
X733358Y267323D02*
Y271260D01*
X733858Y267323D02*
Y271260D01*
X734358Y267323D02*
Y271260D01*
X734858Y267323D02*
Y271260D01*
X735358Y267323D02*
Y271260D01*
X735827Y263386D02*
X731890D01*
Y259449*
X735827*
Y263386*
X732358Y259449D02*
Y263386D01*
X732858Y259449D02*
Y263386D01*
X733358Y259449D02*
Y263386D01*
X733858Y259449D02*
Y263386D01*
X734358Y259449D02*
Y263386D01*
X734858Y259449D02*
Y263386D01*
X735358Y259449D02*
Y263386D01*
X716142Y290945D02*
X720079D01*
Y294882*
X716142*
Y290945*
X716610D02*
Y294882D01*
X717110Y290945D02*
Y294882D01*
X717610Y290945D02*
Y294882D01*
X718110Y290945D02*
Y294882D01*
X718610Y290945D02*
Y294882D01*
X719110Y290945D02*
Y294882D01*
X719610Y290945D02*
Y294882D01*
X716142Y298819D02*
X720079D01*
Y302756*
X716142*
Y298819*
X716610D02*
Y302756D01*
X717110Y298819D02*
Y302756D01*
X717610Y298819D02*
Y302756D01*
X718110Y298819D02*
Y302756D01*
X718610Y298819D02*
Y302756D01*
X719110Y298819D02*
Y302756D01*
X719610Y298819D02*
Y302756D01*
X727953Y271260D02*
X724016D01*
Y267323*
X727953*
Y271260*
X724484Y267323D02*
Y271260D01*
X724984Y267323D02*
Y271260D01*
X725484Y267323D02*
Y271260D01*
X725984Y267323D02*
Y271260D01*
X726484Y267323D02*
Y271260D01*
X726984Y267323D02*
Y271260D01*
X727484Y267323D02*
Y271260D01*
X727953Y263386D02*
X724016D01*
Y259449*
X727953*
Y263386*
X724484Y259449D02*
Y263386D01*
X724984Y259449D02*
Y263386D01*
X725484Y259449D02*
Y263386D01*
X725984Y259449D02*
Y263386D01*
X726484Y259449D02*
Y263386D01*
X726984Y259449D02*
Y263386D01*
X727484Y259449D02*
Y263386D01*
X936614Y271260D02*
Y275197D01*
X932677*
Y271260*
X936614*
X932709D02*
Y275197D01*
X933209Y271260D02*
Y275197D01*
X933709Y271260D02*
Y275197D01*
X934209Y271260D02*
Y275197D01*
X934709Y271260D02*
Y275197D01*
X935209Y271260D02*
Y275197D01*
X935709Y271260D02*
Y275197D01*
X936209Y271260D02*
Y275197D01*
X928740Y271260D02*
Y275197D01*
X924803*
Y271260*
X928740*
X925209D02*
Y275197D01*
X925709Y271260D02*
Y275197D01*
X926209Y271260D02*
Y275197D01*
X926709Y271260D02*
Y275197D01*
X927209Y271260D02*
Y275197D01*
X927709Y271260D02*
Y275197D01*
X928209Y271260D02*
Y275197D01*
X928709Y271260D02*
Y275197D01*
X936614Y302756D02*
Y306693D01*
X932677*
Y302756*
X936614*
X932709D02*
Y306693D01*
X933209Y302756D02*
Y306693D01*
X933709Y302756D02*
Y306693D01*
X934209Y302756D02*
Y306693D01*
X934709Y302756D02*
Y306693D01*
X935209Y302756D02*
Y306693D01*
X935709Y302756D02*
Y306693D01*
X936209Y302756D02*
Y306693D01*
X928740Y302756D02*
Y306693D01*
X924803*
Y302756*
X928740*
X925209D02*
Y306693D01*
X925709Y302756D02*
Y306693D01*
X926209Y302756D02*
Y306693D01*
X926709Y302756D02*
Y306693D01*
X927209Y302756D02*
Y306693D01*
X927709Y302756D02*
Y306693D01*
X928209Y302756D02*
Y306693D01*
X928709Y302756D02*
Y306693D01*
X936614Y334252D02*
Y338189D01*
X932677*
Y334252*
X936614*
X932709D02*
Y338189D01*
X933209Y334252D02*
Y338189D01*
X933709Y334252D02*
Y338189D01*
X934209Y334252D02*
Y338189D01*
X934709Y334252D02*
Y338189D01*
X935209Y334252D02*
Y338189D01*
X935709Y334252D02*
Y338189D01*
X936209Y334252D02*
Y338189D01*
X928740Y334252D02*
Y338189D01*
X924803*
Y334252*
X928740*
X925209D02*
Y338189D01*
X925709Y334252D02*
Y338189D01*
X926209Y334252D02*
Y338189D01*
X926709Y334252D02*
Y338189D01*
X927209Y334252D02*
Y338189D01*
X927709Y334252D02*
Y338189D01*
X928209Y334252D02*
Y338189D01*
X928709Y334252D02*
Y338189D01*
X428740Y153150D02*
Y157087D01*
X424803*
Y153150*
X428740*
X424835D02*
Y157087D01*
X425335Y153150D02*
Y157087D01*
X425835Y153150D02*
Y157087D01*
X426335Y153150D02*
Y157087D01*
X426835Y153150D02*
Y157087D01*
X427335Y153150D02*
Y157087D01*
X427835Y153150D02*
Y157087D01*
X428335Y153150D02*
Y157087D01*
X420866Y153150D02*
Y157087D01*
X416929*
Y153150*
X420866*
X417335D02*
Y157087D01*
X417835Y153150D02*
Y157087D01*
X418335Y153150D02*
Y157087D01*
X418835Y153150D02*
Y157087D01*
X419335Y153150D02*
Y157087D01*
X419835Y153150D02*
Y157087D01*
X420335Y153150D02*
Y157087D01*
X420835Y153150D02*
Y157087D01*
X936614Y365748D02*
Y369685D01*
X932677*
Y365748*
X936614*
X932709D02*
Y369685D01*
X933209Y365748D02*
Y369685D01*
X933709Y365748D02*
Y369685D01*
X934209Y365748D02*
Y369685D01*
X934709Y365748D02*
Y369685D01*
X935209Y365748D02*
Y369685D01*
X935709Y365748D02*
Y369685D01*
X936209Y365748D02*
Y369685D01*
X928740Y365748D02*
Y369685D01*
X924803*
Y365748*
X928740*
X925209D02*
Y369685D01*
X925709Y365748D02*
Y369685D01*
X926209Y365748D02*
Y369685D01*
X926709Y365748D02*
Y369685D01*
X927209Y365748D02*
Y369685D01*
X927709Y365748D02*
Y369685D01*
X928209Y365748D02*
Y369685D01*
X928709Y365748D02*
Y369685D01*
X897244D02*
Y365748D01*
X901181*
Y369685*
X897244*
X897650Y365748D02*
Y369685D01*
X898150Y365748D02*
Y369685D01*
X898650Y365748D02*
Y369685D01*
X899150Y365748D02*
Y369685D01*
X899650Y365748D02*
Y369685D01*
X900150Y365748D02*
Y369685D01*
X900650Y365748D02*
Y369685D01*
X901150Y365748D02*
Y369685D01*
X905118D02*
Y365748D01*
X909055*
Y369685*
X905118*
X905150Y365748D02*
Y369685D01*
X905650Y365748D02*
Y369685D01*
X906150Y365748D02*
Y369685D01*
X906650Y365748D02*
Y369685D01*
X907150Y365748D02*
Y369685D01*
X907650Y365748D02*
Y369685D01*
X908150Y365748D02*
Y369685D01*
X908650Y365748D02*
Y369685D01*
X897244Y338189D02*
Y334252D01*
X901181*
Y338189*
X897244*
X897650Y334252D02*
Y338189D01*
X898150Y334252D02*
Y338189D01*
X898650Y334252D02*
Y338189D01*
X899150Y334252D02*
Y338189D01*
X899650Y334252D02*
Y338189D01*
X900150Y334252D02*
Y338189D01*
X900650Y334252D02*
Y338189D01*
X901150Y334252D02*
Y338189D01*
X905118D02*
Y334252D01*
X909055*
Y338189*
X905118*
X905150Y334252D02*
Y338189D01*
X905650Y334252D02*
Y338189D01*
X906150Y334252D02*
Y338189D01*
X906650Y334252D02*
Y338189D01*
X907150Y334252D02*
Y338189D01*
X907650Y334252D02*
Y338189D01*
X908150Y334252D02*
Y338189D01*
X908650Y334252D02*
Y338189D01*
X897244Y306693D02*
Y302756D01*
X901181*
Y306693*
X897244*
X897650Y302756D02*
Y306693D01*
X898150Y302756D02*
Y306693D01*
X898650Y302756D02*
Y306693D01*
X899150Y302756D02*
Y306693D01*
X899650Y302756D02*
Y306693D01*
X900150Y302756D02*
Y306693D01*
X900650Y302756D02*
Y306693D01*
X901150Y302756D02*
Y306693D01*
X905118D02*
Y302756D01*
X909055*
Y306693*
X905118*
X905150Y302756D02*
Y306693D01*
X905650Y302756D02*
Y306693D01*
X906150Y302756D02*
Y306693D01*
X906650Y302756D02*
Y306693D01*
X907150Y302756D02*
Y306693D01*
X907650Y302756D02*
Y306693D01*
X908150Y302756D02*
Y306693D01*
X908650Y302756D02*
Y306693D01*
X897244Y275197D02*
Y271260D01*
X901181*
Y275197*
X897244*
X897650Y271260D02*
Y275197D01*
X898150Y271260D02*
Y275197D01*
X898650Y271260D02*
Y275197D01*
X899150Y271260D02*
Y275197D01*
X899650Y271260D02*
Y275197D01*
X900150Y271260D02*
Y275197D01*
X900650Y271260D02*
Y275197D01*
X901150Y271260D02*
Y275197D01*
X905118D02*
Y271260D01*
X909055*
Y275197*
X905118*
X905150Y271260D02*
Y275197D01*
X905650Y271260D02*
Y275197D01*
X906150Y271260D02*
Y275197D01*
X906650Y271260D02*
Y275197D01*
X907150Y271260D02*
Y275197D01*
X907650Y271260D02*
Y275197D01*
X908150Y271260D02*
Y275197D01*
X908650Y271260D02*
Y275197D01*
X897244Y243701D02*
Y239764D01*
X901181*
Y243701*
X897244*
X897650Y239764D02*
Y243701D01*
X898150Y239764D02*
Y243701D01*
X898650Y239764D02*
Y243701D01*
X899150Y239764D02*
Y243701D01*
X899650Y239764D02*
Y243701D01*
X900150Y239764D02*
Y243701D01*
X900650Y239764D02*
Y243701D01*
X901150Y239764D02*
Y243701D01*
X905118D02*
Y239764D01*
X909055*
Y243701*
X905118*
X905150Y239764D02*
Y243701D01*
X905650Y239764D02*
Y243701D01*
X906150Y239764D02*
Y243701D01*
X906650Y239764D02*
Y243701D01*
X907150Y239764D02*
Y243701D01*
X907650Y239764D02*
Y243701D01*
X908150Y239764D02*
Y243701D01*
X908650Y239764D02*
Y243701D01*
X897244Y212205D02*
Y208268D01*
X901181*
Y212205*
X897244*
X897650Y208268D02*
Y212205D01*
X898150Y208268D02*
Y212205D01*
X898650Y208268D02*
Y212205D01*
X899150Y208268D02*
Y212205D01*
X899650Y208268D02*
Y212205D01*
X900150Y208268D02*
Y212205D01*
X900650Y208268D02*
Y212205D01*
X901150Y208268D02*
Y212205D01*
X905118D02*
Y208268D01*
X909055*
Y212205*
X905118*
X905150Y208268D02*
Y212205D01*
X905650Y208268D02*
Y212205D01*
X906150Y208268D02*
Y212205D01*
X906650Y208268D02*
Y212205D01*
X907150Y208268D02*
Y212205D01*
X907650Y208268D02*
Y212205D01*
X908150Y208268D02*
Y212205D01*
X908650Y208268D02*
Y212205D01*
X897244Y180709D02*
Y176772D01*
X901181*
Y180709*
X897244*
X897650Y176772D02*
Y180709D01*
X898150Y176772D02*
Y180709D01*
X898650Y176772D02*
Y180709D01*
X899150Y176772D02*
Y180709D01*
X899650Y176772D02*
Y180709D01*
X900150Y176772D02*
Y180709D01*
X900650Y176772D02*
Y180709D01*
X901150Y176772D02*
Y180709D01*
X905118D02*
Y176772D01*
X909055*
Y180709*
X905118*
X905150Y176772D02*
Y180709D01*
X905650Y176772D02*
Y180709D01*
X906150Y176772D02*
Y180709D01*
X906650Y176772D02*
Y180709D01*
X907150Y176772D02*
Y180709D01*
X907650Y176772D02*
Y180709D01*
X908150Y176772D02*
Y180709D01*
X908650Y176772D02*
Y180709D01*
X897244Y149213D02*
Y145276D01*
X901181*
Y149213*
X897244*
X897650Y145276D02*
Y149213D01*
X898150Y145276D02*
Y149213D01*
X898650Y145276D02*
Y149213D01*
X899150Y145276D02*
Y149213D01*
X899650Y145276D02*
Y149213D01*
X900150Y145276D02*
Y149213D01*
X900650Y145276D02*
Y149213D01*
X901150Y145276D02*
Y149213D01*
X905118D02*
Y145276D01*
X909055*
Y149213*
X905118*
X905150Y145276D02*
Y149213D01*
X905650Y145276D02*
Y149213D01*
X906150Y145276D02*
Y149213D01*
X906650Y145276D02*
Y149213D01*
X907150Y145276D02*
Y149213D01*
X907650Y145276D02*
Y149213D01*
X908150Y145276D02*
Y149213D01*
X908650Y145276D02*
Y149213D01*
X802756Y163976D02*
Y177756D01*
X792913*
Y163976*
X802756*
X793161D02*
Y177756D01*
X793661Y163976D02*
Y177756D01*
X794161Y163976D02*
Y177756D01*
X794661Y163976D02*
Y177756D01*
X795161Y163976D02*
Y177756D01*
X795661Y163976D02*
Y177756D01*
X796161Y163976D02*
Y177756D01*
X796661Y163976D02*
Y177756D01*
X797161Y163976D02*
Y177756D01*
X797661Y163976D02*
Y177756D01*
X798161Y163976D02*
Y177756D01*
X798661Y163976D02*
Y177756D01*
X799161Y163976D02*
Y177756D01*
X799661Y163976D02*
Y177756D01*
X800161Y163976D02*
Y177756D01*
X800661Y163976D02*
Y177756D01*
X801161Y163976D02*
Y177756D01*
X801661Y163976D02*
Y177756D01*
X802161Y163976D02*
Y177756D01*
X802661Y163976D02*
Y177756D01*
X824409Y163976D02*
Y177756D01*
X814567*
Y163976*
X824409*
X814661D02*
Y177756D01*
X815161Y163976D02*
Y177756D01*
X815661Y163976D02*
Y177756D01*
X816161Y163976D02*
Y177756D01*
X816661Y163976D02*
Y177756D01*
X817161Y163976D02*
Y177756D01*
X817661Y163976D02*
Y177756D01*
X818161Y163976D02*
Y177756D01*
X818661Y163976D02*
Y177756D01*
X819161Y163976D02*
Y177756D01*
X819661Y163976D02*
Y177756D01*
X820161Y163976D02*
Y177756D01*
X820661Y163976D02*
Y177756D01*
X821161Y163976D02*
Y177756D01*
X821661Y163976D02*
Y177756D01*
X822161Y163976D02*
Y177756D01*
X822661Y163976D02*
Y177756D01*
X823161Y163976D02*
Y177756D01*
X823661Y163976D02*
Y177756D01*
X824161Y163976D02*
Y177756D01*
X428740Y145276D02*
Y149213D01*
X424803*
Y145276*
X428740*
X424835D02*
Y149213D01*
X425335Y145276D02*
Y149213D01*
X425835Y145276D02*
Y149213D01*
X426335Y145276D02*
Y149213D01*
X426835Y145276D02*
Y149213D01*
X427335Y145276D02*
Y149213D01*
X427835Y145276D02*
Y149213D01*
X428335Y145276D02*
Y149213D01*
X420866Y145276D02*
Y149213D01*
X416929*
Y145276*
X420866*
X417335D02*
Y149213D01*
X417835Y145276D02*
Y149213D01*
X418335Y145276D02*
Y149213D01*
X418835Y145276D02*
Y149213D01*
X419335Y145276D02*
Y149213D01*
X419835Y145276D02*
Y149213D01*
X420335Y145276D02*
Y149213D01*
X420835Y145276D02*
Y149213D01*
X759449Y145276D02*
X755512D01*
Y141339*
X759449*
Y145276*
X755980Y141339D02*
Y145276D01*
X756480Y141339D02*
Y145276D01*
X756980Y141339D02*
Y145276D01*
X757480Y141339D02*
Y145276D01*
X757980Y141339D02*
Y145276D01*
X758480Y141339D02*
Y145276D01*
X758980Y141339D02*
Y145276D01*
X759449Y137402D02*
X755512D01*
Y133465*
X759449*
Y137402*
X755980Y133465D02*
Y137402D01*
X756480Y133465D02*
Y137402D01*
X756980Y133465D02*
Y137402D01*
X757480Y133465D02*
Y137402D01*
X757980Y133465D02*
Y137402D01*
X758480Y133465D02*
Y137402D01*
X758980Y133465D02*
Y137402D01*
X739764Y164961D02*
X743701D01*
Y168898*
X739764*
Y164961*
X740232D02*
Y168898D01*
X740732Y164961D02*
Y168898D01*
X741232Y164961D02*
Y168898D01*
X741732Y164961D02*
Y168898D01*
X742232Y164961D02*
Y168898D01*
X742732Y164961D02*
Y168898D01*
X743232Y164961D02*
Y168898D01*
X739764Y172835D02*
X743701D01*
Y176772*
X739764*
Y172835*
X740232D02*
Y176772D01*
X740732Y172835D02*
Y176772D01*
X741232Y172835D02*
Y176772D01*
X741732Y172835D02*
Y176772D01*
X742232Y172835D02*
Y176772D01*
X742732Y172835D02*
Y176772D01*
X743232Y172835D02*
Y176772D01*
X664961Y184646D02*
Y180709D01*
X668898*
Y184646*
X664961*
X665366Y180709D02*
Y184646D01*
X665866Y180709D02*
Y184646D01*
X666366Y180709D02*
Y184646D01*
X666866Y180709D02*
Y184646D01*
X667366Y180709D02*
Y184646D01*
X667866Y180709D02*
Y184646D01*
X668366Y180709D02*
Y184646D01*
X668866Y180709D02*
Y184646D01*
X672835D02*
Y180709D01*
X676772*
Y184646*
X672835*
X672866Y180709D02*
Y184646D01*
X673366Y180709D02*
Y184646D01*
X673866Y180709D02*
Y184646D01*
X674366Y180709D02*
Y184646D01*
X674866Y180709D02*
Y184646D01*
X675366Y180709D02*
Y184646D01*
X675866Y180709D02*
Y184646D01*
X676366Y180709D02*
Y184646D01*
X751575Y145276D02*
X747638D01*
Y141339*
X751575*
Y145276*
X748106Y141339D02*
Y145276D01*
X748606Y141339D02*
Y145276D01*
X749106Y141339D02*
Y145276D01*
X749606Y141339D02*
Y145276D01*
X750106Y141339D02*
Y145276D01*
X750606Y141339D02*
Y145276D01*
X751106Y141339D02*
Y145276D01*
X751575Y137402D02*
X747638D01*
Y133465*
X751575*
Y137402*
X748106Y133465D02*
Y137402D01*
X748606Y133465D02*
Y137402D01*
X749106Y133465D02*
Y137402D01*
X749606Y133465D02*
Y137402D01*
X750106Y133465D02*
Y137402D01*
X750606Y133465D02*
Y137402D01*
X751106Y133465D02*
Y137402D01*
X172835Y247638D02*
X168898D01*
Y243701*
X172835*
Y247638*
X169366Y243701D02*
Y247638D01*
X169866Y243701D02*
Y247638D01*
X170366Y243701D02*
Y247638D01*
X170866Y243701D02*
Y247638D01*
X171366Y243701D02*
Y247638D01*
X171866Y243701D02*
Y247638D01*
X172366Y243701D02*
Y247638D01*
X172835Y239764D02*
X168898D01*
Y235827*
X172835*
Y239764*
X169366Y235827D02*
Y239764D01*
X169866Y235827D02*
Y239764D01*
X170366Y235827D02*
Y239764D01*
X170866Y235827D02*
Y239764D01*
X171366Y235827D02*
Y239764D01*
X171866Y235827D02*
Y239764D01*
X172366Y235827D02*
Y239764D01*
X440551Y288976D02*
X448425D01*
Y295866*
X440551*
Y288976*
X440988D02*
Y295866D01*
X441488Y288976D02*
Y295866D01*
X441988Y288976D02*
Y295866D01*
X442488Y288976D02*
Y295866D01*
X442988Y288976D02*
Y295866D01*
X443488Y288976D02*
Y295866D01*
X443988Y288976D02*
Y295866D01*
X444488Y288976D02*
Y295866D01*
X444988Y288976D02*
Y295866D01*
X445488Y288976D02*
Y295866D01*
X445988Y288976D02*
Y295866D01*
X446488Y288976D02*
Y295866D01*
X446988Y288976D02*
Y295866D01*
X447488Y288976D02*
Y295866D01*
X447988Y288976D02*
Y295866D01*
X440551Y312598D02*
Y305709D01*
X448425*
Y312598*
X440551*
X440988Y305709D02*
Y312598D01*
X441488Y305709D02*
Y312598D01*
X441988Y305709D02*
Y312598D01*
X442488Y305709D02*
Y312598D01*
X442988Y305709D02*
Y312598D01*
X443488Y305709D02*
Y312598D01*
X443988Y305709D02*
Y312598D01*
X444488Y305709D02*
Y312598D01*
X444988Y305709D02*
Y312598D01*
X445488Y305709D02*
Y312598D01*
X445988Y305709D02*
Y312598D01*
X446488Y305709D02*
Y312598D01*
X446988Y305709D02*
Y312598D01*
X447488Y305709D02*
Y312598D01*
X447988Y305709D02*
Y312598D01*
X503543Y288976D02*
X511417D01*
Y295866*
X503543*
Y288976*
X503980D02*
Y295866D01*
X504480Y288976D02*
Y295866D01*
X504980Y288976D02*
Y295866D01*
X505480Y288976D02*
Y295866D01*
X505980Y288976D02*
Y295866D01*
X506480Y288976D02*
Y295866D01*
X506980Y288976D02*
Y295866D01*
X507480Y288976D02*
Y295866D01*
X507980Y288976D02*
Y295866D01*
X508480Y288976D02*
Y295866D01*
X508980Y288976D02*
Y295866D01*
X509480Y288976D02*
Y295866D01*
X509980Y288976D02*
Y295866D01*
X510480Y288976D02*
Y295866D01*
X510980Y288976D02*
Y295866D01*
X503543Y312598D02*
Y305709D01*
X511417*
Y312598*
X503543*
X503980Y305709D02*
Y312598D01*
X504480Y305709D02*
Y312598D01*
X504980Y305709D02*
Y312598D01*
X505480Y305709D02*
Y312598D01*
X505980Y305709D02*
Y312598D01*
X506480Y305709D02*
Y312598D01*
X506980Y305709D02*
Y312598D01*
X507480Y305709D02*
Y312598D01*
X507980Y305709D02*
Y312598D01*
X508480Y305709D02*
Y312598D01*
X508980Y305709D02*
Y312598D01*
X509480Y305709D02*
Y312598D01*
X509980Y305709D02*
Y312598D01*
X510480Y305709D02*
Y312598D01*
X510980Y305709D02*
Y312598D01*
X566535Y288976D02*
X574409D01*
Y295866*
X566535*
Y288976*
X566972D02*
Y295866D01*
X567472Y288976D02*
Y295866D01*
X567972Y288976D02*
Y295866D01*
X568472Y288976D02*
Y295866D01*
X568972Y288976D02*
Y295866D01*
X569472Y288976D02*
Y295866D01*
X569972Y288976D02*
Y295866D01*
X570472Y288976D02*
Y295866D01*
X570972Y288976D02*
Y295866D01*
X571472Y288976D02*
Y295866D01*
X571972Y288976D02*
Y295866D01*
X572472Y288976D02*
Y295866D01*
X572972Y288976D02*
Y295866D01*
X573472Y288976D02*
Y295866D01*
X573972Y288976D02*
Y295866D01*
X566535Y312598D02*
Y305709D01*
X574409*
Y312598*
X566535*
X566972Y305709D02*
Y312598D01*
X567472Y305709D02*
Y312598D01*
X567972Y305709D02*
Y312598D01*
X568472Y305709D02*
Y312598D01*
X568972Y305709D02*
Y312598D01*
X569472Y305709D02*
Y312598D01*
X569972Y305709D02*
Y312598D01*
X570472Y305709D02*
Y312598D01*
X570972Y305709D02*
Y312598D01*
X571472Y305709D02*
Y312598D01*
X571972Y305709D02*
Y312598D01*
X572472Y305709D02*
Y312598D01*
X572972Y305709D02*
Y312598D01*
X573472Y305709D02*
Y312598D01*
X573972Y305709D02*
Y312598D01*
X629528Y288976D02*
X637402D01*
Y295866*
X629528*
Y288976*
X629965D02*
Y295866D01*
X630465Y288976D02*
Y295866D01*
X630965Y288976D02*
Y295866D01*
X631465Y288976D02*
Y295866D01*
X631965Y288976D02*
Y295866D01*
X632465Y288976D02*
Y295866D01*
X632965Y288976D02*
Y295866D01*
X633465Y288976D02*
Y295866D01*
X633965Y288976D02*
Y295866D01*
X634465Y288976D02*
Y295866D01*
X634965Y288976D02*
Y295866D01*
X635465Y288976D02*
Y295866D01*
X635965Y288976D02*
Y295866D01*
X636465Y288976D02*
Y295866D01*
X636965Y288976D02*
Y295866D01*
X629528Y312598D02*
Y305709D01*
X637402*
Y312598*
X629528*
X629965Y305709D02*
Y312598D01*
X630465Y305709D02*
Y312598D01*
X630965Y305709D02*
Y312598D01*
X631465Y305709D02*
Y312598D01*
X631965Y305709D02*
Y312598D01*
X632465Y305709D02*
Y312598D01*
X632965Y305709D02*
Y312598D01*
X633465Y305709D02*
Y312598D01*
X633965Y305709D02*
Y312598D01*
X634465Y305709D02*
Y312598D01*
X634965Y305709D02*
Y312598D01*
X635465Y305709D02*
Y312598D01*
X635965Y305709D02*
Y312598D01*
X636465Y305709D02*
Y312598D01*
X636965Y305709D02*
Y312598D01*
X188583Y288976D02*
X196457D01*
Y295866*
X188583*
Y288976*
X189020D02*
Y295866D01*
X189520Y288976D02*
Y295866D01*
X190020Y288976D02*
Y295866D01*
X190520Y288976D02*
Y295866D01*
X191020Y288976D02*
Y295866D01*
X191520Y288976D02*
Y295866D01*
X192020Y288976D02*
Y295866D01*
X192520Y288976D02*
Y295866D01*
X193020Y288976D02*
Y295866D01*
X193520Y288976D02*
Y295866D01*
X194020Y288976D02*
Y295866D01*
X194520Y288976D02*
Y295866D01*
X195020Y288976D02*
Y295866D01*
X195520Y288976D02*
Y295866D01*
X196020Y288976D02*
Y295866D01*
X188583Y312598D02*
Y305709D01*
X196457*
Y312598*
X188583*
X189020Y305709D02*
Y312598D01*
X189520Y305709D02*
Y312598D01*
X190020Y305709D02*
Y312598D01*
X190520Y305709D02*
Y312598D01*
X191020Y305709D02*
Y312598D01*
X191520Y305709D02*
Y312598D01*
X192020Y305709D02*
Y312598D01*
X192520Y305709D02*
Y312598D01*
X193020Y305709D02*
Y312598D01*
X193520Y305709D02*
Y312598D01*
X194020Y305709D02*
Y312598D01*
X194520Y305709D02*
Y312598D01*
X195020Y305709D02*
Y312598D01*
X195520Y305709D02*
Y312598D01*
X196020Y305709D02*
Y312598D01*
X251575Y288976D02*
X259449D01*
Y295866*
X251575*
Y288976*
X252012D02*
Y295866D01*
X252512Y288976D02*
Y295866D01*
X253012Y288976D02*
Y295866D01*
X253512Y288976D02*
Y295866D01*
X254012Y288976D02*
Y295866D01*
X254512Y288976D02*
Y295866D01*
X255012Y288976D02*
Y295866D01*
X255512Y288976D02*
Y295866D01*
X256012Y288976D02*
Y295866D01*
X256512Y288976D02*
Y295866D01*
X257012Y288976D02*
Y295866D01*
X257512Y288976D02*
Y295866D01*
X258012Y288976D02*
Y295866D01*
X258512Y288976D02*
Y295866D01*
X259012Y288976D02*
Y295866D01*
X251575Y312598D02*
Y305709D01*
X259449*
Y312598*
X251575*
X252012Y305709D02*
Y312598D01*
X252512Y305709D02*
Y312598D01*
X253012Y305709D02*
Y312598D01*
X253512Y305709D02*
Y312598D01*
X254012Y305709D02*
Y312598D01*
X254512Y305709D02*
Y312598D01*
X255012Y305709D02*
Y312598D01*
X255512Y305709D02*
Y312598D01*
X256012Y305709D02*
Y312598D01*
X256512Y305709D02*
Y312598D01*
X257012Y305709D02*
Y312598D01*
X257512Y305709D02*
Y312598D01*
X258012Y305709D02*
Y312598D01*
X258512Y305709D02*
Y312598D01*
X259012Y305709D02*
Y312598D01*
X314567Y288976D02*
X322441D01*
Y295866*
X314567*
Y288976*
X315004D02*
Y295866D01*
X315504Y288976D02*
Y295866D01*
X316004Y288976D02*
Y295866D01*
X316504Y288976D02*
Y295866D01*
X317004Y288976D02*
Y295866D01*
X317504Y288976D02*
Y295866D01*
X318004Y288976D02*
Y295866D01*
X318504Y288976D02*
Y295866D01*
X319004Y288976D02*
Y295866D01*
X319504Y288976D02*
Y295866D01*
X320004Y288976D02*
Y295866D01*
X320504Y288976D02*
Y295866D01*
X321004Y288976D02*
Y295866D01*
X321504Y288976D02*
Y295866D01*
X322004Y288976D02*
Y295866D01*
X314567Y312598D02*
Y305709D01*
X322441*
Y312598*
X314567*
X315004Y305709D02*
Y312598D01*
X315504Y305709D02*
Y312598D01*
X316004Y305709D02*
Y312598D01*
X316504Y305709D02*
Y312598D01*
X317004Y305709D02*
Y312598D01*
X317504Y305709D02*
Y312598D01*
X318004Y305709D02*
Y312598D01*
X318504Y305709D02*
Y312598D01*
X319004Y305709D02*
Y312598D01*
X319504Y305709D02*
Y312598D01*
X320004Y305709D02*
Y312598D01*
X320504Y305709D02*
Y312598D01*
X321004Y305709D02*
Y312598D01*
X321504Y305709D02*
Y312598D01*
X322004Y305709D02*
Y312598D01*
X377559Y288976D02*
X385433D01*
Y295866*
X377559*
Y288976*
X377996D02*
Y295866D01*
X378496Y288976D02*
Y295866D01*
X378996Y288976D02*
Y295866D01*
X379496Y288976D02*
Y295866D01*
X379996Y288976D02*
Y295866D01*
X380496Y288976D02*
Y295866D01*
X380996Y288976D02*
Y295866D01*
X381496Y288976D02*
Y295866D01*
X381996Y288976D02*
Y295866D01*
X382496Y288976D02*
Y295866D01*
X382996Y288976D02*
Y295866D01*
X383496Y288976D02*
Y295866D01*
X383996Y288976D02*
Y295866D01*
X384496Y288976D02*
Y295866D01*
X384996Y288976D02*
Y295866D01*
X377559Y312598D02*
Y305709D01*
X385433*
Y312598*
X377559*
X377996Y305709D02*
Y312598D01*
X378496Y305709D02*
Y312598D01*
X378996Y305709D02*
Y312598D01*
X379496Y305709D02*
Y312598D01*
X379996Y305709D02*
Y312598D01*
X380496Y305709D02*
Y312598D01*
X380996Y305709D02*
Y312598D01*
X381496Y305709D02*
Y312598D01*
X381996Y305709D02*
Y312598D01*
X382496Y305709D02*
Y312598D01*
X382996Y305709D02*
Y312598D01*
X383496Y305709D02*
Y312598D01*
X383996Y305709D02*
Y312598D01*
X384496Y305709D02*
Y312598D01*
X384996Y305709D02*
Y312598D01*
X451378Y170398D02*
Y167398D01*
X453331*
Y170398*
X451378*
X451831Y167398D02*
Y170398D01*
X452331Y167398D02*
Y170398D01*
X452831Y167398D02*
Y170398D01*
X457283D02*
X455331D01*
Y167398*
X457283*
Y170398*
X455331Y167398D02*
Y170398D01*
X455831Y167398D02*
Y170398D01*
X456331Y167398D02*
Y170398D01*
X456831Y167398D02*
Y170398D01*
X441535Y167398D02*
Y170398D01*
X439583*
Y167398*
X441535*
X439583D02*
Y170398D01*
X440083Y167398D02*
Y170398D01*
X440583Y167398D02*
Y170398D01*
X441083Y167398D02*
Y170398D01*
X435630Y167398D02*
X437583D01*
Y170398*
X435630*
Y167398*
X436083D02*
Y170398D01*
X436583Y167398D02*
Y170398D01*
X437083Y167398D02*
Y170398D01*
X830783Y321457D02*
X833783D01*
Y323409*
X830783*
Y321457*
Y323409*
X831283Y321457D02*
Y323409D01*
X831783Y321457D02*
Y323409D01*
X832283Y321457D02*
Y323409D01*
X832783Y321457D02*
Y323409D01*
X833283Y321457D02*
Y323409D01*
X830783Y327362D02*
Y325409D01*
X833783*
Y327362*
X830783*
Y325409D02*
Y327362D01*
X831283Y325409D02*
Y327362D01*
X831783Y325409D02*
Y327362D01*
X832283Y325409D02*
Y327362D01*
X832783Y325409D02*
Y327362D01*
X833283Y325409D02*
Y327362D01*
X338189Y121654D02*
X332283D01*
Y117717*
X338189*
Y121654*
X332346Y117717D02*
Y121654D01*
X332846Y117717D02*
Y121654D01*
X333346Y117717D02*
Y121654D01*
X333846Y117717D02*
Y121654D01*
X334346Y117717D02*
Y121654D01*
X334846Y117717D02*
Y121654D01*
X335346Y117717D02*
Y121654D01*
X335846Y117717D02*
Y121654D01*
X336346Y117717D02*
Y121654D01*
X336846Y117717D02*
Y121654D01*
X337346Y117717D02*
Y121654D01*
X337846Y117717D02*
Y121654D01*
X318504D02*
Y117717D01*
X324409*
Y121654*
X318504*
X318846Y117717D02*
Y121654D01*
X319346Y117717D02*
Y121654D01*
X319846Y117717D02*
Y121654D01*
X320346Y117717D02*
Y121654D01*
X320846Y117717D02*
Y121654D01*
X321346Y117717D02*
Y121654D01*
X321846Y117717D02*
Y121654D01*
X322346Y117717D02*
Y121654D01*
X322846Y117717D02*
Y121654D01*
X323346Y117717D02*
Y121654D01*
X323846Y117717D02*
Y121654D01*
X324346Y117717D02*
Y121654D01*
X275197D02*
X269291D01*
Y117717*
X275197*
Y121654*
X269354Y117717D02*
Y121654D01*
X269854Y117717D02*
Y121654D01*
X270354Y117717D02*
Y121654D01*
X270854Y117717D02*
Y121654D01*
X271354Y117717D02*
Y121654D01*
X271854Y117717D02*
Y121654D01*
X272354Y117717D02*
Y121654D01*
X272854Y117717D02*
Y121654D01*
X273354Y117717D02*
Y121654D01*
X273854Y117717D02*
Y121654D01*
X274354Y117717D02*
Y121654D01*
X274854Y117717D02*
Y121654D01*
X255512D02*
Y117717D01*
X261417*
Y121654*
X255512*
X255854Y117717D02*
Y121654D01*
X256354Y117717D02*
Y121654D01*
X256854Y117717D02*
Y121654D01*
X257354Y117717D02*
Y121654D01*
X257854Y117717D02*
Y121654D01*
X258354Y117717D02*
Y121654D01*
X258854Y117717D02*
Y121654D01*
X259354Y117717D02*
Y121654D01*
X259854Y117717D02*
Y121654D01*
X260354Y117717D02*
Y121654D01*
X260854Y117717D02*
Y121654D01*
X261354Y117717D02*
Y121654D01*
X692520Y365748D02*
Y369685D01*
X684646*
Y365748*
X692520*
X684740D02*
Y369685D01*
X685240Y365748D02*
Y369685D01*
X685740Y365748D02*
Y369685D01*
X686240Y365748D02*
Y369685D01*
X686740Y365748D02*
Y369685D01*
X687240Y365748D02*
Y369685D01*
X687740Y365748D02*
Y369685D01*
X688240Y365748D02*
Y369685D01*
X688740Y365748D02*
Y369685D01*
X689240Y365748D02*
Y369685D01*
X689740Y365748D02*
Y369685D01*
X690240Y365748D02*
Y369685D01*
X690740Y365748D02*
Y369685D01*
X691240Y365748D02*
Y369685D01*
X691740Y365748D02*
Y369685D01*
X692240Y365748D02*
Y369685D01*
X664961Y365748D02*
X672835D01*
Y369685*
X664961*
Y365748*
X665240D02*
Y369685D01*
X665740Y365748D02*
Y369685D01*
X666240Y365748D02*
Y369685D01*
X666740Y365748D02*
Y369685D01*
X667240Y365748D02*
Y369685D01*
X667740Y365748D02*
Y369685D01*
X668240Y365748D02*
Y369685D01*
X668740Y365748D02*
Y369685D01*
X669240Y365748D02*
Y369685D01*
X669740Y365748D02*
Y369685D01*
X670240Y365748D02*
Y369685D01*
X670740Y365748D02*
Y369685D01*
X671240Y365748D02*
Y369685D01*
X671740Y365748D02*
Y369685D01*
X672240Y365748D02*
Y369685D01*
X672740Y365748D02*
Y369685D01*
X767323Y334252D02*
Y330315D01*
X775197*
Y334252*
X767323*
X767602Y330315D02*
Y334252D01*
X768102Y330315D02*
Y334252D01*
X768602Y330315D02*
Y334252D01*
X769102Y330315D02*
Y334252D01*
X769602Y330315D02*
Y334252D01*
X770102Y330315D02*
Y334252D01*
X770602Y330315D02*
Y334252D01*
X771102Y330315D02*
Y334252D01*
X771602Y330315D02*
Y334252D01*
X772102Y330315D02*
Y334252D01*
X772602Y330315D02*
Y334252D01*
X773102Y330315D02*
Y334252D01*
X773602Y330315D02*
Y334252D01*
X774102Y330315D02*
Y334252D01*
X774602Y330315D02*
Y334252D01*
X775102Y330315D02*
Y334252D01*
X794882D02*
X787008D01*
Y330315*
X794882*
Y334252*
X787102Y330315D02*
Y334252D01*
X787602Y330315D02*
Y334252D01*
X788102Y330315D02*
Y334252D01*
X788602Y330315D02*
Y334252D01*
X789102Y330315D02*
Y334252D01*
X789602Y330315D02*
Y334252D01*
X790102Y330315D02*
Y334252D01*
X790602Y330315D02*
Y334252D01*
X791102Y330315D02*
Y334252D01*
X791602Y330315D02*
Y334252D01*
X792102Y330315D02*
Y334252D01*
X792602Y330315D02*
Y334252D01*
X793102Y330315D02*
Y334252D01*
X793602Y330315D02*
Y334252D01*
X794102Y330315D02*
Y334252D01*
X794602Y330315D02*
Y334252D01*
X664961Y216142D02*
Y212205D01*
X672835*
Y216142*
X664961*
X665240Y212205D02*
Y216142D01*
X665740Y212205D02*
Y216142D01*
X666240Y212205D02*
Y216142D01*
X666740Y212205D02*
Y216142D01*
X667240Y212205D02*
Y216142D01*
X667740Y212205D02*
Y216142D01*
X668240Y212205D02*
Y216142D01*
X668740Y212205D02*
Y216142D01*
X669240Y212205D02*
Y216142D01*
X669740Y212205D02*
Y216142D01*
X670240Y212205D02*
Y216142D01*
X670740Y212205D02*
Y216142D01*
X671240Y212205D02*
Y216142D01*
X671740Y212205D02*
Y216142D01*
X672240Y212205D02*
Y216142D01*
X672740Y212205D02*
Y216142D01*
X692520D02*
X684646D01*
Y212205*
X692520*
Y216142*
X684740Y212205D02*
Y216142D01*
X685240Y212205D02*
Y216142D01*
X685740Y212205D02*
Y216142D01*
X686240Y212205D02*
Y216142D01*
X686740Y212205D02*
Y216142D01*
X687240Y212205D02*
Y216142D01*
X687740Y212205D02*
Y216142D01*
X688240Y212205D02*
Y216142D01*
X688740Y212205D02*
Y216142D01*
X689240Y212205D02*
Y216142D01*
X689740Y212205D02*
Y216142D01*
X690240Y212205D02*
Y216142D01*
X690740Y212205D02*
Y216142D01*
X691240Y212205D02*
Y216142D01*
X691740Y212205D02*
Y216142D01*
X692240Y212205D02*
Y216142D01*
X790945D02*
Y212205D01*
X798819*
Y216142*
X790945*
X791224Y212205D02*
Y216142D01*
X791724Y212205D02*
Y216142D01*
X792224Y212205D02*
Y216142D01*
X792724Y212205D02*
Y216142D01*
X793224Y212205D02*
Y216142D01*
X793724Y212205D02*
Y216142D01*
X794224Y212205D02*
Y216142D01*
X794724Y212205D02*
Y216142D01*
X795224Y212205D02*
Y216142D01*
X795724Y212205D02*
Y216142D01*
X796224Y212205D02*
Y216142D01*
X796724Y212205D02*
Y216142D01*
X797224Y212205D02*
Y216142D01*
X797724Y212205D02*
Y216142D01*
X798224Y212205D02*
Y216142D01*
X798724Y212205D02*
Y216142D01*
X818504D02*
X810630D01*
Y212205*
X818504*
Y216142*
X810724Y212205D02*
Y216142D01*
X811224Y212205D02*
Y216142D01*
X811724Y212205D02*
Y216142D01*
X812224Y212205D02*
Y216142D01*
X812724Y212205D02*
Y216142D01*
X813224Y212205D02*
Y216142D01*
X813724Y212205D02*
Y216142D01*
X814224Y212205D02*
Y216142D01*
X814724Y212205D02*
Y216142D01*
X815224Y212205D02*
Y216142D01*
X815724Y212205D02*
Y216142D01*
X816224Y212205D02*
Y216142D01*
X816724Y212205D02*
Y216142D01*
X817224Y212205D02*
Y216142D01*
X817724Y212205D02*
Y216142D01*
X818224Y212205D02*
Y216142D01*
X184646Y322441D02*
X188583D01*
Y330315*
X184646*
Y322441*
X185114D02*
Y330315D01*
X185614Y322441D02*
Y330315D01*
X186114Y322441D02*
Y330315D01*
X186614Y322441D02*
Y330315D01*
X187114Y322441D02*
Y330315D01*
X187614Y322441D02*
Y330315D01*
X188114Y322441D02*
Y330315D01*
X184646Y350000D02*
Y342126D01*
X188583*
Y350000*
X184646*
X185114Y342126D02*
Y350000D01*
X185614Y342126D02*
Y350000D01*
X186114Y342126D02*
Y350000D01*
X186614Y342126D02*
Y350000D01*
X187114Y342126D02*
Y350000D01*
X187614Y342126D02*
Y350000D01*
X188114Y342126D02*
Y350000D01*
X682677Y257480D02*
X690551D01*
Y271260*
X682677*
Y257480*
X683114D02*
Y271260D01*
X683614Y257480D02*
Y271260D01*
X684114Y257480D02*
Y271260D01*
X684614Y257480D02*
Y271260D01*
X685114Y257480D02*
Y271260D01*
X685614Y257480D02*
Y271260D01*
X686114Y257480D02*
Y271260D01*
X686614Y257480D02*
Y271260D01*
X687114Y257480D02*
Y271260D01*
X687614Y257480D02*
Y271260D01*
X688114Y257480D02*
Y271260D01*
X688614Y257480D02*
Y271260D01*
X689114Y257480D02*
Y271260D01*
X689614Y257480D02*
Y271260D01*
X690114Y257480D02*
Y271260D01*
X682677Y304724D02*
Y290945D01*
X690551*
Y304724*
X682677*
X683114Y290945D02*
Y304724D01*
X683614Y290945D02*
Y304724D01*
X684114Y290945D02*
Y304724D01*
X684614Y290945D02*
Y304724D01*
X685114Y290945D02*
Y304724D01*
X685614Y290945D02*
Y304724D01*
X686114Y290945D02*
Y304724D01*
X686614Y290945D02*
Y304724D01*
X687114Y290945D02*
Y304724D01*
X687614Y290945D02*
Y304724D01*
X688114Y290945D02*
Y304724D01*
X688614Y290945D02*
Y304724D01*
X689114Y290945D02*
Y304724D01*
X689614Y290945D02*
Y304724D01*
X690114Y290945D02*
Y304724D01*
X702362Y135433D02*
X710236D01*
Y149213*
X702362*
Y135433*
X702799D02*
Y149213D01*
X703299Y135433D02*
Y149213D01*
X703799Y135433D02*
Y149213D01*
X704299Y135433D02*
Y149213D01*
X704799Y135433D02*
Y149213D01*
X705299Y135433D02*
Y149213D01*
X705799Y135433D02*
Y149213D01*
X706299Y135433D02*
Y149213D01*
X706799Y135433D02*
Y149213D01*
X707299Y135433D02*
Y149213D01*
X707799Y135433D02*
Y149213D01*
X708299Y135433D02*
Y149213D01*
X708799Y135433D02*
Y149213D01*
X709299Y135433D02*
Y149213D01*
X709799Y135433D02*
Y149213D01*
X702362Y182677D02*
Y168898D01*
X710236*
Y182677*
X702362*
X702799Y168898D02*
Y182677D01*
X703299Y168898D02*
Y182677D01*
X703799Y168898D02*
Y182677D01*
X704299Y168898D02*
Y182677D01*
X704799Y168898D02*
Y182677D01*
X705299Y168898D02*
Y182677D01*
X705799Y168898D02*
Y182677D01*
X706299Y168898D02*
Y182677D01*
X706799Y168898D02*
Y182677D01*
X707299Y168898D02*
Y182677D01*
X707799Y168898D02*
Y182677D01*
X708299Y168898D02*
Y182677D01*
X708799Y168898D02*
Y182677D01*
X709299Y168898D02*
Y182677D01*
X709799Y168898D02*
Y182677D01*
X247638Y322441D02*
X251575D01*
Y330315*
X247638*
Y322441*
X248106D02*
Y330315D01*
X248606Y322441D02*
Y330315D01*
X249106Y322441D02*
Y330315D01*
X249606Y322441D02*
Y330315D01*
X250106Y322441D02*
Y330315D01*
X250606Y322441D02*
Y330315D01*
X251106Y322441D02*
Y330315D01*
X247638Y350000D02*
Y342126D01*
X251575*
Y350000*
X247638*
X248106Y342126D02*
Y350000D01*
X248606Y342126D02*
Y350000D01*
X249106Y342126D02*
Y350000D01*
X249606Y342126D02*
Y350000D01*
X250106Y342126D02*
Y350000D01*
X250606Y342126D02*
Y350000D01*
X251106Y342126D02*
Y350000D01*
X310630Y322441D02*
X314567D01*
Y330315*
X310630*
Y322441*
X311098D02*
Y330315D01*
X311598Y322441D02*
Y330315D01*
X312098Y322441D02*
Y330315D01*
X312598Y322441D02*
Y330315D01*
X313098Y322441D02*
Y330315D01*
X313598Y322441D02*
Y330315D01*
X314098Y322441D02*
Y330315D01*
X310630Y350000D02*
Y342126D01*
X314567*
Y350000*
X310630*
X311098Y342126D02*
Y350000D01*
X311598Y342126D02*
Y350000D01*
X312098Y342126D02*
Y350000D01*
X312598Y342126D02*
Y350000D01*
X313098Y342126D02*
Y350000D01*
X313598Y342126D02*
Y350000D01*
X314098Y342126D02*
Y350000D01*
X373622Y322441D02*
X377559D01*
Y330315*
X373622*
Y322441*
X374091D02*
Y330315D01*
X374591Y322441D02*
Y330315D01*
X375091Y322441D02*
Y330315D01*
X375591Y322441D02*
Y330315D01*
X376091Y322441D02*
Y330315D01*
X376591Y322441D02*
Y330315D01*
X377091Y322441D02*
Y330315D01*
X373622Y350000D02*
Y342126D01*
X377559*
Y350000*
X373622*
X374091Y342126D02*
Y350000D01*
X374591Y342126D02*
Y350000D01*
X375091Y342126D02*
Y350000D01*
X375591Y342126D02*
Y350000D01*
X376091Y342126D02*
Y350000D01*
X376591Y342126D02*
Y350000D01*
X377091Y342126D02*
Y350000D01*
X436614Y322441D02*
X440551D01*
Y330315*
X436614*
Y322441*
X437083D02*
Y330315D01*
X437583Y322441D02*
Y330315D01*
X438083Y322441D02*
Y330315D01*
X438583Y322441D02*
Y330315D01*
X439083Y322441D02*
Y330315D01*
X439583Y322441D02*
Y330315D01*
X440083Y322441D02*
Y330315D01*
X436614Y350000D02*
Y342126D01*
X440551*
Y350000*
X436614*
X437083Y342126D02*
Y350000D01*
X437583Y342126D02*
Y350000D01*
X438083Y342126D02*
Y350000D01*
X438583Y342126D02*
Y350000D01*
X439083Y342126D02*
Y350000D01*
X439583Y342126D02*
Y350000D01*
X440083Y342126D02*
Y350000D01*
X499606Y322441D02*
X503543D01*
Y330315*
X499606*
Y322441*
X500075D02*
Y330315D01*
X500575Y322441D02*
Y330315D01*
X501075Y322441D02*
Y330315D01*
X501575Y322441D02*
Y330315D01*
X502075Y322441D02*
Y330315D01*
X502575Y322441D02*
Y330315D01*
X503075Y322441D02*
Y330315D01*
X499606Y350000D02*
Y342126D01*
X503543*
Y350000*
X499606*
X500075Y342126D02*
Y350000D01*
X500575Y342126D02*
Y350000D01*
X501075Y342126D02*
Y350000D01*
X501575Y342126D02*
Y350000D01*
X502075Y342126D02*
Y350000D01*
X502575Y342126D02*
Y350000D01*
X503075Y342126D02*
Y350000D01*
X562598Y322441D02*
X566535D01*
Y330315*
X562598*
Y322441*
X563067D02*
Y330315D01*
X563567Y322441D02*
Y330315D01*
X564067Y322441D02*
Y330315D01*
X564567Y322441D02*
Y330315D01*
X565067Y322441D02*
Y330315D01*
X565567Y322441D02*
Y330315D01*
X566067Y322441D02*
Y330315D01*
X562598Y350000D02*
Y342126D01*
X566535*
Y350000*
X562598*
X563067Y342126D02*
Y350000D01*
X563567Y342126D02*
Y350000D01*
X564067Y342126D02*
Y350000D01*
X564567Y342126D02*
Y350000D01*
X565067Y342126D02*
Y350000D01*
X565567Y342126D02*
Y350000D01*
X566067Y342126D02*
Y350000D01*
X625591Y322441D02*
X629528D01*
Y330315*
X625591*
Y322441*
X626059D02*
Y330315D01*
X626559Y322441D02*
Y330315D01*
X627059Y322441D02*
Y330315D01*
X627559Y322441D02*
Y330315D01*
X628059Y322441D02*
Y330315D01*
X628559Y322441D02*
Y330315D01*
X629059Y322441D02*
Y330315D01*
X625591Y350000D02*
Y342126D01*
X629528*
Y350000*
X625591*
X626059Y342126D02*
Y350000D01*
X626559Y342126D02*
Y350000D01*
X627059Y342126D02*
Y350000D01*
X627559Y342126D02*
Y350000D01*
X628059Y342126D02*
Y350000D01*
X628559Y342126D02*
Y350000D01*
X629059Y342126D02*
Y350000D01*
X397713Y243732D02*
Y247232D01*
X393713*
Y243732*
X397713*
X393713D02*
Y247232D01*
X394213Y243732D02*
Y247232D01*
X394713Y243732D02*
Y247232D01*
X395213Y243732D02*
Y247232D01*
X395713Y243732D02*
Y247232D01*
X396213Y243732D02*
Y247232D01*
X396713Y243732D02*
Y247232D01*
X397213Y243732D02*
Y247232D01*
X404713Y243732D02*
Y247232D01*
X400713*
Y243732*
X404713*
X400713D02*
Y247232D01*
X401213Y243732D02*
Y247232D01*
X401713Y243732D02*
Y247232D01*
X402213Y243732D02*
Y247232D01*
X402713Y243732D02*
Y247232D01*
X403213Y243732D02*
Y247232D01*
X403713Y243732D02*
Y247232D01*
X404213Y243732D02*
Y247232D01*
X401181Y234843D02*
Y239272D01*
X397244*
Y234843*
X401181*
X397713D02*
Y239272D01*
X398213Y234843D02*
Y239272D01*
X398713Y234843D02*
Y239272D01*
X399213Y234843D02*
Y239272D01*
X399713Y234843D02*
Y239272D01*
X400213Y234843D02*
Y239272D01*
X400713Y234843D02*
Y239272D01*
X460705Y243732D02*
Y247232D01*
X456705*
Y243732*
X460705*
X456705D02*
Y247232D01*
X457205Y243732D02*
Y247232D01*
X457705Y243732D02*
Y247232D01*
X458205Y243732D02*
Y247232D01*
X458705Y243732D02*
Y247232D01*
X459205Y243732D02*
Y247232D01*
X459705Y243732D02*
Y247232D01*
X460205Y243732D02*
Y247232D01*
X467705Y243732D02*
Y247232D01*
X463705*
Y243732*
X467705*
X463705D02*
Y247232D01*
X464205Y243732D02*
Y247232D01*
X464705Y243732D02*
Y247232D01*
X465205Y243732D02*
Y247232D01*
X465705Y243732D02*
Y247232D01*
X466205Y243732D02*
Y247232D01*
X466705Y243732D02*
Y247232D01*
X467205Y243732D02*
Y247232D01*
X464173Y234843D02*
Y239272D01*
X460236*
Y234843*
X464173*
X460705D02*
Y239272D01*
X461205Y234843D02*
Y239272D01*
X461705Y234843D02*
Y239272D01*
X462205Y234843D02*
Y239272D01*
X462705Y234843D02*
Y239272D01*
X463205Y234843D02*
Y239272D01*
X463705Y234843D02*
Y239272D01*
X523697Y243732D02*
Y247232D01*
X519697*
Y243732*
X523697*
X519697D02*
Y247232D01*
X520197Y243732D02*
Y247232D01*
X520697Y243732D02*
Y247232D01*
X521197Y243732D02*
Y247232D01*
X521697Y243732D02*
Y247232D01*
X522197Y243732D02*
Y247232D01*
X522697Y243732D02*
Y247232D01*
X523197Y243732D02*
Y247232D01*
X530697Y243732D02*
Y247232D01*
X526697*
Y243732*
X530697*
X526697D02*
Y247232D01*
X527197Y243732D02*
Y247232D01*
X527697Y243732D02*
Y247232D01*
X528197Y243732D02*
Y247232D01*
X528697Y243732D02*
Y247232D01*
X529197Y243732D02*
Y247232D01*
X529697Y243732D02*
Y247232D01*
X530197Y243732D02*
Y247232D01*
X527165Y234843D02*
Y239272D01*
X523228*
Y234843*
X527165*
X523697D02*
Y239272D01*
X524197Y234843D02*
Y239272D01*
X524697Y234843D02*
Y239272D01*
X525197Y234843D02*
Y239272D01*
X525697Y234843D02*
Y239272D01*
X526197Y234843D02*
Y239272D01*
X526697Y234843D02*
Y239272D01*
X586689Y243732D02*
Y247232D01*
X582689*
Y243732*
X586689*
X582689D02*
Y247232D01*
X583189Y243732D02*
Y247232D01*
X583689Y243732D02*
Y247232D01*
X584189Y243732D02*
Y247232D01*
X584689Y243732D02*
Y247232D01*
X585189Y243732D02*
Y247232D01*
X585689Y243732D02*
Y247232D01*
X586189Y243732D02*
Y247232D01*
X593689Y243732D02*
Y247232D01*
X589689*
Y243732*
X593689*
X589689D02*
Y247232D01*
X590189Y243732D02*
Y247232D01*
X590689Y243732D02*
Y247232D01*
X591189Y243732D02*
Y247232D01*
X591689Y243732D02*
Y247232D01*
X592189Y243732D02*
Y247232D01*
X592689Y243732D02*
Y247232D01*
X593189Y243732D02*
Y247232D01*
X590157Y234843D02*
Y239272D01*
X586220*
Y234843*
X590157*
X586689D02*
Y239272D01*
X587189Y234843D02*
Y239272D01*
X587689Y234843D02*
Y239272D01*
X588189Y234843D02*
Y239272D01*
X588689Y234843D02*
Y239272D01*
X589189Y234843D02*
Y239272D01*
X589689Y234843D02*
Y239272D01*
X145744Y243732D02*
Y247232D01*
X141744*
Y243732*
X145744*
X141744D02*
Y247232D01*
X142244Y243732D02*
Y247232D01*
X142744Y243732D02*
Y247232D01*
X143244Y243732D02*
Y247232D01*
X143744Y243732D02*
Y247232D01*
X144244Y243732D02*
Y247232D01*
X144744Y243732D02*
Y247232D01*
X145244Y243732D02*
Y247232D01*
X152744Y243732D02*
Y247232D01*
X148744*
Y243732*
X152744*
X148744D02*
Y247232D01*
X149244Y243732D02*
Y247232D01*
X149744Y243732D02*
Y247232D01*
X150244Y243732D02*
Y247232D01*
X150744Y243732D02*
Y247232D01*
X151244Y243732D02*
Y247232D01*
X151744Y243732D02*
Y247232D01*
X152244Y243732D02*
Y247232D01*
X149213Y234843D02*
Y239272D01*
X145276*
Y234843*
X149213*
X145744D02*
Y239272D01*
X146244Y234843D02*
Y239272D01*
X146744Y234843D02*
Y239272D01*
X147244Y234843D02*
Y239272D01*
X147744Y234843D02*
Y239272D01*
X148244Y234843D02*
Y239272D01*
X148744Y234843D02*
Y239272D01*
X208736Y243732D02*
Y247232D01*
X204736*
Y243732*
X208736*
X204736D02*
Y247232D01*
X205236Y243732D02*
Y247232D01*
X205736Y243732D02*
Y247232D01*
X206236Y243732D02*
Y247232D01*
X206736Y243732D02*
Y247232D01*
X207236Y243732D02*
Y247232D01*
X207736Y243732D02*
Y247232D01*
X208236Y243732D02*
Y247232D01*
X215736Y243732D02*
Y247232D01*
X211736*
Y243732*
X215736*
X211736D02*
Y247232D01*
X212236Y243732D02*
Y247232D01*
X212736Y243732D02*
Y247232D01*
X213236Y243732D02*
Y247232D01*
X213736Y243732D02*
Y247232D01*
X214236Y243732D02*
Y247232D01*
X214736Y243732D02*
Y247232D01*
X215236Y243732D02*
Y247232D01*
X212205Y234843D02*
Y239272D01*
X208268*
Y234843*
X212205*
X208736D02*
Y239272D01*
X209236Y234843D02*
Y239272D01*
X209736Y234843D02*
Y239272D01*
X210236Y234843D02*
Y239272D01*
X210736Y234843D02*
Y239272D01*
X211236Y234843D02*
Y239272D01*
X211736Y234843D02*
Y239272D01*
X271728Y243732D02*
Y247232D01*
X267728*
Y243732*
X271728*
X267728D02*
Y247232D01*
X268228Y243732D02*
Y247232D01*
X268728Y243732D02*
Y247232D01*
X269228Y243732D02*
Y247232D01*
X269728Y243732D02*
Y247232D01*
X270228Y243732D02*
Y247232D01*
X270728Y243732D02*
Y247232D01*
X271228Y243732D02*
Y247232D01*
X278728Y243732D02*
Y247232D01*
X274728*
Y243732*
X278728*
X274728D02*
Y247232D01*
X275228Y243732D02*
Y247232D01*
X275728Y243732D02*
Y247232D01*
X276228Y243732D02*
Y247232D01*
X276728Y243732D02*
Y247232D01*
X277228Y243732D02*
Y247232D01*
X277728Y243732D02*
Y247232D01*
X278228Y243732D02*
Y247232D01*
X275197Y234843D02*
Y239272D01*
X271260*
Y234843*
X275197*
X271728D02*
Y239272D01*
X272228Y234843D02*
Y239272D01*
X272728Y234843D02*
Y239272D01*
X273228Y234843D02*
Y239272D01*
X273728Y234843D02*
Y239272D01*
X274228Y234843D02*
Y239272D01*
X274728Y234843D02*
Y239272D01*
X334720Y243732D02*
Y247232D01*
X330720*
Y243732*
X334720*
X330720D02*
Y247232D01*
X331220Y243732D02*
Y247232D01*
X331720Y243732D02*
Y247232D01*
X332220Y243732D02*
Y247232D01*
X332720Y243732D02*
Y247232D01*
X333220Y243732D02*
Y247232D01*
X333720Y243732D02*
Y247232D01*
X334220Y243732D02*
Y247232D01*
X341720Y243732D02*
Y247232D01*
X337720*
Y243732*
X341720*
X337720D02*
Y247232D01*
X338220Y243732D02*
Y247232D01*
X338720Y243732D02*
Y247232D01*
X339220Y243732D02*
Y247232D01*
X339720Y243732D02*
Y247232D01*
X340220Y243732D02*
Y247232D01*
X340720Y243732D02*
Y247232D01*
X341220Y243732D02*
Y247232D01*
X338189Y234843D02*
Y239272D01*
X334252*
Y234843*
X338189*
X334720D02*
Y239272D01*
X335220Y234843D02*
Y239272D01*
X335720Y234843D02*
Y239272D01*
X336220Y234843D02*
Y239272D01*
X336720Y234843D02*
Y239272D01*
X337220Y234843D02*
Y239272D01*
X337720Y234843D02*
Y239272D01*
X166368Y286165D02*
Y292915D01*
X161868*
Y286165*
X166368*
X162118D02*
Y292915D01*
X162618Y286165D02*
Y292915D01*
X163118Y286165D02*
Y292915D01*
X163618Y286165D02*
Y292915D01*
X164118Y286165D02*
Y292915D01*
X164618Y286165D02*
Y292915D01*
X165118Y286165D02*
Y292915D01*
X165618Y286165D02*
Y292915D01*
X166118Y286165D02*
Y292915D01*
X157368Y286165D02*
Y292915D01*
X152868*
Y286165*
X157368*
X153118D02*
Y292915D01*
X153618Y286165D02*
Y292915D01*
X154118Y286165D02*
Y292915D01*
X154618Y286165D02*
Y292915D01*
X155118Y286165D02*
Y292915D01*
X155618Y286165D02*
Y292915D01*
X156118Y286165D02*
Y292915D01*
X156618Y286165D02*
Y292915D01*
X157118Y286165D02*
Y292915D01*
X148368Y286165D02*
Y292915D01*
X143868*
Y286165*
X148368*
X144118D02*
Y292915D01*
X144618Y286165D02*
Y292915D01*
X145118Y286165D02*
Y292915D01*
X145618Y286165D02*
Y292915D01*
X146118Y286165D02*
Y292915D01*
X146618Y286165D02*
Y292915D01*
X147118Y286165D02*
Y292915D01*
X147618Y286165D02*
Y292915D01*
X148118Y286165D02*
Y292915D01*
X161868Y261415D02*
Y270915D01*
X167618*
Y283415*
X142618*
Y270915*
X148368*
Y261415*
X161868*
X142618Y270915D02*
Y283415D01*
X143118Y270915D02*
Y283415D01*
X143618Y270915D02*
Y283415D01*
X144118Y270915D02*
Y283415D01*
X144618Y270915D02*
Y283415D01*
X145118Y270915D02*
Y283415D01*
X145618Y270915D02*
Y283415D01*
X146118Y270915D02*
Y283415D01*
X146618Y270915D02*
Y283415D01*
X147118Y270915D02*
Y283415D01*
X147618Y270915D02*
Y283415D01*
X148118Y270915D02*
Y283415D01*
X148618Y261415D02*
Y283415D01*
X149118Y261415D02*
Y283415D01*
X149618Y261415D02*
Y283415D01*
X150118Y261415D02*
Y283415D01*
X150618Y261415D02*
Y283415D01*
X151118Y261415D02*
Y283415D01*
X151618Y261415D02*
Y283415D01*
X152118Y261415D02*
Y283415D01*
X152618Y261415D02*
Y283415D01*
X153118Y261415D02*
Y283415D01*
X153618Y261415D02*
Y283415D01*
X154118Y261415D02*
Y283415D01*
X154618Y261415D02*
Y283415D01*
X155118Y261415D02*
Y283415D01*
X155618Y261415D02*
Y283415D01*
X156118Y261415D02*
Y283415D01*
X156618Y261415D02*
Y283415D01*
X157118Y261415D02*
Y283415D01*
X157618Y261415D02*
Y283415D01*
X158118Y261415D02*
Y283415D01*
X158618Y261415D02*
Y283415D01*
X159118Y261415D02*
Y283415D01*
X159618Y261415D02*
Y283415D01*
X160118Y261415D02*
Y283415D01*
X160618Y261415D02*
Y283415D01*
X161118Y261415D02*
Y283415D01*
X161618Y261415D02*
Y283415D01*
X162118Y270915D02*
Y283415D01*
X162618Y270915D02*
Y283415D01*
X163118Y270915D02*
Y283415D01*
X163618Y270915D02*
Y283415D01*
X164118Y270915D02*
Y283415D01*
X164618Y270915D02*
Y283415D01*
X165118Y270915D02*
Y283415D01*
X165618Y270915D02*
Y283415D01*
X166118Y270915D02*
Y283415D01*
X166618Y270915D02*
Y283415D01*
X167118Y270915D02*
Y283415D01*
X481329Y286165D02*
Y292915D01*
X476829*
Y286165*
X481329*
X477079D02*
Y292915D01*
X477579Y286165D02*
Y292915D01*
X478079Y286165D02*
Y292915D01*
X478579Y286165D02*
Y292915D01*
X479079Y286165D02*
Y292915D01*
X479579Y286165D02*
Y292915D01*
X480079Y286165D02*
Y292915D01*
X480579Y286165D02*
Y292915D01*
X481079Y286165D02*
Y292915D01*
X472329Y286165D02*
Y292915D01*
X467829*
Y286165*
X472329*
X468079D02*
Y292915D01*
X468579Y286165D02*
Y292915D01*
X469079Y286165D02*
Y292915D01*
X469579Y286165D02*
Y292915D01*
X470079Y286165D02*
Y292915D01*
X470579Y286165D02*
Y292915D01*
X471079Y286165D02*
Y292915D01*
X471579Y286165D02*
Y292915D01*
X472079Y286165D02*
Y292915D01*
X463329Y286165D02*
Y292915D01*
X458829*
Y286165*
X463329*
X459079D02*
Y292915D01*
X459579Y286165D02*
Y292915D01*
X460079Y286165D02*
Y292915D01*
X460579Y286165D02*
Y292915D01*
X461079Y286165D02*
Y292915D01*
X461579Y286165D02*
Y292915D01*
X462079Y286165D02*
Y292915D01*
X462579Y286165D02*
Y292915D01*
X463079Y286165D02*
Y292915D01*
X476829Y261415D02*
Y270915D01*
X482579*
Y283415*
X457579*
Y270915*
X463329*
Y261415*
X476829*
X457579Y270915D02*
Y283415D01*
X458079Y270915D02*
Y283415D01*
X458579Y270915D02*
Y283415D01*
X459079Y270915D02*
Y283415D01*
X459579Y270915D02*
Y283415D01*
X460079Y270915D02*
Y283415D01*
X460579Y270915D02*
Y283415D01*
X461079Y270915D02*
Y283415D01*
X461579Y270915D02*
Y283415D01*
X462079Y270915D02*
Y283415D01*
X462579Y270915D02*
Y283415D01*
X463079Y270915D02*
Y283415D01*
X463579Y261415D02*
Y283415D01*
X464079Y261415D02*
Y283415D01*
X464579Y261415D02*
Y283415D01*
X465079Y261415D02*
Y283415D01*
X465579Y261415D02*
Y283415D01*
X466079Y261415D02*
Y283415D01*
X466579Y261415D02*
Y283415D01*
X467079Y261415D02*
Y283415D01*
X467579Y261415D02*
Y283415D01*
X468079Y261415D02*
Y283415D01*
X468579Y261415D02*
Y283415D01*
X469079Y261415D02*
Y283415D01*
X469579Y261415D02*
Y283415D01*
X470079Y261415D02*
Y283415D01*
X470579Y261415D02*
Y283415D01*
X471079Y261415D02*
Y283415D01*
X471579Y261415D02*
Y283415D01*
X472079Y261415D02*
Y283415D01*
X472579Y261415D02*
Y283415D01*
X473079Y261415D02*
Y283415D01*
X473579Y261415D02*
Y283415D01*
X474079Y261415D02*
Y283415D01*
X474579Y261415D02*
Y283415D01*
X475079Y261415D02*
Y283415D01*
X475579Y261415D02*
Y283415D01*
X476079Y261415D02*
Y283415D01*
X476579Y261415D02*
Y283415D01*
X477079Y270915D02*
Y283415D01*
X477579Y270915D02*
Y283415D01*
X478079Y270915D02*
Y283415D01*
X478579Y270915D02*
Y283415D01*
X479079Y270915D02*
Y283415D01*
X479579Y270915D02*
Y283415D01*
X480079Y270915D02*
Y283415D01*
X480579Y270915D02*
Y283415D01*
X481079Y270915D02*
Y283415D01*
X481579Y270915D02*
Y283415D01*
X482079Y270915D02*
Y283415D01*
X544321Y286165D02*
Y292915D01*
X539821*
Y286165*
X544321*
X540071D02*
Y292915D01*
X540571Y286165D02*
Y292915D01*
X541071Y286165D02*
Y292915D01*
X541571Y286165D02*
Y292915D01*
X542071Y286165D02*
Y292915D01*
X542571Y286165D02*
Y292915D01*
X543071Y286165D02*
Y292915D01*
X543571Y286165D02*
Y292915D01*
X544071Y286165D02*
Y292915D01*
X535321Y286165D02*
Y292915D01*
X530821*
Y286165*
X535321*
X531071D02*
Y292915D01*
X531571Y286165D02*
Y292915D01*
X532071Y286165D02*
Y292915D01*
X532571Y286165D02*
Y292915D01*
X533071Y286165D02*
Y292915D01*
X533571Y286165D02*
Y292915D01*
X534071Y286165D02*
Y292915D01*
X534571Y286165D02*
Y292915D01*
X535071Y286165D02*
Y292915D01*
X526321Y286165D02*
Y292915D01*
X521821*
Y286165*
X526321*
X522071D02*
Y292915D01*
X522571Y286165D02*
Y292915D01*
X523071Y286165D02*
Y292915D01*
X523571Y286165D02*
Y292915D01*
X524071Y286165D02*
Y292915D01*
X524571Y286165D02*
Y292915D01*
X525071Y286165D02*
Y292915D01*
X525571Y286165D02*
Y292915D01*
X526071Y286165D02*
Y292915D01*
X539821Y261415D02*
Y270915D01*
X545571*
Y283415*
X520571*
Y270915*
X526321*
Y261415*
X539821*
X520571Y270915D02*
Y283415D01*
X521071Y270915D02*
Y283415D01*
X521571Y270915D02*
Y283415D01*
X522071Y270915D02*
Y283415D01*
X522571Y270915D02*
Y283415D01*
X523071Y270915D02*
Y283415D01*
X523571Y270915D02*
Y283415D01*
X524071Y270915D02*
Y283415D01*
X524571Y270915D02*
Y283415D01*
X525071Y270915D02*
Y283415D01*
X525571Y270915D02*
Y283415D01*
X526071Y270915D02*
Y283415D01*
X526571Y261415D02*
Y283415D01*
X527071Y261415D02*
Y283415D01*
X527571Y261415D02*
Y283415D01*
X528071Y261415D02*
Y283415D01*
X528571Y261415D02*
Y283415D01*
X529071Y261415D02*
Y283415D01*
X529571Y261415D02*
Y283415D01*
X530071Y261415D02*
Y283415D01*
X530571Y261415D02*
Y283415D01*
X531071Y261415D02*
Y283415D01*
X531571Y261415D02*
Y283415D01*
X532071Y261415D02*
Y283415D01*
X532571Y261415D02*
Y283415D01*
X533071Y261415D02*
Y283415D01*
X533571Y261415D02*
Y283415D01*
X534071Y261415D02*
Y283415D01*
X534571Y261415D02*
Y283415D01*
X535071Y261415D02*
Y283415D01*
X535571Y261415D02*
Y283415D01*
X536071Y261415D02*
Y283415D01*
X536571Y261415D02*
Y283415D01*
X537071Y261415D02*
Y283415D01*
X537571Y261415D02*
Y283415D01*
X538071Y261415D02*
Y283415D01*
X538571Y261415D02*
Y283415D01*
X539071Y261415D02*
Y283415D01*
X539571Y261415D02*
Y283415D01*
X540071Y270915D02*
Y283415D01*
X540571Y270915D02*
Y283415D01*
X541071Y270915D02*
Y283415D01*
X541571Y270915D02*
Y283415D01*
X542071Y270915D02*
Y283415D01*
X542571Y270915D02*
Y283415D01*
X543071Y270915D02*
Y283415D01*
X543571Y270915D02*
Y283415D01*
X544071Y270915D02*
Y283415D01*
X544571Y270915D02*
Y283415D01*
X545071Y270915D02*
Y283415D01*
X607313Y286165D02*
Y292915D01*
X602813*
Y286165*
X607313*
X603063D02*
Y292915D01*
X603563Y286165D02*
Y292915D01*
X604063Y286165D02*
Y292915D01*
X604563Y286165D02*
Y292915D01*
X605063Y286165D02*
Y292915D01*
X605563Y286165D02*
Y292915D01*
X606063Y286165D02*
Y292915D01*
X606563Y286165D02*
Y292915D01*
X607063Y286165D02*
Y292915D01*
X598313Y286165D02*
Y292915D01*
X593813*
Y286165*
X598313*
X594063D02*
Y292915D01*
X594563Y286165D02*
Y292915D01*
X595063Y286165D02*
Y292915D01*
X595563Y286165D02*
Y292915D01*
X596063Y286165D02*
Y292915D01*
X596563Y286165D02*
Y292915D01*
X597063Y286165D02*
Y292915D01*
X597563Y286165D02*
Y292915D01*
X598063Y286165D02*
Y292915D01*
X589313Y286165D02*
Y292915D01*
X584813*
Y286165*
X589313*
X585063D02*
Y292915D01*
X585563Y286165D02*
Y292915D01*
X586063Y286165D02*
Y292915D01*
X586563Y286165D02*
Y292915D01*
X587063Y286165D02*
Y292915D01*
X587563Y286165D02*
Y292915D01*
X588063Y286165D02*
Y292915D01*
X588563Y286165D02*
Y292915D01*
X589063Y286165D02*
Y292915D01*
X602813Y261415D02*
Y270915D01*
X608563*
Y283415*
X583563*
Y270915*
X589313*
Y261415*
X602813*
X583563Y270915D02*
Y283415D01*
X584063Y270915D02*
Y283415D01*
X584563Y270915D02*
Y283415D01*
X585063Y270915D02*
Y283415D01*
X585563Y270915D02*
Y283415D01*
X586063Y270915D02*
Y283415D01*
X586563Y270915D02*
Y283415D01*
X587063Y270915D02*
Y283415D01*
X587563Y270915D02*
Y283415D01*
X588063Y270915D02*
Y283415D01*
X588563Y270915D02*
Y283415D01*
X589063Y270915D02*
Y283415D01*
X589563Y261415D02*
Y283415D01*
X590063Y261415D02*
Y283415D01*
X590563Y261415D02*
Y283415D01*
X591063Y261415D02*
Y283415D01*
X591563Y261415D02*
Y283415D01*
X592063Y261415D02*
Y283415D01*
X592563Y261415D02*
Y283415D01*
X593063Y261415D02*
Y283415D01*
X593563Y261415D02*
Y283415D01*
X594063Y261415D02*
Y283415D01*
X594563Y261415D02*
Y283415D01*
X595063Y261415D02*
Y283415D01*
X595563Y261415D02*
Y283415D01*
X596063Y261415D02*
Y283415D01*
X596563Y261415D02*
Y283415D01*
X597063Y261415D02*
Y283415D01*
X597563Y261415D02*
Y283415D01*
X598063Y261415D02*
Y283415D01*
X598563Y261415D02*
Y283415D01*
X599063Y261415D02*
Y283415D01*
X599563Y261415D02*
Y283415D01*
X600063Y261415D02*
Y283415D01*
X600563Y261415D02*
Y283415D01*
X601063Y261415D02*
Y283415D01*
X601563Y261415D02*
Y283415D01*
X602063Y261415D02*
Y283415D01*
X602563Y261415D02*
Y283415D01*
X603063Y270915D02*
Y283415D01*
X603563Y270915D02*
Y283415D01*
X604063Y270915D02*
Y283415D01*
X604563Y270915D02*
Y283415D01*
X605063Y270915D02*
Y283415D01*
X605563Y270915D02*
Y283415D01*
X606063Y270915D02*
Y283415D01*
X606563Y270915D02*
Y283415D01*
X607063Y270915D02*
Y283415D01*
X607563Y270915D02*
Y283415D01*
X608063Y270915D02*
Y283415D01*
X229360Y286165D02*
Y292915D01*
X224860*
Y286165*
X229360*
X225110D02*
Y292915D01*
X225610Y286165D02*
Y292915D01*
X226110Y286165D02*
Y292915D01*
X226610Y286165D02*
Y292915D01*
X227110Y286165D02*
Y292915D01*
X227610Y286165D02*
Y292915D01*
X228110Y286165D02*
Y292915D01*
X228610Y286165D02*
Y292915D01*
X229110Y286165D02*
Y292915D01*
X220360Y286165D02*
Y292915D01*
X215860*
Y286165*
X220360*
X216110D02*
Y292915D01*
X216610Y286165D02*
Y292915D01*
X217110Y286165D02*
Y292915D01*
X217610Y286165D02*
Y292915D01*
X218110Y286165D02*
Y292915D01*
X218610Y286165D02*
Y292915D01*
X219110Y286165D02*
Y292915D01*
X219610Y286165D02*
Y292915D01*
X220110Y286165D02*
Y292915D01*
X211360Y286165D02*
Y292915D01*
X206860*
Y286165*
X211360*
X207110D02*
Y292915D01*
X207610Y286165D02*
Y292915D01*
X208110Y286165D02*
Y292915D01*
X208610Y286165D02*
Y292915D01*
X209110Y286165D02*
Y292915D01*
X209610Y286165D02*
Y292915D01*
X210110Y286165D02*
Y292915D01*
X210610Y286165D02*
Y292915D01*
X211110Y286165D02*
Y292915D01*
X224860Y261415D02*
Y270915D01*
X230610*
Y283415*
X205610*
Y270915*
X211360*
Y261415*
X224860*
X205610Y270915D02*
Y283415D01*
X206110Y270915D02*
Y283415D01*
X206610Y270915D02*
Y283415D01*
X207110Y270915D02*
Y283415D01*
X207610Y270915D02*
Y283415D01*
X208110Y270915D02*
Y283415D01*
X208610Y270915D02*
Y283415D01*
X209110Y270915D02*
Y283415D01*
X209610Y270915D02*
Y283415D01*
X210110Y270915D02*
Y283415D01*
X210610Y270915D02*
Y283415D01*
X211110Y270915D02*
Y283415D01*
X211610Y261415D02*
Y283415D01*
X212110Y261415D02*
Y283415D01*
X212610Y261415D02*
Y283415D01*
X213110Y261415D02*
Y283415D01*
X213610Y261415D02*
Y283415D01*
X214110Y261415D02*
Y283415D01*
X214610Y261415D02*
Y283415D01*
X215110Y261415D02*
Y283415D01*
X215610Y261415D02*
Y283415D01*
X216110Y261415D02*
Y283415D01*
X216610Y261415D02*
Y283415D01*
X217110Y261415D02*
Y283415D01*
X217610Y261415D02*
Y283415D01*
X218110Y261415D02*
Y283415D01*
X218610Y261415D02*
Y283415D01*
X219110Y261415D02*
Y283415D01*
X219610Y261415D02*
Y283415D01*
X220110Y261415D02*
Y283415D01*
X220610Y261415D02*
Y283415D01*
X221110Y261415D02*
Y283415D01*
X221610Y261415D02*
Y283415D01*
X222110Y261415D02*
Y283415D01*
X222610Y261415D02*
Y283415D01*
X223110Y261415D02*
Y283415D01*
X223610Y261415D02*
Y283415D01*
X224110Y261415D02*
Y283415D01*
X224610Y261415D02*
Y283415D01*
X225110Y270915D02*
Y283415D01*
X225610Y270915D02*
Y283415D01*
X226110Y270915D02*
Y283415D01*
X226610Y270915D02*
Y283415D01*
X227110Y270915D02*
Y283415D01*
X227610Y270915D02*
Y283415D01*
X228110Y270915D02*
Y283415D01*
X228610Y270915D02*
Y283415D01*
X229110Y270915D02*
Y283415D01*
X229610Y270915D02*
Y283415D01*
X230110Y270915D02*
Y283415D01*
X292352Y286165D02*
Y292915D01*
X287852*
Y286165*
X292352*
X288102D02*
Y292915D01*
X288602Y286165D02*
Y292915D01*
X289102Y286165D02*
Y292915D01*
X289602Y286165D02*
Y292915D01*
X290102Y286165D02*
Y292915D01*
X290602Y286165D02*
Y292915D01*
X291102Y286165D02*
Y292915D01*
X291602Y286165D02*
Y292915D01*
X292102Y286165D02*
Y292915D01*
X283352Y286165D02*
Y292915D01*
X278852*
Y286165*
X283352*
X279102D02*
Y292915D01*
X279602Y286165D02*
Y292915D01*
X280102Y286165D02*
Y292915D01*
X280602Y286165D02*
Y292915D01*
X281102Y286165D02*
Y292915D01*
X281602Y286165D02*
Y292915D01*
X282102Y286165D02*
Y292915D01*
X282602Y286165D02*
Y292915D01*
X283102Y286165D02*
Y292915D01*
X274352Y286165D02*
Y292915D01*
X269852*
Y286165*
X274352*
X270102D02*
Y292915D01*
X270602Y286165D02*
Y292915D01*
X271102Y286165D02*
Y292915D01*
X271602Y286165D02*
Y292915D01*
X272102Y286165D02*
Y292915D01*
X272602Y286165D02*
Y292915D01*
X273102Y286165D02*
Y292915D01*
X273602Y286165D02*
Y292915D01*
X274102Y286165D02*
Y292915D01*
X287852Y261415D02*
Y270915D01*
X293602*
Y283415*
X268602*
Y270915*
X274352*
Y261415*
X287852*
X268602Y270915D02*
Y283415D01*
X269102Y270915D02*
Y283415D01*
X269602Y270915D02*
Y283415D01*
X270102Y270915D02*
Y283415D01*
X270602Y270915D02*
Y283415D01*
X271102Y270915D02*
Y283415D01*
X271602Y270915D02*
Y283415D01*
X272102Y270915D02*
Y283415D01*
X272602Y270915D02*
Y283415D01*
X273102Y270915D02*
Y283415D01*
X273602Y270915D02*
Y283415D01*
X274102Y270915D02*
Y283415D01*
X274602Y261415D02*
Y283415D01*
X275102Y261415D02*
Y283415D01*
X275602Y261415D02*
Y283415D01*
X276102Y261415D02*
Y283415D01*
X276602Y261415D02*
Y283415D01*
X277102Y261415D02*
Y283415D01*
X277602Y261415D02*
Y283415D01*
X278102Y261415D02*
Y283415D01*
X278602Y261415D02*
Y283415D01*
X279102Y261415D02*
Y283415D01*
X279602Y261415D02*
Y283415D01*
X280102Y261415D02*
Y283415D01*
X280602Y261415D02*
Y283415D01*
X281102Y261415D02*
Y283415D01*
X281602Y261415D02*
Y283415D01*
X282102Y261415D02*
Y283415D01*
X282602Y261415D02*
Y283415D01*
X283102Y261415D02*
Y283415D01*
X283602Y261415D02*
Y283415D01*
X284102Y261415D02*
Y283415D01*
X284602Y261415D02*
Y283415D01*
X285102Y261415D02*
Y283415D01*
X285602Y261415D02*
Y283415D01*
X286102Y261415D02*
Y283415D01*
X286602Y261415D02*
Y283415D01*
X287102Y261415D02*
Y283415D01*
X287602Y261415D02*
Y283415D01*
X288102Y270915D02*
Y283415D01*
X288602Y270915D02*
Y283415D01*
X289102Y270915D02*
Y283415D01*
X289602Y270915D02*
Y283415D01*
X290102Y270915D02*
Y283415D01*
X290602Y270915D02*
Y283415D01*
X291102Y270915D02*
Y283415D01*
X291602Y270915D02*
Y283415D01*
X292102Y270915D02*
Y283415D01*
X292602Y270915D02*
Y283415D01*
X293102Y270915D02*
Y283415D01*
X355344Y286165D02*
Y292915D01*
X350844*
Y286165*
X355344*
X351094D02*
Y292915D01*
X351594Y286165D02*
Y292915D01*
X352094Y286165D02*
Y292915D01*
X352594Y286165D02*
Y292915D01*
X353094Y286165D02*
Y292915D01*
X353594Y286165D02*
Y292915D01*
X354094Y286165D02*
Y292915D01*
X354594Y286165D02*
Y292915D01*
X355094Y286165D02*
Y292915D01*
X346344Y286165D02*
Y292915D01*
X341844*
Y286165*
X346344*
X342094D02*
Y292915D01*
X342594Y286165D02*
Y292915D01*
X343094Y286165D02*
Y292915D01*
X343594Y286165D02*
Y292915D01*
X344094Y286165D02*
Y292915D01*
X344594Y286165D02*
Y292915D01*
X345094Y286165D02*
Y292915D01*
X345594Y286165D02*
Y292915D01*
X346094Y286165D02*
Y292915D01*
X337344Y286165D02*
Y292915D01*
X332844*
Y286165*
X337344*
X333094D02*
Y292915D01*
X333594Y286165D02*
Y292915D01*
X334094Y286165D02*
Y292915D01*
X334594Y286165D02*
Y292915D01*
X335094Y286165D02*
Y292915D01*
X335594Y286165D02*
Y292915D01*
X336094Y286165D02*
Y292915D01*
X336594Y286165D02*
Y292915D01*
X337094Y286165D02*
Y292915D01*
X350844Y261415D02*
Y270915D01*
X356594*
Y283415*
X331594*
Y270915*
X337344*
Y261415*
X350844*
X331594Y270915D02*
Y283415D01*
X332094Y270915D02*
Y283415D01*
X332594Y270915D02*
Y283415D01*
X333094Y270915D02*
Y283415D01*
X333594Y270915D02*
Y283415D01*
X334094Y270915D02*
Y283415D01*
X334594Y270915D02*
Y283415D01*
X335094Y270915D02*
Y283415D01*
X335594Y270915D02*
Y283415D01*
X336094Y270915D02*
Y283415D01*
X336594Y270915D02*
Y283415D01*
X337094Y270915D02*
Y283415D01*
X337594Y261415D02*
Y283415D01*
X338094Y261415D02*
Y283415D01*
X338594Y261415D02*
Y283415D01*
X339094Y261415D02*
Y283415D01*
X339594Y261415D02*
Y283415D01*
X340094Y261415D02*
Y283415D01*
X340594Y261415D02*
Y283415D01*
X341094Y261415D02*
Y283415D01*
X341594Y261415D02*
Y283415D01*
X342094Y261415D02*
Y283415D01*
X342594Y261415D02*
Y283415D01*
X343094Y261415D02*
Y283415D01*
X343594Y261415D02*
Y283415D01*
X344094Y261415D02*
Y283415D01*
X344594Y261415D02*
Y283415D01*
X345094Y261415D02*
Y283415D01*
X345594Y261415D02*
Y283415D01*
X346094Y261415D02*
Y283415D01*
X346594Y261415D02*
Y283415D01*
X347094Y261415D02*
Y283415D01*
X347594Y261415D02*
Y283415D01*
X348094Y261415D02*
Y283415D01*
X348594Y261415D02*
Y283415D01*
X349094Y261415D02*
Y283415D01*
X349594Y261415D02*
Y283415D01*
X350094Y261415D02*
Y283415D01*
X350594Y261415D02*
Y283415D01*
X351094Y270915D02*
Y283415D01*
X351594Y270915D02*
Y283415D01*
X352094Y270915D02*
Y283415D01*
X352594Y270915D02*
Y283415D01*
X353094Y270915D02*
Y283415D01*
X353594Y270915D02*
Y283415D01*
X354094Y270915D02*
Y283415D01*
X354594Y270915D02*
Y283415D01*
X355094Y270915D02*
Y283415D01*
X355594Y270915D02*
Y283415D01*
X356094Y270915D02*
Y283415D01*
X418337Y286165D02*
Y292915D01*
X413837*
Y286165*
X418337*
X414087D02*
Y292915D01*
X414587Y286165D02*
Y292915D01*
X415087Y286165D02*
Y292915D01*
X415587Y286165D02*
Y292915D01*
X416087Y286165D02*
Y292915D01*
X416587Y286165D02*
Y292915D01*
X417087Y286165D02*
Y292915D01*
X417587Y286165D02*
Y292915D01*
X418087Y286165D02*
Y292915D01*
X409337Y286165D02*
Y292915D01*
X404837*
Y286165*
X409337*
X405087D02*
Y292915D01*
X405587Y286165D02*
Y292915D01*
X406087Y286165D02*
Y292915D01*
X406587Y286165D02*
Y292915D01*
X407087Y286165D02*
Y292915D01*
X407587Y286165D02*
Y292915D01*
X408087Y286165D02*
Y292915D01*
X408587Y286165D02*
Y292915D01*
X409087Y286165D02*
Y292915D01*
X400337Y286165D02*
Y292915D01*
X395837*
Y286165*
X400337*
X396087D02*
Y292915D01*
X396587Y286165D02*
Y292915D01*
X397087Y286165D02*
Y292915D01*
X397587Y286165D02*
Y292915D01*
X398087Y286165D02*
Y292915D01*
X398587Y286165D02*
Y292915D01*
X399087Y286165D02*
Y292915D01*
X399587Y286165D02*
Y292915D01*
X400087Y286165D02*
Y292915D01*
X413837Y261415D02*
Y270915D01*
X419587*
Y283415*
X394587*
Y270915*
X400337*
Y261415*
X413837*
X394587Y270915D02*
Y283415D01*
X395087Y270915D02*
Y283415D01*
X395587Y270915D02*
Y283415D01*
X396087Y270915D02*
Y283415D01*
X396587Y270915D02*
Y283415D01*
X397087Y270915D02*
Y283415D01*
X397587Y270915D02*
Y283415D01*
X398087Y270915D02*
Y283415D01*
X398587Y270915D02*
Y283415D01*
X399087Y270915D02*
Y283415D01*
X399587Y270915D02*
Y283415D01*
X400087Y270915D02*
Y283415D01*
X400587Y261415D02*
Y283415D01*
X401087Y261415D02*
Y283415D01*
X401587Y261415D02*
Y283415D01*
X402087Y261415D02*
Y283415D01*
X402587Y261415D02*
Y283415D01*
X403087Y261415D02*
Y283415D01*
X403587Y261415D02*
Y283415D01*
X404087Y261415D02*
Y283415D01*
X404587Y261415D02*
Y283415D01*
X405087Y261415D02*
Y283415D01*
X405587Y261415D02*
Y283415D01*
X406087Y261415D02*
Y283415D01*
X406587Y261415D02*
Y283415D01*
X407087Y261415D02*
Y283415D01*
X407587Y261415D02*
Y283415D01*
X408087Y261415D02*
Y283415D01*
X408587Y261415D02*
Y283415D01*
X409087Y261415D02*
Y283415D01*
X409587Y261415D02*
Y283415D01*
X410087Y261415D02*
Y283415D01*
X410587Y261415D02*
Y283415D01*
X411087Y261415D02*
Y283415D01*
X411587Y261415D02*
Y283415D01*
X412087Y261415D02*
Y283415D01*
X412587Y261415D02*
Y283415D01*
X413087Y261415D02*
Y283415D01*
X413587Y261415D02*
Y283415D01*
X414087Y270915D02*
Y283415D01*
X414587Y270915D02*
Y283415D01*
X415087Y270915D02*
Y283415D01*
X415587Y270915D02*
Y283415D01*
X416087Y270915D02*
Y283415D01*
X416587Y270915D02*
Y283415D01*
X417087Y270915D02*
Y283415D01*
X417587Y270915D02*
Y283415D01*
X418087Y270915D02*
Y283415D01*
X418587Y270915D02*
Y283415D01*
X419087Y270915D02*
Y283415D01*
X223622Y180315D02*
Y185827D01*
X218898*
Y180315*
X223622*
X219110D02*
Y185827D01*
X219610Y180315D02*
Y185827D01*
X220110Y180315D02*
Y185827D01*
X220610Y180315D02*
Y185827D01*
X221110Y180315D02*
Y185827D01*
X221610Y180315D02*
Y185827D01*
X222110Y180315D02*
Y185827D01*
X222610Y180315D02*
Y185827D01*
X223110Y180315D02*
Y185827D01*
X223610Y180315D02*
Y185827D01*
X217323Y177165D02*
X212598D01*
Y171654*
X217323*
Y177165*
X212610Y171654D02*
Y177165D01*
X213110Y171654D02*
Y177165D01*
X213610Y171654D02*
Y177165D01*
X214110Y171654D02*
Y177165D01*
X214610Y171654D02*
Y177165D01*
X215110Y171654D02*
Y177165D01*
X215610Y171654D02*
Y177165D01*
X216110Y171654D02*
Y177165D01*
X216610Y171654D02*
Y177165D01*
X217110Y171654D02*
Y177165D01*
G54D92*
X115748Y115748D03*
X871654D03*
X115748Y379528D03*
X871654D03*
X916929Y111811D03*
Y383465D03*
G54D95*
X934646Y257480D03*
X926772D03*
X934646Y288976D03*
X926772D03*
X934646Y320472D03*
X926772D03*
X934646Y351969D03*
X926772D03*
X899213D03*
X907087D03*
X899213Y320472D03*
X907087D03*
X899213Y288976D03*
X907087D03*
X899213Y257480D03*
X907087D03*
X899213Y225984D03*
X907087D03*
X899213Y194488D03*
X907087D03*
X899213Y162992D03*
X907087D03*
X899213Y131496D03*
X907087D03*
X664961Y141339D03*
Y149213D03*
G54D96*
X225984Y367717D03*
X212234D03*
X288976D03*
X275226D03*
X351969D03*
X338219D03*
X414961D03*
X401211D03*
X477953D03*
X464203D03*
X540945D03*
X527195D03*
X603937D03*
X590187D03*
X162992D03*
X149242D03*
G54D97*
X491850Y136614D03*
X483819D03*
X487835Y146614D03*
X479803D03*
X554843Y136614D03*
X546811D03*
X550827Y146614D03*
X542795D03*
X184488Y265354D03*
Y235354D03*
X194488D03*
X247480Y265354D03*
Y235354D03*
X257480D03*
X310472Y265354D03*
Y235354D03*
X320472D03*
X373465Y265354D03*
Y235354D03*
X383465D03*
X436457Y265354D03*
Y235354D03*
X446457D03*
X499449Y265354D03*
Y235354D03*
X509449D03*
X562441Y265354D03*
Y235354D03*
X572441D03*
X625433Y265354D03*
Y235354D03*
X635433D03*
X418898Y107874D03*
X428740D03*
X438583D03*
X367717D03*
X377559D03*
X387402D03*
X215984Y206299D03*
X184646Y363780D03*
X188583Y387402D03*
X247638Y363780D03*
X251575Y387402D03*
X310630Y363780D03*
X314567Y387402D03*
X373622Y363780D03*
X377559Y387402D03*
X436614Y363780D03*
X440551Y387402D03*
X499606Y363780D03*
X503543Y387402D03*
X562598Y363780D03*
X566535Y387402D03*
X625591Y363780D03*
X629528Y387402D03*
X830315Y312598D03*
X834252Y336220D03*
X196614Y107874D03*
X206614D03*
X216614D03*
Y137874D03*
X206614D03*
X196614D03*
X186614D03*
X351969Y178740D03*
X657087Y322441D03*
X690551Y190551D03*
X832283Y359843D03*
G54D99*
X741732Y301280D03*
Y285039D03*
X765354Y175295D03*
Y159055D03*
G54D100*
X194488Y265354D03*
X257480D03*
X320472D03*
X383465D03*
X446457D03*
X509449D03*
X572441D03*
X635433D03*
X225984Y206299D03*
X186614Y107874D03*
G54D101*
X863780Y314566D03*
Y334252D03*
G54D104*
X119685Y178740D03*
X635433Y198425D03*
X934646Y210236D03*
G54D105*
X111811Y178740D03*
X119685Y186614D03*
X111811D03*
X119685Y194488D03*
X111811D03*
X119685Y202362D03*
X111811D03*
X119685Y210236D03*
X111811D03*
X643307Y198425D03*
X635433Y190551D03*
X643307D03*
X635433Y182677D03*
X643307D03*
X635433Y174803D03*
X643307D03*
X635433Y166929D03*
X643307D03*
X635433Y159055D03*
X643307D03*
X635433Y151181D03*
X643307D03*
X635433Y143307D03*
X643307D03*
X926772Y210236D03*
X934646Y202362D03*
X926772D03*
X934646Y194488D03*
X926772D03*
X934646Y186614D03*
X926772D03*
X934646Y178740D03*
X926772D03*
X934646Y170866D03*
X926772D03*
X934646Y162992D03*
X926772D03*
X934646Y155118D03*
X926772D03*
G54D108*
X687598Y332283D03*
X669882D03*
X723031Y214173D03*
X705315D03*
G54D110*
X739764Y336220D03*
X720079D03*
X767323Y210236D03*
X747638D03*
G54D112*
X150197Y109843D03*
X167913D03*
X150197Y145276D03*
X167913D03*
G54D113*
X453957Y201851D03*
X448957D03*
X443957D03*
X438957D03*
Y179251D03*
X443957D03*
X448957D03*
X453957D03*
X555945Y201851D03*
X550945D03*
X545945D03*
X540945D03*
X535945D03*
X530945D03*
X525945D03*
Y179251D03*
X530945D03*
X535945D03*
X540945D03*
X545945D03*
X550945D03*
X555945D03*
X603189Y201851D03*
X598189D03*
X593189D03*
X588189D03*
X583189D03*
X578189D03*
X573189D03*
Y179251D03*
X578189D03*
X583189D03*
X588189D03*
X593189D03*
X598189D03*
X603189D03*
X508701Y201851D03*
X503701D03*
X498701D03*
X493701D03*
X488701D03*
X483701D03*
X478701D03*
Y179251D03*
X483701D03*
X488701D03*
X493701D03*
X498701D03*
X503701D03*
X508701D03*
X377776D03*
X382776D03*
X387776D03*
X392776D03*
X397776D03*
X402776D03*
X407776D03*
X412776D03*
Y201851D03*
X407776D03*
X402776D03*
X397776D03*
X392776D03*
X387776D03*
X382776D03*
X377776D03*
G54D114*
X769802Y272854D03*
Y267854D03*
Y262854D03*
Y257854D03*
X792402D03*
Y262854D03*
Y267854D03*
Y272854D03*
X797361Y146870D03*
Y141870D03*
Y136870D03*
Y131870D03*
X819961D03*
Y136870D03*
Y141870D03*
Y146870D03*
G54D115*
X273210Y148490D03*
X275180D03*
X277150D03*
X279120D03*
X281090D03*
X283060D03*
X285030D03*
X287000D03*
X288970D03*
X290940D03*
X292910D03*
X294880D03*
X296850D03*
X298820D03*
X300790D03*
X302760D03*
X304730D03*
X306700D03*
X308670D03*
X310640D03*
X312610D03*
X314580D03*
X316550D03*
X318520D03*
X320490D03*
Y208990D03*
X318520D03*
X316550D03*
X314580D03*
X312610D03*
X310640D03*
X308670D03*
X306700D03*
X304730D03*
X302760D03*
X300790D03*
X298820D03*
X296850D03*
X294880D03*
X292910D03*
X290940D03*
X288970D03*
X287000D03*
X285030D03*
X283060D03*
X281090D03*
X279120D03*
X277150D03*
X275180D03*
X273210D03*
G54D116*
X266600Y202380D03*
Y200410D03*
Y198440D03*
Y196470D03*
Y194500D03*
Y192530D03*
Y190560D03*
Y188590D03*
Y186620D03*
Y184650D03*
Y182680D03*
Y180710D03*
Y178740D03*
Y176770D03*
Y174800D03*
Y172830D03*
Y170860D03*
Y168890D03*
Y166920D03*
Y164950D03*
Y162980D03*
Y161010D03*
Y159040D03*
Y157070D03*
Y155100D03*
X327100D03*
Y157070D03*
Y159040D03*
Y161010D03*
Y162980D03*
Y164950D03*
Y166920D03*
Y168890D03*
Y170860D03*
Y172830D03*
Y174800D03*
Y176770D03*
Y178740D03*
Y180710D03*
Y182680D03*
Y184650D03*
Y186620D03*
Y188590D03*
Y190560D03*
Y192530D03*
Y194500D03*
Y196470D03*
Y198440D03*
Y200410D03*
Y202380D03*
G54D124*
X505512Y127559D03*
X466142D03*
X568504D03*
X529134D03*
G54D125*
X164961Y348622D03*
X145276D03*
Y315945D03*
X164961D03*
X479921Y348622D03*
X460236D03*
Y315945D03*
X479921D03*
X542913Y348622D03*
X523228D03*
Y315945D03*
X542913D03*
X605906Y348622D03*
X586220D03*
Y315945D03*
X605906D03*
X227953Y348622D03*
X208268D03*
Y315945D03*
X227953D03*
X290945Y348622D03*
X271260D03*
Y315945D03*
X290945D03*
X353937Y348622D03*
X334252D03*
Y315945D03*
X353937D03*
X416929Y348622D03*
X397244D03*
Y315945D03*
X416929D03*
G54D126*
X863780Y265354D03*
Y198425D03*
G54D127*
X214961Y183071D03*
X221260Y174409D03*
X0Y0D02*
M02*
