*
*
G04 PADS Layout (Build Number 2005.266.2) generated Gerber (RS-274-X) file*
G04 PC Version=2.1*
*
%IN "cflora_base_1125.pcb"*%
*
%MOMM*%
*
%FSLAX35Y35*%
*
*
*
*
G04 PC Standard Apertures*
*
*
G04 Thermal Relief Aperture macro.*
%AMTER*
1,1,$1,0,0*
1,0,$1-$2,0,0*
21,0,$3,$4,0,0,45*
21,0,$3,$4,0,0,135*
%
*
*
G04 Annular Aperture macro.*
%AMANN*
1,1,$1,0,0*
1,0,$2,0,0*
%
*
*
G04 Odd Aperture macro.*
%AMODD*
1,1,$1,0,0*
1,0,$1-0.005,0,0*
%
*
*
G04 PC Custom Aperture Macros*
*
*
*
*
*
*
G04 PC Aperture Table*
*
%ADD012C,0.1524*%
%ADD013C,0.0254*%
%ADD015C,0.2032*%
%ADD033C,1.5*%
%ADD034R,1.4224X1.4224*%
%ADD035C,1.4224*%
%ADD036C,2*%
%ADD039C,2.5*%
%ADD042R,2.54X2.54*%
%ADD045O,2.032X0.508*%
%ADD055C,1.016*%
%ADD058C,0.254*%
%ADD059C,0.3048*%
%ADD069R,1.5X1.5*%
%ADD098R,1.6X1.6*%
%ADD101R,2X2*%
%ADD103C,1.6*%
%ADD104R,7X7*%
%ADD105R,1.25X1.25*%
%ADD106C,1.25*%
%ADD107C,2.6*%
%ADD108R,3.3X3.3*%
%ADD109C,0.6096*%
%ADD110C,0.508*%
%ADD111R,1.3208X1.3208*%
%ADD112C,1.3208*%
%ADD113C,3.2512*%
%ADD114C,0.381*%
%ADD115R,0.4064X0.4064*%
%ADD116R,1.2X1.2*%
%ADD117C,6.2*%
%ADD118C,4.5*%
%ADD119R,1.016X1.016*%
%ADD120C,0.2*%
%ADD125C,0.1778*%
%ADD126C,0.35*%
*
*
*
*
G04 PC Custom Flashes*
G04 Layer Name cflora_base_1125.pcb - flashes*
%LPD*%
*
*
G04 PC Circuitry*
G04 Layer Name cflora_base_1125.pcb - circuitry*
%LPD*%
*
G54D12*
G01X29355000Y24846000D02*
Y25354000D01*
X35705000*
Y24846000*
X29355000*
Y25100000D02*
X29609000D01*
Y24846000*
X29355000Y12746000D02*
Y13254000D01*
X35705000*
Y12746000*
X29355000*
Y13000000D02*
X29609000D01*
Y12746000*
X31825000Y22375000D02*
X32125000Y22675000D01*
X34375000*
Y20125000*
X31825000*
Y22375000*
Y21825000D02*
X31725000D01*
X31825000Y21325000D02*
X31725000D01*
X31825000Y20825000D02*
X31725000D01*
X32375000Y20125000D02*
Y20025000D01*
X34375000Y21875000D02*
X34475000D01*
X34375000Y21375000D02*
X34475000D01*
X34375000Y20875000D02*
X34475000D01*
X33875000Y20125000D02*
Y20025000D01*
X33375000Y20125000D02*
Y20025000D01*
X32875000Y20125000D02*
Y20025000D01*
X33925000Y22675000D02*
Y22775000D01*
X33425000Y22675000D02*
Y22775000D01*
X32425000Y22675000D02*
Y22775000D01*
X32925000Y22675000D02*
Y22775000D01*
X31825000Y22275000D02*
X31775000Y22325000D01*
Y22225000*
X31825000Y22275000*
X33100000Y21500000D02*
Y21300000D01*
X33000000Y21400000D02*
X33200000D01*
X29316431Y21275000D02*
X29443431D01*
X29379931Y21338501D02*
Y21211501D01*
X29829931Y21875001D02*
X29979931Y21725001D01*
Y20675001*
X28779931*
Y21875001*
X29829931*
X29655000Y21875000D02*
X29705000Y21925000D01*
X29605000*
X29655000Y21875000*
X29205000D02*
Y21925000D01*
X28780000Y21200000D02*
X28730000D01*
X29355000Y20675000D02*
Y20625000D01*
X29980000Y21150000D02*
X30030000D01*
X27064000Y24094600D02*
X25413000D01*
Y22316600*
X27064000*
Y24094600*
X38710000Y21791400D02*
X37850000D01*
Y21158600*
X38710000*
Y21791400*
X38241900Y21475000D02*
X38318100D01*
X38280000Y21513100D02*
Y21436900D01*
X37949800Y21802800D02*
X37999800Y21852800D01*
X37899800*
X37949800Y21802800*
Y21812800D02*
X37984800Y21847800D01*
X37919800*
X37952300Y21815300*
X37949800Y21822800D02*
X37964800Y21837800D01*
X37939800*
X37947300Y21830300*
X38715004Y22339999D02*
X38344996D01*
Y22110001*
X38715004*
Y22339999*
X38334400Y22288500D02*
X38270900Y22352000D01*
Y22225000*
X38334400Y22288500*
X38321700D02*
X38277250Y22332950D01*
Y22250400*
X38318525Y22291675*
X38309000Y22288500D02*
X38283600Y22313900D01*
Y22275800*
X38296300Y22288500*
X38520000Y22225000D02*
X38540000D01*
X38530000Y22205000D02*
Y22245000D01*
X38324100Y23329000D02*
X37485900D01*
Y22821000*
X38324100*
Y23329000*
X37625600Y23341700D02*
X37562100Y23405200D01*
X37689100*
X37625600Y23341700*
X37638300Y23379800D02*
X37612900D01*
X37625600Y23367100*
X37638300Y23379800*
X37841500Y23329000D02*
G75*
G03X37968500I63500J0D01*
G01X37841500Y23075000D02*
X37968500D01*
X37905000Y23138500D02*
Y23011500D01*
X29617500Y20065000D02*
X29587500Y20035000D01*
X29647500*
X29617500Y20065000*
Y20055000D02*
X29607500Y20045000D01*
X29627500*
X29617500Y20055000*
X29530000Y20375000D02*
X29930000D01*
Y20075000*
X29530000*
Y20375000*
X31265000Y21237500D02*
X31235000Y21267500D01*
Y21207500*
X31265000Y21237500*
X31255000D02*
X31245000Y21247500D01*
Y21227500*
X31255000Y21237500*
X31575000Y21325000D02*
Y20925000D01*
X31275000*
Y21325000*
X31575000*
X31498800Y21949200D02*
X31435300D01*
X31498800Y22050800D02*
X31435300D01*
Y21860300D02*
Y22139700D01*
X30749500*
Y21860300*
X31435300*
X36480000Y18100000D02*
G03X36780000Y18400000I0J300000D01*
G01X36480000Y18100000D02*
X28580000D01*
X28280000Y18400000D02*
G03X28580000Y18100000I300000J0D01*
G01X28280000Y18400000D02*
Y23400000D01*
X28580000Y23700000D02*
G03X28280000Y23400000I0J-300000D01*
G01X28580000Y23700000D02*
X36480000D01*
X36780000Y23400000D02*
G03X36480000Y23700000I-300000J0D01*
G01X36780000Y23400000D02*
Y18400000D01*
G54D13*
X25400000Y10400000D02*
X25400067D01*
X25400000Y25400000D02*
X25400067D01*
X25125000Y12700000D02*
X25125067D01*
X25400000Y25400000D02*
X25400067D01*
X25400000Y10400000D02*
X25400067D01*
X32530000Y9320000D02*
X32530067D01*
X32229250Y10850000D02*
X32229317D01*
X32829250D02*
X32829317D01*
X25800000Y10800000D02*
X25800067D01*
X25400000Y10400000D02*
X25400067D01*
X25400000D02*
X25400067D01*
X25800000Y10800000D02*
X25800067D01*
X25400000Y10400000D02*
X25400067D01*
X39660000D02*
X39660067D01*
G54D15*
X37663700Y23392500D02*
X37587500D01*
X37625600Y23354400*
X37663700Y23392500*
G54D33*
X39055000Y20250000D03*
X39255000D03*
X33780000Y14600000D03*
X33580000D03*
X38445000Y19895000D03*
X37945000D03*
G54D34*
X29482000Y24973000D03*
Y12873000D03*
G54D35*
Y25227000D03*
X29736000Y24973000D03*
Y25227000D03*
X29990000Y24973000D03*
Y25227000D03*
X30244000Y24973000D03*
Y25227000D03*
X30498000Y24973000D03*
Y25227000D03*
X30752000Y24973000D03*
Y25227000D03*
X31006000Y24973000D03*
Y25227000D03*
X31260000Y24973000D03*
Y25227000D03*
X31514000Y24973000D03*
Y25227000D03*
X31768000Y24973000D03*
Y25227000D03*
X32022000Y24973000D03*
Y25227000D03*
X32276000Y24973000D03*
Y25227000D03*
X32530000Y24973000D03*
Y25227000D03*
X32784000Y24973000D03*
Y25227000D03*
X33038000Y24973000D03*
Y25227000D03*
X33292000Y24973000D03*
Y25227000D03*
X33546000Y24973000D03*
Y25227000D03*
X33800000Y24973000D03*
Y25227000D03*
X34054000Y24973000D03*
Y25227000D03*
X34308000Y24973000D03*
Y25227000D03*
X34562000Y24973000D03*
Y25227000D03*
X34816000Y24973000D03*
Y25227000D03*
X35070000Y24973000D03*
Y25227000D03*
X35324000Y24973000D03*
Y25227000D03*
X35578000Y24973000D03*
Y25227000D03*
X29482000Y13127000D03*
X29736000Y12873000D03*
Y13127000D03*
X29990000Y12873000D03*
Y13127000D03*
X30244000Y12873000D03*
Y13127000D03*
X30498000Y12873000D03*
Y13127000D03*
X30752000Y12873000D03*
Y13127000D03*
X31006000Y12873000D03*
Y13127000D03*
X31260000Y12873000D03*
Y13127000D03*
X31514000Y12873000D03*
Y13127000D03*
X31768000Y12873000D03*
Y13127000D03*
X32022000Y12873000D03*
Y13127000D03*
X32276000Y12873000D03*
Y13127000D03*
X32530000Y12873000D03*
Y13127000D03*
X32784000Y12873000D03*
Y13127000D03*
X33038000Y12873000D03*
Y13127000D03*
X33292000Y12873000D03*
Y13127000D03*
X33546000Y12873000D03*
Y13127000D03*
X33800000Y12873000D03*
Y13127000D03*
X34054000Y12873000D03*
Y13127000D03*
X34308000Y12873000D03*
Y13127000D03*
X34562000Y12873000D03*
Y13127000D03*
X34816000Y12873000D03*
Y13127000D03*
X35070000Y12873000D03*
Y13127000D03*
X35324000Y12873000D03*
Y13127000D03*
X35578000Y12873000D03*
Y13127000D03*
G54D36*
X27679250Y10850000D03*
X27330000D03*
X26979250D03*
X28979250Y11950000D03*
X28630000D03*
X28279250D03*
X28979250Y10850000D03*
X28630000D03*
X28279250D03*
X30279250Y11950000D03*
X29930000D03*
X29579250D03*
X30279250Y10850000D03*
X29930000D03*
X29579250D03*
X31579250Y11950000D03*
X31230000D03*
X30879250D03*
X31579250Y10850000D03*
X31230000D03*
X30879250D03*
X32879250Y11950000D03*
X32530000D03*
X32179250D03*
X32879250Y10850000D03*
X32530000D03*
X32179250D03*
X34179250Y11950000D03*
X33830000D03*
X33479250D03*
X34179250Y10850000D03*
X33830000D03*
X33479250D03*
X35479250Y11950000D03*
X35130000D03*
X34779250D03*
X35479250Y10850000D03*
X35130000D03*
X34779250D03*
X36779250Y11950000D03*
X36430000D03*
X36079250D03*
X36779250Y10850000D03*
X36430000D03*
X36079250D03*
X27679250Y11950000D03*
X27330000D03*
X26979250D03*
X38079250D03*
X37730000D03*
X37379250D03*
X38079250Y10850000D03*
X37730000D03*
X37379250D03*
G54D39*
X26125000Y20100000D03*
Y21300000D03*
Y18550000D03*
Y19750000D03*
X26263900Y24018400D03*
Y22392800D03*
G54D42*
X31295600Y22000000D02*
X30889200D01*
G54D45*
X37619250Y23265500D03*
Y23138500D03*
Y23011500D03*
Y22884500D03*
X38190750D03*
Y23011500D03*
Y23138500D03*
Y23265500D03*
G54D55*
X31575000Y22100000D03*
G54D58*
X27330000Y19750000D02*
X27180000D01*
X27330000Y19788100D02*
Y19928206D01*
X27305006Y19953200*
X27204994*
X27180000Y19928206*
Y19788100*
X27330000Y19711900D02*
Y19546800D01*
X27180000*
Y19711900*
X28025000Y23250000D02*
Y23100000D01*
X27986900Y23250000D02*
X27846794D01*
X27821800Y23225006*
Y23124994*
X27846794Y23100000*
X27986900*
X28063100Y23250000D02*
X28228200D01*
Y23100000*
X28063100*
X28025000Y23625000D02*
Y23475000D01*
X27986900Y23625000D02*
X27846794D01*
X27821800Y23600006*
Y23499994*
X27846794Y23475000*
X27986900*
X28063100Y23625000D02*
X28228200D01*
Y23475000*
X28063100*
X29730000Y19975000D02*
Y19825000D01*
X29691900Y19975000D02*
X29551794D01*
X29526800Y19950006*
Y19849994*
X29551794Y19825000*
X29691900*
X29768100Y19975000D02*
X29933200D01*
Y19825000*
X29768100*
X27500000Y22850000D02*
Y22700000D01*
X27461900Y22850000D02*
X27321794D01*
X27296800Y22825006*
Y22724994*
X27321794Y22700000*
X27461900*
X27538100Y22850000D02*
X27703200D01*
Y22700000*
X27538100*
X27500000Y23450000D02*
Y23300000D01*
X27461900Y23450000D02*
X27321794D01*
X27296800Y23425006*
Y23324994*
X27321794Y23300000*
X27461900*
X27538100Y23450000D02*
X27703200D01*
Y23300000*
X27538100*
X30180000Y20175000D02*
X30030000D01*
X30180000Y20213100D02*
Y20353206D01*
X30155006Y20378200*
X30054994*
X30030000Y20353206*
Y20213100*
X30180000Y20136900D02*
Y19971800D01*
X30030000*
Y20136900*
X26386500Y22064300D02*
X26200000D01*
Y21835700*
X26386500*
X26513500Y22064300D02*
X26712500D01*
Y21835700*
X26513500*
X37200000Y17050000D02*
X37350000D01*
X37200000Y17011900D02*
Y16871794D01*
X37224994Y16846800*
X37325006*
X37350000Y16871794*
Y17011900*
X37200000Y17088100D02*
Y17253200D01*
X37350000*
Y17088100*
X35025000Y16975000D02*
X35175000D01*
X35025000Y16936900D02*
Y16796794D01*
X35049994Y16771800*
X35150006*
X35175000Y16796794*
Y16936900*
X35025000Y17013100D02*
Y17178200D01*
X35175000*
Y17013100*
X37300000Y15175000D02*
Y15325000D01*
X37338100Y15175000D02*
X37478206D01*
X37503200Y15199994*
Y15300006*
X37478206Y15325000*
X37338100*
X37261900Y15175000D02*
X37096800D01*
Y15325000*
X37261900*
X27530000Y19750000D02*
X27380000D01*
X27530000Y19788100D02*
Y19928206D01*
X27505006Y19953200*
X27404994*
X27380000Y19928206*
Y19788100*
X27530000Y19711900D02*
Y19546800D01*
X27380000*
Y19711900*
X39550000Y16900000D02*
X39400000D01*
X39550000Y16938100D02*
Y17078206D01*
X39525006Y17103200*
X39424994*
X39400000Y17078206*
Y16938100*
X39550000Y16861900D02*
Y16696800D01*
X39400000*
Y16861900*
X33625000Y16350000D02*
X33475000D01*
X33625000Y16388100D02*
Y16528206D01*
X33600006Y16553200*
X33499994*
X33475000Y16528206*
Y16388100*
X33625000Y16311900D02*
Y16146800D01*
X33475000*
Y16311900*
X32300000Y15925000D02*
Y16075000D01*
X32338100Y15925000D02*
X32478206D01*
X32503200Y15949994*
Y16050006*
X32478206Y16075000*
X32338100*
X32261900Y15925000D02*
X32096800D01*
Y16075000*
X32261900*
X38150000Y14575000D02*
X38300000D01*
X38150000Y14536900D02*
Y14396794D01*
X38174994Y14371800*
X38275006*
X38300000Y14396794*
Y14536900*
X38150000Y14613100D02*
Y14778200D01*
X38300000*
Y14613100*
X35475000Y15925000D02*
Y16075000D01*
X35513100Y15925000D02*
X35653206D01*
X35678200Y15949994*
Y16050006*
X35653206Y16075000*
X35513100*
X35436900Y15925000D02*
X35271800D01*
Y16075000*
X35436900*
X33550000Y15925000D02*
Y16075000D01*
X33588100Y15925000D02*
X33728206D01*
X33753200Y15949994*
Y16050006*
X33728206Y16075000*
X33588100*
X33511900Y15925000D02*
X33346800D01*
Y16075000*
X33511900*
X34200000Y16625000D02*
Y16775000D01*
X34238100Y16625000D02*
X34378206D01*
X34403200Y16649994*
Y16750006*
X34378206Y16775000*
X34238100*
X34161900Y16625000D02*
X33996800D01*
Y16775000*
X34161900*
X35950000Y17000000D02*
X36100000D01*
X35950000Y16961900D02*
Y16821794D01*
X35974994Y16796800*
X36075006*
X36100000Y16821794*
Y16961900*
X35950000Y17038100D02*
Y17203200D01*
X36100000*
Y17038100*
X29680000Y16275000D02*
Y16425000D01*
X29718100Y16275000D02*
X29858206D01*
X29883200Y16299994*
Y16400006*
X29858206Y16425000*
X29718100*
X29641900Y16275000D02*
X29476800D01*
Y16425000*
X29641900*
X39055000Y22300000D02*
Y22150000D01*
X39016900Y22300000D02*
X38876794D01*
X38851800Y22275006*
Y22174994*
X38876794Y22150000*
X39016900*
X39093100Y22300000D02*
X39258200D01*
Y22150000*
X39093100*
X29430000Y20200000D02*
X29280000D01*
X29430000Y20238100D02*
Y20378206D01*
X29405006Y20403200*
X29304994*
X29280000Y20378206*
Y20238100*
X29430000Y20161900D02*
Y19996800D01*
X29280000*
Y20161900*
X38280000Y22025000D02*
Y21875000D01*
X38241900Y22025000D02*
X38101794D01*
X38076800Y22000006*
Y21899994*
X38101794Y21875000*
X38241900*
X38318100Y22025000D02*
X38483200D01*
Y21875000*
X38318100*
X38755000D02*
Y22025000D01*
X38793100Y21875000D02*
X38933206D01*
X38958200Y21899994*
Y22000006*
X38933206Y22025000*
X38793100*
X38716900Y21875000D02*
X38551800D01*
Y22025000*
X38716900*
X37455000Y21725000D02*
Y21575000D01*
X37416900Y21725000D02*
X37276794D01*
X37251800Y21700006*
Y21599994*
X37276794Y21575000*
X37416900*
X37493100Y21725000D02*
X37658200D01*
Y21575000*
X37493100*
X37450000Y21500000D02*
Y21350000D01*
X37411900Y21500000D02*
X37271794D01*
X37246800Y21475006*
Y21374994*
X37271794Y21350000*
X37411900*
X37488100Y21500000D02*
X37653200D01*
Y21350000*
X37488100*
X37455000Y21300000D02*
Y21150000D01*
X37416900Y21300000D02*
X37276794D01*
X37251800Y21275006*
Y21174994*
X37276794Y21150000*
X37416900*
X37493100Y21300000D02*
X37658200D01*
Y21150000*
X37493100*
X37905000Y23425000D02*
Y23575000D01*
X37943100Y23425000D02*
X38083206D01*
X38108200Y23449994*
Y23550006*
X38083206Y23575000*
X37943100*
X37866900Y23425000D02*
X37701800D01*
Y23575000*
X37866900*
X31400000Y20700000D02*
Y20850000D01*
X31438100Y20700000D02*
X31578206D01*
X31603200Y20724994*
Y20825006*
X31578206Y20850000*
X31438100*
X31361900Y20700000D02*
X31196800D01*
Y20850000*
X31361900*
X31400000Y21575000D02*
Y21425000D01*
X31361900Y21575000D02*
X31221794D01*
X31196800Y21550006*
Y21449994*
X31221794Y21425000*
X31361900*
X31438100Y21575000D02*
X31603200D01*
Y21425000*
X31438100*
X31305000Y17850000D02*
Y17700000D01*
X31266900Y17850000D02*
X31126794D01*
X31101800Y17825006*
Y17724994*
X31126794Y17700000*
X31266900*
X31343100Y17850000D02*
X31508200D01*
Y17700000*
X31343100*
X30335000Y17850000D02*
Y17700000D01*
X30296900Y17850000D02*
X30156794D01*
X30131800Y17825006*
Y17724994*
X30156794Y17700000*
X30296900*
X30373100Y17850000D02*
X30538200D01*
Y17700000*
X30373100*
X29225000Y22225000D02*
X29375000D01*
X29225000Y22186900D02*
Y22046794D01*
X29249994Y22021800*
X29350006*
X29375000Y22046794*
Y22186900*
X29225000Y22263100D02*
Y22428200D01*
X29375000*
Y22263100*
X31405000Y22200000D02*
Y22350000D01*
X31443100Y22200000D02*
X31583206D01*
X31608200Y22224994*
Y22325006*
X31583206Y22350000*
X31443100*
X31366900Y22200000D02*
X31201800D01*
Y22350000*
X31366900*
X31405000Y21650000D02*
Y21800000D01*
X31443100Y21650000D02*
X31583206D01*
X31608200Y21674994*
Y21775006*
X31583206Y21800000*
X31443100*
X31366900Y21650000D02*
X31201800D01*
Y21800000*
X31366900*
X34775000Y22525000D02*
Y22375000D01*
X34736900Y22525000D02*
X34596794D01*
X34571800Y22500006*
Y22399994*
X34596794Y22375000*
X34736900*
X34813100Y22525000D02*
X34978200D01*
Y22375000*
X34813100*
X33300000Y23200000D02*
X33450000D01*
X33300000Y23161900D02*
Y23021794D01*
X33324994Y22996800*
X33425006*
X33450000Y23021794*
Y23161900*
X33300000Y23238100D02*
Y23403200D01*
X33450000*
Y23238100*
X31775000Y19725000D02*
X31625000D01*
X31775000Y19763100D02*
Y19903206D01*
X31750006Y19928200*
X31649994*
X31625000Y19903206*
Y19763100*
X31775000Y19686900D02*
Y19521800D01*
X31625000*
Y19686900*
X33150000Y19725000D02*
X33000000D01*
X33150000Y19763100D02*
Y19903206D01*
X33125006Y19928200*
X33024994*
X33000000Y19903206*
Y19763100*
X33150000Y19686900D02*
Y19521800D01*
X33000000*
Y19686900*
X34775000Y22325000D02*
Y22175000D01*
X34736900Y22325000D02*
X34596794D01*
X34571800Y22300006*
Y22199994*
X34596794Y22175000*
X34736900*
X34813100Y22325000D02*
X34978200D01*
Y22175000*
X34813100*
X34000000Y19725000D02*
X33850000D01*
X34000000Y19763100D02*
Y19903206D01*
X33975006Y19928200*
X33874994*
X33850000Y19903206*
Y19763100*
X34000000Y19686900D02*
Y19521800D01*
X33850000*
Y19686900*
X37470000Y20345000D02*
X37620000D01*
X37470000Y20306900D02*
Y20166794D01*
X37494994Y20141800*
X37595006*
X37620000Y20166794*
Y20306900*
X37470000Y20383100D02*
Y20548200D01*
X37620000*
Y20383100*
X29600000Y22225000D02*
X29750000D01*
X29600000Y22186900D02*
Y22046794D01*
X29624994Y22021800*
X29725006*
X29750000Y22046794*
Y22186900*
X29600000Y22263100D02*
Y22428200D01*
X29750000*
Y22263100*
X29230000Y20200000D02*
X29080000D01*
X29230000Y20238100D02*
Y20378206D01*
X29205006Y20403200*
X29104994*
X29080000Y20378206*
Y20238100*
X29230000Y20161900D02*
Y19996800D01*
X29080000*
Y20161900*
X28405000Y21425000D02*
Y21575000D01*
X28443100Y21425000D02*
X28583206D01*
X28608200Y21449994*
Y21550006*
X28583206Y21575000*
X28443100*
X28366900Y21425000D02*
X28201800D01*
Y21575000*
X28366900*
X28025000Y22650000D02*
Y22500000D01*
X27986900Y22650000D02*
X27846794D01*
X27821800Y22625006*
Y22524994*
X27846794Y22500000*
X27986900*
X28063100Y22650000D02*
X28228200D01*
Y22500000*
X28063100*
X28025000Y23050000D02*
Y22900000D01*
X27986900Y23050000D02*
X27846794D01*
X27821800Y23025006*
Y22924994*
X27846794Y22900000*
X27986900*
X28063100Y23050000D02*
X28228200D01*
Y22900000*
X28063100*
X25975000Y20200000D02*
X25563900D01*
X25475000Y20288900*
Y21111100*
X25563900Y21200000*
X25975000*
X26275000Y20200000D02*
X26686100D01*
X26775000Y20288900*
Y21111100*
X26686100Y21200000*
X26275000*
X25475000Y20300000D02*
X26025000D01*
X26225000D02*
X26775000D01*
X25475000Y21100000D02*
X26025000D01*
X26775000D02*
X26225000D01*
X26025000Y20300000D02*
Y21100000D01*
X25625000Y20300000D02*
Y20400000D01*
X25875000*
Y21000000*
X25625000*
Y21100000*
X25775000Y20400000D02*
Y21000000D01*
X25475000Y20550000D02*
X25775000D01*
X25475000Y20850000D02*
X25775000D01*
X25475000Y21050000D02*
X25625000D01*
X25475000Y20350000D02*
X25625000D01*
X26725000Y20300000D02*
Y21100000D01*
X25975000Y18650000D02*
X25563900D01*
X25475000Y18738900*
Y19561100*
X25563900Y19650000*
X25975000*
X26275000Y18650000D02*
X26686100D01*
X26775000Y18738900*
Y19561100*
X26686100Y19650000*
X26275000*
X25475000Y18750000D02*
X26025000D01*
X26225000D02*
X26775000D01*
X25475000Y19550000D02*
X26025000D01*
X26775000D02*
X26225000D01*
X26025000Y18750000D02*
Y19550000D01*
X25625000Y18750000D02*
Y18850000D01*
X25875000*
Y19450000*
X25625000*
Y19550000*
X25775000Y18850000D02*
Y19450000D01*
X25475000Y19000000D02*
X25775000D01*
X25475000Y19300000D02*
X25775000D01*
X25475000Y19500000D02*
X25625000D01*
X25475000Y18800000D02*
X25625000D01*
X26725000Y18750000D02*
Y19550000D01*
X27330800Y21314300D02*
X27229200D01*
Y21111100*
X27254600Y21085700*
X27305400*
X27330800Y21111100*
Y21314300*
X38780800Y23039300D02*
X38679200D01*
Y22836100*
X38704600Y22810700*
X38755400*
X38780800Y22836100*
Y23039300*
X27480800Y21314300D02*
X27379200D01*
Y21111100*
X27404600Y21085700*
X27455400*
X27480800Y21111100*
Y21314300*
X36286100Y17088100D02*
X36463900D01*
X36375000Y16999200*
X36286100Y17088100*
Y16999200D02*
X36463900D01*
X36537500Y16800000D02*
X36575000D01*
Y17300000*
X36537500*
X36212500Y16800000D02*
X36175000D01*
Y17300000*
X36212500*
X35038900Y16211900D02*
X34861100D01*
X34950000Y16300800*
X35038900Y16211900*
Y16300800D02*
X34861100D01*
X34787500Y16500000D02*
X34750000D01*
Y16000000*
X34787500*
X35112500Y16500000D02*
X35150000D01*
Y16000000*
X35112500*
X38475800Y14689300D02*
X38374200D01*
Y14486100*
X38399600Y14460700*
X38450400*
X38475800Y14486100*
Y14689300*
X27315000Y17075000D02*
Y16425000D01*
X27065000*
Y17075000*
X27315000*
X27290000Y16800000D02*
X27090000D01*
X27190000D02*
X27290000Y16700000D01*
X27090000*
X27190000Y16800000*
Y16700000D02*
Y16650000D01*
Y16850000D02*
Y16800000D01*
X27315000Y17100000D02*
Y17075000D01*
X27065000*
Y17100000*
X27315000*
Y16000000D02*
Y15350000D01*
X27065000*
Y16000000*
X27315000*
X27290000Y15725000D02*
X27090000D01*
X27190000D02*
X27290000Y15625000D01*
X27090000*
X27190000Y15725000*
Y15625000D02*
Y15575000D01*
Y15775000D02*
Y15725000D01*
X27315000Y16025000D02*
Y16000000D01*
X27065000*
Y16025000*
X27315000*
X38679200Y23110700D02*
X38780800D01*
Y23313900*
X38755400Y23339300*
X38704600*
X38679200Y23313900*
Y23110700*
X39250000Y15175000D02*
Y15575000D01*
X38900000*
Y15875000*
X39250000*
Y16275000*
X38220000*
X38150000Y16205000*
Y15875000*
X38500000*
Y15575000*
X38150000*
Y15245000*
X38220000Y15175000*
X39250000*
X38600000Y15525000D02*
G03X38800000I100000J0D01*
G01X38600000D02*
Y15925000D01*
X38800000D02*
G03X38600000I-100000J0D01*
G01X38800000D02*
Y15525000D01*
X38625000Y16550000D02*
X38875000D01*
Y16800000*
X39075000*
Y16550000*
X39325000*
Y17180000*
X39255000Y17250000*
X39075000*
Y17000000*
X38875000*
Y17250000*
X38695000*
X38625000Y17180000*
Y16550000*
X38875000Y16925000D02*
G03Y16875000I0J-25000D01*
G01Y16925000D02*
X39075000D01*
Y16875000D02*
G03Y16925000I0J25000D01*
G01Y16875000D02*
X38875000D01*
X32400000Y17800000D02*
Y17400000D01*
X32750000*
Y17100000*
X32400000*
Y16700000*
X33430000*
X33500000Y16770000*
Y17100000*
X33150000*
Y17400000*
X33500000*
Y17730000*
X33430000Y17800000*
X32400000*
X33050000Y17450000D02*
G03X32850000I-100000J0D01*
G01X33050000D02*
Y17050000D01*
X32850000D02*
G03X33050000I100000J0D01*
G01X32850000D02*
Y17450000D01*
X32150000Y15850000D02*
Y15600000D01*
X32400000*
Y15400000*
X32150000*
Y15150000*
X32780000*
X32850000Y15220000*
Y15400000*
X32600000*
Y15600000*
X32850000*
Y15780000*
X32780000Y15850000*
X32150000*
X32525000Y15600000D02*
G03X32475000I-25000J0D01*
G01X32525000D02*
Y15400000D01*
X32475000D02*
G03X32525000I25000J0D01*
G01X32475000D02*
Y15600000D01*
X35125000Y15850000D02*
Y15600000D01*
X35375000*
Y15400000*
X35125000*
Y15150000*
X35755000*
X35825000Y15220000*
Y15400000*
X35575000*
Y15600000*
X35825000*
Y15780000*
X35755000Y15850000*
X35125000*
X35500000Y15600000D02*
G03X35450000I-25000J0D01*
G01X35500000D02*
Y15400000D01*
X35450000D02*
G03X35500000I25000J0D01*
G01X35450000D02*
Y15600000D01*
X33200000Y15850000D02*
Y15600000D01*
X33450000*
Y15400000*
X33200000*
Y15150000*
X33830000*
X33900000Y15220000*
Y15400000*
X33650000*
Y15600000*
X33900000*
Y15780000*
X33830000Y15850000*
X33200000*
X33575000Y15600000D02*
G03X33525000I-25000J0D01*
G01X33575000D02*
Y15400000D01*
X33525000D02*
G03X33575000I25000J0D01*
G01X33525000D02*
Y15600000D01*
X33225000Y19375000D02*
X33375000D01*
Y19575000*
X33575000*
Y19375000*
X33725000*
Y19805000*
X33655000Y19875000*
X33575000*
Y19675000*
X33375000*
Y19875000*
X33295000*
X33225000Y19805000*
Y19375000*
X33375000Y19650000D02*
G03Y19600000I0J-25000D01*
G01Y19650000D02*
X33575000D01*
Y19600000D02*
G03Y19650000I0J25000D01*
G01Y19600000D02*
X33375000D01*
X31875000Y19375000D02*
X32025000D01*
Y19575000*
X32225000*
Y19375000*
X32375000*
Y19805000*
X32305000Y19875000*
X32225000*
Y19675000*
X32025000*
Y19875000*
X31945000*
X31875000Y19805000*
Y19375000*
X32025000Y19650000D02*
G03Y19600000I0J-25000D01*
G01Y19650000D02*
X32225000D01*
Y19600000D02*
G03Y19650000I0J25000D01*
G01Y19600000D02*
X32025000D01*
X37925000Y13825000D02*
X35475000D01*
Y14775000*
X37925000*
Y13825000*
X27642000Y16977000D02*
Y16469000D01*
X28150000*
Y16977000*
X27642000*
X27959500D02*
X27959500D01*
X27832500D02*
G03X27959500I63500J0D01*
G01X27832500D02*
X27832500D01*
X27642000Y15952000D02*
Y15444000D01*
X28150000*
Y15952000*
X27642000*
X27959500D02*
X27959500D01*
X27832500D02*
G03X27959500I63500J0D01*
G01X27832500D02*
X27832500D01*
X26482000Y18377000D02*
Y17869000D01*
X26228000*
Y18377000*
X26482000*
X28130000Y24450000D02*
X29930000D01*
Y23850000*
X28130000*
Y24450000*
X28830000Y23850000D02*
Y23900000D01*
X28180000*
Y24400000*
X29880000*
Y23900000*
X29230000*
Y23850000*
X27223000Y14248000D02*
Y14756000D01*
X27477000*
Y14248000*
X27223000*
Y13498000D02*
Y14006000D01*
X27477000*
Y13498000*
X27223000*
X26923000Y14248000D02*
Y14756000D01*
X27177000*
Y14248000*
X26923000*
Y13498000D02*
Y14006000D01*
X27177000*
Y13498000*
X26923000*
X26323000Y14248000D02*
Y14756000D01*
X26577000*
Y14248000*
X26323000*
Y13498000D02*
Y14006000D01*
X26577000*
Y13498000*
X26323000*
X26623000Y14248000D02*
Y14756000D01*
X26877000*
Y14248000*
X26623000*
X27707000Y22027000D02*
Y21519000D01*
X27453000*
Y22027000*
X27707000*
X26623000Y13498000D02*
Y14006000D01*
X26877000*
Y13498000*
X26623000*
X26023000Y14248000D02*
Y14756000D01*
X26277000*
Y14248000*
X26023000*
Y13498000D02*
Y14006000D01*
X26277000*
Y13498000*
X26023000*
X25723000Y14248000D02*
Y14756000D01*
X25977000*
Y14248000*
X25723000*
Y13498000D02*
Y14006000D01*
X25977000*
Y13498000*
X25723000*
X38669998Y11390001D02*
Y12389999D01*
X39548000*
Y11390001*
X38669998*
X38740001D02*
Y11690000D01*
Y11790000D02*
Y11990000D01*
Y12090000D02*
Y12389999D01*
X39294000Y11350250D02*
X39579750D01*
Y11636000*
X39575000Y14875000D02*
Y13875000D01*
X39375000Y14825000D02*
Y14875000D01*
X39075000*
X39375000Y13875000D02*
X39175000D01*
X39375000Y14825000D02*
X39525000D01*
Y13925000*
X39375000*
X39425000Y14825000D02*
Y14875000D01*
X39575000*
X39075000D02*
Y13975000D01*
X39175000Y13875000*
X39375000Y14825000D02*
X39225000D01*
X39125000Y14725000*
Y14025000*
X39225000Y13925000*
X39425000D02*
Y13875000D01*
X39575000*
X39225000Y13925000D02*
X39375000D01*
Y13875000*
X39382000Y23123000D02*
X38874000D01*
Y23377000*
X39382000*
Y23123000*
X38828000Y22802000D02*
X39336000D01*
Y22548000*
X38828000*
Y22802000*
X32273000Y22948000D02*
Y23456000D01*
X32527000*
Y22948000*
X32273000*
X37275000Y16750000D02*
X37699600D01*
X37725000Y16724600*
Y15875400*
X37699600Y15850000*
X37275000*
Y16750000D02*
X36850400D01*
X36825000Y16724600*
Y15875400*
X36850400Y15850000*
X37275000*
X37675000Y16350000D02*
X36875000D01*
X37675000Y16250000D02*
X36875000D01*
X37275000Y16300000D02*
G03X37275000I-50000J0D01*
G01X37375000D02*
G03X37375000I-50000J0D01*
G01X38175000Y16550000D02*
X37850400D01*
X37825000Y16575400*
Y17224600*
X37850400Y17250000*
X38175000*
Y16550000D02*
X38499600D01*
X38525000Y16575400*
Y17224600*
X38499600Y17250000*
X38175000*
X37875000Y16825000D02*
X38475000D01*
X37875000Y16975000D02*
X38475000D01*
X38275000Y16900000D02*
G03X38275000I-50000J0D01*
G01X38175000D02*
G03X38175000I-50000J0D01*
G01X34875000Y17300000D02*
Y16875400D01*
X34849600Y16850000*
X34000400*
X33975000Y16875400*
Y17300000*
X34875000D02*
Y17724600D01*
X34849600Y17750000*
X34000400*
X33975000Y17724600*
Y17300000*
X34475000Y16900000D02*
Y17700000D01*
X34375000Y16900000D02*
Y17700000D01*
X34475000Y17350000D02*
G03X34475000I-50000J0D01*
G01Y17250000D02*
G03X34475000I-50000J0D01*
G01X33275000Y16300000D02*
Y15975400D01*
X33249600Y15950000*
X32600400*
X32575000Y15975400*
Y16300000*
X33275000D02*
Y16624600D01*
X33249600Y16650000*
X32600400*
X32575000Y16624600*
Y16300000*
X33000000Y16000000D02*
Y16600000D01*
X32850000Y16000000D02*
Y16600000D01*
X32975000Y16350000D02*
G03X32975000I-50000J0D01*
G01Y16250000D02*
G03X32975000I-50000J0D01*
G01X28941600Y16551200D02*
Y16614700D01*
X28814600*
X28941600Y16398800D02*
Y16335300D01*
X28814600*
X28713000Y16487700D02*
Y16462300D01*
X28941600Y15601200D02*
Y15664700D01*
X28814600*
X28941600Y15448800D02*
Y15385300D01*
X28814600*
X28713000Y15537700D02*
Y15512300D01*
X26416600Y16576200D02*
Y16639700D01*
X26289600*
X26416600Y16423800D02*
Y16360300D01*
X26289600*
X26188000Y16512700D02*
Y16487300D01*
X26416600Y15501200D02*
Y15564700D01*
X26289600*
X26416600Y15348800D02*
Y15285300D01*
X26289600*
X26188000Y15437700D02*
Y15412300D01*
X37496600Y19971200D02*
Y20034700D01*
X37369600*
X37496600Y19818800D02*
Y19755300D01*
X37369600*
X37268000Y19907700D02*
Y19882300D01*
X27230000Y21750000D02*
X27380000D01*
X27230000Y21711900D02*
Y21546800D01*
X27380000*
Y21711900*
X27230000Y21788100D02*
Y21953200D01*
X27380000*
Y21788100*
X28405000Y20775000D02*
Y20925000D01*
X28443100Y20775000D02*
X28608200D01*
Y20925000*
X28443100*
X28366900Y20775000D02*
X28201800D01*
Y20925000*
X28366900*
X29800000Y22225000D02*
X29950000D01*
X29800000Y22186900D02*
Y22021800D01*
X29950000*
Y22186900*
X29800000Y22263100D02*
Y22428200D01*
X29950000*
Y22263100*
X29030000Y20200000D02*
X28880000D01*
X29030000Y20238100D02*
Y20403200D01*
X28880000*
Y20238100*
X29030000Y20161900D02*
Y19996800D01*
X28880000*
Y20161900*
X36272600Y15625000D02*
X35975000D01*
Y15175000*
X36272600*
X36577400Y15625000D02*
X36875000D01*
Y15175000*
X36577400*
X37575000Y17050000D02*
X37425000D01*
X37575000Y17088100D02*
Y17253200D01*
X37425000*
Y17088100*
X37575000Y17011900D02*
Y16846800D01*
X37425000*
Y17011900*
X35825000Y16350000D02*
X35975000D01*
X35825000Y16311900D02*
Y16146800D01*
X35975000*
Y16311900*
X35825000Y16388100D02*
Y16553200D01*
X35975000*
Y16388100*
X34372600Y15625000D02*
X34075000D01*
Y15175000*
X34372600*
X34677400Y15625000D02*
X34975000D01*
Y15175000*
X34677400*
X35025000Y17450000D02*
X35175000D01*
X35025000Y17411900D02*
Y17246800D01*
X35175000*
Y17411900*
X35025000Y17488100D02*
Y17653200D01*
X35175000*
Y17488100*
X33205000Y14525000D02*
Y14675000D01*
X33243100Y14525000D02*
X33408200D01*
Y14675000*
X33243100*
X33166900Y14525000D02*
X33001800D01*
Y14675000*
X33166900*
X33900000Y16350000D02*
X34050000D01*
X33900000Y16311900D02*
Y16146800D01*
X34050000*
Y16311900*
X33900000Y16388100D02*
Y16553200D01*
X34050000*
Y16388100*
X27180000Y21275000D02*
X27030000D01*
X27180000Y21313100D02*
Y21478200D01*
X27030000*
Y21313100*
X27180000Y21236900D02*
Y21071800D01*
X27030000*
Y21236900*
X35600000Y16350000D02*
X35750000D01*
X35600000Y16311900D02*
Y16146800D01*
X35750000*
Y16311900*
X35600000Y16388100D02*
Y16553200D01*
X35750000*
Y16388100*
X33700000Y16350000D02*
X33850000D01*
X33700000Y16311900D02*
Y16146800D01*
X33850000*
Y16311900*
X33700000Y16388100D02*
Y16553200D01*
X33850000*
Y16388100*
X28840000Y16825000D02*
Y16675000D01*
X28801900Y16825000D02*
X28636800D01*
Y16675000*
X28801900*
X28878100Y16825000D02*
X29043200D01*
Y16675000*
X28878100*
X28840000Y15900000D02*
Y15750000D01*
X28801900Y15900000D02*
X28636800D01*
Y15750000*
X28801900*
X28878100Y15900000D02*
X29043200D01*
Y15750000*
X28878100*
X26790000Y16925000D02*
Y17075000D01*
X26828100Y16925000D02*
X26993200D01*
Y17075000*
X26828100*
X26751900Y16925000D02*
X26586800D01*
Y17075000*
X26751900*
X28840000Y16100000D02*
Y16250000D01*
X28878100Y16100000D02*
X29043200D01*
Y16250000*
X28878100*
X28801900Y16100000D02*
X28636800D01*
Y16250000*
X28801900*
X26790000Y15850000D02*
Y16000000D01*
X26828100Y15850000D02*
X26993200D01*
Y16000000*
X26828100*
X26751900Y15850000D02*
X26586800D01*
Y16000000*
X26751900*
X28840000Y15175000D02*
Y15325000D01*
X28878100Y15175000D02*
X29043200D01*
Y15325000*
X28878100*
X28801900Y15175000D02*
X28636800D01*
Y15325000*
X28801900*
X28565000Y16450000D02*
X28415000D01*
X28565000Y16488100D02*
Y16653200D01*
X28415000*
Y16488100*
X28565000Y16411900D02*
Y16246800D01*
X28415000*
Y16411900*
X28565000Y15475000D02*
X28415000D01*
X28565000Y15513100D02*
Y15678200D01*
X28415000*
Y15513100*
X28565000Y15436900D02*
Y15271800D01*
X28415000*
Y15436900*
X28405000Y21125000D02*
Y20975000D01*
X28366900Y21125000D02*
X28201800D01*
Y20975000*
X28366900*
X28443100Y21125000D02*
X28608200D01*
Y20975000*
X28443100*
X26790000Y16575000D02*
Y16425000D01*
X26751900Y16575000D02*
X26586800D01*
Y16425000*
X26751900*
X26828100Y16575000D02*
X26993200D01*
Y16425000*
X26828100*
X26790000Y15500000D02*
Y15350000D01*
X26751900Y15500000D02*
X26586800D01*
Y15350000*
X26751900*
X26828100Y15500000D02*
X26993200D01*
Y15350000*
X26828100*
X25840000Y16675000D02*
Y16525000D01*
X25801900Y16675000D02*
X25636800D01*
Y16525000*
X25801900*
X25878100Y16675000D02*
X26043200D01*
Y16525000*
X25878100*
X25840000Y15600000D02*
Y15450000D01*
X25801900Y15600000D02*
X25636800D01*
Y15450000*
X25801900*
X25878100Y15600000D02*
X26043200D01*
Y15450000*
X25878100*
X25840000Y16325000D02*
Y16475000D01*
X25878100Y16325000D02*
X26043200D01*
Y16475000*
X25878100*
X25801900Y16325000D02*
X25636800D01*
Y16475000*
X25801900*
X25840000Y15250000D02*
Y15400000D01*
X25878100Y15250000D02*
X26043200D01*
Y15400000*
X25878100*
X25801900Y15250000D02*
X25636800D01*
Y15400000*
X25801900*
X39105000Y21250000D02*
Y21400000D01*
X39143100Y21250000D02*
X39308200D01*
Y21400000*
X39143100*
X39066900Y21250000D02*
X38901800D01*
Y21400000*
X39066900*
X39105000Y21050000D02*
Y21200000D01*
X39143100Y21050000D02*
X39308200D01*
Y21200000*
X39143100*
X39066900Y21050000D02*
X38901800D01*
Y21200000*
X39066900*
X38480000Y23300000D02*
X38630000D01*
X38480000Y23261900D02*
Y23096800D01*
X38630000*
Y23261900*
X38480000Y23338100D02*
Y23503200D01*
X38630000*
Y23338100*
X39055000Y22500000D02*
Y22350000D01*
X39016900Y22500000D02*
X38851800D01*
Y22350000*
X39016900*
X39093100Y22500000D02*
X39258200D01*
Y22350000*
X39093100*
X27500000Y22500000D02*
Y22650000D01*
X27538100Y22500000D02*
X27703200D01*
Y22650000*
X27538100*
X27461900Y22500000D02*
X27296800D01*
Y22650000*
X27461900*
X37180000Y23150000D02*
Y23000000D01*
X37141900Y23150000D02*
X36976800D01*
Y23000000*
X37141900*
X37218100Y23150000D02*
X37383200D01*
Y23000000*
X37218100*
X37180000Y23350000D02*
Y23200000D01*
X37141900Y23350000D02*
X36976800D01*
Y23200000*
X37141900*
X37218100Y23350000D02*
X37383200D01*
Y23200000*
X37218100*
X39105000Y23050000D02*
Y22900000D01*
X39066900Y23050000D02*
X38901800D01*
Y22900000*
X39066900*
X39143100Y23050000D02*
X39308200D01*
Y22900000*
X39143100*
X38480000Y22850000D02*
X38630000D01*
X38480000Y22811900D02*
Y22646800D01*
X38630000*
Y22811900*
X38480000Y22888100D02*
Y23053200D01*
X38630000*
Y22888100*
X32950000Y19725000D02*
X32800000D01*
X32950000Y19763100D02*
Y19928200D01*
X32800000*
Y19763100*
X32950000Y19686900D02*
Y19521800D01*
X32800000*
Y19686900*
X39155000Y19750000D02*
Y19900000D01*
X39193100Y19750000D02*
X39358200D01*
Y19900000*
X39193100*
X39116900Y19750000D02*
X38951800D01*
Y19900000*
X39116900*
X32775000Y23200000D02*
X32925000D01*
X32775000Y23161900D02*
Y22996800D01*
X32925000*
Y23161900*
X32775000Y23238100D02*
Y23403200D01*
X32925000*
Y23238100*
X32725000Y23200000D02*
X32575000D01*
X32725000Y23238100D02*
Y23403200D01*
X32575000*
Y23238100*
X32725000Y23161900D02*
Y22996800D01*
X32575000*
Y23161900*
X29155000Y23500000D02*
X29305000D01*
X29155000Y23461900D02*
Y23296800D01*
X29305000*
Y23461900*
X29155000Y23538100D02*
Y23703200D01*
X29305000*
Y23538100*
X28955000Y23500000D02*
X29105000D01*
X28955000Y23461900D02*
Y23296800D01*
X29105000*
Y23461900*
X28955000Y23538100D02*
Y23703200D01*
X29105000*
Y23538100*
X27500000Y22900000D02*
Y23050000D01*
X27538100Y22900000D02*
X27703200D01*
Y23050000*
X27538100*
X27461900Y22900000D02*
X27296800D01*
Y23050000*
X27461900*
X28555000Y23500000D02*
X28705000D01*
X28555000Y23461900D02*
Y23296800D01*
X28705000*
Y23461900*
X28555000Y23538100D02*
Y23703200D01*
X28705000*
Y23538100*
X28755000Y23500000D02*
X28905000D01*
X28755000Y23461900D02*
Y23296800D01*
X28905000*
Y23461900*
X28755000Y23538100D02*
Y23703200D01*
X28905000*
Y23538100*
X32050000Y23175000D02*
X32200000D01*
X32050000Y23136900D02*
Y22971800D01*
X32200000*
Y23136900*
X32050000Y23213100D02*
Y23378200D01*
X32200000*
Y23213100*
X29505000Y23500000D02*
X29355000D01*
X29505000Y23538100D02*
Y23703200D01*
X29355000*
Y23538100*
X29505000Y23461900D02*
Y23296800D01*
X29355000*
Y23461900*
X35275000Y24450000D02*
X35125000D01*
X35275000Y24488100D02*
Y24653200D01*
X35125000*
Y24488100*
X35275000Y24411900D02*
Y24246800D01*
X35125000*
Y24411900*
X35525000Y24450000D02*
X35375000D01*
X35525000Y24488100D02*
Y24653200D01*
X35375000*
Y24488100*
X35525000Y24411900D02*
Y24246800D01*
X35375000*
Y24411900*
X35775000Y24450000D02*
X35625000D01*
X35775000Y24488100D02*
Y24653200D01*
X35625000*
Y24488100*
X35775000Y24411900D02*
Y24246800D01*
X35625000*
Y24411900*
X37370000Y20345000D02*
X37220000D01*
X37370000Y20383100D02*
Y20548200D01*
X37220000*
Y20383100*
X37370000Y20306900D02*
Y20141800D01*
X37220000*
Y20306900*
X38333500Y20505700D02*
X38520000D01*
Y20734300*
X38333500*
X38206500Y20505700D02*
X38007500D01*
Y20734300*
X38206500*
X27500000Y23100000D02*
Y23250000D01*
X27538100Y23100000D02*
X27703200D01*
Y23250000*
X27538100*
X27461900Y23100000D02*
X27296800D01*
Y23250000*
X27461900*
X27500000Y23475000D02*
Y23625000D01*
X27538100Y23475000D02*
X27703200D01*
Y23625000*
X27538100*
X27461900Y23475000D02*
X27296800D01*
Y23625000*
X27461900*
X28405000Y20575000D02*
Y20725000D01*
X28443100Y20575000D02*
X28608200D01*
Y20725000*
X28443100*
X28366900Y20575000D02*
X28201800D01*
Y20725000*
X28366900*
X28830000Y20200000D02*
X28680000D01*
X28830000Y20238100D02*
Y20403200D01*
X28680000*
Y20238100*
X28830000Y20161900D02*
Y19996800D01*
X28680000*
Y20161900*
X31805000Y22275000D02*
X31785000Y22295000D01*
Y22255000*
X31805000Y22275000*
X29655000Y21895000D02*
X29675000Y21915000D01*
X29635000*
X29655000Y21895000*
X26075000Y25000000D02*
G03X26075000I-275000J0D01*
G01X26026385D02*
G03X26026385I-226385J0D01*
G01X39535000D02*
G03X39535000I-275000J0D01*
G01X39486385D02*
G03X39486385I-226385J0D01*
G01X39535000Y13100000D02*
G03X39535000I-275000J0D01*
G01X39486385D02*
G03X39486385I-226385J0D01*
G01X26075000D02*
G03X26075000I-275000J0D01*
G01X26026385D02*
G03X26026385I-226385J0D01*
G01X26075000Y10800000D02*
G03X26075000I-275000J0D01*
G01X26026385D02*
G03X26026385I-226385J0D01*
G01X39535000D02*
G03X39535000I-275000J0D01*
G01X39486385D02*
G03X39486385I-226385J0D01*
G01X29655000Y21813900D02*
Y21636100D01*
X29605000Y21813900D02*
Y21636100D01*
X29555000Y21813900D02*
Y21636100D01*
X29505000Y21813900D02*
Y21636100D01*
X29455000Y21813900D02*
Y21636100D01*
X29405000Y21813900D02*
Y21636100D01*
X29355000Y21813900D02*
Y21636100D01*
X29305000Y21813900D02*
Y21636100D01*
X29255000Y21813900D02*
Y21636100D01*
X29205000Y21813900D02*
Y21636100D01*
X29155000Y21813900D02*
Y21636100D01*
X29105000Y21813900D02*
Y21636100D01*
X28841100Y21550000D02*
X29018900D01*
X28841100Y21500000D02*
X29018900D01*
X28841100Y21450000D02*
X29018900D01*
X28841100Y21400000D02*
X29018900D01*
X28841100Y21350000D02*
X29018900D01*
X28841100Y21300000D02*
X29018900D01*
X28841100Y21250000D02*
X29018900D01*
X28841100Y21200000D02*
X29018900D01*
X28841100Y21150000D02*
X29018900D01*
X28841100Y21100000D02*
X29018900D01*
X28841100Y21050000D02*
X29018900D01*
X28841100Y21000000D02*
X29018900D01*
X29105000Y20913900D02*
Y20736100D01*
X29155000Y20913900D02*
Y20736100D01*
X29205000Y20913900D02*
Y20736100D01*
X29255000Y20913900D02*
Y20736100D01*
X29305000Y20913900D02*
Y20736100D01*
X29355000Y20913900D02*
Y20736100D01*
X29405000Y20913900D02*
Y20736100D01*
X29455000Y20913900D02*
Y20736100D01*
X29505000Y20913900D02*
Y20736100D01*
X29555000Y20913900D02*
Y20736100D01*
X29605000Y20913900D02*
Y20736100D01*
X29655000Y20913900D02*
Y20736100D01*
X29741100Y21000000D02*
X29918900D01*
X29741100Y21050000D02*
X29918900D01*
X29741100Y21100000D02*
X29918900D01*
X29741100Y21150000D02*
X29918900D01*
X29741100Y21200000D02*
X29918900D01*
X29741100Y21250000D02*
X29918900D01*
X29741100Y21300000D02*
X29918900D01*
X29741100Y21350000D02*
X29918900D01*
X29741100Y21400000D02*
X29918900D01*
X29741100Y21450000D02*
X29918900D01*
X29741100Y21500000D02*
X29918900D01*
X29741100Y21550000D02*
X29918900D01*
X27292300Y19887300D02*
Y19812700D01*
X27217700*
Y19887300*
X27292300*
X27217700Y19812700D02*
X27292300D01*
X27217700Y19838100D02*
X27292300D01*
X27217700Y19863500D02*
X27292300D01*
X27228800Y19812700D02*
Y19887300D01*
X27254200Y19812700D02*
Y19887300D01*
X27279600Y19812700D02*
Y19887300D01*
X27292300Y19612700D02*
Y19687300D01*
X27217700*
Y19612700*
X27292300*
X27217700D02*
X27292300D01*
X27217700Y19638100D02*
X27292300D01*
X27217700Y19663500D02*
X27292300D01*
X27228800Y19612700D02*
Y19687300D01*
X27254200Y19612700D02*
Y19687300D01*
X27279600Y19612700D02*
Y19687300D01*
X28162300Y23212300D02*
X28087700D01*
Y23137700*
X28162300*
Y23212300*
X28087700Y23137700D02*
X28162300D01*
X28087700Y23163100D02*
X28162300D01*
X28087700Y23188500D02*
X28162300D01*
X28092400Y23137700D02*
Y23212300D01*
X28117800Y23137700D02*
Y23212300D01*
X28143200Y23137700D02*
Y23212300D01*
X27887700D02*
X27962300D01*
Y23137700*
X27887700*
Y23212300*
Y23137700D02*
X27962300D01*
X27887700Y23163100D02*
X27962300D01*
X27887700Y23188500D02*
X27962300D01*
X27889200Y23137700D02*
Y23212300D01*
X27914600Y23137700D02*
Y23212300D01*
X27940000Y23137700D02*
Y23212300D01*
X28162300Y23587300D02*
X28087700D01*
Y23512700*
X28162300*
Y23587300*
X28087700Y23512700D02*
X28162300D01*
X28087700Y23538100D02*
X28162300D01*
X28087700Y23563500D02*
X28162300D01*
X28092400Y23512700D02*
Y23587300D01*
X28117800Y23512700D02*
Y23587300D01*
X28143200Y23512700D02*
Y23587300D01*
X27887700D02*
X27962300D01*
Y23512700*
X27887700*
Y23587300*
Y23512700D02*
X27962300D01*
X27887700Y23538100D02*
X27962300D01*
X27887700Y23563500D02*
X27962300D01*
X27889200Y23512700D02*
Y23587300D01*
X27914600Y23512700D02*
Y23587300D01*
X27940000Y23512700D02*
Y23587300D01*
X29867300Y19937300D02*
X29792700D01*
Y19862700*
X29867300*
Y19937300*
X29792700Y19862700D02*
X29867300D01*
X29792700Y19888100D02*
X29867300D01*
X29792700Y19913500D02*
X29867300D01*
X29794200Y19862700D02*
Y19937300D01*
X29819600Y19862700D02*
Y19937300D01*
X29845000Y19862700D02*
Y19937300D01*
X29592700D02*
X29667300D01*
Y19862700*
X29592700*
Y19937300*
Y19862700D02*
X29667300D01*
X29592700Y19888100D02*
X29667300D01*
X29592700Y19913500D02*
X29667300D01*
X29616400Y19862700D02*
Y19937300D01*
X29641800Y19862700D02*
Y19937300D01*
X29667200Y19862700D02*
Y19937300D01*
X27637300Y22812300D02*
X27562700D01*
Y22737700*
X27637300*
Y22812300*
X27562700Y22737700D02*
X27637300D01*
X27562700Y22763100D02*
X27637300D01*
X27562700Y22788500D02*
X27637300D01*
X27584400Y22737700D02*
Y22812300D01*
X27609800Y22737700D02*
Y22812300D01*
X27635200Y22737700D02*
Y22812300D01*
X27362700D02*
X27437300D01*
Y22737700*
X27362700*
Y22812300*
Y22737700D02*
X27437300D01*
X27362700Y22763100D02*
X27437300D01*
X27362700Y22788500D02*
X27437300D01*
X27381200Y22737700D02*
Y22812300D01*
X27406600Y22737700D02*
Y22812300D01*
X27432000Y22737700D02*
Y22812300D01*
X27637300Y23412300D02*
X27562700D01*
Y23337700*
X27637300*
Y23412300*
X27562700Y23337700D02*
X27637300D01*
X27562700Y23363100D02*
X27637300D01*
X27562700Y23388500D02*
X27637300D01*
X27584400Y23337700D02*
Y23412300D01*
X27609800Y23337700D02*
Y23412300D01*
X27635200Y23337700D02*
Y23412300D01*
X27362700D02*
X27437300D01*
Y23337700*
X27362700*
Y23412300*
Y23337700D02*
X27437300D01*
X27362700Y23363100D02*
X27437300D01*
X27362700Y23388500D02*
X27437300D01*
X27381200Y23337700D02*
Y23412300D01*
X27406600Y23337700D02*
Y23412300D01*
X27432000Y23337700D02*
Y23412300D01*
X30142300Y20312300D02*
Y20237700D01*
X30067700*
Y20312300*
X30142300*
X30067700Y20237700D02*
X30142300D01*
X30067700Y20263100D02*
X30142300D01*
X30067700Y20288500D02*
X30142300D01*
X30073600Y20237700D02*
Y20312300D01*
X30099000Y20237700D02*
Y20312300D01*
X30124400Y20237700D02*
Y20312300D01*
X30142300Y20037700D02*
Y20112300D01*
X30067700*
Y20037700*
X30142300*
X30067700D02*
X30142300D01*
X30067700Y20063100D02*
X30142300D01*
X30067700Y20088500D02*
X30142300D01*
X30073600Y20037700D02*
Y20112300D01*
X30099000Y20037700D02*
Y20112300D01*
X30124400Y20037700D02*
Y20112300D01*
X26250200Y22024800D02*
X26387300D01*
Y21875200*
X26250200*
Y22024800*
Y21875200D02*
X26387300D01*
X26250200Y21900600D02*
X26387300D01*
X26250200Y21926000D02*
X26387300D01*
X26250200Y21951400D02*
X26387300D01*
X26250200Y21976800D02*
X26387300D01*
X26250200Y22002200D02*
X26387300D01*
X26263600Y21875200D02*
Y22024800D01*
X26289000Y21875200D02*
Y22024800D01*
X26314400Y21875200D02*
Y22024800D01*
X26339800Y21875200D02*
Y22024800D01*
X26365200Y21875200D02*
Y22024800D01*
X26512700D02*
X26662300D01*
Y21875200*
X26512700*
Y22024800*
Y21875200D02*
X26662300D01*
X26512700Y21900600D02*
X26662300D01*
X26512700Y21926000D02*
X26662300D01*
X26512700Y21951400D02*
X26662300D01*
X26512700Y21976800D02*
X26662300D01*
X26512700Y22002200D02*
X26662300D01*
X26517600Y21875200D02*
Y22024800D01*
X26543000Y21875200D02*
Y22024800D01*
X26568400Y21875200D02*
Y22024800D01*
X26593800Y21875200D02*
Y22024800D01*
X26619200Y21875200D02*
Y22024800D01*
X26644600Y21875200D02*
Y22024800D01*
X37237700Y17187300D02*
Y17112700D01*
X37312300*
Y17187300*
X37237700*
Y17112700D02*
X37312300D01*
X37237700Y17138100D02*
X37312300D01*
X37237700Y17163500D02*
X37312300D01*
X37261800Y17112700D02*
Y17187300D01*
X37287200Y17112700D02*
Y17187300D01*
X37237700Y16912700D02*
Y16987300D01*
X37312300*
Y16912700*
X37237700*
X37312300*
X37237700Y16938100D02*
X37312300D01*
X37237700Y16963500D02*
X37312300D01*
X37261800Y16912700D02*
Y16987300D01*
X37287200Y16912700D02*
Y16987300D01*
X35062700Y17112300D02*
Y17037700D01*
X35137300*
Y17112300*
X35062700*
Y17037700D02*
X35137300D01*
X35062700Y17063100D02*
X35137300D01*
X35062700Y17088500D02*
X35137300D01*
X35077400Y17037700D02*
Y17112300D01*
X35102800Y17037700D02*
Y17112300D01*
X35128200Y17037700D02*
Y17112300D01*
X35062700Y16837700D02*
Y16912300D01*
X35137300*
Y16837700*
X35062700*
X35137300*
X35062700Y16863100D02*
X35137300D01*
X35062700Y16888500D02*
X35137300D01*
X35077400Y16837700D02*
Y16912300D01*
X35102800Y16837700D02*
Y16912300D01*
X35128200Y16837700D02*
Y16912300D01*
X37162700Y15212700D02*
X37237300D01*
Y15287300*
X37162700*
Y15212700*
X37237300*
X37162700Y15238100D02*
X37237300D01*
X37162700Y15263500D02*
X37237300D01*
X37185600Y15212700D02*
Y15287300D01*
X37211000Y15212700D02*
Y15287300D01*
X37236400Y15212700D02*
Y15287300D01*
X37437300Y15212700D02*
X37362700D01*
Y15287300*
X37437300*
Y15212700*
X37362700D02*
X37437300D01*
X37362700Y15238100D02*
X37437300D01*
X37362700Y15263500D02*
X37437300D01*
X37363400Y15212700D02*
Y15287300D01*
X37388800Y15212700D02*
Y15287300D01*
X37414200Y15212700D02*
Y15287300D01*
X27492300Y19887300D02*
Y19812700D01*
X27417700*
Y19887300*
X27492300*
X27417700Y19812700D02*
X27492300D01*
X27417700Y19838100D02*
X27492300D01*
X27417700Y19863500D02*
X27492300D01*
X27432000Y19812700D02*
Y19887300D01*
X27457400Y19812700D02*
Y19887300D01*
X27482800Y19812700D02*
Y19887300D01*
X27492300Y19612700D02*
Y19687300D01*
X27417700*
Y19612700*
X27492300*
X27417700D02*
X27492300D01*
X27417700Y19638100D02*
X27492300D01*
X27417700Y19663500D02*
X27492300D01*
X27432000Y19612700D02*
Y19687300D01*
X27457400Y19612700D02*
Y19687300D01*
X27482800Y19612700D02*
Y19687300D01*
X39512300Y17037300D02*
Y16962700D01*
X39437700*
Y17037300*
X39512300*
X39437700Y16962700D02*
X39512300D01*
X39437700Y16988100D02*
X39512300D01*
X39437700Y17013500D02*
X39512300D01*
X39446200Y16962700D02*
Y17037300D01*
X39471600Y16962700D02*
Y17037300D01*
X39497000Y16962700D02*
Y17037300D01*
X39512300Y16762700D02*
Y16837300D01*
X39437700*
Y16762700*
X39512300*
X39437700D02*
X39512300D01*
X39437700Y16788100D02*
X39512300D01*
X39437700Y16813500D02*
X39512300D01*
X39446200Y16762700D02*
Y16837300D01*
X39471600Y16762700D02*
Y16837300D01*
X39497000Y16762700D02*
Y16837300D01*
X33587300Y16487300D02*
Y16412700D01*
X33512700*
Y16487300*
X33587300*
X33512700Y16412700D02*
X33587300D01*
X33512700Y16438100D02*
X33587300D01*
X33512700Y16463500D02*
X33587300D01*
X33528000Y16412700D02*
Y16487300D01*
X33553400Y16412700D02*
Y16487300D01*
X33578800Y16412700D02*
Y16487300D01*
X33587300Y16212700D02*
Y16287300D01*
X33512700*
Y16212700*
X33587300*
X33512700D02*
X33587300D01*
X33512700Y16238100D02*
X33587300D01*
X33512700Y16263500D02*
X33587300D01*
X33528000Y16212700D02*
Y16287300D01*
X33553400Y16212700D02*
Y16287300D01*
X33578800Y16212700D02*
Y16287300D01*
X32162700Y15962700D02*
X32237300D01*
Y16037300*
X32162700*
Y15962700*
X32237300*
X32162700Y15988100D02*
X32237300D01*
X32162700Y16013500D02*
X32237300D01*
X32181800Y15962700D02*
Y16037300D01*
X32207200Y15962700D02*
Y16037300D01*
X32232600Y15962700D02*
Y16037300D01*
X32437300Y15962700D02*
X32362700D01*
Y16037300*
X32437300*
Y15962700*
X32362700D02*
X32437300D01*
X32362700Y15988100D02*
X32437300D01*
X32362700Y16013500D02*
X32437300D01*
X32385000Y15962700D02*
Y16037300D01*
X32410400Y15962700D02*
Y16037300D01*
X32435800Y15962700D02*
Y16037300D01*
X38187700Y14712300D02*
Y14637700D01*
X38262300*
Y14712300*
X38187700*
Y14637700D02*
X38262300D01*
X38187700Y14663100D02*
X38262300D01*
X38187700Y14688500D02*
X38262300D01*
X38201600Y14637700D02*
Y14712300D01*
X38227000Y14637700D02*
Y14712300D01*
X38252400Y14637700D02*
Y14712300D01*
X38187700Y14437700D02*
Y14512300D01*
X38262300*
Y14437700*
X38187700*
X38262300*
X38187700Y14463100D02*
X38262300D01*
X38187700Y14488500D02*
X38262300D01*
X38201600Y14437700D02*
Y14512300D01*
X38227000Y14437700D02*
Y14512300D01*
X38252400Y14437700D02*
Y14512300D01*
X35337700Y15962700D02*
X35412300D01*
Y16037300*
X35337700*
Y15962700*
X35412300*
X35337700Y15988100D02*
X35412300D01*
X35337700Y16013500D02*
X35412300D01*
X35356800Y15962700D02*
Y16037300D01*
X35382200Y15962700D02*
Y16037300D01*
X35407600Y15962700D02*
Y16037300D01*
X35612300Y15962700D02*
X35537700D01*
Y16037300*
X35612300*
Y15962700*
X35537700D02*
X35612300D01*
X35537700Y15988100D02*
X35612300D01*
X35537700Y16013500D02*
X35612300D01*
X35560000Y15962700D02*
Y16037300D01*
X35585400Y15962700D02*
Y16037300D01*
X35610800Y15962700D02*
Y16037300D01*
X33412700Y15962700D02*
X33487300D01*
Y16037300*
X33412700*
Y15962700*
X33487300*
X33412700Y15988100D02*
X33487300D01*
X33412700Y16013500D02*
X33487300D01*
X33426400Y15962700D02*
Y16037300D01*
X33451800Y15962700D02*
Y16037300D01*
X33477200Y15962700D02*
Y16037300D01*
X33687300Y15962700D02*
X33612700D01*
Y16037300*
X33687300*
Y15962700*
X33612700D02*
X33687300D01*
X33612700Y15988100D02*
X33687300D01*
X33612700Y16013500D02*
X33687300D01*
X33629600Y15962700D02*
Y16037300D01*
X33655000Y15962700D02*
Y16037300D01*
X33680400Y15962700D02*
Y16037300D01*
X34062700Y16662700D02*
X34137300D01*
Y16737300*
X34062700*
Y16662700*
X34137300*
X34062700Y16688100D02*
X34137300D01*
X34062700Y16713500D02*
X34137300D01*
X34086800Y16662700D02*
Y16737300D01*
X34112200Y16662700D02*
Y16737300D01*
X34337300Y16662700D02*
X34262700D01*
Y16737300*
X34337300*
Y16662700*
X34262700D02*
X34337300D01*
X34262700Y16688100D02*
X34337300D01*
X34262700Y16713500D02*
X34337300D01*
X34264600Y16662700D02*
Y16737300D01*
X34290000Y16662700D02*
Y16737300D01*
X34315400Y16662700D02*
Y16737300D01*
X35987700Y17137300D02*
Y17062700D01*
X36062300*
Y17137300*
X35987700*
Y17062700D02*
X36062300D01*
X35987700Y17088100D02*
X36062300D01*
X35987700Y17113500D02*
X36062300D01*
X35991800Y17062700D02*
Y17137300D01*
X36017200Y17062700D02*
Y17137300D01*
X36042600Y17062700D02*
Y17137300D01*
X35987700Y16862700D02*
Y16937300D01*
X36062300*
Y16862700*
X35987700*
X36062300*
X35987700Y16888100D02*
X36062300D01*
X35987700Y16913500D02*
X36062300D01*
X35991800Y16862700D02*
Y16937300D01*
X36017200Y16862700D02*
Y16937300D01*
X36042600Y16862700D02*
Y16937300D01*
X29542700Y16312700D02*
X29617300D01*
Y16387300*
X29542700*
Y16312700*
X29617300*
X29542700Y16338100D02*
X29617300D01*
X29542700Y16363500D02*
X29617300D01*
X29565600Y16312700D02*
Y16387300D01*
X29591000Y16312700D02*
Y16387300D01*
X29616400Y16312700D02*
Y16387300D01*
X29817300Y16312700D02*
X29742700D01*
Y16387300*
X29817300*
Y16312700*
X29742700D02*
X29817300D01*
X29742700Y16338100D02*
X29817300D01*
X29742700Y16363500D02*
X29817300D01*
X29743400Y16312700D02*
Y16387300D01*
X29768800Y16312700D02*
Y16387300D01*
X29794200Y16312700D02*
Y16387300D01*
X39192300Y22262300D02*
X39117700D01*
Y22187700*
X39192300*
Y22262300*
X39117700Y22187700D02*
X39192300D01*
X39117700Y22213100D02*
X39192300D01*
X39117700Y22238500D02*
X39192300D01*
X39141400Y22187700D02*
Y22262300D01*
X39166800Y22187700D02*
Y22262300D01*
X39192200Y22187700D02*
Y22262300D01*
X38917700D02*
X38992300D01*
Y22187700*
X38917700*
Y22262300*
Y22187700D02*
X38992300D01*
X38917700Y22213100D02*
X38992300D01*
X38917700Y22238500D02*
X38992300D01*
X38938200Y22187700D02*
Y22262300D01*
X38963600Y22187700D02*
Y22262300D01*
X38989000Y22187700D02*
Y22262300D01*
X29392300Y20337300D02*
Y20262700D01*
X29317700*
Y20337300*
X29392300*
X29317700Y20262700D02*
X29392300D01*
X29317700Y20288100D02*
X29392300D01*
X29317700Y20313500D02*
X29392300D01*
X29337000Y20262700D02*
Y20337300D01*
X29362400Y20262700D02*
Y20337300D01*
X29387800Y20262700D02*
Y20337300D01*
X29392300Y20062700D02*
Y20137300D01*
X29317700*
Y20062700*
X29392300*
X29317700D02*
X29392300D01*
X29317700Y20088100D02*
X29392300D01*
X29317700Y20113500D02*
X29392300D01*
X29337000Y20062700D02*
Y20137300D01*
X29362400Y20062700D02*
Y20137300D01*
X29387800Y20062700D02*
Y20137300D01*
X38417300Y21987300D02*
X38342700D01*
Y21912700*
X38417300*
Y21987300*
X38342700Y21912700D02*
X38417300D01*
X38342700Y21938100D02*
X38417300D01*
X38342700Y21963500D02*
X38417300D01*
X38354000Y21912700D02*
Y21987300D01*
X38379400Y21912700D02*
Y21987300D01*
X38404800Y21912700D02*
Y21987300D01*
X38142700D02*
X38217300D01*
Y21912700*
X38142700*
Y21987300*
Y21912700D02*
X38217300D01*
X38142700Y21938100D02*
X38217300D01*
X38142700Y21963500D02*
X38217300D01*
X38150800Y21912700D02*
Y21987300D01*
X38176200Y21912700D02*
Y21987300D01*
X38201600Y21912700D02*
Y21987300D01*
X38617700Y21912700D02*
X38692300D01*
Y21987300*
X38617700*
Y21912700*
X38692300*
X38617700Y21938100D02*
X38692300D01*
X38617700Y21963500D02*
X38692300D01*
X38633400Y21912700D02*
Y21987300D01*
X38658800Y21912700D02*
Y21987300D01*
X38684200Y21912700D02*
Y21987300D01*
X38892300Y21912700D02*
X38817700D01*
Y21987300*
X38892300*
Y21912700*
X38817700D02*
X38892300D01*
X38817700Y21938100D02*
X38892300D01*
X38817700Y21963500D02*
X38892300D01*
X38836600Y21912700D02*
Y21987300D01*
X38862000Y21912700D02*
Y21987300D01*
X38887400Y21912700D02*
Y21987300D01*
X37592300Y21687300D02*
X37517700D01*
Y21612700*
X37592300*
Y21687300*
X37517700Y21612700D02*
X37592300D01*
X37517700Y21638100D02*
X37592300D01*
X37517700Y21663500D02*
X37592300D01*
X37541200Y21612700D02*
Y21687300D01*
X37566600Y21612700D02*
Y21687300D01*
X37592000Y21612700D02*
Y21687300D01*
X37317700D02*
X37392300D01*
Y21612700*
X37317700*
Y21687300*
Y21612700D02*
X37392300D01*
X37317700Y21638100D02*
X37392300D01*
X37317700Y21663500D02*
X37392300D01*
X37338000Y21612700D02*
Y21687300D01*
X37363400Y21612700D02*
Y21687300D01*
X37388800Y21612700D02*
Y21687300D01*
X37587300Y21462300D02*
X37512700D01*
Y21387700*
X37587300*
Y21462300*
X37512700Y21387700D02*
X37587300D01*
X37512700Y21413100D02*
X37587300D01*
X37512700Y21438500D02*
X37587300D01*
X37515800Y21387700D02*
Y21462300D01*
X37541200Y21387700D02*
Y21462300D01*
X37566600Y21387700D02*
Y21462300D01*
X37312700D02*
X37387300D01*
Y21387700*
X37312700*
Y21462300*
Y21387700D02*
X37387300D01*
X37312700Y21413100D02*
X37387300D01*
X37312700Y21438500D02*
X37387300D01*
X37338000Y21387700D02*
Y21462300D01*
X37363400Y21387700D02*
Y21462300D01*
X37592300Y21262300D02*
X37517700D01*
Y21187700*
X37592300*
Y21262300*
X37517700Y21187700D02*
X37592300D01*
X37517700Y21213100D02*
X37592300D01*
X37517700Y21238500D02*
X37592300D01*
X37541200Y21187700D02*
Y21262300D01*
X37566600Y21187700D02*
Y21262300D01*
X37592000Y21187700D02*
Y21262300D01*
X37317700D02*
X37392300D01*
Y21187700*
X37317700*
Y21262300*
Y21187700D02*
X37392300D01*
X37317700Y21213100D02*
X37392300D01*
X37317700Y21238500D02*
X37392300D01*
X37338000Y21187700D02*
Y21262300D01*
X37363400Y21187700D02*
Y21262300D01*
X37388800Y21187700D02*
Y21262300D01*
X37767700Y23462700D02*
X37842300D01*
Y23537300*
X37767700*
Y23462700*
X37842300*
X37767700Y23488100D02*
X37842300D01*
X37767700Y23513500D02*
X37842300D01*
X37769800Y23462700D02*
Y23537300D01*
X37795200Y23462700D02*
Y23537300D01*
X37820600Y23462700D02*
Y23537300D01*
X38042300Y23462700D02*
X37967700D01*
Y23537300*
X38042300*
Y23462700*
X37967700D02*
X38042300D01*
X37967700Y23488100D02*
X38042300D01*
X37967700Y23513500D02*
X38042300D01*
X37973000Y23462700D02*
Y23537300D01*
X37998400Y23462700D02*
Y23537300D01*
X38023800Y23462700D02*
Y23537300D01*
X31262700Y20737700D02*
X31337300D01*
Y20812300*
X31262700*
Y20737700*
X31337300*
X31262700Y20763100D02*
X31337300D01*
X31262700Y20788500D02*
X31337300D01*
X31267400Y20737700D02*
Y20812300D01*
X31292800Y20737700D02*
Y20812300D01*
X31318200Y20737700D02*
Y20812300D01*
X31537300Y20737700D02*
X31462700D01*
Y20812300*
X31537300*
Y20737700*
X31462700D02*
X31537300D01*
X31462700Y20763100D02*
X31537300D01*
X31462700Y20788500D02*
X31537300D01*
X31470600Y20737700D02*
Y20812300D01*
X31496000Y20737700D02*
Y20812300D01*
X31521400Y20737700D02*
Y20812300D01*
X31537300Y21537300D02*
X31462700D01*
Y21462700*
X31537300*
Y21537300*
X31462700Y21462700D02*
X31537300D01*
X31462700Y21488100D02*
X31537300D01*
X31462700Y21513500D02*
X31537300D01*
X31470600Y21462700D02*
Y21537300D01*
X31496000Y21462700D02*
Y21537300D01*
X31521400Y21462700D02*
Y21537300D01*
X31262700D02*
X31337300D01*
Y21462700*
X31262700*
Y21537300*
Y21462700D02*
X31337300D01*
X31262700Y21488100D02*
X31337300D01*
X31262700Y21513500D02*
X31337300D01*
X31267400Y21462700D02*
Y21537300D01*
X31292800Y21462700D02*
Y21537300D01*
X31318200Y21462700D02*
Y21537300D01*
X31442300Y17812300D02*
X31367700D01*
Y17737700*
X31442300*
Y17812300*
X31367700Y17737700D02*
X31442300D01*
X31367700Y17763100D02*
X31442300D01*
X31367700Y17788500D02*
X31442300D01*
X31369000Y17737700D02*
Y17812300D01*
X31394400Y17737700D02*
Y17812300D01*
X31419800Y17737700D02*
Y17812300D01*
X31167700D02*
X31242300D01*
Y17737700*
X31167700*
Y17812300*
Y17737700D02*
X31242300D01*
X31167700Y17763100D02*
X31242300D01*
X31167700Y17788500D02*
X31242300D01*
X31191200Y17737700D02*
Y17812300D01*
X31216600Y17737700D02*
Y17812300D01*
X31242000Y17737700D02*
Y17812300D01*
X30472300D02*
X30397700D01*
Y17737700*
X30472300*
Y17812300*
X30397700Y17737700D02*
X30472300D01*
X30397700Y17763100D02*
X30472300D01*
X30397700Y17788500D02*
X30472300D01*
X30403800Y17737700D02*
Y17812300D01*
X30429200Y17737700D02*
Y17812300D01*
X30454600Y17737700D02*
Y17812300D01*
X30197700D02*
X30272300D01*
Y17737700*
X30197700*
Y17812300*
Y17737700D02*
X30272300D01*
X30197700Y17763100D02*
X30272300D01*
X30197700Y17788500D02*
X30272300D01*
X30200600Y17737700D02*
Y17812300D01*
X30226000Y17737700D02*
Y17812300D01*
X30251400Y17737700D02*
Y17812300D01*
X29262700Y22362300D02*
Y22287700D01*
X29337300*
Y22362300*
X29262700*
Y22287700D02*
X29337300D01*
X29262700Y22313100D02*
X29337300D01*
X29262700Y22338500D02*
X29337300D01*
X29286200Y22287700D02*
Y22362300D01*
X29311600Y22287700D02*
Y22362300D01*
X29337000Y22287700D02*
Y22362300D01*
X29262700Y22087700D02*
Y22162300D01*
X29337300*
Y22087700*
X29262700*
X29337300*
X29262700Y22113100D02*
X29337300D01*
X29262700Y22138500D02*
X29337300D01*
X29286200Y22087700D02*
Y22162300D01*
X29311600Y22087700D02*
Y22162300D01*
X29337000Y22087700D02*
Y22162300D01*
X31267700Y22237700D02*
X31342300D01*
Y22312300*
X31267700*
Y22237700*
X31342300*
X31267700Y22263100D02*
X31342300D01*
X31267700Y22288500D02*
X31342300D01*
X31292800Y22237700D02*
Y22312300D01*
X31318200Y22237700D02*
Y22312300D01*
X31542300Y22237700D02*
X31467700D01*
Y22312300*
X31542300*
Y22237700*
X31467700D02*
X31542300D01*
X31467700Y22263100D02*
X31542300D01*
X31467700Y22288500D02*
X31542300D01*
X31470600Y22237700D02*
Y22312300D01*
X31496000Y22237700D02*
Y22312300D01*
X31521400Y22237700D02*
Y22312300D01*
X31267700Y21687700D02*
X31342300D01*
Y21762300*
X31267700*
Y21687700*
X31342300*
X31267700Y21713100D02*
X31342300D01*
X31267700Y21738500D02*
X31342300D01*
X31292800Y21687700D02*
Y21762300D01*
X31318200Y21687700D02*
Y21762300D01*
X31542300Y21687700D02*
X31467700D01*
Y21762300*
X31542300*
Y21687700*
X31467700D02*
X31542300D01*
X31467700Y21713100D02*
X31542300D01*
X31467700Y21738500D02*
X31542300D01*
X31470600Y21687700D02*
Y21762300D01*
X31496000Y21687700D02*
Y21762300D01*
X31521400Y21687700D02*
Y21762300D01*
X34912300Y22487300D02*
X34837700D01*
Y22412700*
X34912300*
Y22487300*
X34837700Y22412700D02*
X34912300D01*
X34837700Y22438100D02*
X34912300D01*
X34837700Y22463500D02*
X34912300D01*
X34848800Y22412700D02*
Y22487300D01*
X34874200Y22412700D02*
Y22487300D01*
X34899600Y22412700D02*
Y22487300D01*
X34637700D02*
X34712300D01*
Y22412700*
X34637700*
Y22487300*
Y22412700D02*
X34712300D01*
X34637700Y22438100D02*
X34712300D01*
X34637700Y22463500D02*
X34712300D01*
X34645600Y22412700D02*
Y22487300D01*
X34671000Y22412700D02*
Y22487300D01*
X34696400Y22412700D02*
Y22487300D01*
X33337700Y23337300D02*
Y23262700D01*
X33412300*
Y23337300*
X33337700*
Y23262700D02*
X33412300D01*
X33337700Y23288100D02*
X33412300D01*
X33337700Y23313500D02*
X33412300D01*
X33350200Y23262700D02*
Y23337300D01*
X33375600Y23262700D02*
Y23337300D01*
X33401000Y23262700D02*
Y23337300D01*
X33337700Y23062700D02*
Y23137300D01*
X33412300*
Y23062700*
X33337700*
X33412300*
X33337700Y23088100D02*
X33412300D01*
X33337700Y23113500D02*
X33412300D01*
X33350200Y23062700D02*
Y23137300D01*
X33375600Y23062700D02*
Y23137300D01*
X33401000Y23062700D02*
Y23137300D01*
X31737300Y19862300D02*
Y19787700D01*
X31662700*
Y19862300*
X31737300*
X31662700Y19787700D02*
X31737300D01*
X31662700Y19813100D02*
X31737300D01*
X31662700Y19838500D02*
X31737300D01*
X31673800Y19787700D02*
Y19862300D01*
X31699200Y19787700D02*
Y19862300D01*
X31724600Y19787700D02*
Y19862300D01*
X31737300Y19587700D02*
Y19662300D01*
X31662700*
Y19587700*
X31737300*
X31662700D02*
X31737300D01*
X31662700Y19613100D02*
X31737300D01*
X31662700Y19638500D02*
X31737300D01*
X31673800Y19587700D02*
Y19662300D01*
X31699200Y19587700D02*
Y19662300D01*
X31724600Y19587700D02*
Y19662300D01*
X33112300Y19862300D02*
Y19787700D01*
X33037700*
Y19862300*
X33112300*
X33037700Y19787700D02*
X33112300D01*
X33037700Y19813100D02*
X33112300D01*
X33037700Y19838500D02*
X33112300D01*
X33045400Y19787700D02*
Y19862300D01*
X33070800Y19787700D02*
Y19862300D01*
X33096200Y19787700D02*
Y19862300D01*
X33112300Y19587700D02*
Y19662300D01*
X33037700*
Y19587700*
X33112300*
X33037700D02*
X33112300D01*
X33037700Y19613100D02*
X33112300D01*
X33037700Y19638500D02*
X33112300D01*
X33045400Y19587700D02*
Y19662300D01*
X33070800Y19587700D02*
Y19662300D01*
X33096200Y19587700D02*
Y19662300D01*
X34912300Y22287300D02*
X34837700D01*
Y22212700*
X34912300*
Y22287300*
X34837700Y22212700D02*
X34912300D01*
X34837700Y22238100D02*
X34912300D01*
X34837700Y22263500D02*
X34912300D01*
X34848800Y22212700D02*
Y22287300D01*
X34874200Y22212700D02*
Y22287300D01*
X34899600Y22212700D02*
Y22287300D01*
X34637700D02*
X34712300D01*
Y22212700*
X34637700*
Y22287300*
Y22212700D02*
X34712300D01*
X34637700Y22238100D02*
X34712300D01*
X34637700Y22263500D02*
X34712300D01*
X34645600Y22212700D02*
Y22287300D01*
X34671000Y22212700D02*
Y22287300D01*
X34696400Y22212700D02*
Y22287300D01*
X33962300Y19862300D02*
Y19787700D01*
X33887700*
Y19862300*
X33962300*
X33887700Y19787700D02*
X33962300D01*
X33887700Y19813100D02*
X33962300D01*
X33887700Y19838500D02*
X33962300D01*
X33909000Y19787700D02*
Y19862300D01*
X33934400Y19787700D02*
Y19862300D01*
X33959800Y19787700D02*
Y19862300D01*
X33962300Y19587700D02*
Y19662300D01*
X33887700*
Y19587700*
X33962300*
X33887700D02*
X33962300D01*
X33887700Y19613100D02*
X33962300D01*
X33887700Y19638500D02*
X33962300D01*
X33909000Y19587700D02*
Y19662300D01*
X33934400Y19587700D02*
Y19662300D01*
X33959800Y19587700D02*
Y19662300D01*
X37507700Y20482300D02*
Y20407700D01*
X37582300*
Y20482300*
X37507700*
Y20407700D02*
X37582300D01*
X37507700Y20433100D02*
X37582300D01*
X37507700Y20458500D02*
X37582300D01*
X37515800Y20407700D02*
Y20482300D01*
X37541200Y20407700D02*
Y20482300D01*
X37566600Y20407700D02*
Y20482300D01*
X37507700Y20207700D02*
Y20282300D01*
X37582300*
Y20207700*
X37507700*
X37582300*
X37507700Y20233100D02*
X37582300D01*
X37507700Y20258500D02*
X37582300D01*
X37515800Y20207700D02*
Y20282300D01*
X37541200Y20207700D02*
Y20282300D01*
X37566600Y20207700D02*
Y20282300D01*
X29637700Y22362300D02*
Y22287700D01*
X29712300*
Y22362300*
X29637700*
Y22287700D02*
X29712300D01*
X29637700Y22313100D02*
X29712300D01*
X29637700Y22338500D02*
X29712300D01*
X29641800Y22287700D02*
Y22362300D01*
X29667200Y22287700D02*
Y22362300D01*
X29692600Y22287700D02*
Y22362300D01*
X29637700Y22087700D02*
Y22162300D01*
X29712300*
Y22087700*
X29637700*
X29712300*
X29637700Y22113100D02*
X29712300D01*
X29637700Y22138500D02*
X29712300D01*
X29641800Y22087700D02*
Y22162300D01*
X29667200Y22087700D02*
Y22162300D01*
X29692600Y22087700D02*
Y22162300D01*
X29192300Y20337300D02*
Y20262700D01*
X29117700*
Y20337300*
X29192300*
X29117700Y20262700D02*
X29192300D01*
X29117700Y20288100D02*
X29192300D01*
X29117700Y20313500D02*
X29192300D01*
X29133800Y20262700D02*
Y20337300D01*
X29159200Y20262700D02*
Y20337300D01*
X29184600Y20262700D02*
Y20337300D01*
X29192300Y20062700D02*
Y20137300D01*
X29117700*
Y20062700*
X29192300*
X29117700D02*
X29192300D01*
X29117700Y20088100D02*
X29192300D01*
X29117700Y20113500D02*
X29192300D01*
X29133800Y20062700D02*
Y20137300D01*
X29159200Y20062700D02*
Y20137300D01*
X29184600Y20062700D02*
Y20137300D01*
X28267700Y21462700D02*
X28342300D01*
Y21537300*
X28267700*
Y21462700*
X28342300*
X28267700Y21488100D02*
X28342300D01*
X28267700Y21513500D02*
X28342300D01*
X28270200Y21462700D02*
Y21537300D01*
X28295600Y21462700D02*
Y21537300D01*
X28321000Y21462700D02*
Y21537300D01*
X28542300Y21462700D02*
X28467700D01*
Y21537300*
X28542300*
Y21462700*
X28467700D02*
X28542300D01*
X28467700Y21488100D02*
X28542300D01*
X28467700Y21513500D02*
X28542300D01*
X28473400Y21462700D02*
Y21537300D01*
X28498800Y21462700D02*
Y21537300D01*
X28524200Y21462700D02*
Y21537300D01*
X28162300Y22612300D02*
X28087700D01*
Y22537700*
X28162300*
Y22612300*
X28087700Y22537700D02*
X28162300D01*
X28087700Y22563100D02*
X28162300D01*
X28087700Y22588500D02*
X28162300D01*
X28092400Y22537700D02*
Y22612300D01*
X28117800Y22537700D02*
Y22612300D01*
X28143200Y22537700D02*
Y22612300D01*
X27887700D02*
X27962300D01*
Y22537700*
X27887700*
Y22612300*
Y22537700D02*
X27962300D01*
X27887700Y22563100D02*
X27962300D01*
X27887700Y22588500D02*
X27962300D01*
X27889200Y22537700D02*
Y22612300D01*
X27914600Y22537700D02*
Y22612300D01*
X27940000Y22537700D02*
Y22612300D01*
X28162300Y23012300D02*
X28087700D01*
Y22937700*
X28162300*
Y23012300*
X28087700Y22937700D02*
X28162300D01*
X28087700Y22963100D02*
X28162300D01*
X28087700Y22988500D02*
X28162300D01*
X28092400Y22937700D02*
Y23012300D01*
X28117800Y22937700D02*
Y23012300D01*
X28143200Y22937700D02*
Y23012300D01*
X27887700D02*
X27962300D01*
Y22937700*
X27887700*
Y23012300*
Y22937700D02*
X27962300D01*
X27887700Y22963100D02*
X27962300D01*
X27887700Y22988500D02*
X27962300D01*
X27889200Y22937700D02*
Y23012300D01*
X27914600Y22937700D02*
Y23012300D01*
X27940000Y22937700D02*
Y23012300D01*
X27254600Y21262300D02*
Y21238100D01*
X27305400*
Y21262300*
X27254600*
Y21238100D02*
X27305400D01*
X27279600D02*
Y21262300D01*
X27305000Y21238100D02*
Y21262300D01*
X27254600Y21137700D02*
Y21161900D01*
X27305400*
Y21137700*
X27254600*
X27305400*
X27279600D02*
Y21161900D01*
X27305000Y21137700D02*
Y21161900D01*
X38704600Y22987300D02*
Y22963100D01*
X38755400*
Y22987300*
X38704600*
Y22963100D02*
X38755400D01*
X38709600D02*
Y22987300D01*
X38735000Y22963100D02*
Y22987300D01*
X38704600Y22862700D02*
Y22886900D01*
X38755400*
Y22862700*
X38704600*
X38755400*
X38709600D02*
Y22886900D01*
X38735000Y22862700D02*
Y22886900D01*
X27404600Y21262300D02*
Y21238100D01*
X27455400*
Y21262300*
X27404600*
Y21238100D02*
X27455400D01*
X27406600D02*
Y21262300D01*
X27432000Y21238100D02*
Y21262300D01*
X27404600Y21137700D02*
Y21161900D01*
X27455400*
Y21137700*
X27404600*
X27455400*
X27406600D02*
Y21161900D01*
X27432000Y21137700D02*
Y21161900D01*
X36262700Y17362300D02*
Y17162700D01*
X36487300*
Y17362300*
X36262700*
Y17162700D02*
X36487300D01*
X36262700Y17188100D02*
X36487300D01*
X36262700Y17213500D02*
X36487300D01*
X36262700Y17238900D02*
X36487300D01*
X36262700Y17264300D02*
X36487300D01*
X36262700Y17289700D02*
X36487300D01*
X36262700Y17315100D02*
X36487300D01*
X36262700Y17340500D02*
X36487300D01*
X36271200Y17162700D02*
Y17362300D01*
X36296600Y17162700D02*
Y17362300D01*
X36322000Y17162700D02*
Y17362300D01*
X36347400Y17162700D02*
Y17362300D01*
X36372800Y17162700D02*
Y17362300D01*
X36398200Y17162700D02*
Y17362300D01*
X36423600Y17162700D02*
Y17362300D01*
X36449000Y17162700D02*
Y17362300D01*
X36474400Y17162700D02*
Y17362300D01*
X36262700Y16737700D02*
Y16937300D01*
X36487300*
Y16737700*
X36262700*
X36487300*
X36262700Y16763100D02*
X36487300D01*
X36262700Y16788500D02*
X36487300D01*
X36262700Y16813900D02*
X36487300D01*
X36262700Y16839300D02*
X36487300D01*
X36262700Y16864700D02*
X36487300D01*
X36262700Y16890100D02*
X36487300D01*
X36262700Y16915500D02*
X36487300D01*
X36271200Y16737700D02*
Y16937300D01*
X36296600Y16737700D02*
Y16937300D01*
X36322000Y16737700D02*
Y16937300D01*
X36347400Y16737700D02*
Y16937300D01*
X36372800Y16737700D02*
Y16937300D01*
X36398200Y16737700D02*
Y16937300D01*
X36423600Y16737700D02*
Y16937300D01*
X36449000Y16737700D02*
Y16937300D01*
X36474400Y16737700D02*
Y16937300D01*
X35062300Y15937700D02*
Y16137300D01*
X34837700*
Y15937700*
X35062300*
X34837700D02*
X35062300D01*
X34837700Y15963100D02*
X35062300D01*
X34837700Y15988500D02*
X35062300D01*
X34837700Y16013900D02*
X35062300D01*
X34837700Y16039300D02*
X35062300D01*
X34837700Y16064700D02*
X35062300D01*
X34837700Y16090100D02*
X35062300D01*
X34837700Y16115500D02*
X35062300D01*
X34848800Y15937700D02*
Y16137300D01*
X34874200Y15937700D02*
Y16137300D01*
X34899600Y15937700D02*
Y16137300D01*
X34925000Y15937700D02*
Y16137300D01*
X34950400Y15937700D02*
Y16137300D01*
X34975800Y15937700D02*
Y16137300D01*
X35001200Y15937700D02*
Y16137300D01*
X35026600Y15937700D02*
Y16137300D01*
X35052000Y15937700D02*
Y16137300D01*
X35062300Y16562300D02*
Y16362700D01*
X34837700*
Y16562300*
X35062300*
X34837700Y16362700D02*
X35062300D01*
X34837700Y16388100D02*
X35062300D01*
X34837700Y16413500D02*
X35062300D01*
X34837700Y16438900D02*
X35062300D01*
X34837700Y16464300D02*
X35062300D01*
X34837700Y16489700D02*
X35062300D01*
X34837700Y16515100D02*
X35062300D01*
X34837700Y16540500D02*
X35062300D01*
X34848800Y16362700D02*
Y16562300D01*
X34874200Y16362700D02*
Y16562300D01*
X34899600Y16362700D02*
Y16562300D01*
X34925000Y16362700D02*
Y16562300D01*
X34950400Y16362700D02*
Y16562300D01*
X34975800Y16362700D02*
Y16562300D01*
X35001200Y16362700D02*
Y16562300D01*
X35026600Y16362700D02*
Y16562300D01*
X35052000Y16362700D02*
Y16562300D01*
X38399600Y14637300D02*
Y14613100D01*
X38450400*
Y14637300*
X38399600*
Y14613100D02*
X38450400D01*
X38404800D02*
Y14637300D01*
X38430200Y14613100D02*
Y14637300D01*
X38399600Y14512700D02*
Y14536900D01*
X38450400*
Y14512700*
X38399600*
X38450400*
X38404800D02*
Y14536900D01*
X38430200Y14512700D02*
Y14536900D01*
X27277300Y16462700D02*
Y16612300D01*
X27102700*
Y16462700*
X27277300*
X27102700D02*
X27277300D01*
X27102700Y16488100D02*
X27277300D01*
X27102700Y16513500D02*
X27277300D01*
X27102700Y16538900D02*
X27277300D01*
X27102700Y16564300D02*
X27277300D01*
X27102700Y16589700D02*
X27277300D01*
X27127200Y16462700D02*
Y16612300D01*
X27152600Y16462700D02*
Y16612300D01*
X27178000Y16462700D02*
Y16612300D01*
X27203400Y16462700D02*
Y16612300D01*
X27228800Y16462700D02*
Y16612300D01*
X27254200Y16462700D02*
Y16612300D01*
X27277300Y17037300D02*
Y16887700D01*
X27102700*
Y17037300*
X27277300*
X27102700Y16887700D02*
X27277300D01*
X27102700Y16913100D02*
X27277300D01*
X27102700Y16938500D02*
X27277300D01*
X27102700Y16963900D02*
X27277300D01*
X27102700Y16989300D02*
X27277300D01*
X27102700Y17014700D02*
X27277300D01*
X27127200Y16887700D02*
Y17037300D01*
X27152600Y16887700D02*
Y17037300D01*
X27178000Y16887700D02*
Y17037300D01*
X27203400Y16887700D02*
Y17037300D01*
X27228800Y16887700D02*
Y17037300D01*
X27254200Y16887700D02*
Y17037300D01*
X27277300Y15387700D02*
Y15537300D01*
X27102700*
Y15387700*
X27277300*
X27102700D02*
X27277300D01*
X27102700Y15413100D02*
X27277300D01*
X27102700Y15438500D02*
X27277300D01*
X27102700Y15463900D02*
X27277300D01*
X27102700Y15489300D02*
X27277300D01*
X27102700Y15514700D02*
X27277300D01*
X27127200Y15387700D02*
Y15537300D01*
X27152600Y15387700D02*
Y15537300D01*
X27178000Y15387700D02*
Y15537300D01*
X27203400Y15387700D02*
Y15537300D01*
X27228800Y15387700D02*
Y15537300D01*
X27254200Y15387700D02*
Y15537300D01*
X27277300Y15962300D02*
Y15812700D01*
X27102700*
Y15962300*
X27277300*
X27102700Y15812700D02*
X27277300D01*
X27102700Y15838100D02*
X27277300D01*
X27102700Y15863500D02*
X27277300D01*
X27102700Y15888900D02*
X27277300D01*
X27102700Y15914300D02*
X27277300D01*
X27102700Y15939700D02*
X27277300D01*
X27127200Y15812700D02*
Y15962300D01*
X27152600Y15812700D02*
Y15962300D01*
X27178000Y15812700D02*
Y15962300D01*
X27203400Y15812700D02*
Y15962300D01*
X27228800Y15812700D02*
Y15962300D01*
X27254200Y15812700D02*
Y15962300D01*
X38755400Y23162700D02*
Y23186900D01*
X38704600*
Y23162700*
X38755400*
X38704600D02*
X38755400D01*
X38709600D02*
Y23186900D01*
X38735000Y23162700D02*
Y23186900D01*
X38755400Y23287300D02*
Y23263100D01*
X38704600*
Y23287300*
X38755400*
X38704600Y23263100D02*
X38755400D01*
X38709600D02*
Y23287300D01*
X38735000Y23263100D02*
Y23287300D01*
X38112700Y15637700D02*
X38437300D01*
Y15812300*
X38112700*
Y15637700*
X38437300*
X38112700Y15663100D02*
X38437300D01*
X38112700Y15688500D02*
X38437300D01*
X38112700Y15713900D02*
X38437300D01*
X38112700Y15739300D02*
X38437300D01*
X38112700Y15764700D02*
X38437300D01*
X38112700Y15790100D02*
X38437300D01*
X38125400Y15637700D02*
Y15812300D01*
X38150800Y15637700D02*
Y15812300D01*
X38176200Y15637700D02*
Y15812300D01*
X38201600Y15637700D02*
Y15812300D01*
X38227000Y15637700D02*
Y15812300D01*
X38252400Y15637700D02*
Y15812300D01*
X38277800Y15637700D02*
Y15812300D01*
X38303200Y15637700D02*
Y15812300D01*
X38328600Y15637700D02*
Y15812300D01*
X38354000Y15637700D02*
Y15812300D01*
X38379400Y15637700D02*
Y15812300D01*
X38404800Y15637700D02*
Y15812300D01*
X38430200Y15637700D02*
Y15812300D01*
X39287300Y15637700D02*
X38962700D01*
Y15812300*
X39287300*
Y15637700*
X38962700D02*
X39287300D01*
X38962700Y15663100D02*
X39287300D01*
X38962700Y15688500D02*
X39287300D01*
X38962700Y15713900D02*
X39287300D01*
X38962700Y15739300D02*
X39287300D01*
X38962700Y15764700D02*
X39287300D01*
X38962700Y15790100D02*
X39287300D01*
X38963600Y15637700D02*
Y15812300D01*
X38989000Y15637700D02*
Y15812300D01*
X39014400Y15637700D02*
Y15812300D01*
X39039800Y15637700D02*
Y15812300D01*
X39065200Y15637700D02*
Y15812300D01*
X39090600Y15637700D02*
Y15812300D01*
X39116000Y15637700D02*
Y15812300D01*
X39141400Y15637700D02*
Y15812300D01*
X39166800Y15637700D02*
Y15812300D01*
X39192200Y15637700D02*
Y15812300D01*
X39217600Y15637700D02*
Y15812300D01*
X39243000Y15637700D02*
Y15812300D01*
X39268400Y15637700D02*
Y15812300D01*
X38937700Y17237300D02*
Y17062700D01*
X39012300*
Y17237300*
X38937700*
Y17062700D02*
X39012300D01*
X38937700Y17088100D02*
X39012300D01*
X38937700Y17113500D02*
X39012300D01*
X38937700Y17138900D02*
X39012300D01*
X38937700Y17164300D02*
X39012300D01*
X38937700Y17189700D02*
X39012300D01*
X38937700Y17215100D02*
X39012300D01*
X38938200Y17062700D02*
Y17237300D01*
X38963600Y17062700D02*
Y17237300D01*
X38989000Y17062700D02*
Y17237300D01*
X38937700Y16562700D02*
Y16737300D01*
X39012300*
Y16562700*
X38937700*
X39012300*
X38937700Y16588100D02*
X39012300D01*
X38937700Y16613500D02*
X39012300D01*
X38937700Y16638900D02*
X39012300D01*
X38937700Y16664300D02*
X39012300D01*
X38937700Y16689700D02*
X39012300D01*
X38937700Y16715100D02*
X39012300D01*
X38938200Y16562700D02*
Y16737300D01*
X38963600Y16562700D02*
Y16737300D01*
X38989000Y16562700D02*
Y16737300D01*
X33537300Y17337300D02*
X33212700D01*
Y17162700*
X33537300*
Y17337300*
X33212700Y17162700D02*
X33537300D01*
X33212700Y17188100D02*
X33537300D01*
X33212700Y17213500D02*
X33537300D01*
X33212700Y17238900D02*
X33537300D01*
X33212700Y17264300D02*
X33537300D01*
X33212700Y17289700D02*
X33537300D01*
X33212700Y17315100D02*
X33537300D01*
X33223200Y17162700D02*
Y17337300D01*
X33248600Y17162700D02*
Y17337300D01*
X33274000Y17162700D02*
Y17337300D01*
X33299400Y17162700D02*
Y17337300D01*
X33324800Y17162700D02*
Y17337300D01*
X33350200Y17162700D02*
Y17337300D01*
X33375600Y17162700D02*
Y17337300D01*
X33401000Y17162700D02*
Y17337300D01*
X33426400Y17162700D02*
Y17337300D01*
X33451800Y17162700D02*
Y17337300D01*
X33477200Y17162700D02*
Y17337300D01*
X33502600Y17162700D02*
Y17337300D01*
X33528000Y17162700D02*
Y17337300D01*
X32362700D02*
X32687300D01*
Y17162700*
X32362700*
Y17337300*
Y17162700D02*
X32687300D01*
X32362700Y17188100D02*
X32687300D01*
X32362700Y17213500D02*
X32687300D01*
X32362700Y17238900D02*
X32687300D01*
X32362700Y17264300D02*
X32687300D01*
X32362700Y17289700D02*
X32687300D01*
X32362700Y17315100D02*
X32687300D01*
X32385000Y17162700D02*
Y17337300D01*
X32410400Y17162700D02*
Y17337300D01*
X32435800Y17162700D02*
Y17337300D01*
X32461200Y17162700D02*
Y17337300D01*
X32486600Y17162700D02*
Y17337300D01*
X32512000Y17162700D02*
Y17337300D01*
X32537400Y17162700D02*
Y17337300D01*
X32562800Y17162700D02*
Y17337300D01*
X32588200Y17162700D02*
Y17337300D01*
X32613600Y17162700D02*
Y17337300D01*
X32639000Y17162700D02*
Y17337300D01*
X32664400Y17162700D02*
Y17337300D01*
X32837300Y15537300D02*
X32662700D01*
Y15462700*
X32837300*
Y15537300*
X32662700Y15462700D02*
X32837300D01*
X32662700Y15488100D02*
X32837300D01*
X32662700Y15513500D02*
X32837300D01*
X32664400Y15462700D02*
Y15537300D01*
X32689800Y15462700D02*
Y15537300D01*
X32715200Y15462700D02*
Y15537300D01*
X32740600Y15462700D02*
Y15537300D01*
X32766000Y15462700D02*
Y15537300D01*
X32791400Y15462700D02*
Y15537300D01*
X32816800Y15462700D02*
Y15537300D01*
X32162700D02*
X32337300D01*
Y15462700*
X32162700*
Y15537300*
Y15462700D02*
X32337300D01*
X32162700Y15488100D02*
X32337300D01*
X32162700Y15513500D02*
X32337300D01*
X32181800Y15462700D02*
Y15537300D01*
X32207200Y15462700D02*
Y15537300D01*
X32232600Y15462700D02*
Y15537300D01*
X32258000Y15462700D02*
Y15537300D01*
X32283400Y15462700D02*
Y15537300D01*
X32308800Y15462700D02*
Y15537300D01*
X32334200Y15462700D02*
Y15537300D01*
X35812300D02*
X35637700D01*
Y15462700*
X35812300*
Y15537300*
X35637700Y15462700D02*
X35812300D01*
X35637700Y15488100D02*
X35812300D01*
X35637700Y15513500D02*
X35812300D01*
X35661600Y15462700D02*
Y15537300D01*
X35687000Y15462700D02*
Y15537300D01*
X35712400Y15462700D02*
Y15537300D01*
X35737800Y15462700D02*
Y15537300D01*
X35763200Y15462700D02*
Y15537300D01*
X35788600Y15462700D02*
Y15537300D01*
X35137700D02*
X35312300D01*
Y15462700*
X35137700*
Y15537300*
Y15462700D02*
X35312300D01*
X35137700Y15488100D02*
X35312300D01*
X35137700Y15513500D02*
X35312300D01*
X35153600Y15462700D02*
Y15537300D01*
X35179000Y15462700D02*
Y15537300D01*
X35204400Y15462700D02*
Y15537300D01*
X35229800Y15462700D02*
Y15537300D01*
X35255200Y15462700D02*
Y15537300D01*
X35280600Y15462700D02*
Y15537300D01*
X35306000Y15462700D02*
Y15537300D01*
X33887300D02*
X33712700D01*
Y15462700*
X33887300*
Y15537300*
X33712700Y15462700D02*
X33887300D01*
X33712700Y15488100D02*
X33887300D01*
X33712700Y15513500D02*
X33887300D01*
X33731200Y15462700D02*
Y15537300D01*
X33756600Y15462700D02*
Y15537300D01*
X33782000Y15462700D02*
Y15537300D01*
X33807400Y15462700D02*
Y15537300D01*
X33832800Y15462700D02*
Y15537300D01*
X33858200Y15462700D02*
Y15537300D01*
X33883600Y15462700D02*
Y15537300D01*
X33212700D02*
X33387300D01*
Y15462700*
X33212700*
Y15537300*
Y15462700D02*
X33387300D01*
X33212700Y15488100D02*
X33387300D01*
X33212700Y15513500D02*
X33387300D01*
X33223200Y15462700D02*
Y15537300D01*
X33248600Y15462700D02*
Y15537300D01*
X33274000Y15462700D02*
Y15537300D01*
X33299400Y15462700D02*
Y15537300D01*
X33324800Y15462700D02*
Y15537300D01*
X33350200Y15462700D02*
Y15537300D01*
X33375600Y15462700D02*
Y15537300D01*
X33437700Y19387700D02*
Y19512300D01*
X33512300*
Y19387700*
X33437700*
X33512300*
X33437700Y19413100D02*
X33512300D01*
X33437700Y19438500D02*
X33512300D01*
X33437700Y19463900D02*
X33512300D01*
X33437700Y19489300D02*
X33512300D01*
X33451800Y19387700D02*
Y19512300D01*
X33477200Y19387700D02*
Y19512300D01*
X33502600Y19387700D02*
Y19512300D01*
X33437700Y19862300D02*
Y19737700D01*
X33512300*
Y19862300*
X33437700*
Y19737700D02*
X33512300D01*
X33437700Y19763100D02*
X33512300D01*
X33437700Y19788500D02*
X33512300D01*
X33437700Y19813900D02*
X33512300D01*
X33437700Y19839300D02*
X33512300D01*
X33451800Y19737700D02*
Y19862300D01*
X33477200Y19737700D02*
Y19862300D01*
X33502600Y19737700D02*
Y19862300D01*
X32087700Y19387700D02*
Y19512300D01*
X32162300*
Y19387700*
X32087700*
X32162300*
X32087700Y19413100D02*
X32162300D01*
X32087700Y19438500D02*
X32162300D01*
X32087700Y19463900D02*
X32162300D01*
X32087700Y19489300D02*
X32162300D01*
X32105600Y19387700D02*
Y19512300D01*
X32131000Y19387700D02*
Y19512300D01*
X32156400Y19387700D02*
Y19512300D01*
X32087700Y19862300D02*
Y19737700D01*
X32162300*
Y19862300*
X32087700*
Y19737700D02*
X32162300D01*
X32087700Y19763100D02*
X32162300D01*
X32087700Y19788500D02*
X32162300D01*
X32087700Y19813900D02*
X32162300D01*
X32087700Y19839300D02*
X32162300D01*
X32105600Y19737700D02*
Y19862300D01*
X32131000Y19737700D02*
Y19862300D01*
X32156400Y19737700D02*
Y19862300D01*
X29002300Y16512300D02*
Y16437700D01*
X28915200*
Y16512300*
X29002300*
X28915200Y16437700D02*
X29002300D01*
X28915200Y16463100D02*
X29002300D01*
X28915200Y16488500D02*
X29002300D01*
X28930600Y16437700D02*
Y16512300D01*
X28956000Y16437700D02*
Y16512300D01*
X28981400Y16437700D02*
Y16512300D01*
X28776500Y16602000D02*
Y16525800D01*
X28713000*
Y16602000*
X28776500*
X28713000Y16525800D02*
X28776500D01*
X28713000Y16551200D02*
X28776500D01*
X28713000Y16576600D02*
X28776500D01*
X28713000Y16602000D02*
X28776500D01*
X28727400Y16525800D02*
Y16602000D01*
X28752800Y16525800D02*
Y16602000D01*
X28776500Y16424200D02*
Y16348000D01*
X28713000*
Y16424200*
X28776500*
X28713000Y16348000D02*
X28776500D01*
X28713000Y16373400D02*
X28776500D01*
X28713000Y16398800D02*
X28776500D01*
X28713000Y16424200D02*
X28776500D01*
X28727400Y16348000D02*
Y16424200D01*
X28752800Y16348000D02*
Y16424200D01*
X29002300Y15562300D02*
Y15487700D01*
X28915200*
Y15562300*
X29002300*
X28915200Y15487700D02*
X29002300D01*
X28915200Y15513100D02*
X29002300D01*
X28915200Y15538500D02*
X29002300D01*
X28930600Y15487700D02*
Y15562300D01*
X28956000Y15487700D02*
Y15562300D01*
X28981400Y15487700D02*
Y15562300D01*
X28776500Y15652000D02*
Y15575800D01*
X28713000*
Y15652000*
X28776500*
X28713000Y15575800D02*
X28776500D01*
X28713000Y15601200D02*
X28776500D01*
X28713000Y15626600D02*
X28776500D01*
X28713000Y15652000D02*
X28776500D01*
X28727400Y15575800D02*
Y15652000D01*
X28752800Y15575800D02*
Y15652000D01*
X28776500Y15474200D02*
Y15398000D01*
X28713000*
Y15474200*
X28776500*
X28713000Y15398000D02*
X28776500D01*
X28713000Y15423400D02*
X28776500D01*
X28713000Y15448800D02*
X28776500D01*
X28713000Y15474200D02*
X28776500D01*
X28727400Y15398000D02*
Y15474200D01*
X28752800Y15398000D02*
Y15474200D01*
X26477300Y16537300D02*
Y16462700D01*
X26390200*
Y16537300*
X26477300*
X26390200Y16462700D02*
X26477300D01*
X26390200Y16488100D02*
X26477300D01*
X26390200Y16513500D02*
X26477300D01*
X26390600Y16462700D02*
Y16537300D01*
X26416000Y16462700D02*
Y16537300D01*
X26441400Y16462700D02*
Y16537300D01*
X26466800Y16462700D02*
Y16537300D01*
X26251500Y16627000D02*
Y16550800D01*
X26188000*
Y16627000*
X26251500*
X26188000Y16550800D02*
X26251500D01*
X26188000Y16576200D02*
X26251500D01*
X26188000Y16601600D02*
X26251500D01*
X26188000Y16627000D02*
X26251500D01*
X26212800Y16550800D02*
Y16627000D01*
X26238200Y16550800D02*
Y16627000D01*
X26251500Y16449200D02*
Y16373000D01*
X26188000*
Y16449200*
X26251500*
X26188000Y16373000D02*
X26251500D01*
X26188000Y16398400D02*
X26251500D01*
X26188000Y16423800D02*
X26251500D01*
X26188000Y16449200D02*
X26251500D01*
X26212800Y16373000D02*
Y16449200D01*
X26238200Y16373000D02*
Y16449200D01*
X26477300Y15462300D02*
Y15387700D01*
X26390200*
Y15462300*
X26477300*
X26390200Y15387700D02*
X26477300D01*
X26390200Y15413100D02*
X26477300D01*
X26390200Y15438500D02*
X26477300D01*
X26390600Y15387700D02*
Y15462300D01*
X26416000Y15387700D02*
Y15462300D01*
X26441400Y15387700D02*
Y15462300D01*
X26466800Y15387700D02*
Y15462300D01*
X26251500Y15552000D02*
Y15475800D01*
X26188000*
Y15552000*
X26251500*
X26188000Y15475800D02*
X26251500D01*
X26188000Y15501200D02*
X26251500D01*
X26188000Y15526600D02*
X26251500D01*
X26188000Y15552000D02*
X26251500D01*
X26212800Y15475800D02*
Y15552000D01*
X26238200Y15475800D02*
Y15552000D01*
X26251500Y15374200D02*
Y15298000D01*
X26188000*
Y15374200*
X26251500*
X26188000Y15298000D02*
X26251500D01*
X26188000Y15323400D02*
X26251500D01*
X26188000Y15348800D02*
X26251500D01*
X26188000Y15374200D02*
X26251500D01*
X26212800Y15298000D02*
Y15374200D01*
X26238200Y15298000D02*
Y15374200D01*
X37557300Y19932300D02*
Y19857700D01*
X37470200*
Y19932300*
X37557300*
X37470200Y19857700D02*
X37557300D01*
X37470200Y19883100D02*
X37557300D01*
X37470200Y19908500D02*
X37557300D01*
X37490400Y19857700D02*
Y19932300D01*
X37515800Y19857700D02*
Y19932300D01*
X37541200Y19857700D02*
Y19932300D01*
X37331500Y20022000D02*
Y19945800D01*
X37268000*
Y20022000*
X37331500*
X37268000Y19945800D02*
X37331500D01*
X37268000Y19971200D02*
X37331500D01*
X37268000Y19996600D02*
X37331500D01*
X37268000Y20022000D02*
X37331500D01*
X37287200Y19945800D02*
Y20022000D01*
X37312600Y19945800D02*
Y20022000D01*
X37331500Y19844200D02*
Y19768000D01*
X37268000*
Y19844200*
X37331500*
X37268000Y19768000D02*
X37331500D01*
X37268000Y19793400D02*
X37331500D01*
X37268000Y19818800D02*
X37331500D01*
X37268000Y19844200D02*
X37331500D01*
X37287200Y19768000D02*
Y19844200D01*
X37312600Y19768000D02*
Y19844200D01*
X27267700Y21812700D02*
Y21887300D01*
X27342300*
Y21812700*
X27267700*
X27342300*
X27267700Y21838100D02*
X27342300D01*
X27267700Y21863500D02*
X27342300D01*
X27279600Y21812700D02*
Y21887300D01*
X27305000Y21812700D02*
Y21887300D01*
X27330400Y21812700D02*
Y21887300D01*
X27267700Y21612700D02*
Y21687300D01*
X27342300*
Y21612700*
X27267700*
X27342300*
X27267700Y21638100D02*
X27342300D01*
X27267700Y21663500D02*
X27342300D01*
X27279600Y21612700D02*
Y21687300D01*
X27305000Y21612700D02*
Y21687300D01*
X27330400Y21612700D02*
Y21687300D01*
X28342300Y20812700D02*
X28267700D01*
Y20887300*
X28342300*
Y20812700*
X28267700D02*
X28342300D01*
X28267700Y20838100D02*
X28342300D01*
X28267700Y20863500D02*
X28342300D01*
X28270200Y20812700D02*
Y20887300D01*
X28295600Y20812700D02*
Y20887300D01*
X28321000Y20812700D02*
Y20887300D01*
X28542300Y20812700D02*
X28467700D01*
Y20887300*
X28542300*
Y20812700*
X28467700D02*
X28542300D01*
X28467700Y20838100D02*
X28542300D01*
X28467700Y20863500D02*
X28542300D01*
X28473400Y20812700D02*
Y20887300D01*
X28498800Y20812700D02*
Y20887300D01*
X28524200Y20812700D02*
Y20887300D01*
X29837700Y22287700D02*
Y22362300D01*
X29912300*
Y22287700*
X29837700*
X29912300*
X29837700Y22313100D02*
X29912300D01*
X29837700Y22338500D02*
X29912300D01*
X29845000Y22287700D02*
Y22362300D01*
X29870400Y22287700D02*
Y22362300D01*
X29895800Y22287700D02*
Y22362300D01*
X29837700Y22087700D02*
Y22162300D01*
X29912300*
Y22087700*
X29837700*
X29912300*
X29837700Y22113100D02*
X29912300D01*
X29837700Y22138500D02*
X29912300D01*
X29845000Y22087700D02*
Y22162300D01*
X29870400Y22087700D02*
Y22162300D01*
X29895800Y22087700D02*
Y22162300D01*
X28992300Y20137300D02*
Y20062700D01*
X28917700*
Y20137300*
X28992300*
X28917700Y20062700D02*
X28992300D01*
X28917700Y20088100D02*
X28992300D01*
X28917700Y20113500D02*
X28992300D01*
X28930600Y20062700D02*
Y20137300D01*
X28956000Y20062700D02*
Y20137300D01*
X28981400Y20062700D02*
Y20137300D01*
X28992300Y20337300D02*
Y20262700D01*
X28917700*
Y20337300*
X28992300*
X28917700Y20262700D02*
X28992300D01*
X28917700Y20288100D02*
X28992300D01*
X28917700Y20313500D02*
X28992300D01*
X28930600Y20262700D02*
Y20337300D01*
X28956000Y20262700D02*
Y20337300D01*
X28981400Y20262700D02*
Y20337300D01*
X36037700Y15562300D02*
X36262300D01*
Y15237700*
X36037700*
Y15562300*
Y15237700D02*
X36262300D01*
X36037700Y15263100D02*
X36262300D01*
X36037700Y15288500D02*
X36262300D01*
X36037700Y15313900D02*
X36262300D01*
X36037700Y15339300D02*
X36262300D01*
X36037700Y15364700D02*
X36262300D01*
X36037700Y15390100D02*
X36262300D01*
X36037700Y15415500D02*
X36262300D01*
X36037700Y15440900D02*
X36262300D01*
X36037700Y15466300D02*
X36262300D01*
X36037700Y15491700D02*
X36262300D01*
X36037700Y15517100D02*
X36262300D01*
X36037700Y15542500D02*
X36262300D01*
X36042600Y15237700D02*
Y15562300D01*
X36068000Y15237700D02*
Y15562300D01*
X36093400Y15237700D02*
Y15562300D01*
X36118800Y15237700D02*
Y15562300D01*
X36144200Y15237700D02*
Y15562300D01*
X36169600Y15237700D02*
Y15562300D01*
X36195000Y15237700D02*
Y15562300D01*
X36220400Y15237700D02*
Y15562300D01*
X36245800Y15237700D02*
Y15562300D01*
X36587700D02*
X36812300D01*
Y15237700*
X36587700*
Y15562300*
Y15237700D02*
X36812300D01*
X36587700Y15263100D02*
X36812300D01*
X36587700Y15288500D02*
X36812300D01*
X36587700Y15313900D02*
X36812300D01*
X36587700Y15339300D02*
X36812300D01*
X36587700Y15364700D02*
X36812300D01*
X36587700Y15390100D02*
X36812300D01*
X36587700Y15415500D02*
X36812300D01*
X36587700Y15440900D02*
X36812300D01*
X36587700Y15466300D02*
X36812300D01*
X36587700Y15491700D02*
X36812300D01*
X36587700Y15517100D02*
X36812300D01*
X36587700Y15542500D02*
X36812300D01*
X36601400Y15237700D02*
Y15562300D01*
X36626800Y15237700D02*
Y15562300D01*
X36652200Y15237700D02*
Y15562300D01*
X36677600Y15237700D02*
Y15562300D01*
X36703000Y15237700D02*
Y15562300D01*
X36728400Y15237700D02*
Y15562300D01*
X36753800Y15237700D02*
Y15562300D01*
X36779200Y15237700D02*
Y15562300D01*
X36804600Y15237700D02*
Y15562300D01*
X37537300Y16987300D02*
Y16912700D01*
X37462700*
Y16987300*
X37537300*
X37462700Y16912700D02*
X37537300D01*
X37462700Y16938100D02*
X37537300D01*
X37462700Y16963500D02*
X37537300D01*
X37465000Y16912700D02*
Y16987300D01*
X37490400Y16912700D02*
Y16987300D01*
X37515800Y16912700D02*
Y16987300D01*
X37537300Y17187300D02*
Y17112700D01*
X37462700*
Y17187300*
X37537300*
X37462700Y17112700D02*
X37537300D01*
X37462700Y17138100D02*
X37537300D01*
X37462700Y17163500D02*
X37537300D01*
X37465000Y17112700D02*
Y17187300D01*
X37490400Y17112700D02*
Y17187300D01*
X37515800Y17112700D02*
Y17187300D01*
X35862700Y16412700D02*
Y16487300D01*
X35937300*
Y16412700*
X35862700*
X35937300*
X35862700Y16438100D02*
X35937300D01*
X35862700Y16463500D02*
X35937300D01*
X35864800Y16412700D02*
Y16487300D01*
X35890200Y16412700D02*
Y16487300D01*
X35915600Y16412700D02*
Y16487300D01*
X35862700Y16212700D02*
Y16287300D01*
X35937300*
Y16212700*
X35862700*
X35937300*
X35862700Y16238100D02*
X35937300D01*
X35862700Y16263500D02*
X35937300D01*
X35864800Y16212700D02*
Y16287300D01*
X35890200Y16212700D02*
Y16287300D01*
X35915600Y16212700D02*
Y16287300D01*
X34137700Y15562300D02*
X34362300D01*
Y15237700*
X34137700*
Y15562300*
Y15237700D02*
X34362300D01*
X34137700Y15263100D02*
X34362300D01*
X34137700Y15288500D02*
X34362300D01*
X34137700Y15313900D02*
X34362300D01*
X34137700Y15339300D02*
X34362300D01*
X34137700Y15364700D02*
X34362300D01*
X34137700Y15390100D02*
X34362300D01*
X34137700Y15415500D02*
X34362300D01*
X34137700Y15440900D02*
X34362300D01*
X34137700Y15466300D02*
X34362300D01*
X34137700Y15491700D02*
X34362300D01*
X34137700Y15517100D02*
X34362300D01*
X34137700Y15542500D02*
X34362300D01*
X34163000Y15237700D02*
Y15562300D01*
X34188400Y15237700D02*
Y15562300D01*
X34213800Y15237700D02*
Y15562300D01*
X34239200Y15237700D02*
Y15562300D01*
X34264600Y15237700D02*
Y15562300D01*
X34290000Y15237700D02*
Y15562300D01*
X34315400Y15237700D02*
Y15562300D01*
X34340800Y15237700D02*
Y15562300D01*
X34687700D02*
X34912300D01*
Y15237700*
X34687700*
Y15562300*
Y15237700D02*
X34912300D01*
X34687700Y15263100D02*
X34912300D01*
X34687700Y15288500D02*
X34912300D01*
X34687700Y15313900D02*
X34912300D01*
X34687700Y15339300D02*
X34912300D01*
X34687700Y15364700D02*
X34912300D01*
X34687700Y15390100D02*
X34912300D01*
X34687700Y15415500D02*
X34912300D01*
X34687700Y15440900D02*
X34912300D01*
X34687700Y15466300D02*
X34912300D01*
X34687700Y15491700D02*
X34912300D01*
X34687700Y15517100D02*
X34912300D01*
X34687700Y15542500D02*
X34912300D01*
X34696400Y15237700D02*
Y15562300D01*
X34721800Y15237700D02*
Y15562300D01*
X34747200Y15237700D02*
Y15562300D01*
X34772600Y15237700D02*
Y15562300D01*
X34798000Y15237700D02*
Y15562300D01*
X34823400Y15237700D02*
Y15562300D01*
X34848800Y15237700D02*
Y15562300D01*
X34874200Y15237700D02*
Y15562300D01*
X34899600Y15237700D02*
Y15562300D01*
X35062700Y17512700D02*
Y17587300D01*
X35137300*
Y17512700*
X35062700*
X35137300*
X35062700Y17538100D02*
X35137300D01*
X35062700Y17563500D02*
X35137300D01*
X35077400Y17512700D02*
Y17587300D01*
X35102800Y17512700D02*
Y17587300D01*
X35128200Y17512700D02*
Y17587300D01*
X35062700Y17312700D02*
Y17387300D01*
X35137300*
Y17312700*
X35062700*
X35137300*
X35062700Y17338100D02*
X35137300D01*
X35062700Y17363500D02*
X35137300D01*
X35077400Y17312700D02*
Y17387300D01*
X35102800Y17312700D02*
Y17387300D01*
X35128200Y17312700D02*
Y17387300D01*
X33142300Y14562700D02*
X33067700D01*
Y14637300*
X33142300*
Y14562700*
X33067700D02*
X33142300D01*
X33067700Y14588100D02*
X33142300D01*
X33067700Y14613500D02*
X33142300D01*
X33070800Y14562700D02*
Y14637300D01*
X33096200Y14562700D02*
Y14637300D01*
X33121600Y14562700D02*
Y14637300D01*
X33342300Y14562700D02*
X33267700D01*
Y14637300*
X33342300*
Y14562700*
X33267700D02*
X33342300D01*
X33267700Y14588100D02*
X33342300D01*
X33267700Y14613500D02*
X33342300D01*
X33274000Y14562700D02*
Y14637300D01*
X33299400Y14562700D02*
Y14637300D01*
X33324800Y14562700D02*
Y14637300D01*
X33937700Y16412700D02*
Y16487300D01*
X34012300*
Y16412700*
X33937700*
X34012300*
X33937700Y16438100D02*
X34012300D01*
X33937700Y16463500D02*
X34012300D01*
X33959800Y16412700D02*
Y16487300D01*
X33985200Y16412700D02*
Y16487300D01*
X34010600Y16412700D02*
Y16487300D01*
X33937700Y16212700D02*
Y16287300D01*
X34012300*
Y16212700*
X33937700*
X34012300*
X33937700Y16238100D02*
X34012300D01*
X33937700Y16263500D02*
X34012300D01*
X33959800Y16212700D02*
Y16287300D01*
X33985200Y16212700D02*
Y16287300D01*
X34010600Y16212700D02*
Y16287300D01*
X27142300Y21212300D02*
Y21137700D01*
X27067700*
Y21212300*
X27142300*
X27067700Y21137700D02*
X27142300D01*
X27067700Y21163100D02*
X27142300D01*
X27067700Y21188500D02*
X27142300D01*
X27076400Y21137700D02*
Y21212300D01*
X27101800Y21137700D02*
Y21212300D01*
X27127200Y21137700D02*
Y21212300D01*
X27142300Y21412300D02*
Y21337700D01*
X27067700*
Y21412300*
X27142300*
X27067700Y21337700D02*
X27142300D01*
X27067700Y21363100D02*
X27142300D01*
X27067700Y21388500D02*
X27142300D01*
X27076400Y21337700D02*
Y21412300D01*
X27101800Y21337700D02*
Y21412300D01*
X27127200Y21337700D02*
Y21412300D01*
X35637700Y16412700D02*
Y16487300D01*
X35712300*
Y16412700*
X35637700*
X35712300*
X35637700Y16438100D02*
X35712300D01*
X35637700Y16463500D02*
X35712300D01*
X35661600Y16412700D02*
Y16487300D01*
X35687000Y16412700D02*
Y16487300D01*
X35637700Y16212700D02*
Y16287300D01*
X35712300*
Y16212700*
X35637700*
X35712300*
X35637700Y16238100D02*
X35712300D01*
X35637700Y16263500D02*
X35712300D01*
X35661600Y16212700D02*
Y16287300D01*
X35687000Y16212700D02*
Y16287300D01*
X33737700Y16412700D02*
Y16487300D01*
X33812300*
Y16412700*
X33737700*
X33812300*
X33737700Y16438100D02*
X33812300D01*
X33737700Y16463500D02*
X33812300D01*
X33756600Y16412700D02*
Y16487300D01*
X33782000Y16412700D02*
Y16487300D01*
X33807400Y16412700D02*
Y16487300D01*
X33737700Y16212700D02*
Y16287300D01*
X33812300*
Y16212700*
X33737700*
X33812300*
X33737700Y16238100D02*
X33812300D01*
X33737700Y16263500D02*
X33812300D01*
X33756600Y16212700D02*
Y16287300D01*
X33782000Y16212700D02*
Y16287300D01*
X33807400Y16212700D02*
Y16287300D01*
X28902700Y16787300D02*
X28977300D01*
Y16712700*
X28902700*
Y16787300*
Y16712700D02*
X28977300D01*
X28902700Y16738100D02*
X28977300D01*
X28902700Y16763500D02*
X28977300D01*
X28905200Y16712700D02*
Y16787300D01*
X28930600Y16712700D02*
Y16787300D01*
X28956000Y16712700D02*
Y16787300D01*
X28702700D02*
X28777300D01*
Y16712700*
X28702700*
Y16787300*
Y16712700D02*
X28777300D01*
X28702700Y16738100D02*
X28777300D01*
X28702700Y16763500D02*
X28777300D01*
X28727400Y16712700D02*
Y16787300D01*
X28752800Y16712700D02*
Y16787300D01*
X28902700Y15862300D02*
X28977300D01*
Y15787700*
X28902700*
Y15862300*
Y15787700D02*
X28977300D01*
X28902700Y15813100D02*
X28977300D01*
X28902700Y15838500D02*
X28977300D01*
X28905200Y15787700D02*
Y15862300D01*
X28930600Y15787700D02*
Y15862300D01*
X28956000Y15787700D02*
Y15862300D01*
X28702700D02*
X28777300D01*
Y15787700*
X28702700*
Y15862300*
Y15787700D02*
X28777300D01*
X28702700Y15813100D02*
X28777300D01*
X28702700Y15838500D02*
X28777300D01*
X28727400Y15787700D02*
Y15862300D01*
X28752800Y15787700D02*
Y15862300D01*
X26727300Y16962700D02*
X26652700D01*
Y17037300*
X26727300*
Y16962700*
X26652700D02*
X26727300D01*
X26652700Y16988100D02*
X26727300D01*
X26652700Y17013500D02*
X26727300D01*
X26670000Y16962700D02*
Y17037300D01*
X26695400Y16962700D02*
Y17037300D01*
X26720800Y16962700D02*
Y17037300D01*
X26927300Y16962700D02*
X26852700D01*
Y17037300*
X26927300*
Y16962700*
X26852700D02*
X26927300D01*
X26852700Y16988100D02*
X26927300D01*
X26852700Y17013500D02*
X26927300D01*
X26873200Y16962700D02*
Y17037300D01*
X26898600Y16962700D02*
Y17037300D01*
X26924000Y16962700D02*
Y17037300D01*
X28777300Y16137700D02*
X28702700D01*
Y16212300*
X28777300*
Y16137700*
X28702700D02*
X28777300D01*
X28702700Y16163100D02*
X28777300D01*
X28702700Y16188500D02*
X28777300D01*
X28727400Y16137700D02*
Y16212300D01*
X28752800Y16137700D02*
Y16212300D01*
X28977300Y16137700D02*
X28902700D01*
Y16212300*
X28977300*
Y16137700*
X28902700D02*
X28977300D01*
X28902700Y16163100D02*
X28977300D01*
X28902700Y16188500D02*
X28977300D01*
X28905200Y16137700D02*
Y16212300D01*
X28930600Y16137700D02*
Y16212300D01*
X28956000Y16137700D02*
Y16212300D01*
X26727300Y15887700D02*
X26652700D01*
Y15962300*
X26727300*
Y15887700*
X26652700D02*
X26727300D01*
X26652700Y15913100D02*
X26727300D01*
X26652700Y15938500D02*
X26727300D01*
X26670000Y15887700D02*
Y15962300D01*
X26695400Y15887700D02*
Y15962300D01*
X26720800Y15887700D02*
Y15962300D01*
X26927300Y15887700D02*
X26852700D01*
Y15962300*
X26927300*
Y15887700*
X26852700D02*
X26927300D01*
X26852700Y15913100D02*
X26927300D01*
X26852700Y15938500D02*
X26927300D01*
X26873200Y15887700D02*
Y15962300D01*
X26898600Y15887700D02*
Y15962300D01*
X26924000Y15887700D02*
Y15962300D01*
X28777300Y15212700D02*
X28702700D01*
Y15287300*
X28777300*
Y15212700*
X28702700D02*
X28777300D01*
X28702700Y15238100D02*
X28777300D01*
X28702700Y15263500D02*
X28777300D01*
X28727400Y15212700D02*
Y15287300D01*
X28752800Y15212700D02*
Y15287300D01*
X28977300Y15212700D02*
X28902700D01*
Y15287300*
X28977300*
Y15212700*
X28902700D02*
X28977300D01*
X28902700Y15238100D02*
X28977300D01*
X28902700Y15263500D02*
X28977300D01*
X28905200Y15212700D02*
Y15287300D01*
X28930600Y15212700D02*
Y15287300D01*
X28956000Y15212700D02*
Y15287300D01*
X28527300Y16387300D02*
Y16312700D01*
X28452700*
Y16387300*
X28527300*
X28452700Y16312700D02*
X28527300D01*
X28452700Y16338100D02*
X28527300D01*
X28452700Y16363500D02*
X28527300D01*
X28473400Y16312700D02*
Y16387300D01*
X28498800Y16312700D02*
Y16387300D01*
X28524200Y16312700D02*
Y16387300D01*
X28527300Y16587300D02*
Y16512700D01*
X28452700*
Y16587300*
X28527300*
X28452700Y16512700D02*
X28527300D01*
X28452700Y16538100D02*
X28527300D01*
X28452700Y16563500D02*
X28527300D01*
X28473400Y16512700D02*
Y16587300D01*
X28498800Y16512700D02*
Y16587300D01*
X28524200Y16512700D02*
Y16587300D01*
X28527300Y15412300D02*
Y15337700D01*
X28452700*
Y15412300*
X28527300*
X28452700Y15337700D02*
X28527300D01*
X28452700Y15363100D02*
X28527300D01*
X28452700Y15388500D02*
X28527300D01*
X28473400Y15337700D02*
Y15412300D01*
X28498800Y15337700D02*
Y15412300D01*
X28524200Y15337700D02*
Y15412300D01*
X28527300Y15612300D02*
Y15537700D01*
X28452700*
Y15612300*
X28527300*
X28452700Y15537700D02*
X28527300D01*
X28452700Y15563100D02*
X28527300D01*
X28452700Y15588500D02*
X28527300D01*
X28473400Y15537700D02*
Y15612300D01*
X28498800Y15537700D02*
Y15612300D01*
X28524200Y15537700D02*
Y15612300D01*
X28467700Y21087300D02*
X28542300D01*
Y21012700*
X28467700*
Y21087300*
Y21012700D02*
X28542300D01*
X28467700Y21038100D02*
X28542300D01*
X28467700Y21063500D02*
X28542300D01*
X28473400Y21012700D02*
Y21087300D01*
X28498800Y21012700D02*
Y21087300D01*
X28524200Y21012700D02*
Y21087300D01*
X28267700D02*
X28342300D01*
Y21012700*
X28267700*
Y21087300*
Y21012700D02*
X28342300D01*
X28267700Y21038100D02*
X28342300D01*
X28267700Y21063500D02*
X28342300D01*
X28270200Y21012700D02*
Y21087300D01*
X28295600Y21012700D02*
Y21087300D01*
X28321000Y21012700D02*
Y21087300D01*
X26852700Y16537300D02*
X26927300D01*
Y16462700*
X26852700*
Y16537300*
Y16462700D02*
X26927300D01*
X26852700Y16488100D02*
X26927300D01*
X26852700Y16513500D02*
X26927300D01*
X26873200Y16462700D02*
Y16537300D01*
X26898600Y16462700D02*
Y16537300D01*
X26924000Y16462700D02*
Y16537300D01*
X26652700D02*
X26727300D01*
Y16462700*
X26652700*
Y16537300*
Y16462700D02*
X26727300D01*
X26652700Y16488100D02*
X26727300D01*
X26652700Y16513500D02*
X26727300D01*
X26670000Y16462700D02*
Y16537300D01*
X26695400Y16462700D02*
Y16537300D01*
X26720800Y16462700D02*
Y16537300D01*
X26852700Y15462300D02*
X26927300D01*
Y15387700*
X26852700*
Y15462300*
Y15387700D02*
X26927300D01*
X26852700Y15413100D02*
X26927300D01*
X26852700Y15438500D02*
X26927300D01*
X26873200Y15387700D02*
Y15462300D01*
X26898600Y15387700D02*
Y15462300D01*
X26924000Y15387700D02*
Y15462300D01*
X26652700D02*
X26727300D01*
Y15387700*
X26652700*
Y15462300*
Y15387700D02*
X26727300D01*
X26652700Y15413100D02*
X26727300D01*
X26652700Y15438500D02*
X26727300D01*
X26670000Y15387700D02*
Y15462300D01*
X26695400Y15387700D02*
Y15462300D01*
X26720800Y15387700D02*
Y15462300D01*
X25902700Y16637300D02*
X25977300D01*
Y16562700*
X25902700*
Y16637300*
Y16562700D02*
X25977300D01*
X25902700Y16588100D02*
X25977300D01*
X25902700Y16613500D02*
X25977300D01*
X25908000Y16562700D02*
Y16637300D01*
X25933400Y16562700D02*
Y16637300D01*
X25958800Y16562700D02*
Y16637300D01*
X25702700D02*
X25777300D01*
Y16562700*
X25702700*
Y16637300*
Y16562700D02*
X25777300D01*
X25702700Y16588100D02*
X25777300D01*
X25702700Y16613500D02*
X25777300D01*
X25704800Y16562700D02*
Y16637300D01*
X25730200Y16562700D02*
Y16637300D01*
X25755600Y16562700D02*
Y16637300D01*
X25902700Y15562300D02*
X25977300D01*
Y15487700*
X25902700*
Y15562300*
Y15487700D02*
X25977300D01*
X25902700Y15513100D02*
X25977300D01*
X25902700Y15538500D02*
X25977300D01*
X25908000Y15487700D02*
Y15562300D01*
X25933400Y15487700D02*
Y15562300D01*
X25958800Y15487700D02*
Y15562300D01*
X25702700D02*
X25777300D01*
Y15487700*
X25702700*
Y15562300*
Y15487700D02*
X25777300D01*
X25702700Y15513100D02*
X25777300D01*
X25702700Y15538500D02*
X25777300D01*
X25704800Y15487700D02*
Y15562300D01*
X25730200Y15487700D02*
Y15562300D01*
X25755600Y15487700D02*
Y15562300D01*
X25777300Y16362700D02*
X25702700D01*
Y16437300*
X25777300*
Y16362700*
X25702700D02*
X25777300D01*
X25702700Y16388100D02*
X25777300D01*
X25702700Y16413500D02*
X25777300D01*
X25704800Y16362700D02*
Y16437300D01*
X25730200Y16362700D02*
Y16437300D01*
X25755600Y16362700D02*
Y16437300D01*
X25977300Y16362700D02*
X25902700D01*
Y16437300*
X25977300*
Y16362700*
X25902700D02*
X25977300D01*
X25902700Y16388100D02*
X25977300D01*
X25902700Y16413500D02*
X25977300D01*
X25908000Y16362700D02*
Y16437300D01*
X25933400Y16362700D02*
Y16437300D01*
X25958800Y16362700D02*
Y16437300D01*
X25777300Y15287700D02*
X25702700D01*
Y15362300*
X25777300*
Y15287700*
X25702700D02*
X25777300D01*
X25702700Y15313100D02*
X25777300D01*
X25702700Y15338500D02*
X25777300D01*
X25704800Y15287700D02*
Y15362300D01*
X25730200Y15287700D02*
Y15362300D01*
X25755600Y15287700D02*
Y15362300D01*
X25977300Y15287700D02*
X25902700D01*
Y15362300*
X25977300*
Y15287700*
X25902700D02*
X25977300D01*
X25902700Y15313100D02*
X25977300D01*
X25902700Y15338500D02*
X25977300D01*
X25908000Y15287700D02*
Y15362300D01*
X25933400Y15287700D02*
Y15362300D01*
X25958800Y15287700D02*
Y15362300D01*
X39042300Y21287700D02*
X38967700D01*
Y21362300*
X39042300*
Y21287700*
X38967700D02*
X39042300D01*
X38967700Y21313100D02*
X39042300D01*
X38967700Y21338500D02*
X39042300D01*
X38989000Y21287700D02*
Y21362300D01*
X39014400Y21287700D02*
Y21362300D01*
X39039800Y21287700D02*
Y21362300D01*
X39242300Y21287700D02*
X39167700D01*
Y21362300*
X39242300*
Y21287700*
X39167700D02*
X39242300D01*
X39167700Y21313100D02*
X39242300D01*
X39167700Y21338500D02*
X39242300D01*
X39192200Y21287700D02*
Y21362300D01*
X39217600Y21287700D02*
Y21362300D01*
X39042300Y21087700D02*
X38967700D01*
Y21162300*
X39042300*
Y21087700*
X38967700D02*
X39042300D01*
X38967700Y21113100D02*
X39042300D01*
X38967700Y21138500D02*
X39042300D01*
X38989000Y21087700D02*
Y21162300D01*
X39014400Y21087700D02*
Y21162300D01*
X39039800Y21087700D02*
Y21162300D01*
X39242300Y21087700D02*
X39167700D01*
Y21162300*
X39242300*
Y21087700*
X39167700D02*
X39242300D01*
X39167700Y21113100D02*
X39242300D01*
X39167700Y21138500D02*
X39242300D01*
X39192200Y21087700D02*
Y21162300D01*
X39217600Y21087700D02*
Y21162300D01*
X38517700Y23362700D02*
Y23437300D01*
X38592300*
Y23362700*
X38517700*
X38592300*
X38517700Y23388100D02*
X38592300D01*
X38517700Y23413500D02*
X38592300D01*
X38531800Y23362700D02*
Y23437300D01*
X38557200Y23362700D02*
Y23437300D01*
X38582600Y23362700D02*
Y23437300D01*
X38517700Y23162700D02*
Y23237300D01*
X38592300*
Y23162700*
X38517700*
X38592300*
X38517700Y23188100D02*
X38592300D01*
X38517700Y23213500D02*
X38592300D01*
X38531800Y23162700D02*
Y23237300D01*
X38557200Y23162700D02*
Y23237300D01*
X38582600Y23162700D02*
Y23237300D01*
X39117700Y22462300D02*
X39192300D01*
Y22387700*
X39117700*
Y22462300*
Y22387700D02*
X39192300D01*
X39117700Y22413100D02*
X39192300D01*
X39117700Y22438500D02*
X39192300D01*
X39141400Y22387700D02*
Y22462300D01*
X39166800Y22387700D02*
Y22462300D01*
X39192200Y22387700D02*
Y22462300D01*
X38917700D02*
X38992300D01*
Y22387700*
X38917700*
Y22462300*
Y22387700D02*
X38992300D01*
X38917700Y22413100D02*
X38992300D01*
X38917700Y22438500D02*
X38992300D01*
X38938200Y22387700D02*
Y22462300D01*
X38963600Y22387700D02*
Y22462300D01*
X38989000Y22387700D02*
Y22462300D01*
X27437300Y22537700D02*
X27362700D01*
Y22612300*
X27437300*
Y22537700*
X27362700D02*
X27437300D01*
X27362700Y22563100D02*
X27437300D01*
X27362700Y22588500D02*
X27437300D01*
X27381200Y22537700D02*
Y22612300D01*
X27406600Y22537700D02*
Y22612300D01*
X27432000Y22537700D02*
Y22612300D01*
X27637300Y22537700D02*
X27562700D01*
Y22612300*
X27637300*
Y22537700*
X27562700D02*
X27637300D01*
X27562700Y22563100D02*
X27637300D01*
X27562700Y22588500D02*
X27637300D01*
X27584400Y22537700D02*
Y22612300D01*
X27609800Y22537700D02*
Y22612300D01*
X27635200Y22537700D02*
Y22612300D01*
X37242700Y23112300D02*
X37317300D01*
Y23037700*
X37242700*
Y23112300*
Y23037700D02*
X37317300D01*
X37242700Y23063100D02*
X37317300D01*
X37242700Y23088500D02*
X37317300D01*
X37261800Y23037700D02*
Y23112300D01*
X37287200Y23037700D02*
Y23112300D01*
X37312600Y23037700D02*
Y23112300D01*
X37042700D02*
X37117300D01*
Y23037700*
X37042700*
Y23112300*
Y23037700D02*
X37117300D01*
X37042700Y23063100D02*
X37117300D01*
X37042700Y23088500D02*
X37117300D01*
X37058600Y23037700D02*
Y23112300D01*
X37084000Y23037700D02*
Y23112300D01*
X37109400Y23037700D02*
Y23112300D01*
X37242700Y23312300D02*
X37317300D01*
Y23237700*
X37242700*
Y23312300*
Y23237700D02*
X37317300D01*
X37242700Y23263100D02*
X37317300D01*
X37242700Y23288500D02*
X37317300D01*
X37261800Y23237700D02*
Y23312300D01*
X37287200Y23237700D02*
Y23312300D01*
X37312600Y23237700D02*
Y23312300D01*
X37042700D02*
X37117300D01*
Y23237700*
X37042700*
Y23312300*
Y23237700D02*
X37117300D01*
X37042700Y23263100D02*
X37117300D01*
X37042700Y23288500D02*
X37117300D01*
X37058600Y23237700D02*
Y23312300D01*
X37084000Y23237700D02*
Y23312300D01*
X37109400Y23237700D02*
Y23312300D01*
X39167700Y23012300D02*
X39242300D01*
Y22937700*
X39167700*
Y23012300*
Y22937700D02*
X39242300D01*
X39167700Y22963100D02*
X39242300D01*
X39167700Y22988500D02*
X39242300D01*
X39192200Y22937700D02*
Y23012300D01*
X39217600Y22937700D02*
Y23012300D01*
X38967700D02*
X39042300D01*
Y22937700*
X38967700*
Y23012300*
Y22937700D02*
X39042300D01*
X38967700Y22963100D02*
X39042300D01*
X38967700Y22988500D02*
X39042300D01*
X38989000Y22937700D02*
Y23012300D01*
X39014400Y22937700D02*
Y23012300D01*
X39039800Y22937700D02*
Y23012300D01*
X38517700Y22912700D02*
Y22987300D01*
X38592300*
Y22912700*
X38517700*
X38592300*
X38517700Y22938100D02*
X38592300D01*
X38517700Y22963500D02*
X38592300D01*
X38531800Y22912700D02*
Y22987300D01*
X38557200Y22912700D02*
Y22987300D01*
X38582600Y22912700D02*
Y22987300D01*
X38517700Y22712700D02*
Y22787300D01*
X38592300*
Y22712700*
X38517700*
X38592300*
X38517700Y22738100D02*
X38592300D01*
X38517700Y22763500D02*
X38592300D01*
X38531800Y22712700D02*
Y22787300D01*
X38557200Y22712700D02*
Y22787300D01*
X38582600Y22712700D02*
Y22787300D01*
X32912300Y19662300D02*
Y19587700D01*
X32837700*
Y19662300*
X32912300*
X32837700Y19587700D02*
X32912300D01*
X32837700Y19613100D02*
X32912300D01*
X32837700Y19638500D02*
X32912300D01*
X32842200Y19587700D02*
Y19662300D01*
X32867600Y19587700D02*
Y19662300D01*
X32893000Y19587700D02*
Y19662300D01*
X32912300Y19862300D02*
Y19787700D01*
X32837700*
Y19862300*
X32912300*
X32837700Y19787700D02*
X32912300D01*
X32837700Y19813100D02*
X32912300D01*
X32837700Y19838500D02*
X32912300D01*
X32842200Y19787700D02*
Y19862300D01*
X32867600Y19787700D02*
Y19862300D01*
X32893000Y19787700D02*
Y19862300D01*
X39092300Y19787700D02*
X39017700D01*
Y19862300*
X39092300*
Y19787700*
X39017700D02*
X39092300D01*
X39017700Y19813100D02*
X39092300D01*
X39017700Y19838500D02*
X39092300D01*
X39039800Y19787700D02*
Y19862300D01*
X39065200Y19787700D02*
Y19862300D01*
X39090600Y19787700D02*
Y19862300D01*
X39292300Y19787700D02*
X39217700D01*
Y19862300*
X39292300*
Y19787700*
X39217700D02*
X39292300D01*
X39217700Y19813100D02*
X39292300D01*
X39217700Y19838500D02*
X39292300D01*
X39243000Y19787700D02*
Y19862300D01*
X39268400Y19787700D02*
Y19862300D01*
X32812700Y23262700D02*
Y23337300D01*
X32887300*
Y23262700*
X32812700*
X32887300*
X32812700Y23288100D02*
X32887300D01*
X32812700Y23313500D02*
X32887300D01*
X32816800Y23262700D02*
Y23337300D01*
X32842200Y23262700D02*
Y23337300D01*
X32867600Y23262700D02*
Y23337300D01*
X32812700Y23062700D02*
Y23137300D01*
X32887300*
Y23062700*
X32812700*
X32887300*
X32812700Y23088100D02*
X32887300D01*
X32812700Y23113500D02*
X32887300D01*
X32816800Y23062700D02*
Y23137300D01*
X32842200Y23062700D02*
Y23137300D01*
X32867600Y23062700D02*
Y23137300D01*
X32687300D02*
Y23062700D01*
X32612700*
Y23137300*
X32687300*
X32612700Y23062700D02*
X32687300D01*
X32612700Y23088100D02*
X32687300D01*
X32612700Y23113500D02*
X32687300D01*
X32613600Y23062700D02*
Y23137300D01*
X32639000Y23062700D02*
Y23137300D01*
X32664400Y23062700D02*
Y23137300D01*
X32687300Y23337300D02*
Y23262700D01*
X32612700*
Y23337300*
X32687300*
X32612700Y23262700D02*
X32687300D01*
X32612700Y23288100D02*
X32687300D01*
X32612700Y23313500D02*
X32687300D01*
X32613600Y23262700D02*
Y23337300D01*
X32639000Y23262700D02*
Y23337300D01*
X32664400Y23262700D02*
Y23337300D01*
X29192700Y23562700D02*
Y23637300D01*
X29267300*
Y23562700*
X29192700*
X29267300*
X29192700Y23588100D02*
X29267300D01*
X29192700Y23613500D02*
X29267300D01*
X29210000Y23562700D02*
Y23637300D01*
X29235400Y23562700D02*
Y23637300D01*
X29260800Y23562700D02*
Y23637300D01*
X29192700Y23362700D02*
Y23437300D01*
X29267300*
Y23362700*
X29192700*
X29267300*
X29192700Y23388100D02*
X29267300D01*
X29192700Y23413500D02*
X29267300D01*
X29210000Y23362700D02*
Y23437300D01*
X29235400Y23362700D02*
Y23437300D01*
X29260800Y23362700D02*
Y23437300D01*
X28992700Y23562700D02*
Y23637300D01*
X29067300*
Y23562700*
X28992700*
X29067300*
X28992700Y23588100D02*
X29067300D01*
X28992700Y23613500D02*
X29067300D01*
X29006800Y23562700D02*
Y23637300D01*
X29032200Y23562700D02*
Y23637300D01*
X29057600Y23562700D02*
Y23637300D01*
X28992700Y23362700D02*
Y23437300D01*
X29067300*
Y23362700*
X28992700*
X29067300*
X28992700Y23388100D02*
X29067300D01*
X28992700Y23413500D02*
X29067300D01*
X29006800Y23362700D02*
Y23437300D01*
X29032200Y23362700D02*
Y23437300D01*
X29057600Y23362700D02*
Y23437300D01*
X27437300Y22937700D02*
X27362700D01*
Y23012300*
X27437300*
Y22937700*
X27362700D02*
X27437300D01*
X27362700Y22963100D02*
X27437300D01*
X27362700Y22988500D02*
X27437300D01*
X27381200Y22937700D02*
Y23012300D01*
X27406600Y22937700D02*
Y23012300D01*
X27432000Y22937700D02*
Y23012300D01*
X27637300Y22937700D02*
X27562700D01*
Y23012300*
X27637300*
Y22937700*
X27562700D02*
X27637300D01*
X27562700Y22963100D02*
X27637300D01*
X27562700Y22988500D02*
X27637300D01*
X27584400Y22937700D02*
Y23012300D01*
X27609800Y22937700D02*
Y23012300D01*
X27635200Y22937700D02*
Y23012300D01*
X28592700Y23562700D02*
Y23637300D01*
X28667300*
Y23562700*
X28592700*
X28667300*
X28592700Y23588100D02*
X28667300D01*
X28592700Y23613500D02*
X28667300D01*
X28600400Y23562700D02*
Y23637300D01*
X28625800Y23562700D02*
Y23637300D01*
X28651200Y23562700D02*
Y23637300D01*
X28592700Y23362700D02*
Y23437300D01*
X28667300*
Y23362700*
X28592700*
X28667300*
X28592700Y23388100D02*
X28667300D01*
X28592700Y23413500D02*
X28667300D01*
X28600400Y23362700D02*
Y23437300D01*
X28625800Y23362700D02*
Y23437300D01*
X28651200Y23362700D02*
Y23437300D01*
X28792700Y23562700D02*
Y23637300D01*
X28867300*
Y23562700*
X28792700*
X28867300*
X28792700Y23588100D02*
X28867300D01*
X28792700Y23613500D02*
X28867300D01*
X28803600Y23562700D02*
Y23637300D01*
X28829000Y23562700D02*
Y23637300D01*
X28854400Y23562700D02*
Y23637300D01*
X28792700Y23362700D02*
Y23437300D01*
X28867300*
Y23362700*
X28792700*
X28867300*
X28792700Y23388100D02*
X28867300D01*
X28792700Y23413500D02*
X28867300D01*
X28803600Y23362700D02*
Y23437300D01*
X28829000Y23362700D02*
Y23437300D01*
X28854400Y23362700D02*
Y23437300D01*
X32087700Y23237700D02*
Y23312300D01*
X32162300*
Y23237700*
X32087700*
X32162300*
X32087700Y23263100D02*
X32162300D01*
X32087700Y23288500D02*
X32162300D01*
X32105600Y23237700D02*
Y23312300D01*
X32131000Y23237700D02*
Y23312300D01*
X32156400Y23237700D02*
Y23312300D01*
X32087700Y23037700D02*
Y23112300D01*
X32162300*
Y23037700*
X32087700*
X32162300*
X32087700Y23063100D02*
X32162300D01*
X32087700Y23088500D02*
X32162300D01*
X32105600Y23037700D02*
Y23112300D01*
X32131000Y23037700D02*
Y23112300D01*
X32156400Y23037700D02*
Y23112300D01*
X29467300Y23437300D02*
Y23362700D01*
X29392700*
Y23437300*
X29467300*
X29392700Y23362700D02*
X29467300D01*
X29392700Y23388100D02*
X29467300D01*
X29392700Y23413500D02*
X29467300D01*
X29413200Y23362700D02*
Y23437300D01*
X29438600Y23362700D02*
Y23437300D01*
X29464000Y23362700D02*
Y23437300D01*
X29467300Y23637300D02*
Y23562700D01*
X29392700*
Y23637300*
X29467300*
X29392700Y23562700D02*
X29467300D01*
X29392700Y23588100D02*
X29467300D01*
X29392700Y23613500D02*
X29467300D01*
X29413200Y23562700D02*
Y23637300D01*
X29438600Y23562700D02*
Y23637300D01*
X29464000Y23562700D02*
Y23637300D01*
X35237300Y24387300D02*
Y24312700D01*
X35162700*
Y24387300*
X35237300*
X35162700Y24312700D02*
X35237300D01*
X35162700Y24338100D02*
X35237300D01*
X35162700Y24363500D02*
X35237300D01*
X35179000Y24312700D02*
Y24387300D01*
X35204400Y24312700D02*
Y24387300D01*
X35229800Y24312700D02*
Y24387300D01*
X35237300Y24587300D02*
Y24512700D01*
X35162700*
Y24587300*
X35237300*
X35162700Y24512700D02*
X35237300D01*
X35162700Y24538100D02*
X35237300D01*
X35162700Y24563500D02*
X35237300D01*
X35179000Y24512700D02*
Y24587300D01*
X35204400Y24512700D02*
Y24587300D01*
X35229800Y24512700D02*
Y24587300D01*
X35487300Y24387300D02*
Y24312700D01*
X35412700*
Y24387300*
X35487300*
X35412700Y24312700D02*
X35487300D01*
X35412700Y24338100D02*
X35487300D01*
X35412700Y24363500D02*
X35487300D01*
X35433000Y24312700D02*
Y24387300D01*
X35458400Y24312700D02*
Y24387300D01*
X35483800Y24312700D02*
Y24387300D01*
X35487300Y24587300D02*
Y24512700D01*
X35412700*
Y24587300*
X35487300*
X35412700Y24512700D02*
X35487300D01*
X35412700Y24538100D02*
X35487300D01*
X35412700Y24563500D02*
X35487300D01*
X35433000Y24512700D02*
Y24587300D01*
X35458400Y24512700D02*
Y24587300D01*
X35483800Y24512700D02*
Y24587300D01*
X35737300Y24387300D02*
Y24312700D01*
X35662700*
Y24387300*
X35737300*
X35662700Y24312700D02*
X35737300D01*
X35662700Y24338100D02*
X35737300D01*
X35662700Y24363500D02*
X35737300D01*
X35687000Y24312700D02*
Y24387300D01*
X35712400Y24312700D02*
Y24387300D01*
X35737300Y24587300D02*
Y24512700D01*
X35662700*
Y24587300*
X35737300*
X35662700Y24512700D02*
X35737300D01*
X35662700Y24538100D02*
X35737300D01*
X35662700Y24563500D02*
X35737300D01*
X35687000Y24512700D02*
Y24587300D01*
X35712400Y24512700D02*
Y24587300D01*
X37332300Y20282300D02*
Y20207700D01*
X37257700*
Y20282300*
X37332300*
X37257700Y20207700D02*
X37332300D01*
X37257700Y20233100D02*
X37332300D01*
X37257700Y20258500D02*
X37332300D01*
X37261800Y20207700D02*
Y20282300D01*
X37287200Y20207700D02*
Y20282300D01*
X37312600Y20207700D02*
Y20282300D01*
X37332300Y20482300D02*
Y20407700D01*
X37257700*
Y20482300*
X37332300*
X37257700Y20407700D02*
X37332300D01*
X37257700Y20433100D02*
X37332300D01*
X37257700Y20458500D02*
X37332300D01*
X37261800Y20407700D02*
Y20482300D01*
X37287200Y20407700D02*
Y20482300D01*
X37312600Y20407700D02*
Y20482300D01*
X38469800Y20545200D02*
X38332700D01*
Y20694800*
X38469800*
Y20545200*
X38332700D02*
X38469800D01*
X38332700Y20570600D02*
X38469800D01*
X38332700Y20596000D02*
X38469800D01*
X38332700Y20621400D02*
X38469800D01*
X38332700Y20646800D02*
X38469800D01*
X38332700Y20672200D02*
X38469800D01*
X38354000Y20545200D02*
Y20694800D01*
X38379400Y20545200D02*
Y20694800D01*
X38404800Y20545200D02*
Y20694800D01*
X38430200Y20545200D02*
Y20694800D01*
X38455600Y20545200D02*
Y20694800D01*
X38207300Y20545200D02*
X38057700D01*
Y20694800*
X38207300*
Y20545200*
X38057700D02*
X38207300D01*
X38057700Y20570600D02*
X38207300D01*
X38057700Y20596000D02*
X38207300D01*
X38057700Y20621400D02*
X38207300D01*
X38057700Y20646800D02*
X38207300D01*
X38057700Y20672200D02*
X38207300D01*
X38074600Y20545200D02*
Y20694800D01*
X38100000Y20545200D02*
Y20694800D01*
X38125400Y20545200D02*
Y20694800D01*
X38150800Y20545200D02*
Y20694800D01*
X38176200Y20545200D02*
Y20694800D01*
X38201600Y20545200D02*
Y20694800D01*
X27437300Y23137700D02*
X27362700D01*
Y23212300*
X27437300*
Y23137700*
X27362700D02*
X27437300D01*
X27362700Y23163100D02*
X27437300D01*
X27362700Y23188500D02*
X27437300D01*
X27381200Y23137700D02*
Y23212300D01*
X27406600Y23137700D02*
Y23212300D01*
X27432000Y23137700D02*
Y23212300D01*
X27637300Y23137700D02*
X27562700D01*
Y23212300*
X27637300*
Y23137700*
X27562700D02*
X27637300D01*
X27562700Y23163100D02*
X27637300D01*
X27562700Y23188500D02*
X27637300D01*
X27584400Y23137700D02*
Y23212300D01*
X27609800Y23137700D02*
Y23212300D01*
X27635200Y23137700D02*
Y23212300D01*
X27437300Y23512700D02*
X27362700D01*
Y23587300*
X27437300*
Y23512700*
X27362700D02*
X27437300D01*
X27362700Y23538100D02*
X27437300D01*
X27362700Y23563500D02*
X27437300D01*
X27381200Y23512700D02*
Y23587300D01*
X27406600Y23512700D02*
Y23587300D01*
X27432000Y23512700D02*
Y23587300D01*
X27637300Y23512700D02*
X27562700D01*
Y23587300*
X27637300*
Y23512700*
X27562700D02*
X27637300D01*
X27562700Y23538100D02*
X27637300D01*
X27562700Y23563500D02*
X27637300D01*
X27584400Y23512700D02*
Y23587300D01*
X27609800Y23512700D02*
Y23587300D01*
X27635200Y23512700D02*
Y23587300D01*
X28342300Y20612700D02*
X28267700D01*
Y20687300*
X28342300*
Y20612700*
X28267700D02*
X28342300D01*
X28267700Y20638100D02*
X28342300D01*
X28267700Y20663500D02*
X28342300D01*
X28270200Y20612700D02*
Y20687300D01*
X28295600Y20612700D02*
Y20687300D01*
X28321000Y20612700D02*
Y20687300D01*
X28542300Y20612700D02*
X28467700D01*
Y20687300*
X28542300*
Y20612700*
X28467700D02*
X28542300D01*
X28467700Y20638100D02*
X28542300D01*
X28467700Y20663500D02*
X28542300D01*
X28473400Y20612700D02*
Y20687300D01*
X28498800Y20612700D02*
Y20687300D01*
X28524200Y20612700D02*
Y20687300D01*
X28792300Y20137300D02*
Y20062700D01*
X28717700*
Y20137300*
X28792300*
X28717700Y20062700D02*
X28792300D01*
X28717700Y20088100D02*
X28792300D01*
X28717700Y20113500D02*
X28792300D01*
X28727400Y20062700D02*
Y20137300D01*
X28752800Y20062700D02*
Y20137300D01*
X28778200Y20062700D02*
Y20137300D01*
X28792300Y20337300D02*
Y20262700D01*
X28717700*
Y20337300*
X28792300*
X28717700Y20262700D02*
X28792300D01*
X28717700Y20288100D02*
X28792300D01*
X28717700Y20313500D02*
X28792300D01*
X28727400Y20262700D02*
Y20337300D01*
X28752800Y20262700D02*
Y20337300D01*
X28778200Y20262700D02*
Y20337300D01*
X25400000Y10400000D02*
Y25400000D01*
X39660000*
Y10400000*
X25400000*
X23925000D02*
Y17728550D01*
Y10400000D02*
X23861500Y10654000D01*
X23988500*
X23925000Y10400000*
Y25400000D02*
Y18071450D01*
Y25400000D02*
X23988500Y25146000D01*
X23861500*
X23925000Y25400000*
X25273000Y10400000D02*
X23798000D01*
X25273000Y25400000D02*
X23798000D01*
X23486273Y17939687D02*
X23497818Y17947625D01*
X23515136Y17971437*
X23515136D02*
Y17804750D01*
X23642136Y17971437D02*
X23584409D01*
X23584409D02*
X23578636Y17900000D01*
X23584409Y17907937*
X23584409D02*
X23601727Y17915875D01*
X23619045*
X23636364Y17907937*
X23636364D02*
X23647909Y17892062D01*
X23647909D02*
X23653682Y17868250D01*
X23647909Y17852375*
X23642136Y17828562*
X23642136D02*
X23630591Y17812687D01*
X23630591D02*
X23613273Y17804750D01*
X23595955*
X23595955D02*
X23578636Y17812687D01*
X23578636D02*
X23572864Y17820625D01*
X23567091Y17836500*
X23740273Y17971437D02*
X23722955Y17963500D01*
X23722955D02*
X23711409Y17939687D01*
X23711409D02*
X23705636Y17900000D01*
Y17876187*
X23705636D02*
X23711409Y17836500D01*
X23722955Y17812687*
X23722955D02*
X23740273Y17804750D01*
X23751818*
X23769136Y17812687*
X23769136D02*
X23780682Y17836500D01*
X23786455Y17876187*
X23786455D02*
Y17900000D01*
X23786455D02*
X23780682Y17939687D01*
X23780682D02*
X23769136Y17963500D01*
X23751818Y17971437*
X23751818D02*
X23740273D01*
X23844182Y17820625D02*
X23838409Y17812687D01*
X23838409D02*
X23844182Y17804750D01*
X23849955Y17812687*
X23849955D02*
X23844182Y17820625D01*
X23936545Y17971437D02*
X23919227Y17963500D01*
X23907682Y17939687*
X23907682D02*
X23901909Y17900000D01*
Y17876187*
X23901909D02*
X23907682Y17836500D01*
X23919227Y17812687*
X23919227D02*
X23936545Y17804750D01*
X23948091*
X23965409Y17812687*
X23965409D02*
X23976955Y17836500D01*
X23976955D02*
X23982727Y17876187D01*
X23982727D02*
Y17900000D01*
X23976955Y17939687*
X23976955D02*
X23965409Y17963500D01*
X23948091Y17971437*
X23948091D02*
X23936545D01*
X24034682Y17915875D02*
Y17804750D01*
Y17884125D02*
X24052000Y17907937D01*
X24052000D02*
X24063545Y17915875D01*
X24080864*
X24092409Y17907937*
X24092409D02*
X24098182Y17884125D01*
Y17804750*
Y17884125D02*
X24115500Y17907937D01*
X24115500D02*
X24127045Y17915875D01*
X24144364*
X24155909Y17907937*
X24155909D02*
X24161682Y17884125D01*
Y17804750*
X24213636Y17915875D02*
Y17804750D01*
Y17884125D02*
X24230955Y17907937D01*
X24230955D02*
X24242500Y17915875D01*
X24259818*
X24271364Y17907937*
X24271364D02*
X24277136Y17884125D01*
Y17804750*
Y17884125D02*
X24294455Y17907937D01*
X24294455D02*
X24306000Y17915875D01*
X24323318*
X24334864Y17907937*
X24334864D02*
X24340636Y17884125D01*
Y17804750*
X24775000Y12700000D02*
Y18878550D01*
Y12700000D02*
X24711500Y12954000D01*
X24838500*
X24775000Y12700000*
Y25400000D02*
Y19221450D01*
Y25400000D02*
X24838500Y25146000D01*
X24711500*
X24775000Y25400000*
X24998000Y12700000D02*
X24648000D01*
X25273000Y25400000D02*
X24648000D01*
X24339159Y19089687D02*
X24350704Y19097625D01*
X24350704D02*
X24368023Y19121437D01*
X24368023D02*
Y18954750D01*
X24425750Y19081750D02*
Y19089687D01*
X24425750D02*
X24431523Y19105562D01*
X24431523D02*
X24437295Y19113500D01*
X24448841Y19121437*
X24448841D02*
X24471932D01*
X24471932D02*
X24483477Y19113500D01*
X24489250Y19105562*
X24489250D02*
X24495023Y19089687D01*
X24495023D02*
Y19073812D01*
X24495023D02*
X24489250Y19057937D01*
X24489250D02*
X24477704Y19034125D01*
X24477704D02*
X24419977Y18954750D01*
X24500795*
X24633568Y19121437D02*
X24575841Y18954750D01*
X24552750Y19121437D02*
X24633568D01*
X24691295Y18970625D02*
X24685523Y18962687D01*
X24685523D02*
X24691295Y18954750D01*
X24697068Y18962687*
X24697068D02*
X24691295Y18970625D01*
X24783659Y19121437D02*
X24766341Y19113500D01*
X24754795Y19089687*
X24754795D02*
X24749023Y19050000D01*
Y19026187*
X24749023D02*
X24754795Y18986500D01*
X24766341Y18962687*
X24766341D02*
X24783659Y18954750D01*
X24795204*
X24795204D02*
X24812523Y18962687D01*
X24812523D02*
X24824068Y18986500D01*
X24829841Y19026187*
X24829841D02*
Y19050000D01*
X24824068Y19089687*
X24824068D02*
X24812523Y19113500D01*
X24795204Y19121437*
X24795204D02*
X24783659D01*
X24881795Y19065875D02*
Y18954750D01*
Y19034125D02*
X24899114Y19057937D01*
X24899114D02*
X24910659Y19065875D01*
X24927977*
X24939523Y19057937*
X24939523D02*
X24945295Y19034125D01*
Y18954750*
Y19034125D02*
X24962614Y19057937D01*
X24962614D02*
X24974159Y19065875D01*
X24991477*
X25003023Y19057937*
X25003023D02*
X25008795Y19034125D01*
Y18954750*
X25060750Y19065875D02*
Y18954750D01*
Y19034125D02*
X25078068Y19057937D01*
X25078068D02*
X25089614Y19065875D01*
X25106932*
X25118477Y19057937*
X25118477D02*
X25124250Y19034125D01*
Y18954750*
Y19034125D02*
X25141568Y19057937D01*
X25141568D02*
X25153114Y19065875D01*
X25170432*
X25181977Y19057937*
X25181977D02*
X25187750Y19034125D01*
Y18954750*
X25400000Y9530000D02*
X28519345D01*
X25400000D02*
X25654000Y9593500D01*
Y9466500*
X25400000Y9530000*
X32530000D02*
X29410655D01*
X32530000D02*
X32276000Y9466500D01*
Y9593500*
X32530000Y9530000*
X25400000Y10273000D02*
Y9403000D01*
X32530000Y9447000D02*
Y9657000D01*
X28676364Y9601437D02*
X28618636Y9434750D01*
X28595545Y9601437D02*
X28676364D01*
X28728318Y9569687D02*
X28739864Y9577625D01*
X28757182Y9601437*
X28757182D02*
Y9434750D01*
X28814909Y9450625D02*
X28809136Y9442687D01*
X28809136D02*
X28814909Y9434750D01*
X28820682Y9442687*
X28820682D02*
X28814909Y9450625D01*
X28884182Y9601437D02*
X28947682D01*
X28947682D02*
X28913045Y9537937D01*
X28913045D02*
X28930364D01*
X28930364D02*
X28941909Y9530000D01*
X28947682Y9522062*
X28947682D02*
X28953455Y9498250D01*
X28953455D02*
Y9482375D01*
X28953455D02*
X28947682Y9458562D01*
X28947682D02*
X28936136Y9442687D01*
X28936136D02*
X28918818Y9434750D01*
X28901500*
X28884182Y9442687*
X28884182D02*
X28878409Y9450625D01*
X28872636Y9466500*
X29005409Y9545875D02*
Y9434750D01*
Y9514125D02*
X29022727Y9537937D01*
X29022727D02*
X29034273Y9545875D01*
X29051591*
X29063136Y9537937*
X29063136D02*
X29068909Y9514125D01*
Y9434750*
Y9514125D02*
X29086227Y9537937D01*
X29086227D02*
X29097773Y9545875D01*
X29115091*
X29126636Y9537937*
X29126636D02*
X29132409Y9514125D01*
Y9434750*
X29184364Y9545875D02*
Y9434750D01*
Y9514125D02*
X29201682Y9537937D01*
X29201682D02*
X29213227Y9545875D01*
X29230545*
X29230545D02*
X29242091Y9537937D01*
X29242091D02*
X29247864Y9514125D01*
Y9434750*
Y9514125D02*
X29265182Y9537937D01*
X29265182D02*
X29276727Y9545875D01*
X29294045*
X29294045D02*
X29305591Y9537937D01*
X29305591D02*
X29311364Y9514125D01*
Y9434750*
X32229250Y9850000D02*
X31848250D01*
X32229250D02*
X31975250Y9786500D01*
Y9913500*
X32229250Y9850000*
X32829250D02*
X33210250D01*
X32829250D02*
X33083250Y9913500D01*
Y9786500*
X32829250Y9850000*
X32229250Y10723000D02*
Y9723000D01*
X32829250Y10723000D02*
Y9723000D01*
X33355723Y9897625D02*
X33349950Y9913500D01*
X33332632Y9921437*
X33332632D02*
X33321086D01*
X33321086D02*
X33303768Y9913500D01*
X33292223Y9889687*
X33292223D02*
X33286450Y9850000D01*
Y9810312*
X33286450D02*
X33292223Y9778562D01*
X33292223D02*
X33303768Y9762687D01*
X33303768D02*
X33321086Y9754750D01*
X33326859*
X33344177Y9762687*
X33344177D02*
X33355723Y9778562D01*
X33355723D02*
X33361495Y9802375D01*
Y9810312*
X33361495D02*
X33355723Y9834125D01*
X33344177Y9850000*
X33326859Y9857937*
X33326859D02*
X33321086D01*
X33321086D02*
X33303768Y9850000D01*
X33292223Y9834125*
X33286450Y9810312*
X33419223Y9770625D02*
X33413450Y9762687D01*
X33413450D02*
X33419223Y9754750D01*
X33424995Y9762687*
X33424995D02*
X33419223Y9770625D01*
X33511586Y9921437D02*
X33494268Y9913500D01*
X33482723Y9889687*
X33482723D02*
X33476950Y9850000D01*
Y9826187*
X33476950D02*
X33482723Y9786500D01*
X33494268Y9762687*
X33494268D02*
X33511586Y9754750D01*
X33523132*
X33540450Y9762687*
X33540450D02*
X33551995Y9786500D01*
X33557768Y9826187*
X33557768D02*
Y9850000D01*
X33551995Y9889687*
X33551995D02*
X33540450Y9913500D01*
X33523132Y9921437*
X33523132D02*
X33511586D01*
X33609723Y9865875D02*
Y9754750D01*
Y9834125D02*
X33627041Y9857937D01*
X33627041D02*
X33638586Y9865875D01*
X33655905*
X33655905D02*
X33667450Y9857937D01*
X33667450D02*
X33673223Y9834125D01*
Y9754750*
Y9834125D02*
X33690541Y9857937D01*
X33690541D02*
X33702086Y9865875D01*
X33719405*
X33719405D02*
X33730950Y9857937D01*
X33730950D02*
X33736723Y9834125D01*
Y9754750*
X33788677Y9865875D02*
Y9754750D01*
Y9834125D02*
X33805995Y9857937D01*
X33805995D02*
X33817541Y9865875D01*
X33834859*
X33846405Y9857937*
X33846405D02*
X33852177Y9834125D01*
Y9754750*
Y9834125D02*
X33869495Y9857937D01*
X33869495D02*
X33881041Y9865875D01*
X33898359*
X33909905Y9857937*
X33909905D02*
X33915677Y9834125D01*
Y9754750*
X25800000Y9900000D02*
X26181000D01*
X25800000D02*
X26054000Y9963500D01*
Y9836500*
X25800000Y9900000*
X25400000D02*
X25019000D01*
X25400000D02*
X25146000Y9836500D01*
Y9963500*
X25400000Y9900000*
X25800000Y10673000D02*
Y9773000D01*
X25400000Y10273000D02*
Y9773000D01*
X24336664Y9971437D02*
X24278936Y9860312D01*
X24278936D02*
X24365527D01*
X24336664Y9971437D02*
Y9804750D01*
X24423254Y9820625D02*
X24417482Y9812687D01*
X24417482D02*
X24423254Y9804750D01*
X24423254D02*
X24429027Y9812687D01*
X24429027D02*
X24423254Y9820625D01*
X24515618Y9971437D02*
X24498300Y9963500D01*
X24486754Y9939687*
X24486754D02*
X24480982Y9900000D01*
Y9876187*
X24480982D02*
X24486754Y9836500D01*
X24486754D02*
X24498300Y9812687D01*
X24498300D02*
X24515618Y9804750D01*
X24527164*
X24544482Y9812687*
X24544482D02*
X24556027Y9836500D01*
X24561800Y9876187*
X24561800D02*
Y9900000D01*
X24556027Y9939687*
X24556027D02*
X24544482Y9963500D01*
X24527164Y9971437*
X24527164D02*
X24515618D01*
X24613754Y9915875D02*
Y9804750D01*
Y9884125D02*
X24631073Y9907937D01*
X24631073D02*
X24642618Y9915875D01*
X24659936*
X24671482Y9907937*
X24671482D02*
X24677254Y9884125D01*
X24677254D02*
Y9804750D01*
Y9884125D02*
X24694573Y9907937D01*
X24694573D02*
X24706118Y9915875D01*
X24723436*
X24734982Y9907937*
X24734982D02*
X24740754Y9884125D01*
X24740754D02*
Y9804750D01*
X24792709Y9915875D02*
Y9804750D01*
Y9884125D02*
X24810027Y9907937D01*
X24810027D02*
X24821573Y9915875D01*
X24838891*
X24850436Y9907937*
X24850436D02*
X24856209Y9884125D01*
Y9804750*
Y9884125D02*
X24873527Y9907937D01*
X24873527D02*
X24885073Y9915875D01*
X24902391*
X24913936Y9907937*
X24913936D02*
X24919709Y9884125D01*
Y9804750*
X24885000Y10400000D02*
Y10019000D01*
Y10400000D02*
X24948500Y10146000D01*
X24821500*
X24885000Y10400000*
Y10800000D02*
Y11181000D01*
Y10800000D02*
X24821500Y11054000D01*
X24948500*
X24885000Y10800000*
X25273000Y10400000D02*
X24758000D01*
X25673000Y10800000D02*
X24758000D01*
X24202664Y11252437D02*
X24144936Y11141312D01*
X24144936D02*
X24231527D01*
X24202664Y11252437D02*
Y11085750D01*
X24289254Y11101625D02*
X24283482Y11093687D01*
X24283482D02*
X24289254Y11085750D01*
X24289254D02*
X24295027Y11093687D01*
X24295027D02*
X24289254Y11101625D01*
X24381618Y11252437D02*
X24364300Y11244500D01*
X24352754Y11220687*
X24352754D02*
X24346982Y11181000D01*
Y11157187*
X24346982D02*
X24352754Y11117500D01*
X24352754D02*
X24364300Y11093687D01*
X24364300D02*
X24381618Y11085750D01*
X24393164*
X24410482Y11093687*
X24410482D02*
X24422027Y11117500D01*
X24427800Y11157187*
X24427800D02*
Y11181000D01*
X24422027Y11220687*
X24422027D02*
X24410482Y11244500D01*
X24393164Y11252437*
X24393164D02*
X24381618D01*
X24479754Y11196875D02*
Y11085750D01*
Y11165125D02*
X24497073Y11188937D01*
X24497073D02*
X24508618Y11196875D01*
X24525936*
X24537482Y11188937*
X24537482D02*
X24543254Y11165125D01*
X24543254D02*
Y11085750D01*
Y11165125D02*
X24560573Y11188937D01*
X24560573D02*
X24572118Y11196875D01*
X24589436*
X24600982Y11188937*
X24600982D02*
X24606754Y11165125D01*
X24606754D02*
Y11085750D01*
X24658709Y11196875D02*
Y11085750D01*
Y11165125D02*
X24676027Y11188937D01*
X24676027D02*
X24687573Y11196875D01*
X24704891*
X24716436Y11188937*
X24716436D02*
X24722209Y11165125D01*
Y11085750*
Y11165125D02*
X24739527Y11188937D01*
X24739527D02*
X24751073Y11196875D01*
X24768391*
X24779936Y11188937*
X24779936D02*
X24785709Y11165125D01*
Y11085750*
X25400000Y9100000D02*
X32017959D01*
X25400000D02*
X25654000Y9163500D01*
Y9036500*
X25400000Y9100000*
X39660000D02*
X33042041D01*
X39660000D02*
X39406000Y9036500D01*
Y9163500*
X39660000Y9100000*
X25400000Y10273000D02*
Y8973000D01*
X39660000Y10273000D02*
Y8973000D01*
X32094159Y9139687D02*
X32105704Y9147625D01*
X32105704D02*
X32123023Y9171437D01*
X32123023D02*
Y9004750D01*
X32232704Y9171437D02*
X32174977Y9060312D01*
X32174977D02*
X32261568D01*
X32232704Y9171437D02*
Y9004750D01*
X32319295Y9131750D02*
Y9139687D01*
X32319295D02*
X32325068Y9155562D01*
X32325068D02*
X32330841Y9163500D01*
X32342386Y9171437*
X32342386D02*
X32365477D01*
X32365477D02*
X32377023Y9163500D01*
X32382795Y9155562*
X32382795D02*
X32388568Y9139687D01*
X32388568D02*
Y9123812D01*
X32388568D02*
X32382795Y9107937D01*
X32382795D02*
X32371250Y9084125D01*
X32313523Y9004750*
X32394341*
X32452068Y9020625D02*
X32446295Y9012687D01*
X32446295D02*
X32452068Y9004750D01*
X32457841Y9012687*
X32457841D02*
X32452068Y9020625D01*
X32579068Y9147625D02*
X32573295Y9163500D01*
X32555977Y9171437*
X32555977D02*
X32544432D01*
X32544432D02*
X32527114Y9163500D01*
X32515568Y9139687*
X32515568D02*
X32509795Y9100000D01*
Y9060312*
X32509795D02*
X32515568Y9028562D01*
X32515568D02*
X32527114Y9012687D01*
X32527114D02*
X32544432Y9004750D01*
X32550204*
X32550204D02*
X32567523Y9012687D01*
X32567523D02*
X32579068Y9028562D01*
X32579068D02*
X32584841Y9052375D01*
Y9060312*
X32584841D02*
X32579068Y9084125D01*
X32567523Y9100000*
X32550204Y9107937*
X32550204D02*
X32544432D01*
X32544432D02*
X32527114Y9100000D01*
X32515568Y9084125*
X32509795Y9060312*
X32636795Y9115875D02*
Y9004750D01*
Y9084125D02*
X32654114Y9107937D01*
X32654114D02*
X32665659Y9115875D01*
X32682977*
X32694523Y9107937*
X32694523D02*
X32700295Y9084125D01*
Y9004750*
Y9084125D02*
X32717614Y9107937D01*
X32717614D02*
X32729159Y9115875D01*
X32746477*
X32758023Y9107937*
X32758023D02*
X32763795Y9084125D01*
Y9004750*
X32815750Y9115875D02*
Y9004750D01*
Y9084125D02*
X32833068Y9107937D01*
X32833068D02*
X32844614Y9115875D01*
X32861932*
X32873477Y9107937*
X32873477D02*
X32879250Y9084125D01*
Y9004750*
Y9084125D02*
X32896568Y9107937D01*
X32896568D02*
X32908114Y9115875D01*
X32925432*
X32936977Y9107937*
X32936977D02*
X32942750Y9084125D01*
Y9004750*
G54D59*
X39355000Y20250000D02*
G03X39355000I-200000J0D01*
G01X33880000Y14600000D02*
G03X33880000I-200000J0D01*
G01X38670000Y19895000D02*
G03X38670000I-475000J0D01*
G01X38695000D02*
G03X38695000I-500000J0D01*
G01X38285000D02*
G03X38285000I-90000J0D01*
G01X38545000D02*
G03X38545000I-100000J0D01*
G01X31155000Y17125000D02*
Y16925000D01*
X31605000Y17125000D02*
Y16925000D01*
X31530000Y17025000D02*
G03X31530000I-50000J0D01*
G01X31330000D02*
G03X31330000I-50000J0D01*
G01X31230000D02*
X31155000D01*
X31530000D02*
X31605000D01*
X31530000Y17125000D02*
Y17150000D01*
X31230000*
Y17125000*
X31530000*
X31405000Y17150000D02*
Y17200000D01*
X31355000*
Y17150000*
X31405000*
X31680000Y17325000D02*
Y16725000D01*
X31080000*
Y17325000*
X31680000*
X30185000Y17125000D02*
Y16925000D01*
X30635000Y17125000D02*
Y16925000D01*
X30560000Y17025000D02*
G03X30560000I-50000J0D01*
G01X30360000D02*
G03X30360000I-50000J0D01*
G01X30260000D02*
X30185000D01*
X30560000D02*
X30635000D01*
X30560000Y17125000D02*
Y17150000D01*
X30260000*
Y17125000*
X30560000*
X30435000Y17150000D02*
Y17200000D01*
X30385000*
Y17150000*
X30435000*
X30710000Y17325000D02*
Y16725000D01*
X30110000*
Y17325000*
X30710000*
X27504250Y10550000D02*
Y11250000D01*
X27854250Y10850000D02*
G03X27854250I-175000J0D01*
G01X27504250D02*
G03X27504250I-175000J0D01*
G01X27854250Y10550000D02*
X26804250D01*
Y11250000*
X27854250*
Y10550000*
X27856750Y10500000D02*
X27506750D01*
X27844258Y11164991D02*
G03X27494242I-175008J-166658D01*
G01X27494258D02*
G03X27144242I-175008J-166658D01*
G01X27154250Y10550000D02*
Y11250000D01*
X27144258Y11164992D02*
G03X26819242I-162508J-154754D01*
G01X27154250Y10850000D02*
G03X27154250I-175000J0D01*
G01X28804250Y11650000D02*
Y12350000D01*
X29154250Y11950000D02*
G03X29154250I-175000J0D01*
G01X28804250D02*
G03X28804250I-175000J0D01*
G01X29154250Y11650000D02*
X28104250D01*
Y12350000*
X29154250*
Y11650000*
X29156750Y11600000D02*
X28806750D01*
X29144258Y12264991D02*
G03X28794242I-175008J-166658D01*
G01X28794258D02*
G03X28444242I-175008J-166658D01*
G01X28454250Y11650000D02*
Y12350000D01*
X28444258Y12264992D02*
G03X28119242I-162508J-154754D01*
G01X28454250Y11950000D02*
G03X28454250I-175000J0D01*
G01X28804250Y10550000D02*
Y11250000D01*
X29154250Y10850000D02*
G03X29154250I-175000J0D01*
G01X28804250D02*
G03X28804250I-175000J0D01*
G01X29154250Y10550000D02*
X28104250D01*
Y11250000*
X29154250*
Y10550000*
X29156750Y10500000D02*
X28806750D01*
X29144258Y11164991D02*
G03X28794242I-175008J-166658D01*
G01X28794258D02*
G03X28444242I-175008J-166658D01*
G01X28454250Y10550000D02*
Y11250000D01*
X28444258Y11164992D02*
G03X28119242I-162508J-154754D01*
G01X28454250Y10850000D02*
G03X28454250I-175000J0D01*
G01X30104250Y11650000D02*
Y12350000D01*
X30454250Y11950000D02*
G03X30454250I-175000J0D01*
G01X30104250D02*
G03X30104250I-175000J0D01*
G01X30454250Y11650000D02*
X29404250D01*
Y12350000*
X30454250*
Y11650000*
X30456750Y11600000D02*
X30106750D01*
X30444258Y12264991D02*
G03X30094242I-175008J-166658D01*
G01X30094258D02*
G03X29744242I-175008J-166658D01*
G01X29754250Y11650000D02*
Y12350000D01*
X29744258Y12264992D02*
G03X29419242I-162508J-154754D01*
G01X29754250Y11950000D02*
G03X29754250I-175000J0D01*
G01X30104250Y10550000D02*
Y11250000D01*
X30454250Y10850000D02*
G03X30454250I-175000J0D01*
G01X30104250D02*
G03X30104250I-175000J0D01*
G01X30454250Y10550000D02*
X29404250D01*
Y11250000*
X30454250*
Y10550000*
X30456750Y10500000D02*
X30106750D01*
X30444258Y11164991D02*
G03X30094242I-175008J-166658D01*
G01X30094258D02*
G03X29744242I-175008J-166658D01*
G01X29754250Y10550000D02*
Y11250000D01*
X29744258Y11164992D02*
G03X29419242I-162508J-154754D01*
G01X29754250Y10850000D02*
G03X29754250I-175000J0D01*
G01X31404250Y11650000D02*
Y12350000D01*
X31754250Y11950000D02*
G03X31754250I-175000J0D01*
G01X31404250D02*
G03X31404250I-175000J0D01*
G01X31754250Y11650000D02*
X30704250D01*
Y12350000*
X31754250*
Y11650000*
X31756750Y11600000D02*
X31406750D01*
X31744258Y12264991D02*
G03X31394242I-175008J-166658D01*
G01X31394258D02*
G03X31044242I-175008J-166658D01*
G01X31054250Y11650000D02*
Y12350000D01*
X31044258Y12264992D02*
G03X30719242I-162508J-154754D01*
G01X31054250Y11950000D02*
G03X31054250I-175000J0D01*
G01X31404250Y10550000D02*
Y11250000D01*
X31754250Y10850000D02*
G03X31754250I-175000J0D01*
G01X31404250D02*
G03X31404250I-175000J0D01*
G01X31754250Y10550000D02*
X30704250D01*
Y11250000*
X31754250*
Y10550000*
X31756750Y10500000D02*
X31406750D01*
X31744258Y11164991D02*
G03X31394242I-175008J-166658D01*
G01X31394258D02*
G03X31044242I-175008J-166658D01*
G01X31054250Y10550000D02*
Y11250000D01*
X31044258Y11164992D02*
G03X30719242I-162508J-154754D01*
G01X31054250Y10850000D02*
G03X31054250I-175000J0D01*
G01X32704250Y11650000D02*
Y12350000D01*
X33054250Y11950000D02*
G03X33054250I-175000J0D01*
G01X32704250D02*
G03X32704250I-175000J0D01*
G01X33054250Y11650000D02*
X32004250D01*
Y12350000*
X33054250*
Y11650000*
X33056750Y11600000D02*
X32706750D01*
X33044258Y12264991D02*
G03X32694242I-175008J-166658D01*
G01X32694258D02*
G03X32344242I-175008J-166658D01*
G01X32354250Y11650000D02*
Y12350000D01*
X32344258Y12264992D02*
G03X32019242I-162508J-154754D01*
G01X32354250Y11950000D02*
G03X32354250I-175000J0D01*
G01X32704250Y10550000D02*
Y11250000D01*
X33054250Y10850000D02*
G03X33054250I-175000J0D01*
G01X32704250D02*
G03X32704250I-175000J0D01*
G01X33054250Y10550000D02*
X32004250D01*
Y11250000*
X33054250*
Y10550000*
X33056750Y10500000D02*
X32706750D01*
X33044258Y11164991D02*
G03X32694242I-175008J-166658D01*
G01X32694258D02*
G03X32344242I-175008J-166658D01*
G01X32354250Y10550000D02*
Y11250000D01*
X32344258Y11164992D02*
G03X32019242I-162508J-154754D01*
G01X32354250Y10850000D02*
G03X32354250I-175000J0D01*
G01X34004250Y11650000D02*
Y12350000D01*
X34354250Y11950000D02*
G03X34354250I-175000J0D01*
G01X34004250D02*
G03X34004250I-175000J0D01*
G01X34354250Y11650000D02*
X33304250D01*
Y12350000*
X34354250*
Y11650000*
X34356750Y11600000D02*
X34006750D01*
X34344258Y12264991D02*
G03X33994242I-175008J-166658D01*
G01X33994258D02*
G03X33644242I-175008J-166658D01*
G01X33654250Y11650000D02*
Y12350000D01*
X33644258Y12264992D02*
G03X33319242I-162508J-154754D01*
G01X33654250Y11950000D02*
G03X33654250I-175000J0D01*
G01X34004250Y10550000D02*
Y11250000D01*
X34354250Y10850000D02*
G03X34354250I-175000J0D01*
G01X34004250D02*
G03X34004250I-175000J0D01*
G01X34354250Y10550000D02*
X33304250D01*
Y11250000*
X34354250*
Y10550000*
X34356750Y10500000D02*
X34006750D01*
X34344258Y11164991D02*
G03X33994242I-175008J-166658D01*
G01X33994258D02*
G03X33644242I-175008J-166658D01*
G01X33654250Y10550000D02*
Y11250000D01*
X33644258Y11164992D02*
G03X33319242I-162508J-154754D01*
G01X33654250Y10850000D02*
G03X33654250I-175000J0D01*
G01X35304250Y11650000D02*
Y12350000D01*
X35654250Y11950000D02*
G03X35654250I-175000J0D01*
G01X35304250D02*
G03X35304250I-175000J0D01*
G01X35654250Y11650000D02*
X34604250D01*
Y12350000*
X35654250*
Y11650000*
X35656750Y11600000D02*
X35306750D01*
X35644258Y12264991D02*
G03X35294242I-175008J-166658D01*
G01X35294258D02*
G03X34944242I-175008J-166658D01*
G01X34954250Y11650000D02*
Y12350000D01*
X34944258Y12264992D02*
G03X34619242I-162508J-154754D01*
G01X34954250Y11950000D02*
G03X34954250I-175000J0D01*
G01X35304250Y10550000D02*
Y11250000D01*
X35654250Y10850000D02*
G03X35654250I-175000J0D01*
G01X35304250D02*
G03X35304250I-175000J0D01*
G01X35654250Y10550000D02*
X34604250D01*
Y11250000*
X35654250*
Y10550000*
X35656750Y10500000D02*
X35306750D01*
X35644258Y11164991D02*
G03X35294242I-175008J-166658D01*
G01X35294258D02*
G03X34944242I-175008J-166658D01*
G01X34954250Y10550000D02*
Y11250000D01*
X34944258Y11164992D02*
G03X34619242I-162508J-154754D01*
G01X34954250Y10850000D02*
G03X34954250I-175000J0D01*
G01X36604250Y11650000D02*
Y12350000D01*
X36954250Y11950000D02*
G03X36954250I-175000J0D01*
G01X36604250D02*
G03X36604250I-175000J0D01*
G01X36954250Y11650000D02*
X35904250D01*
Y12350000*
X36954250*
Y11650000*
X36956750Y11600000D02*
X36606750D01*
X36944258Y12264991D02*
G03X36594242I-175008J-166658D01*
G01X36594258D02*
G03X36244242I-175008J-166658D01*
G01X36254250Y11650000D02*
Y12350000D01*
X36244258Y12264992D02*
G03X35919242I-162508J-154754D01*
G01X36254250Y11950000D02*
G03X36254250I-175000J0D01*
G01X36604250Y10550000D02*
Y11250000D01*
X36954250Y10850000D02*
G03X36954250I-175000J0D01*
G01X36604250D02*
G03X36604250I-175000J0D01*
G01X36954250Y10550000D02*
X35904250D01*
Y11250000*
X36954250*
Y10550000*
X36956750Y10500000D02*
X36606750D01*
X36944258Y11164991D02*
G03X36594242I-175008J-166658D01*
G01X36594258D02*
G03X36244242I-175008J-166658D01*
G01X36254250Y10550000D02*
Y11250000D01*
X36244258Y11164992D02*
G03X35919242I-162508J-154754D01*
G01X36254250Y10850000D02*
G03X36254250I-175000J0D01*
G01X27504250Y11650000D02*
Y12350000D01*
X27854250Y11950000D02*
G03X27854250I-175000J0D01*
G01X27504250D02*
G03X27504250I-175000J0D01*
G01X27854250Y11650000D02*
X26804250D01*
Y12350000*
X27854250*
Y11650000*
X27856750Y11600000D02*
X27506750D01*
X27844258Y12264991D02*
G03X27494242I-175008J-166658D01*
G01X27494258D02*
G03X27144242I-175008J-166658D01*
G01X27154250Y11650000D02*
Y12350000D01*
X27144258Y12264992D02*
G03X26819242I-162508J-154754D01*
G01X27154250Y11950000D02*
G03X27154250I-175000J0D01*
G01X37904250Y11650000D02*
Y12350000D01*
X38254250Y11950000D02*
G03X38254250I-175000J0D01*
G01X37904250D02*
G03X37904250I-175000J0D01*
G01X38254250Y11650000D02*
X37204250D01*
Y12350000*
X38254250*
Y11650000*
X38256750Y11600000D02*
X37906750D01*
X38244258Y12264991D02*
G03X37894242I-175008J-166658D01*
G01X37894258D02*
G03X37544242I-175008J-166658D01*
G01X37554250Y11650000D02*
Y12350000D01*
X37544258Y12264992D02*
G03X37219242I-162508J-154754D01*
G01X37554250Y11950000D02*
G03X37554250I-175000J0D01*
G01X37904250Y10550000D02*
Y11250000D01*
X38254250Y10850000D02*
G03X38254250I-175000J0D01*
G01X37904250D02*
G03X37904250I-175000J0D01*
G01X38254250Y10550000D02*
X37204250D01*
Y11250000*
X38254250*
Y10550000*
X38256750Y10500000D02*
X37906750D01*
X38244258Y11164991D02*
G03X37894242I-175008J-166658D01*
G01X37894258D02*
G03X37544242I-175008J-166658D01*
G01X37554250Y10550000D02*
Y11250000D01*
X37544258Y11164992D02*
G03X37219242I-162508J-154754D01*
G01X37554250Y10850000D02*
G03X37554250I-175000J0D01*
G01X31888640Y22275000D02*
X32061360D01*
X31888640Y22225000D02*
X32061360D01*
X31888640Y22175000D02*
X32061360D01*
X31888640Y22125000D02*
X32061360D01*
X31888640Y22075000D02*
X32061360D01*
X31888640Y22025000D02*
X32061360D01*
X31888640Y21975000D02*
X32061360D01*
X31888640Y21925000D02*
X32061360D01*
X31888640Y21875000D02*
X32061360D01*
X31888640Y21825000D02*
X32061360D01*
X31888640Y21775000D02*
X32061360D01*
X31888640Y21725000D02*
X32061360D01*
X31888640Y21675000D02*
X32061360D01*
X31888640Y21625000D02*
X32061360D01*
X31888640Y21575000D02*
X32061360D01*
X31888640Y21525000D02*
X32061360D01*
X31888640Y21475000D02*
X32061360D01*
X31888640Y21425000D02*
X32061360D01*
X31888640Y21375000D02*
X32061360D01*
X31888640Y21325000D02*
X32061360D01*
X31888640Y21275000D02*
X32061360D01*
X31888640Y21225000D02*
X32061360D01*
X31888640Y21175000D02*
X32061360D01*
X31888640Y21125000D02*
X32061360D01*
X31888640Y21075000D02*
X32061360D01*
X31888640Y21025000D02*
X32061360D01*
X31888640Y20975000D02*
X32061360D01*
X31888640Y20925000D02*
X32061360D01*
X31888640Y20875000D02*
X32061360D01*
X31888640Y20825000D02*
X32061360D01*
X31888640Y20775000D02*
X32061360D01*
X31888640Y20725000D02*
X32061360D01*
X31888640Y20675000D02*
X32061360D01*
X31888640Y20625000D02*
X32061360D01*
X31888640Y20575000D02*
X32061360D01*
X31888640Y20525000D02*
X32061360D01*
X32225000Y20188640D02*
Y20361360D01*
X32275000Y20188640D02*
Y20361360D01*
X32325000Y20188640D02*
Y20361360D01*
X32375000Y20188640D02*
Y20361360D01*
X32425000Y20188640D02*
Y20361360D01*
X32475000Y20188640D02*
Y20361360D01*
X32525000Y20188640D02*
Y20361360D01*
X32575000Y20188640D02*
Y20361360D01*
X32625000Y20188640D02*
Y20361360D01*
X32675000Y20188640D02*
Y20361360D01*
X32725000Y20188640D02*
Y20361360D01*
X32775000Y20188640D02*
Y20361360D01*
X32825000Y20188640D02*
Y20361360D01*
X32875000Y20188640D02*
Y20361360D01*
X32925000Y20188640D02*
Y20361360D01*
X32975000Y20188640D02*
Y20361360D01*
X33025000Y20188640D02*
Y20361360D01*
X33075000Y20188640D02*
Y20361360D01*
X33125000Y20188640D02*
Y20361360D01*
X33175000Y20188640D02*
Y20361360D01*
X33225000Y20188640D02*
Y20361360D01*
X33275000Y20188640D02*
Y20361360D01*
X33325000Y20188640D02*
Y20361360D01*
X33375000Y20188640D02*
Y20361360D01*
X33425000Y20188640D02*
Y20361360D01*
X33475000Y20188640D02*
Y20361360D01*
X33525000Y20188640D02*
Y20361360D01*
X33575000Y20188640D02*
Y20361360D01*
X33625000Y20188640D02*
Y20361360D01*
X33675000Y20188640D02*
Y20361360D01*
X33725000Y20188640D02*
Y20361360D01*
X33775000Y20188640D02*
Y20361360D01*
X33825000Y20188640D02*
Y20361360D01*
X33875000Y20188640D02*
Y20361360D01*
X33925000Y20188640D02*
Y20361360D01*
X33975000Y20188640D02*
Y20361360D01*
X34138640Y20525000D02*
X34311360D01*
X34138640Y20575000D02*
X34311360D01*
X34138640Y20625000D02*
X34311360D01*
X34138640Y20675000D02*
X34311360D01*
X34138640Y20725000D02*
X34311360D01*
X34138640Y20775000D02*
X34311360D01*
X34138640Y20825000D02*
X34311360D01*
X34138640Y20875000D02*
X34311360D01*
X34138640Y20925000D02*
X34311360D01*
X34138640Y20975000D02*
X34311360D01*
X34138640Y21025000D02*
X34311360D01*
X34138640Y21075000D02*
X34311360D01*
X34138640Y21125000D02*
X34311360D01*
X34138640Y21175000D02*
X34311360D01*
X34138640Y21225000D02*
X34311360D01*
X34138640Y21275000D02*
X34311360D01*
X34138640Y21325000D02*
X34311360D01*
X34138640Y21375000D02*
X34311360D01*
X34138640Y21425000D02*
X34311360D01*
X34138640Y21475000D02*
X34311360D01*
X34138640Y21525000D02*
X34311360D01*
X34138640Y21575000D02*
X34311360D01*
X34138640Y21625000D02*
X34311360D01*
X34138640Y21675000D02*
X34311360D01*
X34138640Y21725000D02*
X34311360D01*
X34138640Y21775000D02*
X34311360D01*
X34138640Y21825000D02*
X34311360D01*
X34138640Y21875000D02*
X34311360D01*
X34138640Y21925000D02*
X34311360D01*
X34138640Y21975000D02*
X34311360D01*
X34138640Y22025000D02*
X34311360D01*
X34138640Y22075000D02*
X34311360D01*
X34138640Y22125000D02*
X34311360D01*
X34138640Y22175000D02*
X34311360D01*
X34138640Y22225000D02*
X34311360D01*
X34138640Y22275000D02*
X34311360D01*
X33975000Y22438640D02*
Y22611360D01*
X33925000Y22438640D02*
Y22611360D01*
X33875000Y22438640D02*
Y22611360D01*
X33825000Y22438640D02*
Y22611360D01*
X33775000Y22438640D02*
Y22611360D01*
X33725000Y22438640D02*
Y22611360D01*
X33675000Y22438640D02*
Y22611360D01*
X33625000Y22438640D02*
Y22611360D01*
X33575000Y22438640D02*
Y22611360D01*
X33525000Y22438640D02*
Y22611360D01*
X33475000Y22438640D02*
Y22611360D01*
X33425000Y22438640D02*
Y22611360D01*
X33375000Y22438640D02*
Y22611360D01*
X33325000Y22438640D02*
Y22611360D01*
X33275000Y22438640D02*
Y22611360D01*
X33225000Y22438640D02*
Y22611360D01*
X33175000Y22438640D02*
Y22611360D01*
X33125000Y22438640D02*
Y22611360D01*
X33075000Y22438640D02*
Y22611360D01*
X33025000Y22438640D02*
Y22611360D01*
X32975000Y22438640D02*
Y22611360D01*
X32925000Y22438640D02*
Y22611360D01*
X32875000Y22438640D02*
Y22611360D01*
X32825000Y22438640D02*
Y22611360D01*
X32775000Y22438640D02*
Y22611360D01*
X32725000Y22438640D02*
Y22611360D01*
X32675000Y22438640D02*
Y22611360D01*
X32625000Y22438640D02*
Y22611360D01*
X32575000Y22438640D02*
Y22611360D01*
X32525000Y22438640D02*
Y22611360D01*
X32475000Y22438640D02*
Y22611360D01*
X32425000Y22438640D02*
Y22611360D01*
X32375000Y22438640D02*
Y22611360D01*
X32325000Y22438640D02*
Y22611360D01*
X32275000Y22438640D02*
Y22611360D01*
X32225000Y22438640D02*
Y22611360D01*
G54D69*
X31605000Y17525000D02*
Y17425000D01*
X31155000Y17525000D02*
Y17425000D01*
X31605000Y16625000D02*
Y16525000D01*
X31155000Y16625000D02*
Y16525000D01*
X30635000Y17525000D02*
Y17425000D01*
X30185000Y17525000D02*
Y17425000D01*
X30635000Y16625000D02*
Y16525000D01*
X30185000Y16625000D02*
Y16525000D01*
G54D98*
X27515000Y16850000D03*
Y15825000D03*
X26355000Y18250000D03*
X27350000Y14375000D03*
Y13625000D03*
X27050000Y14375000D03*
Y13625000D03*
X26450000Y14375000D03*
Y13625000D03*
X26750000Y14375000D03*
X27580000Y21900000D03*
X26750000Y13625000D03*
X26150000Y14375000D03*
Y13625000D03*
X25850000Y14375000D03*
Y13625000D03*
X39255000Y23250000D03*
X38955000Y22675000D03*
X32400000Y23075000D03*
X37580000Y18900000D03*
G54D101*
X38400000Y16675000D02*
X37950000D01*
X38400000Y17125000D02*
X37950000D01*
X33150000Y16525000D02*
Y16075000D01*
X32700000Y16525000D02*
Y16075000D01*
G54D103*
X26355000Y20547000D03*
Y20751000D03*
X26609000Y20649000D03*
Y20853000D03*
X26355000Y18997000D03*
Y19201000D03*
X26609000Y19099000D03*
Y19303000D03*
X27515000Y16596000D03*
X28277000D03*
Y16850000D03*
X27515000Y15571000D03*
X28277000D03*
Y15825000D03*
X26355000Y17996000D03*
X27350000Y14629000D03*
Y13879000D03*
X27050000Y14629000D03*
Y13879000D03*
X26450000Y14629000D03*
Y13879000D03*
X26750000Y14629000D03*
X27580000Y21646000D03*
X26750000Y13879000D03*
X26150000Y14629000D03*
Y13879000D03*
X25850000Y14629000D03*
Y13879000D03*
X39275000Y14625000D03*
Y14375000D03*
Y14125000D03*
X39001000Y23250000D03*
X39209000Y22675000D03*
X32400000Y23329000D03*
X37580000Y18646000D03*
Y18392000D03*
Y18138000D03*
X38342000D03*
Y18392000D03*
Y18646000D03*
Y18900000D03*
X38975000Y17525000D03*
X32805000Y14600000D03*
G54D104*
X37550000Y14300000D03*
X35850000D03*
G54D105*
X28630000Y24050000D03*
G54D106*
Y24250000D03*
X28830000Y24050000D03*
Y24250000D03*
X29030000Y24050000D03*
Y24250000D03*
X29230000Y24050000D03*
Y24250000D03*
X29430000Y24050000D03*
Y24250000D03*
G54D107*
X39040000Y11639988D03*
Y12140012D03*
G54D108*
X37030000Y16550000D02*
X37520000D01*
X37030000Y16050000D02*
X37520000D01*
X34675000Y17545000D02*
Y17055000D01*
X34175000Y17545000D02*
Y17055000D01*
G54D109*
X27189500Y20174480D02*
Y20301480D01*
X27316500Y20174480D02*
Y20301480D01*
X27443500Y20174480D02*
Y20301480D01*
X27570500Y20174480D02*
Y20301480D01*
Y20748520D02*
Y20875520D01*
X27443500Y20748520D02*
Y20875520D01*
X27316500Y20748520D02*
Y20875520D01*
X27189500Y20748520D02*
Y20875520D01*
X36515500Y16500520D02*
Y16373520D01*
X36388500Y16500520D02*
Y16373520D01*
X36261500Y16500520D02*
Y16373520D01*
X36134500Y16500520D02*
Y16373520D01*
Y15926480D02*
Y15799480D01*
X36261500Y15926480D02*
Y15799480D01*
X36388500Y15926480D02*
Y15799480D01*
X36515500Y15926480D02*
Y15799480D01*
X34615500Y16475520D02*
Y16348520D01*
X34488500Y16475520D02*
Y16348520D01*
X34361500Y16475520D02*
Y16348520D01*
X34234500Y16475520D02*
Y16348520D01*
Y15901480D02*
Y15774480D01*
X34361500Y15901480D02*
Y15774480D01*
X34488500Y15901480D02*
Y15774480D01*
X34615500Y15901480D02*
Y15774480D01*
X29364480Y16106000D02*
X29491480D01*
X29364480Y15979000D02*
X29491480D01*
X29364480Y15852000D02*
X29491480D01*
X29364480Y15725000D02*
X29491480D01*
X29364480Y15598000D02*
X29491480D01*
X29364480Y15471000D02*
X29491480D01*
X29364480Y15344000D02*
X29491480D01*
X29938520D02*
X30065520D01*
X29938520Y15471000D02*
X30065520D01*
X29938520Y15598000D02*
X30065520D01*
X29938520Y15725000D02*
X30065520D01*
X29938520Y15852000D02*
X30065520D01*
X29938520Y15979000D02*
X30065520D01*
X29938520Y16106000D02*
X30065520D01*
G54D110*
X26450000Y22050000D02*
Y21850000D01*
X38270000Y20520000D02*
Y20720000D01*
X34225000Y22525000D03*
X31975000Y20275000D03*
X29830133Y20824315D03*
X28929449Y21725000D03*
G54D111*
X26175000Y22850000D03*
G54D112*
X26352800Y22951600D03*
X26175000Y23053200D03*
X26352800Y23154800D03*
X26175000Y23256400D03*
X26352800Y23358000D03*
X26175000Y23459600D03*
X26352800Y23561200D03*
X26835400Y23891400D03*
Y23662800D03*
Y22748400D03*
Y22519800D03*
G54D113*
X25921000Y23840600D03*
Y22570600D03*
G54D114*
X37890150Y21702500D02*
X38029850D01*
X37890150Y21637500D02*
X38029850D01*
X37890150Y21572500D02*
X38029850D01*
X37890150Y21507500D02*
X38029850D01*
X37890150Y21442500D02*
X38029850D01*
X37890150Y21377500D02*
X38029850D01*
X37890150Y21312500D02*
X38029850D01*
X37890150Y21247500D02*
X38029850D01*
X38530150D02*
X38669850D01*
X38530150Y21312500D02*
X38669850D01*
X38530150Y21377500D02*
X38669850D01*
X38530150Y21442500D02*
X38669850D01*
X38530150Y21507500D02*
X38669850D01*
X38530150Y21572500D02*
X38669850D01*
X38530150Y21637500D02*
X38669850D01*
X38530150Y21702500D02*
X38669850D01*
G54D115*
X38391824Y22290000D02*
X38478184D01*
X38391824Y22225000D02*
X38478184D01*
X38391824Y22160001D02*
X38478184D01*
X38581816D02*
X38668176D01*
X38581816Y22225000D02*
X38668176D01*
X38581816Y22289999D02*
X38668176D01*
G54D116*
X29610000Y20145000D02*
X29630000D01*
X29830000D02*
X29850000D01*
X29830000Y20305000D02*
X29850000D01*
X29610000D02*
X29630000D01*
X31345000Y21245000D02*
Y21225000D01*
Y21025000D02*
Y21005000D01*
X31505000Y21025000D02*
Y21005000D01*
Y21245000D02*
Y21225000D01*
G54D117*
X36430000Y23350000D03*
Y18450000D03*
X30630000Y23350000D03*
Y18450000D03*
G54D118*
X25800000Y25000000D03*
X39260000D03*
Y13100000D03*
X25800000D03*
Y10800000D03*
X39260000D03*
G54D119*
X31575000Y21900000D03*
G54D120*
X39355000Y20250000D02*
G03X39355000I-100000J0D01*
G01X33680000Y14600000D02*
G03X33680000I-100000J0D01*
G01X39150000Y15375000D02*
G03X39150000I-100000J0D01*
G01X38450000D02*
G03X38450000I-100000J0D01*
G01Y16075000D02*
G03X38450000I-100000J0D01*
G01X39150000D02*
G03X39150000I-100000J0D01*
G01X39230000Y17125000D02*
G03X39230000I-30000J0D01*
G01X38780000D02*
G03X38780000I-30000J0D01*
G01Y16675000D02*
G03X38780000I-30000J0D01*
G01X39230000D02*
G03X39230000I-30000J0D01*
G01X32700000Y17600000D02*
G03X32700000I-100000J0D01*
G01X33400000D02*
G03X33400000I-100000J0D01*
G01Y16900000D02*
G03X33400000I-100000J0D01*
G01X32700000D02*
G03X32700000I-100000J0D01*
G01X32755000Y15275000D02*
G03X32755000I-30000J0D01*
G01Y15725000D02*
G03X32755000I-30000J0D01*
G01X32305000D02*
G03X32305000I-30000J0D01*
G01Y15275000D02*
G03X32305000I-30000J0D01*
G01X35730000D02*
G03X35730000I-30000J0D01*
G01Y15725000D02*
G03X35730000I-30000J0D01*
G01X35280000D02*
G03X35280000I-30000J0D01*
G01Y15275000D02*
G03X35280000I-30000J0D01*
G01X33805000D02*
G03X33805000I-30000J0D01*
G01Y15725000D02*
G03X33805000I-30000J0D01*
G01X33355000D02*
G03X33355000I-30000J0D01*
G01Y15275000D02*
G03X33355000I-30000J0D01*
G01X33330000Y19450000D02*
G03X33330000I-30000J0D01*
G01X33680000D02*
G03X33680000I-30000J0D01*
G01X33330000Y19800000D02*
G03X33330000I-30000J0D01*
G01X33680000D02*
G03X33680000I-30000J0D01*
G01X31980000Y19450000D02*
G03X31980000I-30000J0D01*
G01X32330000D02*
G03X32330000I-30000J0D01*
G01X31980000Y19800000D02*
G03X31980000I-30000J0D01*
G01X32330000D02*
G03X32330000I-30000J0D01*
G54D125*
G01X37897500Y19027000D02*
X37897500D01*
G03X38024500I63500J0*
G01X38024500*
X37707000D02*
Y18011000D01*
X38215000*
Y19027000*
X37707000*
X27214900Y20436100D02*
G03X27214900I-31750J0D01*
G01X27138700Y20359900D02*
X27621300D01*
Y20690100*
X27138700*
Y20359900*
X36553600Y16238900D02*
G03X36553600I-31750J0D01*
G01X36566300Y16315100D02*
X36083700D01*
Y15984900*
X36566300*
Y16315100*
X34653600Y16213900D02*
G03X34653600I-31750J0D01*
G01X34666300Y16290100D02*
X34183700D01*
Y15959900*
X34666300*
Y16290100*
X29619750Y16112350D02*
G03X29619750I-19050J0D01*
G01X29549900Y16156800D02*
Y15293200D01*
X29880100*
Y16156800*
X29549900*
G54D126*
X39075000Y17525000D02*
G03X39075000I-100000J0D01*
G01X32905000Y14600000D02*
G03X32905000I-100000J0D01*
G74*
G01X0Y0D02*
M02*
