%
T1C.01181F095S3
X040138Y-03252
X041319Y-03252
X060492Y-033209
X06128Y-032913
X064626Y-028091
X06128Y-032323
X060492Y-032028
X060098Y-028091
X057441Y-029961
X05626Y-029961
X054833Y-02937
X051978Y-02937
X051043Y-028976
X048287Y-028976
X047352Y-02937
X044498Y-02937
X043465Y-028976
X040709Y-028976
X039331Y-028976
X036575Y-028976
X024134Y-028878
X024134Y-027697
X024134Y-029961
X022993Y-029228
X022993Y-028528
X022953Y-027697
X022953Y-029961
X022165Y-028484
X022165Y-029665
X017047Y-02937
X016063Y-029272
X014882Y-029272
X014193Y-029272
X013052Y-028922
X013052Y-029622
X012323Y-028878
X012323Y-029665
X011142Y-028878
X011142Y-029665
X011142Y-025433
X012323Y-025433
X013052Y-025389
X014193Y-025039
X014882Y-027303
X014882Y-025039
X016063Y-027303
X016063Y-025039
X017047Y-025138
X017047Y-027205
X022165Y-025827
X022953Y-026319
X022993Y-025488
X024134Y-026319
X024134Y-025138
X02626Y-02563
X027441Y-02563
X036575Y-027008
X037756Y-027008
X041496Y-027008
X042087Y-025039
X042087Y-02622
X042677Y-027008
X042972Y-025039
X042972Y-02622
X04376Y-02622
X04376Y-025039
X047598Y-027205
X049075Y-027008
X050256Y-027008
X050453Y-02622
X050453Y-025039
X051339Y-025039
X051339Y-02622
X065413Y-022874
X065413Y-024055
X063445Y-024843
X057638Y-023465
X056752Y-023465
X053209Y-024055
X051831Y-023661
X048189Y-022579
X048189Y-02376
X047598Y-024843
X045236Y-024252
X044055Y-024252
X024134Y-024055
X022993Y-024788
X022953Y-024055
X022165Y-024646
X017047Y-022972
X016063Y-023071
X014882Y-023071
X013052Y-024689
X012323Y-024646
X011142Y-024646
X028839Y-02002
X03002Y-02002
X032657Y-02002
X033839Y-02002
X037461Y-022087
X041988Y-022087
X048189Y-02189
X048189Y-020709
X051831Y-02248
X053209Y-021693
X056752Y-022283
X057638Y-022283
X063445Y-022087
X064744Y-011949
X063563Y-011949
X057815Y-011673
X057815Y-010492
X056831Y-010492
X056674Y-011323
X056674Y-012023
X043563Y-012933
X043563Y-011752
X041791Y-011752
X041791Y-01372
X040217Y-011752
X040217Y-012933
X039429Y-012933
X039429Y-011752
X036476Y-01372
X036476Y-011752
X034803Y-011752
X034803Y-012933
X028524Y-011161
X027638Y-011654
X026457Y-011654
X025571Y-011063
X024783Y-011063
X023996Y-011063
X023209Y-011063
X018091Y-012835
X018091Y-011654
X017303Y-012835
X017303Y-011654
X016713Y-00565
X016713Y-006831
X017402Y-006831
X017402Y-00624
X017992Y-00624
X017992Y-006831
X02124Y-008701
X02124Y-007913
X02124Y-007126
X02124Y-005354
X022421Y-008701
X022421Y-007913
X022421Y-007126
X022421Y-005354
X023209Y-009882
X023996Y-009882
X024783Y-009882
X025571Y-009882
X028524Y-00998
X033031Y-005354
X033031Y-008209
X034213Y-005354
X034213Y-008209
X056831Y-009311
X05685Y-00565
X05687Y-006437
X057815Y-009311
X058031Y-00565
X058051Y-006437
X059882Y-008819
X061407Y-008819
X063366Y-006831
X063366Y-006043
X064547Y-006831
X064547Y-006043
X06435Y-0025
X06435Y-001713
X063169Y-0025
X063169Y-003583
X063169Y-001713
X06248Y-000039
X061988Y-003583
X061791Y-00063
X061299Y-003583
X060118Y-003583
X058051Y-004764
X05687Y-004764
X0475Y-001614
X0475Y-002402
X046319Y-001614
X046319Y-002402
X034232Y-004469
X034232Y-002303
X033051Y-002303
X033051Y-004469
X027618Y-003091
X027618Y-001909
X026831Y-001909
X026831Y-003091
X025354Y-003091
X025354Y-001909
X020925Y-001122
X019744Y-001122
X018858Y-001122
X018858Y-000335
X017677Y-000335
X017677Y-001122
X0175Y-00378
X0175Y-004961
X014921Y-003583
X013396Y-003583
X017677Y002028
X017677Y000453
X017677Y00124
X018858Y002028
X018858Y000453
X018858Y00124
X019744Y000453
X019744Y00124
X020925Y000453
X020925Y00124
X022717Y001929
X023504Y001929
X024291Y001929
X025079Y001929
X025866Y001929
X036476Y00065
X036476Y001831
X038543Y001929
X038543Y000748
X039331Y000748
X039331Y001929
X041398Y001929
X041398Y000748
X055787Y000846
X055787Y001634
X056969Y000846
X056969Y001634
X061791Y001142
X061791Y000551
X061791Y002323
X06248Y001732
X06248Y001142
X06248Y000551
X063366Y000453
X064547Y000453
X059823Y00252
X058642Y00252
X050551Y00685
X050551Y005669
X049567Y00685
X049567Y005669
X048583Y005669
X048583Y00685
X025866Y00311
X025079Y00311
X024291Y00311
X023504Y00311
X022717Y00311
X020925Y002717
X019744Y002717
X018858Y002717
X017677Y002717
T2C.012F095S3
X02624Y-033996
X065217Y-040591
X043366Y-010866
X042874Y-015098
X04061Y-010768
X040217Y-010768
X039528Y-010768
X039232Y-010768
X037854Y-01126
X036772Y-01126
X035492Y-018051
X03313Y-013573
X032835Y-013819
X032343Y-010866
X031752Y-010866
X03126Y-01062
X017087Y-009783
X018563Y-009783
X024715Y-008799
X025059Y-008799
X026634Y-009685
X028504Y-00811
X031752Y-009488
X035295Y-007815
X035295Y-00811
X036476Y-008012
X036969Y-009488
X037362Y-009488
X038248Y-009488
X038543Y-009488
X038839Y-009488
X039429Y-009488
X04002Y-009488
X040413Y-009488
X040807Y-009488
X043169Y-009685
X04376Y-009587
X044154Y-008012
X044154Y-007618
X045335Y-007815
X05685Y-00752
X062756Y-005354
X062461Y-005059
X060492Y-006339
X060197Y-006043
X048976Y-006535
X048189Y-006634
X047894Y-006831
X045335Y-007126
X045335Y-007421
X044154Y-007028
X040217Y-006831
X04002Y-006535
X039823Y-006831
X036969Y-006831
X036476Y-006437
X036476Y-006043
X036476Y-00565
X035295Y-00624
X035295Y-005453
X035295Y-005846
X035295Y-005059
X034409Y-006437
X030866Y-006732
X030571Y-006929
X030374Y-00747
X030177Y-005157
X02998Y-007126
X024961Y-006142
X024961Y-006535
X024961Y-006929
X024961Y-005748
X024764Y-00747
X024665Y-005551
X024665Y-005157
X024665Y-006339
X024665Y-007126
X024665Y-005945
X023189Y-006732
X022402Y-001122
X022402Y-000827
X022402Y-000531
X022402Y-001417
X024587Y-003878
X024783Y-003681
X02498Y-003878
X025177Y-003681
X025374Y-003878
X025748Y-000138
X035197Y-002894
X035295Y-002303
X035295Y-004272
X035295Y-004665
X036476Y-004469
X036476Y-004862
X036476Y-004075
X039429Y-002008
X039429Y-00063
X044154Y-004862
X045433Y-004961
X053012Y-002402
X056555Y-002402
X058917Y-000236
X060394Y-0025
X060886Y-002795
X061378Y-004764
X039035Y003209
X03815Y003898
X037067Y004094
X03687Y000059
X036083Y004291
X035098Y004488
X034016Y004685
X033031Y004882
X026043Y001043
X025453Y000748
X025157Y000453
X024862Y000157
X022106Y005965
X024272Y006358
X024665Y006654
X025453Y007244
X026339Y006949
X031161Y005276
X032146Y005079
X039035Y006555
X041102Y005965
X042087Y005768
X042972Y005472
X044055Y006555
T3C.02F197S55
X034311Y-00378
X034311Y-002992
T4C.0315F197S55
X039154Y-03252
X063445Y-021004
X025866Y004685
X025079Y004685
X024291Y004685
X023504Y004685
X022717Y004685
X022717Y005472
X023504Y005472
X024291Y005472
X025079Y005472
X025866Y005472
T5C.03543F197S55
X011772Y-036358
X011772Y-035358
X012953Y-036358
X012953Y-035358
X014134Y-036358
X014134Y-035358
X015315Y-036358
X015315Y-035358
X016496Y-036358
X016496Y-035358
X017677Y-036358
X017677Y-035358
X064626Y-033406
X064626Y-03439
X064626Y-032421
X042992Y-03252
X042205Y-03252
X017677Y-033406
X017677Y-032406
X016496Y-033406
X016496Y-032406
X015315Y-033406
X015315Y-032406
X014134Y-032406
X014134Y-033406
X012953Y-033406
X012953Y-032406
X011772Y-032406
X011772Y-033406
X018327Y-027697
X018327Y-028697
X018327Y-024661
X018327Y-023661
X021327Y-023661
X021327Y-028697
X021327Y-024661
X021327Y-027697
X060953Y-018591
X060953Y-017591
X060953Y-016591
X060953Y-015591
X057953Y-015591
X057953Y-016591
X057953Y-017591
X057953Y-018591
X01376Y-01915
X01376Y-015209
X01376Y-01815
X01376Y-014406
X01376Y-008303
X01376Y-009106
X01476Y-014004
X01476Y-007902
X01476Y-008705
X01476Y-014807
X05939Y-011673
X061358Y-011673
X06376Y-010276
X064547Y-010276
X064547Y001535
X064366Y-000728
X063547Y001535
X063366Y-000728
X037559Y000846
X037559Y001846
X018583Y-00478
X018583Y-00378
T6C.036F197S55
X013051Y-000039
X015651Y-000439
X015651Y-001339
X015651Y003161
X015651Y004061
X013751Y001961
X013751Y000361
X013751Y001161
X013751Y002761
X013051Y002361
X013051Y000761
X013051Y001561
T7C.04F139S55
X026071Y-039319
X026071Y-038319
X027071Y-039319
X027071Y-038319
X028071Y-039319
X028071Y-038319
X029071Y-039319
X029071Y-038319
X030071Y-039319
X030071Y-038319
X031071Y-039319
X031071Y-038319
X032071Y-039319
X032071Y-038319
X033071Y-039319
X033071Y-038319
X034071Y-039319
X034071Y-038319
X035071Y-039319
X035071Y-038319
X036071Y-039319
X036071Y-038319
X037071Y-039319
X037071Y-038319
X038071Y-039319
X038071Y-038319
X039071Y-039319
X039071Y-038319
X040071Y-039319
X040071Y-038319
X041071Y-039319
X041071Y-038319
X042071Y-039319
X042071Y-038319
X043071Y-039319
X043071Y-038319
X044071Y-039319
X044071Y-038319
X045071Y-039319
X045071Y-038319
X046071Y-039319
X046071Y-038319
X047071Y-039319
X047071Y-038319
X048071Y-039319
X048071Y-038319
X049071Y-039319
X049071Y-038319
X050071Y-039319
X050071Y-038319
X050071Y008319
X050071Y009319
X049071Y008319
X049071Y009319
X048071Y008319
X048071Y009319
X047071Y008319
X047071Y009319
X046071Y008319
X046071Y009319
X045071Y008319
X045071Y009319
X044071Y008319
X044071Y009319
X043071Y008319
X043071Y009319
X042071Y008319
X042071Y009319
X041071Y008319
X041071Y009319
X040071Y008319
X040071Y009319
X039071Y008319
X039071Y009319
X038071Y008319
X038071Y009319
X037071Y008319
X037071Y009319
X036071Y008319
X036071Y009319
X035071Y008319
X035071Y009319
X034071Y008319
X034071Y009319
X033071Y008319
X033071Y009319
X032071Y008319
X032071Y009319
X031071Y008319
X031071Y009319
X030071Y008319
X030071Y009319
X029071Y008319
X029071Y009319
X028071Y008319
X028071Y009319
X027071Y008319
X027071Y009319
X026071Y008319
X026071Y009319
T8C.05118F107S55
X016218Y-047283
X017598Y-047283
X018973Y-047283
X021336Y-047283
X022717Y-047283
X024092Y-047283
X026454Y-047283
X027835Y-047283
X02921Y-047283
X031572Y-047283
X032953Y-047283
X034328Y-047283
X03669Y-047283
X038071Y-047283
X039446Y-047283
X041808Y-047283
X043189Y-047283
X044564Y-047283
X046926Y-047283
X048307Y-047283
X049682Y-047283
X052044Y-047283
X053425Y-047283
X0548Y-047283
X057162Y-047283
X058543Y-047283
X059918Y-047283
X059918Y-042953
X058543Y-042953
X057162Y-042953
X0548Y-042953
X053425Y-042953
X052044Y-042953
X049682Y-042953
X048307Y-042953
X046926Y-042953
X044564Y-042953
X043189Y-042953
X041808Y-042953
X039446Y-042953
X038071Y-042953
X03669Y-042953
X034328Y-042953
X032953Y-042953
X031572Y-042953
X02921Y-042953
X027835Y-042953
X026454Y-042953
X024092Y-042953
X022717Y-042953
X021336Y-042953
X018973Y-042953
X017598Y-042953
X016218Y-042953
T9C.05906F107S55
X063701Y-044173
X063701Y-042205
T10C.07087F081S55
X050354Y-033701
X058622Y-033701
X013401Y-001839
X013401Y004561
T11C.09843F066S55
X012854Y-016969
X012854Y-010866
X012854Y-012244
X012854Y-006142
T12C.10827F069S658
X030591Y-017362
X053425Y-017362
X053425Y001929
X030591Y001929
T13C.12598F035S794
X011575Y-04748
X011575Y-038425
X064567Y-038425
X064567Y-04748
X064567Y008425
X011575Y008425
T14C.128F035S794
X012051Y-001139
X012051Y003861
M30
