*
*
G04 PADS Layout (Build Number 2005.266.2) generated Gerber (RS-274-X) file*
G04 PC Version=2.1*
*
%IN "cflora_base_1125.pcb"*%
*
%MOMM*%
*
%FSLAX35Y35*%
*
*
*
*
G04 PC Standard Apertures*
*
*
G04 Thermal Relief Aperture macro.*
%AMTER*
1,1,$1,0,0*
1,0,$1-$2,0,0*
21,0,$3,$4,0,0,45*
21,0,$3,$4,0,0,135*
%
*
*
G04 Annular Aperture macro.*
%AMANN*
1,1,$1,0,0*
1,0,$2,0,0*
%
*
*
G04 Odd Aperture macro.*
%AMODD*
1,1,$1,0,0*
1,0,$1-0.005,0,0*
%
*
*
G04 PC Custom Aperture Macros*
*
*
*
*
*
*
G04 PC Aperture Table*
*
%ADD058C,0.254*%
%ADD060C,1.3*%
%ADD079R,1.65X1.65*%
%ADD080R,1.066X1.066*%
%ADD083C,1.55*%
%ADD084R,1.4724X1.4724*%
%ADD085C,1.4724*%
%ADD086C,2.05*%
%ADD087C,2.55*%
%ADD088R,2.59X2.59*%
%ADD089C,1.65*%
%ADD090C,0.558*%
%ADD095C,1.066*%
%ADD096R,1.55X1.55*%
%ADD102R,2.05X2.05*%
%ADD105R,1.25X1.25*%
%ADD106C,1.25*%
%ADD128C,0.85*%
%ADD129C,1.05*%
%ADD130R,7.05X7.05*%
%ADD131R,1.3X1.3*%
%ADD132C,2.65*%
%ADD133R,3.35X3.35*%
%ADD134C,0.6596*%
%ADD135C,0.3548*%
%ADD136C,0.304*%
%ADD137R,1.3708X1.3708*%
%ADD138C,1.3708*%
%ADD139C,3.3012*%
%ADD140C,0.431*%
%ADD141R,0.4564X0.4564*%
%ADD142C,6.25*%
%ADD143C,4.55*%
*
*
*
*
G04 PC Custom Flashes*
G04 Layer Name cflora_base_1125.pcb - flashes*
%LPD*%
*
*
G04 PC Circuitry*
G04 Layer Name cflora_base_1125.pcb - circuitry*
%LPD*%
*
G54D58*
G01X27294800Y19889800D02*
Y19810200D01*
X27215200*
Y19889800*
X27294800*
X27215200Y19810200D02*
X27294800D01*
X27215200Y19835600D02*
X27294800D01*
X27215200Y19861000D02*
X27294800D01*
X27215200Y19886400D02*
X27294800D01*
X27228800Y19810200D02*
Y19889800D01*
X27254200Y19810200D02*
Y19889800D01*
X27279600Y19810200D02*
Y19889800D01*
X27294800Y19610200D02*
Y19689800D01*
X27215200*
Y19610200*
X27294800*
X27215200D02*
X27294800D01*
X27215200Y19635600D02*
X27294800D01*
X27215200Y19661000D02*
X27294800D01*
X27215200Y19686400D02*
X27294800D01*
X27228800Y19610200D02*
Y19689800D01*
X27254200Y19610200D02*
Y19689800D01*
X27279600Y19610200D02*
Y19689800D01*
X28164800Y23214800D02*
X28085200D01*
Y23135200*
X28164800*
Y23214800*
X28085200Y23135200D02*
X28164800D01*
X28085200Y23160600D02*
X28164800D01*
X28085200Y23186000D02*
X28164800D01*
X28085200Y23211400D02*
X28164800D01*
X28092400Y23135200D02*
Y23214800D01*
X28117800Y23135200D02*
Y23214800D01*
X28143200Y23135200D02*
Y23214800D01*
X27885200D02*
X27964800D01*
Y23135200*
X27885200*
Y23214800*
Y23135200D02*
X27964800D01*
X27885200Y23160600D02*
X27964800D01*
X27885200Y23186000D02*
X27964800D01*
X27885200Y23211400D02*
X27964800D01*
X27889200Y23135200D02*
Y23214800D01*
X27914600Y23135200D02*
Y23214800D01*
X27940000Y23135200D02*
Y23214800D01*
X28164800Y23589800D02*
X28085200D01*
Y23510200*
X28164800*
Y23589800*
X28085200Y23510200D02*
X28164800D01*
X28085200Y23535600D02*
X28164800D01*
X28085200Y23561000D02*
X28164800D01*
X28085200Y23586400D02*
X28164800D01*
X28092400Y23510200D02*
Y23589800D01*
X28117800Y23510200D02*
Y23589800D01*
X28143200Y23510200D02*
Y23589800D01*
X27885200D02*
X27964800D01*
Y23510200*
X27885200*
Y23589800*
Y23510200D02*
X27964800D01*
X27885200Y23535600D02*
X27964800D01*
X27885200Y23561000D02*
X27964800D01*
X27885200Y23586400D02*
X27964800D01*
X27889200Y23510200D02*
Y23589800D01*
X27914600Y23510200D02*
Y23589800D01*
X27940000Y23510200D02*
Y23589800D01*
X29869800Y19939800D02*
X29790200D01*
Y19860200*
X29869800*
Y19939800*
X29790200Y19860200D02*
X29869800D01*
X29790200Y19885600D02*
X29869800D01*
X29790200Y19911000D02*
X29869800D01*
X29790200Y19936400D02*
X29869800D01*
X29794200Y19860200D02*
Y19939800D01*
X29819600Y19860200D02*
Y19939800D01*
X29845000Y19860200D02*
Y19939800D01*
X29590200D02*
X29669800D01*
Y19860200*
X29590200*
Y19939800*
Y19860200D02*
X29669800D01*
X29590200Y19885600D02*
X29669800D01*
X29590200Y19911000D02*
X29669800D01*
X29590200Y19936400D02*
X29669800D01*
X29591000Y19860200D02*
Y19939800D01*
X29616400Y19860200D02*
Y19939800D01*
X29641800Y19860200D02*
Y19939800D01*
X29667200Y19860200D02*
Y19939800D01*
X27639800Y22814800D02*
X27560200D01*
Y22735200*
X27639800*
Y22814800*
X27560200Y22735200D02*
X27639800D01*
X27560200Y22760600D02*
X27639800D01*
X27560200Y22786000D02*
X27639800D01*
X27560200Y22811400D02*
X27639800D01*
X27584400Y22735200D02*
Y22814800D01*
X27609800Y22735200D02*
Y22814800D01*
X27635200Y22735200D02*
Y22814800D01*
X27360200D02*
X27439800D01*
Y22735200*
X27360200*
Y22814800*
Y22735200D02*
X27439800D01*
X27360200Y22760600D02*
X27439800D01*
X27360200Y22786000D02*
X27439800D01*
X27360200Y22811400D02*
X27439800D01*
X27381200Y22735200D02*
Y22814800D01*
X27406600Y22735200D02*
Y22814800D01*
X27432000Y22735200D02*
Y22814800D01*
X27639800Y23414800D02*
X27560200D01*
Y23335200*
X27639800*
Y23414800*
X27560200Y23335200D02*
X27639800D01*
X27560200Y23360600D02*
X27639800D01*
X27560200Y23386000D02*
X27639800D01*
X27560200Y23411400D02*
X27639800D01*
X27584400Y23335200D02*
Y23414800D01*
X27609800Y23335200D02*
Y23414800D01*
X27635200Y23335200D02*
Y23414800D01*
X27360200D02*
X27439800D01*
Y23335200*
X27360200*
Y23414800*
Y23335200D02*
X27439800D01*
X27360200Y23360600D02*
X27439800D01*
X27360200Y23386000D02*
X27439800D01*
X27360200Y23411400D02*
X27439800D01*
X27381200Y23335200D02*
Y23414800D01*
X27406600Y23335200D02*
Y23414800D01*
X27432000Y23335200D02*
Y23414800D01*
X30144800Y20314800D02*
Y20235200D01*
X30065200*
Y20314800*
X30144800*
X30065200Y20235200D02*
X30144800D01*
X30065200Y20260600D02*
X30144800D01*
X30065200Y20286000D02*
X30144800D01*
X30065200Y20311400D02*
X30144800D01*
X30073600Y20235200D02*
Y20314800D01*
X30099000Y20235200D02*
Y20314800D01*
X30124400Y20235200D02*
Y20314800D01*
X30144800Y20035200D02*
Y20114800D01*
X30065200*
Y20035200*
X30144800*
X30065200D02*
X30144800D01*
X30065200Y20060600D02*
X30144800D01*
X30065200Y20086000D02*
X30144800D01*
X30065200Y20111400D02*
X30144800D01*
X30073600Y20035200D02*
Y20114800D01*
X30099000Y20035200D02*
Y20114800D01*
X30124400Y20035200D02*
Y20114800D01*
X26247700Y22027300D02*
X26389800D01*
Y21872700*
X26247700*
Y22027300*
Y21872700D02*
X26389800D01*
X26247700Y21898100D02*
X26389800D01*
X26247700Y21923500D02*
X26389800D01*
X26247700Y21948900D02*
X26389800D01*
X26247700Y21974300D02*
X26389800D01*
X26247700Y21999700D02*
X26389800D01*
X26247700Y22025100D02*
X26389800D01*
X26263600Y21872700D02*
Y22027300D01*
X26289000Y21872700D02*
Y22027300D01*
X26314400Y21872700D02*
Y22027300D01*
X26339800Y21872700D02*
Y22027300D01*
X26365200Y21872700D02*
Y22027300D01*
X26510200D02*
X26664800D01*
Y21872700*
X26510200*
Y22027300*
Y21872700D02*
X26664800D01*
X26510200Y21898100D02*
X26664800D01*
X26510200Y21923500D02*
X26664800D01*
X26510200Y21948900D02*
X26664800D01*
X26510200Y21974300D02*
X26664800D01*
X26510200Y21999700D02*
X26664800D01*
X26510200Y22025100D02*
X26664800D01*
X26517600Y21872700D02*
Y22027300D01*
X26543000Y21872700D02*
Y22027300D01*
X26568400Y21872700D02*
Y22027300D01*
X26593800Y21872700D02*
Y22027300D01*
X26619200Y21872700D02*
Y22027300D01*
X26644600Y21872700D02*
Y22027300D01*
X37235200Y17189800D02*
Y17110200D01*
X37314800*
Y17189800*
X37235200*
Y17110200D02*
X37314800D01*
X37235200Y17135600D02*
X37314800D01*
X37235200Y17161000D02*
X37314800D01*
X37235200Y17186400D02*
X37314800D01*
X37236400Y17110200D02*
Y17189800D01*
X37261800Y17110200D02*
Y17189800D01*
X37287200Y17110200D02*
Y17189800D01*
X37312600Y17110200D02*
Y17189800D01*
X37235200Y16910200D02*
Y16989800D01*
X37314800*
Y16910200*
X37235200*
X37314800*
X37235200Y16935600D02*
X37314800D01*
X37235200Y16961000D02*
X37314800D01*
X37235200Y16986400D02*
X37314800D01*
X37236400Y16910200D02*
Y16989800D01*
X37261800Y16910200D02*
Y16989800D01*
X37287200Y16910200D02*
Y16989800D01*
X37312600Y16910200D02*
Y16989800D01*
X35060200Y17114800D02*
Y17035200D01*
X35139800*
Y17114800*
X35060200*
Y17035200D02*
X35139800D01*
X35060200Y17060600D02*
X35139800D01*
X35060200Y17086000D02*
X35139800D01*
X35060200Y17111400D02*
X35139800D01*
X35077400Y17035200D02*
Y17114800D01*
X35102800Y17035200D02*
Y17114800D01*
X35128200Y17035200D02*
Y17114800D01*
X35060200Y16835200D02*
Y16914800D01*
X35139800*
Y16835200*
X35060200*
X35139800*
X35060200Y16860600D02*
X35139800D01*
X35060200Y16886000D02*
X35139800D01*
X35060200Y16911400D02*
X35139800D01*
X35077400Y16835200D02*
Y16914800D01*
X35102800Y16835200D02*
Y16914800D01*
X35128200Y16835200D02*
Y16914800D01*
X37160200Y15210200D02*
X37239800D01*
Y15289800*
X37160200*
Y15210200*
X37239800*
X37160200Y15235600D02*
X37239800D01*
X37160200Y15261000D02*
X37239800D01*
X37160200Y15286400D02*
X37239800D01*
X37160200Y15210200D02*
Y15289800D01*
X37185600Y15210200D02*
Y15289800D01*
X37211000Y15210200D02*
Y15289800D01*
X37236400Y15210200D02*
Y15289800D01*
X37439800Y15210200D02*
X37360200D01*
Y15289800*
X37439800*
Y15210200*
X37360200D02*
X37439800D01*
X37360200Y15235600D02*
X37439800D01*
X37360200Y15261000D02*
X37439800D01*
X37360200Y15286400D02*
X37439800D01*
X37363400Y15210200D02*
Y15289800D01*
X37388800Y15210200D02*
Y15289800D01*
X37414200Y15210200D02*
Y15289800D01*
X37439600Y15210200D02*
Y15289800D01*
X27494800Y19889800D02*
Y19810200D01*
X27415200*
Y19889800*
X27494800*
X27415200Y19810200D02*
X27494800D01*
X27415200Y19835600D02*
X27494800D01*
X27415200Y19861000D02*
X27494800D01*
X27415200Y19886400D02*
X27494800D01*
X27432000Y19810200D02*
Y19889800D01*
X27457400Y19810200D02*
Y19889800D01*
X27482800Y19810200D02*
Y19889800D01*
X27494800Y19610200D02*
Y19689800D01*
X27415200*
Y19610200*
X27494800*
X27415200D02*
X27494800D01*
X27415200Y19635600D02*
X27494800D01*
X27415200Y19661000D02*
X27494800D01*
X27415200Y19686400D02*
X27494800D01*
X27432000Y19610200D02*
Y19689800D01*
X27457400Y19610200D02*
Y19689800D01*
X27482800Y19610200D02*
Y19689800D01*
X39514800Y17039800D02*
Y16960200D01*
X39435200*
Y17039800*
X39514800*
X39435200Y16960200D02*
X39514800D01*
X39435200Y16985600D02*
X39514800D01*
X39435200Y17011000D02*
X39514800D01*
X39435200Y17036400D02*
X39514800D01*
X39446200Y16960200D02*
Y17039800D01*
X39471600Y16960200D02*
Y17039800D01*
X39497000Y16960200D02*
Y17039800D01*
X39514800Y16760200D02*
Y16839800D01*
X39435200*
Y16760200*
X39514800*
X39435200D02*
X39514800D01*
X39435200Y16785600D02*
X39514800D01*
X39435200Y16811000D02*
X39514800D01*
X39435200Y16836400D02*
X39514800D01*
X39446200Y16760200D02*
Y16839800D01*
X39471600Y16760200D02*
Y16839800D01*
X39497000Y16760200D02*
Y16839800D01*
X33589800Y16489800D02*
Y16410200D01*
X33510200*
Y16489800*
X33589800*
X33510200Y16410200D02*
X33589800D01*
X33510200Y16435600D02*
X33589800D01*
X33510200Y16461000D02*
X33589800D01*
X33510200Y16486400D02*
X33589800D01*
X33528000Y16410200D02*
Y16489800D01*
X33553400Y16410200D02*
Y16489800D01*
X33578800Y16410200D02*
Y16489800D01*
X33589800Y16210200D02*
Y16289800D01*
X33510200*
Y16210200*
X33589800*
X33510200D02*
X33589800D01*
X33510200Y16235600D02*
X33589800D01*
X33510200Y16261000D02*
X33589800D01*
X33510200Y16286400D02*
X33589800D01*
X33528000Y16210200D02*
Y16289800D01*
X33553400Y16210200D02*
Y16289800D01*
X33578800Y16210200D02*
Y16289800D01*
X32160200Y15960200D02*
X32239800D01*
Y16039800*
X32160200*
Y15960200*
X32239800*
X32160200Y15985600D02*
X32239800D01*
X32160200Y16011000D02*
X32239800D01*
X32160200Y16036400D02*
X32239800D01*
X32181800Y15960200D02*
Y16039800D01*
X32207200Y15960200D02*
Y16039800D01*
X32232600Y15960200D02*
Y16039800D01*
X32439800Y15960200D02*
X32360200D01*
Y16039800*
X32439800*
Y15960200*
X32360200D02*
X32439800D01*
X32360200Y15985600D02*
X32439800D01*
X32360200Y16011000D02*
X32439800D01*
X32360200Y16036400D02*
X32439800D01*
X32385000Y15960200D02*
Y16039800D01*
X32410400Y15960200D02*
Y16039800D01*
X32435800Y15960200D02*
Y16039800D01*
X38185200Y14714800D02*
Y14635200D01*
X38264800*
Y14714800*
X38185200*
Y14635200D02*
X38264800D01*
X38185200Y14660600D02*
X38264800D01*
X38185200Y14686000D02*
X38264800D01*
X38185200Y14711400D02*
X38264800D01*
X38201600Y14635200D02*
Y14714800D01*
X38227000Y14635200D02*
Y14714800D01*
X38252400Y14635200D02*
Y14714800D01*
X38185200Y14435200D02*
Y14514800D01*
X38264800*
Y14435200*
X38185200*
X38264800*
X38185200Y14460600D02*
X38264800D01*
X38185200Y14486000D02*
X38264800D01*
X38185200Y14511400D02*
X38264800D01*
X38201600Y14435200D02*
Y14514800D01*
X38227000Y14435200D02*
Y14514800D01*
X38252400Y14435200D02*
Y14514800D01*
X35335200Y15960200D02*
X35414800D01*
Y16039800*
X35335200*
Y15960200*
X35414800*
X35335200Y15985600D02*
X35414800D01*
X35335200Y16011000D02*
X35414800D01*
X35335200Y16036400D02*
X35414800D01*
X35356800Y15960200D02*
Y16039800D01*
X35382200Y15960200D02*
Y16039800D01*
X35407600Y15960200D02*
Y16039800D01*
X35614800Y15960200D02*
X35535200D01*
Y16039800*
X35614800*
Y15960200*
X35535200D02*
X35614800D01*
X35535200Y15985600D02*
X35614800D01*
X35535200Y16011000D02*
X35614800D01*
X35535200Y16036400D02*
X35614800D01*
X35560000Y15960200D02*
Y16039800D01*
X35585400Y15960200D02*
Y16039800D01*
X35610800Y15960200D02*
Y16039800D01*
X33410200Y15960200D02*
X33489800D01*
Y16039800*
X33410200*
Y15960200*
X33489800*
X33410200Y15985600D02*
X33489800D01*
X33410200Y16011000D02*
X33489800D01*
X33410200Y16036400D02*
X33489800D01*
X33426400Y15960200D02*
Y16039800D01*
X33451800Y15960200D02*
Y16039800D01*
X33477200Y15960200D02*
Y16039800D01*
X33689800Y15960200D02*
X33610200D01*
Y16039800*
X33689800*
Y15960200*
X33610200D02*
X33689800D01*
X33610200Y15985600D02*
X33689800D01*
X33610200Y16011000D02*
X33689800D01*
X33610200Y16036400D02*
X33689800D01*
X33629600Y15960200D02*
Y16039800D01*
X33655000Y15960200D02*
Y16039800D01*
X33680400Y15960200D02*
Y16039800D01*
X34060200Y16660200D02*
X34139800D01*
Y16739800*
X34060200*
Y16660200*
X34139800*
X34060200Y16685600D02*
X34139800D01*
X34060200Y16711000D02*
X34139800D01*
X34060200Y16736400D02*
X34139800D01*
X34061400Y16660200D02*
Y16739800D01*
X34086800Y16660200D02*
Y16739800D01*
X34112200Y16660200D02*
Y16739800D01*
X34137600Y16660200D02*
Y16739800D01*
X34339800Y16660200D02*
X34260200D01*
Y16739800*
X34339800*
Y16660200*
X34260200D02*
X34339800D01*
X34260200Y16685600D02*
X34339800D01*
X34260200Y16711000D02*
X34339800D01*
X34260200Y16736400D02*
X34339800D01*
X34264600Y16660200D02*
Y16739800D01*
X34290000Y16660200D02*
Y16739800D01*
X34315400Y16660200D02*
Y16739800D01*
X35985200Y17139800D02*
Y17060200D01*
X36064800*
Y17139800*
X35985200*
Y17060200D02*
X36064800D01*
X35985200Y17085600D02*
X36064800D01*
X35985200Y17111000D02*
X36064800D01*
X35985200Y17136400D02*
X36064800D01*
X35991800Y17060200D02*
Y17139800D01*
X36017200Y17060200D02*
Y17139800D01*
X36042600Y17060200D02*
Y17139800D01*
X35985200Y16860200D02*
Y16939800D01*
X36064800*
Y16860200*
X35985200*
X36064800*
X35985200Y16885600D02*
X36064800D01*
X35985200Y16911000D02*
X36064800D01*
X35985200Y16936400D02*
X36064800D01*
X35991800Y16860200D02*
Y16939800D01*
X36017200Y16860200D02*
Y16939800D01*
X36042600Y16860200D02*
Y16939800D01*
X29540200Y16310200D02*
X29619800D01*
Y16389800*
X29540200*
Y16310200*
X29619800*
X29540200Y16335600D02*
X29619800D01*
X29540200Y16361000D02*
X29619800D01*
X29540200Y16386400D02*
X29619800D01*
X29540200Y16310200D02*
Y16389800D01*
X29565600Y16310200D02*
Y16389800D01*
X29591000Y16310200D02*
Y16389800D01*
X29616400Y16310200D02*
Y16389800D01*
X29819800Y16310200D02*
X29740200D01*
Y16389800*
X29819800*
Y16310200*
X29740200D02*
X29819800D01*
X29740200Y16335600D02*
X29819800D01*
X29740200Y16361000D02*
X29819800D01*
X29740200Y16386400D02*
X29819800D01*
X29743400Y16310200D02*
Y16389800D01*
X29768800Y16310200D02*
Y16389800D01*
X29794200Y16310200D02*
Y16389800D01*
X29819600Y16310200D02*
Y16389800D01*
X39194800Y22264800D02*
X39115200D01*
Y22185200*
X39194800*
Y22264800*
X39115200Y22185200D02*
X39194800D01*
X39115200Y22210600D02*
X39194800D01*
X39115200Y22236000D02*
X39194800D01*
X39115200Y22261400D02*
X39194800D01*
X39116000Y22185200D02*
Y22264800D01*
X39141400Y22185200D02*
Y22264800D01*
X39166800Y22185200D02*
Y22264800D01*
X39192200Y22185200D02*
Y22264800D01*
X38915200D02*
X38994800D01*
Y22185200*
X38915200*
Y22264800*
Y22185200D02*
X38994800D01*
X38915200Y22210600D02*
X38994800D01*
X38915200Y22236000D02*
X38994800D01*
X38915200Y22261400D02*
X38994800D01*
X38938200Y22185200D02*
Y22264800D01*
X38963600Y22185200D02*
Y22264800D01*
X38989000Y22185200D02*
Y22264800D01*
X29394800Y20339800D02*
Y20260200D01*
X29315200*
Y20339800*
X29394800*
X29315200Y20260200D02*
X29394800D01*
X29315200Y20285600D02*
X29394800D01*
X29315200Y20311000D02*
X29394800D01*
X29315200Y20336400D02*
X29394800D01*
X29337000Y20260200D02*
Y20339800D01*
X29362400Y20260200D02*
Y20339800D01*
X29387800Y20260200D02*
Y20339800D01*
X29394800Y20060200D02*
Y20139800D01*
X29315200*
Y20060200*
X29394800*
X29315200D02*
X29394800D01*
X29315200Y20085600D02*
X29394800D01*
X29315200Y20111000D02*
X29394800D01*
X29315200Y20136400D02*
X29394800D01*
X29337000Y20060200D02*
Y20139800D01*
X29362400Y20060200D02*
Y20139800D01*
X29387800Y20060200D02*
Y20139800D01*
X38419800Y21989800D02*
X38340200D01*
Y21910200*
X38419800*
Y21989800*
X38340200Y21910200D02*
X38419800D01*
X38340200Y21935600D02*
X38419800D01*
X38340200Y21961000D02*
X38419800D01*
X38340200Y21986400D02*
X38419800D01*
X38354000Y21910200D02*
Y21989800D01*
X38379400Y21910200D02*
Y21989800D01*
X38404800Y21910200D02*
Y21989800D01*
X38140200D02*
X38219800D01*
Y21910200*
X38140200*
Y21989800*
Y21910200D02*
X38219800D01*
X38140200Y21935600D02*
X38219800D01*
X38140200Y21961000D02*
X38219800D01*
X38140200Y21986400D02*
X38219800D01*
X38150800Y21910200D02*
Y21989800D01*
X38176200Y21910200D02*
Y21989800D01*
X38201600Y21910200D02*
Y21989800D01*
X38615200Y21910200D02*
X38694800D01*
Y21989800*
X38615200*
Y21910200*
X38694800*
X38615200Y21935600D02*
X38694800D01*
X38615200Y21961000D02*
X38694800D01*
X38615200Y21986400D02*
X38694800D01*
X38633400Y21910200D02*
Y21989800D01*
X38658800Y21910200D02*
Y21989800D01*
X38684200Y21910200D02*
Y21989800D01*
X38894800Y21910200D02*
X38815200D01*
Y21989800*
X38894800*
Y21910200*
X38815200D02*
X38894800D01*
X38815200Y21935600D02*
X38894800D01*
X38815200Y21961000D02*
X38894800D01*
X38815200Y21986400D02*
X38894800D01*
X38836600Y21910200D02*
Y21989800D01*
X38862000Y21910200D02*
Y21989800D01*
X38887400Y21910200D02*
Y21989800D01*
X37594800Y21689800D02*
X37515200D01*
Y21610200*
X37594800*
Y21689800*
X37515200Y21610200D02*
X37594800D01*
X37515200Y21635600D02*
X37594800D01*
X37515200Y21661000D02*
X37594800D01*
X37515200Y21686400D02*
X37594800D01*
X37515800Y21610200D02*
Y21689800D01*
X37541200Y21610200D02*
Y21689800D01*
X37566600Y21610200D02*
Y21689800D01*
X37592000Y21610200D02*
Y21689800D01*
X37315200D02*
X37394800D01*
Y21610200*
X37315200*
Y21689800*
Y21610200D02*
X37394800D01*
X37315200Y21635600D02*
X37394800D01*
X37315200Y21661000D02*
X37394800D01*
X37315200Y21686400D02*
X37394800D01*
X37338000Y21610200D02*
Y21689800D01*
X37363400Y21610200D02*
Y21689800D01*
X37388800Y21610200D02*
Y21689800D01*
X37589800Y21464800D02*
X37510200D01*
Y21385200*
X37589800*
Y21464800*
X37510200Y21385200D02*
X37589800D01*
X37510200Y21410600D02*
X37589800D01*
X37510200Y21436000D02*
X37589800D01*
X37510200Y21461400D02*
X37589800D01*
X37515800Y21385200D02*
Y21464800D01*
X37541200Y21385200D02*
Y21464800D01*
X37566600Y21385200D02*
Y21464800D01*
X37310200D02*
X37389800D01*
Y21385200*
X37310200*
Y21464800*
Y21385200D02*
X37389800D01*
X37310200Y21410600D02*
X37389800D01*
X37310200Y21436000D02*
X37389800D01*
X37310200Y21461400D02*
X37389800D01*
X37312600Y21385200D02*
Y21464800D01*
X37338000Y21385200D02*
Y21464800D01*
X37363400Y21385200D02*
Y21464800D01*
X37388800Y21385200D02*
Y21464800D01*
X37594800Y21264800D02*
X37515200D01*
Y21185200*
X37594800*
Y21264800*
X37515200Y21185200D02*
X37594800D01*
X37515200Y21210600D02*
X37594800D01*
X37515200Y21236000D02*
X37594800D01*
X37515200Y21261400D02*
X37594800D01*
X37515800Y21185200D02*
Y21264800D01*
X37541200Y21185200D02*
Y21264800D01*
X37566600Y21185200D02*
Y21264800D01*
X37592000Y21185200D02*
Y21264800D01*
X37315200D02*
X37394800D01*
Y21185200*
X37315200*
Y21264800*
Y21185200D02*
X37394800D01*
X37315200Y21210600D02*
X37394800D01*
X37315200Y21236000D02*
X37394800D01*
X37315200Y21261400D02*
X37394800D01*
X37338000Y21185200D02*
Y21264800D01*
X37363400Y21185200D02*
Y21264800D01*
X37388800Y21185200D02*
Y21264800D01*
X37765200Y23460200D02*
X37844800D01*
Y23539800*
X37765200*
Y23460200*
X37844800*
X37765200Y23485600D02*
X37844800D01*
X37765200Y23511000D02*
X37844800D01*
X37765200Y23536400D02*
X37844800D01*
X37769800Y23460200D02*
Y23539800D01*
X37795200Y23460200D02*
Y23539800D01*
X37820600Y23460200D02*
Y23539800D01*
X38044800Y23460200D02*
X37965200D01*
Y23539800*
X38044800*
Y23460200*
X37965200D02*
X38044800D01*
X37965200Y23485600D02*
X38044800D01*
X37965200Y23511000D02*
X38044800D01*
X37965200Y23536400D02*
X38044800D01*
X37973000Y23460200D02*
Y23539800D01*
X37998400Y23460200D02*
Y23539800D01*
X38023800Y23460200D02*
Y23539800D01*
X31260200Y20735200D02*
X31339800D01*
Y20814800*
X31260200*
Y20735200*
X31339800*
X31260200Y20760600D02*
X31339800D01*
X31260200Y20786000D02*
X31339800D01*
X31260200Y20811400D02*
X31339800D01*
X31267400Y20735200D02*
Y20814800D01*
X31292800Y20735200D02*
Y20814800D01*
X31318200Y20735200D02*
Y20814800D01*
X31539800Y20735200D02*
X31460200D01*
Y20814800*
X31539800*
Y20735200*
X31460200D02*
X31539800D01*
X31460200Y20760600D02*
X31539800D01*
X31460200Y20786000D02*
X31539800D01*
X31460200Y20811400D02*
X31539800D01*
X31470600Y20735200D02*
Y20814800D01*
X31496000Y20735200D02*
Y20814800D01*
X31521400Y20735200D02*
Y20814800D01*
X31539800Y21539800D02*
X31460200D01*
Y21460200*
X31539800*
Y21539800*
X31460200Y21460200D02*
X31539800D01*
X31460200Y21485600D02*
X31539800D01*
X31460200Y21511000D02*
X31539800D01*
X31460200Y21536400D02*
X31539800D01*
X31470600Y21460200D02*
Y21539800D01*
X31496000Y21460200D02*
Y21539800D01*
X31521400Y21460200D02*
Y21539800D01*
X31260200D02*
X31339800D01*
Y21460200*
X31260200*
Y21539800*
Y21460200D02*
X31339800D01*
X31260200Y21485600D02*
X31339800D01*
X31260200Y21511000D02*
X31339800D01*
X31260200Y21536400D02*
X31339800D01*
X31267400Y21460200D02*
Y21539800D01*
X31292800Y21460200D02*
Y21539800D01*
X31318200Y21460200D02*
Y21539800D01*
X31444800Y17814800D02*
X31365200D01*
Y17735200*
X31444800*
Y17814800*
X31365200Y17735200D02*
X31444800D01*
X31365200Y17760600D02*
X31444800D01*
X31365200Y17786000D02*
X31444800D01*
X31365200Y17811400D02*
X31444800D01*
X31369000Y17735200D02*
Y17814800D01*
X31394400Y17735200D02*
Y17814800D01*
X31419800Y17735200D02*
Y17814800D01*
X31165200D02*
X31244800D01*
Y17735200*
X31165200*
Y17814800*
Y17735200D02*
X31244800D01*
X31165200Y17760600D02*
X31244800D01*
X31165200Y17786000D02*
X31244800D01*
X31165200Y17811400D02*
X31244800D01*
X31165800Y17735200D02*
Y17814800D01*
X31191200Y17735200D02*
Y17814800D01*
X31216600Y17735200D02*
Y17814800D01*
X31242000Y17735200D02*
Y17814800D01*
X30474800D02*
X30395200D01*
Y17735200*
X30474800*
Y17814800*
X30395200Y17735200D02*
X30474800D01*
X30395200Y17760600D02*
X30474800D01*
X30395200Y17786000D02*
X30474800D01*
X30395200Y17811400D02*
X30474800D01*
X30403800Y17735200D02*
Y17814800D01*
X30429200Y17735200D02*
Y17814800D01*
X30454600Y17735200D02*
Y17814800D01*
X30195200D02*
X30274800D01*
Y17735200*
X30195200*
Y17814800*
Y17735200D02*
X30274800D01*
X30195200Y17760600D02*
X30274800D01*
X30195200Y17786000D02*
X30274800D01*
X30195200Y17811400D02*
X30274800D01*
X30200600Y17735200D02*
Y17814800D01*
X30226000Y17735200D02*
Y17814800D01*
X30251400Y17735200D02*
Y17814800D01*
X29260200Y22364800D02*
Y22285200D01*
X29339800*
Y22364800*
X29260200*
Y22285200D02*
X29339800D01*
X29260200Y22310600D02*
X29339800D01*
X29260200Y22336000D02*
X29339800D01*
X29260200Y22361400D02*
X29339800D01*
X29260800Y22285200D02*
Y22364800D01*
X29286200Y22285200D02*
Y22364800D01*
X29311600Y22285200D02*
Y22364800D01*
X29337000Y22285200D02*
Y22364800D01*
X29260200Y22085200D02*
Y22164800D01*
X29339800*
Y22085200*
X29260200*
X29339800*
X29260200Y22110600D02*
X29339800D01*
X29260200Y22136000D02*
X29339800D01*
X29260200Y22161400D02*
X29339800D01*
X29260800Y22085200D02*
Y22164800D01*
X29286200Y22085200D02*
Y22164800D01*
X29311600Y22085200D02*
Y22164800D01*
X29337000Y22085200D02*
Y22164800D01*
X31265200Y22235200D02*
X31344800D01*
Y22314800*
X31265200*
Y22235200*
X31344800*
X31265200Y22260600D02*
X31344800D01*
X31265200Y22286000D02*
X31344800D01*
X31265200Y22311400D02*
X31344800D01*
X31267400Y22235200D02*
Y22314800D01*
X31292800Y22235200D02*
Y22314800D01*
X31318200Y22235200D02*
Y22314800D01*
X31343600Y22235200D02*
Y22314800D01*
X31544800Y22235200D02*
X31465200D01*
Y22314800*
X31544800*
Y22235200*
X31465200D02*
X31544800D01*
X31465200Y22260600D02*
X31544800D01*
X31465200Y22286000D02*
X31544800D01*
X31465200Y22311400D02*
X31544800D01*
X31470600Y22235200D02*
Y22314800D01*
X31496000Y22235200D02*
Y22314800D01*
X31521400Y22235200D02*
Y22314800D01*
X31265200Y21685200D02*
X31344800D01*
Y21764800*
X31265200*
Y21685200*
X31344800*
X31265200Y21710600D02*
X31344800D01*
X31265200Y21736000D02*
X31344800D01*
X31265200Y21761400D02*
X31344800D01*
X31267400Y21685200D02*
Y21764800D01*
X31292800Y21685200D02*
Y21764800D01*
X31318200Y21685200D02*
Y21764800D01*
X31343600Y21685200D02*
Y21764800D01*
X31544800Y21685200D02*
X31465200D01*
Y21764800*
X31544800*
Y21685200*
X31465200D02*
X31544800D01*
X31465200Y21710600D02*
X31544800D01*
X31465200Y21736000D02*
X31544800D01*
X31465200Y21761400D02*
X31544800D01*
X31470600Y21685200D02*
Y21764800D01*
X31496000Y21685200D02*
Y21764800D01*
X31521400Y21685200D02*
Y21764800D01*
X34914800Y22489800D02*
X34835200D01*
Y22410200*
X34914800*
Y22489800*
X34835200Y22410200D02*
X34914800D01*
X34835200Y22435600D02*
X34914800D01*
X34835200Y22461000D02*
X34914800D01*
X34835200Y22486400D02*
X34914800D01*
X34848800Y22410200D02*
Y22489800D01*
X34874200Y22410200D02*
Y22489800D01*
X34899600Y22410200D02*
Y22489800D01*
X34635200D02*
X34714800D01*
Y22410200*
X34635200*
Y22489800*
Y22410200D02*
X34714800D01*
X34635200Y22435600D02*
X34714800D01*
X34635200Y22461000D02*
X34714800D01*
X34635200Y22486400D02*
X34714800D01*
X34645600Y22410200D02*
Y22489800D01*
X34671000Y22410200D02*
Y22489800D01*
X34696400Y22410200D02*
Y22489800D01*
X33335200Y23339800D02*
Y23260200D01*
X33414800*
Y23339800*
X33335200*
Y23260200D02*
X33414800D01*
X33335200Y23285600D02*
X33414800D01*
X33335200Y23311000D02*
X33414800D01*
X33335200Y23336400D02*
X33414800D01*
X33350200Y23260200D02*
Y23339800D01*
X33375600Y23260200D02*
Y23339800D01*
X33401000Y23260200D02*
Y23339800D01*
X33335200Y23060200D02*
Y23139800D01*
X33414800*
Y23060200*
X33335200*
X33414800*
X33335200Y23085600D02*
X33414800D01*
X33335200Y23111000D02*
X33414800D01*
X33335200Y23136400D02*
X33414800D01*
X33350200Y23060200D02*
Y23139800D01*
X33375600Y23060200D02*
Y23139800D01*
X33401000Y23060200D02*
Y23139800D01*
X31739800Y19864800D02*
Y19785200D01*
X31660200*
Y19864800*
X31739800*
X31660200Y19785200D02*
X31739800D01*
X31660200Y19810600D02*
X31739800D01*
X31660200Y19836000D02*
X31739800D01*
X31660200Y19861400D02*
X31739800D01*
X31673800Y19785200D02*
Y19864800D01*
X31699200Y19785200D02*
Y19864800D01*
X31724600Y19785200D02*
Y19864800D01*
X31739800Y19585200D02*
Y19664800D01*
X31660200*
Y19585200*
X31739800*
X31660200D02*
X31739800D01*
X31660200Y19610600D02*
X31739800D01*
X31660200Y19636000D02*
X31739800D01*
X31660200Y19661400D02*
X31739800D01*
X31673800Y19585200D02*
Y19664800D01*
X31699200Y19585200D02*
Y19664800D01*
X31724600Y19585200D02*
Y19664800D01*
X33114800Y19864800D02*
Y19785200D01*
X33035200*
Y19864800*
X33114800*
X33035200Y19785200D02*
X33114800D01*
X33035200Y19810600D02*
X33114800D01*
X33035200Y19836000D02*
X33114800D01*
X33035200Y19861400D02*
X33114800D01*
X33045400Y19785200D02*
Y19864800D01*
X33070800Y19785200D02*
Y19864800D01*
X33096200Y19785200D02*
Y19864800D01*
X33114800Y19585200D02*
Y19664800D01*
X33035200*
Y19585200*
X33114800*
X33035200D02*
X33114800D01*
X33035200Y19610600D02*
X33114800D01*
X33035200Y19636000D02*
X33114800D01*
X33035200Y19661400D02*
X33114800D01*
X33045400Y19585200D02*
Y19664800D01*
X33070800Y19585200D02*
Y19664800D01*
X33096200Y19585200D02*
Y19664800D01*
X34914800Y22289800D02*
X34835200D01*
Y22210200*
X34914800*
Y22289800*
X34835200Y22210200D02*
X34914800D01*
X34835200Y22235600D02*
X34914800D01*
X34835200Y22261000D02*
X34914800D01*
X34835200Y22286400D02*
X34914800D01*
X34848800Y22210200D02*
Y22289800D01*
X34874200Y22210200D02*
Y22289800D01*
X34899600Y22210200D02*
Y22289800D01*
X34635200D02*
X34714800D01*
Y22210200*
X34635200*
Y22289800*
Y22210200D02*
X34714800D01*
X34635200Y22235600D02*
X34714800D01*
X34635200Y22261000D02*
X34714800D01*
X34635200Y22286400D02*
X34714800D01*
X34645600Y22210200D02*
Y22289800D01*
X34671000Y22210200D02*
Y22289800D01*
X34696400Y22210200D02*
Y22289800D01*
X33964800Y19864800D02*
Y19785200D01*
X33885200*
Y19864800*
X33964800*
X33885200Y19785200D02*
X33964800D01*
X33885200Y19810600D02*
X33964800D01*
X33885200Y19836000D02*
X33964800D01*
X33885200Y19861400D02*
X33964800D01*
X33909000Y19785200D02*
Y19864800D01*
X33934400Y19785200D02*
Y19864800D01*
X33959800Y19785200D02*
Y19864800D01*
X33964800Y19585200D02*
Y19664800D01*
X33885200*
Y19585200*
X33964800*
X33885200D02*
X33964800D01*
X33885200Y19610600D02*
X33964800D01*
X33885200Y19636000D02*
X33964800D01*
X33885200Y19661400D02*
X33964800D01*
X33909000Y19585200D02*
Y19664800D01*
X33934400Y19585200D02*
Y19664800D01*
X33959800Y19585200D02*
Y19664800D01*
X37505200Y20484800D02*
Y20405200D01*
X37584800*
Y20484800*
X37505200*
Y20405200D02*
X37584800D01*
X37505200Y20430600D02*
X37584800D01*
X37505200Y20456000D02*
X37584800D01*
X37505200Y20481400D02*
X37584800D01*
X37515800Y20405200D02*
Y20484800D01*
X37541200Y20405200D02*
Y20484800D01*
X37566600Y20405200D02*
Y20484800D01*
X37505200Y20205200D02*
Y20284800D01*
X37584800*
Y20205200*
X37505200*
X37584800*
X37505200Y20230600D02*
X37584800D01*
X37505200Y20256000D02*
X37584800D01*
X37505200Y20281400D02*
X37584800D01*
X37515800Y20205200D02*
Y20284800D01*
X37541200Y20205200D02*
Y20284800D01*
X37566600Y20205200D02*
Y20284800D01*
X29635200Y22364800D02*
Y22285200D01*
X29714800*
Y22364800*
X29635200*
Y22285200D02*
X29714800D01*
X29635200Y22310600D02*
X29714800D01*
X29635200Y22336000D02*
X29714800D01*
X29635200Y22361400D02*
X29714800D01*
X29641800Y22285200D02*
Y22364800D01*
X29667200Y22285200D02*
Y22364800D01*
X29692600Y22285200D02*
Y22364800D01*
X29635200Y22085200D02*
Y22164800D01*
X29714800*
Y22085200*
X29635200*
X29714800*
X29635200Y22110600D02*
X29714800D01*
X29635200Y22136000D02*
X29714800D01*
X29635200Y22161400D02*
X29714800D01*
X29641800Y22085200D02*
Y22164800D01*
X29667200Y22085200D02*
Y22164800D01*
X29692600Y22085200D02*
Y22164800D01*
X29194800Y20339800D02*
Y20260200D01*
X29115200*
Y20339800*
X29194800*
X29115200Y20260200D02*
X29194800D01*
X29115200Y20285600D02*
X29194800D01*
X29115200Y20311000D02*
X29194800D01*
X29115200Y20336400D02*
X29194800D01*
X29133800Y20260200D02*
Y20339800D01*
X29159200Y20260200D02*
Y20339800D01*
X29184600Y20260200D02*
Y20339800D01*
X29194800Y20060200D02*
Y20139800D01*
X29115200*
Y20060200*
X29194800*
X29115200D02*
X29194800D01*
X29115200Y20085600D02*
X29194800D01*
X29115200Y20111000D02*
X29194800D01*
X29115200Y20136400D02*
X29194800D01*
X29133800Y20060200D02*
Y20139800D01*
X29159200Y20060200D02*
Y20139800D01*
X29184600Y20060200D02*
Y20139800D01*
X28265200Y21460200D02*
X28344800D01*
Y21539800*
X28265200*
Y21460200*
X28344800*
X28265200Y21485600D02*
X28344800D01*
X28265200Y21511000D02*
X28344800D01*
X28265200Y21536400D02*
X28344800D01*
X28270200Y21460200D02*
Y21539800D01*
X28295600Y21460200D02*
Y21539800D01*
X28321000Y21460200D02*
Y21539800D01*
X28544800Y21460200D02*
X28465200D01*
Y21539800*
X28544800*
Y21460200*
X28465200D02*
X28544800D01*
X28465200Y21485600D02*
X28544800D01*
X28465200Y21511000D02*
X28544800D01*
X28465200Y21536400D02*
X28544800D01*
X28473400Y21460200D02*
Y21539800D01*
X28498800Y21460200D02*
Y21539800D01*
X28524200Y21460200D02*
Y21539800D01*
X28164800Y22614800D02*
X28085200D01*
Y22535200*
X28164800*
Y22614800*
X28085200Y22535200D02*
X28164800D01*
X28085200Y22560600D02*
X28164800D01*
X28085200Y22586000D02*
X28164800D01*
X28085200Y22611400D02*
X28164800D01*
X28092400Y22535200D02*
Y22614800D01*
X28117800Y22535200D02*
Y22614800D01*
X28143200Y22535200D02*
Y22614800D01*
X27885200D02*
X27964800D01*
Y22535200*
X27885200*
Y22614800*
Y22535200D02*
X27964800D01*
X27885200Y22560600D02*
X27964800D01*
X27885200Y22586000D02*
X27964800D01*
X27885200Y22611400D02*
X27964800D01*
X27889200Y22535200D02*
Y22614800D01*
X27914600Y22535200D02*
Y22614800D01*
X27940000Y22535200D02*
Y22614800D01*
X28164800Y23014800D02*
X28085200D01*
Y22935200*
X28164800*
Y23014800*
X28085200Y22935200D02*
X28164800D01*
X28085200Y22960600D02*
X28164800D01*
X28085200Y22986000D02*
X28164800D01*
X28085200Y23011400D02*
X28164800D01*
X28092400Y22935200D02*
Y23014800D01*
X28117800Y22935200D02*
Y23014800D01*
X28143200Y22935200D02*
Y23014800D01*
X27885200D02*
X27964800D01*
Y22935200*
X27885200*
Y23014800*
Y22935200D02*
X27964800D01*
X27885200Y22960600D02*
X27964800D01*
X27885200Y22986000D02*
X27964800D01*
X27885200Y23011400D02*
X27964800D01*
X27889200Y22935200D02*
Y23014800D01*
X27914600Y22935200D02*
Y23014800D01*
X27940000Y22935200D02*
Y23014800D01*
X27252100Y21264800D02*
Y21235600D01*
X27307900*
Y21264800*
X27252100*
Y21235600D02*
X27307900D01*
X27252100Y21261000D02*
X27307900D01*
X27254200Y21235600D02*
Y21264800D01*
X27279600Y21235600D02*
Y21264800D01*
X27305000Y21235600D02*
Y21264800D01*
X27252100Y21135200D02*
Y21164400D01*
X27307900*
Y21135200*
X27252100*
X27307900*
X27252100Y21160600D02*
X27307900D01*
X27254200Y21135200D02*
Y21164400D01*
X27279600Y21135200D02*
Y21164400D01*
X27305000Y21135200D02*
Y21164400D01*
X38702100Y22989800D02*
Y22960600D01*
X38757900*
Y22989800*
X38702100*
Y22960600D02*
X38757900D01*
X38702100Y22986000D02*
X38757900D01*
X38709600Y22960600D02*
Y22989800D01*
X38735000Y22960600D02*
Y22989800D01*
X38702100Y22860200D02*
Y22889400D01*
X38757900*
Y22860200*
X38702100*
X38757900*
X38702100Y22885600D02*
X38757900D01*
X38709600Y22860200D02*
Y22889400D01*
X38735000Y22860200D02*
Y22889400D01*
X27402100Y21264800D02*
Y21235600D01*
X27457900*
Y21264800*
X27402100*
Y21235600D02*
X27457900D01*
X27402100Y21261000D02*
X27457900D01*
X27406600Y21235600D02*
Y21264800D01*
X27432000Y21235600D02*
Y21264800D01*
X27457400Y21235600D02*
Y21264800D01*
X27402100Y21135200D02*
Y21164400D01*
X27457900*
Y21135200*
X27402100*
X27457900*
X27402100Y21160600D02*
X27457900D01*
X27406600Y21135200D02*
Y21164400D01*
X27432000Y21135200D02*
Y21164400D01*
X27457400Y21135200D02*
Y21164400D01*
X36260200Y17364800D02*
Y17160200D01*
X36489800*
Y17364800*
X36260200*
Y17160200D02*
X36489800D01*
X36260200Y17185600D02*
X36489800D01*
X36260200Y17211000D02*
X36489800D01*
X36260200Y17236400D02*
X36489800D01*
X36260200Y17261800D02*
X36489800D01*
X36260200Y17287200D02*
X36489800D01*
X36260200Y17312600D02*
X36489800D01*
X36260200Y17338000D02*
X36489800D01*
X36260200Y17363400D02*
X36489800D01*
X36271200Y17160200D02*
Y17364800D01*
X36296600Y17160200D02*
Y17364800D01*
X36322000Y17160200D02*
Y17364800D01*
X36347400Y17160200D02*
Y17364800D01*
X36372800Y17160200D02*
Y17364800D01*
X36398200Y17160200D02*
Y17364800D01*
X36423600Y17160200D02*
Y17364800D01*
X36449000Y17160200D02*
Y17364800D01*
X36474400Y17160200D02*
Y17364800D01*
X36260200Y16735200D02*
Y16939800D01*
X36489800*
Y16735200*
X36260200*
X36489800*
X36260200Y16760600D02*
X36489800D01*
X36260200Y16786000D02*
X36489800D01*
X36260200Y16811400D02*
X36489800D01*
X36260200Y16836800D02*
X36489800D01*
X36260200Y16862200D02*
X36489800D01*
X36260200Y16887600D02*
X36489800D01*
X36260200Y16913000D02*
X36489800D01*
X36260200Y16938400D02*
X36489800D01*
X36271200Y16735200D02*
Y16939800D01*
X36296600Y16735200D02*
Y16939800D01*
X36322000Y16735200D02*
Y16939800D01*
X36347400Y16735200D02*
Y16939800D01*
X36372800Y16735200D02*
Y16939800D01*
X36398200Y16735200D02*
Y16939800D01*
X36423600Y16735200D02*
Y16939800D01*
X36449000Y16735200D02*
Y16939800D01*
X36474400Y16735200D02*
Y16939800D01*
X35064800Y15935200D02*
Y16139800D01*
X34835200*
Y15935200*
X35064800*
X34835200D02*
X35064800D01*
X34835200Y15960600D02*
X35064800D01*
X34835200Y15986000D02*
X35064800D01*
X34835200Y16011400D02*
X35064800D01*
X34835200Y16036800D02*
X35064800D01*
X34835200Y16062200D02*
X35064800D01*
X34835200Y16087600D02*
X35064800D01*
X34835200Y16113000D02*
X35064800D01*
X34835200Y16138400D02*
X35064800D01*
X34848800Y15935200D02*
Y16139800D01*
X34874200Y15935200D02*
Y16139800D01*
X34899600Y15935200D02*
Y16139800D01*
X34925000Y15935200D02*
Y16139800D01*
X34950400Y15935200D02*
Y16139800D01*
X34975800Y15935200D02*
Y16139800D01*
X35001200Y15935200D02*
Y16139800D01*
X35026600Y15935200D02*
Y16139800D01*
X35052000Y15935200D02*
Y16139800D01*
X35064800Y16564800D02*
Y16360200D01*
X34835200*
Y16564800*
X35064800*
X34835200Y16360200D02*
X35064800D01*
X34835200Y16385600D02*
X35064800D01*
X34835200Y16411000D02*
X35064800D01*
X34835200Y16436400D02*
X35064800D01*
X34835200Y16461800D02*
X35064800D01*
X34835200Y16487200D02*
X35064800D01*
X34835200Y16512600D02*
X35064800D01*
X34835200Y16538000D02*
X35064800D01*
X34835200Y16563400D02*
X35064800D01*
X34848800Y16360200D02*
Y16564800D01*
X34874200Y16360200D02*
Y16564800D01*
X34899600Y16360200D02*
Y16564800D01*
X34925000Y16360200D02*
Y16564800D01*
X34950400Y16360200D02*
Y16564800D01*
X34975800Y16360200D02*
Y16564800D01*
X35001200Y16360200D02*
Y16564800D01*
X35026600Y16360200D02*
Y16564800D01*
X35052000Y16360200D02*
Y16564800D01*
X38397100Y14639800D02*
Y14610600D01*
X38452900*
Y14639800*
X38397100*
Y14610600D02*
X38452900D01*
X38397100Y14636000D02*
X38452900D01*
X38404800Y14610600D02*
Y14639800D01*
X38430200Y14610600D02*
Y14639800D01*
X38397100Y14510200D02*
Y14539400D01*
X38452900*
Y14510200*
X38397100*
X38452900*
X38397100Y14535600D02*
X38452900D01*
X38404800Y14510200D02*
Y14539400D01*
X38430200Y14510200D02*
Y14539400D01*
X27279800Y16460200D02*
Y16614800D01*
X27100200*
Y16460200*
X27279800*
X27100200D02*
X27279800D01*
X27100200Y16485600D02*
X27279800D01*
X27100200Y16511000D02*
X27279800D01*
X27100200Y16536400D02*
X27279800D01*
X27100200Y16561800D02*
X27279800D01*
X27100200Y16587200D02*
X27279800D01*
X27100200Y16612600D02*
X27279800D01*
X27101800Y16460200D02*
Y16614800D01*
X27127200Y16460200D02*
Y16614800D01*
X27152600Y16460200D02*
Y16614800D01*
X27178000Y16460200D02*
Y16614800D01*
X27203400Y16460200D02*
Y16614800D01*
X27228800Y16460200D02*
Y16614800D01*
X27254200Y16460200D02*
Y16614800D01*
X27279600Y16460200D02*
Y16614800D01*
X27279800Y17039800D02*
Y16885200D01*
X27100200*
Y17039800*
X27279800*
X27100200Y16885200D02*
X27279800D01*
X27100200Y16910600D02*
X27279800D01*
X27100200Y16936000D02*
X27279800D01*
X27100200Y16961400D02*
X27279800D01*
X27100200Y16986800D02*
X27279800D01*
X27100200Y17012200D02*
X27279800D01*
X27100200Y17037600D02*
X27279800D01*
X27101800Y16885200D02*
Y17039800D01*
X27127200Y16885200D02*
Y17039800D01*
X27152600Y16885200D02*
Y17039800D01*
X27178000Y16885200D02*
Y17039800D01*
X27203400Y16885200D02*
Y17039800D01*
X27228800Y16885200D02*
Y17039800D01*
X27254200Y16885200D02*
Y17039800D01*
X27279600Y16885200D02*
Y17039800D01*
X27279800Y15385200D02*
Y15539800D01*
X27100200*
Y15385200*
X27279800*
X27100200D02*
X27279800D01*
X27100200Y15410600D02*
X27279800D01*
X27100200Y15436000D02*
X27279800D01*
X27100200Y15461400D02*
X27279800D01*
X27100200Y15486800D02*
X27279800D01*
X27100200Y15512200D02*
X27279800D01*
X27100200Y15537600D02*
X27279800D01*
X27101800Y15385200D02*
Y15539800D01*
X27127200Y15385200D02*
Y15539800D01*
X27152600Y15385200D02*
Y15539800D01*
X27178000Y15385200D02*
Y15539800D01*
X27203400Y15385200D02*
Y15539800D01*
X27228800Y15385200D02*
Y15539800D01*
X27254200Y15385200D02*
Y15539800D01*
X27279600Y15385200D02*
Y15539800D01*
X27279800Y15964800D02*
Y15810200D01*
X27100200*
Y15964800*
X27279800*
X27100200Y15810200D02*
X27279800D01*
X27100200Y15835600D02*
X27279800D01*
X27100200Y15861000D02*
X27279800D01*
X27100200Y15886400D02*
X27279800D01*
X27100200Y15911800D02*
X27279800D01*
X27100200Y15937200D02*
X27279800D01*
X27100200Y15962600D02*
X27279800D01*
X27101800Y15810200D02*
Y15964800D01*
X27127200Y15810200D02*
Y15964800D01*
X27152600Y15810200D02*
Y15964800D01*
X27178000Y15810200D02*
Y15964800D01*
X27203400Y15810200D02*
Y15964800D01*
X27228800Y15810200D02*
Y15964800D01*
X27254200Y15810200D02*
Y15964800D01*
X27279600Y15810200D02*
Y15964800D01*
X38757900Y23160200D02*
Y23189400D01*
X38702100*
Y23160200*
X38757900*
X38702100D02*
X38757900D01*
X38702100Y23185600D02*
X38757900D01*
X38709600Y23160200D02*
Y23189400D01*
X38735000Y23160200D02*
Y23189400D01*
X38757900Y23289800D02*
Y23260600D01*
X38702100*
Y23289800*
X38757900*
X38702100Y23260600D02*
X38757900D01*
X38702100Y23286000D02*
X38757900D01*
X38709600Y23260600D02*
Y23289800D01*
X38735000Y23260600D02*
Y23289800D01*
X38110200Y15635200D02*
X38439800D01*
Y15814800*
X38110200*
Y15635200*
X38439800*
X38110200Y15660600D02*
X38439800D01*
X38110200Y15686000D02*
X38439800D01*
X38110200Y15711400D02*
X38439800D01*
X38110200Y15736800D02*
X38439800D01*
X38110200Y15762200D02*
X38439800D01*
X38110200Y15787600D02*
X38439800D01*
X38110200Y15813000D02*
X38439800D01*
X38125400Y15635200D02*
Y15814800D01*
X38150800Y15635200D02*
Y15814800D01*
X38176200Y15635200D02*
Y15814800D01*
X38201600Y15635200D02*
Y15814800D01*
X38227000Y15635200D02*
Y15814800D01*
X38252400Y15635200D02*
Y15814800D01*
X38277800Y15635200D02*
Y15814800D01*
X38303200Y15635200D02*
Y15814800D01*
X38328600Y15635200D02*
Y15814800D01*
X38354000Y15635200D02*
Y15814800D01*
X38379400Y15635200D02*
Y15814800D01*
X38404800Y15635200D02*
Y15814800D01*
X38430200Y15635200D02*
Y15814800D01*
X39289800Y15635200D02*
X38960200D01*
Y15814800*
X39289800*
Y15635200*
X38960200D02*
X39289800D01*
X38960200Y15660600D02*
X39289800D01*
X38960200Y15686000D02*
X39289800D01*
X38960200Y15711400D02*
X39289800D01*
X38960200Y15736800D02*
X39289800D01*
X38960200Y15762200D02*
X39289800D01*
X38960200Y15787600D02*
X39289800D01*
X38960200Y15813000D02*
X39289800D01*
X38963600Y15635200D02*
Y15814800D01*
X38989000Y15635200D02*
Y15814800D01*
X39014400Y15635200D02*
Y15814800D01*
X39039800Y15635200D02*
Y15814800D01*
X39065200Y15635200D02*
Y15814800D01*
X39090600Y15635200D02*
Y15814800D01*
X39116000Y15635200D02*
Y15814800D01*
X39141400Y15635200D02*
Y15814800D01*
X39166800Y15635200D02*
Y15814800D01*
X39192200Y15635200D02*
Y15814800D01*
X39217600Y15635200D02*
Y15814800D01*
X39243000Y15635200D02*
Y15814800D01*
X39268400Y15635200D02*
Y15814800D01*
X38935200Y17239800D02*
Y17060200D01*
X39014800*
Y17239800*
X38935200*
Y17060200D02*
X39014800D01*
X38935200Y17085600D02*
X39014800D01*
X38935200Y17111000D02*
X39014800D01*
X38935200Y17136400D02*
X39014800D01*
X38935200Y17161800D02*
X39014800D01*
X38935200Y17187200D02*
X39014800D01*
X38935200Y17212600D02*
X39014800D01*
X38935200Y17238000D02*
X39014800D01*
X38938200Y17060200D02*
Y17239800D01*
X38963600Y17060200D02*
Y17239800D01*
X38989000Y17060200D02*
Y17239800D01*
X39014400Y17060200D02*
Y17239800D01*
X38935200Y16560200D02*
Y16739800D01*
X39014800*
Y16560200*
X38935200*
X39014800*
X38935200Y16585600D02*
X39014800D01*
X38935200Y16611000D02*
X39014800D01*
X38935200Y16636400D02*
X39014800D01*
X38935200Y16661800D02*
X39014800D01*
X38935200Y16687200D02*
X39014800D01*
X38935200Y16712600D02*
X39014800D01*
X38935200Y16738000D02*
X39014800D01*
X38938200Y16560200D02*
Y16739800D01*
X38963600Y16560200D02*
Y16739800D01*
X38989000Y16560200D02*
Y16739800D01*
X39014400Y16560200D02*
Y16739800D01*
X33539800Y17339800D02*
X33210200D01*
Y17160200*
X33539800*
Y17339800*
X33210200Y17160200D02*
X33539800D01*
X33210200Y17185600D02*
X33539800D01*
X33210200Y17211000D02*
X33539800D01*
X33210200Y17236400D02*
X33539800D01*
X33210200Y17261800D02*
X33539800D01*
X33210200Y17287200D02*
X33539800D01*
X33210200Y17312600D02*
X33539800D01*
X33210200Y17338000D02*
X33539800D01*
X33223200Y17160200D02*
Y17339800D01*
X33248600Y17160200D02*
Y17339800D01*
X33274000Y17160200D02*
Y17339800D01*
X33299400Y17160200D02*
Y17339800D01*
X33324800Y17160200D02*
Y17339800D01*
X33350200Y17160200D02*
Y17339800D01*
X33375600Y17160200D02*
Y17339800D01*
X33401000Y17160200D02*
Y17339800D01*
X33426400Y17160200D02*
Y17339800D01*
X33451800Y17160200D02*
Y17339800D01*
X33477200Y17160200D02*
Y17339800D01*
X33502600Y17160200D02*
Y17339800D01*
X33528000Y17160200D02*
Y17339800D01*
X32360200D02*
X32689800D01*
Y17160200*
X32360200*
Y17339800*
Y17160200D02*
X32689800D01*
X32360200Y17185600D02*
X32689800D01*
X32360200Y17211000D02*
X32689800D01*
X32360200Y17236400D02*
X32689800D01*
X32360200Y17261800D02*
X32689800D01*
X32360200Y17287200D02*
X32689800D01*
X32360200Y17312600D02*
X32689800D01*
X32360200Y17338000D02*
X32689800D01*
X32385000Y17160200D02*
Y17339800D01*
X32410400Y17160200D02*
Y17339800D01*
X32435800Y17160200D02*
Y17339800D01*
X32461200Y17160200D02*
Y17339800D01*
X32486600Y17160200D02*
Y17339800D01*
X32512000Y17160200D02*
Y17339800D01*
X32537400Y17160200D02*
Y17339800D01*
X32562800Y17160200D02*
Y17339800D01*
X32588200Y17160200D02*
Y17339800D01*
X32613600Y17160200D02*
Y17339800D01*
X32639000Y17160200D02*
Y17339800D01*
X32664400Y17160200D02*
Y17339800D01*
X32689800Y17160200D02*
Y17339800D01*
X32839800Y15539800D02*
X32660200D01*
Y15460200*
X32839800*
Y15539800*
X32660200Y15460200D02*
X32839800D01*
X32660200Y15485600D02*
X32839800D01*
X32660200Y15511000D02*
X32839800D01*
X32660200Y15536400D02*
X32839800D01*
X32664400Y15460200D02*
Y15539800D01*
X32689800Y15460200D02*
Y15539800D01*
X32715200Y15460200D02*
Y15539800D01*
X32740600Y15460200D02*
Y15539800D01*
X32766000Y15460200D02*
Y15539800D01*
X32791400Y15460200D02*
Y15539800D01*
X32816800Y15460200D02*
Y15539800D01*
X32160200D02*
X32339800D01*
Y15460200*
X32160200*
Y15539800*
Y15460200D02*
X32339800D01*
X32160200Y15485600D02*
X32339800D01*
X32160200Y15511000D02*
X32339800D01*
X32160200Y15536400D02*
X32339800D01*
X32181800Y15460200D02*
Y15539800D01*
X32207200Y15460200D02*
Y15539800D01*
X32232600Y15460200D02*
Y15539800D01*
X32258000Y15460200D02*
Y15539800D01*
X32283400Y15460200D02*
Y15539800D01*
X32308800Y15460200D02*
Y15539800D01*
X32334200Y15460200D02*
Y15539800D01*
X35814800D02*
X35635200D01*
Y15460200*
X35814800*
Y15539800*
X35635200Y15460200D02*
X35814800D01*
X35635200Y15485600D02*
X35814800D01*
X35635200Y15511000D02*
X35814800D01*
X35635200Y15536400D02*
X35814800D01*
X35636200Y15460200D02*
Y15539800D01*
X35661600Y15460200D02*
Y15539800D01*
X35687000Y15460200D02*
Y15539800D01*
X35712400Y15460200D02*
Y15539800D01*
X35737800Y15460200D02*
Y15539800D01*
X35763200Y15460200D02*
Y15539800D01*
X35788600Y15460200D02*
Y15539800D01*
X35814000Y15460200D02*
Y15539800D01*
X35135200D02*
X35314800D01*
Y15460200*
X35135200*
Y15539800*
Y15460200D02*
X35314800D01*
X35135200Y15485600D02*
X35314800D01*
X35135200Y15511000D02*
X35314800D01*
X35135200Y15536400D02*
X35314800D01*
X35153600Y15460200D02*
Y15539800D01*
X35179000Y15460200D02*
Y15539800D01*
X35204400Y15460200D02*
Y15539800D01*
X35229800Y15460200D02*
Y15539800D01*
X35255200Y15460200D02*
Y15539800D01*
X35280600Y15460200D02*
Y15539800D01*
X35306000Y15460200D02*
Y15539800D01*
X33889800D02*
X33710200D01*
Y15460200*
X33889800*
Y15539800*
X33710200Y15460200D02*
X33889800D01*
X33710200Y15485600D02*
X33889800D01*
X33710200Y15511000D02*
X33889800D01*
X33710200Y15536400D02*
X33889800D01*
X33731200Y15460200D02*
Y15539800D01*
X33756600Y15460200D02*
Y15539800D01*
X33782000Y15460200D02*
Y15539800D01*
X33807400Y15460200D02*
Y15539800D01*
X33832800Y15460200D02*
Y15539800D01*
X33858200Y15460200D02*
Y15539800D01*
X33883600Y15460200D02*
Y15539800D01*
X33210200D02*
X33389800D01*
Y15460200*
X33210200*
Y15539800*
Y15460200D02*
X33389800D01*
X33210200Y15485600D02*
X33389800D01*
X33210200Y15511000D02*
X33389800D01*
X33210200Y15536400D02*
X33389800D01*
X33223200Y15460200D02*
Y15539800D01*
X33248600Y15460200D02*
Y15539800D01*
X33274000Y15460200D02*
Y15539800D01*
X33299400Y15460200D02*
Y15539800D01*
X33324800Y15460200D02*
Y15539800D01*
X33350200Y15460200D02*
Y15539800D01*
X33375600Y15460200D02*
Y15539800D01*
X33435200Y19385200D02*
Y19514800D01*
X33514800*
Y19385200*
X33435200*
X33514800*
X33435200Y19410600D02*
X33514800D01*
X33435200Y19436000D02*
X33514800D01*
X33435200Y19461400D02*
X33514800D01*
X33435200Y19486800D02*
X33514800D01*
X33435200Y19512200D02*
X33514800D01*
X33451800Y19385200D02*
Y19514800D01*
X33477200Y19385200D02*
Y19514800D01*
X33502600Y19385200D02*
Y19514800D01*
X33435200Y19864800D02*
Y19735200D01*
X33514800*
Y19864800*
X33435200*
Y19735200D02*
X33514800D01*
X33435200Y19760600D02*
X33514800D01*
X33435200Y19786000D02*
X33514800D01*
X33435200Y19811400D02*
X33514800D01*
X33435200Y19836800D02*
X33514800D01*
X33435200Y19862200D02*
X33514800D01*
X33451800Y19735200D02*
Y19864800D01*
X33477200Y19735200D02*
Y19864800D01*
X33502600Y19735200D02*
Y19864800D01*
X32085200Y19385200D02*
Y19514800D01*
X32164800*
Y19385200*
X32085200*
X32164800*
X32085200Y19410600D02*
X32164800D01*
X32085200Y19436000D02*
X32164800D01*
X32085200Y19461400D02*
X32164800D01*
X32085200Y19486800D02*
X32164800D01*
X32085200Y19512200D02*
X32164800D01*
X32105600Y19385200D02*
Y19514800D01*
X32131000Y19385200D02*
Y19514800D01*
X32156400Y19385200D02*
Y19514800D01*
X32085200Y19864800D02*
Y19735200D01*
X32164800*
Y19864800*
X32085200*
Y19735200D02*
X32164800D01*
X32085200Y19760600D02*
X32164800D01*
X32085200Y19786000D02*
X32164800D01*
X32085200Y19811400D02*
X32164800D01*
X32085200Y19836800D02*
X32164800D01*
X32085200Y19862200D02*
X32164800D01*
X32105600Y19735200D02*
Y19864800D01*
X32131000Y19735200D02*
Y19864800D01*
X32156400Y19735200D02*
Y19864800D01*
X29004800Y16514800D02*
Y16435200D01*
X28912700*
Y16514800*
X29004800*
X28912700Y16435200D02*
X29004800D01*
X28912700Y16460600D02*
X29004800D01*
X28912700Y16486000D02*
X29004800D01*
X28912700Y16511400D02*
X29004800D01*
X28930600Y16435200D02*
Y16514800D01*
X28956000Y16435200D02*
Y16514800D01*
X28981400Y16435200D02*
Y16514800D01*
X28779000Y16604500D02*
Y16523300D01*
X28710500*
Y16604500*
X28779000*
X28710500Y16523300D02*
X28779000D01*
X28710500Y16548700D02*
X28779000D01*
X28710500Y16574100D02*
X28779000D01*
X28710500Y16599500D02*
X28779000D01*
X28727400Y16523300D02*
Y16604500D01*
X28752800Y16523300D02*
Y16604500D01*
X28778200Y16523300D02*
Y16604500D01*
X28779000Y16426700D02*
Y16345500D01*
X28710500*
Y16426700*
X28779000*
X28710500Y16345500D02*
X28779000D01*
X28710500Y16370900D02*
X28779000D01*
X28710500Y16396300D02*
X28779000D01*
X28710500Y16421700D02*
X28779000D01*
X28727400Y16345500D02*
Y16426700D01*
X28752800Y16345500D02*
Y16426700D01*
X28778200Y16345500D02*
Y16426700D01*
X29004800Y15564800D02*
Y15485200D01*
X28912700*
Y15564800*
X29004800*
X28912700Y15485200D02*
X29004800D01*
X28912700Y15510600D02*
X29004800D01*
X28912700Y15536000D02*
X29004800D01*
X28912700Y15561400D02*
X29004800D01*
X28930600Y15485200D02*
Y15564800D01*
X28956000Y15485200D02*
Y15564800D01*
X28981400Y15485200D02*
Y15564800D01*
X28779000Y15654500D02*
Y15573300D01*
X28710500*
Y15654500*
X28779000*
X28710500Y15573300D02*
X28779000D01*
X28710500Y15598700D02*
X28779000D01*
X28710500Y15624100D02*
X28779000D01*
X28710500Y15649500D02*
X28779000D01*
X28727400Y15573300D02*
Y15654500D01*
X28752800Y15573300D02*
Y15654500D01*
X28778200Y15573300D02*
Y15654500D01*
X28779000Y15476700D02*
Y15395500D01*
X28710500*
Y15476700*
X28779000*
X28710500Y15395500D02*
X28779000D01*
X28710500Y15420900D02*
X28779000D01*
X28710500Y15446300D02*
X28779000D01*
X28710500Y15471700D02*
X28779000D01*
X28727400Y15395500D02*
Y15476700D01*
X28752800Y15395500D02*
Y15476700D01*
X28778200Y15395500D02*
Y15476700D01*
X26479800Y16539800D02*
Y16460200D01*
X26387700*
Y16539800*
X26479800*
X26387700Y16460200D02*
X26479800D01*
X26387700Y16485600D02*
X26479800D01*
X26387700Y16511000D02*
X26479800D01*
X26387700Y16536400D02*
X26479800D01*
X26390600Y16460200D02*
Y16539800D01*
X26416000Y16460200D02*
Y16539800D01*
X26441400Y16460200D02*
Y16539800D01*
X26466800Y16460200D02*
Y16539800D01*
X26254000Y16629500D02*
Y16548300D01*
X26185500*
Y16629500*
X26254000*
X26185500Y16548300D02*
X26254000D01*
X26185500Y16573700D02*
X26254000D01*
X26185500Y16599100D02*
X26254000D01*
X26185500Y16624500D02*
X26254000D01*
X26187400Y16548300D02*
Y16629500D01*
X26212800Y16548300D02*
Y16629500D01*
X26238200Y16548300D02*
Y16629500D01*
X26254000Y16451700D02*
Y16370500D01*
X26185500*
Y16451700*
X26254000*
X26185500Y16370500D02*
X26254000D01*
X26185500Y16395900D02*
X26254000D01*
X26185500Y16421300D02*
X26254000D01*
X26185500Y16446700D02*
X26254000D01*
X26187400Y16370500D02*
Y16451700D01*
X26212800Y16370500D02*
Y16451700D01*
X26238200Y16370500D02*
Y16451700D01*
X26479800Y15464800D02*
Y15385200D01*
X26387700*
Y15464800*
X26479800*
X26387700Y15385200D02*
X26479800D01*
X26387700Y15410600D02*
X26479800D01*
X26387700Y15436000D02*
X26479800D01*
X26387700Y15461400D02*
X26479800D01*
X26390600Y15385200D02*
Y15464800D01*
X26416000Y15385200D02*
Y15464800D01*
X26441400Y15385200D02*
Y15464800D01*
X26466800Y15385200D02*
Y15464800D01*
X26254000Y15554500D02*
Y15473300D01*
X26185500*
Y15554500*
X26254000*
X26185500Y15473300D02*
X26254000D01*
X26185500Y15498700D02*
X26254000D01*
X26185500Y15524100D02*
X26254000D01*
X26185500Y15549500D02*
X26254000D01*
X26187400Y15473300D02*
Y15554500D01*
X26212800Y15473300D02*
Y15554500D01*
X26238200Y15473300D02*
Y15554500D01*
X26254000Y15376700D02*
Y15295500D01*
X26185500*
Y15376700*
X26254000*
X26185500Y15295500D02*
X26254000D01*
X26185500Y15320900D02*
X26254000D01*
X26185500Y15346300D02*
X26254000D01*
X26185500Y15371700D02*
X26254000D01*
X26187400Y15295500D02*
Y15376700D01*
X26212800Y15295500D02*
Y15376700D01*
X26238200Y15295500D02*
Y15376700D01*
X37559800Y19934800D02*
Y19855200D01*
X37467700*
Y19934800*
X37559800*
X37467700Y19855200D02*
X37559800D01*
X37467700Y19880600D02*
X37559800D01*
X37467700Y19906000D02*
X37559800D01*
X37467700Y19931400D02*
X37559800D01*
X37490400Y19855200D02*
Y19934800D01*
X37515800Y19855200D02*
Y19934800D01*
X37541200Y19855200D02*
Y19934800D01*
X37334000Y20024500D02*
Y19943300D01*
X37265500*
Y20024500*
X37334000*
X37265500Y19943300D02*
X37334000D01*
X37265500Y19968700D02*
X37334000D01*
X37265500Y19994100D02*
X37334000D01*
X37265500Y20019500D02*
X37334000D01*
X37287200Y19943300D02*
Y20024500D01*
X37312600Y19943300D02*
Y20024500D01*
X37334000Y19846700D02*
Y19765500D01*
X37265500*
Y19846700*
X37334000*
X37265500Y19765500D02*
X37334000D01*
X37265500Y19790900D02*
X37334000D01*
X37265500Y19816300D02*
X37334000D01*
X37265500Y19841700D02*
X37334000D01*
X37287200Y19765500D02*
Y19846700D01*
X37312600Y19765500D02*
Y19846700D01*
X27265200Y21810200D02*
Y21889800D01*
X27344800*
Y21810200*
X27265200*
X27344800*
X27265200Y21835600D02*
X27344800D01*
X27265200Y21861000D02*
X27344800D01*
X27265200Y21886400D02*
X27344800D01*
X27279600Y21810200D02*
Y21889800D01*
X27305000Y21810200D02*
Y21889800D01*
X27330400Y21810200D02*
Y21889800D01*
X27265200Y21610200D02*
Y21689800D01*
X27344800*
Y21610200*
X27265200*
X27344800*
X27265200Y21635600D02*
X27344800D01*
X27265200Y21661000D02*
X27344800D01*
X27265200Y21686400D02*
X27344800D01*
X27279600Y21610200D02*
Y21689800D01*
X27305000Y21610200D02*
Y21689800D01*
X27330400Y21610200D02*
Y21689800D01*
X28344800Y20810200D02*
X28265200D01*
Y20889800*
X28344800*
Y20810200*
X28265200D02*
X28344800D01*
X28265200Y20835600D02*
X28344800D01*
X28265200Y20861000D02*
X28344800D01*
X28265200Y20886400D02*
X28344800D01*
X28270200Y20810200D02*
Y20889800D01*
X28295600Y20810200D02*
Y20889800D01*
X28321000Y20810200D02*
Y20889800D01*
X28544800Y20810200D02*
X28465200D01*
Y20889800*
X28544800*
Y20810200*
X28465200D02*
X28544800D01*
X28465200Y20835600D02*
X28544800D01*
X28465200Y20861000D02*
X28544800D01*
X28465200Y20886400D02*
X28544800D01*
X28473400Y20810200D02*
Y20889800D01*
X28498800Y20810200D02*
Y20889800D01*
X28524200Y20810200D02*
Y20889800D01*
X29835200Y22285200D02*
Y22364800D01*
X29914800*
Y22285200*
X29835200*
X29914800*
X29835200Y22310600D02*
X29914800D01*
X29835200Y22336000D02*
X29914800D01*
X29835200Y22361400D02*
X29914800D01*
X29845000Y22285200D02*
Y22364800D01*
X29870400Y22285200D02*
Y22364800D01*
X29895800Y22285200D02*
Y22364800D01*
X29835200Y22085200D02*
Y22164800D01*
X29914800*
Y22085200*
X29835200*
X29914800*
X29835200Y22110600D02*
X29914800D01*
X29835200Y22136000D02*
X29914800D01*
X29835200Y22161400D02*
X29914800D01*
X29845000Y22085200D02*
Y22164800D01*
X29870400Y22085200D02*
Y22164800D01*
X29895800Y22085200D02*
Y22164800D01*
X28994800Y20139800D02*
Y20060200D01*
X28915200*
Y20139800*
X28994800*
X28915200Y20060200D02*
X28994800D01*
X28915200Y20085600D02*
X28994800D01*
X28915200Y20111000D02*
X28994800D01*
X28915200Y20136400D02*
X28994800D01*
X28930600Y20060200D02*
Y20139800D01*
X28956000Y20060200D02*
Y20139800D01*
X28981400Y20060200D02*
Y20139800D01*
X28994800Y20339800D02*
Y20260200D01*
X28915200*
Y20339800*
X28994800*
X28915200Y20260200D02*
X28994800D01*
X28915200Y20285600D02*
X28994800D01*
X28915200Y20311000D02*
X28994800D01*
X28915200Y20336400D02*
X28994800D01*
X28930600Y20260200D02*
Y20339800D01*
X28956000Y20260200D02*
Y20339800D01*
X28981400Y20260200D02*
Y20339800D01*
X36035200Y15564800D02*
X36264800D01*
Y15235200*
X36035200*
Y15564800*
Y15235200D02*
X36264800D01*
X36035200Y15260600D02*
X36264800D01*
X36035200Y15286000D02*
X36264800D01*
X36035200Y15311400D02*
X36264800D01*
X36035200Y15336800D02*
X36264800D01*
X36035200Y15362200D02*
X36264800D01*
X36035200Y15387600D02*
X36264800D01*
X36035200Y15413000D02*
X36264800D01*
X36035200Y15438400D02*
X36264800D01*
X36035200Y15463800D02*
X36264800D01*
X36035200Y15489200D02*
X36264800D01*
X36035200Y15514600D02*
X36264800D01*
X36035200Y15540000D02*
X36264800D01*
X36042600Y15235200D02*
Y15564800D01*
X36068000Y15235200D02*
Y15564800D01*
X36093400Y15235200D02*
Y15564800D01*
X36118800Y15235200D02*
Y15564800D01*
X36144200Y15235200D02*
Y15564800D01*
X36169600Y15235200D02*
Y15564800D01*
X36195000Y15235200D02*
Y15564800D01*
X36220400Y15235200D02*
Y15564800D01*
X36245800Y15235200D02*
Y15564800D01*
X36585200D02*
X36814800D01*
Y15235200*
X36585200*
Y15564800*
Y15235200D02*
X36814800D01*
X36585200Y15260600D02*
X36814800D01*
X36585200Y15286000D02*
X36814800D01*
X36585200Y15311400D02*
X36814800D01*
X36585200Y15336800D02*
X36814800D01*
X36585200Y15362200D02*
X36814800D01*
X36585200Y15387600D02*
X36814800D01*
X36585200Y15413000D02*
X36814800D01*
X36585200Y15438400D02*
X36814800D01*
X36585200Y15463800D02*
X36814800D01*
X36585200Y15489200D02*
X36814800D01*
X36585200Y15514600D02*
X36814800D01*
X36585200Y15540000D02*
X36814800D01*
X36601400Y15235200D02*
Y15564800D01*
X36626800Y15235200D02*
Y15564800D01*
X36652200Y15235200D02*
Y15564800D01*
X36677600Y15235200D02*
Y15564800D01*
X36703000Y15235200D02*
Y15564800D01*
X36728400Y15235200D02*
Y15564800D01*
X36753800Y15235200D02*
Y15564800D01*
X36779200Y15235200D02*
Y15564800D01*
X36804600Y15235200D02*
Y15564800D01*
X37539800Y16989800D02*
Y16910200D01*
X37460200*
Y16989800*
X37539800*
X37460200Y16910200D02*
X37539800D01*
X37460200Y16935600D02*
X37539800D01*
X37460200Y16961000D02*
X37539800D01*
X37460200Y16986400D02*
X37539800D01*
X37465000Y16910200D02*
Y16989800D01*
X37490400Y16910200D02*
Y16989800D01*
X37515800Y16910200D02*
Y16989800D01*
X37539800Y17189800D02*
Y17110200D01*
X37460200*
Y17189800*
X37539800*
X37460200Y17110200D02*
X37539800D01*
X37460200Y17135600D02*
X37539800D01*
X37460200Y17161000D02*
X37539800D01*
X37460200Y17186400D02*
X37539800D01*
X37465000Y17110200D02*
Y17189800D01*
X37490400Y17110200D02*
Y17189800D01*
X37515800Y17110200D02*
Y17189800D01*
X35860200Y16410200D02*
Y16489800D01*
X35939800*
Y16410200*
X35860200*
X35939800*
X35860200Y16435600D02*
X35939800D01*
X35860200Y16461000D02*
X35939800D01*
X35860200Y16486400D02*
X35939800D01*
X35864800Y16410200D02*
Y16489800D01*
X35890200Y16410200D02*
Y16489800D01*
X35915600Y16410200D02*
Y16489800D01*
X35860200Y16210200D02*
Y16289800D01*
X35939800*
Y16210200*
X35860200*
X35939800*
X35860200Y16235600D02*
X35939800D01*
X35860200Y16261000D02*
X35939800D01*
X35860200Y16286400D02*
X35939800D01*
X35864800Y16210200D02*
Y16289800D01*
X35890200Y16210200D02*
Y16289800D01*
X35915600Y16210200D02*
Y16289800D01*
X34135200Y15564800D02*
X34364800D01*
Y15235200*
X34135200*
Y15564800*
Y15235200D02*
X34364800D01*
X34135200Y15260600D02*
X34364800D01*
X34135200Y15286000D02*
X34364800D01*
X34135200Y15311400D02*
X34364800D01*
X34135200Y15336800D02*
X34364800D01*
X34135200Y15362200D02*
X34364800D01*
X34135200Y15387600D02*
X34364800D01*
X34135200Y15413000D02*
X34364800D01*
X34135200Y15438400D02*
X34364800D01*
X34135200Y15463800D02*
X34364800D01*
X34135200Y15489200D02*
X34364800D01*
X34135200Y15514600D02*
X34364800D01*
X34135200Y15540000D02*
X34364800D01*
X34137600Y15235200D02*
Y15564800D01*
X34163000Y15235200D02*
Y15564800D01*
X34188400Y15235200D02*
Y15564800D01*
X34213800Y15235200D02*
Y15564800D01*
X34239200Y15235200D02*
Y15564800D01*
X34264600Y15235200D02*
Y15564800D01*
X34290000Y15235200D02*
Y15564800D01*
X34315400Y15235200D02*
Y15564800D01*
X34340800Y15235200D02*
Y15564800D01*
X34685200D02*
X34914800D01*
Y15235200*
X34685200*
Y15564800*
Y15235200D02*
X34914800D01*
X34685200Y15260600D02*
X34914800D01*
X34685200Y15286000D02*
X34914800D01*
X34685200Y15311400D02*
X34914800D01*
X34685200Y15336800D02*
X34914800D01*
X34685200Y15362200D02*
X34914800D01*
X34685200Y15387600D02*
X34914800D01*
X34685200Y15413000D02*
X34914800D01*
X34685200Y15438400D02*
X34914800D01*
X34685200Y15463800D02*
X34914800D01*
X34685200Y15489200D02*
X34914800D01*
X34685200Y15514600D02*
X34914800D01*
X34685200Y15540000D02*
X34914800D01*
X34696400Y15235200D02*
Y15564800D01*
X34721800Y15235200D02*
Y15564800D01*
X34747200Y15235200D02*
Y15564800D01*
X34772600Y15235200D02*
Y15564800D01*
X34798000Y15235200D02*
Y15564800D01*
X34823400Y15235200D02*
Y15564800D01*
X34848800Y15235200D02*
Y15564800D01*
X34874200Y15235200D02*
Y15564800D01*
X34899600Y15235200D02*
Y15564800D01*
X35060200Y17510200D02*
Y17589800D01*
X35139800*
Y17510200*
X35060200*
X35139800*
X35060200Y17535600D02*
X35139800D01*
X35060200Y17561000D02*
X35139800D01*
X35060200Y17586400D02*
X35139800D01*
X35077400Y17510200D02*
Y17589800D01*
X35102800Y17510200D02*
Y17589800D01*
X35128200Y17510200D02*
Y17589800D01*
X35060200Y17310200D02*
Y17389800D01*
X35139800*
Y17310200*
X35060200*
X35139800*
X35060200Y17335600D02*
X35139800D01*
X35060200Y17361000D02*
X35139800D01*
X35060200Y17386400D02*
X35139800D01*
X35077400Y17310200D02*
Y17389800D01*
X35102800Y17310200D02*
Y17389800D01*
X35128200Y17310200D02*
Y17389800D01*
X33144800Y14560200D02*
X33065200D01*
Y14639800*
X33144800*
Y14560200*
X33065200D02*
X33144800D01*
X33065200Y14585600D02*
X33144800D01*
X33065200Y14611000D02*
X33144800D01*
X33065200Y14636400D02*
X33144800D01*
X33070800Y14560200D02*
Y14639800D01*
X33096200Y14560200D02*
Y14639800D01*
X33121600Y14560200D02*
Y14639800D01*
X33344800Y14560200D02*
X33265200D01*
Y14639800*
X33344800*
Y14560200*
X33265200D02*
X33344800D01*
X33265200Y14585600D02*
X33344800D01*
X33265200Y14611000D02*
X33344800D01*
X33265200Y14636400D02*
X33344800D01*
X33274000Y14560200D02*
Y14639800D01*
X33299400Y14560200D02*
Y14639800D01*
X33324800Y14560200D02*
Y14639800D01*
X33935200Y16410200D02*
Y16489800D01*
X34014800*
Y16410200*
X33935200*
X34014800*
X33935200Y16435600D02*
X34014800D01*
X33935200Y16461000D02*
X34014800D01*
X33935200Y16486400D02*
X34014800D01*
X33959800Y16410200D02*
Y16489800D01*
X33985200Y16410200D02*
Y16489800D01*
X34010600Y16410200D02*
Y16489800D01*
X33935200Y16210200D02*
Y16289800D01*
X34014800*
Y16210200*
X33935200*
X34014800*
X33935200Y16235600D02*
X34014800D01*
X33935200Y16261000D02*
X34014800D01*
X33935200Y16286400D02*
X34014800D01*
X33959800Y16210200D02*
Y16289800D01*
X33985200Y16210200D02*
Y16289800D01*
X34010600Y16210200D02*
Y16289800D01*
X27144800Y21214800D02*
Y21135200D01*
X27065200*
Y21214800*
X27144800*
X27065200Y21135200D02*
X27144800D01*
X27065200Y21160600D02*
X27144800D01*
X27065200Y21186000D02*
X27144800D01*
X27065200Y21211400D02*
X27144800D01*
X27076400Y21135200D02*
Y21214800D01*
X27101800Y21135200D02*
Y21214800D01*
X27127200Y21135200D02*
Y21214800D01*
X27144800Y21414800D02*
Y21335200D01*
X27065200*
Y21414800*
X27144800*
X27065200Y21335200D02*
X27144800D01*
X27065200Y21360600D02*
X27144800D01*
X27065200Y21386000D02*
X27144800D01*
X27065200Y21411400D02*
X27144800D01*
X27076400Y21335200D02*
Y21414800D01*
X27101800Y21335200D02*
Y21414800D01*
X27127200Y21335200D02*
Y21414800D01*
X35635200Y16410200D02*
Y16489800D01*
X35714800*
Y16410200*
X35635200*
X35714800*
X35635200Y16435600D02*
X35714800D01*
X35635200Y16461000D02*
X35714800D01*
X35635200Y16486400D02*
X35714800D01*
X35636200Y16410200D02*
Y16489800D01*
X35661600Y16410200D02*
Y16489800D01*
X35687000Y16410200D02*
Y16489800D01*
X35712400Y16410200D02*
Y16489800D01*
X35635200Y16210200D02*
Y16289800D01*
X35714800*
Y16210200*
X35635200*
X35714800*
X35635200Y16235600D02*
X35714800D01*
X35635200Y16261000D02*
X35714800D01*
X35635200Y16286400D02*
X35714800D01*
X35636200Y16210200D02*
Y16289800D01*
X35661600Y16210200D02*
Y16289800D01*
X35687000Y16210200D02*
Y16289800D01*
X35712400Y16210200D02*
Y16289800D01*
X33735200Y16410200D02*
Y16489800D01*
X33814800*
Y16410200*
X33735200*
X33814800*
X33735200Y16435600D02*
X33814800D01*
X33735200Y16461000D02*
X33814800D01*
X33735200Y16486400D02*
X33814800D01*
X33756600Y16410200D02*
Y16489800D01*
X33782000Y16410200D02*
Y16489800D01*
X33807400Y16410200D02*
Y16489800D01*
X33735200Y16210200D02*
Y16289800D01*
X33814800*
Y16210200*
X33735200*
X33814800*
X33735200Y16235600D02*
X33814800D01*
X33735200Y16261000D02*
X33814800D01*
X33735200Y16286400D02*
X33814800D01*
X33756600Y16210200D02*
Y16289800D01*
X33782000Y16210200D02*
Y16289800D01*
X33807400Y16210200D02*
Y16289800D01*
X28900200Y16789800D02*
X28979800D01*
Y16710200*
X28900200*
Y16789800*
Y16710200D02*
X28979800D01*
X28900200Y16735600D02*
X28979800D01*
X28900200Y16761000D02*
X28979800D01*
X28900200Y16786400D02*
X28979800D01*
X28905200Y16710200D02*
Y16789800D01*
X28930600Y16710200D02*
Y16789800D01*
X28956000Y16710200D02*
Y16789800D01*
X28700200D02*
X28779800D01*
Y16710200*
X28700200*
Y16789800*
Y16710200D02*
X28779800D01*
X28700200Y16735600D02*
X28779800D01*
X28700200Y16761000D02*
X28779800D01*
X28700200Y16786400D02*
X28779800D01*
X28702000Y16710200D02*
Y16789800D01*
X28727400Y16710200D02*
Y16789800D01*
X28752800Y16710200D02*
Y16789800D01*
X28778200Y16710200D02*
Y16789800D01*
X28900200Y15864800D02*
X28979800D01*
Y15785200*
X28900200*
Y15864800*
Y15785200D02*
X28979800D01*
X28900200Y15810600D02*
X28979800D01*
X28900200Y15836000D02*
X28979800D01*
X28900200Y15861400D02*
X28979800D01*
X28905200Y15785200D02*
Y15864800D01*
X28930600Y15785200D02*
Y15864800D01*
X28956000Y15785200D02*
Y15864800D01*
X28700200D02*
X28779800D01*
Y15785200*
X28700200*
Y15864800*
Y15785200D02*
X28779800D01*
X28700200Y15810600D02*
X28779800D01*
X28700200Y15836000D02*
X28779800D01*
X28700200Y15861400D02*
X28779800D01*
X28702000Y15785200D02*
Y15864800D01*
X28727400Y15785200D02*
Y15864800D01*
X28752800Y15785200D02*
Y15864800D01*
X28778200Y15785200D02*
Y15864800D01*
X26729800Y16960200D02*
X26650200D01*
Y17039800*
X26729800*
Y16960200*
X26650200D02*
X26729800D01*
X26650200Y16985600D02*
X26729800D01*
X26650200Y17011000D02*
X26729800D01*
X26650200Y17036400D02*
X26729800D01*
X26670000Y16960200D02*
Y17039800D01*
X26695400Y16960200D02*
Y17039800D01*
X26720800Y16960200D02*
Y17039800D01*
X26929800Y16960200D02*
X26850200D01*
Y17039800*
X26929800*
Y16960200*
X26850200D02*
X26929800D01*
X26850200Y16985600D02*
X26929800D01*
X26850200Y17011000D02*
X26929800D01*
X26850200Y17036400D02*
X26929800D01*
X26873200Y16960200D02*
Y17039800D01*
X26898600Y16960200D02*
Y17039800D01*
X26924000Y16960200D02*
Y17039800D01*
X28779800Y16135200D02*
X28700200D01*
Y16214800*
X28779800*
Y16135200*
X28700200D02*
X28779800D01*
X28700200Y16160600D02*
X28779800D01*
X28700200Y16186000D02*
X28779800D01*
X28700200Y16211400D02*
X28779800D01*
X28702000Y16135200D02*
Y16214800D01*
X28727400Y16135200D02*
Y16214800D01*
X28752800Y16135200D02*
Y16214800D01*
X28778200Y16135200D02*
Y16214800D01*
X28979800Y16135200D02*
X28900200D01*
Y16214800*
X28979800*
Y16135200*
X28900200D02*
X28979800D01*
X28900200Y16160600D02*
X28979800D01*
X28900200Y16186000D02*
X28979800D01*
X28900200Y16211400D02*
X28979800D01*
X28905200Y16135200D02*
Y16214800D01*
X28930600Y16135200D02*
Y16214800D01*
X28956000Y16135200D02*
Y16214800D01*
X26729800Y15885200D02*
X26650200D01*
Y15964800*
X26729800*
Y15885200*
X26650200D02*
X26729800D01*
X26650200Y15910600D02*
X26729800D01*
X26650200Y15936000D02*
X26729800D01*
X26650200Y15961400D02*
X26729800D01*
X26670000Y15885200D02*
Y15964800D01*
X26695400Y15885200D02*
Y15964800D01*
X26720800Y15885200D02*
Y15964800D01*
X26929800Y15885200D02*
X26850200D01*
Y15964800*
X26929800*
Y15885200*
X26850200D02*
X26929800D01*
X26850200Y15910600D02*
X26929800D01*
X26850200Y15936000D02*
X26929800D01*
X26850200Y15961400D02*
X26929800D01*
X26873200Y15885200D02*
Y15964800D01*
X26898600Y15885200D02*
Y15964800D01*
X26924000Y15885200D02*
Y15964800D01*
X28779800Y15210200D02*
X28700200D01*
Y15289800*
X28779800*
Y15210200*
X28700200D02*
X28779800D01*
X28700200Y15235600D02*
X28779800D01*
X28700200Y15261000D02*
X28779800D01*
X28700200Y15286400D02*
X28779800D01*
X28702000Y15210200D02*
Y15289800D01*
X28727400Y15210200D02*
Y15289800D01*
X28752800Y15210200D02*
Y15289800D01*
X28778200Y15210200D02*
Y15289800D01*
X28979800Y15210200D02*
X28900200D01*
Y15289800*
X28979800*
Y15210200*
X28900200D02*
X28979800D01*
X28900200Y15235600D02*
X28979800D01*
X28900200Y15261000D02*
X28979800D01*
X28900200Y15286400D02*
X28979800D01*
X28905200Y15210200D02*
Y15289800D01*
X28930600Y15210200D02*
Y15289800D01*
X28956000Y15210200D02*
Y15289800D01*
X28529800Y16389800D02*
Y16310200D01*
X28450200*
Y16389800*
X28529800*
X28450200Y16310200D02*
X28529800D01*
X28450200Y16335600D02*
X28529800D01*
X28450200Y16361000D02*
X28529800D01*
X28450200Y16386400D02*
X28529800D01*
X28473400Y16310200D02*
Y16389800D01*
X28498800Y16310200D02*
Y16389800D01*
X28524200Y16310200D02*
Y16389800D01*
X28529800Y16589800D02*
Y16510200D01*
X28450200*
Y16589800*
X28529800*
X28450200Y16510200D02*
X28529800D01*
X28450200Y16535600D02*
X28529800D01*
X28450200Y16561000D02*
X28529800D01*
X28450200Y16586400D02*
X28529800D01*
X28473400Y16510200D02*
Y16589800D01*
X28498800Y16510200D02*
Y16589800D01*
X28524200Y16510200D02*
Y16589800D01*
X28529800Y15414800D02*
Y15335200D01*
X28450200*
Y15414800*
X28529800*
X28450200Y15335200D02*
X28529800D01*
X28450200Y15360600D02*
X28529800D01*
X28450200Y15386000D02*
X28529800D01*
X28450200Y15411400D02*
X28529800D01*
X28473400Y15335200D02*
Y15414800D01*
X28498800Y15335200D02*
Y15414800D01*
X28524200Y15335200D02*
Y15414800D01*
X28529800Y15614800D02*
Y15535200D01*
X28450200*
Y15614800*
X28529800*
X28450200Y15535200D02*
X28529800D01*
X28450200Y15560600D02*
X28529800D01*
X28450200Y15586000D02*
X28529800D01*
X28450200Y15611400D02*
X28529800D01*
X28473400Y15535200D02*
Y15614800D01*
X28498800Y15535200D02*
Y15614800D01*
X28524200Y15535200D02*
Y15614800D01*
X28465200Y21089800D02*
X28544800D01*
Y21010200*
X28465200*
Y21089800*
Y21010200D02*
X28544800D01*
X28465200Y21035600D02*
X28544800D01*
X28465200Y21061000D02*
X28544800D01*
X28465200Y21086400D02*
X28544800D01*
X28473400Y21010200D02*
Y21089800D01*
X28498800Y21010200D02*
Y21089800D01*
X28524200Y21010200D02*
Y21089800D01*
X28265200D02*
X28344800D01*
Y21010200*
X28265200*
Y21089800*
Y21010200D02*
X28344800D01*
X28265200Y21035600D02*
X28344800D01*
X28265200Y21061000D02*
X28344800D01*
X28265200Y21086400D02*
X28344800D01*
X28270200Y21010200D02*
Y21089800D01*
X28295600Y21010200D02*
Y21089800D01*
X28321000Y21010200D02*
Y21089800D01*
X26850200Y16539800D02*
X26929800D01*
Y16460200*
X26850200*
Y16539800*
Y16460200D02*
X26929800D01*
X26850200Y16485600D02*
X26929800D01*
X26850200Y16511000D02*
X26929800D01*
X26850200Y16536400D02*
X26929800D01*
X26873200Y16460200D02*
Y16539800D01*
X26898600Y16460200D02*
Y16539800D01*
X26924000Y16460200D02*
Y16539800D01*
X26650200D02*
X26729800D01*
Y16460200*
X26650200*
Y16539800*
Y16460200D02*
X26729800D01*
X26650200Y16485600D02*
X26729800D01*
X26650200Y16511000D02*
X26729800D01*
X26650200Y16536400D02*
X26729800D01*
X26670000Y16460200D02*
Y16539800D01*
X26695400Y16460200D02*
Y16539800D01*
X26720800Y16460200D02*
Y16539800D01*
X26850200Y15464800D02*
X26929800D01*
Y15385200*
X26850200*
Y15464800*
Y15385200D02*
X26929800D01*
X26850200Y15410600D02*
X26929800D01*
X26850200Y15436000D02*
X26929800D01*
X26850200Y15461400D02*
X26929800D01*
X26873200Y15385200D02*
Y15464800D01*
X26898600Y15385200D02*
Y15464800D01*
X26924000Y15385200D02*
Y15464800D01*
X26650200D02*
X26729800D01*
Y15385200*
X26650200*
Y15464800*
Y15385200D02*
X26729800D01*
X26650200Y15410600D02*
X26729800D01*
X26650200Y15436000D02*
X26729800D01*
X26650200Y15461400D02*
X26729800D01*
X26670000Y15385200D02*
Y15464800D01*
X26695400Y15385200D02*
Y15464800D01*
X26720800Y15385200D02*
Y15464800D01*
X25900200Y16639800D02*
X25979800D01*
Y16560200*
X25900200*
Y16639800*
Y16560200D02*
X25979800D01*
X25900200Y16585600D02*
X25979800D01*
X25900200Y16611000D02*
X25979800D01*
X25900200Y16636400D02*
X25979800D01*
X25908000Y16560200D02*
Y16639800D01*
X25933400Y16560200D02*
Y16639800D01*
X25958800Y16560200D02*
Y16639800D01*
X25700200D02*
X25779800D01*
Y16560200*
X25700200*
Y16639800*
Y16560200D02*
X25779800D01*
X25700200Y16585600D02*
X25779800D01*
X25700200Y16611000D02*
X25779800D01*
X25700200Y16636400D02*
X25779800D01*
X25704800Y16560200D02*
Y16639800D01*
X25730200Y16560200D02*
Y16639800D01*
X25755600Y16560200D02*
Y16639800D01*
X25900200Y15564800D02*
X25979800D01*
Y15485200*
X25900200*
Y15564800*
Y15485200D02*
X25979800D01*
X25900200Y15510600D02*
X25979800D01*
X25900200Y15536000D02*
X25979800D01*
X25900200Y15561400D02*
X25979800D01*
X25908000Y15485200D02*
Y15564800D01*
X25933400Y15485200D02*
Y15564800D01*
X25958800Y15485200D02*
Y15564800D01*
X25700200D02*
X25779800D01*
Y15485200*
X25700200*
Y15564800*
Y15485200D02*
X25779800D01*
X25700200Y15510600D02*
X25779800D01*
X25700200Y15536000D02*
X25779800D01*
X25700200Y15561400D02*
X25779800D01*
X25704800Y15485200D02*
Y15564800D01*
X25730200Y15485200D02*
Y15564800D01*
X25755600Y15485200D02*
Y15564800D01*
X25779800Y16360200D02*
X25700200D01*
Y16439800*
X25779800*
Y16360200*
X25700200D02*
X25779800D01*
X25700200Y16385600D02*
X25779800D01*
X25700200Y16411000D02*
X25779800D01*
X25700200Y16436400D02*
X25779800D01*
X25704800Y16360200D02*
Y16439800D01*
X25730200Y16360200D02*
Y16439800D01*
X25755600Y16360200D02*
Y16439800D01*
X25979800Y16360200D02*
X25900200D01*
Y16439800*
X25979800*
Y16360200*
X25900200D02*
X25979800D01*
X25900200Y16385600D02*
X25979800D01*
X25900200Y16411000D02*
X25979800D01*
X25900200Y16436400D02*
X25979800D01*
X25908000Y16360200D02*
Y16439800D01*
X25933400Y16360200D02*
Y16439800D01*
X25958800Y16360200D02*
Y16439800D01*
X25779800Y15285200D02*
X25700200D01*
Y15364800*
X25779800*
Y15285200*
X25700200D02*
X25779800D01*
X25700200Y15310600D02*
X25779800D01*
X25700200Y15336000D02*
X25779800D01*
X25700200Y15361400D02*
X25779800D01*
X25704800Y15285200D02*
Y15364800D01*
X25730200Y15285200D02*
Y15364800D01*
X25755600Y15285200D02*
Y15364800D01*
X25979800Y15285200D02*
X25900200D01*
Y15364800*
X25979800*
Y15285200*
X25900200D02*
X25979800D01*
X25900200Y15310600D02*
X25979800D01*
X25900200Y15336000D02*
X25979800D01*
X25900200Y15361400D02*
X25979800D01*
X25908000Y15285200D02*
Y15364800D01*
X25933400Y15285200D02*
Y15364800D01*
X25958800Y15285200D02*
Y15364800D01*
X39044800Y21285200D02*
X38965200D01*
Y21364800*
X39044800*
Y21285200*
X38965200D02*
X39044800D01*
X38965200Y21310600D02*
X39044800D01*
X38965200Y21336000D02*
X39044800D01*
X38965200Y21361400D02*
X39044800D01*
X38989000Y21285200D02*
Y21364800D01*
X39014400Y21285200D02*
Y21364800D01*
X39039800Y21285200D02*
Y21364800D01*
X39244800Y21285200D02*
X39165200D01*
Y21364800*
X39244800*
Y21285200*
X39165200D02*
X39244800D01*
X39165200Y21310600D02*
X39244800D01*
X39165200Y21336000D02*
X39244800D01*
X39165200Y21361400D02*
X39244800D01*
X39166800Y21285200D02*
Y21364800D01*
X39192200Y21285200D02*
Y21364800D01*
X39217600Y21285200D02*
Y21364800D01*
X39243000Y21285200D02*
Y21364800D01*
X39044800Y21085200D02*
X38965200D01*
Y21164800*
X39044800*
Y21085200*
X38965200D02*
X39044800D01*
X38965200Y21110600D02*
X39044800D01*
X38965200Y21136000D02*
X39044800D01*
X38965200Y21161400D02*
X39044800D01*
X38989000Y21085200D02*
Y21164800D01*
X39014400Y21085200D02*
Y21164800D01*
X39039800Y21085200D02*
Y21164800D01*
X39244800Y21085200D02*
X39165200D01*
Y21164800*
X39244800*
Y21085200*
X39165200D02*
X39244800D01*
X39165200Y21110600D02*
X39244800D01*
X39165200Y21136000D02*
X39244800D01*
X39165200Y21161400D02*
X39244800D01*
X39166800Y21085200D02*
Y21164800D01*
X39192200Y21085200D02*
Y21164800D01*
X39217600Y21085200D02*
Y21164800D01*
X39243000Y21085200D02*
Y21164800D01*
X38515200Y23360200D02*
Y23439800D01*
X38594800*
Y23360200*
X38515200*
X38594800*
X38515200Y23385600D02*
X38594800D01*
X38515200Y23411000D02*
X38594800D01*
X38515200Y23436400D02*
X38594800D01*
X38531800Y23360200D02*
Y23439800D01*
X38557200Y23360200D02*
Y23439800D01*
X38582600Y23360200D02*
Y23439800D01*
X38515200Y23160200D02*
Y23239800D01*
X38594800*
Y23160200*
X38515200*
X38594800*
X38515200Y23185600D02*
X38594800D01*
X38515200Y23211000D02*
X38594800D01*
X38515200Y23236400D02*
X38594800D01*
X38531800Y23160200D02*
Y23239800D01*
X38557200Y23160200D02*
Y23239800D01*
X38582600Y23160200D02*
Y23239800D01*
X39115200Y22464800D02*
X39194800D01*
Y22385200*
X39115200*
Y22464800*
Y22385200D02*
X39194800D01*
X39115200Y22410600D02*
X39194800D01*
X39115200Y22436000D02*
X39194800D01*
X39115200Y22461400D02*
X39194800D01*
X39116000Y22385200D02*
Y22464800D01*
X39141400Y22385200D02*
Y22464800D01*
X39166800Y22385200D02*
Y22464800D01*
X39192200Y22385200D02*
Y22464800D01*
X38915200D02*
X38994800D01*
Y22385200*
X38915200*
Y22464800*
Y22385200D02*
X38994800D01*
X38915200Y22410600D02*
X38994800D01*
X38915200Y22436000D02*
X38994800D01*
X38915200Y22461400D02*
X38994800D01*
X38938200Y22385200D02*
Y22464800D01*
X38963600Y22385200D02*
Y22464800D01*
X38989000Y22385200D02*
Y22464800D01*
X27439800Y22535200D02*
X27360200D01*
Y22614800*
X27439800*
Y22535200*
X27360200D02*
X27439800D01*
X27360200Y22560600D02*
X27439800D01*
X27360200Y22586000D02*
X27439800D01*
X27360200Y22611400D02*
X27439800D01*
X27381200Y22535200D02*
Y22614800D01*
X27406600Y22535200D02*
Y22614800D01*
X27432000Y22535200D02*
Y22614800D01*
X27639800Y22535200D02*
X27560200D01*
Y22614800*
X27639800*
Y22535200*
X27560200D02*
X27639800D01*
X27560200Y22560600D02*
X27639800D01*
X27560200Y22586000D02*
X27639800D01*
X27560200Y22611400D02*
X27639800D01*
X27584400Y22535200D02*
Y22614800D01*
X27609800Y22535200D02*
Y22614800D01*
X27635200Y22535200D02*
Y22614800D01*
X37240200Y23114800D02*
X37319800D01*
Y23035200*
X37240200*
Y23114800*
Y23035200D02*
X37319800D01*
X37240200Y23060600D02*
X37319800D01*
X37240200Y23086000D02*
X37319800D01*
X37240200Y23111400D02*
X37319800D01*
X37261800Y23035200D02*
Y23114800D01*
X37287200Y23035200D02*
Y23114800D01*
X37312600Y23035200D02*
Y23114800D01*
X37040200D02*
X37119800D01*
Y23035200*
X37040200*
Y23114800*
Y23035200D02*
X37119800D01*
X37040200Y23060600D02*
X37119800D01*
X37040200Y23086000D02*
X37119800D01*
X37040200Y23111400D02*
X37119800D01*
X37058600Y23035200D02*
Y23114800D01*
X37084000Y23035200D02*
Y23114800D01*
X37109400Y23035200D02*
Y23114800D01*
X37240200Y23314800D02*
X37319800D01*
Y23235200*
X37240200*
Y23314800*
Y23235200D02*
X37319800D01*
X37240200Y23260600D02*
X37319800D01*
X37240200Y23286000D02*
X37319800D01*
X37240200Y23311400D02*
X37319800D01*
X37261800Y23235200D02*
Y23314800D01*
X37287200Y23235200D02*
Y23314800D01*
X37312600Y23235200D02*
Y23314800D01*
X37040200D02*
X37119800D01*
Y23235200*
X37040200*
Y23314800*
Y23235200D02*
X37119800D01*
X37040200Y23260600D02*
X37119800D01*
X37040200Y23286000D02*
X37119800D01*
X37040200Y23311400D02*
X37119800D01*
X37058600Y23235200D02*
Y23314800D01*
X37084000Y23235200D02*
Y23314800D01*
X37109400Y23235200D02*
Y23314800D01*
X39165200Y23014800D02*
X39244800D01*
Y22935200*
X39165200*
Y23014800*
Y22935200D02*
X39244800D01*
X39165200Y22960600D02*
X39244800D01*
X39165200Y22986000D02*
X39244800D01*
X39165200Y23011400D02*
X39244800D01*
X39166800Y22935200D02*
Y23014800D01*
X39192200Y22935200D02*
Y23014800D01*
X39217600Y22935200D02*
Y23014800D01*
X39243000Y22935200D02*
Y23014800D01*
X38965200D02*
X39044800D01*
Y22935200*
X38965200*
Y23014800*
Y22935200D02*
X39044800D01*
X38965200Y22960600D02*
X39044800D01*
X38965200Y22986000D02*
X39044800D01*
X38965200Y23011400D02*
X39044800D01*
X38989000Y22935200D02*
Y23014800D01*
X39014400Y22935200D02*
Y23014800D01*
X39039800Y22935200D02*
Y23014800D01*
X38515200Y22910200D02*
Y22989800D01*
X38594800*
Y22910200*
X38515200*
X38594800*
X38515200Y22935600D02*
X38594800D01*
X38515200Y22961000D02*
X38594800D01*
X38515200Y22986400D02*
X38594800D01*
X38531800Y22910200D02*
Y22989800D01*
X38557200Y22910200D02*
Y22989800D01*
X38582600Y22910200D02*
Y22989800D01*
X38515200Y22710200D02*
Y22789800D01*
X38594800*
Y22710200*
X38515200*
X38594800*
X38515200Y22735600D02*
X38594800D01*
X38515200Y22761000D02*
X38594800D01*
X38515200Y22786400D02*
X38594800D01*
X38531800Y22710200D02*
Y22789800D01*
X38557200Y22710200D02*
Y22789800D01*
X38582600Y22710200D02*
Y22789800D01*
X32914800Y19664800D02*
Y19585200D01*
X32835200*
Y19664800*
X32914800*
X32835200Y19585200D02*
X32914800D01*
X32835200Y19610600D02*
X32914800D01*
X32835200Y19636000D02*
X32914800D01*
X32835200Y19661400D02*
X32914800D01*
X32842200Y19585200D02*
Y19664800D01*
X32867600Y19585200D02*
Y19664800D01*
X32893000Y19585200D02*
Y19664800D01*
X32914800Y19864800D02*
Y19785200D01*
X32835200*
Y19864800*
X32914800*
X32835200Y19785200D02*
X32914800D01*
X32835200Y19810600D02*
X32914800D01*
X32835200Y19836000D02*
X32914800D01*
X32835200Y19861400D02*
X32914800D01*
X32842200Y19785200D02*
Y19864800D01*
X32867600Y19785200D02*
Y19864800D01*
X32893000Y19785200D02*
Y19864800D01*
X39094800Y19785200D02*
X39015200D01*
Y19864800*
X39094800*
Y19785200*
X39015200D02*
X39094800D01*
X39015200Y19810600D02*
X39094800D01*
X39015200Y19836000D02*
X39094800D01*
X39015200Y19861400D02*
X39094800D01*
X39039800Y19785200D02*
Y19864800D01*
X39065200Y19785200D02*
Y19864800D01*
X39090600Y19785200D02*
Y19864800D01*
X39294800Y19785200D02*
X39215200D01*
Y19864800*
X39294800*
Y19785200*
X39215200D02*
X39294800D01*
X39215200Y19810600D02*
X39294800D01*
X39215200Y19836000D02*
X39294800D01*
X39215200Y19861400D02*
X39294800D01*
X39217600Y19785200D02*
Y19864800D01*
X39243000Y19785200D02*
Y19864800D01*
X39268400Y19785200D02*
Y19864800D01*
X39293800Y19785200D02*
Y19864800D01*
X32810200Y23260200D02*
Y23339800D01*
X32889800*
Y23260200*
X32810200*
X32889800*
X32810200Y23285600D02*
X32889800D01*
X32810200Y23311000D02*
X32889800D01*
X32810200Y23336400D02*
X32889800D01*
X32816800Y23260200D02*
Y23339800D01*
X32842200Y23260200D02*
Y23339800D01*
X32867600Y23260200D02*
Y23339800D01*
X32810200Y23060200D02*
Y23139800D01*
X32889800*
Y23060200*
X32810200*
X32889800*
X32810200Y23085600D02*
X32889800D01*
X32810200Y23111000D02*
X32889800D01*
X32810200Y23136400D02*
X32889800D01*
X32816800Y23060200D02*
Y23139800D01*
X32842200Y23060200D02*
Y23139800D01*
X32867600Y23060200D02*
Y23139800D01*
X32689800D02*
Y23060200D01*
X32610200*
Y23139800*
X32689800*
X32610200Y23060200D02*
X32689800D01*
X32610200Y23085600D02*
X32689800D01*
X32610200Y23111000D02*
X32689800D01*
X32610200Y23136400D02*
X32689800D01*
X32613600Y23060200D02*
Y23139800D01*
X32639000Y23060200D02*
Y23139800D01*
X32664400Y23060200D02*
Y23139800D01*
X32689800Y23060200D02*
Y23139800D01*
Y23339800D02*
Y23260200D01*
X32610200*
Y23339800*
X32689800*
X32610200Y23260200D02*
X32689800D01*
X32610200Y23285600D02*
X32689800D01*
X32610200Y23311000D02*
X32689800D01*
X32610200Y23336400D02*
X32689800D01*
X32613600Y23260200D02*
Y23339800D01*
X32639000Y23260200D02*
Y23339800D01*
X32664400Y23260200D02*
Y23339800D01*
X32689800Y23260200D02*
Y23339800D01*
X29190200Y23560200D02*
Y23639800D01*
X29269800*
Y23560200*
X29190200*
X29269800*
X29190200Y23585600D02*
X29269800D01*
X29190200Y23611000D02*
X29269800D01*
X29190200Y23636400D02*
X29269800D01*
X29210000Y23560200D02*
Y23639800D01*
X29235400Y23560200D02*
Y23639800D01*
X29260800Y23560200D02*
Y23639800D01*
X29190200Y23360200D02*
Y23439800D01*
X29269800*
Y23360200*
X29190200*
X29269800*
X29190200Y23385600D02*
X29269800D01*
X29190200Y23411000D02*
X29269800D01*
X29190200Y23436400D02*
X29269800D01*
X29210000Y23360200D02*
Y23439800D01*
X29235400Y23360200D02*
Y23439800D01*
X29260800Y23360200D02*
Y23439800D01*
X28990200Y23560200D02*
Y23639800D01*
X29069800*
Y23560200*
X28990200*
X29069800*
X28990200Y23585600D02*
X29069800D01*
X28990200Y23611000D02*
X29069800D01*
X28990200Y23636400D02*
X29069800D01*
X29006800Y23560200D02*
Y23639800D01*
X29032200Y23560200D02*
Y23639800D01*
X29057600Y23560200D02*
Y23639800D01*
X28990200Y23360200D02*
Y23439800D01*
X29069800*
Y23360200*
X28990200*
X29069800*
X28990200Y23385600D02*
X29069800D01*
X28990200Y23411000D02*
X29069800D01*
X28990200Y23436400D02*
X29069800D01*
X29006800Y23360200D02*
Y23439800D01*
X29032200Y23360200D02*
Y23439800D01*
X29057600Y23360200D02*
Y23439800D01*
X27439800Y22935200D02*
X27360200D01*
Y23014800*
X27439800*
Y22935200*
X27360200D02*
X27439800D01*
X27360200Y22960600D02*
X27439800D01*
X27360200Y22986000D02*
X27439800D01*
X27360200Y23011400D02*
X27439800D01*
X27381200Y22935200D02*
Y23014800D01*
X27406600Y22935200D02*
Y23014800D01*
X27432000Y22935200D02*
Y23014800D01*
X27639800Y22935200D02*
X27560200D01*
Y23014800*
X27639800*
Y22935200*
X27560200D02*
X27639800D01*
X27560200Y22960600D02*
X27639800D01*
X27560200Y22986000D02*
X27639800D01*
X27560200Y23011400D02*
X27639800D01*
X27584400Y22935200D02*
Y23014800D01*
X27609800Y22935200D02*
Y23014800D01*
X27635200Y22935200D02*
Y23014800D01*
X28590200Y23560200D02*
Y23639800D01*
X28669800*
Y23560200*
X28590200*
X28669800*
X28590200Y23585600D02*
X28669800D01*
X28590200Y23611000D02*
X28669800D01*
X28590200Y23636400D02*
X28669800D01*
X28600400Y23560200D02*
Y23639800D01*
X28625800Y23560200D02*
Y23639800D01*
X28651200Y23560200D02*
Y23639800D01*
X28590200Y23360200D02*
Y23439800D01*
X28669800*
Y23360200*
X28590200*
X28669800*
X28590200Y23385600D02*
X28669800D01*
X28590200Y23411000D02*
X28669800D01*
X28590200Y23436400D02*
X28669800D01*
X28600400Y23360200D02*
Y23439800D01*
X28625800Y23360200D02*
Y23439800D01*
X28651200Y23360200D02*
Y23439800D01*
X28790200Y23560200D02*
Y23639800D01*
X28869800*
Y23560200*
X28790200*
X28869800*
X28790200Y23585600D02*
X28869800D01*
X28790200Y23611000D02*
X28869800D01*
X28790200Y23636400D02*
X28869800D01*
X28803600Y23560200D02*
Y23639800D01*
X28829000Y23560200D02*
Y23639800D01*
X28854400Y23560200D02*
Y23639800D01*
X28790200Y23360200D02*
Y23439800D01*
X28869800*
Y23360200*
X28790200*
X28869800*
X28790200Y23385600D02*
X28869800D01*
X28790200Y23411000D02*
X28869800D01*
X28790200Y23436400D02*
X28869800D01*
X28803600Y23360200D02*
Y23439800D01*
X28829000Y23360200D02*
Y23439800D01*
X28854400Y23360200D02*
Y23439800D01*
X32085200Y23235200D02*
Y23314800D01*
X32164800*
Y23235200*
X32085200*
X32164800*
X32085200Y23260600D02*
X32164800D01*
X32085200Y23286000D02*
X32164800D01*
X32085200Y23311400D02*
X32164800D01*
X32105600Y23235200D02*
Y23314800D01*
X32131000Y23235200D02*
Y23314800D01*
X32156400Y23235200D02*
Y23314800D01*
X32085200Y23035200D02*
Y23114800D01*
X32164800*
Y23035200*
X32085200*
X32164800*
X32085200Y23060600D02*
X32164800D01*
X32085200Y23086000D02*
X32164800D01*
X32085200Y23111400D02*
X32164800D01*
X32105600Y23035200D02*
Y23114800D01*
X32131000Y23035200D02*
Y23114800D01*
X32156400Y23035200D02*
Y23114800D01*
X29469800Y23439800D02*
Y23360200D01*
X29390200*
Y23439800*
X29469800*
X29390200Y23360200D02*
X29469800D01*
X29390200Y23385600D02*
X29469800D01*
X29390200Y23411000D02*
X29469800D01*
X29390200Y23436400D02*
X29469800D01*
X29413200Y23360200D02*
Y23439800D01*
X29438600Y23360200D02*
Y23439800D01*
X29464000Y23360200D02*
Y23439800D01*
X29469800Y23639800D02*
Y23560200D01*
X29390200*
Y23639800*
X29469800*
X29390200Y23560200D02*
X29469800D01*
X29390200Y23585600D02*
X29469800D01*
X29390200Y23611000D02*
X29469800D01*
X29390200Y23636400D02*
X29469800D01*
X29413200Y23560200D02*
Y23639800D01*
X29438600Y23560200D02*
Y23639800D01*
X29464000Y23560200D02*
Y23639800D01*
X35239800Y24389800D02*
Y24310200D01*
X35160200*
Y24389800*
X35239800*
X35160200Y24310200D02*
X35239800D01*
X35160200Y24335600D02*
X35239800D01*
X35160200Y24361000D02*
X35239800D01*
X35160200Y24386400D02*
X35239800D01*
X35179000Y24310200D02*
Y24389800D01*
X35204400Y24310200D02*
Y24389800D01*
X35229800Y24310200D02*
Y24389800D01*
X35239800Y24589800D02*
Y24510200D01*
X35160200*
Y24589800*
X35239800*
X35160200Y24510200D02*
X35239800D01*
X35160200Y24535600D02*
X35239800D01*
X35160200Y24561000D02*
X35239800D01*
X35160200Y24586400D02*
X35239800D01*
X35179000Y24510200D02*
Y24589800D01*
X35204400Y24510200D02*
Y24589800D01*
X35229800Y24510200D02*
Y24589800D01*
X35489800Y24389800D02*
Y24310200D01*
X35410200*
Y24389800*
X35489800*
X35410200Y24310200D02*
X35489800D01*
X35410200Y24335600D02*
X35489800D01*
X35410200Y24361000D02*
X35489800D01*
X35410200Y24386400D02*
X35489800D01*
X35433000Y24310200D02*
Y24389800D01*
X35458400Y24310200D02*
Y24389800D01*
X35483800Y24310200D02*
Y24389800D01*
X35489800Y24589800D02*
Y24510200D01*
X35410200*
Y24589800*
X35489800*
X35410200Y24510200D02*
X35489800D01*
X35410200Y24535600D02*
X35489800D01*
X35410200Y24561000D02*
X35489800D01*
X35410200Y24586400D02*
X35489800D01*
X35433000Y24510200D02*
Y24589800D01*
X35458400Y24510200D02*
Y24589800D01*
X35483800Y24510200D02*
Y24589800D01*
X35739800Y24389800D02*
Y24310200D01*
X35660200*
Y24389800*
X35739800*
X35660200Y24310200D02*
X35739800D01*
X35660200Y24335600D02*
X35739800D01*
X35660200Y24361000D02*
X35739800D01*
X35660200Y24386400D02*
X35739800D01*
X35661600Y24310200D02*
Y24389800D01*
X35687000Y24310200D02*
Y24389800D01*
X35712400Y24310200D02*
Y24389800D01*
X35737800Y24310200D02*
Y24389800D01*
X35739800Y24589800D02*
Y24510200D01*
X35660200*
Y24589800*
X35739800*
X35660200Y24510200D02*
X35739800D01*
X35660200Y24535600D02*
X35739800D01*
X35660200Y24561000D02*
X35739800D01*
X35660200Y24586400D02*
X35739800D01*
X35661600Y24510200D02*
Y24589800D01*
X35687000Y24510200D02*
Y24589800D01*
X35712400Y24510200D02*
Y24589800D01*
X35737800Y24510200D02*
Y24589800D01*
X37334800Y20284800D02*
Y20205200D01*
X37255200*
Y20284800*
X37334800*
X37255200Y20205200D02*
X37334800D01*
X37255200Y20230600D02*
X37334800D01*
X37255200Y20256000D02*
X37334800D01*
X37255200Y20281400D02*
X37334800D01*
X37261800Y20205200D02*
Y20284800D01*
X37287200Y20205200D02*
Y20284800D01*
X37312600Y20205200D02*
Y20284800D01*
X37334800Y20484800D02*
Y20405200D01*
X37255200*
Y20484800*
X37334800*
X37255200Y20405200D02*
X37334800D01*
X37255200Y20430600D02*
X37334800D01*
X37255200Y20456000D02*
X37334800D01*
X37255200Y20481400D02*
X37334800D01*
X37261800Y20405200D02*
Y20484800D01*
X37287200Y20405200D02*
Y20484800D01*
X37312600Y20405200D02*
Y20484800D01*
X38472300Y20542700D02*
X38330200D01*
Y20697300*
X38472300*
Y20542700*
X38330200D02*
X38472300D01*
X38330200Y20568100D02*
X38472300D01*
X38330200Y20593500D02*
X38472300D01*
X38330200Y20618900D02*
X38472300D01*
X38330200Y20644300D02*
X38472300D01*
X38330200Y20669700D02*
X38472300D01*
X38330200Y20695100D02*
X38472300D01*
X38354000Y20542700D02*
Y20697300D01*
X38379400Y20542700D02*
Y20697300D01*
X38404800Y20542700D02*
Y20697300D01*
X38430200Y20542700D02*
Y20697300D01*
X38455600Y20542700D02*
Y20697300D01*
X38209800Y20542700D02*
X38055200D01*
Y20697300*
X38209800*
Y20542700*
X38055200D02*
X38209800D01*
X38055200Y20568100D02*
X38209800D01*
X38055200Y20593500D02*
X38209800D01*
X38055200Y20618900D02*
X38209800D01*
X38055200Y20644300D02*
X38209800D01*
X38055200Y20669700D02*
X38209800D01*
X38055200Y20695100D02*
X38209800D01*
X38074600Y20542700D02*
Y20697300D01*
X38100000Y20542700D02*
Y20697300D01*
X38125400Y20542700D02*
Y20697300D01*
X38150800Y20542700D02*
Y20697300D01*
X38176200Y20542700D02*
Y20697300D01*
X38201600Y20542700D02*
Y20697300D01*
X27439800Y23135200D02*
X27360200D01*
Y23214800*
X27439800*
Y23135200*
X27360200D02*
X27439800D01*
X27360200Y23160600D02*
X27439800D01*
X27360200Y23186000D02*
X27439800D01*
X27360200Y23211400D02*
X27439800D01*
X27381200Y23135200D02*
Y23214800D01*
X27406600Y23135200D02*
Y23214800D01*
X27432000Y23135200D02*
Y23214800D01*
X27639800Y23135200D02*
X27560200D01*
Y23214800*
X27639800*
Y23135200*
X27560200D02*
X27639800D01*
X27560200Y23160600D02*
X27639800D01*
X27560200Y23186000D02*
X27639800D01*
X27560200Y23211400D02*
X27639800D01*
X27584400Y23135200D02*
Y23214800D01*
X27609800Y23135200D02*
Y23214800D01*
X27635200Y23135200D02*
Y23214800D01*
X27439800Y23510200D02*
X27360200D01*
Y23589800*
X27439800*
Y23510200*
X27360200D02*
X27439800D01*
X27360200Y23535600D02*
X27439800D01*
X27360200Y23561000D02*
X27439800D01*
X27360200Y23586400D02*
X27439800D01*
X27381200Y23510200D02*
Y23589800D01*
X27406600Y23510200D02*
Y23589800D01*
X27432000Y23510200D02*
Y23589800D01*
X27639800Y23510200D02*
X27560200D01*
Y23589800*
X27639800*
Y23510200*
X27560200D02*
X27639800D01*
X27560200Y23535600D02*
X27639800D01*
X27560200Y23561000D02*
X27639800D01*
X27560200Y23586400D02*
X27639800D01*
X27584400Y23510200D02*
Y23589800D01*
X27609800Y23510200D02*
Y23589800D01*
X27635200Y23510200D02*
Y23589800D01*
X28344800Y20610200D02*
X28265200D01*
Y20689800*
X28344800*
Y20610200*
X28265200D02*
X28344800D01*
X28265200Y20635600D02*
X28344800D01*
X28265200Y20661000D02*
X28344800D01*
X28265200Y20686400D02*
X28344800D01*
X28270200Y20610200D02*
Y20689800D01*
X28295600Y20610200D02*
Y20689800D01*
X28321000Y20610200D02*
Y20689800D01*
X28544800Y20610200D02*
X28465200D01*
Y20689800*
X28544800*
Y20610200*
X28465200D02*
X28544800D01*
X28465200Y20635600D02*
X28544800D01*
X28465200Y20661000D02*
X28544800D01*
X28465200Y20686400D02*
X28544800D01*
X28473400Y20610200D02*
Y20689800D01*
X28498800Y20610200D02*
Y20689800D01*
X28524200Y20610200D02*
Y20689800D01*
X28794800Y20139800D02*
Y20060200D01*
X28715200*
Y20139800*
X28794800*
X28715200Y20060200D02*
X28794800D01*
X28715200Y20085600D02*
X28794800D01*
X28715200Y20111000D02*
X28794800D01*
X28715200Y20136400D02*
X28794800D01*
X28727400Y20060200D02*
Y20139800D01*
X28752800Y20060200D02*
Y20139800D01*
X28778200Y20060200D02*
Y20139800D01*
X28794800Y20339800D02*
Y20260200D01*
X28715200*
Y20339800*
X28794800*
X28715200Y20260200D02*
X28794800D01*
X28715200Y20285600D02*
X28794800D01*
X28715200Y20311000D02*
X28794800D01*
X28715200Y20336400D02*
X28794800D01*
X28727400Y20260200D02*
Y20339800D01*
X28752800Y20260200D02*
Y20339800D01*
X28778200Y20260200D02*
Y20339800D01*
X25400000Y10400000D02*
Y25400000D01*
X39660000*
Y10400000*
X25400000*
G54D60*
X28630000Y24250000D03*
X28830000Y24050000D03*
Y24250000D03*
X29030000Y24050000D03*
Y24250000D03*
X29230000Y24050000D03*
Y24250000D03*
X29430000Y24050000D03*
Y24250000D03*
G54D79*
X27515000Y16850000D03*
Y15825000D03*
X26355000Y18250000D03*
X27350000Y14375000D03*
Y13625000D03*
X27050000Y14375000D03*
Y13625000D03*
X26450000Y14375000D03*
Y13625000D03*
X26750000Y14375000D03*
X27580000Y21900000D03*
X26750000Y13625000D03*
X26150000Y14375000D03*
Y13625000D03*
X25850000Y14375000D03*
Y13625000D03*
X39255000Y23250000D03*
X38955000Y22675000D03*
X32400000Y23075000D03*
X37580000Y18900000D03*
G54D80*
X31575000Y21900000D03*
G54D83*
X39055000Y20250000D03*
X39255000D03*
X33780000Y14600000D03*
X33580000D03*
X38125000Y15725000D03*
X39275000D03*
X33525000Y17250000D03*
X32375000D03*
X38445000Y19895000D03*
X37945000D03*
X38125000Y15725000D03*
X39275000D03*
X33525000Y17250000D03*
X32375000D03*
G54D84*
X29482000Y24973000D03*
Y12873000D03*
G54D85*
Y25227000D03*
X29736000Y24973000D03*
Y25227000D03*
X29990000Y24973000D03*
Y25227000D03*
X30244000Y24973000D03*
Y25227000D03*
X30498000Y24973000D03*
Y25227000D03*
X30752000Y24973000D03*
Y25227000D03*
X31006000Y24973000D03*
Y25227000D03*
X31260000Y24973000D03*
Y25227000D03*
X31514000Y24973000D03*
Y25227000D03*
X31768000Y24973000D03*
Y25227000D03*
X32022000Y24973000D03*
Y25227000D03*
X32276000Y24973000D03*
Y25227000D03*
X32530000Y24973000D03*
Y25227000D03*
X32784000Y24973000D03*
Y25227000D03*
X33038000Y24973000D03*
Y25227000D03*
X33292000Y24973000D03*
Y25227000D03*
X33546000Y24973000D03*
Y25227000D03*
X33800000Y24973000D03*
Y25227000D03*
X34054000Y24973000D03*
Y25227000D03*
X34308000Y24973000D03*
Y25227000D03*
X34562000Y24973000D03*
Y25227000D03*
X34816000Y24973000D03*
Y25227000D03*
X35070000Y24973000D03*
Y25227000D03*
X35324000Y24973000D03*
Y25227000D03*
X35578000Y24973000D03*
Y25227000D03*
X29482000Y13127000D03*
X29736000Y12873000D03*
Y13127000D03*
X29990000Y12873000D03*
Y13127000D03*
X30244000Y12873000D03*
Y13127000D03*
X30498000Y12873000D03*
Y13127000D03*
X30752000Y12873000D03*
Y13127000D03*
X31006000Y12873000D03*
Y13127000D03*
X31260000Y12873000D03*
Y13127000D03*
X31514000Y12873000D03*
Y13127000D03*
X31768000Y12873000D03*
Y13127000D03*
X32022000Y12873000D03*
Y13127000D03*
X32276000Y12873000D03*
Y13127000D03*
X32530000Y12873000D03*
Y13127000D03*
X32784000Y12873000D03*
Y13127000D03*
X33038000Y12873000D03*
Y13127000D03*
X33292000Y12873000D03*
Y13127000D03*
X33546000Y12873000D03*
Y13127000D03*
X33800000Y12873000D03*
Y13127000D03*
X34054000Y12873000D03*
Y13127000D03*
X34308000Y12873000D03*
Y13127000D03*
X34562000Y12873000D03*
Y13127000D03*
X34816000Y12873000D03*
Y13127000D03*
X35070000Y12873000D03*
Y13127000D03*
X35324000Y12873000D03*
Y13127000D03*
X35578000Y12873000D03*
Y13127000D03*
G54D86*
X27679250Y10850000D03*
X27330000D03*
X26979250D03*
X28979250Y11950000D03*
X28630000D03*
X28279250D03*
X28979250Y10850000D03*
X28630000D03*
X28279250D03*
X30279250Y11950000D03*
X29930000D03*
X29579250D03*
X30279250Y10850000D03*
X29930000D03*
X29579250D03*
X31579250Y11950000D03*
X31230000D03*
X30879250D03*
X31579250Y10850000D03*
X31230000D03*
X30879250D03*
X32879250Y11950000D03*
X32530000D03*
X32179250D03*
X32879250Y10850000D03*
X32530000D03*
X32179250D03*
X34179250Y11950000D03*
X33830000D03*
X33479250D03*
X34179250Y10850000D03*
X33830000D03*
X33479250D03*
X35479250Y11950000D03*
X35130000D03*
X34779250D03*
X35479250Y10850000D03*
X35130000D03*
X34779250D03*
X36779250Y11950000D03*
X36430000D03*
X36079250D03*
X36779250Y10850000D03*
X36430000D03*
X36079250D03*
X27679250Y11950000D03*
X27330000D03*
X26979250D03*
X38079250D03*
X37730000D03*
X37379250D03*
X38079250Y10850000D03*
X37730000D03*
X37379250D03*
G54D87*
X26125000Y20100000D03*
Y21300000D03*
Y18550000D03*
Y19750000D03*
X26263900Y24018400D03*
Y22392800D03*
G54D88*
X31295600Y22000000D02*
X30889200D01*
G54D89*
X26355000Y20547000D03*
Y20751000D03*
X26609000Y20649000D03*
Y20853000D03*
X26355000Y18997000D03*
Y19201000D03*
X26609000Y19099000D03*
Y19303000D03*
X27515000Y16596000D03*
X28277000D03*
Y16850000D03*
X27515000Y15571000D03*
X28277000D03*
Y15825000D03*
X26355000Y17996000D03*
X27350000Y14629000D03*
Y13879000D03*
X27050000Y14629000D03*
Y13879000D03*
X26450000Y14629000D03*
Y13879000D03*
X26750000Y14629000D03*
X27580000Y21646000D03*
X26750000Y13879000D03*
X26150000Y14629000D03*
Y13879000D03*
X25850000Y14629000D03*
Y13879000D03*
X39275000Y14625000D03*
Y14375000D03*
Y14125000D03*
X39001000Y23250000D03*
X39209000Y22675000D03*
X32400000Y23329000D03*
X37580000Y18646000D03*
Y18392000D03*
Y18138000D03*
X38342000D03*
Y18392000D03*
Y18646000D03*
Y18900000D03*
X38975000Y17525000D03*
X32805000Y14600000D03*
G54D90*
X34225000Y22525000D03*
X31975000Y20275000D03*
X29830133Y20824315D03*
X28929449Y21725000D03*
X37543050Y23265500D02*
X37695450D01*
X37543050Y23138500D02*
X37695450D01*
X37543050Y23011500D02*
X37695450D01*
X37543050Y22884500D02*
X37695450D01*
X38114550D02*
X38266950D01*
X38114550Y23011500D02*
X38266950D01*
X38114550Y23138500D02*
X38266950D01*
X38114550Y23265500D02*
X38266950D01*
G54D95*
X31575000Y22100000D03*
G54D96*
X31605000Y17525000D02*
Y17425000D01*
X31155000Y17525000D02*
Y17425000D01*
X31605000Y16625000D02*
Y16525000D01*
X31155000Y16625000D02*
Y16525000D01*
X30635000Y17525000D02*
Y17425000D01*
X30185000Y17525000D02*
Y17425000D01*
X30635000Y16625000D02*
Y16525000D01*
X30185000Y16625000D02*
Y16525000D01*
G54D102*
X38400000Y16675000D02*
X37950000D01*
X38400000Y17125000D02*
X37950000D01*
X33150000Y16525000D02*
Y16075000D01*
X32700000Y16525000D02*
Y16075000D01*
G54D105*
X29610000Y20145000D02*
X29630000D01*
X29830000D02*
X29850000D01*
X29830000Y20305000D02*
X29850000D01*
X29610000D02*
X29630000D01*
X31345000Y21245000D02*
Y21225000D01*
Y21025000D02*
Y21005000D01*
X31505000Y21025000D02*
Y21005000D01*
Y21245000D02*
Y21225000D01*
G54D106*
X36375000Y16750000D03*
Y17350000D03*
X34950000Y16550000D03*
Y15950000D03*
X36375000Y16750000D03*
Y17350000D03*
X34950000Y16550000D03*
Y15950000D03*
G54D128*
X27255000Y19900000D03*
Y19600000D03*
X27875000Y23175000D03*
X28175000D03*
X27875000Y23550000D03*
X28175000D03*
X29580000Y19900000D03*
X29880000D03*
X27350000Y22775000D03*
X27650000D03*
X27350000Y23375000D03*
X27650000D03*
X30105000Y20325000D03*
Y20025000D03*
X26650000Y21950000D03*
X26262500D03*
X37275000Y16900000D03*
Y17200000D03*
X35100000Y16825000D03*
Y17125000D03*
X37450000Y15250000D03*
X37150000D03*
X27455000Y19900000D03*
Y19600000D03*
X39475000Y17050000D03*
Y16750000D03*
X33550000Y16500000D03*
Y16200000D03*
X32450000Y16000000D03*
X32150000D03*
X38225000Y14425000D03*
Y14725000D03*
X35625000Y16000000D03*
X35325000D03*
X33700000D03*
X33400000D03*
X34350000Y16700000D03*
X34050000D03*
X36025000Y16850000D03*
Y17150000D03*
X29830000Y16350000D03*
X29530000D03*
X38905000Y22225000D03*
X39205000D03*
X29355000Y20350000D03*
Y20050000D03*
X38130000Y21950000D03*
X38430000D03*
X38905000D03*
X38605000D03*
X37305000Y21650000D03*
X37605000D03*
X37300000Y21425000D03*
X37600000D03*
X37305000Y21225000D03*
X37605000D03*
X38055000Y23500000D03*
X37755000D03*
X31550000Y20775000D03*
X31250000D03*
Y21500000D03*
X31550000D03*
X31155000Y17775000D03*
X31455000D03*
X30185000D03*
X30485000D03*
X29300000Y22075000D03*
Y22375000D03*
X31555000Y22275000D03*
X31255000D03*
X31555000Y21725000D03*
X31255000D03*
X34625000Y22450000D03*
X34925000D03*
X33375000Y23050000D03*
Y23350000D03*
X31700000Y19875000D03*
Y19575000D03*
X33075000Y19875000D03*
Y19575000D03*
X34625000Y22250000D03*
X34925000D03*
X33925000Y19875000D03*
Y19575000D03*
X37545000Y20195000D03*
Y20495000D03*
X29675000Y22075000D03*
Y22375000D03*
X29155000Y20350000D03*
Y20050000D03*
X28555000Y21500000D03*
X28255000D03*
X27875000Y22575000D03*
X28175000D03*
X27875000Y22975000D03*
X28175000D03*
X27280000Y21125000D03*
Y21275000D03*
X38730000Y22850000D03*
Y23000000D03*
X27430000Y21125000D03*
Y21275000D03*
X38425000Y14500000D03*
Y14650000D03*
X27190000Y17025000D03*
Y16475000D03*
Y15950000D03*
Y15400000D03*
X38730000Y23300000D03*
Y23150000D03*
X28700300Y16563900D03*
Y16386100D03*
X28990000Y16475000D03*
X28700300Y15613900D03*
Y15436100D03*
X28990000Y15525000D03*
X26175300Y16588900D03*
Y16411100D03*
X26465000Y16500000D03*
X26175300Y15513900D03*
Y15336100D03*
X26465000Y15425000D03*
X37255300Y19983900D03*
Y19806100D03*
X37545000Y19895000D03*
X27305000Y21600000D03*
Y21900000D03*
X28555000Y20850000D03*
X28255000D03*
X29875000Y22075000D03*
Y22375000D03*
X28955000Y20350000D03*
Y20050000D03*
X36787500Y15400000D03*
X36062500D03*
X37500000Y17200000D03*
Y16900000D03*
X35900000Y16200000D03*
Y16500000D03*
X34887500Y15400000D03*
X34162500D03*
X35100000Y17300000D03*
Y17600000D03*
X33355000Y14600000D03*
X33055000D03*
X33975000Y16200000D03*
Y16500000D03*
X27105000Y21425000D03*
Y21125000D03*
X35675000Y16200000D03*
Y16500000D03*
X33775000Y16200000D03*
Y16500000D03*
X28690000Y16750000D03*
X28990000D03*
X28690000Y15825000D03*
X28990000D03*
X26940000Y17000000D03*
X26640000D03*
X28990000Y16175000D03*
X28690000D03*
X26940000Y15925000D03*
X26640000D03*
X28990000Y15250000D03*
X28690000D03*
X28490000Y16600000D03*
Y16300000D03*
Y15625000D03*
Y15325000D03*
X28255000Y21050000D03*
X28555000D03*
X26640000Y16500000D03*
X26940000D03*
X26640000Y15425000D03*
X26940000D03*
X25690000Y16600000D03*
X25990000D03*
X25690000Y15525000D03*
X25990000D03*
Y16400000D03*
X25690000D03*
X25990000Y15325000D03*
X25690000D03*
X39255000Y21325000D03*
X38955000D03*
X39255000Y21125000D03*
X38955000D03*
X38555000Y23150000D03*
Y23450000D03*
X38905000Y22425000D03*
X39205000D03*
X27650000Y22575000D03*
X27350000D03*
X37030000Y23075000D03*
X37330000D03*
X37030000Y23275000D03*
X37330000D03*
X38955000Y22975000D03*
X39255000D03*
X38555000Y22700000D03*
Y23000000D03*
X32875000Y19875000D03*
Y19575000D03*
X39305000Y19825000D03*
X39005000D03*
X32850000Y23050000D03*
Y23350000D03*
X32650000D03*
Y23050000D03*
X29230000Y23350000D03*
Y23650000D03*
X29030000Y23350000D03*
Y23650000D03*
X27650000Y22975000D03*
X27350000D03*
X28630000Y23350000D03*
Y23650000D03*
X28830000Y23350000D03*
Y23650000D03*
X32125000Y23025000D03*
Y23325000D03*
X29430000Y23650000D03*
Y23350000D03*
X35200000Y24600000D03*
Y24300000D03*
X35450000Y24600000D03*
Y24300000D03*
X35700000Y24600000D03*
Y24300000D03*
X37295000Y20495000D03*
Y20195000D03*
X38070000Y20620000D03*
X38457500D03*
X27650000Y23175000D03*
X27350000D03*
X27650000Y23550000D03*
X27350000D03*
X28555000Y20650000D03*
X28255000D03*
X28755000Y20350000D03*
Y20050000D03*
X27255000Y19900000D03*
Y19600000D03*
X27875000Y23175000D03*
X28175000D03*
X27875000Y23550000D03*
X28175000D03*
X29580000Y19900000D03*
X29880000D03*
X27350000Y22775000D03*
X27650000D03*
X27350000Y23375000D03*
X27650000D03*
X30105000Y20325000D03*
Y20025000D03*
X26650000Y21950000D03*
X26262500D03*
X37275000Y16900000D03*
Y17200000D03*
X35100000Y16825000D03*
Y17125000D03*
X37450000Y15250000D03*
X37150000D03*
X27455000Y19900000D03*
Y19600000D03*
X39475000Y17050000D03*
Y16750000D03*
X33550000Y16500000D03*
Y16200000D03*
X32450000Y16000000D03*
X32150000D03*
X38225000Y14425000D03*
Y14725000D03*
X35625000Y16000000D03*
X35325000D03*
X33700000D03*
X33400000D03*
X34350000Y16700000D03*
X34050000D03*
X36025000Y16850000D03*
Y17150000D03*
X29830000Y16350000D03*
X29530000D03*
X38905000Y22225000D03*
X39205000D03*
X29355000Y20350000D03*
Y20050000D03*
X38130000Y21950000D03*
X38430000D03*
X38905000D03*
X38605000D03*
X37305000Y21650000D03*
X37605000D03*
X37300000Y21425000D03*
X37600000D03*
X37305000Y21225000D03*
X37605000D03*
X38055000Y23500000D03*
X37755000D03*
X31550000Y20775000D03*
X31250000D03*
Y21500000D03*
X31550000D03*
X31155000Y17775000D03*
X31455000D03*
X30185000D03*
X30485000D03*
X29300000Y22075000D03*
Y22375000D03*
X31555000Y22275000D03*
X31255000D03*
X31555000Y21725000D03*
X31255000D03*
X34625000Y22450000D03*
X34925000D03*
X33375000Y23050000D03*
Y23350000D03*
X31700000Y19875000D03*
Y19575000D03*
X33075000Y19875000D03*
Y19575000D03*
X34625000Y22250000D03*
X34925000D03*
X33925000Y19875000D03*
Y19575000D03*
X37545000Y20195000D03*
Y20495000D03*
X29675000Y22075000D03*
Y22375000D03*
X29155000Y20350000D03*
Y20050000D03*
X28555000Y21500000D03*
X28255000D03*
X27875000Y22575000D03*
X28175000D03*
X27875000Y22975000D03*
X28175000D03*
X27280000Y21125000D03*
Y21275000D03*
X38730000Y22850000D03*
Y23000000D03*
X27430000Y21125000D03*
Y21275000D03*
X38425000Y14500000D03*
Y14650000D03*
X27190000Y17025000D03*
Y16475000D03*
Y15950000D03*
Y15400000D03*
X38730000Y23300000D03*
Y23150000D03*
X28700300Y16563900D03*
Y16386100D03*
X28990000Y16475000D03*
X28700300Y15613900D03*
Y15436100D03*
X28990000Y15525000D03*
X26175300Y16588900D03*
Y16411100D03*
X26465000Y16500000D03*
X26175300Y15513900D03*
Y15336100D03*
X26465000Y15425000D03*
X37255300Y19983900D03*
Y19806100D03*
X37545000Y19895000D03*
X27305000Y21600000D03*
Y21900000D03*
X28555000Y20850000D03*
X28255000D03*
X29875000Y22075000D03*
Y22375000D03*
X28955000Y20350000D03*
Y20050000D03*
X36787500Y15400000D03*
X36062500D03*
X37500000Y17200000D03*
Y16900000D03*
X35900000Y16200000D03*
Y16500000D03*
X34887500Y15400000D03*
X34162500D03*
X35100000Y17300000D03*
Y17600000D03*
X33355000Y14600000D03*
X33055000D03*
X33975000Y16200000D03*
Y16500000D03*
X27105000Y21425000D03*
Y21125000D03*
X35675000Y16200000D03*
Y16500000D03*
X33775000Y16200000D03*
Y16500000D03*
X28690000Y16750000D03*
X28990000D03*
X28690000Y15825000D03*
X28990000D03*
X26940000Y17000000D03*
X26640000D03*
X28990000Y16175000D03*
X28690000D03*
X26940000Y15925000D03*
X26640000D03*
X28990000Y15250000D03*
X28690000D03*
X28490000Y16600000D03*
Y16300000D03*
Y15625000D03*
Y15325000D03*
X28255000Y21050000D03*
X28555000D03*
X26640000Y16500000D03*
X26940000D03*
X26640000Y15425000D03*
X26940000D03*
X25690000Y16600000D03*
X25990000D03*
X25690000Y15525000D03*
X25990000D03*
Y16400000D03*
X25690000D03*
X25990000Y15325000D03*
X25690000D03*
X39255000Y21325000D03*
X38955000D03*
X39255000Y21125000D03*
X38955000D03*
X38555000Y23150000D03*
Y23450000D03*
X38905000Y22425000D03*
X39205000D03*
X27650000Y22575000D03*
X27350000D03*
X37030000Y23075000D03*
X37330000D03*
X37030000Y23275000D03*
X37330000D03*
X38955000Y22975000D03*
X39255000D03*
X38555000Y22700000D03*
Y23000000D03*
X32875000Y19875000D03*
Y19575000D03*
X39305000Y19825000D03*
X39005000D03*
X32850000Y23050000D03*
Y23350000D03*
X32650000D03*
Y23050000D03*
X29230000Y23350000D03*
Y23650000D03*
X29030000Y23350000D03*
Y23650000D03*
X27650000Y22975000D03*
X27350000D03*
X28630000Y23350000D03*
Y23650000D03*
X28830000Y23350000D03*
Y23650000D03*
X32125000Y23025000D03*
Y23325000D03*
X29430000Y23650000D03*
Y23350000D03*
X35200000Y24600000D03*
Y24300000D03*
X35450000Y24600000D03*
Y24300000D03*
X35700000Y24600000D03*
Y24300000D03*
X37295000Y20495000D03*
Y20195000D03*
X38070000Y20620000D03*
X38457500D03*
X27650000Y23175000D03*
X27350000D03*
X27650000Y23550000D03*
X27350000D03*
X28555000Y20650000D03*
X28255000D03*
X28755000Y20350000D03*
Y20050000D03*
G54D129*
X38975000Y17250000D03*
Y16550000D03*
X32850000Y15500000D03*
X32150000D03*
X35825000D03*
X35125000D03*
X33900000D03*
X33200000D03*
X33475000Y19875000D03*
Y19375000D03*
X32125000Y19875000D03*
Y19375000D03*
X38975000Y17250000D03*
Y16550000D03*
X32850000Y15500000D03*
X32150000D03*
X35825000D03*
X35125000D03*
X33900000D03*
X33200000D03*
X33475000Y19875000D03*
Y19375000D03*
X32125000Y19875000D03*
Y19375000D03*
G54D130*
X37550000Y14300000D03*
X35850000D03*
G54D131*
X28630000Y24050000D03*
G54D132*
X39040000Y11639988D03*
Y12140012D03*
G54D133*
X37030000Y16550000D02*
X37520000D01*
X37030000Y16050000D02*
X37520000D01*
X34675000Y17545000D02*
Y17055000D01*
X34175000Y17545000D02*
Y17055000D01*
G54D134*
X27189500Y20174480D02*
Y20301480D01*
X27316500Y20174480D02*
Y20301480D01*
X27443500Y20174480D02*
Y20301480D01*
X27570500Y20174480D02*
Y20301480D01*
Y20748520D02*
Y20875520D01*
X27443500Y20748520D02*
Y20875520D01*
X27316500Y20748520D02*
Y20875520D01*
X27189500Y20748520D02*
Y20875520D01*
X36515500Y16500520D02*
Y16373520D01*
X36388500Y16500520D02*
Y16373520D01*
X36261500Y16500520D02*
Y16373520D01*
X36134500Y16500520D02*
Y16373520D01*
Y15926480D02*
Y15799480D01*
X36261500Y15926480D02*
Y15799480D01*
X36388500Y15926480D02*
Y15799480D01*
X36515500Y15926480D02*
Y15799480D01*
X34615500Y16475520D02*
Y16348520D01*
X34488500Y16475520D02*
Y16348520D01*
X34361500Y16475520D02*
Y16348520D01*
X34234500Y16475520D02*
Y16348520D01*
Y15901480D02*
Y15774480D01*
X34361500Y15901480D02*
Y15774480D01*
X34488500Y15901480D02*
Y15774480D01*
X34615500Y15901480D02*
Y15774480D01*
X29364480Y16106000D02*
X29491480D01*
X29364480Y15979000D02*
X29491480D01*
X29364480Y15852000D02*
X29491480D01*
X29364480Y15725000D02*
X29491480D01*
X29364480Y15598000D02*
X29491480D01*
X29364480Y15471000D02*
X29491480D01*
X29364480Y15344000D02*
X29491480D01*
X29938520D02*
X30065520D01*
X29938520Y15471000D02*
X30065520D01*
X29938520Y15598000D02*
X30065520D01*
X29938520Y15725000D02*
X30065520D01*
X29938520Y15852000D02*
X30065520D01*
X29938520Y15979000D02*
X30065520D01*
X29938520Y16106000D02*
X30065520D01*
G54D135*
X31888640Y22275000D02*
X32061360D01*
X31888640Y22225000D02*
X32061360D01*
X31888640Y22175000D02*
X32061360D01*
X31888640Y22125000D02*
X32061360D01*
X31888640Y22075000D02*
X32061360D01*
X31888640Y22025000D02*
X32061360D01*
X31888640Y21975000D02*
X32061360D01*
X31888640Y21925000D02*
X32061360D01*
X31888640Y21875000D02*
X32061360D01*
X31888640Y21825000D02*
X32061360D01*
X31888640Y21775000D02*
X32061360D01*
X31888640Y21725000D02*
X32061360D01*
X31888640Y21675000D02*
X32061360D01*
X31888640Y21625000D02*
X32061360D01*
X31888640Y21575000D02*
X32061360D01*
X31888640Y21525000D02*
X32061360D01*
X31888640Y21475000D02*
X32061360D01*
X31888640Y21425000D02*
X32061360D01*
X31888640Y21375000D02*
X32061360D01*
X31888640Y21325000D02*
X32061360D01*
X31888640Y21275000D02*
X32061360D01*
X31888640Y21225000D02*
X32061360D01*
X31888640Y21175000D02*
X32061360D01*
X31888640Y21125000D02*
X32061360D01*
X31888640Y21075000D02*
X32061360D01*
X31888640Y21025000D02*
X32061360D01*
X31888640Y20975000D02*
X32061360D01*
X31888640Y20925000D02*
X32061360D01*
X31888640Y20875000D02*
X32061360D01*
X31888640Y20825000D02*
X32061360D01*
X31888640Y20775000D02*
X32061360D01*
X31888640Y20725000D02*
X32061360D01*
X31888640Y20675000D02*
X32061360D01*
X31888640Y20625000D02*
X32061360D01*
X31888640Y20575000D02*
X32061360D01*
X31888640Y20525000D02*
X32061360D01*
X32225000Y20188640D02*
Y20361360D01*
X32275000Y20188640D02*
Y20361360D01*
X32325000Y20188640D02*
Y20361360D01*
X32375000Y20188640D02*
Y20361360D01*
X32425000Y20188640D02*
Y20361360D01*
X32475000Y20188640D02*
Y20361360D01*
X32525000Y20188640D02*
Y20361360D01*
X32575000Y20188640D02*
Y20361360D01*
X32625000Y20188640D02*
Y20361360D01*
X32675000Y20188640D02*
Y20361360D01*
X32725000Y20188640D02*
Y20361360D01*
X32775000Y20188640D02*
Y20361360D01*
X32825000Y20188640D02*
Y20361360D01*
X32875000Y20188640D02*
Y20361360D01*
X32925000Y20188640D02*
Y20361360D01*
X32975000Y20188640D02*
Y20361360D01*
X33025000Y20188640D02*
Y20361360D01*
X33075000Y20188640D02*
Y20361360D01*
X33125000Y20188640D02*
Y20361360D01*
X33175000Y20188640D02*
Y20361360D01*
X33225000Y20188640D02*
Y20361360D01*
X33275000Y20188640D02*
Y20361360D01*
X33325000Y20188640D02*
Y20361360D01*
X33375000Y20188640D02*
Y20361360D01*
X33425000Y20188640D02*
Y20361360D01*
X33475000Y20188640D02*
Y20361360D01*
X33525000Y20188640D02*
Y20361360D01*
X33575000Y20188640D02*
Y20361360D01*
X33625000Y20188640D02*
Y20361360D01*
X33675000Y20188640D02*
Y20361360D01*
X33725000Y20188640D02*
Y20361360D01*
X33775000Y20188640D02*
Y20361360D01*
X33825000Y20188640D02*
Y20361360D01*
X33875000Y20188640D02*
Y20361360D01*
X33925000Y20188640D02*
Y20361360D01*
X33975000Y20188640D02*
Y20361360D01*
X34138640Y20525000D02*
X34311360D01*
X34138640Y20575000D02*
X34311360D01*
X34138640Y20625000D02*
X34311360D01*
X34138640Y20675000D02*
X34311360D01*
X34138640Y20725000D02*
X34311360D01*
X34138640Y20775000D02*
X34311360D01*
X34138640Y20825000D02*
X34311360D01*
X34138640Y20875000D02*
X34311360D01*
X34138640Y20925000D02*
X34311360D01*
X34138640Y20975000D02*
X34311360D01*
X34138640Y21025000D02*
X34311360D01*
X34138640Y21075000D02*
X34311360D01*
X34138640Y21125000D02*
X34311360D01*
X34138640Y21175000D02*
X34311360D01*
X34138640Y21225000D02*
X34311360D01*
X34138640Y21275000D02*
X34311360D01*
X34138640Y21325000D02*
X34311360D01*
X34138640Y21375000D02*
X34311360D01*
X34138640Y21425000D02*
X34311360D01*
X34138640Y21475000D02*
X34311360D01*
X34138640Y21525000D02*
X34311360D01*
X34138640Y21575000D02*
X34311360D01*
X34138640Y21625000D02*
X34311360D01*
X34138640Y21675000D02*
X34311360D01*
X34138640Y21725000D02*
X34311360D01*
X34138640Y21775000D02*
X34311360D01*
X34138640Y21825000D02*
X34311360D01*
X34138640Y21875000D02*
X34311360D01*
X34138640Y21925000D02*
X34311360D01*
X34138640Y21975000D02*
X34311360D01*
X34138640Y22025000D02*
X34311360D01*
X34138640Y22075000D02*
X34311360D01*
X34138640Y22125000D02*
X34311360D01*
X34138640Y22175000D02*
X34311360D01*
X34138640Y22225000D02*
X34311360D01*
X34138640Y22275000D02*
X34311360D01*
X33975000Y22438640D02*
Y22611360D01*
X33925000Y22438640D02*
Y22611360D01*
X33875000Y22438640D02*
Y22611360D01*
X33825000Y22438640D02*
Y22611360D01*
X33775000Y22438640D02*
Y22611360D01*
X33725000Y22438640D02*
Y22611360D01*
X33675000Y22438640D02*
Y22611360D01*
X33625000Y22438640D02*
Y22611360D01*
X33575000Y22438640D02*
Y22611360D01*
X33525000Y22438640D02*
Y22611360D01*
X33475000Y22438640D02*
Y22611360D01*
X33425000Y22438640D02*
Y22611360D01*
X33375000Y22438640D02*
Y22611360D01*
X33325000Y22438640D02*
Y22611360D01*
X33275000Y22438640D02*
Y22611360D01*
X33225000Y22438640D02*
Y22611360D01*
X33175000Y22438640D02*
Y22611360D01*
X33125000Y22438640D02*
Y22611360D01*
X33075000Y22438640D02*
Y22611360D01*
X33025000Y22438640D02*
Y22611360D01*
X32975000Y22438640D02*
Y22611360D01*
X32925000Y22438640D02*
Y22611360D01*
X32875000Y22438640D02*
Y22611360D01*
X32825000Y22438640D02*
Y22611360D01*
X32775000Y22438640D02*
Y22611360D01*
X32725000Y22438640D02*
Y22611360D01*
X32675000Y22438640D02*
Y22611360D01*
X32625000Y22438640D02*
Y22611360D01*
X32575000Y22438640D02*
Y22611360D01*
X32525000Y22438640D02*
Y22611360D01*
X32475000Y22438640D02*
Y22611360D01*
X32425000Y22438640D02*
Y22611360D01*
X32375000Y22438640D02*
Y22611360D01*
X32325000Y22438640D02*
Y22611360D01*
X32275000Y22438640D02*
Y22611360D01*
X32225000Y22438640D02*
Y22611360D01*
G54D136*
X29655000Y21813900D02*
Y21636100D01*
X29605000Y21813900D02*
Y21636100D01*
X29555000Y21813900D02*
Y21636100D01*
X29505000Y21813900D02*
Y21636100D01*
X29455000Y21813900D02*
Y21636100D01*
X29405000Y21813900D02*
Y21636100D01*
X29355000Y21813900D02*
Y21636100D01*
X29305000Y21813900D02*
Y21636100D01*
X29255000Y21813900D02*
Y21636100D01*
X29205000Y21813900D02*
Y21636100D01*
X29155000Y21813900D02*
Y21636100D01*
X29105000Y21813900D02*
Y21636100D01*
X28841100Y21550000D02*
X29018900D01*
X28841100Y21500000D02*
X29018900D01*
X28841100Y21450000D02*
X29018900D01*
X28841100Y21400000D02*
X29018900D01*
X28841100Y21350000D02*
X29018900D01*
X28841100Y21300000D02*
X29018900D01*
X28841100Y21250000D02*
X29018900D01*
X28841100Y21200000D02*
X29018900D01*
X28841100Y21150000D02*
X29018900D01*
X28841100Y21100000D02*
X29018900D01*
X28841100Y21050000D02*
X29018900D01*
X28841100Y21000000D02*
X29018900D01*
X29105000Y20913900D02*
Y20736100D01*
X29155000Y20913900D02*
Y20736100D01*
X29205000Y20913900D02*
Y20736100D01*
X29255000Y20913900D02*
Y20736100D01*
X29305000Y20913900D02*
Y20736100D01*
X29355000Y20913900D02*
Y20736100D01*
X29405000Y20913900D02*
Y20736100D01*
X29455000Y20913900D02*
Y20736100D01*
X29505000Y20913900D02*
Y20736100D01*
X29555000Y20913900D02*
Y20736100D01*
X29605000Y20913900D02*
Y20736100D01*
X29655000Y20913900D02*
Y20736100D01*
X29741100Y21000000D02*
X29918900D01*
X29741100Y21050000D02*
X29918900D01*
X29741100Y21100000D02*
X29918900D01*
X29741100Y21150000D02*
X29918900D01*
X29741100Y21200000D02*
X29918900D01*
X29741100Y21250000D02*
X29918900D01*
X29741100Y21300000D02*
X29918900D01*
X29741100Y21350000D02*
X29918900D01*
X29741100Y21400000D02*
X29918900D01*
X29741100Y21450000D02*
X29918900D01*
X29741100Y21500000D02*
X29918900D01*
X29741100Y21550000D02*
X29918900D01*
G54D137*
X26175000Y22850000D03*
G54D138*
X26352800Y22951600D03*
X26175000Y23053200D03*
X26352800Y23154800D03*
X26175000Y23256400D03*
X26352800Y23358000D03*
X26175000Y23459600D03*
X26352800Y23561200D03*
X26835400Y23891400D03*
Y23662800D03*
Y22748400D03*
Y22519800D03*
G54D139*
X25921000Y23840600D03*
Y22570600D03*
G54D140*
X37890150Y21702500D02*
X38029850D01*
X37890150Y21637500D02*
X38029850D01*
X37890150Y21572500D02*
X38029850D01*
X37890150Y21507500D02*
X38029850D01*
X37890150Y21442500D02*
X38029850D01*
X37890150Y21377500D02*
X38029850D01*
X37890150Y21312500D02*
X38029850D01*
X37890150Y21247500D02*
X38029850D01*
X38530150D02*
X38669850D01*
X38530150Y21312500D02*
X38669850D01*
X38530150Y21377500D02*
X38669850D01*
X38530150Y21442500D02*
X38669850D01*
X38530150Y21507500D02*
X38669850D01*
X38530150Y21572500D02*
X38669850D01*
X38530150Y21637500D02*
X38669850D01*
X38530150Y21702500D02*
X38669850D01*
G54D141*
X38391824Y22290000D02*
X38478184D01*
X38391824Y22225000D02*
X38478184D01*
X38391824Y22160001D02*
X38478184D01*
X38581816D02*
X38668176D01*
X38581816Y22225000D02*
X38668176D01*
X38581816Y22289999D02*
X38668176D01*
G54D142*
X36430000Y23350000D03*
Y18450000D03*
X30630000Y23350000D03*
Y18450000D03*
G54D143*
X25800000Y25000000D03*
X39260000D03*
Y13100000D03*
X25800000D03*
Y10800000D03*
X39260000D03*
X0Y0D02*
M02*
