*
*
G04 PADS Layout (Build Number 2005.266.2) generated Gerber (RS-274-X) file*
G04 PC Version=2.1*
*
%IN "cflora_base_1125.pcb"*%
*
%MOMM*%
*
%FSLAX35Y35*%
*
*
*
*
G04 PC Standard Apertures*
*
*
G04 Thermal Relief Aperture macro.*
%AMTER*
1,1,$1,0,0*
1,0,$1-$2,0,0*
21,0,$3,$4,0,0,45*
21,0,$3,$4,0,0,135*
%
*
*
G04 Annular Aperture macro.*
%AMANN*
1,1,$1,0,0*
1,0,$2,0,0*
%
*
*
G04 Odd Aperture macro.*
%AMODD*
1,1,$1,0,0*
1,0,$1-0.005,0,0*
%
*
*
G04 PC Custom Aperture Macros*
*
*
*
*
*
*
G04 PC Aperture Table*
*
%ADD042R,2.54X2.54*%
%ADD045O,2.032X0.508*%
%ADD058C,0.254*%
%ADD059C,0.3048*%
%ADD069R,1.5X1.5*%
%ADD101R,2X2*%
%ADD108R,3.3X3.3*%
%ADD109C,0.6096*%
%ADD110C,0.508*%
%ADD114C,0.381*%
%ADD115R,0.4064X0.4064*%
%ADD116R,1.2X1.2*%
*
*
*
*
G04 PC Custom Flashes*
G04 Layer Name cflora_base_1125.pcb - flashes*
%LPD*%
*
*
G04 PC Circuitry*
G04 Layer Name cflora_base_1125.pcb - circuitry*
%LPD*%
*
G54D42*
G01X31295600Y22000000D02*
X30889200D01*
G54D45*
X37619250Y23265500D03*
Y23138500D03*
Y23011500D03*
Y22884500D03*
X38190750D03*
Y23011500D03*
Y23138500D03*
Y23265500D03*
G54D58*
X29655000Y21813900D02*
Y21636100D01*
X29605000Y21813900D02*
Y21636100D01*
X29555000Y21813900D02*
Y21636100D01*
X29505000Y21813900D02*
Y21636100D01*
X29455000Y21813900D02*
Y21636100D01*
X29405000Y21813900D02*
Y21636100D01*
X29355000Y21813900D02*
Y21636100D01*
X29305000Y21813900D02*
Y21636100D01*
X29255000Y21813900D02*
Y21636100D01*
X29205000Y21813900D02*
Y21636100D01*
X29155000Y21813900D02*
Y21636100D01*
X29105000Y21813900D02*
Y21636100D01*
X28841100Y21550000D02*
X29018900D01*
X28841100Y21500000D02*
X29018900D01*
X28841100Y21450000D02*
X29018900D01*
X28841100Y21400000D02*
X29018900D01*
X28841100Y21350000D02*
X29018900D01*
X28841100Y21300000D02*
X29018900D01*
X28841100Y21250000D02*
X29018900D01*
X28841100Y21200000D02*
X29018900D01*
X28841100Y21150000D02*
X29018900D01*
X28841100Y21100000D02*
X29018900D01*
X28841100Y21050000D02*
X29018900D01*
X28841100Y21000000D02*
X29018900D01*
X29105000Y20913900D02*
Y20736100D01*
X29155000Y20913900D02*
Y20736100D01*
X29205000Y20913900D02*
Y20736100D01*
X29255000Y20913900D02*
Y20736100D01*
X29305000Y20913900D02*
Y20736100D01*
X29355000Y20913900D02*
Y20736100D01*
X29405000Y20913900D02*
Y20736100D01*
X29455000Y20913900D02*
Y20736100D01*
X29505000Y20913900D02*
Y20736100D01*
X29555000Y20913900D02*
Y20736100D01*
X29605000Y20913900D02*
Y20736100D01*
X29655000Y20913900D02*
Y20736100D01*
X29741100Y21000000D02*
X29918900D01*
X29741100Y21050000D02*
X29918900D01*
X29741100Y21100000D02*
X29918900D01*
X29741100Y21150000D02*
X29918900D01*
X29741100Y21200000D02*
X29918900D01*
X29741100Y21250000D02*
X29918900D01*
X29741100Y21300000D02*
X29918900D01*
X29741100Y21350000D02*
X29918900D01*
X29741100Y21400000D02*
X29918900D01*
X29741100Y21450000D02*
X29918900D01*
X29741100Y21500000D02*
X29918900D01*
X29741100Y21550000D02*
X29918900D01*
X27292300Y19887300D02*
Y19812700D01*
X27217700*
Y19887300*
X27292300*
X27217700Y19812700D02*
X27292300D01*
X27217700Y19838100D02*
X27292300D01*
X27217700Y19863500D02*
X27292300D01*
X27228800Y19812700D02*
Y19887300D01*
X27254200Y19812700D02*
Y19887300D01*
X27279600Y19812700D02*
Y19887300D01*
X27292300Y19612700D02*
Y19687300D01*
X27217700*
Y19612700*
X27292300*
X27217700D02*
X27292300D01*
X27217700Y19638100D02*
X27292300D01*
X27217700Y19663500D02*
X27292300D01*
X27228800Y19612700D02*
Y19687300D01*
X27254200Y19612700D02*
Y19687300D01*
X27279600Y19612700D02*
Y19687300D01*
X28162300Y23212300D02*
X28087700D01*
Y23137700*
X28162300*
Y23212300*
X28087700Y23137700D02*
X28162300D01*
X28087700Y23163100D02*
X28162300D01*
X28087700Y23188500D02*
X28162300D01*
X28092400Y23137700D02*
Y23212300D01*
X28117800Y23137700D02*
Y23212300D01*
X28143200Y23137700D02*
Y23212300D01*
X27887700D02*
X27962300D01*
Y23137700*
X27887700*
Y23212300*
Y23137700D02*
X27962300D01*
X27887700Y23163100D02*
X27962300D01*
X27887700Y23188500D02*
X27962300D01*
X27889200Y23137700D02*
Y23212300D01*
X27914600Y23137700D02*
Y23212300D01*
X27940000Y23137700D02*
Y23212300D01*
X28162300Y23587300D02*
X28087700D01*
Y23512700*
X28162300*
Y23587300*
X28087700Y23512700D02*
X28162300D01*
X28087700Y23538100D02*
X28162300D01*
X28087700Y23563500D02*
X28162300D01*
X28092400Y23512700D02*
Y23587300D01*
X28117800Y23512700D02*
Y23587300D01*
X28143200Y23512700D02*
Y23587300D01*
X27887700D02*
X27962300D01*
Y23512700*
X27887700*
Y23587300*
Y23512700D02*
X27962300D01*
X27887700Y23538100D02*
X27962300D01*
X27887700Y23563500D02*
X27962300D01*
X27889200Y23512700D02*
Y23587300D01*
X27914600Y23512700D02*
Y23587300D01*
X27940000Y23512700D02*
Y23587300D01*
X29867300Y19937300D02*
X29792700D01*
Y19862700*
X29867300*
Y19937300*
X29792700Y19862700D02*
X29867300D01*
X29792700Y19888100D02*
X29867300D01*
X29792700Y19913500D02*
X29867300D01*
X29794200Y19862700D02*
Y19937300D01*
X29819600Y19862700D02*
Y19937300D01*
X29845000Y19862700D02*
Y19937300D01*
X29592700D02*
X29667300D01*
Y19862700*
X29592700*
Y19937300*
Y19862700D02*
X29667300D01*
X29592700Y19888100D02*
X29667300D01*
X29592700Y19913500D02*
X29667300D01*
X29616400Y19862700D02*
Y19937300D01*
X29641800Y19862700D02*
Y19937300D01*
X29667200Y19862700D02*
Y19937300D01*
X27637300Y22812300D02*
X27562700D01*
Y22737700*
X27637300*
Y22812300*
X27562700Y22737700D02*
X27637300D01*
X27562700Y22763100D02*
X27637300D01*
X27562700Y22788500D02*
X27637300D01*
X27584400Y22737700D02*
Y22812300D01*
X27609800Y22737700D02*
Y22812300D01*
X27635200Y22737700D02*
Y22812300D01*
X27362700D02*
X27437300D01*
Y22737700*
X27362700*
Y22812300*
Y22737700D02*
X27437300D01*
X27362700Y22763100D02*
X27437300D01*
X27362700Y22788500D02*
X27437300D01*
X27381200Y22737700D02*
Y22812300D01*
X27406600Y22737700D02*
Y22812300D01*
X27432000Y22737700D02*
Y22812300D01*
X27637300Y23412300D02*
X27562700D01*
Y23337700*
X27637300*
Y23412300*
X27562700Y23337700D02*
X27637300D01*
X27562700Y23363100D02*
X27637300D01*
X27562700Y23388500D02*
X27637300D01*
X27584400Y23337700D02*
Y23412300D01*
X27609800Y23337700D02*
Y23412300D01*
X27635200Y23337700D02*
Y23412300D01*
X27362700D02*
X27437300D01*
Y23337700*
X27362700*
Y23412300*
Y23337700D02*
X27437300D01*
X27362700Y23363100D02*
X27437300D01*
X27362700Y23388500D02*
X27437300D01*
X27381200Y23337700D02*
Y23412300D01*
X27406600Y23337700D02*
Y23412300D01*
X27432000Y23337700D02*
Y23412300D01*
X30142300Y20312300D02*
Y20237700D01*
X30067700*
Y20312300*
X30142300*
X30067700Y20237700D02*
X30142300D01*
X30067700Y20263100D02*
X30142300D01*
X30067700Y20288500D02*
X30142300D01*
X30073600Y20237700D02*
Y20312300D01*
X30099000Y20237700D02*
Y20312300D01*
X30124400Y20237700D02*
Y20312300D01*
X30142300Y20037700D02*
Y20112300D01*
X30067700*
Y20037700*
X30142300*
X30067700D02*
X30142300D01*
X30067700Y20063100D02*
X30142300D01*
X30067700Y20088500D02*
X30142300D01*
X30073600Y20037700D02*
Y20112300D01*
X30099000Y20037700D02*
Y20112300D01*
X30124400Y20037700D02*
Y20112300D01*
X26250200Y22024800D02*
X26387300D01*
Y21875200*
X26250200*
Y22024800*
Y21875200D02*
X26387300D01*
X26250200Y21900600D02*
X26387300D01*
X26250200Y21926000D02*
X26387300D01*
X26250200Y21951400D02*
X26387300D01*
X26250200Y21976800D02*
X26387300D01*
X26250200Y22002200D02*
X26387300D01*
X26263600Y21875200D02*
Y22024800D01*
X26289000Y21875200D02*
Y22024800D01*
X26314400Y21875200D02*
Y22024800D01*
X26339800Y21875200D02*
Y22024800D01*
X26365200Y21875200D02*
Y22024800D01*
X26512700D02*
X26662300D01*
Y21875200*
X26512700*
Y22024800*
Y21875200D02*
X26662300D01*
X26512700Y21900600D02*
X26662300D01*
X26512700Y21926000D02*
X26662300D01*
X26512700Y21951400D02*
X26662300D01*
X26512700Y21976800D02*
X26662300D01*
X26512700Y22002200D02*
X26662300D01*
X26517600Y21875200D02*
Y22024800D01*
X26543000Y21875200D02*
Y22024800D01*
X26568400Y21875200D02*
Y22024800D01*
X26593800Y21875200D02*
Y22024800D01*
X26619200Y21875200D02*
Y22024800D01*
X26644600Y21875200D02*
Y22024800D01*
X37237700Y17187300D02*
Y17112700D01*
X37312300*
Y17187300*
X37237700*
Y17112700D02*
X37312300D01*
X37237700Y17138100D02*
X37312300D01*
X37237700Y17163500D02*
X37312300D01*
X37261800Y17112700D02*
Y17187300D01*
X37287200Y17112700D02*
Y17187300D01*
X37237700Y16912700D02*
Y16987300D01*
X37312300*
Y16912700*
X37237700*
X37312300*
X37237700Y16938100D02*
X37312300D01*
X37237700Y16963500D02*
X37312300D01*
X37261800Y16912700D02*
Y16987300D01*
X37287200Y16912700D02*
Y16987300D01*
X35062700Y17112300D02*
Y17037700D01*
X35137300*
Y17112300*
X35062700*
Y17037700D02*
X35137300D01*
X35062700Y17063100D02*
X35137300D01*
X35062700Y17088500D02*
X35137300D01*
X35077400Y17037700D02*
Y17112300D01*
X35102800Y17037700D02*
Y17112300D01*
X35128200Y17037700D02*
Y17112300D01*
X35062700Y16837700D02*
Y16912300D01*
X35137300*
Y16837700*
X35062700*
X35137300*
X35062700Y16863100D02*
X35137300D01*
X35062700Y16888500D02*
X35137300D01*
X35077400Y16837700D02*
Y16912300D01*
X35102800Y16837700D02*
Y16912300D01*
X35128200Y16837700D02*
Y16912300D01*
X37162700Y15212700D02*
X37237300D01*
Y15287300*
X37162700*
Y15212700*
X37237300*
X37162700Y15238100D02*
X37237300D01*
X37162700Y15263500D02*
X37237300D01*
X37185600Y15212700D02*
Y15287300D01*
X37211000Y15212700D02*
Y15287300D01*
X37236400Y15212700D02*
Y15287300D01*
X37437300Y15212700D02*
X37362700D01*
Y15287300*
X37437300*
Y15212700*
X37362700D02*
X37437300D01*
X37362700Y15238100D02*
X37437300D01*
X37362700Y15263500D02*
X37437300D01*
X37363400Y15212700D02*
Y15287300D01*
X37388800Y15212700D02*
Y15287300D01*
X37414200Y15212700D02*
Y15287300D01*
X27492300Y19887300D02*
Y19812700D01*
X27417700*
Y19887300*
X27492300*
X27417700Y19812700D02*
X27492300D01*
X27417700Y19838100D02*
X27492300D01*
X27417700Y19863500D02*
X27492300D01*
X27432000Y19812700D02*
Y19887300D01*
X27457400Y19812700D02*
Y19887300D01*
X27482800Y19812700D02*
Y19887300D01*
X27492300Y19612700D02*
Y19687300D01*
X27417700*
Y19612700*
X27492300*
X27417700D02*
X27492300D01*
X27417700Y19638100D02*
X27492300D01*
X27417700Y19663500D02*
X27492300D01*
X27432000Y19612700D02*
Y19687300D01*
X27457400Y19612700D02*
Y19687300D01*
X27482800Y19612700D02*
Y19687300D01*
X39512300Y17037300D02*
Y16962700D01*
X39437700*
Y17037300*
X39512300*
X39437700Y16962700D02*
X39512300D01*
X39437700Y16988100D02*
X39512300D01*
X39437700Y17013500D02*
X39512300D01*
X39446200Y16962700D02*
Y17037300D01*
X39471600Y16962700D02*
Y17037300D01*
X39497000Y16962700D02*
Y17037300D01*
X39512300Y16762700D02*
Y16837300D01*
X39437700*
Y16762700*
X39512300*
X39437700D02*
X39512300D01*
X39437700Y16788100D02*
X39512300D01*
X39437700Y16813500D02*
X39512300D01*
X39446200Y16762700D02*
Y16837300D01*
X39471600Y16762700D02*
Y16837300D01*
X39497000Y16762700D02*
Y16837300D01*
X33587300Y16487300D02*
Y16412700D01*
X33512700*
Y16487300*
X33587300*
X33512700Y16412700D02*
X33587300D01*
X33512700Y16438100D02*
X33587300D01*
X33512700Y16463500D02*
X33587300D01*
X33528000Y16412700D02*
Y16487300D01*
X33553400Y16412700D02*
Y16487300D01*
X33578800Y16412700D02*
Y16487300D01*
X33587300Y16212700D02*
Y16287300D01*
X33512700*
Y16212700*
X33587300*
X33512700D02*
X33587300D01*
X33512700Y16238100D02*
X33587300D01*
X33512700Y16263500D02*
X33587300D01*
X33528000Y16212700D02*
Y16287300D01*
X33553400Y16212700D02*
Y16287300D01*
X33578800Y16212700D02*
Y16287300D01*
X32162700Y15962700D02*
X32237300D01*
Y16037300*
X32162700*
Y15962700*
X32237300*
X32162700Y15988100D02*
X32237300D01*
X32162700Y16013500D02*
X32237300D01*
X32181800Y15962700D02*
Y16037300D01*
X32207200Y15962700D02*
Y16037300D01*
X32232600Y15962700D02*
Y16037300D01*
X32437300Y15962700D02*
X32362700D01*
Y16037300*
X32437300*
Y15962700*
X32362700D02*
X32437300D01*
X32362700Y15988100D02*
X32437300D01*
X32362700Y16013500D02*
X32437300D01*
X32385000Y15962700D02*
Y16037300D01*
X32410400Y15962700D02*
Y16037300D01*
X32435800Y15962700D02*
Y16037300D01*
X38187700Y14712300D02*
Y14637700D01*
X38262300*
Y14712300*
X38187700*
Y14637700D02*
X38262300D01*
X38187700Y14663100D02*
X38262300D01*
X38187700Y14688500D02*
X38262300D01*
X38201600Y14637700D02*
Y14712300D01*
X38227000Y14637700D02*
Y14712300D01*
X38252400Y14637700D02*
Y14712300D01*
X38187700Y14437700D02*
Y14512300D01*
X38262300*
Y14437700*
X38187700*
X38262300*
X38187700Y14463100D02*
X38262300D01*
X38187700Y14488500D02*
X38262300D01*
X38201600Y14437700D02*
Y14512300D01*
X38227000Y14437700D02*
Y14512300D01*
X38252400Y14437700D02*
Y14512300D01*
X35337700Y15962700D02*
X35412300D01*
Y16037300*
X35337700*
Y15962700*
X35412300*
X35337700Y15988100D02*
X35412300D01*
X35337700Y16013500D02*
X35412300D01*
X35356800Y15962700D02*
Y16037300D01*
X35382200Y15962700D02*
Y16037300D01*
X35407600Y15962700D02*
Y16037300D01*
X35612300Y15962700D02*
X35537700D01*
Y16037300*
X35612300*
Y15962700*
X35537700D02*
X35612300D01*
X35537700Y15988100D02*
X35612300D01*
X35537700Y16013500D02*
X35612300D01*
X35560000Y15962700D02*
Y16037300D01*
X35585400Y15962700D02*
Y16037300D01*
X35610800Y15962700D02*
Y16037300D01*
X33412700Y15962700D02*
X33487300D01*
Y16037300*
X33412700*
Y15962700*
X33487300*
X33412700Y15988100D02*
X33487300D01*
X33412700Y16013500D02*
X33487300D01*
X33426400Y15962700D02*
Y16037300D01*
X33451800Y15962700D02*
Y16037300D01*
X33477200Y15962700D02*
Y16037300D01*
X33687300Y15962700D02*
X33612700D01*
Y16037300*
X33687300*
Y15962700*
X33612700D02*
X33687300D01*
X33612700Y15988100D02*
X33687300D01*
X33612700Y16013500D02*
X33687300D01*
X33629600Y15962700D02*
Y16037300D01*
X33655000Y15962700D02*
Y16037300D01*
X33680400Y15962700D02*
Y16037300D01*
X34062700Y16662700D02*
X34137300D01*
Y16737300*
X34062700*
Y16662700*
X34137300*
X34062700Y16688100D02*
X34137300D01*
X34062700Y16713500D02*
X34137300D01*
X34086800Y16662700D02*
Y16737300D01*
X34112200Y16662700D02*
Y16737300D01*
X34337300Y16662700D02*
X34262700D01*
Y16737300*
X34337300*
Y16662700*
X34262700D02*
X34337300D01*
X34262700Y16688100D02*
X34337300D01*
X34262700Y16713500D02*
X34337300D01*
X34264600Y16662700D02*
Y16737300D01*
X34290000Y16662700D02*
Y16737300D01*
X34315400Y16662700D02*
Y16737300D01*
X35987700Y17137300D02*
Y17062700D01*
X36062300*
Y17137300*
X35987700*
Y17062700D02*
X36062300D01*
X35987700Y17088100D02*
X36062300D01*
X35987700Y17113500D02*
X36062300D01*
X35991800Y17062700D02*
Y17137300D01*
X36017200Y17062700D02*
Y17137300D01*
X36042600Y17062700D02*
Y17137300D01*
X35987700Y16862700D02*
Y16937300D01*
X36062300*
Y16862700*
X35987700*
X36062300*
X35987700Y16888100D02*
X36062300D01*
X35987700Y16913500D02*
X36062300D01*
X35991800Y16862700D02*
Y16937300D01*
X36017200Y16862700D02*
Y16937300D01*
X36042600Y16862700D02*
Y16937300D01*
X29542700Y16312700D02*
X29617300D01*
Y16387300*
X29542700*
Y16312700*
X29617300*
X29542700Y16338100D02*
X29617300D01*
X29542700Y16363500D02*
X29617300D01*
X29565600Y16312700D02*
Y16387300D01*
X29591000Y16312700D02*
Y16387300D01*
X29616400Y16312700D02*
Y16387300D01*
X29817300Y16312700D02*
X29742700D01*
Y16387300*
X29817300*
Y16312700*
X29742700D02*
X29817300D01*
X29742700Y16338100D02*
X29817300D01*
X29742700Y16363500D02*
X29817300D01*
X29743400Y16312700D02*
Y16387300D01*
X29768800Y16312700D02*
Y16387300D01*
X29794200Y16312700D02*
Y16387300D01*
X39192300Y22262300D02*
X39117700D01*
Y22187700*
X39192300*
Y22262300*
X39117700Y22187700D02*
X39192300D01*
X39117700Y22213100D02*
X39192300D01*
X39117700Y22238500D02*
X39192300D01*
X39141400Y22187700D02*
Y22262300D01*
X39166800Y22187700D02*
Y22262300D01*
X39192200Y22187700D02*
Y22262300D01*
X38917700D02*
X38992300D01*
Y22187700*
X38917700*
Y22262300*
Y22187700D02*
X38992300D01*
X38917700Y22213100D02*
X38992300D01*
X38917700Y22238500D02*
X38992300D01*
X38938200Y22187700D02*
Y22262300D01*
X38963600Y22187700D02*
Y22262300D01*
X38989000Y22187700D02*
Y22262300D01*
X29392300Y20337300D02*
Y20262700D01*
X29317700*
Y20337300*
X29392300*
X29317700Y20262700D02*
X29392300D01*
X29317700Y20288100D02*
X29392300D01*
X29317700Y20313500D02*
X29392300D01*
X29337000Y20262700D02*
Y20337300D01*
X29362400Y20262700D02*
Y20337300D01*
X29387800Y20262700D02*
Y20337300D01*
X29392300Y20062700D02*
Y20137300D01*
X29317700*
Y20062700*
X29392300*
X29317700D02*
X29392300D01*
X29317700Y20088100D02*
X29392300D01*
X29317700Y20113500D02*
X29392300D01*
X29337000Y20062700D02*
Y20137300D01*
X29362400Y20062700D02*
Y20137300D01*
X29387800Y20062700D02*
Y20137300D01*
X38417300Y21987300D02*
X38342700D01*
Y21912700*
X38417300*
Y21987300*
X38342700Y21912700D02*
X38417300D01*
X38342700Y21938100D02*
X38417300D01*
X38342700Y21963500D02*
X38417300D01*
X38354000Y21912700D02*
Y21987300D01*
X38379400Y21912700D02*
Y21987300D01*
X38404800Y21912700D02*
Y21987300D01*
X38142700D02*
X38217300D01*
Y21912700*
X38142700*
Y21987300*
Y21912700D02*
X38217300D01*
X38142700Y21938100D02*
X38217300D01*
X38142700Y21963500D02*
X38217300D01*
X38150800Y21912700D02*
Y21987300D01*
X38176200Y21912700D02*
Y21987300D01*
X38201600Y21912700D02*
Y21987300D01*
X38617700Y21912700D02*
X38692300D01*
Y21987300*
X38617700*
Y21912700*
X38692300*
X38617700Y21938100D02*
X38692300D01*
X38617700Y21963500D02*
X38692300D01*
X38633400Y21912700D02*
Y21987300D01*
X38658800Y21912700D02*
Y21987300D01*
X38684200Y21912700D02*
Y21987300D01*
X38892300Y21912700D02*
X38817700D01*
Y21987300*
X38892300*
Y21912700*
X38817700D02*
X38892300D01*
X38817700Y21938100D02*
X38892300D01*
X38817700Y21963500D02*
X38892300D01*
X38836600Y21912700D02*
Y21987300D01*
X38862000Y21912700D02*
Y21987300D01*
X38887400Y21912700D02*
Y21987300D01*
X37592300Y21687300D02*
X37517700D01*
Y21612700*
X37592300*
Y21687300*
X37517700Y21612700D02*
X37592300D01*
X37517700Y21638100D02*
X37592300D01*
X37517700Y21663500D02*
X37592300D01*
X37541200Y21612700D02*
Y21687300D01*
X37566600Y21612700D02*
Y21687300D01*
X37592000Y21612700D02*
Y21687300D01*
X37317700D02*
X37392300D01*
Y21612700*
X37317700*
Y21687300*
Y21612700D02*
X37392300D01*
X37317700Y21638100D02*
X37392300D01*
X37317700Y21663500D02*
X37392300D01*
X37338000Y21612700D02*
Y21687300D01*
X37363400Y21612700D02*
Y21687300D01*
X37388800Y21612700D02*
Y21687300D01*
X37587300Y21462300D02*
X37512700D01*
Y21387700*
X37587300*
Y21462300*
X37512700Y21387700D02*
X37587300D01*
X37512700Y21413100D02*
X37587300D01*
X37512700Y21438500D02*
X37587300D01*
X37515800Y21387700D02*
Y21462300D01*
X37541200Y21387700D02*
Y21462300D01*
X37566600Y21387700D02*
Y21462300D01*
X37312700D02*
X37387300D01*
Y21387700*
X37312700*
Y21462300*
Y21387700D02*
X37387300D01*
X37312700Y21413100D02*
X37387300D01*
X37312700Y21438500D02*
X37387300D01*
X37338000Y21387700D02*
Y21462300D01*
X37363400Y21387700D02*
Y21462300D01*
X37592300Y21262300D02*
X37517700D01*
Y21187700*
X37592300*
Y21262300*
X37517700Y21187700D02*
X37592300D01*
X37517700Y21213100D02*
X37592300D01*
X37517700Y21238500D02*
X37592300D01*
X37541200Y21187700D02*
Y21262300D01*
X37566600Y21187700D02*
Y21262300D01*
X37592000Y21187700D02*
Y21262300D01*
X37317700D02*
X37392300D01*
Y21187700*
X37317700*
Y21262300*
Y21187700D02*
X37392300D01*
X37317700Y21213100D02*
X37392300D01*
X37317700Y21238500D02*
X37392300D01*
X37338000Y21187700D02*
Y21262300D01*
X37363400Y21187700D02*
Y21262300D01*
X37388800Y21187700D02*
Y21262300D01*
X37767700Y23462700D02*
X37842300D01*
Y23537300*
X37767700*
Y23462700*
X37842300*
X37767700Y23488100D02*
X37842300D01*
X37767700Y23513500D02*
X37842300D01*
X37769800Y23462700D02*
Y23537300D01*
X37795200Y23462700D02*
Y23537300D01*
X37820600Y23462700D02*
Y23537300D01*
X38042300Y23462700D02*
X37967700D01*
Y23537300*
X38042300*
Y23462700*
X37967700D02*
X38042300D01*
X37967700Y23488100D02*
X38042300D01*
X37967700Y23513500D02*
X38042300D01*
X37973000Y23462700D02*
Y23537300D01*
X37998400Y23462700D02*
Y23537300D01*
X38023800Y23462700D02*
Y23537300D01*
X31262700Y20737700D02*
X31337300D01*
Y20812300*
X31262700*
Y20737700*
X31337300*
X31262700Y20763100D02*
X31337300D01*
X31262700Y20788500D02*
X31337300D01*
X31267400Y20737700D02*
Y20812300D01*
X31292800Y20737700D02*
Y20812300D01*
X31318200Y20737700D02*
Y20812300D01*
X31537300Y20737700D02*
X31462700D01*
Y20812300*
X31537300*
Y20737700*
X31462700D02*
X31537300D01*
X31462700Y20763100D02*
X31537300D01*
X31462700Y20788500D02*
X31537300D01*
X31470600Y20737700D02*
Y20812300D01*
X31496000Y20737700D02*
Y20812300D01*
X31521400Y20737700D02*
Y20812300D01*
X31537300Y21537300D02*
X31462700D01*
Y21462700*
X31537300*
Y21537300*
X31462700Y21462700D02*
X31537300D01*
X31462700Y21488100D02*
X31537300D01*
X31462700Y21513500D02*
X31537300D01*
X31470600Y21462700D02*
Y21537300D01*
X31496000Y21462700D02*
Y21537300D01*
X31521400Y21462700D02*
Y21537300D01*
X31262700D02*
X31337300D01*
Y21462700*
X31262700*
Y21537300*
Y21462700D02*
X31337300D01*
X31262700Y21488100D02*
X31337300D01*
X31262700Y21513500D02*
X31337300D01*
X31267400Y21462700D02*
Y21537300D01*
X31292800Y21462700D02*
Y21537300D01*
X31318200Y21462700D02*
Y21537300D01*
X31442300Y17812300D02*
X31367700D01*
Y17737700*
X31442300*
Y17812300*
X31367700Y17737700D02*
X31442300D01*
X31367700Y17763100D02*
X31442300D01*
X31367700Y17788500D02*
X31442300D01*
X31369000Y17737700D02*
Y17812300D01*
X31394400Y17737700D02*
Y17812300D01*
X31419800Y17737700D02*
Y17812300D01*
X31167700D02*
X31242300D01*
Y17737700*
X31167700*
Y17812300*
Y17737700D02*
X31242300D01*
X31167700Y17763100D02*
X31242300D01*
X31167700Y17788500D02*
X31242300D01*
X31191200Y17737700D02*
Y17812300D01*
X31216600Y17737700D02*
Y17812300D01*
X31242000Y17737700D02*
Y17812300D01*
X30472300D02*
X30397700D01*
Y17737700*
X30472300*
Y17812300*
X30397700Y17737700D02*
X30472300D01*
X30397700Y17763100D02*
X30472300D01*
X30397700Y17788500D02*
X30472300D01*
X30403800Y17737700D02*
Y17812300D01*
X30429200Y17737700D02*
Y17812300D01*
X30454600Y17737700D02*
Y17812300D01*
X30197700D02*
X30272300D01*
Y17737700*
X30197700*
Y17812300*
Y17737700D02*
X30272300D01*
X30197700Y17763100D02*
X30272300D01*
X30197700Y17788500D02*
X30272300D01*
X30200600Y17737700D02*
Y17812300D01*
X30226000Y17737700D02*
Y17812300D01*
X30251400Y17737700D02*
Y17812300D01*
X29262700Y22362300D02*
Y22287700D01*
X29337300*
Y22362300*
X29262700*
Y22287700D02*
X29337300D01*
X29262700Y22313100D02*
X29337300D01*
X29262700Y22338500D02*
X29337300D01*
X29286200Y22287700D02*
Y22362300D01*
X29311600Y22287700D02*
Y22362300D01*
X29337000Y22287700D02*
Y22362300D01*
X29262700Y22087700D02*
Y22162300D01*
X29337300*
Y22087700*
X29262700*
X29337300*
X29262700Y22113100D02*
X29337300D01*
X29262700Y22138500D02*
X29337300D01*
X29286200Y22087700D02*
Y22162300D01*
X29311600Y22087700D02*
Y22162300D01*
X29337000Y22087700D02*
Y22162300D01*
X31267700Y22237700D02*
X31342300D01*
Y22312300*
X31267700*
Y22237700*
X31342300*
X31267700Y22263100D02*
X31342300D01*
X31267700Y22288500D02*
X31342300D01*
X31292800Y22237700D02*
Y22312300D01*
X31318200Y22237700D02*
Y22312300D01*
X31542300Y22237700D02*
X31467700D01*
Y22312300*
X31542300*
Y22237700*
X31467700D02*
X31542300D01*
X31467700Y22263100D02*
X31542300D01*
X31467700Y22288500D02*
X31542300D01*
X31470600Y22237700D02*
Y22312300D01*
X31496000Y22237700D02*
Y22312300D01*
X31521400Y22237700D02*
Y22312300D01*
X31267700Y21687700D02*
X31342300D01*
Y21762300*
X31267700*
Y21687700*
X31342300*
X31267700Y21713100D02*
X31342300D01*
X31267700Y21738500D02*
X31342300D01*
X31292800Y21687700D02*
Y21762300D01*
X31318200Y21687700D02*
Y21762300D01*
X31542300Y21687700D02*
X31467700D01*
Y21762300*
X31542300*
Y21687700*
X31467700D02*
X31542300D01*
X31467700Y21713100D02*
X31542300D01*
X31467700Y21738500D02*
X31542300D01*
X31470600Y21687700D02*
Y21762300D01*
X31496000Y21687700D02*
Y21762300D01*
X31521400Y21687700D02*
Y21762300D01*
X34912300Y22487300D02*
X34837700D01*
Y22412700*
X34912300*
Y22487300*
X34837700Y22412700D02*
X34912300D01*
X34837700Y22438100D02*
X34912300D01*
X34837700Y22463500D02*
X34912300D01*
X34848800Y22412700D02*
Y22487300D01*
X34874200Y22412700D02*
Y22487300D01*
X34899600Y22412700D02*
Y22487300D01*
X34637700D02*
X34712300D01*
Y22412700*
X34637700*
Y22487300*
Y22412700D02*
X34712300D01*
X34637700Y22438100D02*
X34712300D01*
X34637700Y22463500D02*
X34712300D01*
X34645600Y22412700D02*
Y22487300D01*
X34671000Y22412700D02*
Y22487300D01*
X34696400Y22412700D02*
Y22487300D01*
X33337700Y23337300D02*
Y23262700D01*
X33412300*
Y23337300*
X33337700*
Y23262700D02*
X33412300D01*
X33337700Y23288100D02*
X33412300D01*
X33337700Y23313500D02*
X33412300D01*
X33350200Y23262700D02*
Y23337300D01*
X33375600Y23262700D02*
Y23337300D01*
X33401000Y23262700D02*
Y23337300D01*
X33337700Y23062700D02*
Y23137300D01*
X33412300*
Y23062700*
X33337700*
X33412300*
X33337700Y23088100D02*
X33412300D01*
X33337700Y23113500D02*
X33412300D01*
X33350200Y23062700D02*
Y23137300D01*
X33375600Y23062700D02*
Y23137300D01*
X33401000Y23062700D02*
Y23137300D01*
X31737300Y19862300D02*
Y19787700D01*
X31662700*
Y19862300*
X31737300*
X31662700Y19787700D02*
X31737300D01*
X31662700Y19813100D02*
X31737300D01*
X31662700Y19838500D02*
X31737300D01*
X31673800Y19787700D02*
Y19862300D01*
X31699200Y19787700D02*
Y19862300D01*
X31724600Y19787700D02*
Y19862300D01*
X31737300Y19587700D02*
Y19662300D01*
X31662700*
Y19587700*
X31737300*
X31662700D02*
X31737300D01*
X31662700Y19613100D02*
X31737300D01*
X31662700Y19638500D02*
X31737300D01*
X31673800Y19587700D02*
Y19662300D01*
X31699200Y19587700D02*
Y19662300D01*
X31724600Y19587700D02*
Y19662300D01*
X33112300Y19862300D02*
Y19787700D01*
X33037700*
Y19862300*
X33112300*
X33037700Y19787700D02*
X33112300D01*
X33037700Y19813100D02*
X33112300D01*
X33037700Y19838500D02*
X33112300D01*
X33045400Y19787700D02*
Y19862300D01*
X33070800Y19787700D02*
Y19862300D01*
X33096200Y19787700D02*
Y19862300D01*
X33112300Y19587700D02*
Y19662300D01*
X33037700*
Y19587700*
X33112300*
X33037700D02*
X33112300D01*
X33037700Y19613100D02*
X33112300D01*
X33037700Y19638500D02*
X33112300D01*
X33045400Y19587700D02*
Y19662300D01*
X33070800Y19587700D02*
Y19662300D01*
X33096200Y19587700D02*
Y19662300D01*
X34912300Y22287300D02*
X34837700D01*
Y22212700*
X34912300*
Y22287300*
X34837700Y22212700D02*
X34912300D01*
X34837700Y22238100D02*
X34912300D01*
X34837700Y22263500D02*
X34912300D01*
X34848800Y22212700D02*
Y22287300D01*
X34874200Y22212700D02*
Y22287300D01*
X34899600Y22212700D02*
Y22287300D01*
X34637700D02*
X34712300D01*
Y22212700*
X34637700*
Y22287300*
Y22212700D02*
X34712300D01*
X34637700Y22238100D02*
X34712300D01*
X34637700Y22263500D02*
X34712300D01*
X34645600Y22212700D02*
Y22287300D01*
X34671000Y22212700D02*
Y22287300D01*
X34696400Y22212700D02*
Y22287300D01*
X33962300Y19862300D02*
Y19787700D01*
X33887700*
Y19862300*
X33962300*
X33887700Y19787700D02*
X33962300D01*
X33887700Y19813100D02*
X33962300D01*
X33887700Y19838500D02*
X33962300D01*
X33909000Y19787700D02*
Y19862300D01*
X33934400Y19787700D02*
Y19862300D01*
X33959800Y19787700D02*
Y19862300D01*
X33962300Y19587700D02*
Y19662300D01*
X33887700*
Y19587700*
X33962300*
X33887700D02*
X33962300D01*
X33887700Y19613100D02*
X33962300D01*
X33887700Y19638500D02*
X33962300D01*
X33909000Y19587700D02*
Y19662300D01*
X33934400Y19587700D02*
Y19662300D01*
X33959800Y19587700D02*
Y19662300D01*
X37507700Y20482300D02*
Y20407700D01*
X37582300*
Y20482300*
X37507700*
Y20407700D02*
X37582300D01*
X37507700Y20433100D02*
X37582300D01*
X37507700Y20458500D02*
X37582300D01*
X37515800Y20407700D02*
Y20482300D01*
X37541200Y20407700D02*
Y20482300D01*
X37566600Y20407700D02*
Y20482300D01*
X37507700Y20207700D02*
Y20282300D01*
X37582300*
Y20207700*
X37507700*
X37582300*
X37507700Y20233100D02*
X37582300D01*
X37507700Y20258500D02*
X37582300D01*
X37515800Y20207700D02*
Y20282300D01*
X37541200Y20207700D02*
Y20282300D01*
X37566600Y20207700D02*
Y20282300D01*
X29637700Y22362300D02*
Y22287700D01*
X29712300*
Y22362300*
X29637700*
Y22287700D02*
X29712300D01*
X29637700Y22313100D02*
X29712300D01*
X29637700Y22338500D02*
X29712300D01*
X29641800Y22287700D02*
Y22362300D01*
X29667200Y22287700D02*
Y22362300D01*
X29692600Y22287700D02*
Y22362300D01*
X29637700Y22087700D02*
Y22162300D01*
X29712300*
Y22087700*
X29637700*
X29712300*
X29637700Y22113100D02*
X29712300D01*
X29637700Y22138500D02*
X29712300D01*
X29641800Y22087700D02*
Y22162300D01*
X29667200Y22087700D02*
Y22162300D01*
X29692600Y22087700D02*
Y22162300D01*
X29192300Y20337300D02*
Y20262700D01*
X29117700*
Y20337300*
X29192300*
X29117700Y20262700D02*
X29192300D01*
X29117700Y20288100D02*
X29192300D01*
X29117700Y20313500D02*
X29192300D01*
X29133800Y20262700D02*
Y20337300D01*
X29159200Y20262700D02*
Y20337300D01*
X29184600Y20262700D02*
Y20337300D01*
X29192300Y20062700D02*
Y20137300D01*
X29117700*
Y20062700*
X29192300*
X29117700D02*
X29192300D01*
X29117700Y20088100D02*
X29192300D01*
X29117700Y20113500D02*
X29192300D01*
X29133800Y20062700D02*
Y20137300D01*
X29159200Y20062700D02*
Y20137300D01*
X29184600Y20062700D02*
Y20137300D01*
X28267700Y21462700D02*
X28342300D01*
Y21537300*
X28267700*
Y21462700*
X28342300*
X28267700Y21488100D02*
X28342300D01*
X28267700Y21513500D02*
X28342300D01*
X28270200Y21462700D02*
Y21537300D01*
X28295600Y21462700D02*
Y21537300D01*
X28321000Y21462700D02*
Y21537300D01*
X28542300Y21462700D02*
X28467700D01*
Y21537300*
X28542300*
Y21462700*
X28467700D02*
X28542300D01*
X28467700Y21488100D02*
X28542300D01*
X28467700Y21513500D02*
X28542300D01*
X28473400Y21462700D02*
Y21537300D01*
X28498800Y21462700D02*
Y21537300D01*
X28524200Y21462700D02*
Y21537300D01*
X28162300Y22612300D02*
X28087700D01*
Y22537700*
X28162300*
Y22612300*
X28087700Y22537700D02*
X28162300D01*
X28087700Y22563100D02*
X28162300D01*
X28087700Y22588500D02*
X28162300D01*
X28092400Y22537700D02*
Y22612300D01*
X28117800Y22537700D02*
Y22612300D01*
X28143200Y22537700D02*
Y22612300D01*
X27887700D02*
X27962300D01*
Y22537700*
X27887700*
Y22612300*
Y22537700D02*
X27962300D01*
X27887700Y22563100D02*
X27962300D01*
X27887700Y22588500D02*
X27962300D01*
X27889200Y22537700D02*
Y22612300D01*
X27914600Y22537700D02*
Y22612300D01*
X27940000Y22537700D02*
Y22612300D01*
X28162300Y23012300D02*
X28087700D01*
Y22937700*
X28162300*
Y23012300*
X28087700Y22937700D02*
X28162300D01*
X28087700Y22963100D02*
X28162300D01*
X28087700Y22988500D02*
X28162300D01*
X28092400Y22937700D02*
Y23012300D01*
X28117800Y22937700D02*
Y23012300D01*
X28143200Y22937700D02*
Y23012300D01*
X27887700D02*
X27962300D01*
Y22937700*
X27887700*
Y23012300*
Y22937700D02*
X27962300D01*
X27887700Y22963100D02*
X27962300D01*
X27887700Y22988500D02*
X27962300D01*
X27889200Y22937700D02*
Y23012300D01*
X27914600Y22937700D02*
Y23012300D01*
X27940000Y22937700D02*
Y23012300D01*
X27254600Y21262300D02*
Y21238100D01*
X27305400*
Y21262300*
X27254600*
Y21238100D02*
X27305400D01*
X27279600D02*
Y21262300D01*
X27305000Y21238100D02*
Y21262300D01*
X27254600Y21137700D02*
Y21161900D01*
X27305400*
Y21137700*
X27254600*
X27305400*
X27279600D02*
Y21161900D01*
X27305000Y21137700D02*
Y21161900D01*
X38704600Y22987300D02*
Y22963100D01*
X38755400*
Y22987300*
X38704600*
Y22963100D02*
X38755400D01*
X38709600D02*
Y22987300D01*
X38735000Y22963100D02*
Y22987300D01*
X38704600Y22862700D02*
Y22886900D01*
X38755400*
Y22862700*
X38704600*
X38755400*
X38709600D02*
Y22886900D01*
X38735000Y22862700D02*
Y22886900D01*
X27404600Y21262300D02*
Y21238100D01*
X27455400*
Y21262300*
X27404600*
Y21238100D02*
X27455400D01*
X27406600D02*
Y21262300D01*
X27432000Y21238100D02*
Y21262300D01*
X27404600Y21137700D02*
Y21161900D01*
X27455400*
Y21137700*
X27404600*
X27455400*
X27406600D02*
Y21161900D01*
X27432000Y21137700D02*
Y21161900D01*
X36262700Y17362300D02*
Y17162700D01*
X36487300*
Y17362300*
X36262700*
Y17162700D02*
X36487300D01*
X36262700Y17188100D02*
X36487300D01*
X36262700Y17213500D02*
X36487300D01*
X36262700Y17238900D02*
X36487300D01*
X36262700Y17264300D02*
X36487300D01*
X36262700Y17289700D02*
X36487300D01*
X36262700Y17315100D02*
X36487300D01*
X36262700Y17340500D02*
X36487300D01*
X36271200Y17162700D02*
Y17362300D01*
X36296600Y17162700D02*
Y17362300D01*
X36322000Y17162700D02*
Y17362300D01*
X36347400Y17162700D02*
Y17362300D01*
X36372800Y17162700D02*
Y17362300D01*
X36398200Y17162700D02*
Y17362300D01*
X36423600Y17162700D02*
Y17362300D01*
X36449000Y17162700D02*
Y17362300D01*
X36474400Y17162700D02*
Y17362300D01*
X36262700Y16737700D02*
Y16937300D01*
X36487300*
Y16737700*
X36262700*
X36487300*
X36262700Y16763100D02*
X36487300D01*
X36262700Y16788500D02*
X36487300D01*
X36262700Y16813900D02*
X36487300D01*
X36262700Y16839300D02*
X36487300D01*
X36262700Y16864700D02*
X36487300D01*
X36262700Y16890100D02*
X36487300D01*
X36262700Y16915500D02*
X36487300D01*
X36271200Y16737700D02*
Y16937300D01*
X36296600Y16737700D02*
Y16937300D01*
X36322000Y16737700D02*
Y16937300D01*
X36347400Y16737700D02*
Y16937300D01*
X36372800Y16737700D02*
Y16937300D01*
X36398200Y16737700D02*
Y16937300D01*
X36423600Y16737700D02*
Y16937300D01*
X36449000Y16737700D02*
Y16937300D01*
X36474400Y16737700D02*
Y16937300D01*
X35062300Y15937700D02*
Y16137300D01*
X34837700*
Y15937700*
X35062300*
X34837700D02*
X35062300D01*
X34837700Y15963100D02*
X35062300D01*
X34837700Y15988500D02*
X35062300D01*
X34837700Y16013900D02*
X35062300D01*
X34837700Y16039300D02*
X35062300D01*
X34837700Y16064700D02*
X35062300D01*
X34837700Y16090100D02*
X35062300D01*
X34837700Y16115500D02*
X35062300D01*
X34848800Y15937700D02*
Y16137300D01*
X34874200Y15937700D02*
Y16137300D01*
X34899600Y15937700D02*
Y16137300D01*
X34925000Y15937700D02*
Y16137300D01*
X34950400Y15937700D02*
Y16137300D01*
X34975800Y15937700D02*
Y16137300D01*
X35001200Y15937700D02*
Y16137300D01*
X35026600Y15937700D02*
Y16137300D01*
X35052000Y15937700D02*
Y16137300D01*
X35062300Y16562300D02*
Y16362700D01*
X34837700*
Y16562300*
X35062300*
X34837700Y16362700D02*
X35062300D01*
X34837700Y16388100D02*
X35062300D01*
X34837700Y16413500D02*
X35062300D01*
X34837700Y16438900D02*
X35062300D01*
X34837700Y16464300D02*
X35062300D01*
X34837700Y16489700D02*
X35062300D01*
X34837700Y16515100D02*
X35062300D01*
X34837700Y16540500D02*
X35062300D01*
X34848800Y16362700D02*
Y16562300D01*
X34874200Y16362700D02*
Y16562300D01*
X34899600Y16362700D02*
Y16562300D01*
X34925000Y16362700D02*
Y16562300D01*
X34950400Y16362700D02*
Y16562300D01*
X34975800Y16362700D02*
Y16562300D01*
X35001200Y16362700D02*
Y16562300D01*
X35026600Y16362700D02*
Y16562300D01*
X35052000Y16362700D02*
Y16562300D01*
X38399600Y14637300D02*
Y14613100D01*
X38450400*
Y14637300*
X38399600*
Y14613100D02*
X38450400D01*
X38404800D02*
Y14637300D01*
X38430200Y14613100D02*
Y14637300D01*
X38399600Y14512700D02*
Y14536900D01*
X38450400*
Y14512700*
X38399600*
X38450400*
X38404800D02*
Y14536900D01*
X38430200Y14512700D02*
Y14536900D01*
X27277300Y16462700D02*
Y16612300D01*
X27102700*
Y16462700*
X27277300*
X27102700D02*
X27277300D01*
X27102700Y16488100D02*
X27277300D01*
X27102700Y16513500D02*
X27277300D01*
X27102700Y16538900D02*
X27277300D01*
X27102700Y16564300D02*
X27277300D01*
X27102700Y16589700D02*
X27277300D01*
X27127200Y16462700D02*
Y16612300D01*
X27152600Y16462700D02*
Y16612300D01*
X27178000Y16462700D02*
Y16612300D01*
X27203400Y16462700D02*
Y16612300D01*
X27228800Y16462700D02*
Y16612300D01*
X27254200Y16462700D02*
Y16612300D01*
X27277300Y17037300D02*
Y16887700D01*
X27102700*
Y17037300*
X27277300*
X27102700Y16887700D02*
X27277300D01*
X27102700Y16913100D02*
X27277300D01*
X27102700Y16938500D02*
X27277300D01*
X27102700Y16963900D02*
X27277300D01*
X27102700Y16989300D02*
X27277300D01*
X27102700Y17014700D02*
X27277300D01*
X27127200Y16887700D02*
Y17037300D01*
X27152600Y16887700D02*
Y17037300D01*
X27178000Y16887700D02*
Y17037300D01*
X27203400Y16887700D02*
Y17037300D01*
X27228800Y16887700D02*
Y17037300D01*
X27254200Y16887700D02*
Y17037300D01*
X27277300Y15387700D02*
Y15537300D01*
X27102700*
Y15387700*
X27277300*
X27102700D02*
X27277300D01*
X27102700Y15413100D02*
X27277300D01*
X27102700Y15438500D02*
X27277300D01*
X27102700Y15463900D02*
X27277300D01*
X27102700Y15489300D02*
X27277300D01*
X27102700Y15514700D02*
X27277300D01*
X27127200Y15387700D02*
Y15537300D01*
X27152600Y15387700D02*
Y15537300D01*
X27178000Y15387700D02*
Y15537300D01*
X27203400Y15387700D02*
Y15537300D01*
X27228800Y15387700D02*
Y15537300D01*
X27254200Y15387700D02*
Y15537300D01*
X27277300Y15962300D02*
Y15812700D01*
X27102700*
Y15962300*
X27277300*
X27102700Y15812700D02*
X27277300D01*
X27102700Y15838100D02*
X27277300D01*
X27102700Y15863500D02*
X27277300D01*
X27102700Y15888900D02*
X27277300D01*
X27102700Y15914300D02*
X27277300D01*
X27102700Y15939700D02*
X27277300D01*
X27127200Y15812700D02*
Y15962300D01*
X27152600Y15812700D02*
Y15962300D01*
X27178000Y15812700D02*
Y15962300D01*
X27203400Y15812700D02*
Y15962300D01*
X27228800Y15812700D02*
Y15962300D01*
X27254200Y15812700D02*
Y15962300D01*
X38755400Y23162700D02*
Y23186900D01*
X38704600*
Y23162700*
X38755400*
X38704600D02*
X38755400D01*
X38709600D02*
Y23186900D01*
X38735000Y23162700D02*
Y23186900D01*
X38755400Y23287300D02*
Y23263100D01*
X38704600*
Y23287300*
X38755400*
X38704600Y23263100D02*
X38755400D01*
X38709600D02*
Y23287300D01*
X38735000Y23263100D02*
Y23287300D01*
X38112700Y15637700D02*
X38437300D01*
Y15812300*
X38112700*
Y15637700*
X38437300*
X38112700Y15663100D02*
X38437300D01*
X38112700Y15688500D02*
X38437300D01*
X38112700Y15713900D02*
X38437300D01*
X38112700Y15739300D02*
X38437300D01*
X38112700Y15764700D02*
X38437300D01*
X38112700Y15790100D02*
X38437300D01*
X38125400Y15637700D02*
Y15812300D01*
X38150800Y15637700D02*
Y15812300D01*
X38176200Y15637700D02*
Y15812300D01*
X38201600Y15637700D02*
Y15812300D01*
X38227000Y15637700D02*
Y15812300D01*
X38252400Y15637700D02*
Y15812300D01*
X38277800Y15637700D02*
Y15812300D01*
X38303200Y15637700D02*
Y15812300D01*
X38328600Y15637700D02*
Y15812300D01*
X38354000Y15637700D02*
Y15812300D01*
X38379400Y15637700D02*
Y15812300D01*
X38404800Y15637700D02*
Y15812300D01*
X38430200Y15637700D02*
Y15812300D01*
X39287300Y15637700D02*
X38962700D01*
Y15812300*
X39287300*
Y15637700*
X38962700D02*
X39287300D01*
X38962700Y15663100D02*
X39287300D01*
X38962700Y15688500D02*
X39287300D01*
X38962700Y15713900D02*
X39287300D01*
X38962700Y15739300D02*
X39287300D01*
X38962700Y15764700D02*
X39287300D01*
X38962700Y15790100D02*
X39287300D01*
X38963600Y15637700D02*
Y15812300D01*
X38989000Y15637700D02*
Y15812300D01*
X39014400Y15637700D02*
Y15812300D01*
X39039800Y15637700D02*
Y15812300D01*
X39065200Y15637700D02*
Y15812300D01*
X39090600Y15637700D02*
Y15812300D01*
X39116000Y15637700D02*
Y15812300D01*
X39141400Y15637700D02*
Y15812300D01*
X39166800Y15637700D02*
Y15812300D01*
X39192200Y15637700D02*
Y15812300D01*
X39217600Y15637700D02*
Y15812300D01*
X39243000Y15637700D02*
Y15812300D01*
X39268400Y15637700D02*
Y15812300D01*
X38937700Y17237300D02*
Y17062700D01*
X39012300*
Y17237300*
X38937700*
Y17062700D02*
X39012300D01*
X38937700Y17088100D02*
X39012300D01*
X38937700Y17113500D02*
X39012300D01*
X38937700Y17138900D02*
X39012300D01*
X38937700Y17164300D02*
X39012300D01*
X38937700Y17189700D02*
X39012300D01*
X38937700Y17215100D02*
X39012300D01*
X38938200Y17062700D02*
Y17237300D01*
X38963600Y17062700D02*
Y17237300D01*
X38989000Y17062700D02*
Y17237300D01*
X38937700Y16562700D02*
Y16737300D01*
X39012300*
Y16562700*
X38937700*
X39012300*
X38937700Y16588100D02*
X39012300D01*
X38937700Y16613500D02*
X39012300D01*
X38937700Y16638900D02*
X39012300D01*
X38937700Y16664300D02*
X39012300D01*
X38937700Y16689700D02*
X39012300D01*
X38937700Y16715100D02*
X39012300D01*
X38938200Y16562700D02*
Y16737300D01*
X38963600Y16562700D02*
Y16737300D01*
X38989000Y16562700D02*
Y16737300D01*
X33537300Y17337300D02*
X33212700D01*
Y17162700*
X33537300*
Y17337300*
X33212700Y17162700D02*
X33537300D01*
X33212700Y17188100D02*
X33537300D01*
X33212700Y17213500D02*
X33537300D01*
X33212700Y17238900D02*
X33537300D01*
X33212700Y17264300D02*
X33537300D01*
X33212700Y17289700D02*
X33537300D01*
X33212700Y17315100D02*
X33537300D01*
X33223200Y17162700D02*
Y17337300D01*
X33248600Y17162700D02*
Y17337300D01*
X33274000Y17162700D02*
Y17337300D01*
X33299400Y17162700D02*
Y17337300D01*
X33324800Y17162700D02*
Y17337300D01*
X33350200Y17162700D02*
Y17337300D01*
X33375600Y17162700D02*
Y17337300D01*
X33401000Y17162700D02*
Y17337300D01*
X33426400Y17162700D02*
Y17337300D01*
X33451800Y17162700D02*
Y17337300D01*
X33477200Y17162700D02*
Y17337300D01*
X33502600Y17162700D02*
Y17337300D01*
X33528000Y17162700D02*
Y17337300D01*
X32362700D02*
X32687300D01*
Y17162700*
X32362700*
Y17337300*
Y17162700D02*
X32687300D01*
X32362700Y17188100D02*
X32687300D01*
X32362700Y17213500D02*
X32687300D01*
X32362700Y17238900D02*
X32687300D01*
X32362700Y17264300D02*
X32687300D01*
X32362700Y17289700D02*
X32687300D01*
X32362700Y17315100D02*
X32687300D01*
X32385000Y17162700D02*
Y17337300D01*
X32410400Y17162700D02*
Y17337300D01*
X32435800Y17162700D02*
Y17337300D01*
X32461200Y17162700D02*
Y17337300D01*
X32486600Y17162700D02*
Y17337300D01*
X32512000Y17162700D02*
Y17337300D01*
X32537400Y17162700D02*
Y17337300D01*
X32562800Y17162700D02*
Y17337300D01*
X32588200Y17162700D02*
Y17337300D01*
X32613600Y17162700D02*
Y17337300D01*
X32639000Y17162700D02*
Y17337300D01*
X32664400Y17162700D02*
Y17337300D01*
X32837300Y15537300D02*
X32662700D01*
Y15462700*
X32837300*
Y15537300*
X32662700Y15462700D02*
X32837300D01*
X32662700Y15488100D02*
X32837300D01*
X32662700Y15513500D02*
X32837300D01*
X32664400Y15462700D02*
Y15537300D01*
X32689800Y15462700D02*
Y15537300D01*
X32715200Y15462700D02*
Y15537300D01*
X32740600Y15462700D02*
Y15537300D01*
X32766000Y15462700D02*
Y15537300D01*
X32791400Y15462700D02*
Y15537300D01*
X32816800Y15462700D02*
Y15537300D01*
X32162700D02*
X32337300D01*
Y15462700*
X32162700*
Y15537300*
Y15462700D02*
X32337300D01*
X32162700Y15488100D02*
X32337300D01*
X32162700Y15513500D02*
X32337300D01*
X32181800Y15462700D02*
Y15537300D01*
X32207200Y15462700D02*
Y15537300D01*
X32232600Y15462700D02*
Y15537300D01*
X32258000Y15462700D02*
Y15537300D01*
X32283400Y15462700D02*
Y15537300D01*
X32308800Y15462700D02*
Y15537300D01*
X32334200Y15462700D02*
Y15537300D01*
X35812300D02*
X35637700D01*
Y15462700*
X35812300*
Y15537300*
X35637700Y15462700D02*
X35812300D01*
X35637700Y15488100D02*
X35812300D01*
X35637700Y15513500D02*
X35812300D01*
X35661600Y15462700D02*
Y15537300D01*
X35687000Y15462700D02*
Y15537300D01*
X35712400Y15462700D02*
Y15537300D01*
X35737800Y15462700D02*
Y15537300D01*
X35763200Y15462700D02*
Y15537300D01*
X35788600Y15462700D02*
Y15537300D01*
X35137700D02*
X35312300D01*
Y15462700*
X35137700*
Y15537300*
Y15462700D02*
X35312300D01*
X35137700Y15488100D02*
X35312300D01*
X35137700Y15513500D02*
X35312300D01*
X35153600Y15462700D02*
Y15537300D01*
X35179000Y15462700D02*
Y15537300D01*
X35204400Y15462700D02*
Y15537300D01*
X35229800Y15462700D02*
Y15537300D01*
X35255200Y15462700D02*
Y15537300D01*
X35280600Y15462700D02*
Y15537300D01*
X35306000Y15462700D02*
Y15537300D01*
X33887300D02*
X33712700D01*
Y15462700*
X33887300*
Y15537300*
X33712700Y15462700D02*
X33887300D01*
X33712700Y15488100D02*
X33887300D01*
X33712700Y15513500D02*
X33887300D01*
X33731200Y15462700D02*
Y15537300D01*
X33756600Y15462700D02*
Y15537300D01*
X33782000Y15462700D02*
Y15537300D01*
X33807400Y15462700D02*
Y15537300D01*
X33832800Y15462700D02*
Y15537300D01*
X33858200Y15462700D02*
Y15537300D01*
X33883600Y15462700D02*
Y15537300D01*
X33212700D02*
X33387300D01*
Y15462700*
X33212700*
Y15537300*
Y15462700D02*
X33387300D01*
X33212700Y15488100D02*
X33387300D01*
X33212700Y15513500D02*
X33387300D01*
X33223200Y15462700D02*
Y15537300D01*
X33248600Y15462700D02*
Y15537300D01*
X33274000Y15462700D02*
Y15537300D01*
X33299400Y15462700D02*
Y15537300D01*
X33324800Y15462700D02*
Y15537300D01*
X33350200Y15462700D02*
Y15537300D01*
X33375600Y15462700D02*
Y15537300D01*
X33437700Y19387700D02*
Y19512300D01*
X33512300*
Y19387700*
X33437700*
X33512300*
X33437700Y19413100D02*
X33512300D01*
X33437700Y19438500D02*
X33512300D01*
X33437700Y19463900D02*
X33512300D01*
X33437700Y19489300D02*
X33512300D01*
X33451800Y19387700D02*
Y19512300D01*
X33477200Y19387700D02*
Y19512300D01*
X33502600Y19387700D02*
Y19512300D01*
X33437700Y19862300D02*
Y19737700D01*
X33512300*
Y19862300*
X33437700*
Y19737700D02*
X33512300D01*
X33437700Y19763100D02*
X33512300D01*
X33437700Y19788500D02*
X33512300D01*
X33437700Y19813900D02*
X33512300D01*
X33437700Y19839300D02*
X33512300D01*
X33451800Y19737700D02*
Y19862300D01*
X33477200Y19737700D02*
Y19862300D01*
X33502600Y19737700D02*
Y19862300D01*
X32087700Y19387700D02*
Y19512300D01*
X32162300*
Y19387700*
X32087700*
X32162300*
X32087700Y19413100D02*
X32162300D01*
X32087700Y19438500D02*
X32162300D01*
X32087700Y19463900D02*
X32162300D01*
X32087700Y19489300D02*
X32162300D01*
X32105600Y19387700D02*
Y19512300D01*
X32131000Y19387700D02*
Y19512300D01*
X32156400Y19387700D02*
Y19512300D01*
X32087700Y19862300D02*
Y19737700D01*
X32162300*
Y19862300*
X32087700*
Y19737700D02*
X32162300D01*
X32087700Y19763100D02*
X32162300D01*
X32087700Y19788500D02*
X32162300D01*
X32087700Y19813900D02*
X32162300D01*
X32087700Y19839300D02*
X32162300D01*
X32105600Y19737700D02*
Y19862300D01*
X32131000Y19737700D02*
Y19862300D01*
X32156400Y19737700D02*
Y19862300D01*
X29002300Y16512300D02*
Y16437700D01*
X28915200*
Y16512300*
X29002300*
X28915200Y16437700D02*
X29002300D01*
X28915200Y16463100D02*
X29002300D01*
X28915200Y16488500D02*
X29002300D01*
X28930600Y16437700D02*
Y16512300D01*
X28956000Y16437700D02*
Y16512300D01*
X28981400Y16437700D02*
Y16512300D01*
X28776500Y16602000D02*
Y16525800D01*
X28713000*
Y16602000*
X28776500*
X28713000Y16525800D02*
X28776500D01*
X28713000Y16551200D02*
X28776500D01*
X28713000Y16576600D02*
X28776500D01*
X28713000Y16602000D02*
X28776500D01*
X28727400Y16525800D02*
Y16602000D01*
X28752800Y16525800D02*
Y16602000D01*
X28776500Y16424200D02*
Y16348000D01*
X28713000*
Y16424200*
X28776500*
X28713000Y16348000D02*
X28776500D01*
X28713000Y16373400D02*
X28776500D01*
X28713000Y16398800D02*
X28776500D01*
X28713000Y16424200D02*
X28776500D01*
X28727400Y16348000D02*
Y16424200D01*
X28752800Y16348000D02*
Y16424200D01*
X29002300Y15562300D02*
Y15487700D01*
X28915200*
Y15562300*
X29002300*
X28915200Y15487700D02*
X29002300D01*
X28915200Y15513100D02*
X29002300D01*
X28915200Y15538500D02*
X29002300D01*
X28930600Y15487700D02*
Y15562300D01*
X28956000Y15487700D02*
Y15562300D01*
X28981400Y15487700D02*
Y15562300D01*
X28776500Y15652000D02*
Y15575800D01*
X28713000*
Y15652000*
X28776500*
X28713000Y15575800D02*
X28776500D01*
X28713000Y15601200D02*
X28776500D01*
X28713000Y15626600D02*
X28776500D01*
X28713000Y15652000D02*
X28776500D01*
X28727400Y15575800D02*
Y15652000D01*
X28752800Y15575800D02*
Y15652000D01*
X28776500Y15474200D02*
Y15398000D01*
X28713000*
Y15474200*
X28776500*
X28713000Y15398000D02*
X28776500D01*
X28713000Y15423400D02*
X28776500D01*
X28713000Y15448800D02*
X28776500D01*
X28713000Y15474200D02*
X28776500D01*
X28727400Y15398000D02*
Y15474200D01*
X28752800Y15398000D02*
Y15474200D01*
X26477300Y16537300D02*
Y16462700D01*
X26390200*
Y16537300*
X26477300*
X26390200Y16462700D02*
X26477300D01*
X26390200Y16488100D02*
X26477300D01*
X26390200Y16513500D02*
X26477300D01*
X26390600Y16462700D02*
Y16537300D01*
X26416000Y16462700D02*
Y16537300D01*
X26441400Y16462700D02*
Y16537300D01*
X26466800Y16462700D02*
Y16537300D01*
X26251500Y16627000D02*
Y16550800D01*
X26188000*
Y16627000*
X26251500*
X26188000Y16550800D02*
X26251500D01*
X26188000Y16576200D02*
X26251500D01*
X26188000Y16601600D02*
X26251500D01*
X26188000Y16627000D02*
X26251500D01*
X26212800Y16550800D02*
Y16627000D01*
X26238200Y16550800D02*
Y16627000D01*
X26251500Y16449200D02*
Y16373000D01*
X26188000*
Y16449200*
X26251500*
X26188000Y16373000D02*
X26251500D01*
X26188000Y16398400D02*
X26251500D01*
X26188000Y16423800D02*
X26251500D01*
X26188000Y16449200D02*
X26251500D01*
X26212800Y16373000D02*
Y16449200D01*
X26238200Y16373000D02*
Y16449200D01*
X26477300Y15462300D02*
Y15387700D01*
X26390200*
Y15462300*
X26477300*
X26390200Y15387700D02*
X26477300D01*
X26390200Y15413100D02*
X26477300D01*
X26390200Y15438500D02*
X26477300D01*
X26390600Y15387700D02*
Y15462300D01*
X26416000Y15387700D02*
Y15462300D01*
X26441400Y15387700D02*
Y15462300D01*
X26466800Y15387700D02*
Y15462300D01*
X26251500Y15552000D02*
Y15475800D01*
X26188000*
Y15552000*
X26251500*
X26188000Y15475800D02*
X26251500D01*
X26188000Y15501200D02*
X26251500D01*
X26188000Y15526600D02*
X26251500D01*
X26188000Y15552000D02*
X26251500D01*
X26212800Y15475800D02*
Y15552000D01*
X26238200Y15475800D02*
Y15552000D01*
X26251500Y15374200D02*
Y15298000D01*
X26188000*
Y15374200*
X26251500*
X26188000Y15298000D02*
X26251500D01*
X26188000Y15323400D02*
X26251500D01*
X26188000Y15348800D02*
X26251500D01*
X26188000Y15374200D02*
X26251500D01*
X26212800Y15298000D02*
Y15374200D01*
X26238200Y15298000D02*
Y15374200D01*
X37557300Y19932300D02*
Y19857700D01*
X37470200*
Y19932300*
X37557300*
X37470200Y19857700D02*
X37557300D01*
X37470200Y19883100D02*
X37557300D01*
X37470200Y19908500D02*
X37557300D01*
X37490400Y19857700D02*
Y19932300D01*
X37515800Y19857700D02*
Y19932300D01*
X37541200Y19857700D02*
Y19932300D01*
X37331500Y20022000D02*
Y19945800D01*
X37268000*
Y20022000*
X37331500*
X37268000Y19945800D02*
X37331500D01*
X37268000Y19971200D02*
X37331500D01*
X37268000Y19996600D02*
X37331500D01*
X37268000Y20022000D02*
X37331500D01*
X37287200Y19945800D02*
Y20022000D01*
X37312600Y19945800D02*
Y20022000D01*
X37331500Y19844200D02*
Y19768000D01*
X37268000*
Y19844200*
X37331500*
X37268000Y19768000D02*
X37331500D01*
X37268000Y19793400D02*
X37331500D01*
X37268000Y19818800D02*
X37331500D01*
X37268000Y19844200D02*
X37331500D01*
X37287200Y19768000D02*
Y19844200D01*
X37312600Y19768000D02*
Y19844200D01*
X27267700Y21812700D02*
Y21887300D01*
X27342300*
Y21812700*
X27267700*
X27342300*
X27267700Y21838100D02*
X27342300D01*
X27267700Y21863500D02*
X27342300D01*
X27279600Y21812700D02*
Y21887300D01*
X27305000Y21812700D02*
Y21887300D01*
X27330400Y21812700D02*
Y21887300D01*
X27267700Y21612700D02*
Y21687300D01*
X27342300*
Y21612700*
X27267700*
X27342300*
X27267700Y21638100D02*
X27342300D01*
X27267700Y21663500D02*
X27342300D01*
X27279600Y21612700D02*
Y21687300D01*
X27305000Y21612700D02*
Y21687300D01*
X27330400Y21612700D02*
Y21687300D01*
X28342300Y20812700D02*
X28267700D01*
Y20887300*
X28342300*
Y20812700*
X28267700D02*
X28342300D01*
X28267700Y20838100D02*
X28342300D01*
X28267700Y20863500D02*
X28342300D01*
X28270200Y20812700D02*
Y20887300D01*
X28295600Y20812700D02*
Y20887300D01*
X28321000Y20812700D02*
Y20887300D01*
X28542300Y20812700D02*
X28467700D01*
Y20887300*
X28542300*
Y20812700*
X28467700D02*
X28542300D01*
X28467700Y20838100D02*
X28542300D01*
X28467700Y20863500D02*
X28542300D01*
X28473400Y20812700D02*
Y20887300D01*
X28498800Y20812700D02*
Y20887300D01*
X28524200Y20812700D02*
Y20887300D01*
X29837700Y22287700D02*
Y22362300D01*
X29912300*
Y22287700*
X29837700*
X29912300*
X29837700Y22313100D02*
X29912300D01*
X29837700Y22338500D02*
X29912300D01*
X29845000Y22287700D02*
Y22362300D01*
X29870400Y22287700D02*
Y22362300D01*
X29895800Y22287700D02*
Y22362300D01*
X29837700Y22087700D02*
Y22162300D01*
X29912300*
Y22087700*
X29837700*
X29912300*
X29837700Y22113100D02*
X29912300D01*
X29837700Y22138500D02*
X29912300D01*
X29845000Y22087700D02*
Y22162300D01*
X29870400Y22087700D02*
Y22162300D01*
X29895800Y22087700D02*
Y22162300D01*
X28992300Y20137300D02*
Y20062700D01*
X28917700*
Y20137300*
X28992300*
X28917700Y20062700D02*
X28992300D01*
X28917700Y20088100D02*
X28992300D01*
X28917700Y20113500D02*
X28992300D01*
X28930600Y20062700D02*
Y20137300D01*
X28956000Y20062700D02*
Y20137300D01*
X28981400Y20062700D02*
Y20137300D01*
X28992300Y20337300D02*
Y20262700D01*
X28917700*
Y20337300*
X28992300*
X28917700Y20262700D02*
X28992300D01*
X28917700Y20288100D02*
X28992300D01*
X28917700Y20313500D02*
X28992300D01*
X28930600Y20262700D02*
Y20337300D01*
X28956000Y20262700D02*
Y20337300D01*
X28981400Y20262700D02*
Y20337300D01*
X36037700Y15562300D02*
X36262300D01*
Y15237700*
X36037700*
Y15562300*
Y15237700D02*
X36262300D01*
X36037700Y15263100D02*
X36262300D01*
X36037700Y15288500D02*
X36262300D01*
X36037700Y15313900D02*
X36262300D01*
X36037700Y15339300D02*
X36262300D01*
X36037700Y15364700D02*
X36262300D01*
X36037700Y15390100D02*
X36262300D01*
X36037700Y15415500D02*
X36262300D01*
X36037700Y15440900D02*
X36262300D01*
X36037700Y15466300D02*
X36262300D01*
X36037700Y15491700D02*
X36262300D01*
X36037700Y15517100D02*
X36262300D01*
X36037700Y15542500D02*
X36262300D01*
X36042600Y15237700D02*
Y15562300D01*
X36068000Y15237700D02*
Y15562300D01*
X36093400Y15237700D02*
Y15562300D01*
X36118800Y15237700D02*
Y15562300D01*
X36144200Y15237700D02*
Y15562300D01*
X36169600Y15237700D02*
Y15562300D01*
X36195000Y15237700D02*
Y15562300D01*
X36220400Y15237700D02*
Y15562300D01*
X36245800Y15237700D02*
Y15562300D01*
X36587700D02*
X36812300D01*
Y15237700*
X36587700*
Y15562300*
Y15237700D02*
X36812300D01*
X36587700Y15263100D02*
X36812300D01*
X36587700Y15288500D02*
X36812300D01*
X36587700Y15313900D02*
X36812300D01*
X36587700Y15339300D02*
X36812300D01*
X36587700Y15364700D02*
X36812300D01*
X36587700Y15390100D02*
X36812300D01*
X36587700Y15415500D02*
X36812300D01*
X36587700Y15440900D02*
X36812300D01*
X36587700Y15466300D02*
X36812300D01*
X36587700Y15491700D02*
X36812300D01*
X36587700Y15517100D02*
X36812300D01*
X36587700Y15542500D02*
X36812300D01*
X36601400Y15237700D02*
Y15562300D01*
X36626800Y15237700D02*
Y15562300D01*
X36652200Y15237700D02*
Y15562300D01*
X36677600Y15237700D02*
Y15562300D01*
X36703000Y15237700D02*
Y15562300D01*
X36728400Y15237700D02*
Y15562300D01*
X36753800Y15237700D02*
Y15562300D01*
X36779200Y15237700D02*
Y15562300D01*
X36804600Y15237700D02*
Y15562300D01*
X37537300Y16987300D02*
Y16912700D01*
X37462700*
Y16987300*
X37537300*
X37462700Y16912700D02*
X37537300D01*
X37462700Y16938100D02*
X37537300D01*
X37462700Y16963500D02*
X37537300D01*
X37465000Y16912700D02*
Y16987300D01*
X37490400Y16912700D02*
Y16987300D01*
X37515800Y16912700D02*
Y16987300D01*
X37537300Y17187300D02*
Y17112700D01*
X37462700*
Y17187300*
X37537300*
X37462700Y17112700D02*
X37537300D01*
X37462700Y17138100D02*
X37537300D01*
X37462700Y17163500D02*
X37537300D01*
X37465000Y17112700D02*
Y17187300D01*
X37490400Y17112700D02*
Y17187300D01*
X37515800Y17112700D02*
Y17187300D01*
X35862700Y16412700D02*
Y16487300D01*
X35937300*
Y16412700*
X35862700*
X35937300*
X35862700Y16438100D02*
X35937300D01*
X35862700Y16463500D02*
X35937300D01*
X35864800Y16412700D02*
Y16487300D01*
X35890200Y16412700D02*
Y16487300D01*
X35915600Y16412700D02*
Y16487300D01*
X35862700Y16212700D02*
Y16287300D01*
X35937300*
Y16212700*
X35862700*
X35937300*
X35862700Y16238100D02*
X35937300D01*
X35862700Y16263500D02*
X35937300D01*
X35864800Y16212700D02*
Y16287300D01*
X35890200Y16212700D02*
Y16287300D01*
X35915600Y16212700D02*
Y16287300D01*
X34137700Y15562300D02*
X34362300D01*
Y15237700*
X34137700*
Y15562300*
Y15237700D02*
X34362300D01*
X34137700Y15263100D02*
X34362300D01*
X34137700Y15288500D02*
X34362300D01*
X34137700Y15313900D02*
X34362300D01*
X34137700Y15339300D02*
X34362300D01*
X34137700Y15364700D02*
X34362300D01*
X34137700Y15390100D02*
X34362300D01*
X34137700Y15415500D02*
X34362300D01*
X34137700Y15440900D02*
X34362300D01*
X34137700Y15466300D02*
X34362300D01*
X34137700Y15491700D02*
X34362300D01*
X34137700Y15517100D02*
X34362300D01*
X34137700Y15542500D02*
X34362300D01*
X34163000Y15237700D02*
Y15562300D01*
X34188400Y15237700D02*
Y15562300D01*
X34213800Y15237700D02*
Y15562300D01*
X34239200Y15237700D02*
Y15562300D01*
X34264600Y15237700D02*
Y15562300D01*
X34290000Y15237700D02*
Y15562300D01*
X34315400Y15237700D02*
Y15562300D01*
X34340800Y15237700D02*
Y15562300D01*
X34687700D02*
X34912300D01*
Y15237700*
X34687700*
Y15562300*
Y15237700D02*
X34912300D01*
X34687700Y15263100D02*
X34912300D01*
X34687700Y15288500D02*
X34912300D01*
X34687700Y15313900D02*
X34912300D01*
X34687700Y15339300D02*
X34912300D01*
X34687700Y15364700D02*
X34912300D01*
X34687700Y15390100D02*
X34912300D01*
X34687700Y15415500D02*
X34912300D01*
X34687700Y15440900D02*
X34912300D01*
X34687700Y15466300D02*
X34912300D01*
X34687700Y15491700D02*
X34912300D01*
X34687700Y15517100D02*
X34912300D01*
X34687700Y15542500D02*
X34912300D01*
X34696400Y15237700D02*
Y15562300D01*
X34721800Y15237700D02*
Y15562300D01*
X34747200Y15237700D02*
Y15562300D01*
X34772600Y15237700D02*
Y15562300D01*
X34798000Y15237700D02*
Y15562300D01*
X34823400Y15237700D02*
Y15562300D01*
X34848800Y15237700D02*
Y15562300D01*
X34874200Y15237700D02*
Y15562300D01*
X34899600Y15237700D02*
Y15562300D01*
X35062700Y17512700D02*
Y17587300D01*
X35137300*
Y17512700*
X35062700*
X35137300*
X35062700Y17538100D02*
X35137300D01*
X35062700Y17563500D02*
X35137300D01*
X35077400Y17512700D02*
Y17587300D01*
X35102800Y17512700D02*
Y17587300D01*
X35128200Y17512700D02*
Y17587300D01*
X35062700Y17312700D02*
Y17387300D01*
X35137300*
Y17312700*
X35062700*
X35137300*
X35062700Y17338100D02*
X35137300D01*
X35062700Y17363500D02*
X35137300D01*
X35077400Y17312700D02*
Y17387300D01*
X35102800Y17312700D02*
Y17387300D01*
X35128200Y17312700D02*
Y17387300D01*
X33142300Y14562700D02*
X33067700D01*
Y14637300*
X33142300*
Y14562700*
X33067700D02*
X33142300D01*
X33067700Y14588100D02*
X33142300D01*
X33067700Y14613500D02*
X33142300D01*
X33070800Y14562700D02*
Y14637300D01*
X33096200Y14562700D02*
Y14637300D01*
X33121600Y14562700D02*
Y14637300D01*
X33342300Y14562700D02*
X33267700D01*
Y14637300*
X33342300*
Y14562700*
X33267700D02*
X33342300D01*
X33267700Y14588100D02*
X33342300D01*
X33267700Y14613500D02*
X33342300D01*
X33274000Y14562700D02*
Y14637300D01*
X33299400Y14562700D02*
Y14637300D01*
X33324800Y14562700D02*
Y14637300D01*
X33937700Y16412700D02*
Y16487300D01*
X34012300*
Y16412700*
X33937700*
X34012300*
X33937700Y16438100D02*
X34012300D01*
X33937700Y16463500D02*
X34012300D01*
X33959800Y16412700D02*
Y16487300D01*
X33985200Y16412700D02*
Y16487300D01*
X34010600Y16412700D02*
Y16487300D01*
X33937700Y16212700D02*
Y16287300D01*
X34012300*
Y16212700*
X33937700*
X34012300*
X33937700Y16238100D02*
X34012300D01*
X33937700Y16263500D02*
X34012300D01*
X33959800Y16212700D02*
Y16287300D01*
X33985200Y16212700D02*
Y16287300D01*
X34010600Y16212700D02*
Y16287300D01*
X27142300Y21212300D02*
Y21137700D01*
X27067700*
Y21212300*
X27142300*
X27067700Y21137700D02*
X27142300D01*
X27067700Y21163100D02*
X27142300D01*
X27067700Y21188500D02*
X27142300D01*
X27076400Y21137700D02*
Y21212300D01*
X27101800Y21137700D02*
Y21212300D01*
X27127200Y21137700D02*
Y21212300D01*
X27142300Y21412300D02*
Y21337700D01*
X27067700*
Y21412300*
X27142300*
X27067700Y21337700D02*
X27142300D01*
X27067700Y21363100D02*
X27142300D01*
X27067700Y21388500D02*
X27142300D01*
X27076400Y21337700D02*
Y21412300D01*
X27101800Y21337700D02*
Y21412300D01*
X27127200Y21337700D02*
Y21412300D01*
X35637700Y16412700D02*
Y16487300D01*
X35712300*
Y16412700*
X35637700*
X35712300*
X35637700Y16438100D02*
X35712300D01*
X35637700Y16463500D02*
X35712300D01*
X35661600Y16412700D02*
Y16487300D01*
X35687000Y16412700D02*
Y16487300D01*
X35637700Y16212700D02*
Y16287300D01*
X35712300*
Y16212700*
X35637700*
X35712300*
X35637700Y16238100D02*
X35712300D01*
X35637700Y16263500D02*
X35712300D01*
X35661600Y16212700D02*
Y16287300D01*
X35687000Y16212700D02*
Y16287300D01*
X33737700Y16412700D02*
Y16487300D01*
X33812300*
Y16412700*
X33737700*
X33812300*
X33737700Y16438100D02*
X33812300D01*
X33737700Y16463500D02*
X33812300D01*
X33756600Y16412700D02*
Y16487300D01*
X33782000Y16412700D02*
Y16487300D01*
X33807400Y16412700D02*
Y16487300D01*
X33737700Y16212700D02*
Y16287300D01*
X33812300*
Y16212700*
X33737700*
X33812300*
X33737700Y16238100D02*
X33812300D01*
X33737700Y16263500D02*
X33812300D01*
X33756600Y16212700D02*
Y16287300D01*
X33782000Y16212700D02*
Y16287300D01*
X33807400Y16212700D02*
Y16287300D01*
X28902700Y16787300D02*
X28977300D01*
Y16712700*
X28902700*
Y16787300*
Y16712700D02*
X28977300D01*
X28902700Y16738100D02*
X28977300D01*
X28902700Y16763500D02*
X28977300D01*
X28905200Y16712700D02*
Y16787300D01*
X28930600Y16712700D02*
Y16787300D01*
X28956000Y16712700D02*
Y16787300D01*
X28702700D02*
X28777300D01*
Y16712700*
X28702700*
Y16787300*
Y16712700D02*
X28777300D01*
X28702700Y16738100D02*
X28777300D01*
X28702700Y16763500D02*
X28777300D01*
X28727400Y16712700D02*
Y16787300D01*
X28752800Y16712700D02*
Y16787300D01*
X28902700Y15862300D02*
X28977300D01*
Y15787700*
X28902700*
Y15862300*
Y15787700D02*
X28977300D01*
X28902700Y15813100D02*
X28977300D01*
X28902700Y15838500D02*
X28977300D01*
X28905200Y15787700D02*
Y15862300D01*
X28930600Y15787700D02*
Y15862300D01*
X28956000Y15787700D02*
Y15862300D01*
X28702700D02*
X28777300D01*
Y15787700*
X28702700*
Y15862300*
Y15787700D02*
X28777300D01*
X28702700Y15813100D02*
X28777300D01*
X28702700Y15838500D02*
X28777300D01*
X28727400Y15787700D02*
Y15862300D01*
X28752800Y15787700D02*
Y15862300D01*
X26727300Y16962700D02*
X26652700D01*
Y17037300*
X26727300*
Y16962700*
X26652700D02*
X26727300D01*
X26652700Y16988100D02*
X26727300D01*
X26652700Y17013500D02*
X26727300D01*
X26670000Y16962700D02*
Y17037300D01*
X26695400Y16962700D02*
Y17037300D01*
X26720800Y16962700D02*
Y17037300D01*
X26927300Y16962700D02*
X26852700D01*
Y17037300*
X26927300*
Y16962700*
X26852700D02*
X26927300D01*
X26852700Y16988100D02*
X26927300D01*
X26852700Y17013500D02*
X26927300D01*
X26873200Y16962700D02*
Y17037300D01*
X26898600Y16962700D02*
Y17037300D01*
X26924000Y16962700D02*
Y17037300D01*
X28777300Y16137700D02*
X28702700D01*
Y16212300*
X28777300*
Y16137700*
X28702700D02*
X28777300D01*
X28702700Y16163100D02*
X28777300D01*
X28702700Y16188500D02*
X28777300D01*
X28727400Y16137700D02*
Y16212300D01*
X28752800Y16137700D02*
Y16212300D01*
X28977300Y16137700D02*
X28902700D01*
Y16212300*
X28977300*
Y16137700*
X28902700D02*
X28977300D01*
X28902700Y16163100D02*
X28977300D01*
X28902700Y16188500D02*
X28977300D01*
X28905200Y16137700D02*
Y16212300D01*
X28930600Y16137700D02*
Y16212300D01*
X28956000Y16137700D02*
Y16212300D01*
X26727300Y15887700D02*
X26652700D01*
Y15962300*
X26727300*
Y15887700*
X26652700D02*
X26727300D01*
X26652700Y15913100D02*
X26727300D01*
X26652700Y15938500D02*
X26727300D01*
X26670000Y15887700D02*
Y15962300D01*
X26695400Y15887700D02*
Y15962300D01*
X26720800Y15887700D02*
Y15962300D01*
X26927300Y15887700D02*
X26852700D01*
Y15962300*
X26927300*
Y15887700*
X26852700D02*
X26927300D01*
X26852700Y15913100D02*
X26927300D01*
X26852700Y15938500D02*
X26927300D01*
X26873200Y15887700D02*
Y15962300D01*
X26898600Y15887700D02*
Y15962300D01*
X26924000Y15887700D02*
Y15962300D01*
X28777300Y15212700D02*
X28702700D01*
Y15287300*
X28777300*
Y15212700*
X28702700D02*
X28777300D01*
X28702700Y15238100D02*
X28777300D01*
X28702700Y15263500D02*
X28777300D01*
X28727400Y15212700D02*
Y15287300D01*
X28752800Y15212700D02*
Y15287300D01*
X28977300Y15212700D02*
X28902700D01*
Y15287300*
X28977300*
Y15212700*
X28902700D02*
X28977300D01*
X28902700Y15238100D02*
X28977300D01*
X28902700Y15263500D02*
X28977300D01*
X28905200Y15212700D02*
Y15287300D01*
X28930600Y15212700D02*
Y15287300D01*
X28956000Y15212700D02*
Y15287300D01*
X28527300Y16387300D02*
Y16312700D01*
X28452700*
Y16387300*
X28527300*
X28452700Y16312700D02*
X28527300D01*
X28452700Y16338100D02*
X28527300D01*
X28452700Y16363500D02*
X28527300D01*
X28473400Y16312700D02*
Y16387300D01*
X28498800Y16312700D02*
Y16387300D01*
X28524200Y16312700D02*
Y16387300D01*
X28527300Y16587300D02*
Y16512700D01*
X28452700*
Y16587300*
X28527300*
X28452700Y16512700D02*
X28527300D01*
X28452700Y16538100D02*
X28527300D01*
X28452700Y16563500D02*
X28527300D01*
X28473400Y16512700D02*
Y16587300D01*
X28498800Y16512700D02*
Y16587300D01*
X28524200Y16512700D02*
Y16587300D01*
X28527300Y15412300D02*
Y15337700D01*
X28452700*
Y15412300*
X28527300*
X28452700Y15337700D02*
X28527300D01*
X28452700Y15363100D02*
X28527300D01*
X28452700Y15388500D02*
X28527300D01*
X28473400Y15337700D02*
Y15412300D01*
X28498800Y15337700D02*
Y15412300D01*
X28524200Y15337700D02*
Y15412300D01*
X28527300Y15612300D02*
Y15537700D01*
X28452700*
Y15612300*
X28527300*
X28452700Y15537700D02*
X28527300D01*
X28452700Y15563100D02*
X28527300D01*
X28452700Y15588500D02*
X28527300D01*
X28473400Y15537700D02*
Y15612300D01*
X28498800Y15537700D02*
Y15612300D01*
X28524200Y15537700D02*
Y15612300D01*
X28467700Y21087300D02*
X28542300D01*
Y21012700*
X28467700*
Y21087300*
Y21012700D02*
X28542300D01*
X28467700Y21038100D02*
X28542300D01*
X28467700Y21063500D02*
X28542300D01*
X28473400Y21012700D02*
Y21087300D01*
X28498800Y21012700D02*
Y21087300D01*
X28524200Y21012700D02*
Y21087300D01*
X28267700D02*
X28342300D01*
Y21012700*
X28267700*
Y21087300*
Y21012700D02*
X28342300D01*
X28267700Y21038100D02*
X28342300D01*
X28267700Y21063500D02*
X28342300D01*
X28270200Y21012700D02*
Y21087300D01*
X28295600Y21012700D02*
Y21087300D01*
X28321000Y21012700D02*
Y21087300D01*
X26852700Y16537300D02*
X26927300D01*
Y16462700*
X26852700*
Y16537300*
Y16462700D02*
X26927300D01*
X26852700Y16488100D02*
X26927300D01*
X26852700Y16513500D02*
X26927300D01*
X26873200Y16462700D02*
Y16537300D01*
X26898600Y16462700D02*
Y16537300D01*
X26924000Y16462700D02*
Y16537300D01*
X26652700D02*
X26727300D01*
Y16462700*
X26652700*
Y16537300*
Y16462700D02*
X26727300D01*
X26652700Y16488100D02*
X26727300D01*
X26652700Y16513500D02*
X26727300D01*
X26670000Y16462700D02*
Y16537300D01*
X26695400Y16462700D02*
Y16537300D01*
X26720800Y16462700D02*
Y16537300D01*
X26852700Y15462300D02*
X26927300D01*
Y15387700*
X26852700*
Y15462300*
Y15387700D02*
X26927300D01*
X26852700Y15413100D02*
X26927300D01*
X26852700Y15438500D02*
X26927300D01*
X26873200Y15387700D02*
Y15462300D01*
X26898600Y15387700D02*
Y15462300D01*
X26924000Y15387700D02*
Y15462300D01*
X26652700D02*
X26727300D01*
Y15387700*
X26652700*
Y15462300*
Y15387700D02*
X26727300D01*
X26652700Y15413100D02*
X26727300D01*
X26652700Y15438500D02*
X26727300D01*
X26670000Y15387700D02*
Y15462300D01*
X26695400Y15387700D02*
Y15462300D01*
X26720800Y15387700D02*
Y15462300D01*
X25902700Y16637300D02*
X25977300D01*
Y16562700*
X25902700*
Y16637300*
Y16562700D02*
X25977300D01*
X25902700Y16588100D02*
X25977300D01*
X25902700Y16613500D02*
X25977300D01*
X25908000Y16562700D02*
Y16637300D01*
X25933400Y16562700D02*
Y16637300D01*
X25958800Y16562700D02*
Y16637300D01*
X25702700D02*
X25777300D01*
Y16562700*
X25702700*
Y16637300*
Y16562700D02*
X25777300D01*
X25702700Y16588100D02*
X25777300D01*
X25702700Y16613500D02*
X25777300D01*
X25704800Y16562700D02*
Y16637300D01*
X25730200Y16562700D02*
Y16637300D01*
X25755600Y16562700D02*
Y16637300D01*
X25902700Y15562300D02*
X25977300D01*
Y15487700*
X25902700*
Y15562300*
Y15487700D02*
X25977300D01*
X25902700Y15513100D02*
X25977300D01*
X25902700Y15538500D02*
X25977300D01*
X25908000Y15487700D02*
Y15562300D01*
X25933400Y15487700D02*
Y15562300D01*
X25958800Y15487700D02*
Y15562300D01*
X25702700D02*
X25777300D01*
Y15487700*
X25702700*
Y15562300*
Y15487700D02*
X25777300D01*
X25702700Y15513100D02*
X25777300D01*
X25702700Y15538500D02*
X25777300D01*
X25704800Y15487700D02*
Y15562300D01*
X25730200Y15487700D02*
Y15562300D01*
X25755600Y15487700D02*
Y15562300D01*
X25777300Y16362700D02*
X25702700D01*
Y16437300*
X25777300*
Y16362700*
X25702700D02*
X25777300D01*
X25702700Y16388100D02*
X25777300D01*
X25702700Y16413500D02*
X25777300D01*
X25704800Y16362700D02*
Y16437300D01*
X25730200Y16362700D02*
Y16437300D01*
X25755600Y16362700D02*
Y16437300D01*
X25977300Y16362700D02*
X25902700D01*
Y16437300*
X25977300*
Y16362700*
X25902700D02*
X25977300D01*
X25902700Y16388100D02*
X25977300D01*
X25902700Y16413500D02*
X25977300D01*
X25908000Y16362700D02*
Y16437300D01*
X25933400Y16362700D02*
Y16437300D01*
X25958800Y16362700D02*
Y16437300D01*
X25777300Y15287700D02*
X25702700D01*
Y15362300*
X25777300*
Y15287700*
X25702700D02*
X25777300D01*
X25702700Y15313100D02*
X25777300D01*
X25702700Y15338500D02*
X25777300D01*
X25704800Y15287700D02*
Y15362300D01*
X25730200Y15287700D02*
Y15362300D01*
X25755600Y15287700D02*
Y15362300D01*
X25977300Y15287700D02*
X25902700D01*
Y15362300*
X25977300*
Y15287700*
X25902700D02*
X25977300D01*
X25902700Y15313100D02*
X25977300D01*
X25902700Y15338500D02*
X25977300D01*
X25908000Y15287700D02*
Y15362300D01*
X25933400Y15287700D02*
Y15362300D01*
X25958800Y15287700D02*
Y15362300D01*
X39042300Y21287700D02*
X38967700D01*
Y21362300*
X39042300*
Y21287700*
X38967700D02*
X39042300D01*
X38967700Y21313100D02*
X39042300D01*
X38967700Y21338500D02*
X39042300D01*
X38989000Y21287700D02*
Y21362300D01*
X39014400Y21287700D02*
Y21362300D01*
X39039800Y21287700D02*
Y21362300D01*
X39242300Y21287700D02*
X39167700D01*
Y21362300*
X39242300*
Y21287700*
X39167700D02*
X39242300D01*
X39167700Y21313100D02*
X39242300D01*
X39167700Y21338500D02*
X39242300D01*
X39192200Y21287700D02*
Y21362300D01*
X39217600Y21287700D02*
Y21362300D01*
X39042300Y21087700D02*
X38967700D01*
Y21162300*
X39042300*
Y21087700*
X38967700D02*
X39042300D01*
X38967700Y21113100D02*
X39042300D01*
X38967700Y21138500D02*
X39042300D01*
X38989000Y21087700D02*
Y21162300D01*
X39014400Y21087700D02*
Y21162300D01*
X39039800Y21087700D02*
Y21162300D01*
X39242300Y21087700D02*
X39167700D01*
Y21162300*
X39242300*
Y21087700*
X39167700D02*
X39242300D01*
X39167700Y21113100D02*
X39242300D01*
X39167700Y21138500D02*
X39242300D01*
X39192200Y21087700D02*
Y21162300D01*
X39217600Y21087700D02*
Y21162300D01*
X38517700Y23362700D02*
Y23437300D01*
X38592300*
Y23362700*
X38517700*
X38592300*
X38517700Y23388100D02*
X38592300D01*
X38517700Y23413500D02*
X38592300D01*
X38531800Y23362700D02*
Y23437300D01*
X38557200Y23362700D02*
Y23437300D01*
X38582600Y23362700D02*
Y23437300D01*
X38517700Y23162700D02*
Y23237300D01*
X38592300*
Y23162700*
X38517700*
X38592300*
X38517700Y23188100D02*
X38592300D01*
X38517700Y23213500D02*
X38592300D01*
X38531800Y23162700D02*
Y23237300D01*
X38557200Y23162700D02*
Y23237300D01*
X38582600Y23162700D02*
Y23237300D01*
X39117700Y22462300D02*
X39192300D01*
Y22387700*
X39117700*
Y22462300*
Y22387700D02*
X39192300D01*
X39117700Y22413100D02*
X39192300D01*
X39117700Y22438500D02*
X39192300D01*
X39141400Y22387700D02*
Y22462300D01*
X39166800Y22387700D02*
Y22462300D01*
X39192200Y22387700D02*
Y22462300D01*
X38917700D02*
X38992300D01*
Y22387700*
X38917700*
Y22462300*
Y22387700D02*
X38992300D01*
X38917700Y22413100D02*
X38992300D01*
X38917700Y22438500D02*
X38992300D01*
X38938200Y22387700D02*
Y22462300D01*
X38963600Y22387700D02*
Y22462300D01*
X38989000Y22387700D02*
Y22462300D01*
X27437300Y22537700D02*
X27362700D01*
Y22612300*
X27437300*
Y22537700*
X27362700D02*
X27437300D01*
X27362700Y22563100D02*
X27437300D01*
X27362700Y22588500D02*
X27437300D01*
X27381200Y22537700D02*
Y22612300D01*
X27406600Y22537700D02*
Y22612300D01*
X27432000Y22537700D02*
Y22612300D01*
X27637300Y22537700D02*
X27562700D01*
Y22612300*
X27637300*
Y22537700*
X27562700D02*
X27637300D01*
X27562700Y22563100D02*
X27637300D01*
X27562700Y22588500D02*
X27637300D01*
X27584400Y22537700D02*
Y22612300D01*
X27609800Y22537700D02*
Y22612300D01*
X27635200Y22537700D02*
Y22612300D01*
X37242700Y23112300D02*
X37317300D01*
Y23037700*
X37242700*
Y23112300*
Y23037700D02*
X37317300D01*
X37242700Y23063100D02*
X37317300D01*
X37242700Y23088500D02*
X37317300D01*
X37261800Y23037700D02*
Y23112300D01*
X37287200Y23037700D02*
Y23112300D01*
X37312600Y23037700D02*
Y23112300D01*
X37042700D02*
X37117300D01*
Y23037700*
X37042700*
Y23112300*
Y23037700D02*
X37117300D01*
X37042700Y23063100D02*
X37117300D01*
X37042700Y23088500D02*
X37117300D01*
X37058600Y23037700D02*
Y23112300D01*
X37084000Y23037700D02*
Y23112300D01*
X37109400Y23037700D02*
Y23112300D01*
X37242700Y23312300D02*
X37317300D01*
Y23237700*
X37242700*
Y23312300*
Y23237700D02*
X37317300D01*
X37242700Y23263100D02*
X37317300D01*
X37242700Y23288500D02*
X37317300D01*
X37261800Y23237700D02*
Y23312300D01*
X37287200Y23237700D02*
Y23312300D01*
X37312600Y23237700D02*
Y23312300D01*
X37042700D02*
X37117300D01*
Y23237700*
X37042700*
Y23312300*
Y23237700D02*
X37117300D01*
X37042700Y23263100D02*
X37117300D01*
X37042700Y23288500D02*
X37117300D01*
X37058600Y23237700D02*
Y23312300D01*
X37084000Y23237700D02*
Y23312300D01*
X37109400Y23237700D02*
Y23312300D01*
X39167700Y23012300D02*
X39242300D01*
Y22937700*
X39167700*
Y23012300*
Y22937700D02*
X39242300D01*
X39167700Y22963100D02*
X39242300D01*
X39167700Y22988500D02*
X39242300D01*
X39192200Y22937700D02*
Y23012300D01*
X39217600Y22937700D02*
Y23012300D01*
X38967700D02*
X39042300D01*
Y22937700*
X38967700*
Y23012300*
Y22937700D02*
X39042300D01*
X38967700Y22963100D02*
X39042300D01*
X38967700Y22988500D02*
X39042300D01*
X38989000Y22937700D02*
Y23012300D01*
X39014400Y22937700D02*
Y23012300D01*
X39039800Y22937700D02*
Y23012300D01*
X38517700Y22912700D02*
Y22987300D01*
X38592300*
Y22912700*
X38517700*
X38592300*
X38517700Y22938100D02*
X38592300D01*
X38517700Y22963500D02*
X38592300D01*
X38531800Y22912700D02*
Y22987300D01*
X38557200Y22912700D02*
Y22987300D01*
X38582600Y22912700D02*
Y22987300D01*
X38517700Y22712700D02*
Y22787300D01*
X38592300*
Y22712700*
X38517700*
X38592300*
X38517700Y22738100D02*
X38592300D01*
X38517700Y22763500D02*
X38592300D01*
X38531800Y22712700D02*
Y22787300D01*
X38557200Y22712700D02*
Y22787300D01*
X38582600Y22712700D02*
Y22787300D01*
X32912300Y19662300D02*
Y19587700D01*
X32837700*
Y19662300*
X32912300*
X32837700Y19587700D02*
X32912300D01*
X32837700Y19613100D02*
X32912300D01*
X32837700Y19638500D02*
X32912300D01*
X32842200Y19587700D02*
Y19662300D01*
X32867600Y19587700D02*
Y19662300D01*
X32893000Y19587700D02*
Y19662300D01*
X32912300Y19862300D02*
Y19787700D01*
X32837700*
Y19862300*
X32912300*
X32837700Y19787700D02*
X32912300D01*
X32837700Y19813100D02*
X32912300D01*
X32837700Y19838500D02*
X32912300D01*
X32842200Y19787700D02*
Y19862300D01*
X32867600Y19787700D02*
Y19862300D01*
X32893000Y19787700D02*
Y19862300D01*
X39092300Y19787700D02*
X39017700D01*
Y19862300*
X39092300*
Y19787700*
X39017700D02*
X39092300D01*
X39017700Y19813100D02*
X39092300D01*
X39017700Y19838500D02*
X39092300D01*
X39039800Y19787700D02*
Y19862300D01*
X39065200Y19787700D02*
Y19862300D01*
X39090600Y19787700D02*
Y19862300D01*
X39292300Y19787700D02*
X39217700D01*
Y19862300*
X39292300*
Y19787700*
X39217700D02*
X39292300D01*
X39217700Y19813100D02*
X39292300D01*
X39217700Y19838500D02*
X39292300D01*
X39243000Y19787700D02*
Y19862300D01*
X39268400Y19787700D02*
Y19862300D01*
X32812700Y23262700D02*
Y23337300D01*
X32887300*
Y23262700*
X32812700*
X32887300*
X32812700Y23288100D02*
X32887300D01*
X32812700Y23313500D02*
X32887300D01*
X32816800Y23262700D02*
Y23337300D01*
X32842200Y23262700D02*
Y23337300D01*
X32867600Y23262700D02*
Y23337300D01*
X32812700Y23062700D02*
Y23137300D01*
X32887300*
Y23062700*
X32812700*
X32887300*
X32812700Y23088100D02*
X32887300D01*
X32812700Y23113500D02*
X32887300D01*
X32816800Y23062700D02*
Y23137300D01*
X32842200Y23062700D02*
Y23137300D01*
X32867600Y23062700D02*
Y23137300D01*
X32687300D02*
Y23062700D01*
X32612700*
Y23137300*
X32687300*
X32612700Y23062700D02*
X32687300D01*
X32612700Y23088100D02*
X32687300D01*
X32612700Y23113500D02*
X32687300D01*
X32613600Y23062700D02*
Y23137300D01*
X32639000Y23062700D02*
Y23137300D01*
X32664400Y23062700D02*
Y23137300D01*
X32687300Y23337300D02*
Y23262700D01*
X32612700*
Y23337300*
X32687300*
X32612700Y23262700D02*
X32687300D01*
X32612700Y23288100D02*
X32687300D01*
X32612700Y23313500D02*
X32687300D01*
X32613600Y23262700D02*
Y23337300D01*
X32639000Y23262700D02*
Y23337300D01*
X32664400Y23262700D02*
Y23337300D01*
X29192700Y23562700D02*
Y23637300D01*
X29267300*
Y23562700*
X29192700*
X29267300*
X29192700Y23588100D02*
X29267300D01*
X29192700Y23613500D02*
X29267300D01*
X29210000Y23562700D02*
Y23637300D01*
X29235400Y23562700D02*
Y23637300D01*
X29260800Y23562700D02*
Y23637300D01*
X29192700Y23362700D02*
Y23437300D01*
X29267300*
Y23362700*
X29192700*
X29267300*
X29192700Y23388100D02*
X29267300D01*
X29192700Y23413500D02*
X29267300D01*
X29210000Y23362700D02*
Y23437300D01*
X29235400Y23362700D02*
Y23437300D01*
X29260800Y23362700D02*
Y23437300D01*
X28992700Y23562700D02*
Y23637300D01*
X29067300*
Y23562700*
X28992700*
X29067300*
X28992700Y23588100D02*
X29067300D01*
X28992700Y23613500D02*
X29067300D01*
X29006800Y23562700D02*
Y23637300D01*
X29032200Y23562700D02*
Y23637300D01*
X29057600Y23562700D02*
Y23637300D01*
X28992700Y23362700D02*
Y23437300D01*
X29067300*
Y23362700*
X28992700*
X29067300*
X28992700Y23388100D02*
X29067300D01*
X28992700Y23413500D02*
X29067300D01*
X29006800Y23362700D02*
Y23437300D01*
X29032200Y23362700D02*
Y23437300D01*
X29057600Y23362700D02*
Y23437300D01*
X27437300Y22937700D02*
X27362700D01*
Y23012300*
X27437300*
Y22937700*
X27362700D02*
X27437300D01*
X27362700Y22963100D02*
X27437300D01*
X27362700Y22988500D02*
X27437300D01*
X27381200Y22937700D02*
Y23012300D01*
X27406600Y22937700D02*
Y23012300D01*
X27432000Y22937700D02*
Y23012300D01*
X27637300Y22937700D02*
X27562700D01*
Y23012300*
X27637300*
Y22937700*
X27562700D02*
X27637300D01*
X27562700Y22963100D02*
X27637300D01*
X27562700Y22988500D02*
X27637300D01*
X27584400Y22937700D02*
Y23012300D01*
X27609800Y22937700D02*
Y23012300D01*
X27635200Y22937700D02*
Y23012300D01*
X28592700Y23562700D02*
Y23637300D01*
X28667300*
Y23562700*
X28592700*
X28667300*
X28592700Y23588100D02*
X28667300D01*
X28592700Y23613500D02*
X28667300D01*
X28600400Y23562700D02*
Y23637300D01*
X28625800Y23562700D02*
Y23637300D01*
X28651200Y23562700D02*
Y23637300D01*
X28592700Y23362700D02*
Y23437300D01*
X28667300*
Y23362700*
X28592700*
X28667300*
X28592700Y23388100D02*
X28667300D01*
X28592700Y23413500D02*
X28667300D01*
X28600400Y23362700D02*
Y23437300D01*
X28625800Y23362700D02*
Y23437300D01*
X28651200Y23362700D02*
Y23437300D01*
X28792700Y23562700D02*
Y23637300D01*
X28867300*
Y23562700*
X28792700*
X28867300*
X28792700Y23588100D02*
X28867300D01*
X28792700Y23613500D02*
X28867300D01*
X28803600Y23562700D02*
Y23637300D01*
X28829000Y23562700D02*
Y23637300D01*
X28854400Y23562700D02*
Y23637300D01*
X28792700Y23362700D02*
Y23437300D01*
X28867300*
Y23362700*
X28792700*
X28867300*
X28792700Y23388100D02*
X28867300D01*
X28792700Y23413500D02*
X28867300D01*
X28803600Y23362700D02*
Y23437300D01*
X28829000Y23362700D02*
Y23437300D01*
X28854400Y23362700D02*
Y23437300D01*
X32087700Y23237700D02*
Y23312300D01*
X32162300*
Y23237700*
X32087700*
X32162300*
X32087700Y23263100D02*
X32162300D01*
X32087700Y23288500D02*
X32162300D01*
X32105600Y23237700D02*
Y23312300D01*
X32131000Y23237700D02*
Y23312300D01*
X32156400Y23237700D02*
Y23312300D01*
X32087700Y23037700D02*
Y23112300D01*
X32162300*
Y23037700*
X32087700*
X32162300*
X32087700Y23063100D02*
X32162300D01*
X32087700Y23088500D02*
X32162300D01*
X32105600Y23037700D02*
Y23112300D01*
X32131000Y23037700D02*
Y23112300D01*
X32156400Y23037700D02*
Y23112300D01*
X29467300Y23437300D02*
Y23362700D01*
X29392700*
Y23437300*
X29467300*
X29392700Y23362700D02*
X29467300D01*
X29392700Y23388100D02*
X29467300D01*
X29392700Y23413500D02*
X29467300D01*
X29413200Y23362700D02*
Y23437300D01*
X29438600Y23362700D02*
Y23437300D01*
X29464000Y23362700D02*
Y23437300D01*
X29467300Y23637300D02*
Y23562700D01*
X29392700*
Y23637300*
X29467300*
X29392700Y23562700D02*
X29467300D01*
X29392700Y23588100D02*
X29467300D01*
X29392700Y23613500D02*
X29467300D01*
X29413200Y23562700D02*
Y23637300D01*
X29438600Y23562700D02*
Y23637300D01*
X29464000Y23562700D02*
Y23637300D01*
X35237300Y24387300D02*
Y24312700D01*
X35162700*
Y24387300*
X35237300*
X35162700Y24312700D02*
X35237300D01*
X35162700Y24338100D02*
X35237300D01*
X35162700Y24363500D02*
X35237300D01*
X35179000Y24312700D02*
Y24387300D01*
X35204400Y24312700D02*
Y24387300D01*
X35229800Y24312700D02*
Y24387300D01*
X35237300Y24587300D02*
Y24512700D01*
X35162700*
Y24587300*
X35237300*
X35162700Y24512700D02*
X35237300D01*
X35162700Y24538100D02*
X35237300D01*
X35162700Y24563500D02*
X35237300D01*
X35179000Y24512700D02*
Y24587300D01*
X35204400Y24512700D02*
Y24587300D01*
X35229800Y24512700D02*
Y24587300D01*
X35487300Y24387300D02*
Y24312700D01*
X35412700*
Y24387300*
X35487300*
X35412700Y24312700D02*
X35487300D01*
X35412700Y24338100D02*
X35487300D01*
X35412700Y24363500D02*
X35487300D01*
X35433000Y24312700D02*
Y24387300D01*
X35458400Y24312700D02*
Y24387300D01*
X35483800Y24312700D02*
Y24387300D01*
X35487300Y24587300D02*
Y24512700D01*
X35412700*
Y24587300*
X35487300*
X35412700Y24512700D02*
X35487300D01*
X35412700Y24538100D02*
X35487300D01*
X35412700Y24563500D02*
X35487300D01*
X35433000Y24512700D02*
Y24587300D01*
X35458400Y24512700D02*
Y24587300D01*
X35483800Y24512700D02*
Y24587300D01*
X35737300Y24387300D02*
Y24312700D01*
X35662700*
Y24387300*
X35737300*
X35662700Y24312700D02*
X35737300D01*
X35662700Y24338100D02*
X35737300D01*
X35662700Y24363500D02*
X35737300D01*
X35687000Y24312700D02*
Y24387300D01*
X35712400Y24312700D02*
Y24387300D01*
X35737300Y24587300D02*
Y24512700D01*
X35662700*
Y24587300*
X35737300*
X35662700Y24512700D02*
X35737300D01*
X35662700Y24538100D02*
X35737300D01*
X35662700Y24563500D02*
X35737300D01*
X35687000Y24512700D02*
Y24587300D01*
X35712400Y24512700D02*
Y24587300D01*
X37332300Y20282300D02*
Y20207700D01*
X37257700*
Y20282300*
X37332300*
X37257700Y20207700D02*
X37332300D01*
X37257700Y20233100D02*
X37332300D01*
X37257700Y20258500D02*
X37332300D01*
X37261800Y20207700D02*
Y20282300D01*
X37287200Y20207700D02*
Y20282300D01*
X37312600Y20207700D02*
Y20282300D01*
X37332300Y20482300D02*
Y20407700D01*
X37257700*
Y20482300*
X37332300*
X37257700Y20407700D02*
X37332300D01*
X37257700Y20433100D02*
X37332300D01*
X37257700Y20458500D02*
X37332300D01*
X37261800Y20407700D02*
Y20482300D01*
X37287200Y20407700D02*
Y20482300D01*
X37312600Y20407700D02*
Y20482300D01*
X38469800Y20545200D02*
X38332700D01*
Y20694800*
X38469800*
Y20545200*
X38332700D02*
X38469800D01*
X38332700Y20570600D02*
X38469800D01*
X38332700Y20596000D02*
X38469800D01*
X38332700Y20621400D02*
X38469800D01*
X38332700Y20646800D02*
X38469800D01*
X38332700Y20672200D02*
X38469800D01*
X38354000Y20545200D02*
Y20694800D01*
X38379400Y20545200D02*
Y20694800D01*
X38404800Y20545200D02*
Y20694800D01*
X38430200Y20545200D02*
Y20694800D01*
X38455600Y20545200D02*
Y20694800D01*
X38207300Y20545200D02*
X38057700D01*
Y20694800*
X38207300*
Y20545200*
X38057700D02*
X38207300D01*
X38057700Y20570600D02*
X38207300D01*
X38057700Y20596000D02*
X38207300D01*
X38057700Y20621400D02*
X38207300D01*
X38057700Y20646800D02*
X38207300D01*
X38057700Y20672200D02*
X38207300D01*
X38074600Y20545200D02*
Y20694800D01*
X38100000Y20545200D02*
Y20694800D01*
X38125400Y20545200D02*
Y20694800D01*
X38150800Y20545200D02*
Y20694800D01*
X38176200Y20545200D02*
Y20694800D01*
X38201600Y20545200D02*
Y20694800D01*
X27437300Y23137700D02*
X27362700D01*
Y23212300*
X27437300*
Y23137700*
X27362700D02*
X27437300D01*
X27362700Y23163100D02*
X27437300D01*
X27362700Y23188500D02*
X27437300D01*
X27381200Y23137700D02*
Y23212300D01*
X27406600Y23137700D02*
Y23212300D01*
X27432000Y23137700D02*
Y23212300D01*
X27637300Y23137700D02*
X27562700D01*
Y23212300*
X27637300*
Y23137700*
X27562700D02*
X27637300D01*
X27562700Y23163100D02*
X27637300D01*
X27562700Y23188500D02*
X27637300D01*
X27584400Y23137700D02*
Y23212300D01*
X27609800Y23137700D02*
Y23212300D01*
X27635200Y23137700D02*
Y23212300D01*
X27437300Y23512700D02*
X27362700D01*
Y23587300*
X27437300*
Y23512700*
X27362700D02*
X27437300D01*
X27362700Y23538100D02*
X27437300D01*
X27362700Y23563500D02*
X27437300D01*
X27381200Y23512700D02*
Y23587300D01*
X27406600Y23512700D02*
Y23587300D01*
X27432000Y23512700D02*
Y23587300D01*
X27637300Y23512700D02*
X27562700D01*
Y23587300*
X27637300*
Y23512700*
X27562700D02*
X27637300D01*
X27562700Y23538100D02*
X27637300D01*
X27562700Y23563500D02*
X27637300D01*
X27584400Y23512700D02*
Y23587300D01*
X27609800Y23512700D02*
Y23587300D01*
X27635200Y23512700D02*
Y23587300D01*
X28342300Y20612700D02*
X28267700D01*
Y20687300*
X28342300*
Y20612700*
X28267700D02*
X28342300D01*
X28267700Y20638100D02*
X28342300D01*
X28267700Y20663500D02*
X28342300D01*
X28270200Y20612700D02*
Y20687300D01*
X28295600Y20612700D02*
Y20687300D01*
X28321000Y20612700D02*
Y20687300D01*
X28542300Y20612700D02*
X28467700D01*
Y20687300*
X28542300*
Y20612700*
X28467700D02*
X28542300D01*
X28467700Y20638100D02*
X28542300D01*
X28467700Y20663500D02*
X28542300D01*
X28473400Y20612700D02*
Y20687300D01*
X28498800Y20612700D02*
Y20687300D01*
X28524200Y20612700D02*
Y20687300D01*
X28792300Y20137300D02*
Y20062700D01*
X28717700*
Y20137300*
X28792300*
X28717700Y20062700D02*
X28792300D01*
X28717700Y20088100D02*
X28792300D01*
X28717700Y20113500D02*
X28792300D01*
X28727400Y20062700D02*
Y20137300D01*
X28752800Y20062700D02*
Y20137300D01*
X28778200Y20062700D02*
Y20137300D01*
X28792300Y20337300D02*
Y20262700D01*
X28717700*
Y20337300*
X28792300*
X28717700Y20262700D02*
X28792300D01*
X28717700Y20288100D02*
X28792300D01*
X28717700Y20313500D02*
X28792300D01*
X28727400Y20262700D02*
Y20337300D01*
X28752800Y20262700D02*
Y20337300D01*
X28778200Y20262700D02*
Y20337300D01*
X25400000Y10400000D02*
Y25400000D01*
X39660000*
Y10400000*
X25400000*
G54D59*
X31888640Y22275000D02*
X32061360D01*
X31888640Y22225000D02*
X32061360D01*
X31888640Y22175000D02*
X32061360D01*
X31888640Y22125000D02*
X32061360D01*
X31888640Y22075000D02*
X32061360D01*
X31888640Y22025000D02*
X32061360D01*
X31888640Y21975000D02*
X32061360D01*
X31888640Y21925000D02*
X32061360D01*
X31888640Y21875000D02*
X32061360D01*
X31888640Y21825000D02*
X32061360D01*
X31888640Y21775000D02*
X32061360D01*
X31888640Y21725000D02*
X32061360D01*
X31888640Y21675000D02*
X32061360D01*
X31888640Y21625000D02*
X32061360D01*
X31888640Y21575000D02*
X32061360D01*
X31888640Y21525000D02*
X32061360D01*
X31888640Y21475000D02*
X32061360D01*
X31888640Y21425000D02*
X32061360D01*
X31888640Y21375000D02*
X32061360D01*
X31888640Y21325000D02*
X32061360D01*
X31888640Y21275000D02*
X32061360D01*
X31888640Y21225000D02*
X32061360D01*
X31888640Y21175000D02*
X32061360D01*
X31888640Y21125000D02*
X32061360D01*
X31888640Y21075000D02*
X32061360D01*
X31888640Y21025000D02*
X32061360D01*
X31888640Y20975000D02*
X32061360D01*
X31888640Y20925000D02*
X32061360D01*
X31888640Y20875000D02*
X32061360D01*
X31888640Y20825000D02*
X32061360D01*
X31888640Y20775000D02*
X32061360D01*
X31888640Y20725000D02*
X32061360D01*
X31888640Y20675000D02*
X32061360D01*
X31888640Y20625000D02*
X32061360D01*
X31888640Y20575000D02*
X32061360D01*
X31888640Y20525000D02*
X32061360D01*
X32225000Y20188640D02*
Y20361360D01*
X32275000Y20188640D02*
Y20361360D01*
X32325000Y20188640D02*
Y20361360D01*
X32375000Y20188640D02*
Y20361360D01*
X32425000Y20188640D02*
Y20361360D01*
X32475000Y20188640D02*
Y20361360D01*
X32525000Y20188640D02*
Y20361360D01*
X32575000Y20188640D02*
Y20361360D01*
X32625000Y20188640D02*
Y20361360D01*
X32675000Y20188640D02*
Y20361360D01*
X32725000Y20188640D02*
Y20361360D01*
X32775000Y20188640D02*
Y20361360D01*
X32825000Y20188640D02*
Y20361360D01*
X32875000Y20188640D02*
Y20361360D01*
X32925000Y20188640D02*
Y20361360D01*
X32975000Y20188640D02*
Y20361360D01*
X33025000Y20188640D02*
Y20361360D01*
X33075000Y20188640D02*
Y20361360D01*
X33125000Y20188640D02*
Y20361360D01*
X33175000Y20188640D02*
Y20361360D01*
X33225000Y20188640D02*
Y20361360D01*
X33275000Y20188640D02*
Y20361360D01*
X33325000Y20188640D02*
Y20361360D01*
X33375000Y20188640D02*
Y20361360D01*
X33425000Y20188640D02*
Y20361360D01*
X33475000Y20188640D02*
Y20361360D01*
X33525000Y20188640D02*
Y20361360D01*
X33575000Y20188640D02*
Y20361360D01*
X33625000Y20188640D02*
Y20361360D01*
X33675000Y20188640D02*
Y20361360D01*
X33725000Y20188640D02*
Y20361360D01*
X33775000Y20188640D02*
Y20361360D01*
X33825000Y20188640D02*
Y20361360D01*
X33875000Y20188640D02*
Y20361360D01*
X33925000Y20188640D02*
Y20361360D01*
X33975000Y20188640D02*
Y20361360D01*
X34138640Y20525000D02*
X34311360D01*
X34138640Y20575000D02*
X34311360D01*
X34138640Y20625000D02*
X34311360D01*
X34138640Y20675000D02*
X34311360D01*
X34138640Y20725000D02*
X34311360D01*
X34138640Y20775000D02*
X34311360D01*
X34138640Y20825000D02*
X34311360D01*
X34138640Y20875000D02*
X34311360D01*
X34138640Y20925000D02*
X34311360D01*
X34138640Y20975000D02*
X34311360D01*
X34138640Y21025000D02*
X34311360D01*
X34138640Y21075000D02*
X34311360D01*
X34138640Y21125000D02*
X34311360D01*
X34138640Y21175000D02*
X34311360D01*
X34138640Y21225000D02*
X34311360D01*
X34138640Y21275000D02*
X34311360D01*
X34138640Y21325000D02*
X34311360D01*
X34138640Y21375000D02*
X34311360D01*
X34138640Y21425000D02*
X34311360D01*
X34138640Y21475000D02*
X34311360D01*
X34138640Y21525000D02*
X34311360D01*
X34138640Y21575000D02*
X34311360D01*
X34138640Y21625000D02*
X34311360D01*
X34138640Y21675000D02*
X34311360D01*
X34138640Y21725000D02*
X34311360D01*
X34138640Y21775000D02*
X34311360D01*
X34138640Y21825000D02*
X34311360D01*
X34138640Y21875000D02*
X34311360D01*
X34138640Y21925000D02*
X34311360D01*
X34138640Y21975000D02*
X34311360D01*
X34138640Y22025000D02*
X34311360D01*
X34138640Y22075000D02*
X34311360D01*
X34138640Y22125000D02*
X34311360D01*
X34138640Y22175000D02*
X34311360D01*
X34138640Y22225000D02*
X34311360D01*
X34138640Y22275000D02*
X34311360D01*
X33975000Y22438640D02*
Y22611360D01*
X33925000Y22438640D02*
Y22611360D01*
X33875000Y22438640D02*
Y22611360D01*
X33825000Y22438640D02*
Y22611360D01*
X33775000Y22438640D02*
Y22611360D01*
X33725000Y22438640D02*
Y22611360D01*
X33675000Y22438640D02*
Y22611360D01*
X33625000Y22438640D02*
Y22611360D01*
X33575000Y22438640D02*
Y22611360D01*
X33525000Y22438640D02*
Y22611360D01*
X33475000Y22438640D02*
Y22611360D01*
X33425000Y22438640D02*
Y22611360D01*
X33375000Y22438640D02*
Y22611360D01*
X33325000Y22438640D02*
Y22611360D01*
X33275000Y22438640D02*
Y22611360D01*
X33225000Y22438640D02*
Y22611360D01*
X33175000Y22438640D02*
Y22611360D01*
X33125000Y22438640D02*
Y22611360D01*
X33075000Y22438640D02*
Y22611360D01*
X33025000Y22438640D02*
Y22611360D01*
X32975000Y22438640D02*
Y22611360D01*
X32925000Y22438640D02*
Y22611360D01*
X32875000Y22438640D02*
Y22611360D01*
X32825000Y22438640D02*
Y22611360D01*
X32775000Y22438640D02*
Y22611360D01*
X32725000Y22438640D02*
Y22611360D01*
X32675000Y22438640D02*
Y22611360D01*
X32625000Y22438640D02*
Y22611360D01*
X32575000Y22438640D02*
Y22611360D01*
X32525000Y22438640D02*
Y22611360D01*
X32475000Y22438640D02*
Y22611360D01*
X32425000Y22438640D02*
Y22611360D01*
X32375000Y22438640D02*
Y22611360D01*
X32325000Y22438640D02*
Y22611360D01*
X32275000Y22438640D02*
Y22611360D01*
X32225000Y22438640D02*
Y22611360D01*
G54D69*
X31605000Y17525000D02*
Y17425000D01*
X31155000Y17525000D02*
Y17425000D01*
X31605000Y16625000D02*
Y16525000D01*
X31155000Y16625000D02*
Y16525000D01*
X30635000Y17525000D02*
Y17425000D01*
X30185000Y17525000D02*
Y17425000D01*
X30635000Y16625000D02*
Y16525000D01*
X30185000Y16625000D02*
Y16525000D01*
G54D101*
X38400000Y16675000D02*
X37950000D01*
X38400000Y17125000D02*
X37950000D01*
X33150000Y16525000D02*
Y16075000D01*
X32700000Y16525000D02*
Y16075000D01*
G54D108*
X37030000Y16550000D02*
X37520000D01*
X37030000Y16050000D02*
X37520000D01*
X34675000Y17545000D02*
Y17055000D01*
X34175000Y17545000D02*
Y17055000D01*
G54D109*
X27189500Y20174480D02*
Y20301480D01*
X27316500Y20174480D02*
Y20301480D01*
X27443500Y20174480D02*
Y20301480D01*
X27570500Y20174480D02*
Y20301480D01*
Y20748520D02*
Y20875520D01*
X27443500Y20748520D02*
Y20875520D01*
X27316500Y20748520D02*
Y20875520D01*
X27189500Y20748520D02*
Y20875520D01*
X36515500Y16500520D02*
Y16373520D01*
X36388500Y16500520D02*
Y16373520D01*
X36261500Y16500520D02*
Y16373520D01*
X36134500Y16500520D02*
Y16373520D01*
Y15926480D02*
Y15799480D01*
X36261500Y15926480D02*
Y15799480D01*
X36388500Y15926480D02*
Y15799480D01*
X36515500Y15926480D02*
Y15799480D01*
X34615500Y16475520D02*
Y16348520D01*
X34488500Y16475520D02*
Y16348520D01*
X34361500Y16475520D02*
Y16348520D01*
X34234500Y16475520D02*
Y16348520D01*
Y15901480D02*
Y15774480D01*
X34361500Y15901480D02*
Y15774480D01*
X34488500Y15901480D02*
Y15774480D01*
X34615500Y15901480D02*
Y15774480D01*
X29364480Y16106000D02*
X29491480D01*
X29364480Y15979000D02*
X29491480D01*
X29364480Y15852000D02*
X29491480D01*
X29364480Y15725000D02*
X29491480D01*
X29364480Y15598000D02*
X29491480D01*
X29364480Y15471000D02*
X29491480D01*
X29364480Y15344000D02*
X29491480D01*
X29938520D02*
X30065520D01*
X29938520Y15471000D02*
X30065520D01*
X29938520Y15598000D02*
X30065520D01*
X29938520Y15725000D02*
X30065520D01*
X29938520Y15852000D02*
X30065520D01*
X29938520Y15979000D02*
X30065520D01*
X29938520Y16106000D02*
X30065520D01*
G54D110*
X34225000Y22525000D03*
X31975000Y20275000D03*
X29830133Y20824315D03*
X28929449Y21725000D03*
G54D114*
X37890150Y21702500D02*
X38029850D01*
X37890150Y21637500D02*
X38029850D01*
X37890150Y21572500D02*
X38029850D01*
X37890150Y21507500D02*
X38029850D01*
X37890150Y21442500D02*
X38029850D01*
X37890150Y21377500D02*
X38029850D01*
X37890150Y21312500D02*
X38029850D01*
X37890150Y21247500D02*
X38029850D01*
X38530150D02*
X38669850D01*
X38530150Y21312500D02*
X38669850D01*
X38530150Y21377500D02*
X38669850D01*
X38530150Y21442500D02*
X38669850D01*
X38530150Y21507500D02*
X38669850D01*
X38530150Y21572500D02*
X38669850D01*
X38530150Y21637500D02*
X38669850D01*
X38530150Y21702500D02*
X38669850D01*
G54D115*
X38391824Y22290000D02*
X38478184D01*
X38391824Y22225000D02*
X38478184D01*
X38391824Y22160001D02*
X38478184D01*
X38581816D02*
X38668176D01*
X38581816Y22225000D02*
X38668176D01*
X38581816Y22289999D02*
X38668176D01*
G54D116*
X29610000Y20145000D02*
X29630000D01*
X29830000D02*
X29850000D01*
X29830000Y20305000D02*
X29850000D01*
X29610000D02*
X29630000D01*
X31345000Y21245000D02*
Y21225000D01*
Y21025000D02*
Y21005000D01*
X31505000Y21025000D02*
Y21005000D01*
Y21245000D02*
Y21225000D01*
X0Y0D02*
M02*
