*
*
G04 PADS Layout (Build Number 2005.266.2) generated Gerber (RS-274-X) file*
G04 PC Version=2.1*
*
%IN "cflora_base_1125.pcb"*%
*
%MOMM*%
*
%FSLAX35Y35*%
*
*
*
*
G04 PC Standard Apertures*
*
*
G04 Thermal Relief Aperture macro.*
%AMTER*
1,1,$1,0,0*
1,0,$1-$2,0,0*
21,0,$3,$4,0,0,45*
21,0,$3,$4,0,0,135*
%
*
*
G04 Annular Aperture macro.*
%AMANN*
1,1,$1,0,0*
1,0,$2,0,0*
%
*
*
G04 Odd Aperture macro.*
%AMODD*
1,1,$1,0,0*
1,0,$1-0.005,0,0*
%
*
*
G04 PC Custom Aperture Macros*
*
*
*
*
*
*
G04 PC Aperture Table*
*
%ADD058C,0.254*%
%ADD060C,1.3*%
%ADD079R,1.65X1.65*%
%ADD080R,1.066X1.066*%
%ADD083C,1.55*%
%ADD084R,1.4724X1.4724*%
%ADD085C,1.4724*%
%ADD086C,2.05*%
%ADD087C,2.55*%
%ADD089C,1.65*%
%ADD095C,1.066*%
%ADD106C,1.25*%
%ADD128C,0.85*%
%ADD129C,1.05*%
%ADD130R,7.05X7.05*%
%ADD131R,1.3X1.3*%
%ADD132C,2.65*%
%ADD137R,1.3708X1.3708*%
%ADD138C,1.3708*%
%ADD139C,3.3012*%
%ADD142C,6.25*%
%ADD143C,4.55*%
*
*
*
*
G04 PC Custom Flashes*
G04 Layer Name cflora_base_1125.pcb - flashes*
%LPD*%
*
*
G04 PC Circuitry*
G04 Layer Name cflora_base_1125.pcb - circuitry*
%LPD*%
*
G54D58*
G01X25400000Y10400000D02*
Y25400000D01*
X39660000*
Y10400000*
X25400000*
G54D60*
X28630000Y24250000D03*
X28830000Y24050000D03*
Y24250000D03*
X29030000Y24050000D03*
Y24250000D03*
X29230000Y24050000D03*
Y24250000D03*
X29430000Y24050000D03*
Y24250000D03*
G54D79*
X27515000Y16850000D03*
Y15825000D03*
X26355000Y18250000D03*
X27350000Y14375000D03*
Y13625000D03*
X27050000Y14375000D03*
Y13625000D03*
X26450000Y14375000D03*
Y13625000D03*
X26750000Y14375000D03*
X27580000Y21900000D03*
X26750000Y13625000D03*
X26150000Y14375000D03*
Y13625000D03*
X25850000Y14375000D03*
Y13625000D03*
X39255000Y23250000D03*
X38955000Y22675000D03*
X32400000Y23075000D03*
X37580000Y18900000D03*
G54D80*
X31575000Y21900000D03*
G54D83*
X39055000Y20250000D03*
X39255000D03*
X33780000Y14600000D03*
X33580000D03*
X38125000Y15725000D03*
X39275000D03*
X33525000Y17250000D03*
X32375000D03*
X38445000Y19895000D03*
X37945000D03*
X38125000Y15725000D03*
X39275000D03*
X33525000Y17250000D03*
X32375000D03*
G54D84*
X29482000Y24973000D03*
Y12873000D03*
G54D85*
Y25227000D03*
X29736000Y24973000D03*
Y25227000D03*
X29990000Y24973000D03*
Y25227000D03*
X30244000Y24973000D03*
Y25227000D03*
X30498000Y24973000D03*
Y25227000D03*
X30752000Y24973000D03*
Y25227000D03*
X31006000Y24973000D03*
Y25227000D03*
X31260000Y24973000D03*
Y25227000D03*
X31514000Y24973000D03*
Y25227000D03*
X31768000Y24973000D03*
Y25227000D03*
X32022000Y24973000D03*
Y25227000D03*
X32276000Y24973000D03*
Y25227000D03*
X32530000Y24973000D03*
Y25227000D03*
X32784000Y24973000D03*
Y25227000D03*
X33038000Y24973000D03*
Y25227000D03*
X33292000Y24973000D03*
Y25227000D03*
X33546000Y24973000D03*
Y25227000D03*
X33800000Y24973000D03*
Y25227000D03*
X34054000Y24973000D03*
Y25227000D03*
X34308000Y24973000D03*
Y25227000D03*
X34562000Y24973000D03*
Y25227000D03*
X34816000Y24973000D03*
Y25227000D03*
X35070000Y24973000D03*
Y25227000D03*
X35324000Y24973000D03*
Y25227000D03*
X35578000Y24973000D03*
Y25227000D03*
X29482000Y13127000D03*
X29736000Y12873000D03*
Y13127000D03*
X29990000Y12873000D03*
Y13127000D03*
X30244000Y12873000D03*
Y13127000D03*
X30498000Y12873000D03*
Y13127000D03*
X30752000Y12873000D03*
Y13127000D03*
X31006000Y12873000D03*
Y13127000D03*
X31260000Y12873000D03*
Y13127000D03*
X31514000Y12873000D03*
Y13127000D03*
X31768000Y12873000D03*
Y13127000D03*
X32022000Y12873000D03*
Y13127000D03*
X32276000Y12873000D03*
Y13127000D03*
X32530000Y12873000D03*
Y13127000D03*
X32784000Y12873000D03*
Y13127000D03*
X33038000Y12873000D03*
Y13127000D03*
X33292000Y12873000D03*
Y13127000D03*
X33546000Y12873000D03*
Y13127000D03*
X33800000Y12873000D03*
Y13127000D03*
X34054000Y12873000D03*
Y13127000D03*
X34308000Y12873000D03*
Y13127000D03*
X34562000Y12873000D03*
Y13127000D03*
X34816000Y12873000D03*
Y13127000D03*
X35070000Y12873000D03*
Y13127000D03*
X35324000Y12873000D03*
Y13127000D03*
X35578000Y12873000D03*
Y13127000D03*
G54D86*
X27679250Y10850000D03*
X27330000D03*
X26979250D03*
X28979250Y11950000D03*
X28630000D03*
X28279250D03*
X28979250Y10850000D03*
X28630000D03*
X28279250D03*
X30279250Y11950000D03*
X29930000D03*
X29579250D03*
X30279250Y10850000D03*
X29930000D03*
X29579250D03*
X31579250Y11950000D03*
X31230000D03*
X30879250D03*
X31579250Y10850000D03*
X31230000D03*
X30879250D03*
X32879250Y11950000D03*
X32530000D03*
X32179250D03*
X32879250Y10850000D03*
X32530000D03*
X32179250D03*
X34179250Y11950000D03*
X33830000D03*
X33479250D03*
X34179250Y10850000D03*
X33830000D03*
X33479250D03*
X35479250Y11950000D03*
X35130000D03*
X34779250D03*
X35479250Y10850000D03*
X35130000D03*
X34779250D03*
X36779250Y11950000D03*
X36430000D03*
X36079250D03*
X36779250Y10850000D03*
X36430000D03*
X36079250D03*
X27679250Y11950000D03*
X27330000D03*
X26979250D03*
X38079250D03*
X37730000D03*
X37379250D03*
X38079250Y10850000D03*
X37730000D03*
X37379250D03*
G54D87*
X26125000Y20100000D03*
Y21300000D03*
Y18550000D03*
Y19750000D03*
X26263900Y24018400D03*
Y22392800D03*
G54D89*
X26355000Y20547000D03*
Y20751000D03*
X26609000Y20649000D03*
Y20853000D03*
X26355000Y18997000D03*
Y19201000D03*
X26609000Y19099000D03*
Y19303000D03*
X27515000Y16596000D03*
X28277000D03*
Y16850000D03*
X27515000Y15571000D03*
X28277000D03*
Y15825000D03*
X26355000Y17996000D03*
X27350000Y14629000D03*
Y13879000D03*
X27050000Y14629000D03*
Y13879000D03*
X26450000Y14629000D03*
Y13879000D03*
X26750000Y14629000D03*
X27580000Y21646000D03*
X26750000Y13879000D03*
X26150000Y14629000D03*
Y13879000D03*
X25850000Y14629000D03*
Y13879000D03*
X39275000Y14625000D03*
Y14375000D03*
Y14125000D03*
X39001000Y23250000D03*
X39209000Y22675000D03*
X32400000Y23329000D03*
X37580000Y18646000D03*
Y18392000D03*
Y18138000D03*
X38342000D03*
Y18392000D03*
Y18646000D03*
Y18900000D03*
X38975000Y17525000D03*
X32805000Y14600000D03*
G54D95*
X31575000Y22100000D03*
G54D106*
X36375000Y16750000D03*
Y17350000D03*
X34950000Y16550000D03*
Y15950000D03*
X36375000Y16750000D03*
Y17350000D03*
X34950000Y16550000D03*
Y15950000D03*
G54D128*
X27255000Y19900000D03*
Y19600000D03*
X27875000Y23175000D03*
X28175000D03*
X27875000Y23550000D03*
X28175000D03*
X29580000Y19900000D03*
X29880000D03*
X27350000Y22775000D03*
X27650000D03*
X27350000Y23375000D03*
X27650000D03*
X30105000Y20325000D03*
Y20025000D03*
X26650000Y21950000D03*
X26262500D03*
X37275000Y16900000D03*
Y17200000D03*
X35100000Y16825000D03*
Y17125000D03*
X37450000Y15250000D03*
X37150000D03*
X27455000Y19900000D03*
Y19600000D03*
X39475000Y17050000D03*
Y16750000D03*
X33550000Y16500000D03*
Y16200000D03*
X32450000Y16000000D03*
X32150000D03*
X38225000Y14425000D03*
Y14725000D03*
X35625000Y16000000D03*
X35325000D03*
X33700000D03*
X33400000D03*
X34350000Y16700000D03*
X34050000D03*
X36025000Y16850000D03*
Y17150000D03*
X29830000Y16350000D03*
X29530000D03*
X38905000Y22225000D03*
X39205000D03*
X29355000Y20350000D03*
Y20050000D03*
X38130000Y21950000D03*
X38430000D03*
X38905000D03*
X38605000D03*
X37305000Y21650000D03*
X37605000D03*
X37300000Y21425000D03*
X37600000D03*
X37305000Y21225000D03*
X37605000D03*
X38055000Y23500000D03*
X37755000D03*
X31550000Y20775000D03*
X31250000D03*
Y21500000D03*
X31550000D03*
X31155000Y17775000D03*
X31455000D03*
X30185000D03*
X30485000D03*
X29300000Y22075000D03*
Y22375000D03*
X31555000Y22275000D03*
X31255000D03*
X31555000Y21725000D03*
X31255000D03*
X34625000Y22450000D03*
X34925000D03*
X33375000Y23050000D03*
Y23350000D03*
X31700000Y19875000D03*
Y19575000D03*
X33075000Y19875000D03*
Y19575000D03*
X34625000Y22250000D03*
X34925000D03*
X33925000Y19875000D03*
Y19575000D03*
X37545000Y20195000D03*
Y20495000D03*
X29675000Y22075000D03*
Y22375000D03*
X29155000Y20350000D03*
Y20050000D03*
X28555000Y21500000D03*
X28255000D03*
X27875000Y22575000D03*
X28175000D03*
X27875000Y22975000D03*
X28175000D03*
X27280000Y21125000D03*
Y21275000D03*
X38730000Y22850000D03*
Y23000000D03*
X27430000Y21125000D03*
Y21275000D03*
X38425000Y14500000D03*
Y14650000D03*
X27190000Y17025000D03*
Y16475000D03*
Y15950000D03*
Y15400000D03*
X38730000Y23300000D03*
Y23150000D03*
X28700300Y16563900D03*
Y16386100D03*
X28990000Y16475000D03*
X28700300Y15613900D03*
Y15436100D03*
X28990000Y15525000D03*
X26175300Y16588900D03*
Y16411100D03*
X26465000Y16500000D03*
X26175300Y15513900D03*
Y15336100D03*
X26465000Y15425000D03*
X37255300Y19983900D03*
Y19806100D03*
X37545000Y19895000D03*
X27305000Y21600000D03*
Y21900000D03*
X28555000Y20850000D03*
X28255000D03*
X29875000Y22075000D03*
Y22375000D03*
X28955000Y20350000D03*
Y20050000D03*
X36787500Y15400000D03*
X36062500D03*
X37500000Y17200000D03*
Y16900000D03*
X35900000Y16200000D03*
Y16500000D03*
X34887500Y15400000D03*
X34162500D03*
X35100000Y17300000D03*
Y17600000D03*
X33355000Y14600000D03*
X33055000D03*
X33975000Y16200000D03*
Y16500000D03*
X27105000Y21425000D03*
Y21125000D03*
X35675000Y16200000D03*
Y16500000D03*
X33775000Y16200000D03*
Y16500000D03*
X28690000Y16750000D03*
X28990000D03*
X28690000Y15825000D03*
X28990000D03*
X26940000Y17000000D03*
X26640000D03*
X28990000Y16175000D03*
X28690000D03*
X26940000Y15925000D03*
X26640000D03*
X28990000Y15250000D03*
X28690000D03*
X28490000Y16600000D03*
Y16300000D03*
Y15625000D03*
Y15325000D03*
X28255000Y21050000D03*
X28555000D03*
X26640000Y16500000D03*
X26940000D03*
X26640000Y15425000D03*
X26940000D03*
X25690000Y16600000D03*
X25990000D03*
X25690000Y15525000D03*
X25990000D03*
Y16400000D03*
X25690000D03*
X25990000Y15325000D03*
X25690000D03*
X39255000Y21325000D03*
X38955000D03*
X39255000Y21125000D03*
X38955000D03*
X38555000Y23150000D03*
Y23450000D03*
X38905000Y22425000D03*
X39205000D03*
X27650000Y22575000D03*
X27350000D03*
X37030000Y23075000D03*
X37330000D03*
X37030000Y23275000D03*
X37330000D03*
X38955000Y22975000D03*
X39255000D03*
X38555000Y22700000D03*
Y23000000D03*
X32875000Y19875000D03*
Y19575000D03*
X39305000Y19825000D03*
X39005000D03*
X32850000Y23050000D03*
Y23350000D03*
X32650000D03*
Y23050000D03*
X29230000Y23350000D03*
Y23650000D03*
X29030000Y23350000D03*
Y23650000D03*
X27650000Y22975000D03*
X27350000D03*
X28630000Y23350000D03*
Y23650000D03*
X28830000Y23350000D03*
Y23650000D03*
X32125000Y23025000D03*
Y23325000D03*
X29430000Y23650000D03*
Y23350000D03*
X35200000Y24600000D03*
Y24300000D03*
X35450000Y24600000D03*
Y24300000D03*
X35700000Y24600000D03*
Y24300000D03*
X37295000Y20495000D03*
Y20195000D03*
X38070000Y20620000D03*
X38457500D03*
X27650000Y23175000D03*
X27350000D03*
X27650000Y23550000D03*
X27350000D03*
X28555000Y20650000D03*
X28255000D03*
X28755000Y20350000D03*
Y20050000D03*
X27255000Y19900000D03*
Y19600000D03*
X27875000Y23175000D03*
X28175000D03*
X27875000Y23550000D03*
X28175000D03*
X29580000Y19900000D03*
X29880000D03*
X27350000Y22775000D03*
X27650000D03*
X27350000Y23375000D03*
X27650000D03*
X30105000Y20325000D03*
Y20025000D03*
X26650000Y21950000D03*
X26262500D03*
X37275000Y16900000D03*
Y17200000D03*
X35100000Y16825000D03*
Y17125000D03*
X37450000Y15250000D03*
X37150000D03*
X27455000Y19900000D03*
Y19600000D03*
X39475000Y17050000D03*
Y16750000D03*
X33550000Y16500000D03*
Y16200000D03*
X32450000Y16000000D03*
X32150000D03*
X38225000Y14425000D03*
Y14725000D03*
X35625000Y16000000D03*
X35325000D03*
X33700000D03*
X33400000D03*
X34350000Y16700000D03*
X34050000D03*
X36025000Y16850000D03*
Y17150000D03*
X29830000Y16350000D03*
X29530000D03*
X38905000Y22225000D03*
X39205000D03*
X29355000Y20350000D03*
Y20050000D03*
X38130000Y21950000D03*
X38430000D03*
X38905000D03*
X38605000D03*
X37305000Y21650000D03*
X37605000D03*
X37300000Y21425000D03*
X37600000D03*
X37305000Y21225000D03*
X37605000D03*
X38055000Y23500000D03*
X37755000D03*
X31550000Y20775000D03*
X31250000D03*
Y21500000D03*
X31550000D03*
X31155000Y17775000D03*
X31455000D03*
X30185000D03*
X30485000D03*
X29300000Y22075000D03*
Y22375000D03*
X31555000Y22275000D03*
X31255000D03*
X31555000Y21725000D03*
X31255000D03*
X34625000Y22450000D03*
X34925000D03*
X33375000Y23050000D03*
Y23350000D03*
X31700000Y19875000D03*
Y19575000D03*
X33075000Y19875000D03*
Y19575000D03*
X34625000Y22250000D03*
X34925000D03*
X33925000Y19875000D03*
Y19575000D03*
X37545000Y20195000D03*
Y20495000D03*
X29675000Y22075000D03*
Y22375000D03*
X29155000Y20350000D03*
Y20050000D03*
X28555000Y21500000D03*
X28255000D03*
X27875000Y22575000D03*
X28175000D03*
X27875000Y22975000D03*
X28175000D03*
X27280000Y21125000D03*
Y21275000D03*
X38730000Y22850000D03*
Y23000000D03*
X27430000Y21125000D03*
Y21275000D03*
X38425000Y14500000D03*
Y14650000D03*
X27190000Y17025000D03*
Y16475000D03*
Y15950000D03*
Y15400000D03*
X38730000Y23300000D03*
Y23150000D03*
X28700300Y16563900D03*
Y16386100D03*
X28990000Y16475000D03*
X28700300Y15613900D03*
Y15436100D03*
X28990000Y15525000D03*
X26175300Y16588900D03*
Y16411100D03*
X26465000Y16500000D03*
X26175300Y15513900D03*
Y15336100D03*
X26465000Y15425000D03*
X37255300Y19983900D03*
Y19806100D03*
X37545000Y19895000D03*
X27305000Y21600000D03*
Y21900000D03*
X28555000Y20850000D03*
X28255000D03*
X29875000Y22075000D03*
Y22375000D03*
X28955000Y20350000D03*
Y20050000D03*
X36787500Y15400000D03*
X36062500D03*
X37500000Y17200000D03*
Y16900000D03*
X35900000Y16200000D03*
Y16500000D03*
X34887500Y15400000D03*
X34162500D03*
X35100000Y17300000D03*
Y17600000D03*
X33355000Y14600000D03*
X33055000D03*
X33975000Y16200000D03*
Y16500000D03*
X27105000Y21425000D03*
Y21125000D03*
X35675000Y16200000D03*
Y16500000D03*
X33775000Y16200000D03*
Y16500000D03*
X28690000Y16750000D03*
X28990000D03*
X28690000Y15825000D03*
X28990000D03*
X26940000Y17000000D03*
X26640000D03*
X28990000Y16175000D03*
X28690000D03*
X26940000Y15925000D03*
X26640000D03*
X28990000Y15250000D03*
X28690000D03*
X28490000Y16600000D03*
Y16300000D03*
Y15625000D03*
Y15325000D03*
X28255000Y21050000D03*
X28555000D03*
X26640000Y16500000D03*
X26940000D03*
X26640000Y15425000D03*
X26940000D03*
X25690000Y16600000D03*
X25990000D03*
X25690000Y15525000D03*
X25990000D03*
Y16400000D03*
X25690000D03*
X25990000Y15325000D03*
X25690000D03*
X39255000Y21325000D03*
X38955000D03*
X39255000Y21125000D03*
X38955000D03*
X38555000Y23150000D03*
Y23450000D03*
X38905000Y22425000D03*
X39205000D03*
X27650000Y22575000D03*
X27350000D03*
X37030000Y23075000D03*
X37330000D03*
X37030000Y23275000D03*
X37330000D03*
X38955000Y22975000D03*
X39255000D03*
X38555000Y22700000D03*
Y23000000D03*
X32875000Y19875000D03*
Y19575000D03*
X39305000Y19825000D03*
X39005000D03*
X32850000Y23050000D03*
Y23350000D03*
X32650000D03*
Y23050000D03*
X29230000Y23350000D03*
Y23650000D03*
X29030000Y23350000D03*
Y23650000D03*
X27650000Y22975000D03*
X27350000D03*
X28630000Y23350000D03*
Y23650000D03*
X28830000Y23350000D03*
Y23650000D03*
X32125000Y23025000D03*
Y23325000D03*
X29430000Y23650000D03*
Y23350000D03*
X35200000Y24600000D03*
Y24300000D03*
X35450000Y24600000D03*
Y24300000D03*
X35700000Y24600000D03*
Y24300000D03*
X37295000Y20495000D03*
Y20195000D03*
X38070000Y20620000D03*
X38457500D03*
X27650000Y23175000D03*
X27350000D03*
X27650000Y23550000D03*
X27350000D03*
X28555000Y20650000D03*
X28255000D03*
X28755000Y20350000D03*
Y20050000D03*
G54D129*
X38975000Y17250000D03*
Y16550000D03*
X32850000Y15500000D03*
X32150000D03*
X35825000D03*
X35125000D03*
X33900000D03*
X33200000D03*
X33475000Y19875000D03*
Y19375000D03*
X32125000Y19875000D03*
Y19375000D03*
X38975000Y17250000D03*
Y16550000D03*
X32850000Y15500000D03*
X32150000D03*
X35825000D03*
X35125000D03*
X33900000D03*
X33200000D03*
X33475000Y19875000D03*
Y19375000D03*
X32125000Y19875000D03*
Y19375000D03*
G54D130*
X37550000Y14300000D03*
X35850000D03*
G54D131*
X28630000Y24050000D03*
G54D132*
X39040000Y11639988D03*
Y12140012D03*
G54D137*
X26175000Y22850000D03*
G54D138*
X26352800Y22951600D03*
X26175000Y23053200D03*
X26352800Y23154800D03*
X26175000Y23256400D03*
X26352800Y23358000D03*
X26175000Y23459600D03*
X26352800Y23561200D03*
X26835400Y23891400D03*
Y23662800D03*
Y22748400D03*
Y22519800D03*
G54D139*
X25921000Y23840600D03*
Y22570600D03*
G54D142*
X36430000Y23350000D03*
Y18450000D03*
X30630000Y23350000D03*
Y18450000D03*
G54D143*
X25800000Y25000000D03*
X39260000D03*
Y13100000D03*
X25800000D03*
Y10800000D03*
X39260000D03*
X0Y0D02*
M02*
