%
T1C.01181F095S3
X01689Y015709
X022992Y015709
X025551Y011969
X025945Y013543
X027126Y013543
X02752Y011969
X028504Y012165
X028504Y013346
X029291Y012165
X029291Y013346
X030079Y013346
X030079Y012165
X03185Y011969
X032244Y013543
X033425Y013543
X033819Y011969
X037854Y01315
X037854Y012657
X037953Y015315
X03874Y015315
X039331Y013937
X039331Y01315
X039528Y015315
X040315Y015315
X040512Y01315
X040512Y013937
X041693Y013937
X041693Y015512
X041693Y014724
X041693Y01315
X042874Y013937
X042874Y015512
X042874Y014724
X042874Y01315
X044055Y013937
X044055Y014724
X044055Y01315
X044055Y015512
X045236Y014724
X045236Y013937
X045236Y01315
X045236Y015512
X07063Y013642
X074173Y014528
X074173Y013346
X074961Y014528
X074961Y013346
X075354Y012362
X075748Y014528
X075748Y013346
X076929Y014528
X076929Y013346
X089724Y014724
X090906Y014724
X090906Y017874
X089724Y017874
X082293Y017087
X079439Y017087
X074961Y017677
X074961Y016496
X074173Y016496
X074173Y017677
X07063Y018169
X067677Y018268
X066496Y018268
X061378Y01748
X061181Y017874
X058228Y016988
X057835Y016496
X054488Y016693
X053504Y016693
X050354Y017087
X04937Y017087
X04878Y017087
X047008Y017087
X045728Y01689
X045138Y01689
X044154Y01689
X043563Y01689
X040315Y016496
X039528Y016496
X038876Y017087
X03874Y016496
X037953Y016496
X037165Y017677
X036772Y017283
X031457Y016102
X03126Y016496
X030866Y016693
X030472Y016496
X030079Y016693
X030079Y017185
X029685Y017382
X029488Y017776
X024567Y018071
X02378Y018071
X022402Y016299
X021339Y017244
X02122Y016299
X020039Y017087
X020039Y017874
X018858Y017874
X018858Y017087
X017283Y017087
X017283Y017874
X016102Y017874
X016102Y017087
X015315Y017874
X014134Y017874
X014134Y020236
X014134Y019449
X014134Y018661
X015315Y020236
X015315Y019449
X015315Y018661
X016102Y018661
X016102Y019449
X016102Y020236
X017283Y018661
X017283Y019449
X017283Y020236
X018858Y019449
X018858Y018661
X020039Y019449
X020039Y018661
X02122Y019449
X022283Y018504
X022402Y019449
X02378Y020039
X02378Y019252
X024567Y019252
X024567Y020039
X025453Y019547
X025945Y019843
X027717Y019843
X02811Y020039
X028504Y020236
X031654Y019843
X03185Y019252
X031949Y01876
X035197Y019646
X036772Y019646
X036772Y018465
X03874Y019055
X039134Y019252
X039724Y019449
X040315Y019449
X043071Y018465
X043071Y019646
X04622Y018465
X04622Y019646
X047992Y018661
X051732Y018465
X051732Y019646
X054094Y018661
X055079Y018661
X056457Y019646
X056457Y018465
X058819Y018661
X059819Y018661
X061181Y019646
X061181Y018465
X066496Y019055
X067677Y019055
X079488Y019055
X080669Y019055
X090906Y021024
X089724Y021024
X08185Y021417
X079094Y021417
X069252Y021417
X066496Y021417
X060394Y021024
X060197Y022402
X059803Y021024
X059311Y021024
X059114Y022598
X058819Y021024
X058622Y022795
X055276Y022205
X055079Y021024
X054587Y021811
X054587Y021024
X054094Y021024
X053898Y022008
X050551Y021417
X050354Y020827
X04937Y020827
X048878Y021024
X048386Y020827
X043896Y02122
X035197Y020827
X032244Y022008
X024567Y02122
X02378Y02122
X017677Y022402
X017283Y021024
X016102Y021024
X015315Y021024
X014134Y021024
X014374Y024723
X014724Y023583
X015074Y024723
X016299Y024764
X016299Y023583
X017087Y024764
X017087Y023583
X020674Y024723
X021024Y023583
X021374Y024723
X022598Y024764
X022598Y023583
X023386Y024764
X023386Y023583
X026973Y024723
X027323Y023583
X027673Y024723
X028898Y024764
X028898Y023583
X029685Y024764
X029685Y023583
X033272Y024723
X033622Y023583
X033972Y024723
X035197Y023583
X035197Y024764
X035984Y023583
X035984Y024764
X039571Y024723
X039921Y023583
X040271Y024723
X041496Y024764
X041496Y023583
X042283Y024764
X042283Y023583
X04587Y024723
X04622Y023583
X04657Y024723
X047795Y024764
X047795Y023583
X048583Y024764
X048583Y023583
X05217Y024723
X05252Y023583
X05287Y024723
X054094Y024764
X054094Y023583
X054882Y023583
X054882Y024764
X058469Y024723
X058819Y023583
X059169Y024723
X060394Y024764
X060394Y023583
X061181Y023583
X061181Y024764
X072992Y024961
X089724Y024173
X090906Y024173
X093661Y027323
X09248Y027323
X090906Y027323
X089724Y027323
X074567Y025945
X074567Y027126
X073386Y027126
X073386Y025945
X072598Y027126
X072598Y025945
X071811Y027126
X071811Y025945
X068661Y025846
X063543Y027717
X062362Y027717
X059606Y026242
X057244Y027717
X056063Y027717
X053307Y026242
X050945Y027717
X049764Y027717
X047008Y026242
X044646Y027717
X043465Y027717
X040709Y026242
X038346Y027717
X037165Y027717
X034409Y026242
X032047Y027717
X030866Y027717
X02811Y026242
X025748Y027717
X024567Y027717
X021811Y026242
X019449Y027717
X018268Y027717
X015512Y026242
X014612Y028717
X015512Y028717
X016412Y028717
X017874Y029882
X019252Y028996
X020911Y028717
X021811Y028717
X022711Y028717
X024173Y029882
X025551Y028996
X02721Y028717
X02811Y028717
X02901Y028717
X030472Y029882
X03185Y028996
X033509Y028717
X034409Y028717
X035309Y028717
X036772Y029882
X03815Y028996
X039809Y028717
X040709Y028717
X041609Y028717
X043071Y029882
X044449Y028996
X046108Y028717
X047008Y028717
X047908Y028717
X04937Y029882
X050748Y028996
X052407Y028717
X053307Y028717
X054207Y028717
X055669Y029882
X057047Y028996
X058706Y028717
X059606Y028717
X060506Y028717
X061969Y029882
X063346Y028996
X068661Y030374
X071811Y029094
X071811Y030276
X072598Y030276
X072598Y029094
X076683Y029685
X079537Y029685
X089724Y030472
X090906Y030472
X09248Y030472
X093661Y030472
X093661Y033622
X09248Y033622
X090906Y033622
X089724Y033622
X083228Y032146
X083228Y032736
X081654Y033031
X081654Y03185
X079488Y033228
X078307Y035591
X077126Y035591
X076732Y033228
X063346Y031161
X062756Y032244
X062756Y035
X061969Y031063
X057047Y031161
X056457Y032244
X056457Y035
X055669Y031063
X050748Y031161
X050157Y032244
X050157Y035
X04937Y031063
X044449Y031161
X043858Y032244
X043858Y035
X043071Y031063
X03815Y031161
X037559Y035
X037559Y032244
X036772Y031063
X03185Y031161
X03126Y032244
X03126Y035
X030472Y031063
X025551Y031161
X024961Y032244
X024961Y035
X024173Y031063
X019252Y031161
X018661Y035
X018661Y032244
X017874Y031063
X065512Y037953
X065512Y036772
X066496Y036772
X069252Y036772
X089724Y036772
X090906Y036772
X09248Y036772
X093661Y036772
T2C.0315F197S55
X011181Y017874
X011969Y017874
X035197Y017874
X063543Y018268
X063543Y01748
X063543Y016693
X063543Y015906
X063543Y015118
X063543Y014331
X064331Y01748
X064331Y016693
X064331Y014331
X064331Y015906
X064331Y015118
X064331Y018268
X092677Y015512
X092677Y017874
X092677Y017087
X092677Y016299
X093465Y017874
X093465Y016299
X093465Y017087
X093465Y015512
X093465Y020236
X093465Y019449
X093465Y018661
X093465Y021024
X092677Y020236
X092677Y019449
X092677Y018661
X092677Y021024
X069055Y019055
X064331Y019843
X064331Y019055
X063543Y019055
X063543Y019843
X011969Y019449
X011969Y020236
X011969Y018661
X011969Y021024
X011181Y020236
X011181Y018661
X011181Y019449
X011181Y021024
X065709Y032244
X083228Y035984
T3C.03543F197S55
X018661Y010787
X018661Y013787
X019661Y010787
X019661Y013787
X020661Y010787
X020661Y013787
X021661Y010787
X021661Y013787
X036772Y010787
X037756Y010787
X03874Y010787
X04189Y010787
X042874Y010787
X043858Y010787
X04798Y014661
X048382Y013661
X048783Y014661
X049185Y013661
X05428Y014661
X054681Y013661
X055083Y014661
X055484Y013661
X066496Y014921
X066496Y014134
X089921Y01315
X090709Y01315
X093465Y025748
X092677Y025748
X090709Y019449
X090709Y022598
X090709Y025748
X090709Y016299
X089921Y022598
X089921Y019449
X089921Y025748
X089921Y016299
X063543Y023535
X062543Y023535
X057244Y023535
X056244Y023535
X050945Y023535
X049945Y023535
X044646Y023535
X043646Y023535
X038346Y023535
X037346Y023535
X032047Y023535
X031047Y023535
X025748Y023535
X024748Y023535
X022598Y02063
X021598Y02063
X019449Y023535
X018449Y023535
X018449Y026535
X019449Y026535
X024748Y026535
X025748Y026535
X031047Y026535
X032047Y026535
X037346Y026535
X038346Y026535
X043646Y026535
X044646Y026535
X049945Y026535
X050945Y026535
X056244Y026535
X057244Y026535
X062543Y026535
X063543Y026535
X089921Y028898
X090709Y028898
X092677Y028898
X093465Y028898
X093465Y032047
X093465Y035197
X092677Y032047
X092677Y035197
X090709Y032047
X090709Y035197
X089921Y032047
X089921Y035197
X083425Y033622
X083031Y03126
X060591Y031654
X060591Y034803
X058622Y031654
X058622Y034803
X054291Y034803
X054291Y031654
X052323Y034803
X052323Y031654
X047992Y031654
X047992Y034803
X046024Y034803
X046024Y031654
X041693Y034803
X041693Y031654
X039724Y031654
X039724Y034803
X035394Y034803
X035394Y031654
X033425Y034803
X033425Y031654
X029094Y034803
X029094Y031654
X027126Y031654
X027126Y034803
X022795Y034803
X022795Y031654
X020827Y031654
X020827Y034803
X016496Y031654
X016496Y034803
X014528Y034803
X014528Y031654
X018465Y036378
X018858Y03874
X024764Y036378
X025157Y03874
X031063Y036378
X031457Y03874
X037362Y036378
X037756Y03874
X043661Y036378
X044055Y03874
X049961Y036378
X050354Y03874
X05626Y036378
X056654Y03874
X062559Y036378
X062953Y03874
T4C.05118F107S55
X014924Y036772
X016299Y036772
X021223Y036772
X022598Y036772
X027523Y036772
X028898Y036772
X033822Y036772
X035197Y036772
X040121Y036772
X041496Y036772
X04642Y036772
X047795Y036772
X052719Y036772
X054094Y036772
X059019Y036772
X060394Y036772
T5C.05906F107S55
X086378Y031457
X086378Y033425
T6C.07087F081S55
X086378Y019055
X086378Y027323
T7C.09843F066S55
X046614Y012756
X050551Y012756
X052913Y012756
X05685Y012756
T8C.12598F035S794
X011575Y011575
X011575Y037953
X087165Y037953
X087165Y011575
X091693Y011181
X091693Y038346
M30
