*
*
G04 PADS 9.4.1 Build Number: 494907 generated Gerber (RS-274-X) file*
G04 PC Version=2.1*
*
%IN "CECS_Module_AtoD012.pcb"*%
*
%MOIN*%
*
%FSLAX35Y35*%
*
*
*
*
G04 PC Standard Apertures*
*
*
G04 Thermal Relief Aperture macro.*
%AMTER*
1,1,$1,0,0*
1,0,$1-$2,0,0*
21,0,$3,$4,0,0,45*
21,0,$3,$4,0,0,135*
%
*
*
G04 Annular Aperture macro.*
%AMANN*
1,1,$1,0,0*
1,0,$2,0,0*
%
*
*
G04 Odd Aperture macro.*
%AMODD*
1,1,$1,0,0*
1,0,$1-0.005,0,0*
%
*
*
G04 PC Custom Aperture Macros*
*
*
*
*
*
*
G04 PC Aperture Table*
*
%ADD010C,0.001*%
%ADD031C,0.01*%
*
*
*
*
G04 PC Circuitry*
G04 Layer Name CECS_Module_AtoD012.pcb - circuitry*
%LPD*%
*
*
G04 PC Custom Flashes*
G04 Layer Name CECS_Module_AtoD012.pcb - flashes*
%LPD*%
*
*
G04 PC Circuitry*
G04 Layer Name CECS_Module_AtoD012.pcb - circuitry*
%LPD*%
*
G54D10*
G54D31*
G01X192457Y263386D02*
X200457D01*
X196457Y259386D02*
Y267386D01*
X192457Y275197D02*
X200457D01*
X196457Y271197D02*
Y279197D01*
X235764Y245669D02*
X243764D01*
X239764Y241669D02*
Y249669D01*
X223953Y245669D02*
X231953D01*
X227953Y241669D02*
Y249669D01*
X318441Y263386D02*
X326441D01*
X322441Y259386D02*
Y267386D01*
X318441Y275197D02*
X326441D01*
X322441Y271197D02*
Y279197D01*
X318441Y308661D02*
X326441D01*
X322441Y304661D02*
Y312661D01*
X306630Y308661D02*
X314630D01*
X310630Y304661D02*
Y312661D01*
X298756Y245669D02*
X306756D01*
X302756Y241669D02*
Y249669D01*
X286945Y245669D02*
X294945D01*
X290945Y241669D02*
Y249669D01*
X286945Y308661D02*
X294945D01*
X290945Y304661D02*
Y312661D01*
X298756Y308661D02*
X306756D01*
X302756Y304661D02*
Y312661D01*
X286945Y253543D02*
X294945D01*
X290945Y249543D02*
Y257543D01*
X298756Y253543D02*
X306756D01*
X302756Y249543D02*
Y257543D01*
X381433Y263386D02*
X389433D01*
X385433Y259386D02*
Y267386D01*
X381433Y275197D02*
X389433D01*
X385433Y271197D02*
Y279197D01*
X349937Y308661D02*
X357937D01*
X353937Y304661D02*
Y312661D01*
X361748Y308661D02*
X369748D01*
X365748Y304661D02*
Y312661D01*
X349937Y253543D02*
X357937D01*
X353937Y249543D02*
Y257543D01*
X361748Y253543D02*
X369748D01*
X365748Y249543D02*
Y257543D01*
X381433Y308661D02*
X389433D01*
X385433Y304661D02*
Y312661D01*
X369622Y308661D02*
X377622D01*
X373622Y304661D02*
Y312661D01*
X160961Y253543D02*
X168961D01*
X164961Y249543D02*
Y257543D01*
X172772Y253543D02*
X180772D01*
X176772Y249543D02*
Y257543D01*
X361748Y245669D02*
X369748D01*
X365748Y241669D02*
Y249669D01*
X349937Y245669D02*
X357937D01*
X353937Y241669D02*
Y249669D01*
X444425Y263386D02*
X452425D01*
X448425Y259386D02*
Y267386D01*
X444425Y275197D02*
X452425D01*
X448425Y271197D02*
Y279197D01*
X412929Y308661D02*
X420929D01*
X416929Y304661D02*
Y312661D01*
X424740Y308661D02*
X432740D01*
X428740Y304661D02*
Y312661D01*
X412929Y253543D02*
X420929D01*
X416929Y249543D02*
Y257543D01*
X424740Y253543D02*
X432740D01*
X428740Y249543D02*
Y257543D01*
X444425Y308661D02*
X452425D01*
X448425Y304661D02*
Y312661D01*
X432614Y308661D02*
X440614D01*
X436614Y304661D02*
Y312661D01*
X424740Y245669D02*
X432740D01*
X428740Y241669D02*
Y249669D01*
X412929Y245669D02*
X420929D01*
X416929Y241669D02*
Y249669D01*
X507417Y263386D02*
X515417D01*
X511417Y259386D02*
Y267386D01*
X507417Y275197D02*
X515417D01*
X511417Y271197D02*
Y279197D01*
X475921Y308661D02*
X483921D01*
X479921Y304661D02*
Y312661D01*
X487732Y308661D02*
X495732D01*
X491732Y304661D02*
Y312661D01*
X475921Y253543D02*
X483921D01*
X479921Y249543D02*
Y257543D01*
X487732Y253543D02*
X495732D01*
X491732Y249543D02*
Y257543D01*
X507417Y308661D02*
X515417D01*
X511417Y304661D02*
Y312661D01*
X495606Y308661D02*
X503606D01*
X499606Y304661D02*
Y312661D01*
X160961Y308661D02*
X168961D01*
X164961Y304661D02*
Y312661D01*
X172772Y308661D02*
X180772D01*
X176772Y304661D02*
Y312661D01*
X487732Y245669D02*
X495732D01*
X491732Y241669D02*
Y249669D01*
X475921Y245669D02*
X483921D01*
X479921Y241669D02*
Y249669D01*
X570409Y263386D02*
X578409D01*
X574409Y259386D02*
Y267386D01*
X570409Y275197D02*
X578409D01*
X574409Y271197D02*
Y279197D01*
X538913Y308661D02*
X546913D01*
X542913Y304661D02*
Y312661D01*
X550724Y308661D02*
X558724D01*
X554724Y304661D02*
Y312661D01*
X538913Y253543D02*
X546913D01*
X542913Y249543D02*
Y257543D01*
X550724Y253543D02*
X558724D01*
X554724Y249543D02*
Y257543D01*
X570409Y308661D02*
X578409D01*
X574409Y304661D02*
Y312661D01*
X558598Y308661D02*
X566598D01*
X562598Y304661D02*
Y312661D01*
X550724Y245669D02*
X558724D01*
X554724Y241669D02*
Y249669D01*
X538913Y245669D02*
X546913D01*
X542913Y241669D02*
Y249669D01*
X633402Y263386D02*
X641402D01*
X637402Y259386D02*
Y267386D01*
X633402Y275197D02*
X641402D01*
X637402Y271197D02*
Y279197D01*
X601906Y308661D02*
X609906D01*
X605906Y304661D02*
Y312661D01*
X613717Y308661D02*
X621717D01*
X617717Y304661D02*
Y312661D01*
X601906Y253543D02*
X609906D01*
X605906Y249543D02*
Y257543D01*
X613717Y253543D02*
X621717D01*
X617717Y249543D02*
Y257543D01*
X633402Y308661D02*
X641402D01*
X637402Y304661D02*
Y312661D01*
X621591Y308661D02*
X629591D01*
X625591Y304661D02*
Y312661D01*
X192457Y308661D02*
X200457D01*
X196457Y304661D02*
Y312661D01*
X180646Y308661D02*
X188646D01*
X184646Y304661D02*
Y312661D01*
X613717Y245669D02*
X621717D01*
X617717Y241669D02*
Y249669D01*
X601906Y245669D02*
X609906D01*
X605906Y241669D02*
Y249669D01*
X227890Y210236D02*
X235890D01*
X231890Y206236D02*
Y214236D01*
X239701Y210236D02*
X247701D01*
X243701Y206236D02*
Y214236D01*
X479858Y204331D02*
X487858D01*
X483858Y200331D02*
Y208331D01*
X479858Y192520D02*
X487858D01*
X483858Y188520D02*
Y196520D01*
X239701Y178740D02*
X247701D01*
X243701Y174740D02*
Y182740D01*
X227890Y178740D02*
X235890D01*
X231890Y174740D02*
Y182740D01*
X157024Y174803D02*
X165024D01*
X161024Y170803D02*
Y178803D01*
X168835Y174803D02*
X176835D01*
X172835Y170803D02*
Y178803D01*
X422772Y170866D02*
X430772D01*
X426772Y166866D02*
Y174866D01*
X422772Y159055D02*
X430772D01*
X426772Y155055D02*
Y163055D01*
X391276Y204331D02*
X399276D01*
X395276Y200331D02*
Y208331D01*
X391276Y192520D02*
X399276D01*
X395276Y188520D02*
Y196520D01*
X407024Y170866D02*
X415024D01*
X411024Y166866D02*
Y174866D01*
X407024Y159055D02*
X415024D01*
X411024Y155055D02*
Y163055D01*
X399150Y170866D02*
X407150D01*
X403150Y166866D02*
Y174866D01*
X399150Y159055D02*
X407150D01*
X403150Y155055D02*
Y163055D01*
X414898Y170866D02*
X422898D01*
X418898Y166866D02*
Y174866D01*
X414898Y159055D02*
X422898D01*
X418898Y155055D02*
Y163055D01*
X172772Y245669D02*
X180772D01*
X176772Y241669D02*
Y249669D01*
X160961Y245669D02*
X168961D01*
X164961Y241669D02*
Y249669D01*
X249543Y153150D02*
X257543D01*
X253543Y149150D02*
Y157150D01*
X249543Y164961D02*
X257543D01*
X253543Y160961D02*
Y168961D01*
X590094Y184646D02*
X598094D01*
X594094Y180646D02*
Y188646D01*
X590094Y196457D02*
X598094D01*
X594094Y192457D02*
Y200457D01*
X249543Y212205D02*
X257543D01*
X253543Y208205D02*
Y216205D01*
X249543Y200394D02*
X257543D01*
X253543Y196394D02*
Y204394D01*
X259386Y129528D02*
X267386D01*
X263386Y125528D02*
Y133528D01*
X259386Y117717D02*
X267386D01*
X263386Y113717D02*
Y121717D01*
X338126Y129528D02*
X346126D01*
X342126Y125528D02*
Y133528D01*
X326315Y129528D02*
X334315D01*
X330315Y125528D02*
Y133528D01*
X359780Y208268D02*
X367780D01*
X363780Y204268D02*
Y212268D01*
X359780Y196457D02*
X367780D01*
X363780Y192457D02*
Y200457D01*
X818441Y326378D02*
X826441D01*
X822441Y322378D02*
Y330378D01*
X818441Y338189D02*
X826441D01*
X822441Y334189D02*
Y342189D01*
X741669Y247638D02*
X749669D01*
X745669Y243638D02*
Y251638D01*
X741669Y235827D02*
X749669D01*
X745669Y231827D02*
Y239827D01*
X255449Y263386D02*
X263449D01*
X259449Y259386D02*
Y267386D01*
X255449Y275197D02*
X263449D01*
X259449Y271197D02*
Y279197D01*
X121591Y330315D02*
X129591D01*
X125591Y326315D02*
Y334315D01*
X109780Y330315D02*
X117780D01*
X113780Y326315D02*
Y334315D01*
X733795Y220079D02*
X741795D01*
X737795Y216079D02*
Y224079D01*
X733795Y208268D02*
X741795D01*
X737795Y204268D02*
Y212268D01*
X653087Y273228D02*
X661087D01*
X657087Y269228D02*
Y277228D01*
X653087Y285039D02*
X661087D01*
X657087Y281039D02*
Y289039D01*
X798756Y288976D02*
X806756D01*
X802756Y284976D02*
Y292976D01*
X786945Y288976D02*
X794945D01*
X790945Y284976D02*
Y292976D01*
X761354Y220079D02*
X769354D01*
X765354Y216079D02*
Y224079D01*
X761354Y208268D02*
X769354D01*
X765354Y204268D02*
Y212268D01*
X741669Y149213D02*
X749669D01*
X745669Y145213D02*
Y153213D01*
X741669Y137402D02*
X749669D01*
X745669Y133402D02*
Y141402D01*
X741669Y334252D02*
X749669D01*
X745669Y330252D02*
Y338252D01*
X741669Y346063D02*
X749669D01*
X745669Y342063D02*
Y350063D01*
X668835Y346063D02*
X676835D01*
X672835Y342063D02*
Y350063D01*
X668835Y357874D02*
X676835D01*
X672835Y353874D02*
Y361874D01*
X733795Y121654D02*
X741795D01*
X737795Y117654D02*
Y125654D01*
X733795Y109843D02*
X741795D01*
X737795Y105843D02*
Y113843D01*
X655055Y174803D02*
X663055D01*
X659055Y170803D02*
Y178803D01*
X655055Y186614D02*
X663055D01*
X659055Y182614D02*
Y190614D01*
X223953Y308661D02*
X231953D01*
X227953Y304661D02*
Y312661D01*
X235764Y308661D02*
X243764D01*
X239764Y304661D02*
Y312661D01*
X753480Y312598D02*
X761480D01*
X757480Y308598D02*
Y316598D01*
X753480Y324409D02*
X761480D01*
X757480Y320409D02*
Y328409D01*
X798756Y194488D02*
X806756D01*
X802756Y190488D02*
Y198488D01*
X786945Y194488D02*
X794945D01*
X790945Y190488D02*
Y198488D01*
X753480Y334252D02*
X761480D01*
X757480Y330252D02*
Y338252D01*
X753480Y346063D02*
X761480D01*
X757480Y342063D02*
Y350063D01*
X761354Y121654D02*
X769354D01*
X765354Y117654D02*
Y125654D01*
X761354Y109843D02*
X769354D01*
X765354Y105843D02*
Y113843D01*
X255449Y308661D02*
X263449D01*
X259449Y304661D02*
Y312661D01*
X243638Y308661D02*
X251638D01*
X247638Y304661D02*
Y312661D01*
X223953Y253543D02*
X231953D01*
X227953Y249543D02*
Y257543D01*
X235764Y253543D02*
X243764D01*
X239764Y249543D02*
Y257543D01*
X350343Y239327D02*
X358343D01*
X354343Y235327D02*
Y243327D01*
X350343Y232327D02*
X358343D01*
X354343Y228327D02*
Y236327D01*
X361748Y235827D02*
X369748D01*
X365748Y231827D02*
Y239827D01*
X413335Y239327D02*
X421335D01*
X417335Y235327D02*
Y243327D01*
X413335Y232327D02*
X421335D01*
X417335Y228327D02*
Y236327D01*
X424740Y235827D02*
X432740D01*
X428740Y231827D02*
Y239827D01*
X476327Y239327D02*
X484327D01*
X480327Y235327D02*
Y243327D01*
X476327Y232327D02*
X484327D01*
X480327Y228327D02*
Y236327D01*
X487732Y235827D02*
X495732D01*
X491732Y231827D02*
Y239827D01*
X539319Y239327D02*
X547319D01*
X543319Y235327D02*
Y243327D01*
X539319Y232327D02*
X547319D01*
X543319Y228327D02*
Y236327D01*
X550724Y235827D02*
X558724D01*
X554724Y231827D02*
Y239827D01*
X602311Y239327D02*
X610311D01*
X606311Y235327D02*
Y243327D01*
X602311Y232327D02*
X610311D01*
X606311Y228327D02*
Y236327D01*
X613717Y235827D02*
X621717D01*
X617717Y231827D02*
Y239827D01*
X161366Y239327D02*
X169366D01*
X165366Y235327D02*
Y243327D01*
X161366Y232327D02*
X169366D01*
X165366Y228327D02*
Y236327D01*
X172772Y235827D02*
X180772D01*
X176772Y231827D02*
Y239827D01*
X224358Y239327D02*
X232358D01*
X228358Y235327D02*
Y243327D01*
X224358Y232327D02*
X232358D01*
X228358Y228327D02*
Y236327D01*
X235764Y235827D02*
X243764D01*
X239764Y231827D02*
Y239827D01*
X287350Y239327D02*
X295350D01*
X291350Y235327D02*
Y243327D01*
X287350Y232327D02*
X295350D01*
X291350Y228327D02*
Y236327D01*
X298756Y235827D02*
X306756D01*
X302756Y231827D02*
Y239827D01*
X182614Y231827D02*
X190614Y239827D01*
X182614D02*
X190614Y231827D01*
X497575D02*
X505575Y239827D01*
X497575D02*
X505575Y231827D01*
X560567D02*
X568567Y239827D01*
X560567D02*
X568567Y231827D01*
X623559D02*
X631559Y239827D01*
X623559D02*
X631559Y231827D01*
X359780Y174740D02*
X367780Y182740D01*
X359780D02*
X367780Y174740D01*
X653087Y251512D02*
X661087Y259512D01*
X653087D02*
X661087Y251512D01*
X131433Y326315D02*
X139433Y334315D01*
X131433D02*
X139433Y326315D01*
X657024Y353874D02*
X665024Y361874D01*
X657024D02*
X665024Y353874D01*
X655055Y158992D02*
X663055Y166992D01*
X655055D02*
X663055Y158992D01*
X245606Y231827D02*
X253606Y239827D01*
X245606D02*
X253606Y231827D01*
X308598D02*
X316598Y239827D01*
X308598D02*
X316598Y231827D01*
X371591D02*
X379591Y239827D01*
X371591D02*
X379591Y231827D01*
X434583D02*
X442583Y239827D01*
X434583D02*
X442583Y231827D01*
X178677Y363717D02*
X186677D01*
Y371717*
X178677*
Y363717*
X182677Y367717D02*
Y371717D01*
X164927Y363717D02*
X172927D01*
Y371717*
X164927*
Y363717*
X168927Y367717D02*
Y371717D01*
X151118Y363717D02*
X159118D01*
Y371717*
X151118*
Y363717*
X155118Y367717D02*
Y371717D01*
X493638Y363717D02*
X501638D01*
Y371717*
X493638*
Y363717*
X497638Y367717D02*
Y371717D01*
X479888Y363717D02*
X487888D01*
Y371717*
X479888*
Y363717*
X483888Y367717D02*
Y371717D01*
X466079Y363717D02*
X474079D01*
Y371717*
X466079*
Y363717*
X470079Y367717D02*
Y371717D01*
X556630Y363717D02*
X564630D01*
Y371717*
X556630*
Y363717*
X560630Y367717D02*
Y371717D01*
X542880Y363717D02*
X550880D01*
Y371717*
X542880*
Y363717*
X546880Y367717D02*
Y371717D01*
X529071Y363717D02*
X537071D01*
Y371717*
X529071*
Y363717*
X533071Y367717D02*
Y371717D01*
X619622Y363717D02*
X627622D01*
Y371717*
X619622*
Y363717*
X623622Y367717D02*
Y371717D01*
X605872Y363717D02*
X613872D01*
Y371717*
X605872*
Y363717*
X609872Y367717D02*
Y371717D01*
X592063Y363717D02*
X600063D01*
Y371717*
X592063*
Y363717*
X596063Y367717D02*
Y371717D01*
X241669Y363717D02*
X249669D01*
Y371717*
X241669*
Y363717*
X245669Y367717D02*
Y371717D01*
X227919Y363717D02*
X235919D01*
Y371717*
X227919*
Y363717*
X231919Y367717D02*
Y371717D01*
X214110Y363717D02*
X222110D01*
Y371717*
X214110*
Y363717*
X218110Y367717D02*
Y371717D01*
X304661Y363717D02*
X312661D01*
Y371717*
X304661*
Y363717*
X308661Y367717D02*
Y371717D01*
X290911Y363717D02*
X298911D01*
Y371717*
X290911*
Y363717*
X294911Y367717D02*
Y371717D01*
X277102Y363717D02*
X285102D01*
Y371717*
X277102*
Y363717*
X281102Y367717D02*
Y371717D01*
X367654Y363717D02*
X375654D01*
Y371717*
X367654*
Y363717*
X371654Y367717D02*
Y371717D01*
X353904Y363717D02*
X361904D01*
Y371717*
X353904*
Y363717*
X357904Y367717D02*
Y371717D01*
X340094Y363717D02*
X348094D01*
Y371717*
X340094*
Y363717*
X344094Y367717D02*
Y371717D01*
X430646Y363717D02*
X438646D01*
Y371717*
X430646*
Y363717*
X434646Y367717D02*
Y371717D01*
X416896Y363717D02*
X424896D01*
Y371717*
X416896*
Y363717*
X420896Y367717D02*
Y371717D01*
X403087Y363717D02*
X411087D01*
Y371717*
X403087*
Y363717*
X407087Y367717D02*
Y371717D01*
X511535Y132614D02*
X515535Y136614D01*
X511535Y140614*
X507535Y136614*
X511535Y132614*
Y136614D02*
Y140614D01*
X503504Y132614D02*
X507504Y136614D01*
X503504Y140614*
X499504Y136614*
X503504Y132614*
Y136614D02*
Y140614D01*
X507520Y142614D02*
X511520Y146614D01*
X507520Y150614*
X503520Y146614*
X507520Y142614*
Y146614D02*
Y150614D01*
X499488Y142614D02*
X503488Y146614D01*
X499488Y150614*
X495488Y146614*
X499488Y142614*
Y146614D02*
Y150614D01*
X521197Y123559D02*
X529197D01*
X521197Y131559*
X529197*
X521197Y123559*
X481827D02*
X489827D01*
X481827Y131559*
X489827*
X481827Y123559*
X566654Y132614D02*
X570654Y136614D01*
X566654Y140614*
X562654Y136614*
X566654Y132614*
Y136614D02*
Y140614D01*
X558622Y132614D02*
X562622Y136614D01*
X558622Y140614*
X554622Y136614*
X558622Y132614*
Y136614D02*
Y140614D01*
X562638Y142614D02*
X566638Y146614D01*
X562638Y150614*
X558638Y146614*
X562638Y142614*
Y146614D02*
Y150614D01*
X554606Y142614D02*
X558606Y146614D01*
X554606Y150614*
X550606Y146614*
X554606Y142614*
Y146614D02*
Y150614D01*
X576315Y123559D02*
X584315D01*
X576315Y131559*
X584315*
X576315Y123559*
X536945D02*
X544945D01*
X536945Y131559*
X544945*
X536945Y123559*
X149150Y349016D02*
X157150D01*
X153150Y345016D02*
Y353016D01*
X149150Y343110D02*
X157150D01*
X153150Y339110D02*
Y347110D01*
X338126Y349016D02*
X346126D01*
X342126Y345016D02*
Y353016D01*
X338126Y343110D02*
X346126D01*
X342126Y339110D02*
Y347110D01*
X330252Y349016D02*
X338252D01*
X334252Y345016D02*
Y353016D01*
X330252Y343110D02*
X338252D01*
X334252Y339110D02*
Y347110D01*
X401118Y349016D02*
X409118D01*
X405118Y345016D02*
Y353016D01*
X401118Y343110D02*
X409118D01*
X405118Y339110D02*
Y347110D01*
X393244Y349016D02*
X401244D01*
X397244Y345016D02*
Y353016D01*
X393244Y343110D02*
X401244D01*
X397244Y339110D02*
Y347110D01*
X464110Y349016D02*
X472110D01*
X468110Y345016D02*
Y353016D01*
X464110Y343110D02*
X472110D01*
X468110Y339110D02*
Y347110D01*
X456236Y349016D02*
X464236D01*
X460236Y345016D02*
Y353016D01*
X456236Y343110D02*
X464236D01*
X460236Y339110D02*
Y347110D01*
X527102Y349016D02*
X535102D01*
X531102Y345016D02*
Y353016D01*
X527102Y343110D02*
X535102D01*
X531102Y339110D02*
Y347110D01*
X141276Y349016D02*
X149276D01*
X145276Y345016D02*
Y353016D01*
X141276Y343110D02*
X149276D01*
X145276Y339110D02*
Y347110D01*
X519228Y349016D02*
X527228D01*
X523228Y345016D02*
Y353016D01*
X519228Y343110D02*
X527228D01*
X523228Y339110D02*
Y347110D01*
X590094Y349016D02*
X598094D01*
X594094Y345016D02*
Y353016D01*
X590094Y343110D02*
X598094D01*
X594094Y339110D02*
Y347110D01*
X582220Y349016D02*
X590220D01*
X586220Y345016D02*
Y353016D01*
X582220Y343110D02*
X590220D01*
X586220Y339110D02*
Y347110D01*
X830252Y329331D02*
X838252D01*
X834252Y325331D02*
Y333331D01*
X830252Y335236D02*
X838252D01*
X834252Y331236D02*
Y339236D01*
X212142Y349016D02*
X220142D01*
X216142Y345016D02*
Y353016D01*
X212142Y343110D02*
X220142D01*
X216142Y339110D02*
Y347110D01*
X204268Y349016D02*
X212268D01*
X208268Y345016D02*
Y353016D01*
X204268Y343110D02*
X212268D01*
X208268Y339110D02*
Y347110D01*
X275134Y349016D02*
X283134D01*
X279134Y345016D02*
Y353016D01*
X275134Y343110D02*
X283134D01*
X279134Y339110D02*
Y347110D01*
X267260Y349016D02*
X275260D01*
X271260Y345016D02*
Y353016D01*
X267260Y343110D02*
X275260D01*
X271260Y339110D02*
Y347110D01*
X506433Y170866D02*
X514433D01*
X510433Y166866D02*
Y174866D01*
X500528Y170866D02*
X508528D01*
X504528Y166866D02*
Y174866D01*
X488717Y170866D02*
X496717D01*
X492717Y166866D02*
Y174866D01*
X494622Y170866D02*
X502622D01*
X498622Y166866D02*
Y174866D01*
X934646Y253480D02*
X938646Y257480D01*
X934646Y261480*
X930646Y257480*
X934646Y253480*
Y257480D02*
Y261480D01*
X926772Y253480D02*
X930772Y257480D01*
X926772Y261480*
X922772Y257480*
X926772Y253480*
Y257480D02*
Y261480D01*
X934646Y284976D02*
X938646Y288976D01*
X934646Y292976*
X930646Y288976*
X934646Y284976*
Y288976D02*
Y292976D01*
X926772Y284976D02*
X930772Y288976D01*
X926772Y292976*
X922772Y288976*
X926772Y284976*
Y288976D02*
Y292976D01*
X934646Y316472D02*
X938646Y320472D01*
X934646Y324472*
X930646Y320472*
X934646Y316472*
Y320472D02*
Y324472D01*
X926772Y316472D02*
X930772Y320472D01*
X926772Y324472*
X922772Y320472*
X926772Y316472*
Y320472D02*
Y324472D01*
X934646Y347969D02*
X938646Y351969D01*
X934646Y355969*
X930646Y351969*
X934646Y347969*
Y351969D02*
Y355969D01*
X926772Y347969D02*
X930772Y351969D01*
X926772Y355969*
X922772Y351969*
X926772Y347969*
Y351969D02*
Y355969D01*
X659055Y111748D02*
X663055Y115748D01*
X659055Y119748*
X655055Y115748*
X659055Y111748*
Y115748D02*
Y119748D01*
Y119622D02*
X663055Y123622D01*
X659055Y127622*
X655055Y123622*
X659055Y119622*
Y123622D02*
Y127622D01*
X233795Y149213D02*
X241795D01*
X237795Y145213D02*
Y153213D01*
X233795Y168898D02*
X241795D01*
X237795Y164898D02*
Y172898D01*
X275134Y133465D02*
X283134D01*
X279134Y129465D02*
Y137465D01*
X275134Y113780D02*
X283134D01*
X279134Y109780D02*
Y117780D01*
X342063Y113780D02*
X350063D01*
X346063Y109780D02*
Y117780D01*
X322378Y113780D02*
X330378D01*
X326378Y109780D02*
Y117780D01*
X125528Y346063D02*
X133528D01*
X129528Y342063D02*
Y350063D01*
X105843Y346063D02*
X113843D01*
X109843Y342063D02*
Y350063D01*
X657024Y312598D02*
X665024D01*
X661024Y308598D02*
Y316598D01*
X657024Y340157D02*
X665024D01*
X661024Y336157D02*
Y344157D01*
X676709Y166929D02*
X684709D01*
X680709Y162929D02*
Y170929D01*
X676709Y194488D02*
X684709D01*
X680709Y190488D02*
Y198488D01*
X798756Y322441D02*
X806756D01*
X802756Y318441D02*
Y326441D01*
X771197Y322441D02*
X779197D01*
X775197Y318441D02*
Y326441D01*
X806630Y172835D02*
X814630D01*
X810630Y168835D02*
Y176835D01*
X779071Y172835D02*
X787071D01*
X783071Y168835D02*
Y176835D01*
X676709Y265354D02*
X684709D01*
X680709Y261354D02*
Y269354D01*
X676709Y292913D02*
X684709D01*
X680709Y288913D02*
Y296913D01*
X806630Y269291D02*
X814630D01*
X810630Y265291D02*
Y273291D01*
X779071Y269291D02*
X787071D01*
X783071Y265291D02*
Y273291D01*
X702299Y152165D02*
X710299D01*
X706299Y148165D02*
Y156165D01*
X702299Y106890D02*
X710299D01*
X706299Y102890D02*
Y110890D01*
X702299Y250591D02*
X710299D01*
X706299Y246591D02*
Y254591D01*
X702299Y205315D02*
X710299D01*
X706299Y201315D02*
Y209315D01*
X696394Y311614D02*
X704394D01*
X700394Y307614D02*
Y315614D01*
X696394Y356890D02*
X704394D01*
X700394Y352890D02*
Y360890D01*
X855843Y275134D02*
X863843Y283134D01*
Y275134*
X855843Y283134*
Y275134*
Y192457D02*
X863843Y200457D01*
Y192457*
X855843Y200457*
Y192457*
X438583Y103874D02*
X442583Y107874D01*
X438583Y111874*
X434583Y107874*
X438583Y103874*
Y107874D02*
Y111874D01*
X448425Y103874D02*
X452425Y107874D01*
X448425Y111874*
X444425Y107874*
X448425Y103874*
Y107874D02*
Y111874D01*
X458268Y103874D02*
X462268Y107874D01*
X458268Y111874*
X454268Y107874*
X458268Y103874*
Y107874D02*
Y111874D01*
X387402Y103874D02*
X391402Y107874D01*
X387402Y111874*
X383402Y107874*
X387402Y103874*
Y107874D02*
Y111874D01*
X397244Y103874D02*
X401244Y107874D01*
X397244Y111874*
X393244Y107874*
X397244Y103874*
Y107874D02*
Y111874D01*
X407087Y103874D02*
X411087Y107874D01*
X407087Y111874*
X403087Y107874*
X407087Y103874*
Y107874D02*
Y111874D01*
X859780Y322440D02*
X867780D01*
X863780Y318440D02*
Y326440D01*
X866689Y327722D02*
X865780Y324440D01*
X866689Y327722D02*
X867598Y324440D01*
X866120Y325534D02*
X867257D01*
X859780Y342126D02*
X867780D01*
X863780Y338126D02*
Y346126D01*
X866689Y347408D02*
X865780Y344126D01*
X866689Y347408D02*
X867598Y344126D01*
X866120Y345220D02*
X867257D01*
X430709Y320409D02*
X434709Y324409D01*
X430709Y328409*
X426709Y324409*
X430709Y320409*
Y324409D02*
Y328409D01*
X420709Y320409D02*
X424709Y324409D01*
X420709Y328409*
X416709Y324409*
X420709Y320409*
Y324409D02*
Y328409D01*
X430709Y330409D02*
X434709Y334409D01*
X430709Y338409*
X426709Y334409*
X430709Y330409*
Y334409D02*
Y338409D01*
X420709Y330409D02*
X424709Y334409D01*
X420709Y338409*
X416709Y334409*
X420709Y330409*
Y334409D02*
Y338409D01*
X430709Y340409D02*
X434709Y344409D01*
X430709Y348409*
X426709Y344409*
X430709Y340409*
Y344409D02*
Y348409D01*
X420709Y340409D02*
X424709Y344409D01*
X420709Y348409*
X416709Y344409*
X420709Y340409*
Y344409D02*
Y348409D01*
X493701Y320409D02*
X497701Y324409D01*
X493701Y328409*
X489701Y324409*
X493701Y320409*
Y324409D02*
Y328409D01*
X483701Y320409D02*
X487701Y324409D01*
X483701Y328409*
X479701Y324409*
X483701Y320409*
Y324409D02*
Y328409D01*
X493701Y330409D02*
X497701Y334409D01*
X493701Y338409*
X489701Y334409*
X493701Y330409*
Y334409D02*
Y338409D01*
X483701Y330409D02*
X487701Y334409D01*
X483701Y338409*
X479701Y334409*
X483701Y330409*
Y334409D02*
Y338409D01*
X493701Y340409D02*
X497701Y344409D01*
X493701Y348409*
X489701Y344409*
X493701Y340409*
Y344409D02*
Y348409D01*
X483701Y340409D02*
X487701Y344409D01*
X483701Y348409*
X479701Y344409*
X483701Y340409*
Y344409D02*
Y348409D01*
X556693Y320409D02*
X560693Y324409D01*
X556693Y328409*
X552693Y324409*
X556693Y320409*
Y324409D02*
Y328409D01*
X546693Y320409D02*
X550693Y324409D01*
X546693Y328409*
X542693Y324409*
X546693Y320409*
Y324409D02*
Y328409D01*
X556693Y330409D02*
X560693Y334409D01*
X556693Y338409*
X552693Y334409*
X556693Y330409*
Y334409D02*
Y338409D01*
X546693Y330409D02*
X550693Y334409D01*
X546693Y338409*
X542693Y334409*
X546693Y330409*
Y334409D02*
Y338409D01*
X556693Y340409D02*
X560693Y344409D01*
X556693Y348409*
X552693Y344409*
X556693Y340409*
Y344409D02*
Y348409D01*
X546693Y340409D02*
X550693Y344409D01*
X546693Y348409*
X542693Y344409*
X546693Y340409*
Y344409D02*
Y348409D01*
X619685Y320409D02*
X623685Y324409D01*
X619685Y328409*
X615685Y324409*
X619685Y320409*
Y324409D02*
Y328409D01*
X609685Y320409D02*
X613685Y324409D01*
X609685Y328409*
X605685Y324409*
X609685Y320409*
Y324409D02*
Y328409D01*
X619685Y330409D02*
X623685Y334409D01*
X619685Y338409*
X615685Y334409*
X619685Y330409*
Y334409D02*
Y338409D01*
X609685Y330409D02*
X613685Y334409D01*
X609685Y338409*
X605685Y334409*
X609685Y330409*
Y334409D02*
Y338409D01*
X619685Y340409D02*
X623685Y344409D01*
X619685Y348409*
X615685Y344409*
X619685Y340409*
Y344409D02*
Y348409D01*
X609685Y340409D02*
X613685Y344409D01*
X609685Y348409*
X605685Y344409*
X609685Y340409*
Y344409D02*
Y348409D01*
X178740Y320409D02*
X182740Y324409D01*
X178740Y328409*
X174740Y324409*
X178740Y320409*
Y324409D02*
Y328409D01*
X168740Y320409D02*
X172740Y324409D01*
X168740Y328409*
X164740Y324409*
X168740Y320409*
Y324409D02*
Y328409D01*
X178740Y330409D02*
X182740Y334409D01*
X178740Y338409*
X174740Y334409*
X178740Y330409*
Y334409D02*
Y338409D01*
X168740Y330409D02*
X172740Y334409D01*
X168740Y338409*
X164740Y334409*
X168740Y330409*
Y334409D02*
Y338409D01*
X178740Y340409D02*
X182740Y344409D01*
X178740Y348409*
X174740Y344409*
X178740Y340409*
Y344409D02*
Y348409D01*
X168740Y340409D02*
X172740Y344409D01*
X168740Y348409*
X164740Y344409*
X168740Y340409*
Y344409D02*
Y348409D01*
X241732Y320409D02*
X245732Y324409D01*
X241732Y328409*
X237732Y324409*
X241732Y320409*
Y324409D02*
Y328409D01*
X231732Y320409D02*
X235732Y324409D01*
X231732Y328409*
X227732Y324409*
X231732Y320409*
Y324409D02*
Y328409D01*
X241732Y330409D02*
X245732Y334409D01*
X241732Y338409*
X237732Y334409*
X241732Y330409*
Y334409D02*
Y338409D01*
X231732Y330409D02*
X235732Y334409D01*
X231732Y338409*
X227732Y334409*
X231732Y330409*
Y334409D02*
Y338409D01*
X241732Y340409D02*
X245732Y344409D01*
X241732Y348409*
X237732Y344409*
X241732Y340409*
Y344409D02*
Y348409D01*
X231732Y340409D02*
X235732Y344409D01*
X231732Y348409*
X227732Y344409*
X231732Y340409*
Y344409D02*
Y348409D01*
X304724Y320409D02*
X308724Y324409D01*
X304724Y328409*
X300724Y324409*
X304724Y320409*
Y324409D02*
Y328409D01*
X294724Y320409D02*
X298724Y324409D01*
X294724Y328409*
X290724Y324409*
X294724Y320409*
Y324409D02*
Y328409D01*
X304724Y330409D02*
X308724Y334409D01*
X304724Y338409*
X300724Y334409*
X304724Y330409*
Y334409D02*
Y338409D01*
X294724Y330409D02*
X298724Y334409D01*
X294724Y338409*
X290724Y334409*
X294724Y330409*
Y334409D02*
Y338409D01*
X304724Y340409D02*
X308724Y344409D01*
X304724Y348409*
X300724Y344409*
X304724Y340409*
Y344409D02*
Y348409D01*
X294724Y340409D02*
X298724Y344409D01*
X294724Y348409*
X290724Y344409*
X294724Y340409*
Y344409D02*
Y348409D01*
X367717Y320409D02*
X371717Y324409D01*
X367717Y328409*
X363717Y324409*
X367717Y320409*
Y324409D02*
Y328409D01*
X357717Y320409D02*
X361717Y324409D01*
X357717Y328409*
X353717Y324409*
X357717Y320409*
Y324409D02*
Y328409D01*
X367717Y330409D02*
X371717Y334409D01*
X367717Y338409*
X363717Y334409*
X367717Y330409*
Y334409D02*
Y338409D01*
X357717Y330409D02*
X361717Y334409D01*
X357717Y338409*
X353717Y334409*
X357717Y330409*
Y334409D02*
Y338409D01*
X367717Y340409D02*
X371717Y344409D01*
X367717Y348409*
X363717Y344409*
X367717Y340409*
Y344409D02*
Y348409D01*
X357717Y340409D02*
X361717Y344409D01*
X357717Y348409*
X353717Y344409*
X357717Y340409*
Y344409D02*
Y348409D01*
X115685Y174740D02*
X123685Y182740D01*
X115685D02*
X123685Y174740D01*
X107811D02*
X115811Y182740D01*
X107811D02*
X115811Y174740D01*
X115685Y182614D02*
X123685Y190614D01*
X115685D02*
X123685Y182614D01*
X107811D02*
X115811Y190614D01*
X107811D02*
X115811Y182614D01*
X115685Y190488D02*
X123685Y198488D01*
X115685D02*
X123685Y190488D01*
X107811D02*
X115811Y198488D01*
X107811D02*
X115811Y190488D01*
X115685Y198362D02*
X123685Y206362D01*
X115685D02*
X123685Y198362D01*
X107811D02*
X115811Y206362D01*
X107811D02*
X115811Y198362D01*
X115685Y206236D02*
X123685Y214236D01*
X115685D02*
X123685Y206236D01*
X107811D02*
X115811Y214236D01*
X107811D02*
X115811Y206236D01*
X623559Y186551D02*
X631559Y194551D01*
X623559D02*
X631559Y186551D01*
X631433D02*
X639433Y194551D01*
X631433D02*
X639433Y186551D01*
X623559Y178677D02*
X631559Y186677D01*
X623559D02*
X631559Y178677D01*
X631433D02*
X639433Y186677D01*
X631433D02*
X639433Y178677D01*
X623559Y170803D02*
X631559Y178803D01*
X623559D02*
X631559Y170803D01*
X631433D02*
X639433Y178803D01*
X631433D02*
X639433Y170803D01*
X623559Y162929D02*
X631559Y170929D01*
X623559D02*
X631559Y162929D01*
X631433D02*
X639433Y170929D01*
X631433D02*
X639433Y162929D01*
X623559Y155055D02*
X631559Y163055D01*
X623559D02*
X631559Y155055D01*
X631433D02*
X639433Y163055D01*
X631433D02*
X639433Y155055D01*
X623559Y147181D02*
X631559Y155181D01*
X623559D02*
X631559Y147181D01*
X631433D02*
X639433Y155181D01*
X631433D02*
X639433Y147181D01*
X623559Y139307D02*
X631559Y147307D01*
X623559D02*
X631559Y139307D01*
X631433D02*
X639433Y147307D01*
X631433D02*
X639433Y139307D01*
X623559Y131433D02*
X631559Y139433D01*
X623559D02*
X631559Y131433D01*
X631433D02*
X639433Y139433D01*
X631433D02*
X639433Y131433D01*
X930646Y206236D02*
X938646Y214236D01*
X930646D02*
X938646Y206236D01*
X922772D02*
X930772Y214236D01*
X922772D02*
X930772Y206236D01*
X930646Y198362D02*
X938646Y206362D01*
X930646D02*
X938646Y198362D01*
X922772D02*
X930772Y206362D01*
X922772D02*
X930772Y198362D01*
X930646Y190488D02*
X938646Y198488D01*
X930646D02*
X938646Y190488D01*
X922772D02*
X930772Y198488D01*
X922772D02*
X930772Y190488D01*
X930646Y182614D02*
X938646Y190614D01*
X930646D02*
X938646Y182614D01*
X922772D02*
X930772Y190614D01*
X922772D02*
X930772Y182614D01*
X930646Y174740D02*
X938646Y182740D01*
X930646D02*
X938646Y174740D01*
X922772D02*
X930772Y182740D01*
X922772D02*
X930772Y174740D01*
X930646Y166866D02*
X938646Y174866D01*
X930646D02*
X938646Y166866D01*
X922772D02*
X930772Y174866D01*
X922772D02*
X930772Y166866D01*
X930646Y158992D02*
X938646Y166992D01*
X930646D02*
X938646Y158992D01*
X922772D02*
X930772Y166992D01*
X922772D02*
X930772Y158992D01*
X930646Y151118D02*
X938646Y159118D01*
X930646D02*
X938646Y151118D01*
X922772D02*
X930772Y159118D01*
X922772D02*
X930772Y151118D01*
X214173Y210173D02*
X218173Y214173D01*
X214173Y218173*
X210173Y214173*
X214173Y210173*
Y214173D02*
Y218173D01*
Y200173D02*
X218173Y204173D01*
X214173Y208173*
X210173Y204173*
X214173Y200173*
Y204173D02*
Y208173D01*
X832283Y316472D02*
X836283Y320472D01*
X832283Y324472*
X828283Y320472*
X832283Y316472*
Y320472D02*
Y324472D01*
X836220Y340094D02*
X840220Y344094D01*
X836220Y348094*
X832220Y344094*
X836220Y340094*
Y344094D02*
Y348094D01*
X186614Y103874D02*
X190614Y107874D01*
X186614Y111874*
X182614Y107874*
X186614Y103874*
Y107874D02*
Y111874D01*
X196614Y103874D02*
X200614Y107874D01*
X196614Y111874*
X192614Y107874*
X196614Y103874*
Y107874D02*
Y111874D01*
X206614Y103874D02*
X210614Y107874D01*
X206614Y111874*
X202614Y107874*
X206614Y103874*
Y107874D02*
Y111874D01*
X216614Y103874D02*
X220614Y107874D01*
X216614Y111874*
X212614Y107874*
X216614Y103874*
Y107874D02*
Y111874D01*
Y133874D02*
X220614Y137874D01*
X216614Y141874*
X212614Y137874*
X216614Y133874*
Y137874D02*
Y141874D01*
X206614Y133874D02*
X210614Y137874D01*
X206614Y141874*
X202614Y137874*
X206614Y133874*
Y137874D02*
Y141874D01*
X196614Y133874D02*
X200614Y137874D01*
X196614Y141874*
X192614Y137874*
X196614Y133874*
Y137874D02*
Y141874D01*
X186614Y133874D02*
X190614Y137874D01*
X186614Y141874*
X182614Y137874*
X186614Y133874*
Y137874D02*
Y141874D01*
X245169Y129122D02*
X253169D01*
X249169Y125122D02*
Y133122D01*
X238169Y129122D02*
X246169D01*
X242169Y125122D02*
Y133122D01*
X241669Y117717D02*
X249669D01*
X245669Y113717D02*
Y121717D01*
X107654Y317661D02*
X115654D01*
X111654Y313661D02*
Y321661D01*
X107654Y308661D02*
X115654D01*
X111654Y304661D02*
Y312661D01*
X107654Y299661D02*
X115654D01*
X111654Y295661D02*
Y303661D01*
X132404Y308661D02*
X140404D01*
X136404Y304661D02*
Y312661D01*
X229071Y188189D02*
X237071D01*
X233071Y184189D02*
Y192189D01*
X238520Y200787D02*
X246520D01*
X242520Y196787D02*
Y204787D01*
X141276Y298819D02*
X149276D01*
X145276Y294819D02*
Y302819D01*
X141276Y287008D02*
X149276D01*
X145276Y283008D02*
Y291008D01*
X204268Y298819D02*
X212268D01*
X208268Y294819D02*
Y302819D01*
X204268Y287008D02*
X212268D01*
X208268Y283008D02*
Y291008D01*
X749543Y220079D02*
X757543D01*
X753543Y216079D02*
Y224079D01*
X749543Y208268D02*
X757543D01*
X753543Y204268D02*
Y212268D01*
X733795Y235827D02*
X741795D01*
X737795Y231827D02*
Y239827D01*
X733795Y247638D02*
X741795D01*
X737795Y243638D02*
Y251638D01*
X741669Y220079D02*
X749669D01*
X745669Y216079D02*
Y224079D01*
X741669Y208268D02*
X749669D01*
X745669Y204268D02*
Y212268D01*
X729858Y334252D02*
X737858D01*
X733858Y330252D02*
Y338252D01*
X729858Y346063D02*
X737858D01*
X733858Y342063D02*
Y350063D01*
X749543Y121654D02*
X757543D01*
X753543Y117654D02*
Y125654D01*
X749543Y109843D02*
X757543D01*
X753543Y105843D02*
Y113843D01*
X733795Y137402D02*
X741795D01*
X737795Y133402D02*
Y141402D01*
X733795Y149213D02*
X741795D01*
X737795Y145213D02*
Y153213D01*
X655055Y139370D02*
X663055D01*
X659055Y135370D02*
Y143370D01*
X655055Y151181D02*
X663055D01*
X659055Y147181D02*
Y155181D01*
X729858Y324409D02*
X737858D01*
X733858Y320409D02*
Y328409D01*
X729858Y312598D02*
X737858D01*
X733858Y308598D02*
Y316598D01*
X204268Y263386D02*
X212268D01*
X208268Y259386D02*
Y267386D01*
X204268Y275197D02*
X212268D01*
X208268Y271197D02*
Y279197D01*
X741669Y121654D02*
X749669D01*
X745669Y117654D02*
Y125654D01*
X741669Y109843D02*
X749669D01*
X745669Y105843D02*
Y113843D01*
X212142Y334252D02*
X220142D01*
X216142Y330252D02*
Y338252D01*
X212142Y322441D02*
X220142D01*
X216142Y318441D02*
Y326441D01*
X243638Y245669D02*
X251638D01*
X247638Y241669D02*
Y249669D01*
X255449Y245669D02*
X263449D01*
X259449Y241669D02*
Y249669D01*
X255449Y287008D02*
X263449D01*
X259449Y283008D02*
Y291008D01*
X255449Y298819D02*
X263449D01*
X259449Y294819D02*
Y302819D01*
X255449Y253543D02*
X263449D01*
X259449Y249543D02*
Y257543D01*
X243638Y253543D02*
X251638D01*
X247638Y249543D02*
Y257543D01*
X255449Y334252D02*
X263449D01*
X259449Y330252D02*
Y338252D01*
X255449Y346063D02*
X263449D01*
X259449Y342063D02*
Y350063D01*
X216079Y308661D02*
X224079D01*
X220079Y304661D02*
Y312661D01*
X204268Y308661D02*
X212268D01*
X208268Y304661D02*
Y312661D01*
X204268Y253543D02*
X212268D01*
X208268Y249543D02*
Y257543D01*
X216079Y253543D02*
X224079D01*
X220079Y249543D02*
Y257543D01*
X267260Y298819D02*
X275260D01*
X271260Y294819D02*
Y302819D01*
X267260Y287008D02*
X275260D01*
X271260Y283008D02*
Y291008D01*
X141276Y263386D02*
X149276D01*
X145276Y259386D02*
Y267386D01*
X141276Y275197D02*
X149276D01*
X145276Y271197D02*
Y279197D01*
X267260Y263386D02*
X275260D01*
X271260Y259386D02*
Y267386D01*
X267260Y275197D02*
X275260D01*
X271260Y271197D02*
Y279197D01*
X275134Y334252D02*
X283134D01*
X279134Y330252D02*
Y338252D01*
X275134Y322441D02*
X283134D01*
X279134Y318441D02*
Y326441D01*
X306630Y245669D02*
X314630D01*
X310630Y241669D02*
Y249669D01*
X318441Y245669D02*
X326441D01*
X322441Y241669D02*
Y249669D01*
X318441Y287008D02*
X326441D01*
X322441Y283008D02*
Y291008D01*
X318441Y298819D02*
X326441D01*
X322441Y294819D02*
Y302819D01*
X318441Y334252D02*
X326441D01*
X322441Y330252D02*
Y338252D01*
X318441Y346063D02*
X326441D01*
X322441Y342063D02*
Y350063D01*
X318441Y253543D02*
X326441D01*
X322441Y249543D02*
Y257543D01*
X306630Y253543D02*
X314630D01*
X310630Y249543D02*
Y257543D01*
X279071Y308661D02*
X287071D01*
X283071Y304661D02*
Y312661D01*
X267260Y308661D02*
X275260D01*
X271260Y304661D02*
Y312661D01*
X267260Y253543D02*
X275260D01*
X271260Y249543D02*
Y257543D01*
X279071Y253543D02*
X287071D01*
X283071Y249543D02*
Y257543D01*
X330252Y298819D02*
X338252D01*
X334252Y294819D02*
Y302819D01*
X330252Y287008D02*
X338252D01*
X334252Y283008D02*
Y291008D01*
X330252Y263386D02*
X338252D01*
X334252Y259386D02*
Y267386D01*
X330252Y275197D02*
X338252D01*
X334252Y271197D02*
Y279197D01*
X149150Y334252D02*
X157150D01*
X153150Y330252D02*
Y338252D01*
X149150Y322441D02*
X157150D01*
X153150Y318441D02*
Y326441D01*
X338126Y334252D02*
X346126D01*
X342126Y330252D02*
Y338252D01*
X338126Y322441D02*
X346126D01*
X342126Y318441D02*
Y326441D01*
X369622Y245669D02*
X377622D01*
X373622Y241669D02*
Y249669D01*
X381433Y245669D02*
X389433D01*
X385433Y241669D02*
Y249669D01*
X381433Y287008D02*
X389433D01*
X385433Y283008D02*
Y291008D01*
X381433Y298819D02*
X389433D01*
X385433Y294819D02*
Y302819D01*
X381433Y334252D02*
X389433D01*
X385433Y330252D02*
Y338252D01*
X381433Y346063D02*
X389433D01*
X385433Y342063D02*
Y350063D01*
X381433Y253543D02*
X389433D01*
X385433Y249543D02*
Y257543D01*
X369622Y253543D02*
X377622D01*
X373622Y249543D02*
Y257543D01*
X342063Y308661D02*
X350063D01*
X346063Y304661D02*
Y312661D01*
X330252Y308661D02*
X338252D01*
X334252Y304661D02*
Y312661D01*
X330252Y253543D02*
X338252D01*
X334252Y249543D02*
Y257543D01*
X342063Y253543D02*
X350063D01*
X346063Y249543D02*
Y257543D01*
X393244Y298819D02*
X401244D01*
X397244Y294819D02*
Y302819D01*
X393244Y287008D02*
X401244D01*
X397244Y283008D02*
Y291008D01*
X393244Y263386D02*
X401244D01*
X397244Y259386D02*
Y267386D01*
X393244Y275197D02*
X401244D01*
X397244Y271197D02*
Y279197D01*
X401118Y334252D02*
X409118D01*
X405118Y330252D02*
Y338252D01*
X401118Y322441D02*
X409118D01*
X405118Y318441D02*
Y326441D01*
X192457Y334252D02*
X200457D01*
X196457Y330252D02*
Y338252D01*
X192457Y346063D02*
X200457D01*
X196457Y342063D02*
Y350063D01*
X432614Y245669D02*
X440614D01*
X436614Y241669D02*
Y249669D01*
X444425Y245669D02*
X452425D01*
X448425Y241669D02*
Y249669D01*
X444425Y287008D02*
X452425D01*
X448425Y283008D02*
Y291008D01*
X444425Y298819D02*
X452425D01*
X448425Y294819D02*
Y302819D01*
X444425Y334252D02*
X452425D01*
X448425Y330252D02*
Y338252D01*
X444425Y346063D02*
X452425D01*
X448425Y342063D02*
Y350063D01*
X444425Y253543D02*
X452425D01*
X448425Y249543D02*
Y257543D01*
X432614Y253543D02*
X440614D01*
X436614Y249543D02*
Y257543D01*
X405055Y308661D02*
X413055D01*
X409055Y304661D02*
Y312661D01*
X393244Y308661D02*
X401244D01*
X397244Y304661D02*
Y312661D01*
X393244Y253543D02*
X401244D01*
X397244Y249543D02*
Y257543D01*
X405055Y253543D02*
X413055D01*
X409055Y249543D02*
Y257543D01*
X456236Y298819D02*
X464236D01*
X460236Y294819D02*
Y302819D01*
X456236Y287008D02*
X464236D01*
X460236Y283008D02*
Y291008D01*
X456236Y263386D02*
X464236D01*
X460236Y259386D02*
Y267386D01*
X456236Y275197D02*
X464236D01*
X460236Y271197D02*
Y279197D01*
X464110Y334252D02*
X472110D01*
X468110Y330252D02*
Y338252D01*
X464110Y322441D02*
X472110D01*
X468110Y318441D02*
Y326441D01*
X495606Y245669D02*
X503606D01*
X499606Y241669D02*
Y249669D01*
X507417Y245669D02*
X515417D01*
X511417Y241669D02*
Y249669D01*
X180646Y245669D02*
X188646D01*
X184646Y241669D02*
Y249669D01*
X192457Y245669D02*
X200457D01*
X196457Y241669D02*
Y249669D01*
X507417Y287008D02*
X515417D01*
X511417Y283008D02*
Y291008D01*
X507417Y298819D02*
X515417D01*
X511417Y294819D02*
Y302819D01*
X507417Y334252D02*
X515417D01*
X511417Y330252D02*
Y338252D01*
X507417Y346063D02*
X515417D01*
X511417Y342063D02*
Y350063D01*
X507417Y253543D02*
X515417D01*
X511417Y249543D02*
Y257543D01*
X495606Y253543D02*
X503606D01*
X499606Y249543D02*
Y257543D01*
X468047Y308661D02*
X476047D01*
X472047Y304661D02*
Y312661D01*
X456236Y308661D02*
X464236D01*
X460236Y304661D02*
Y312661D01*
X456236Y253543D02*
X464236D01*
X460236Y249543D02*
Y257543D01*
X468047Y253543D02*
X476047D01*
X472047Y249543D02*
Y257543D01*
X519228Y298819D02*
X527228D01*
X523228Y294819D02*
Y302819D01*
X519228Y287008D02*
X527228D01*
X523228Y283008D02*
Y291008D01*
X519228Y263386D02*
X527228D01*
X523228Y259386D02*
Y267386D01*
X519228Y275197D02*
X527228D01*
X523228Y271197D02*
Y279197D01*
X527102Y334252D02*
X535102D01*
X531102Y330252D02*
Y338252D01*
X527102Y322441D02*
X535102D01*
X531102Y318441D02*
Y326441D01*
X570409Y287008D02*
X578409D01*
X574409Y283008D02*
Y291008D01*
X570409Y298819D02*
X578409D01*
X574409Y294819D02*
Y302819D01*
X570409Y334252D02*
X578409D01*
X574409Y330252D02*
Y338252D01*
X570409Y346063D02*
X578409D01*
X574409Y342063D02*
Y350063D01*
X192457Y287008D02*
X200457D01*
X196457Y283008D02*
Y291008D01*
X192457Y298819D02*
X200457D01*
X196457Y294819D02*
Y302819D01*
X570409Y253543D02*
X578409D01*
X574409Y249543D02*
Y257543D01*
X558598Y253543D02*
X566598D01*
X562598Y249543D02*
Y257543D01*
X558598Y245669D02*
X566598D01*
X562598Y241669D02*
Y249669D01*
X570409Y245669D02*
X578409D01*
X574409Y241669D02*
Y249669D01*
X531039Y308661D02*
X539039D01*
X535039Y304661D02*
Y312661D01*
X519228Y308661D02*
X527228D01*
X523228Y304661D02*
Y312661D01*
X519228Y253543D02*
X527228D01*
X523228Y249543D02*
Y257543D01*
X531039Y253543D02*
X539039D01*
X535039Y249543D02*
Y257543D01*
X582220Y298819D02*
X590220D01*
X586220Y294819D02*
Y302819D01*
X582220Y287008D02*
X590220D01*
X586220Y283008D02*
Y291008D01*
X582220Y263386D02*
X590220D01*
X586220Y259386D02*
Y267386D01*
X582220Y275197D02*
X590220D01*
X586220Y271197D02*
Y279197D01*
X590094Y334252D02*
X598094D01*
X594094Y330252D02*
Y338252D01*
X590094Y322441D02*
X598094D01*
X594094Y318441D02*
Y326441D01*
X621591Y245669D02*
X629591D01*
X625591Y241669D02*
Y249669D01*
X633402Y245669D02*
X641402D01*
X637402Y241669D02*
Y249669D01*
X633402Y287008D02*
X641402D01*
X637402Y283008D02*
Y291008D01*
X633402Y298819D02*
X641402D01*
X637402Y294819D02*
Y302819D01*
X633402Y334252D02*
X641402D01*
X637402Y330252D02*
Y338252D01*
X633402Y346063D02*
X641402D01*
X637402Y342063D02*
Y350063D01*
X192457Y253543D02*
X200457D01*
X196457Y249543D02*
Y257543D01*
X180646Y253543D02*
X188646D01*
X184646Y249543D02*
Y257543D01*
X633402Y253543D02*
X641402D01*
X637402Y249543D02*
Y257543D01*
X621591Y253543D02*
X629591D01*
X625591Y249543D02*
Y257543D01*
X594031Y308661D02*
X602031D01*
X598031Y304661D02*
Y312661D01*
X582220Y308661D02*
X590220D01*
X586220Y304661D02*
Y312661D01*
X582220Y253543D02*
X590220D01*
X586220Y249543D02*
Y257543D01*
X594031Y253543D02*
X602031D01*
X598031Y249543D02*
Y257543D01*
X184583Y198425D02*
X192583D01*
X188583Y194425D02*
Y202425D01*
X196394Y198425D02*
X204394D01*
X200394Y194425D02*
Y202425D01*
X184583Y190551D02*
X192583D01*
X188583Y186551D02*
Y194551D01*
X196394Y190551D02*
X204394D01*
X200394Y186551D02*
Y194551D01*
X184583Y214173D02*
X192583D01*
X188583Y210173D02*
Y218173D01*
X196394Y214173D02*
X204394D01*
X200394Y210173D02*
Y218173D01*
X184583Y182677D02*
X192583D01*
X188583Y178677D02*
Y186677D01*
X196394Y182677D02*
X204394D01*
X200394Y178677D02*
Y186677D01*
X184583Y174803D02*
X192583D01*
X188583Y170803D02*
Y178803D01*
X196394Y174803D02*
X204394D01*
X200394Y170803D02*
Y178803D01*
X196394Y206299D02*
X204394D01*
X200394Y202299D02*
Y210299D01*
X184583Y206299D02*
X192583D01*
X188583Y202299D02*
Y210299D01*
X149150Y206299D02*
X157150D01*
X153150Y202299D02*
Y210299D01*
X137339Y206299D02*
X145339D01*
X141339Y202299D02*
Y210299D01*
X153087Y308661D02*
X161087D01*
X157087Y304661D02*
Y312661D01*
X141276Y308661D02*
X149276D01*
X145276Y304661D02*
Y312661D01*
X149150Y198425D02*
X157150D01*
X153150Y194425D02*
Y202425D01*
X137339Y198425D02*
X145339D01*
X141339Y194425D02*
Y202425D01*
X149150Y182677D02*
X157150D01*
X153150Y178677D02*
Y186677D01*
X137339Y182677D02*
X145339D01*
X141339Y178677D02*
Y186677D01*
X168835Y182677D02*
X176835D01*
X172835Y178677D02*
Y186677D01*
X157024Y182677D02*
X165024D01*
X161024Y178677D02*
Y186677D01*
X149150Y190551D02*
X157150D01*
X153150Y186551D02*
Y194551D01*
X137339Y190551D02*
X145339D01*
X141339Y186551D02*
Y194551D01*
X168835Y190551D02*
X176835D01*
X172835Y186551D02*
Y194551D01*
X157024Y190551D02*
X165024D01*
X161024Y186551D02*
Y194551D01*
X168835Y198425D02*
X176835D01*
X172835Y194425D02*
Y202425D01*
X157024Y198425D02*
X165024D01*
X161024Y194425D02*
Y202425D01*
X168835Y206299D02*
X176835D01*
X172835Y202299D02*
Y210299D01*
X157024Y206299D02*
X165024D01*
X161024Y202299D02*
Y210299D01*
X168835Y214173D02*
X176835D01*
X172835Y210173D02*
Y218173D01*
X157024Y214173D02*
X165024D01*
X161024Y210173D02*
Y218173D01*
X137339Y214173D02*
X145339D01*
X141339Y210173D02*
Y218173D01*
X149150Y214173D02*
X157150D01*
X153150Y210173D02*
Y218173D01*
X515291Y192520D02*
X523291D01*
X519291Y188520D02*
Y196520D01*
X515291Y204331D02*
X523291D01*
X519291Y200331D02*
Y208331D01*
X141276Y253543D02*
X149276D01*
X145276Y249543D02*
Y257543D01*
X153087Y253543D02*
X161087D01*
X157087Y249543D02*
Y257543D01*
X308598Y117717D02*
X316598D01*
X312598Y113717D02*
Y121717D01*
X308598Y129528D02*
X316598D01*
X312598Y125528D02*
Y133528D01*
X292850Y129528D02*
X300850D01*
X296850Y125528D02*
Y133528D01*
X292850Y117717D02*
X300850D01*
X296850Y113717D02*
Y121717D01*
X430646Y159055D02*
X438646D01*
X434646Y155055D02*
Y163055D01*
X430646Y170866D02*
X438646D01*
X434646Y166866D02*
Y174866D01*
X300724Y129528D02*
X308724D01*
X304724Y125528D02*
Y133528D01*
X300724Y117717D02*
X308724D01*
X304724Y113717D02*
Y121717D01*
X438520Y159055D02*
X446520D01*
X442520Y155055D02*
Y163055D01*
X438520Y170866D02*
X446520D01*
X442520Y166866D02*
Y174866D01*
X910961Y263386D02*
X918961D01*
X914961Y259386D02*
Y267386D01*
X910961Y251575D02*
X918961D01*
X914961Y247575D02*
Y255575D01*
X910961Y294882D02*
X918961D01*
X914961Y290882D02*
Y298882D01*
X910961Y283071D02*
X918961D01*
X914961Y279071D02*
Y287071D01*
X910961Y326378D02*
X918961D01*
X914961Y322378D02*
Y330378D01*
X910961Y314567D02*
X918961D01*
X914961Y310567D02*
Y318567D01*
X910961Y357874D02*
X918961D01*
X914961Y353874D02*
Y361874D01*
X910961Y346063D02*
X918961D01*
X914961Y342063D02*
Y350063D01*
X770705Y379528D02*
X778705D01*
X774705Y375528D02*
Y383528D01*
X799248Y379528D02*
X807248D01*
X803248Y375528D02*
Y383528D01*
X778579Y143307D02*
X786579D01*
X782579Y139307D02*
Y147307D01*
X807122Y143307D02*
X815122D01*
X811122Y139307D02*
Y147307D01*
X778579Y241732D02*
X786579D01*
X782579Y237732D02*
Y245732D01*
X807122Y241732D02*
X815122D01*
X811122Y237732D02*
Y245732D01*
X867654Y379528D02*
X875654D01*
X871654Y375528D02*
Y383528D01*
X873654Y384809D02*
Y381528D01*
Y384809D02*
X874676D01*
X875017Y384653*
X875131Y384496*
X875244Y384184*
Y383871*
X875131Y383559*
X875017Y383403*
X874676Y383246*
X873654D02*
X874676D01*
X875017Y383090*
X875131Y382934*
X875244Y382621*
Y382153*
X875131Y381840*
X875017Y381684*
X874676Y381528*
X873654*
X111748Y379528D02*
X119748D01*
X115748Y375528D02*
Y383528D01*
X117748Y384809D02*
Y381528D01*
Y384809D02*
X118771D01*
X119112Y384653*
X119225Y384496*
X119339Y384184*
Y383871*
X119225Y383559*
X119112Y383403*
X118771Y383246*
X117748D02*
X118771D01*
X119112Y383090*
X119225Y382934*
X119339Y382621*
Y382153*
X119225Y381840*
X119112Y381684*
X118771Y381528*
X117748*
X867654Y115748D02*
X875654D01*
X871654Y111748D02*
Y119748D01*
X873654Y121029D02*
Y117748D01*
Y121029D02*
X874676D01*
X875017Y120873*
X875131Y120717*
X875244Y120404*
Y120092*
X875131Y119779*
X875017Y119623*
X874676Y119467*
X873654D02*
X874676D01*
X875017Y119311*
X875131Y119154*
X875244Y118842*
Y118373*
X875131Y118061*
X875017Y117904*
X874676Y117748*
X873654*
X111748Y115748D02*
X119748D01*
X115748Y111748D02*
Y119748D01*
X117748Y121029D02*
Y117748D01*
Y121029D02*
X118771D01*
X119112Y120873*
X119225Y120717*
X119339Y120404*
Y120092*
X119225Y119779*
X119112Y119623*
X118771Y119467*
X117748D02*
X118771D01*
X119112Y119311*
X119225Y119154*
X119339Y118842*
Y118373*
X119225Y118061*
X119112Y117904*
X118771Y117748*
X117748*
X912929Y383465D02*
X920929D01*
X916929Y379465D02*
Y387465D01*
X918929Y388746D02*
Y385465D01*
Y388746D02*
X919952D01*
X920293Y388590*
X920406Y388433*
X920520Y388121*
Y387808*
X920406Y387496*
X920293Y387340*
X919952Y387183*
X918929D02*
X919952D01*
X920293Y387027*
X920406Y386871*
X920520Y386558*
Y386090*
X920406Y385777*
X920293Y385621*
X919952Y385465*
X918929*
X912929Y111811D02*
X920929D01*
X916929Y107811D02*
Y115811D01*
X918929Y117092D02*
Y113811D01*
Y117092D02*
X919952D01*
X920293Y116936*
X920406Y116780*
X920520Y116467*
Y116155*
X920406Y115842*
X920293Y115686*
X919952Y115530*
X918929D02*
X919952D01*
X920293Y115374*
X920406Y115217*
X920520Y114905*
Y114436*
X920406Y114124*
X920293Y113967*
X919952Y113811*
X918929*
X830252Y365685D02*
X838252Y373685D01*
X830252D02*
X838252Y365685D01*
X105843Y271260D02*
X113843D01*
X109843Y267260D02*
Y275260D01*
X125528Y271260D02*
X133528D01*
X129528Y267260D02*
Y275260D01*
X109780Y287008D02*
X117780D01*
X113780Y283008D02*
Y291008D01*
X121591Y287008D02*
X129591D01*
X125591Y283008D02*
Y291008D01*
X733795Y386417D02*
X741795D01*
X737795Y382417D02*
Y390417D01*
X743638Y386417D02*
X751638D01*
X747638Y382417D02*
Y390417D01*
X753480Y386417D02*
X761480D01*
X757480Y382417D02*
Y390417D01*
X796787Y109843D02*
X804787D01*
X800787Y105843D02*
Y113843D01*
X458205Y123622D02*
X466205D01*
X462205Y119622D02*
Y127622D01*
X460173Y129528D02*
X468173D01*
X464173Y125528D02*
Y133528D01*
X294817Y137404D02*
X302817D01*
X298817Y133404D02*
Y141404D01*
X300721Y135433D02*
X308721D01*
X304721Y131433D02*
Y139433D01*
X320409Y140354D02*
X328409D01*
X324409Y136354D02*
Y144354D01*
X269228Y151181D02*
X277228D01*
X273228Y147181D02*
Y155181D01*
X261354Y151181D02*
X269354D01*
X265354Y147181D02*
Y155181D01*
X265291Y153150D02*
X273291D01*
X269291Y149150D02*
Y157150D01*
X288913Y166929D02*
X296913D01*
X292913Y162929D02*
Y170929D01*
X281039Y155118D02*
X289039D01*
X285039Y151118D02*
Y159118D01*
X290882Y162992D02*
X298882D01*
X294882Y158992D02*
Y166992D01*
X292850Y159055D02*
X300850D01*
X296850Y155055D02*
Y163055D01*
X294819Y155118D02*
X302819D01*
X298819Y151118D02*
Y159118D01*
X324346Y155118D02*
X332346D01*
X328346Y151118D02*
Y159118D01*
X410961Y178740D02*
X418961D01*
X414961Y174740D02*
Y182740D01*
X420803Y178740D02*
X428803D01*
X424803Y174740D02*
Y182740D01*
X554661Y180709D02*
X562661D01*
X558661Y176709D02*
Y184709D01*
X261354Y202362D02*
X269354D01*
X265354Y198362D02*
Y206362D01*
X257417Y198425D02*
X265417D01*
X261417Y194425D02*
Y202425D01*
X288913Y194488D02*
X296913D01*
X292913Y190488D02*
Y198488D01*
X286945Y198425D02*
X294945D01*
X290945Y194425D02*
Y202425D01*
X320409Y196457D02*
X328409D01*
X324409Y192457D02*
Y200457D01*
X418835Y202362D02*
X426835D01*
X422835Y198362D02*
Y206362D01*
X424740Y202362D02*
X432740D01*
X428740Y198362D02*
Y206362D01*
X554504Y202362D02*
X562504D01*
X558504Y198362D02*
Y206362D01*
X558598Y200394D02*
X566598D01*
X562598Y196394D02*
Y204394D01*
X564504Y202362D02*
X572504D01*
X568504Y198362D02*
Y206362D01*
X574346Y202362D02*
X582346D01*
X578346Y198362D02*
Y206362D01*
X796787Y208268D02*
X804787D01*
X800787Y204268D02*
Y212268D01*
X318441Y224016D02*
X326441D01*
X322441Y220016D02*
Y228016D01*
X487732Y218110D02*
X495732D01*
X491732Y214110D02*
Y222110D01*
X505449Y221063D02*
X513449D01*
X509449Y217063D02*
Y225063D01*
X149150Y286024D02*
X157150D01*
X153150Y282024D02*
Y290024D01*
X147181Y271260D02*
X155181D01*
X151181Y267260D02*
Y275260D01*
X170803Y286024D02*
X178803D01*
X174803Y282024D02*
Y290024D01*
X210173Y271260D02*
X218173D01*
X214173Y267260D02*
Y275260D01*
X212142Y286024D02*
X220142D01*
X216142Y282024D02*
Y290024D01*
X233795Y286024D02*
X241795D01*
X237795Y282024D02*
Y290024D01*
X275134Y286024D02*
X283134D01*
X279134Y282024D02*
Y290024D01*
X273165Y271260D02*
X281165D01*
X277165Y267260D02*
Y275260D01*
X296787Y286024D02*
X304787D01*
X300787Y282024D02*
Y290024D01*
X336157Y271260D02*
X344157D01*
X340157Y267260D02*
Y275260D01*
X338126Y286024D02*
X346126D01*
X342126Y282024D02*
Y290024D01*
X359780Y286024D02*
X367780D01*
X363780Y282024D02*
Y290024D01*
X401118Y286024D02*
X409118D01*
X405118Y282024D02*
Y290024D01*
X399150Y271260D02*
X407150D01*
X403150Y267260D02*
Y275260D01*
X422772Y286024D02*
X430772D01*
X426772Y282024D02*
Y290024D01*
X462142Y271260D02*
X470142D01*
X466142Y267260D02*
Y275260D01*
X464110Y286024D02*
X472110D01*
X468110Y282024D02*
Y290024D01*
X485764Y286024D02*
X493764D01*
X489764Y282024D02*
Y290024D01*
X525134Y271260D02*
X533134D01*
X529134Y267260D02*
Y275260D01*
X527102Y286024D02*
X535102D01*
X531102Y282024D02*
Y290024D01*
X548756Y286024D02*
X556756D01*
X552756Y282024D02*
Y290024D01*
X588126Y271260D02*
X596126D01*
X592126Y267260D02*
Y275260D01*
X590094Y286024D02*
X598094D01*
X594094Y282024D02*
Y290024D01*
X611748Y286024D02*
X619748D01*
X615748Y282024D02*
Y290024D01*
X170803Y295866D02*
X178803D01*
X174803Y291866D02*
Y299866D01*
X233795Y295866D02*
X241795D01*
X237795Y291866D02*
Y299866D01*
X296787Y295866D02*
X304787D01*
X300787Y291866D02*
Y299866D01*
X359780Y295866D02*
X367780D01*
X363780Y291866D02*
Y299866D01*
X422772Y295866D02*
X430772D01*
X426772Y291866D02*
Y299866D01*
X485764Y295866D02*
X493764D01*
X489764Y291866D02*
Y299866D01*
X548756Y295866D02*
X556756D01*
X552756Y291866D02*
Y299866D01*
X611748Y295866D02*
X619748D01*
X615748Y291866D02*
Y299866D01*
X785961Y346063D02*
X793961D01*
X789961Y342063D02*
Y350063D01*
X781039Y351969D02*
X789039D01*
X785039Y347969D02*
Y355969D01*
X100000Y100000D02*
X946457D01*
Y395276*
X100000*
Y100000*
X887402Y391339D02*
Y103937D01*
X1005512Y316000D02*
X1263512D01*
X1005512Y292000D02*
X1263512D01*
X1005512Y268000D02*
X1263512D01*
X1005512Y244000D02*
X1263512D01*
X1005512Y220000D02*
X1263512D01*
X1005512Y196000D02*
X1263512D01*
X1005512Y172000D02*
X1263512D01*
X1005512Y148000D02*
X1263512D01*
X1005512Y124000D02*
X1263512D01*
X1005512Y100000D02*
X1263512D01*
X1005512Y316000D02*
Y100000D01*
X1089512Y316000D02*
Y100000D01*
X1125512Y316000D02*
Y100000D01*
X1161512Y316000D02*
Y100000D01*
X1215512Y316000D02*
Y100000D01*
X1263512Y316000D02*
Y100000D01*
X1041012Y304750D02*
X1040466Y305500D01*
X1039648Y305875*
X1038557*
X1037739Y305500*
X1037194Y304750*
Y304000*
X1037466Y303250*
X1037739Y302875*
X1038285Y302500*
X1039921Y301750*
X1040466Y301375*
X1040739Y301000*
X1041012Y300250*
Y299125*
X1040466Y298375*
X1039648Y298000*
X1038557*
X1037739Y298375*
X1037194Y299125*
X1043466Y305875D02*
Y298000D01*
X1049739Y305875D02*
X1045921Y298000D01*
Y305875D02*
X1049739D01*
X1045921Y298000D02*
X1049739D01*
X1052194Y305875D02*
Y298000D01*
Y305875D02*
X1055739D01*
X1052194Y302125D02*
X1054375D01*
X1052194Y298000D02*
X1055739D01*
X1099375Y305875D02*
X1098830Y305500D01*
X1098285Y304750*
X1098012Y304000*
X1097739Y302875*
Y301000*
X1098012Y299875*
X1098285Y299125*
X1098830Y298375*
X1099375Y298000*
X1100466*
X1101012Y298375*
X1101557Y299125*
X1101830Y299875*
X1102103Y301000*
Y302875*
X1101830Y304000*
X1101557Y304750*
X1101012Y305500*
X1100466Y305875*
X1099375*
X1100194Y299500D02*
X1101830Y297250D01*
X1106466Y305875D02*
Y298000D01*
X1104557Y305875D02*
X1108375D01*
X1110830D02*
X1113012Y302125D01*
Y298000*
X1115194Y305875D02*
X1113012Y302125D01*
X1137557Y304750D02*
X1137012Y305500D01*
X1136194Y305875*
X1135103*
X1134285Y305500*
X1133739Y304750*
Y304000*
X1134012Y303250*
X1134285Y302875*
X1134830Y302500*
X1136466Y301750*
X1137012Y301375*
X1137285Y301000*
X1137557Y300250*
Y299125*
X1137012Y298375*
X1136194Y298000*
X1135103*
X1134285Y298375*
X1133739Y299125*
X1140012Y305875D02*
X1142194Y302125D01*
Y298000*
X1144375Y305875D02*
X1142194Y302125D01*
X1146830Y305875D02*
Y298000D01*
Y305875D02*
X1149012Y298000D01*
X1151194Y305875D02*
X1149012Y298000D01*
X1151194Y305875D02*
Y298000D01*
X1173012Y305875D02*
Y298000D01*
Y305875D02*
X1175466D01*
X1176285Y305500*
X1176557Y305125*
X1176830Y304375*
Y303250*
X1176557Y302500*
X1176285Y302125*
X1175466Y301750*
X1173012*
X1179285Y305875D02*
Y298000D01*
X1182557*
X1187194Y305875D02*
X1185012Y298000D01*
X1187194Y305875D02*
X1189375Y298000D01*
X1185830Y300625D02*
X1188557D01*
X1193739Y305875D02*
Y298000D01*
X1191830Y305875D02*
X1195648D01*
X1198103D02*
Y298000D01*
Y305875D02*
X1201648D01*
X1198103Y302125D02*
X1200285D01*
X1198103Y298000D02*
X1201648D01*
X1204103Y305875D02*
Y298000D01*
Y305875D02*
X1206012D01*
X1206830Y305500*
X1207375Y304750*
X1207648Y304000*
X1207921Y302875*
Y301000*
X1207648Y299875*
X1207375Y299125*
X1206830Y298375*
X1206012Y298000*
X1204103*
X1232194Y305875D02*
Y298000D01*
X1230285Y305875D02*
X1234103D01*
X1238194D02*
X1237648Y305500D01*
X1237103Y304750*
X1236830Y304000*
X1236557Y302875*
Y301000*
X1236830Y299875*
X1237103Y299125*
X1237648Y298375*
X1238194Y298000*
X1239285*
X1239830Y298375*
X1240375Y299125*
X1240648Y299875*
X1240921Y301000*
Y302875*
X1240648Y304000*
X1240375Y304750*
X1239830Y305500*
X1239285Y305875*
X1238194*
X1243375D02*
Y298000D01*
X1246648*
X1013148Y281875D02*
X1012330Y281500D01*
X1011785Y280375*
X1011512Y278500*
Y277375*
X1011785Y275500*
X1012330Y274375*
X1013148Y274000*
X1013694*
X1014512Y274375*
X1015057Y275500*
X1015330Y277375*
Y278500*
X1015057Y280375*
X1014512Y281500*
X1013694Y281875*
X1013148*
X1018057Y274750D02*
X1017785Y274375D01*
X1018057Y274000*
X1018330Y274375*
X1018057Y274750*
X1021330Y281875D02*
X1024330D01*
X1022694Y278875*
X1023512*
X1024057Y278500*
X1024330Y278125*
X1024603Y277000*
Y276250*
X1024330Y275125*
X1023785Y274375*
X1022966Y274000*
X1022148*
X1021330Y274375*
X1021057Y274750*
X1020785Y275500*
X1101694Y281875D02*
X1098966D01*
X1098694Y278500*
X1098966Y278875*
X1099785Y279250*
X1100603*
X1101421Y278875*
X1101966Y278125*
X1102239Y277000*
X1101966Y276250*
X1101694Y275125*
X1101148Y274375*
X1100330Y274000*
X1099512*
X1098694Y274375*
X1098421Y274750*
X1098148Y275500*
X1105239Y281875D02*
X1108239D01*
X1106603Y278875*
X1107421*
X1107966Y278500*
X1108239Y278125*
X1108512Y277000*
Y276250*
X1108239Y275125*
X1107694Y274375*
X1106875Y274000*
X1106057*
X1105239Y274375*
X1104966Y274750*
X1104694Y275500*
X1111512Y281875D02*
X1114512D01*
X1112875Y278875*
X1113694*
X1114239Y278500*
X1114512Y278125*
X1114785Y277000*
Y276250*
X1114512Y275125*
X1113966Y274375*
X1113148Y274000*
X1112330*
X1111512Y274375*
X1111239Y274750*
X1110966Y275500*
X1137512Y280000D02*
X1149512D01*
X1143512Y274000D02*
Y286000D01*
X1170148Y281875D02*
X1172330Y278125D01*
Y274000*
X1174512Y281875D02*
X1172330Y278125D01*
X1176966Y281875D02*
Y274000D01*
Y281875D02*
X1180512D01*
X1176966Y278125D02*
X1179148D01*
X1176966Y274000D02*
X1180512D01*
X1186785Y280750D02*
X1186239Y281500D01*
X1185421Y281875*
X1184330*
X1183512Y281500*
X1182966Y280750*
Y280000*
X1183239Y279250*
X1183512Y278875*
X1184057Y278500*
X1185694Y277750*
X1186239Y277375*
X1186512Y277000*
X1186785Y276250*
Y275125*
X1186239Y274375*
X1185421Y274000*
X1184330*
X1183512Y274375*
X1182966Y275125*
X1223330Y280750D02*
Y274000D01*
X1220875Y277375D02*
X1225785D01*
X1233148Y283375D02*
X1228239Y271375D01*
X1235603Y277375D02*
X1240512D01*
X1244603Y281875D02*
X1243785Y281500D01*
X1243239Y280375*
X1242966Y278500*
Y277375*
X1243239Y275500*
X1243785Y274375*
X1244603Y274000*
X1245148*
X1245966Y274375*
X1246512Y275500*
X1246785Y277375*
Y278500*
X1246512Y280375*
X1245966Y281500*
X1245148Y281875*
X1244603*
X1249512Y274750D02*
X1249239Y274375D01*
X1249512Y274000*
X1249785Y274375*
X1249512Y274750*
X1253875Y281875D02*
X1253057Y281500D01*
X1252512Y280375*
X1252239Y278500*
Y277375*
X1252512Y275500*
X1253057Y274375*
X1253875Y274000*
X1254421*
X1255239Y274375*
X1255785Y275500*
X1256057Y277375*
Y278500*
X1255785Y280375*
X1255239Y281500*
X1254421Y281875*
X1253875*
X1013148Y257875D02*
X1012330Y257500D01*
X1011785Y256375*
X1011512Y254500*
Y253375*
X1011785Y251500*
X1012330Y250375*
X1013148Y250000*
X1013694*
X1014512Y250375*
X1015057Y251500*
X1015330Y253375*
Y254500*
X1015057Y256375*
X1014512Y257500*
X1013694Y257875*
X1013148*
X1018057Y250750D02*
X1017785Y250375D01*
X1018057Y250000*
X1018330Y250375*
X1018057Y250750*
X1022148Y257875D02*
X1021330Y257500D01*
X1021057Y256750*
Y256000*
X1021330Y255250*
X1021875Y254875*
X1022966Y254500*
X1023785Y254125*
X1024330Y253375*
X1024603Y252625*
Y251500*
X1024330Y250750*
X1024057Y250375*
X1023239Y250000*
X1022148*
X1021330Y250375*
X1021057Y250750*
X1020785Y251500*
Y252625*
X1021057Y253375*
X1021603Y254125*
X1022421Y254500*
X1023512Y254875*
X1024057Y255250*
X1024330Y256000*
Y256750*
X1024057Y257500*
X1023239Y257875*
X1022148*
X1104966D02*
X1102239D01*
X1101966Y254500*
X1102239Y254875*
X1103057Y255250*
X1103875*
X1104694Y254875*
X1105239Y254125*
X1105512Y253000*
X1105239Y252250*
X1104966Y251125*
X1104421Y250375*
X1103603Y250000*
X1102785*
X1101966Y250375*
X1101694Y250750*
X1101421Y251500*
X1111239Y256750D02*
X1110966Y257500D01*
X1110148Y257875*
X1109603*
X1108785Y257500*
X1108239Y256375*
X1107966Y254500*
Y252625*
X1108239Y251125*
X1108785Y250375*
X1109603Y250000*
X1109875*
X1110694Y250375*
X1111239Y251125*
X1111512Y252250*
Y252625*
X1111239Y253750*
X1110694Y254500*
X1109875Y254875*
X1109603*
X1108785Y254500*
X1108239Y253750*
X1107966Y252625*
X1137512Y250000D02*
X1149512Y262000D01*
X1137512D02*
X1149512Y250000D01*
X1170148Y257875D02*
X1172330Y254125D01*
Y250000*
X1174512Y257875D02*
X1172330Y254125D01*
X1176966Y257875D02*
Y250000D01*
Y257875D02*
X1180512D01*
X1176966Y254125D02*
X1179148D01*
X1176966Y250000D02*
X1180512D01*
X1186785Y256750D02*
X1186239Y257500D01*
X1185421Y257875*
X1184330*
X1183512Y257500*
X1182966Y256750*
Y256000*
X1183239Y255250*
X1183512Y254875*
X1184057Y254500*
X1185694Y253750*
X1186239Y253375*
X1186512Y253000*
X1186785Y252250*
Y251125*
X1186239Y250375*
X1185421Y250000*
X1184330*
X1183512Y250375*
X1182966Y251125*
X1223330Y256750D02*
Y250000D01*
X1220875Y253375D02*
X1225785D01*
X1233148Y259375D02*
X1228239Y247375D01*
X1235603Y253375D02*
X1240512D01*
X1244603Y257875D02*
X1243785Y257500D01*
X1243239Y256375*
X1242966Y254500*
Y253375*
X1243239Y251500*
X1243785Y250375*
X1244603Y250000*
X1245148*
X1245966Y250375*
X1246512Y251500*
X1246785Y253375*
Y254500*
X1246512Y256375*
X1245966Y257500*
X1245148Y257875*
X1244603*
X1249512Y250750D02*
X1249239Y250375D01*
X1249512Y250000*
X1249785Y250375*
X1249512Y250750*
X1253875Y257875D02*
X1253057Y257500D01*
X1252512Y256375*
X1252239Y254500*
Y253375*
X1252512Y251500*
X1253057Y250375*
X1253875Y250000*
X1254421*
X1255239Y250375*
X1255785Y251500*
X1256057Y253375*
Y254500*
X1255785Y256375*
X1255239Y257500*
X1254421Y257875*
X1253875*
X1011512Y232375D02*
X1012057Y232750D01*
X1012875Y233875*
Y226000*
X1015603Y226750D02*
X1015330Y226375D01*
X1015603Y226000*
X1015875Y226375*
X1015603Y226750*
X1018875Y233875D02*
X1021875D01*
X1020239Y230875*
X1021057*
X1021603Y230500*
X1021875Y230125*
X1022148Y229000*
Y228250*
X1021875Y227125*
X1021330Y226375*
X1020512Y226000*
X1019694*
X1018875Y226375*
X1018603Y226750*
X1018330Y227500*
X1101557Y232000D02*
Y232375D01*
X1101830Y233125*
X1102103Y233500*
X1102648Y233875*
X1103739*
X1104285Y233500*
X1104557Y233125*
X1104830Y232375*
Y231625*
X1104557Y230875*
X1104012Y229750*
X1101285Y226000*
X1105103*
X1110285Y233875D02*
X1107557Y228625D01*
X1111648*
X1110285Y233875D02*
Y226000D01*
X1137512D02*
X1149512D01*
Y238000*
X1137512*
Y226000*
X1143512Y232000D02*
Y238000D01*
X1170148Y233875D02*
X1172330Y230125D01*
Y226000*
X1174512Y233875D02*
X1172330Y230125D01*
X1176966Y233875D02*
Y226000D01*
Y233875D02*
X1180512D01*
X1176966Y230125D02*
X1179148D01*
X1176966Y226000D02*
X1180512D01*
X1186785Y232750D02*
X1186239Y233500D01*
X1185421Y233875*
X1184330*
X1183512Y233500*
X1182966Y232750*
Y232000*
X1183239Y231250*
X1183512Y230875*
X1184057Y230500*
X1185694Y229750*
X1186239Y229375*
X1186512Y229000*
X1186785Y228250*
Y227125*
X1186239Y226375*
X1185421Y226000*
X1184330*
X1183512Y226375*
X1182966Y227125*
X1223330Y232750D02*
Y226000D01*
X1220875Y229375D02*
X1225785D01*
X1233148Y235375D02*
X1228239Y223375D01*
X1235603Y229375D02*
X1240512D01*
X1244603Y233875D02*
X1243785Y233500D01*
X1243239Y232375*
X1242966Y230500*
Y229375*
X1243239Y227500*
X1243785Y226375*
X1244603Y226000*
X1245148*
X1245966Y226375*
X1246512Y227500*
X1246785Y229375*
Y230500*
X1246512Y232375*
X1245966Y233500*
X1245148Y233875*
X1244603*
X1249512Y226750D02*
X1249239Y226375D01*
X1249512Y226000*
X1249785Y226375*
X1249512Y226750*
X1253875Y233875D02*
X1253057Y233500D01*
X1252512Y232375*
X1252239Y230500*
Y229375*
X1252512Y227500*
X1253057Y226375*
X1253875Y226000*
X1254421*
X1255239Y226375*
X1255785Y227500*
X1256057Y229375*
Y230500*
X1255785Y232375*
X1255239Y233500*
X1254421Y233875*
X1253875*
X1013148Y209875D02*
X1012330Y209500D01*
X1011785Y208375*
X1011512Y206500*
Y205375*
X1011785Y203500*
X1012330Y202375*
X1013148Y202000*
X1013694*
X1014512Y202375*
X1015057Y203500*
X1015330Y205375*
Y206500*
X1015057Y208375*
X1014512Y209500*
X1013694Y209875*
X1013148*
X1018057Y202750D02*
X1017785Y202375D01*
X1018057Y202000*
X1018330Y202375*
X1018057Y202750*
X1024330Y207250D02*
X1024057Y206125D01*
X1023512Y205375*
X1022694Y205000*
X1022421*
X1021603Y205375*
X1021057Y206125*
X1020785Y207250*
Y207625*
X1021057Y208750*
X1021603Y209500*
X1022421Y209875*
X1022694*
X1023512Y209500*
X1024057Y208750*
X1024330Y207250*
Y205375*
X1024057Y203500*
X1023512Y202375*
X1022694Y202000*
X1022148*
X1021330Y202375*
X1021057Y203125*
X1102648Y209875D02*
X1101830Y209500D01*
X1101557Y208750*
Y208000*
X1101830Y207250*
X1102375Y206875*
X1103466Y206500*
X1104285Y206125*
X1104830Y205375*
X1105103Y204625*
Y203500*
X1104830Y202750*
X1104557Y202375*
X1103739Y202000*
X1102648*
X1101830Y202375*
X1101557Y202750*
X1101285Y203500*
Y204625*
X1101557Y205375*
X1102103Y206125*
X1102921Y206500*
X1104012Y206875*
X1104557Y207250*
X1104830Y208000*
Y208750*
X1104557Y209500*
X1103739Y209875*
X1102648*
X1110285D02*
X1107557Y204625D01*
X1111648*
X1110285Y209875D02*
Y202000D01*
X1143512D02*
X1149512Y208000D01*
X1143512Y214000*
X1137512Y208000*
X1143512Y202000*
Y208000D02*
Y214000D01*
X1170148Y209875D02*
X1172330Y206125D01*
Y202000*
X1174512Y209875D02*
X1172330Y206125D01*
X1176966Y209875D02*
Y202000D01*
Y209875D02*
X1180512D01*
X1176966Y206125D02*
X1179148D01*
X1176966Y202000D02*
X1180512D01*
X1186785Y208750D02*
X1186239Y209500D01*
X1185421Y209875*
X1184330*
X1183512Y209500*
X1182966Y208750*
Y208000*
X1183239Y207250*
X1183512Y206875*
X1184057Y206500*
X1185694Y205750*
X1186239Y205375*
X1186512Y205000*
X1186785Y204250*
Y203125*
X1186239Y202375*
X1185421Y202000*
X1184330*
X1183512Y202375*
X1182966Y203125*
X1223330Y208750D02*
Y202000D01*
X1220875Y205375D02*
X1225785D01*
X1233148Y211375D02*
X1228239Y199375D01*
X1235603Y205375D02*
X1240512D01*
X1244603Y209875D02*
X1243785Y209500D01*
X1243239Y208375*
X1242966Y206500*
Y205375*
X1243239Y203500*
X1243785Y202375*
X1244603Y202000*
X1245148*
X1245966Y202375*
X1246512Y203500*
X1246785Y205375*
Y206500*
X1246512Y208375*
X1245966Y209500*
X1245148Y209875*
X1244603*
X1249512Y202750D02*
X1249239Y202375D01*
X1249512Y202000*
X1249785Y202375*
X1249512Y202750*
X1253875Y209875D02*
X1253057Y209500D01*
X1252512Y208375*
X1252239Y206500*
Y205375*
X1252512Y203500*
X1253057Y202375*
X1253875Y202000*
X1254421*
X1255239Y202375*
X1255785Y203500*
X1256057Y205375*
Y206500*
X1255785Y208375*
X1255239Y209500*
X1254421Y209875*
X1253875*
X1011785Y184000D02*
Y184375D01*
X1012057Y185125*
X1012330Y185500*
X1012875Y185875*
X1013966*
X1014512Y185500*
X1014785Y185125*
X1015057Y184375*
Y183625*
X1014785Y182875*
X1014239Y181750*
X1011512Y178000*
X1015330*
X1018057Y178750D02*
X1017785Y178375D01*
X1018057Y178000*
X1018330Y178375*
X1018057Y178750*
X1024330Y185875D02*
X1021603D01*
X1021330Y182500*
X1021603Y182875*
X1022421Y183250*
X1023239*
X1024057Y182875*
X1024603Y182125*
X1024875Y181000*
X1024603Y180250*
X1024330Y179125*
X1023785Y178375*
X1022966Y178000*
X1022148*
X1021330Y178375*
X1021057Y178750*
X1020785Y179500*
X1107148Y185875D02*
X1104421Y180625D01*
X1108512*
X1107148Y185875D02*
Y178000D01*
X1137512D02*
X1149512D01*
X1137512Y190000*
X1149512*
X1137512Y178000*
X1170148Y185875D02*
X1172330Y182125D01*
Y178000*
X1174512Y185875D02*
X1172330Y182125D01*
X1176966Y185875D02*
Y178000D01*
Y185875D02*
X1180512D01*
X1176966Y182125D02*
X1179148D01*
X1176966Y178000D02*
X1180512D01*
X1186785Y184750D02*
X1186239Y185500D01*
X1185421Y185875*
X1184330*
X1183512Y185500*
X1182966Y184750*
Y184000*
X1183239Y183250*
X1183512Y182875*
X1184057Y182500*
X1185694Y181750*
X1186239Y181375*
X1186512Y181000*
X1186785Y180250*
Y179125*
X1186239Y178375*
X1185421Y178000*
X1184330*
X1183512Y178375*
X1182966Y179125*
X1223330Y184750D02*
Y178000D01*
X1220875Y181375D02*
X1225785D01*
X1233148Y187375D02*
X1228239Y175375D01*
X1235603Y181375D02*
X1240512D01*
X1244603Y185875D02*
X1243785Y185500D01*
X1243239Y184375*
X1242966Y182500*
Y181375*
X1243239Y179500*
X1243785Y178375*
X1244603Y178000*
X1245148*
X1245966Y178375*
X1246512Y179500*
X1246785Y181375*
Y182500*
X1246512Y184375*
X1245966Y185500*
X1245148Y185875*
X1244603*
X1249512Y178750D02*
X1249239Y178375D01*
X1249512Y178000*
X1249785Y178375*
X1249512Y178750*
X1253875Y185875D02*
X1253057Y185500D01*
X1252512Y184375*
X1252239Y182500*
Y181375*
X1252512Y179500*
X1253057Y178375*
X1253875Y178000*
X1254421*
X1255239Y178375*
X1255785Y179500*
X1256057Y181375*
Y182500*
X1255785Y184375*
X1255239Y185500*
X1254421Y185875*
X1253875*
X1011512Y160375D02*
X1012057Y160750D01*
X1012875Y161875*
Y154000*
X1015603Y154750D02*
X1015330Y154375D01*
X1015603Y154000*
X1015875Y154375*
X1015603Y154750*
X1019694Y161875D02*
X1018875Y161500D01*
X1018603Y160750*
Y160000*
X1018875Y159250*
X1019421Y158875*
X1020512Y158500*
X1021330Y158125*
X1021875Y157375*
X1022148Y156625*
Y155500*
X1021875Y154750*
X1021603Y154375*
X1020785Y154000*
X1019694*
X1018875Y154375*
X1018603Y154750*
X1018330Y155500*
Y156625*
X1018603Y157375*
X1019148Y158125*
X1019966Y158500*
X1021057Y158875*
X1021603Y159250*
X1021875Y160000*
Y160750*
X1021603Y161500*
X1020785Y161875*
X1019694*
X1104830Y160000D02*
Y160375D01*
X1105103Y161125*
X1105375Y161500*
X1105921Y161875*
X1107012*
X1107557Y161500*
X1107830Y161125*
X1108103Y160375*
Y159625*
X1107830Y158875*
X1107285Y157750*
X1104557Y154000*
X1108375*
X1137512D02*
X1149512Y166000D01*
Y154000*
X1137512Y166000*
Y154000*
X1170148Y161875D02*
X1172330Y158125D01*
Y154000*
X1174512Y161875D02*
X1172330Y158125D01*
X1176966Y161875D02*
Y154000D01*
Y161875D02*
X1180512D01*
X1176966Y158125D02*
X1179148D01*
X1176966Y154000D02*
X1180512D01*
X1186785Y160750D02*
X1186239Y161500D01*
X1185421Y161875*
X1184330*
X1183512Y161500*
X1182966Y160750*
Y160000*
X1183239Y159250*
X1183512Y158875*
X1184057Y158500*
X1185694Y157750*
X1186239Y157375*
X1186512Y157000*
X1186785Y156250*
Y155125*
X1186239Y154375*
X1185421Y154000*
X1184330*
X1183512Y154375*
X1182966Y155125*
X1223330Y160750D02*
Y154000D01*
X1220875Y157375D02*
X1225785D01*
X1233148Y163375D02*
X1228239Y151375D01*
X1235603Y157375D02*
X1240512D01*
X1244603Y161875D02*
X1243785Y161500D01*
X1243239Y160375*
X1242966Y158500*
Y157375*
X1243239Y155500*
X1243785Y154375*
X1244603Y154000*
X1245148*
X1245966Y154375*
X1246512Y155500*
X1246785Y157375*
Y158500*
X1246512Y160375*
X1245966Y161500*
X1245148Y161875*
X1244603*
X1249512Y154750D02*
X1249239Y154375D01*
X1249512Y154000*
X1249785Y154375*
X1249512Y154750*
X1253875Y161875D02*
X1253057Y161500D01*
X1252512Y160375*
X1252239Y158500*
Y157375*
X1252512Y155500*
X1253057Y154375*
X1253875Y154000*
X1254421*
X1255239Y154375*
X1255785Y155500*
X1256057Y157375*
Y158500*
X1255785Y160375*
X1255239Y161500*
X1254421Y161875*
X1253875*
X1011512Y136375D02*
X1012057Y136750D01*
X1012875Y137875*
Y130000*
X1015603Y130750D02*
X1015330Y130375D01*
X1015603Y130000*
X1015875Y130375*
X1015603Y130750*
X1021875Y137875D02*
X1019148D01*
X1018875Y134500*
X1019148Y134875*
X1019966Y135250*
X1020785*
X1021603Y134875*
X1022148Y134125*
X1022421Y133000*
X1022148Y132250*
X1021875Y131125*
X1021330Y130375*
X1020512Y130000*
X1019694*
X1018875Y130375*
X1018603Y130750*
X1018330Y131500*
X1104830Y136000D02*
Y136375D01*
X1105103Y137125*
X1105375Y137500*
X1105921Y137875*
X1107012*
X1107557Y137500*
X1107830Y137125*
X1108103Y136375*
Y135625*
X1107830Y134875*
X1107285Y133750*
X1104557Y130000*
X1108375*
X1137512Y136000D02*
X1149512D01*
X1143512Y130000D02*
Y142000D01*
X1148257Y145300D02*
X1146512Y139000D01*
X1148257Y145300D02*
X1150003Y139000D01*
X1147166Y141100D02*
X1149348D01*
X1170148Y137875D02*
X1172330Y134125D01*
Y130000*
X1174512Y137875D02*
X1172330Y134125D01*
X1176966Y137875D02*
Y130000D01*
Y137875D02*
X1180512D01*
X1176966Y134125D02*
X1179148D01*
X1176966Y130000D02*
X1180512D01*
X1186785Y136750D02*
X1186239Y137500D01*
X1185421Y137875*
X1184330*
X1183512Y137500*
X1182966Y136750*
Y136000*
X1183239Y135250*
X1183512Y134875*
X1184057Y134500*
X1185694Y133750*
X1186239Y133375*
X1186512Y133000*
X1186785Y132250*
Y131125*
X1186239Y130375*
X1185421Y130000*
X1184330*
X1183512Y130375*
X1182966Y131125*
X1223330Y136750D02*
Y130000D01*
X1220875Y133375D02*
X1225785D01*
X1233148Y139375D02*
X1228239Y127375D01*
X1235603Y133375D02*
X1240512D01*
X1244603Y137875D02*
X1243785Y137500D01*
X1243239Y136375*
X1242966Y134500*
Y133375*
X1243239Y131500*
X1243785Y130375*
X1244603Y130000*
X1245148*
X1245966Y130375*
X1246512Y131500*
X1246785Y133375*
Y134500*
X1246512Y136375*
X1245966Y137500*
X1245148Y137875*
X1244603*
X1249512Y130750D02*
X1249239Y130375D01*
X1249512Y130000*
X1249785Y130375*
X1249512Y130750*
X1253875Y137875D02*
X1253057Y137500D01*
X1252512Y136375*
X1252239Y134500*
Y133375*
X1252512Y131500*
X1253057Y130375*
X1253875Y130000*
X1254421*
X1255239Y130375*
X1255785Y131500*
X1256057Y133375*
Y134500*
X1255785Y136375*
X1255239Y137500*
X1254421Y137875*
X1253875*
X1012057Y113875D02*
X1015057D01*
X1013421Y110875*
X1014239*
X1014785Y110500*
X1015057Y110125*
X1015330Y109000*
Y108250*
X1015057Y107125*
X1014512Y106375*
X1013694Y106000*
X1012875*
X1012057Y106375*
X1011785Y106750*
X1011512Y107500*
X1018057Y106750D02*
X1017785Y106375D01*
X1018057Y106000*
X1018330Y106375*
X1018057Y106750*
X1021057Y112000D02*
Y112375D01*
X1021330Y113125*
X1021603Y113500*
X1022148Y113875*
X1023239*
X1023785Y113500*
X1024057Y113125*
X1024330Y112375*
Y111625*
X1024057Y110875*
X1023512Y109750*
X1020785Y106000*
X1024603*
X1107966Y112750D02*
X1107694Y113500D01*
X1106875Y113875*
X1106330*
X1105512Y113500*
X1104966Y112375*
X1104694Y110500*
Y108625*
X1104966Y107125*
X1105512Y106375*
X1106330Y106000*
X1106603*
X1107421Y106375*
X1107966Y107125*
X1108239Y108250*
Y108625*
X1107966Y109750*
X1107421Y110500*
X1106603Y110875*
X1106330*
X1105512Y110500*
X1104966Y109750*
X1104694Y108625*
X1137512Y112000D02*
X1149512D01*
X1143512Y106000D02*
Y118000D01*
X1146512Y121300D02*
Y115000D01*
Y121300D02*
X1148475D01*
X1149130Y121000*
X1149348Y120700*
X1149566Y120100*
Y119500*
X1149348Y118900*
X1149130Y118600*
X1148475Y118300*
X1146512D02*
X1148475D01*
X1149130Y118000*
X1149348Y117700*
X1149566Y117100*
Y116200*
X1149348Y115600*
X1149130Y115300*
X1148475Y115000*
X1146512*
X1170148Y113875D02*
X1172330Y110125D01*
Y106000*
X1174512Y113875D02*
X1172330Y110125D01*
X1176966Y113875D02*
Y106000D01*
Y113875D02*
X1180512D01*
X1176966Y110125D02*
X1179148D01*
X1176966Y106000D02*
X1180512D01*
X1186785Y112750D02*
X1186239Y113500D01*
X1185421Y113875*
X1184330*
X1183512Y113500*
X1182966Y112750*
Y112000*
X1183239Y111250*
X1183512Y110875*
X1184057Y110500*
X1185694Y109750*
X1186239Y109375*
X1186512Y109000*
X1186785Y108250*
Y107125*
X1186239Y106375*
X1185421Y106000*
X1184330*
X1183512Y106375*
X1182966Y107125*
X1223330Y112750D02*
Y106000D01*
X1220875Y109375D02*
X1225785D01*
X1233148Y115375D02*
X1228239Y103375D01*
X1235603Y109375D02*
X1240512D01*
X1244603Y113875D02*
X1243785Y113500D01*
X1243239Y112375*
X1242966Y110500*
Y109375*
X1243239Y107500*
X1243785Y106375*
X1244603Y106000*
X1245148*
X1245966Y106375*
X1246512Y107500*
X1246785Y109375*
Y110500*
X1246512Y112375*
X1245966Y113500*
X1245148Y113875*
X1244603*
X1249512Y106750D02*
X1249239Y106375D01*
X1249512Y106000*
X1249785Y106375*
X1249512Y106750*
X1253875Y113875D02*
X1253057Y113500D01*
X1252512Y112375*
X1252239Y110500*
Y109375*
X1252512Y107500*
X1253057Y106375*
X1253875Y106000*
X1254421*
X1255239Y106375*
X1255785Y107500*
X1256057Y109375*
Y110500*
X1255785Y112375*
X1255239Y113500*
X1254421Y113875*
X1253875*
X0Y0D02*
M02*
