%
T1C.01181F095S3
X02378Y014921
X024217Y012912
X024567Y011772
X024917Y012912
X025354Y015315
X026339Y011772
X026339Y012953
X026535Y015118
X026929Y015315
X027323Y015118
X027913Y013346
X027913Y011378
X028504Y015512
X029685Y012953
X029685Y011772
X029882Y01374
X029882Y015512
X030472Y013543
X030472Y012953
X030472Y011772
X03126Y012953
X03126Y011772
X032441Y014035
X032638Y011378
X032835Y015512
X033031Y012953
X034213Y012953
X034606Y011378
X04622Y012362
X046417Y012953
X065906Y013937
X065906Y015118
X07063Y015217
X07063Y010689
X07378Y01374
X07378Y014921
X07378Y012165
X07378Y010984
X074567Y012165
X074567Y01374
X074567Y014921
X074567Y010984
X075354Y012165
X075354Y010984
X076535Y010984
X076535Y012165
X078258Y014331
X080079Y010984
X081112Y014331
X081063Y017283
X078307Y017283
X068071Y016693
X065906Y01748
X055866Y018071
X051043Y017087
X050453Y017087
X049862Y017087
X049272Y017087
X044252Y015906
X044252Y017087
X043465Y015906
X043465Y017087
X042677Y015906
X042677Y017087
X04248Y017874
X04189Y015906
X04189Y017087
X041496Y017874
X041102Y015906
X041102Y017087
X040315Y017087
X040315Y015906
X029685Y015906
X029488Y016299
X029291Y016693
X025354Y016496
X02437Y017874
X02378Y01689
X023189Y017874
X020039Y01748
X018858Y01748
X017283Y01748
X016102Y01748
X014134Y02063
X014134Y019843
X014134Y018268
X014134Y019055
X015315Y02063
X015315Y019843
X015315Y018268
X015315Y019055
X016102Y018268
X016102Y019055
X016102Y019843
X016102Y02063
X017283Y018268
X017283Y019055
X017283Y019843
X017283Y02063
X018858Y02063
X018858Y019055
X018858Y018268
X018858Y019843
X020039Y019843
X020039Y019055
X020039Y02063
X020039Y018268
X023307Y018819
X024252Y020079
X025354Y020039
X026142Y019843
X026535Y020236
X029094Y019843
X029291Y019449
X032441Y019646
X036378Y019646
X039528Y020433
X039528Y019252
X042283Y020236
X042874Y020236
X048386Y019252
X048386Y020433
X051929Y020433
X051929Y019252
X05585Y020236
X05626Y020039
X05685Y020236
X057835Y020236
X059409Y019646
X059409Y018465
X065906Y018661
X068071Y019449
X07063Y020531
X079094Y019449
X080276Y019449
X091496Y025157
X081112Y024173
X080079Y020827
X078258Y024173
X076535Y022008
X076535Y020827
X075354Y020827
X075354Y022008
X074567Y020827
X074567Y024764
X074567Y023583
X074567Y022008
X07378Y023583
X07378Y024764
X07378Y022008
X07378Y020827
X07063Y025059
X06374Y024567
X06374Y025354
X062559Y024567
X062559Y025354
X061772Y025354
X061772Y024567
X061772Y023583
X060631Y023933
X060631Y023233
X060591Y024567
X060591Y025354
X059803Y025354
X058622Y025354
X057441Y025354
X057441Y024567
X05626Y025354
X05626Y024567
X055472Y024567
X055472Y025354
X055472Y023583
X054332Y023933
X054332Y023233
X054291Y024567
X054291Y025354
X053504Y025354
X052323Y025354
X051142Y024567
X051142Y025354
X050945Y022106
X049961Y024567
X049961Y025354
X049173Y021811
X049173Y023583
X049173Y025354
X049173Y024567
X048033Y023933
X048033Y023233
X047992Y025354
X047992Y024567
X047205Y025354
X046024Y025354
X044843Y024567
X044843Y025354
X043661Y024567
X043661Y025354
X042874Y024567
X042874Y025354
X042874Y023583
X041733Y023933
X041733Y023233
X041693Y024567
X041693Y025354
X040906Y025354
X039724Y025354
X038543Y024567
X038543Y025354
X037362Y025354
X037362Y024567
X036575Y023583
X036575Y025354
X036575Y024567
X036378Y020827
X035434Y023933
X035434Y023233
X035394Y025354
X035394Y024567
X034606Y025354
X033425Y025354
X032244Y022402
X032244Y024567
X032244Y025354
X031063Y025354
X031063Y024567
X030276Y023583
X030276Y025354
X030276Y024567
X029135Y023233
X029135Y023933
X029094Y025354
X029094Y024567
X028307Y025354
X027126Y025354
X025945Y025354
X025945Y024567
X025354Y02122
X024764Y024567
X024764Y025354
X02437Y021024
X023976Y025354
X023976Y024567
X023976Y023583
X023189Y021024
X022836Y023233
X022836Y023933
X022795Y025354
X022795Y024567
X022008Y025354
X020827Y025354
X020039Y021417
X019646Y024567
X019646Y025354
X018858Y021417
X018465Y024567
X018465Y025354
X017677Y025354
X017677Y024567
X017677Y023583
X017283Y021417
X016537Y023933
X016537Y023233
X016496Y024567
X016496Y025354
X016102Y021417
X015709Y025354
X015315Y021417
X014528Y025354
X014134Y021417
X010984Y027126
X012953Y027126
X014528Y026339
X014528Y02752
X015118Y027126
X019646Y026339
X019646Y02752
X020827Y026339
X020827Y02752
X021417Y027126
X025945Y026339
X025945Y02752
X027126Y026339
X027126Y02752
X027717Y027126
X032244Y026339
X032244Y02752
X033425Y02752
X033425Y026339
X034016Y027126
X038543Y026339
X038543Y02752
X039724Y02752
X039724Y026339
X040315Y027126
X044843Y026339
X044843Y02752
X046024Y026339
X046024Y02752
X046614Y027126
X051142Y026339
X051142Y02752
X052323Y026339
X052323Y02752
X052913Y027126
X057441Y026339
X057441Y02752
X058622Y026339
X058622Y02752
X059213Y027126
X06374Y02752
X06374Y026339
X065709Y027323
X068071Y026535
X078307Y026929
X081063Y026929
X091496Y026339
X091496Y029488
X091496Y028307
X080276Y028898
X079094Y028898
X068071Y029291
X065709Y028504
X06374Y028701
X06374Y029882
X061575Y028602
X061575Y029587
X059409Y028602
X058622Y029882
X058622Y028701
X057441Y029882
X057441Y028701
X055276Y028602
X055276Y029587
X05311Y028602
X052323Y029882
X052323Y028701
X051142Y028701
X051142Y029882
X048976Y028602
X048976Y029587
X046811Y028602
X046024Y028701
X046024Y029882
X044843Y028701
X044843Y029882
X042677Y028602
X042677Y029587
X040512Y028602
X039724Y028701
X039724Y029882
X038543Y028701
X038543Y029882
X036378Y028602
X036378Y029587
X034213Y028602
X033425Y029882
X033425Y028701
X032244Y029882
X032244Y028701
X030079Y028602
X030079Y029587
X027913Y028602
X027126Y028701
X027126Y029882
X025945Y029882
X025945Y028701
X02378Y029587
X02378Y028602
X021614Y028602
X020827Y029882
X020827Y028701
X019646Y028701
X019646Y029882
X01748Y029587
X01748Y028602
X015315Y028602
X014528Y029882
X014528Y028701
X012559Y028701
X011378Y028701
X011165Y029966
X011165Y031766
X011165Y030866
X011378Y033031
X012559Y033031
X01364Y030866
X014528Y030866
X015315Y032244
X015709Y030866
X016496Y030866
X017677Y030866
X018465Y030866
X019646Y030866
X020827Y030866
X021614Y032244
X022008Y030866
X022795Y030866
X023976Y030866
X024764Y030866
X025945Y030866
X027126Y030866
X027913Y032244
X028307Y030866
X029094Y030866
X030276Y030866
X031063Y030866
X032244Y030866
X033425Y030866
X034213Y032244
X034606Y030866
X035394Y030866
X036575Y030866
X037362Y030866
X038543Y030866
X039724Y030866
X040512Y032244
X040906Y030866
X041693Y030866
X042874Y030866
X043661Y030866
X044843Y030866
X046024Y030866
X046811Y032244
X047205Y030866
X047992Y030866
X049173Y030866
X049961Y030866
X051142Y030866
X052323Y030866
X05311Y032244
X053504Y030866
X054291Y030866
X055472Y030866
X05626Y030866
X057441Y030866
X058622Y030866
X059409Y032244
X059803Y030866
X060591Y030866
X061772Y030866
X062559Y030866
X06374Y030866
X066102Y03126
X070039Y031161
X073386Y03126
X073386Y032441
X075748Y03126
X075748Y032441
X07752Y032244
X080276Y032244
X082244Y032638
X083425Y032933
X091496Y031457
X091496Y032638
X091496Y034606
X083425Y033524
X082244Y033819
X078996Y034606
X078504Y035197
X075748Y033425
X075748Y034606
X074567Y033425
X074567Y034606
X073386Y033425
X073386Y034606
X067283Y034606
X066102Y034016
X06374Y033425
X06374Y034606
X059409Y033425
X059409Y034902
X059409Y034311
X058622Y034902
X058622Y034311
X057441Y033425
X057441Y034606
X05311Y034311
X05311Y033425
X05311Y034902
X052323Y034902
X052323Y034311
X051142Y034606
X051142Y033425
X046811Y033425
X046811Y034311
X046811Y034902
X046024Y034902
X046024Y034311
X044843Y033425
X044843Y034606
X040512Y034311
X040512Y034902
X040512Y033425
X039724Y034902
X039724Y034311
X038543Y033425
X038543Y034606
X034213Y034902
X034213Y034311
X034213Y033425
X033425Y034902
X033425Y034311
X032244Y034606
X032244Y033425
X027913Y034311
X027913Y034902
X027913Y033425
X027126Y034311
X027126Y034902
X025945Y033425
X025945Y034606
X021614Y033425
X021614Y034902
X021614Y034311
X020827Y034902
X020827Y034311
X019646Y034606
X019646Y033425
X015315Y033425
X015315Y034902
X015315Y034311
X014528Y034902
X014528Y034311
X012953Y034606
X010984Y034606
X067283Y035787
X070039Y035689
X07378Y038642
X074764Y038642
X075748Y038642
X07747Y037953
X080325Y037953
X091496Y035787
T2C.0315F197S55
X011181Y017874
X011969Y017874
X036378Y017874
X062756Y013543
X062756Y015118
X062756Y01748
X062756Y016693
X062756Y015906
X062756Y014331
X063543Y015118
X063543Y014331
X063543Y013543
X063543Y01748
X063543Y016693
X063543Y015906
X065906Y016299
X092677Y015512
X092677Y017874
X092677Y017087
X092677Y016299
X093465Y017087
X093465Y017874
X093465Y016299
X093465Y015512
X093465Y020236
X093465Y019449
X093465Y018661
X093465Y021024
X092677Y020236
X092677Y019449
X092677Y018661
X092677Y021024
X063543Y018268
X063543Y019055
X062756Y018268
X062756Y019055
X011969Y020236
X011969Y019449
X011969Y021024
X011969Y018661
X011181Y018661
X011181Y020236
X011181Y021024
X011181Y019449
X013543Y033031
X018661Y023583
X024961Y023583
X03126Y023583
X037559Y023583
X043858Y023583
X050157Y023583
X056457Y023583
X062756Y023583
X065709Y025551
X083425Y036969
X066102Y035787
T3C.03543F197S55
X018661Y010787
X018661Y013787
X019661Y010787
X019661Y013787
X020661Y010787
X020661Y013787
X021661Y010787
X021661Y013787
X03874Y010787
X039724Y010787
X040709Y010787
X043858Y010787
X044843Y010787
X045827Y010787
X049949Y014661
X05035Y013661
X050752Y014661
X051154Y013661
X055461Y014661
X055862Y013661
X056264Y014661
X056665Y013661
X065906Y011575
X065906Y012362
X093465Y025748
X093465Y028898
X092677Y025748
X092677Y028898
X021417Y021417
X021417Y020417
X016874Y032441
X016874Y033441
X016874Y034441
X017874Y032441
X017874Y033441
X017874Y034441
X023173Y032441
X023173Y033441
X023173Y034441
X024173Y033441
X024173Y034441
X024173Y032441
X029472Y032441
X029472Y033441
X029472Y034441
X030472Y032441
X030472Y033441
X030472Y034441
X035772Y032441
X035772Y033441
X035772Y034441
X036772Y032441
X036772Y033441
X036772Y034441
X042071Y032441
X042071Y033441
X042071Y034441
X043071Y032441
X043071Y033441
X043071Y034441
X04837Y034441
X04837Y033441
X04837Y032441
X04937Y034441
X04937Y032441
X04937Y033441
X054669Y034441
X054669Y033441
X054669Y032441
X055669Y032441
X055669Y034441
X055669Y033441
X060969Y033441
X060969Y032441
X060969Y034441
X061969Y033441
X061969Y034441
X061969Y032441
X083228Y032047
X083622Y034409
X092677Y032047
X092677Y035197
X093465Y035197
X093465Y032047
T4C.05118F107S55
X015512Y036772
X016893Y036772
X018268Y036772
X021811Y036772
X023192Y036772
X024567Y036772
X02811Y036772
X029491Y036772
X030866Y036772
X034409Y036772
X03579Y036772
X037165Y036772
X040709Y036772
X04209Y036772
X043465Y036772
X047008Y036772
X048389Y036772
X049764Y036772
X053307Y036772
X054688Y036772
X056063Y036772
X059606Y036772
X060987Y036772
X062362Y036772
T5C.05906F107S55
X086378Y032244
X086378Y034213
T6C.07087F081S55
X085984Y019646
X085984Y027913
T7C.09843F066S55
X048583Y012756
X05252Y012756
X054094Y012756
X058031Y012756
T8C.12598F035S794
X011575Y011575
X011575Y037953
X087165Y011575
X087165Y037953
X091693Y011181
X091693Y038346
M30
