%
T1C.01181F095S3
X051673Y-037441
X051673Y-03498
X051714Y-035811
X051714Y-036511
X052854Y-03498
X052854Y-037441
X052854Y-036161
X054429Y-038524
X054429Y-035768
X054429Y-036555
X054429Y-033799
X064331Y-031043
X064331Y-031634
X063642Y-031043
X063642Y-031634
X063642Y-030256
X059803Y-030157
X059803Y-031339
X057441Y-031043
X057441Y-031634
X056752Y-031043
X056752Y-031634
X056752Y-030256
X052913Y-030157
X052913Y-031339
X050748Y-031043
X050748Y-031634
X050059Y-031043
X050059Y-031634
X050059Y-030256
X04622Y-030157
X04622Y-031339
X043858Y-031043
X043858Y-031634
X043169Y-031043
X043169Y-031634
X043169Y-030256
X039331Y-030157
X039331Y-031339
X036969Y-031634
X036969Y-031043
X03628Y-031043
X03628Y-030256
X03628Y-031634
X032441Y-030157
X032441Y-031339
X030079Y-031043
X030079Y-031634
X02939Y-030256
X02939Y-031043
X02939Y-031634
X025551Y-030157
X025551Y-031339
X023189Y-031043
X023189Y-031634
X0225Y-030256
X0225Y-031634
X0225Y-031043
X018661Y-030157
X018661Y-031339
X016299Y-031043
X016299Y-031634
X01561Y-031043
X01561Y-031634
X01561Y-030256
X011772Y-031339
X011772Y-030157
X011378Y-027106
X012559Y-027106
X013346Y-027106
X014528Y-027106
X015315Y-027106
X01561Y-029075
X016496Y-027106
X018268Y-027106
X019449Y-027106
X020236Y-027106
X021417Y-027106
X022205Y-027106
X0225Y-029075
X023386Y-027106
X025157Y-027106
X026339Y-027106
X027126Y-027106
X028307Y-027106
X029094Y-027106
X02939Y-029075
X030276Y-027106
X032047Y-027106
X033228Y-027106
X034016Y-027106
X035197Y-027106
X035984Y-027106
X03628Y-029075
X037165Y-027106
X038937Y-027106
X040118Y-027106
X040906Y-027106
X042087Y-027106
X042874Y-027106
X043169Y-029075
X044055Y-027106
X045827Y-027106
X047008Y-027106
X047795Y-027106
X048976Y-027106
X049764Y-027106
X050059Y-029075
X050945Y-027106
X05252Y-027106
X053701Y-027106
X054488Y-027106
X055669Y-027106
X056457Y-027106
X056752Y-029075
X057638Y-027106
X059409Y-027106
X060591Y-027106
X061378Y-027106
X062559Y-027106
X063346Y-027106
X063642Y-029075
X064528Y-027106
X064429Y-026122
X064429Y-024941
X059409Y-024941
X059409Y-026122
X057539Y-026122
X057539Y-024941
X05252Y-024941
X05252Y-026122
X050846Y-026122
X050846Y-024941
X045827Y-024941
X045827Y-026122
X043957Y-026122
X043957Y-024941
X038937Y-024941
X038937Y-026122
X037067Y-026122
X037067Y-024941
X032047Y-024941
X032047Y-026122
X030177Y-026122
X030177Y-024941
X025157Y-024941
X025157Y-026122
X023287Y-026122
X023287Y-024941
X018268Y-024941
X018268Y-026122
X016398Y-026122
X016398Y-024941
X011378Y-024941
X011378Y-026122
X011378Y-023071
X011378Y-024252
X011378Y-021988
X012559Y-021988
X013346Y-021988
X014528Y-021988
X015315Y-021988
X016398Y-022972
X016398Y-024154
X016496Y-021988
X018268Y-021988
X018268Y-023071
X018268Y-024252
X019449Y-021988
X020236Y-021988
X021417Y-021988
X022205Y-021988
X023287Y-022972
X023287Y-024154
X023386Y-021988
X025157Y-021988
X025157Y-023071
X025157Y-024252
X026339Y-021988
X027126Y-021988
X028307Y-021988
X029094Y-021988
X030177Y-022972
X030177Y-024154
X030276Y-021988
X032047Y-023071
X032047Y-024252
X032047Y-021988
X033228Y-021988
X034016Y-021988
X035197Y-021988
X035984Y-021988
X037067Y-022972
X037067Y-024154
X037165Y-021988
X038937Y-024252
X038937Y-023071
X038937Y-021988
X040118Y-021988
X040906Y-021988
X042087Y-021988
X042874Y-021988
X043957Y-022972
X043957Y-024154
X044055Y-021988
X045827Y-023071
X045827Y-024252
X045827Y-021988
X047008Y-021988
X047795Y-021988
X048976Y-021988
X049764Y-021988
X050846Y-022972
X050846Y-024154
X050945Y-021988
X05252Y-023071
X05252Y-024252
X05252Y-021988
X053701Y-021988
X054488Y-021988
X055669Y-021988
X056457Y-021988
X057539Y-024154
X057539Y-022972
X057638Y-021988
X059409Y-021988
X059409Y-023071
X059409Y-024252
X060591Y-021988
X061378Y-021988
X062559Y-021988
X063346Y-021988
X064429Y-024154
X064429Y-022972
X064528Y-021988
X062559Y-021201
X062519Y-020468
X062519Y-019768
X061378Y-020118
X061378Y-021201
X060591Y-021201
X059409Y-021201
X055669Y-021201
X055629Y-019768
X055629Y-020468
X054488Y-021201
X054488Y-020118
X053701Y-021201
X05252Y-021201
X048976Y-021201
X048936Y-020468
X048936Y-019768
X047795Y-020118
X047795Y-021201
X047008Y-021201
X045827Y-021201
X042087Y-021201
X042046Y-020468
X042046Y-019768
X040906Y-021201
X040906Y-020118
X040118Y-021201
X038937Y-021201
X035197Y-021201
X035156Y-020468
X035156Y-019768
X034016Y-021201
X034016Y-020118
X033228Y-021201
X032047Y-021201
X028307Y-021201
X028267Y-020468
X028267Y-019768
X027126Y-020118
X027126Y-021201
X026339Y-021201
X025157Y-021201
X021417Y-021201
X021377Y-020468
X021377Y-019768
X020236Y-020118
X020236Y-021201
X019449Y-021201
X018268Y-021201
X014528Y-021201
X014487Y-020468
X014487Y-019768
X013346Y-021201
X013346Y-020118
X012559Y-021201
X011378Y-021201
X011772Y-017362
X01561Y-017067
X01561Y-017657
X016299Y-017067
X016299Y-017657
X018563Y-017362
X0225Y-017067
X0225Y-017657
X023189Y-017067
X023189Y-017657
X025551Y-017362
X02939Y-017067
X02939Y-017657
X030079Y-017067
X030079Y-017657
X032441Y-017362
X03628Y-017067
X03628Y-017657
X036969Y-017067
X036969Y-017657
X039331Y-017362
X043169Y-017067
X043169Y-017657
X043858Y-017067
X043858Y-017657
X04622Y-017362
X050059Y-017067
X050059Y-017657
X050748Y-017657
X050748Y-017067
X052913Y-017362
X056752Y-017657
X056752Y-017067
X057441Y-017067
X057441Y-017657
X059803Y-017362
X063642Y-017067
X063642Y-017657
X064331Y-017067
X064331Y-017657
X063642Y-01628
X063642Y-015098
X059803Y-016181
X056752Y-015098
X056752Y-01628
X052913Y-016181
X050059Y-01628
X050059Y-015098
X04622Y-016181
X043169Y-01628
X043169Y-015098
X039331Y-016181
X03628Y-01628
X03628Y-015098
X032441Y-016181
X02939Y-01628
X02939Y-015098
X025551Y-016181
X0225Y-01628
X0225Y-015098
X018563Y-016181
X01561Y-01628
X01561Y-015098
X011772Y-016181
X011378Y-012146
X011378Y-01313
X012559Y-01313
X013346Y-01313
X014528Y-01313
X015315Y-01313
X016398Y-012146
X016496Y-01313
X018268Y-012146
X018268Y-01313
X019449Y-01313
X020236Y-01313
X021417Y-01313
X022205Y-01313
X023287Y-012146
X023386Y-01313
X025157Y-012146
X025157Y-01313
X026339Y-01313
X027126Y-01313
X028307Y-01313
X029094Y-01313
X030177Y-012146
X030276Y-01313
X032047Y-01313
X032047Y-012146
X033228Y-01313
X034016Y-01313
X035197Y-01313
X035984Y-01313
X037067Y-012146
X037165Y-01313
X038937Y-01313
X038937Y-012146
X040118Y-01313
X040906Y-01313
X042087Y-01313
X042874Y-01313
X043957Y-012146
X044055Y-01313
X045827Y-01313
X045827Y-012146
X047008Y-01313
X047795Y-01313
X048976Y-01313
X049764Y-01313
X050846Y-012146
X050945Y-01313
X05252Y-01313
X05252Y-012146
X053701Y-01313
X054488Y-01313
X055669Y-01313
X056457Y-01313
X057539Y-012146
X057638Y-01313
X059409Y-01313
X059409Y-012146
X060591Y-01313
X061378Y-01313
X062559Y-01313
X063346Y-01313
X064429Y-012146
X064528Y-01313
X064429Y-010965
X064429Y-010177
X059409Y-010965
X059409Y-010276
X057539Y-010965
X057539Y-010177
X05252Y-010965
X05252Y-010276
X050846Y-010965
X050846Y-010177
X045827Y-010965
X045827Y-010276
X043957Y-010965
X043957Y-010177
X038937Y-010276
X038937Y-010965
X037067Y-010965
X037067Y-010177
X032047Y-010965
X032047Y-010276
X030177Y-010965
X030177Y-010177
X025157Y-010965
X025157Y-010276
X023287Y-010177
X023287Y-010965
X018268Y-010276
X018268Y-010965
X016398Y-010965
X016398Y-010177
X011378Y-010965
X011378Y-010276
X011378Y-007224
X011378Y-008012
X011378Y-009094
X012559Y-007224
X012559Y-008012
X013346Y-008012
X013346Y-007224
X014528Y-008012
X014528Y-007224
X015315Y-008012
X016398Y-008996
X016496Y-008012
X018268Y-009094
X018268Y-008012
X018268Y-007224
X019449Y-008012
X019449Y-007224
X020236Y-007224
X020236Y-008012
X021417Y-007224
X021417Y-008012
X022205Y-008012
X023287Y-008996
X023386Y-008012
X025157Y-007224
X025157Y-008012
X025157Y-009094
X026339Y-007224
X026339Y-008012
X027126Y-008012
X027126Y-007224
X028307Y-007224
X028307Y-008012
X029094Y-008012
X030177Y-008996
X030276Y-008012
X032047Y-007224
X032047Y-008012
X032047Y-009094
X033228Y-007224
X033228Y-008012
X034016Y-007224
X034016Y-008012
X035197Y-008012
X035197Y-007224
X035984Y-008012
X037067Y-008996
X037165Y-008012
X038937Y-009094
X038937Y-007224
X038937Y-008012
X040118Y-007224
X040118Y-008012
X040906Y-008012
X040906Y-007224
X042087Y-008012
X042087Y-007224
X042874Y-008012
X043957Y-008996
X044055Y-008012
X045827Y-007224
X045827Y-008012
X045827Y-009094
X047008Y-007224
X047008Y-008012
X047795Y-007224
X047795Y-008012
X048976Y-007224
X048976Y-008012
X049764Y-008012
X050846Y-008996
X050945Y-008012
X05252Y-009094
X05252Y-008012
X05252Y-007224
X053701Y-008012
X053701Y-007224
X054488Y-008012
X054488Y-007224
X055669Y-007224
X055669Y-008012
X056457Y-008012
X057539Y-008996
X057638Y-008012
X059409Y-009094
X059409Y-008012
X059409Y-007224
X060591Y-008012
X060591Y-007224
X061378Y-007224
X061378Y-008012
X062559Y-007224
X062559Y-008012
X063346Y-008012
X064429Y-008996
X064528Y-008012
X062519Y-006492
X062519Y-005792
X061378Y-006142
X055629Y-006492
X055629Y-005792
X054488Y-006142
X048936Y-005792
X048936Y-006492
X047795Y-006142
X042046Y-006492
X042046Y-005792
X040906Y-006142
X035156Y-005792
X035156Y-006492
X034016Y-006142
X028267Y-005792
X028267Y-006492
X027126Y-006142
X021377Y-005792
X021377Y-006492
X020236Y-006142
X014487Y-005792
X014487Y-006492
X013346Y-006142
X04065Y-003976
X04065Y000551
X043406Y000354
X043406Y-000827
X043701Y-002008
X043701Y-003189
X04439Y000354
X044587Y-003189
X044587Y-002008
X045571Y000354
X049213Y-000876
X049213Y-00373
X051181Y-002598
X051181Y-001417
X052165Y-000728
X052362Y-003287
X054134Y-000728
X055118Y-003287
X056102Y-003287
X057382Y-00122
X058563Y-00122
X058858Y-003287
X060335Y-002697
X060335Y000256
X061516Y000256
X063583Y000256
X064764Y000256
X064862Y-002697
X064764Y001142
X063583Y001142
X055709Y005423
X054035Y000846
X053754Y002209
X052854Y002209
X052854Y000846
X052854Y004684
X052067Y005571
X051954Y002209
X04872Y005669
X047539Y005669
X041634Y005669
X041634Y002913
X052067Y008327
X054035Y006063
X054035Y007244
X055709Y008278
X057874Y007933
X057874Y00872
X059055Y007933
X059055Y00872
X060138Y00872
X060138Y007539
T2C.012F095S3
X013445Y-026024
X013445Y-025039
X01561Y-025039
X020335Y-026024
X020335Y-025039
X0225Y-025039
X027224Y-026024
X027224Y-025039
X02939Y-025039
X034114Y-026024
X034114Y-025039
X03628Y-025039
X041004Y-026024
X041004Y-025039
X043169Y-025039
X047894Y-026024
X047894Y-025039
X050059Y-025039
X054587Y-026024
X054587Y-025039
X056752Y-025039
X061476Y-026024
X061476Y-025039
X063642Y-025039
X061476Y-012047
X054587Y-012047
X047894Y-012047
X041004Y-012047
X034114Y-012047
X027224Y-012047
X020335Y-012047
X013445Y-012047
X013445Y-011063
X01561Y-011063
X020335Y-011063
X0225Y-011063
X027224Y-011063
X02939Y-011063
X034114Y-011063
X03628Y-011063
X041004Y-011063
X043169Y-011063
X047894Y-011063
X050059Y-011063
X054587Y-011063
X056752Y-011063
X061476Y-011063
X063642Y-011063
X061083Y-000827
X052717Y-001713
X052421Y-001713
X032047Y-001516
X031555Y-001516
X029291Y-002598
X029291Y-002992
X028898Y-002598
X028898Y-002992
X026634Y-000433
X026142Y-001516
X02378Y-003189
X02378Y-002795
X023386Y-002795
X023386Y-003189
X021319Y-001516
X020827Y-000433
X016496Y-001516
X016004Y-000433
X015512Y000748
X016988Y001831
X01748Y001831
X017972Y000748
X018465Y000748
X020335Y000748
X021811Y000748
X022402Y001831
X022894Y001831
X023386Y000748
X02565Y000748
X027126Y000748
X027618Y000748
X028209Y001831
X028504Y004882
X028701Y000748
X030276Y00439
X031063Y000748
X031949Y004291
X032539Y000748
X033031Y000748
X033524Y001831
X034016Y000748
X034606Y005472
X035591Y004882
X033524Y006358
X032638Y005768
X031555Y006654
T3C.0315F197S55
X012461Y-020118
X015413Y-021102
X01935Y-020118
X022303Y-021102
X02624Y-020118
X029193Y-021102
X03313Y-020118
X036083Y-021102
X04002Y-020118
X042972Y-021102
X046909Y-020118
X049862Y-021102
X053602Y-020118
X056555Y-021102
X060492Y-020118
X063445Y-021102
X063445Y-007126
X056555Y-007126
X049862Y-007126
X042972Y-007126
X036083Y-007126
X029193Y-007126
X022303Y-007126
X015413Y-007126
X012461Y-006142
X01935Y-006142
X02624Y-006142
X03313Y-006142
X04002Y-006142
X046909Y-006142
X053602Y-006142
X056201Y-00122
X060492Y-006142
X051575Y000846
X041634Y006654
T4C.03543F197S55
X01315Y-030173
X01315Y-031173
X01415Y-030173
X01415Y-031173
X020039Y-030173
X020039Y-031173
X021039Y-030173
X021039Y-031173
X026929Y-030173
X026929Y-031173
X027929Y-030173
X027929Y-031173
X033819Y-030173
X033819Y-031173
X034819Y-030173
X034819Y-031173
X040709Y-030173
X040709Y-031173
X041709Y-030173
X041709Y-031173
X047598Y-030173
X047598Y-031173
X048598Y-030173
X048598Y-031173
X054291Y-030173
X054291Y-031173
X055291Y-030173
X055291Y-031173
X061181Y-030173
X061181Y-031173
X062181Y-030173
X062181Y-031173
X062181Y-029173
X061181Y-029173
X055291Y-029173
X054291Y-029173
X048598Y-029173
X047598Y-029173
X041709Y-029173
X040709Y-029173
X034819Y-029173
X033819Y-029173
X027929Y-029173
X026929Y-029173
X021039Y-029173
X020039Y-029173
X01415Y-029173
X01315Y-029173
X01315Y-017197
X01415Y-017197
X020039Y-017197
X021039Y-017197
X026929Y-017197
X027929Y-017197
X033819Y-017197
X034819Y-017197
X040709Y-017197
X041709Y-017197
X047598Y-017197
X048598Y-017197
X054291Y-017197
X055291Y-017197
X061181Y-017197
X062181Y-017197
X062181Y-015197
X062181Y-016197
X061181Y-016197
X061181Y-015197
X055291Y-016197
X055291Y-015197
X054291Y-016197
X054291Y-015197
X048598Y-015197
X048598Y-016197
X047598Y-015197
X047598Y-016197
X041709Y-015197
X041709Y-016197
X040709Y-015197
X040709Y-016197
X034819Y-015197
X034819Y-016197
X033819Y-015197
X033819Y-016197
X027929Y-015197
X027929Y-016197
X026929Y-016197
X026929Y-015197
X021039Y-016197
X021039Y-015197
X020039Y-016197
X020039Y-015197
X01415Y-016197
X01415Y-015197
X01315Y-015197
X01315Y-016197
T5C.04F139S55
X026071Y-038319
X026071Y-039319
X027071Y-038319
X027071Y-039319
X028071Y-038319
X028071Y-039319
X029071Y-038319
X029071Y-039319
X030071Y-038319
X030071Y-039319
X031071Y-038319
X031071Y-039319
X032071Y-038319
X032071Y-039319
X033071Y-038319
X033071Y-039319
X034071Y-038319
X034071Y-039319
X035071Y-038319
X035071Y-039319
X036071Y-038319
X036071Y-039319
X037071Y-038319
X037071Y-039319
X038071Y-038319
X038071Y-039319
X039071Y-038319
X039071Y-039319
X040071Y-038319
X040071Y-039319
X041071Y-038319
X041071Y-039319
X042071Y-038319
X042071Y-039319
X043071Y-038319
X043071Y-039319
X044071Y-038319
X044071Y-039319
X045071Y-038319
X045071Y-039319
X046071Y-038319
X046071Y-039319
X047071Y-038319
X047071Y-039319
X048071Y-038319
X048071Y-039319
X049071Y-038319
X049071Y-039319
X050071Y-038319
X050071Y-039319
X050071Y009319
X050071Y008319
X049071Y009319
X049071Y008319
X048071Y009319
X048071Y008319
X047071Y009319
X047071Y008319
X046071Y009319
X046071Y008319
X045071Y009319
X045071Y008319
X044071Y009319
X044071Y008319
X043071Y009319
X043071Y008319
X042071Y009319
X042071Y008319
X041071Y009319
X041071Y008319
X040071Y009319
X040071Y008319
X039071Y009319
X039071Y008319
X038071Y009319
X038071Y008319
X037071Y009319
X037071Y008319
X036071Y009319
X036071Y008319
X035071Y009319
X035071Y008319
X034071Y009319
X034071Y008319
X033071Y009319
X033071Y008319
X032071Y009319
X032071Y008319
X031071Y009319
X031071Y008319
X030071Y009319
X030071Y008319
X029071Y009319
X029071Y008319
X028071Y009319
X028071Y008319
X027071Y009319
X027071Y008319
X026071Y009319
X026071Y008319
T6C.12598F035S794
X011575Y-038425
X064567Y-038425
X064567Y008425
X011575Y008425
M30
