*
*
G04 PADS 9.4.1 Build Number: 494907 generated Gerber (RS-274-X) file*
G04 PC Version=2.1*
*
%IN "CECS_BASEBOARD_NEW008.p"*%
*
%MOIN*%
*
%FSLAX35Y35*%
*
*
*
*
G04 PC Standard Apertures*
*
*
G04 Thermal Relief Aperture macro.*
%AMTER*
1,1,$1,0,0*
1,0,$1-$2,0,0*
21,0,$3,$4,0,0,45*
21,0,$3,$4,0,0,135*
%
*
*
G04 Annular Aperture macro.*
%AMANN*
1,1,$1,0,0*
1,0,$2,0,0*
%
*
*
G04 Odd Aperture macro.*
%AMODD*
1,1,$1,0,0*
1,0,$1-0.005,0,0*
%
*
*
G04 PC Custom Aperture Macros*
*
*
*
*
*
*
G04 PC Aperture Table*
*
%ADD010C,0.001*%
%ADD031C,0.01*%
*
*
*
*
G04 PC Circuitry*
G04 Layer Name CECS_BASEBOARD_NEW008.p - circuitry*
%LPD*%
*
*
G04 PC Custom Flashes*
G04 Layer Name CECS_BASEBOARD_NEW008.p - flashes*
%LPD*%
*
*
G04 PC Circuitry*
G04 Layer Name CECS_BASEBOARD_NEW008.p - circuitry*
%LPD*%
*
G54D10*
G01X100000Y100000D02*
X100003D01*
X100000Y493701D02*
X100003D01*
X887402Y88189D02*
X887404D01*
X100000Y100000D02*
X100003D01*
X887402D02*
X887404D01*
X985827D02*
X985829D01*
G54D31*
X367654Y275197D02*
X375654D01*
X371654Y271197D02*
Y279197D01*
X367654Y267323D02*
X375654D01*
X371654Y263323D02*
Y271323D01*
X359780Y275197D02*
X367780D01*
X363780Y271197D02*
Y279197D01*
X359780Y267323D02*
X367780D01*
X363780Y263323D02*
Y271323D01*
X351906Y275197D02*
X359906D01*
X355906Y271197D02*
Y279197D01*
X351906Y267323D02*
X359906D01*
X355906Y263323D02*
Y271323D01*
X344031Y275197D02*
X352031D01*
X348031Y271197D02*
Y279197D01*
X344031Y267323D02*
X352031D01*
X348031Y263323D02*
Y271323D01*
X336157Y275197D02*
X344157D01*
X340157Y271197D02*
Y279197D01*
X336157Y267323D02*
X344157D01*
X340157Y263323D02*
Y271323D01*
X328283Y275197D02*
X336283D01*
X332283Y271197D02*
Y279197D01*
X328283Y267323D02*
X336283D01*
X332283Y263323D02*
Y271323D01*
X320409Y275197D02*
X328409D01*
X324409Y271197D02*
Y279197D01*
X320409Y267323D02*
X328409D01*
X324409Y263323D02*
Y271323D01*
X312535Y275197D02*
X320535D01*
X316535Y271197D02*
Y279197D01*
X312535Y267323D02*
X320535D01*
X316535Y263323D02*
Y271323D01*
X304661Y275197D02*
X312661D01*
X308661Y271197D02*
Y279197D01*
X304661Y267323D02*
X312661D01*
X308661Y263323D02*
Y271323D01*
X296787Y275197D02*
X304787D01*
X300787Y271197D02*
Y279197D01*
X296787Y267323D02*
X304787D01*
X300787Y263323D02*
Y271323D01*
X288913Y275197D02*
X296913D01*
X292913Y271197D02*
Y279197D01*
X288913Y267323D02*
X296913D01*
X292913Y263323D02*
Y271323D01*
X281039Y275197D02*
X289039D01*
X285039Y271197D02*
Y279197D01*
X281039Y267323D02*
X289039D01*
X285039Y263323D02*
Y271323D01*
X273165Y275197D02*
X281165D01*
X277165Y271197D02*
Y279197D01*
X273165Y267323D02*
X281165D01*
X277165Y263323D02*
Y271323D01*
X265291Y275197D02*
X273291D01*
X269291Y271197D02*
Y279197D01*
X265291Y267323D02*
X273291D01*
X269291Y263323D02*
Y271323D01*
X257417Y275197D02*
X265417D01*
X261417Y271197D02*
Y279197D01*
X257417Y267323D02*
X265417D01*
X261417Y263323D02*
Y271323D01*
X249543Y275197D02*
X257543D01*
X253543Y271197D02*
Y279197D01*
X249543Y267323D02*
X257543D01*
X253543Y263323D02*
Y271323D01*
X241669Y275197D02*
X249669D01*
X245669Y271197D02*
Y279197D01*
X241669Y267323D02*
X249669D01*
X245669Y263323D02*
Y271323D01*
X233795Y275197D02*
X241795D01*
X237795Y271197D02*
Y279197D01*
X233795Y267323D02*
X241795D01*
X237795Y263323D02*
Y271323D01*
X225921Y275197D02*
X233921D01*
X229921Y271197D02*
Y279197D01*
X225921Y267323D02*
X233921D01*
X229921Y263323D02*
Y271323D01*
X218047Y275197D02*
X226047D01*
X222047Y271197D02*
Y279197D01*
X218047Y267323D02*
X226047D01*
X222047Y263323D02*
Y271323D01*
X210173Y275197D02*
X218173D01*
X214173Y271197D02*
Y279197D01*
X210173Y267323D02*
X218173D01*
X214173Y263323D02*
Y271323D01*
X202299Y275197D02*
X210299D01*
X206299Y271197D02*
Y279197D01*
X202299Y267323D02*
X210299D01*
X206299Y263323D02*
Y271323D01*
X194425Y275197D02*
X202425D01*
X198425Y271197D02*
Y279197D01*
X194425Y267323D02*
X202425D01*
X198425Y263323D02*
Y271323D01*
X186551Y275197D02*
X194551D01*
X190551Y271197D02*
Y279197D01*
X186551Y267323D02*
X194551D01*
X190551Y263323D02*
Y271323D01*
X186551Y475984D02*
X194551D01*
X190551Y471984D02*
Y479984D01*
X186551Y483858D02*
X194551D01*
X190551Y479858D02*
Y487858D01*
X194425Y475984D02*
X202425D01*
X198425Y471984D02*
Y479984D01*
X194425Y483858D02*
X202425D01*
X198425Y479858D02*
Y487858D01*
X202299Y475984D02*
X210299D01*
X206299Y471984D02*
Y479984D01*
X202299Y483858D02*
X210299D01*
X206299Y479858D02*
Y487858D01*
X210173Y475984D02*
X218173D01*
X214173Y471984D02*
Y479984D01*
X210173Y483858D02*
X218173D01*
X214173Y479858D02*
Y487858D01*
X218047Y475984D02*
X226047D01*
X222047Y471984D02*
Y479984D01*
X218047Y483858D02*
X226047D01*
X222047Y479858D02*
Y487858D01*
X225921Y475984D02*
X233921D01*
X229921Y471984D02*
Y479984D01*
X225921Y483858D02*
X233921D01*
X229921Y479858D02*
Y487858D01*
X233795Y475984D02*
X241795D01*
X237795Y471984D02*
Y479984D01*
X233795Y483858D02*
X241795D01*
X237795Y479858D02*
Y487858D01*
X241669Y475984D02*
X249669D01*
X245669Y471984D02*
Y479984D01*
X241669Y483858D02*
X249669D01*
X245669Y479858D02*
Y487858D01*
X249543Y475984D02*
X257543D01*
X253543Y471984D02*
Y479984D01*
X249543Y483858D02*
X257543D01*
X253543Y479858D02*
Y487858D01*
X257417Y475984D02*
X265417D01*
X261417Y471984D02*
Y479984D01*
X257417Y483858D02*
X265417D01*
X261417Y479858D02*
Y487858D01*
X265291Y475984D02*
X273291D01*
X269291Y471984D02*
Y479984D01*
X265291Y483858D02*
X273291D01*
X269291Y479858D02*
Y487858D01*
X273165Y475984D02*
X281165D01*
X277165Y471984D02*
Y479984D01*
X273165Y483858D02*
X281165D01*
X277165Y479858D02*
Y487858D01*
X281039Y475984D02*
X289039D01*
X285039Y471984D02*
Y479984D01*
X281039Y483858D02*
X289039D01*
X285039Y479858D02*
Y487858D01*
X288913Y475984D02*
X296913D01*
X292913Y471984D02*
Y479984D01*
X288913Y483858D02*
X296913D01*
X292913Y479858D02*
Y487858D01*
X296787Y475984D02*
X304787D01*
X300787Y471984D02*
Y479984D01*
X296787Y483858D02*
X304787D01*
X300787Y479858D02*
Y487858D01*
X304661Y475984D02*
X312661D01*
X308661Y471984D02*
Y479984D01*
X304661Y483858D02*
X312661D01*
X308661Y479858D02*
Y487858D01*
X312535Y475984D02*
X320535D01*
X316535Y471984D02*
Y479984D01*
X312535Y483858D02*
X320535D01*
X316535Y479858D02*
Y487858D01*
X320409Y475984D02*
X328409D01*
X324409Y471984D02*
Y479984D01*
X320409Y483858D02*
X328409D01*
X324409Y479858D02*
Y487858D01*
X328283Y475984D02*
X336283D01*
X332283Y471984D02*
Y479984D01*
X328283Y483858D02*
X336283D01*
X332283Y479858D02*
Y487858D01*
X336157Y475984D02*
X344157D01*
X340157Y471984D02*
Y479984D01*
X336157Y483858D02*
X344157D01*
X340157Y479858D02*
Y487858D01*
X344031Y475984D02*
X352031D01*
X348031Y471984D02*
Y479984D01*
X344031Y483858D02*
X352031D01*
X348031Y479858D02*
Y487858D01*
X351906Y475984D02*
X359906D01*
X355906Y471984D02*
Y479984D01*
X351906Y483858D02*
X359906D01*
X355906Y479858D02*
Y487858D01*
X359780Y475984D02*
X367780D01*
X363780Y471984D02*
Y479984D01*
X359780Y483858D02*
X367780D01*
X363780Y479858D02*
Y487858D01*
X367654Y475984D02*
X375654D01*
X371654Y471984D02*
Y479984D01*
X367654Y483858D02*
X375654D01*
X371654Y479858D02*
Y487858D01*
X111748Y111748D02*
X119748Y119748D01*
X111748D02*
X119748Y111748D01*
X284976Y119685D02*
X292976D01*
X288976Y115685D02*
Y123685D01*
X284976Y111811D02*
X292976D01*
X288976Y107811D02*
Y115811D01*
X277102Y119685D02*
X285102D01*
X281102Y115685D02*
Y123685D01*
X277102Y111811D02*
X285102D01*
X281102Y107811D02*
Y115811D01*
X269228Y119685D02*
X277228D01*
X273228Y115685D02*
Y123685D01*
X269228Y111811D02*
X277228D01*
X273228Y107811D02*
Y115811D01*
X261354Y119685D02*
X269354D01*
X265354Y115685D02*
Y123685D01*
X261354Y111811D02*
X269354D01*
X265354Y107811D02*
Y115811D01*
X253480Y119685D02*
X261480D01*
X257480Y115685D02*
Y123685D01*
X253480Y111811D02*
X261480D01*
X257480Y107811D02*
Y115811D01*
X245606Y119685D02*
X253606D01*
X249606Y115685D02*
Y123685D01*
X245606Y111811D02*
X253606D01*
X249606Y107811D02*
Y115811D01*
X237732Y119685D02*
X245732D01*
X241732Y115685D02*
Y123685D01*
X237732Y111811D02*
X245732D01*
X241732Y107811D02*
Y115811D01*
X229858Y119685D02*
X237858D01*
X233858Y115685D02*
Y123685D01*
X229858Y111811D02*
X237858D01*
X233858Y107811D02*
Y115811D01*
X221984Y119685D02*
X229984D01*
X225984Y115685D02*
Y123685D01*
X221984Y111811D02*
X229984D01*
X225984Y107811D02*
Y115811D01*
X214110Y119685D02*
X222110D01*
X218110Y115685D02*
Y123685D01*
X214110Y111811D02*
X222110D01*
X218110Y107811D02*
Y115811D01*
X206236Y119685D02*
X214236D01*
X210236Y115685D02*
Y123685D01*
X206236Y111811D02*
X214236D01*
X210236Y107811D02*
Y115811D01*
X198362Y119685D02*
X206362D01*
X202362Y115685D02*
Y123685D01*
X198362Y111811D02*
X206362D01*
X202362Y107811D02*
Y115811D01*
X190488Y119685D02*
X198488D01*
X194488Y115685D02*
Y123685D01*
X190488Y111811D02*
X198488D01*
X194488Y107811D02*
Y115811D01*
X182614Y119685D02*
X190614D01*
X186614Y115685D02*
Y123685D01*
X182614Y111811D02*
X190614D01*
X186614Y107811D02*
Y115811D01*
X174740Y119685D02*
X182740D01*
X178740Y115685D02*
Y123685D01*
X174740Y111811D02*
X182740D01*
X178740Y107811D02*
Y115811D01*
X166866Y119685D02*
X174866D01*
X170866Y115685D02*
Y123685D01*
X166866Y111811D02*
X174866D01*
X170866Y107811D02*
Y115811D01*
X158992Y119685D02*
X166992D01*
X162992Y115685D02*
Y123685D01*
X158992Y111811D02*
X166992D01*
X162992Y107811D02*
Y115811D01*
X464228Y132614D02*
X472228D01*
Y140614*
X464228*
Y132614*
X468228Y136614D02*
Y140614D01*
X456197Y132614D02*
X464197D01*
Y140614*
X456197*
Y132614*
X460197Y136614D02*
Y140614D01*
X460213Y142614D02*
X468213D01*
Y150614*
X460213*
Y142614*
X464213Y146614D02*
Y150614D01*
X452181Y142614D02*
X460181D01*
Y150614*
X452181*
Y142614*
X456181Y146614D02*
Y150614D01*
X481890Y123559D02*
X485890Y127559D01*
X481890Y131559*
X477890Y127559*
X481890Y123559*
Y127559D02*
Y131559D01*
X442520Y123559D02*
X446520Y127559D01*
X442520Y131559*
X438520Y127559*
X442520Y123559*
Y127559D02*
Y131559D01*
X592063Y391276D02*
X600063D01*
X592063Y399276*
X600063*
X592063Y391276*
Y420803D02*
X600063Y428803D01*
Y420803*
X592063Y428803*
Y420803*
X548756Y220079D02*
X556756D01*
X552756Y216079D02*
Y224079D01*
X555665Y225360D02*
X554756Y222079D01*
X555665Y225360D02*
X556574Y222079D01*
X555097Y223172D02*
X556233D01*
X548756Y208268D02*
X556756D01*
X552756Y204268D02*
Y212268D01*
X555665Y213549D02*
X554756Y210268D01*
X555665Y213549D02*
X556574Y210268D01*
X555097Y211361D02*
X556233D01*
X755449Y320472D02*
X763449D01*
X759449Y316472D02*
Y324472D01*
X762358Y325754D02*
X761449Y322472D01*
X762358Y325754D02*
X763267Y322472D01*
X761790Y323566D02*
X762926D01*
X743638Y320472D02*
X751638D01*
X747638Y316472D02*
Y324472D01*
X750547Y325754D02*
X749638Y322472D01*
X750547Y325754D02*
X751456Y322472D01*
X749979Y323566D02*
X751115D01*
X698362Y279134D02*
X706362D01*
X702362Y275134D02*
Y283134D01*
X705271Y284415D02*
X704362Y281134D01*
X705271Y284415D02*
X706180Y281134D01*
X704703Y282228D02*
X705839D01*
X698362Y267323D02*
X706362D01*
X702362Y263323D02*
Y271323D01*
X705271Y272604D02*
X704362Y269323D01*
X705271Y272604D02*
X706180Y269323D01*
X704703Y270417D02*
X705839D01*
X438520Y200394D02*
X446520D01*
X442520Y196394D02*
Y204394D01*
X445429Y205675D02*
X444520Y202394D01*
X445429Y205675D02*
X446338Y202394D01*
X444861Y203487D02*
X445997D01*
X438520Y188583D02*
X446520D01*
X442520Y184583D02*
Y192583D01*
X445429Y193864D02*
X444520Y190583D01*
X445429Y193864D02*
X446338Y190583D01*
X444861Y191676D02*
X445997D01*
X182614Y247638D02*
X190614D01*
X186614Y243638D02*
Y251638D01*
X189523Y252919D02*
X188614Y249638D01*
X189523Y252919D02*
X190432Y249638D01*
X188955Y250732D02*
X190091D01*
X182614Y235827D02*
X190614D01*
X186614Y231827D02*
Y239827D01*
X189523Y241108D02*
X188614Y237827D01*
X189523Y241108D02*
X190432Y237827D01*
X188955Y238921D02*
X190091D01*
X160961Y288976D02*
X168961D01*
X164961Y284976D02*
Y292976D01*
X167870Y294258D02*
X166961Y290976D01*
X167870Y294258D02*
X168779Y290976D01*
X167302Y292070D02*
X168438D01*
X149150Y288976D02*
X157150D01*
X153150Y284976D02*
Y292976D01*
X156059Y294258D02*
X155150Y290976D01*
X156059Y294258D02*
X156968Y290976D01*
X155491Y292070D02*
X156627D01*
X294819Y194488D02*
X302819D01*
X298819Y190488D02*
Y198488D01*
X301728Y199769D02*
X300819Y196488D01*
X301728Y199769D02*
X302637Y196488D01*
X301160Y197582D02*
X302296D01*
X283008Y194488D02*
X291008D01*
X287008Y190488D02*
Y198488D01*
X289917Y199769D02*
X289008Y196488D01*
X289917Y199769D02*
X290826Y196488D01*
X289349Y197582D02*
X290485D01*
X283008Y170866D02*
X291008D01*
X287008Y166866D02*
Y174866D01*
X289917Y176147D02*
X289008Y172866D01*
X289917Y176147D02*
X290826Y172866D01*
X289349Y173960D02*
X290485D01*
X294819Y170866D02*
X302819D01*
X298819Y166866D02*
Y174866D01*
X301728Y176147D02*
X300819Y172866D01*
X301728Y176147D02*
X302637Y172866D01*
X301160Y173960D02*
X302296D01*
X566472Y198425D02*
X574472D01*
X570472Y194425D02*
Y202425D01*
X573382Y203706D02*
X572472Y200425D01*
X573382Y203706D02*
X574291Y200425D01*
X572813Y201519D02*
X573950D01*
X578283Y198425D02*
X586283D01*
X582283Y194425D02*
Y202425D01*
X585193Y203706D02*
X584283Y200425D01*
X585193Y203706D02*
X586102Y200425D01*
X584624Y201519D02*
X585761D01*
X601906Y198425D02*
X609906D01*
X605906Y194425D02*
Y202425D01*
X608815Y203706D02*
X607906Y200425D01*
X608815Y203706D02*
X609724Y200425D01*
X608246Y201519D02*
X609383D01*
X590094Y198425D02*
X598094D01*
X594094Y194425D02*
Y202425D01*
X597004Y203706D02*
X596094Y200425D01*
X597004Y203706D02*
X597913Y200425D01*
X596435Y201519D02*
X597572D01*
X601906Y190551D02*
X609906D01*
X605906Y186551D02*
Y194551D01*
X608815Y195832D02*
X607906Y192551D01*
X608815Y195832D02*
X609724Y192551D01*
X608246Y193645D02*
X609383D01*
X590094Y190551D02*
X598094D01*
X594094Y186551D02*
Y194551D01*
X597004Y195832D02*
X596094Y192551D01*
X597004Y195832D02*
X597913Y192551D01*
X596435Y193645D02*
X597572D01*
X548756Y251575D02*
X556756D01*
X552756Y247575D02*
Y255575D01*
X555665Y256856D02*
X554756Y253575D01*
X555665Y256856D02*
X556574Y253575D01*
X555097Y254669D02*
X556233D01*
X548756Y239764D02*
X556756D01*
X552756Y235764D02*
Y243764D01*
X555665Y245045D02*
X554756Y241764D01*
X555665Y245045D02*
X556574Y241764D01*
X555097Y242858D02*
X556233D01*
X566472Y190551D02*
X574472D01*
X570472Y186551D02*
Y194551D01*
X573382Y195832D02*
X572472Y192551D01*
X573382Y195832D02*
X574291Y192551D01*
X572813Y193645D02*
X573950D01*
X578283Y190551D02*
X586283D01*
X582283Y186551D02*
Y194551D01*
X585193Y195832D02*
X584283Y192551D01*
X585193Y195832D02*
X586102Y192551D01*
X584624Y193645D02*
X585761D01*
X273165Y220079D02*
X281165D01*
X277165Y216079D02*
Y224079D01*
X280074Y225360D02*
X279165Y222079D01*
X280074Y225360D02*
X280984Y222079D01*
X279506Y223172D02*
X280643D01*
X273165Y208268D02*
X281165D01*
X277165Y204268D02*
Y212268D01*
X280074Y213549D02*
X279165Y210268D01*
X280074Y213549D02*
X280984Y210268D01*
X279506Y211361D02*
X280643D01*
X294819Y162992D02*
X302819D01*
X298819Y158992D02*
Y166992D01*
X301728Y168273D02*
X300819Y164992D01*
X301728Y168273D02*
X302637Y164992D01*
X301160Y166086D02*
X302296D01*
X283008Y162992D02*
X291008D01*
X287008Y158992D02*
Y166992D01*
X289917Y168273D02*
X289008Y164992D01*
X289917Y168273D02*
X290826Y164992D01*
X289349Y166086D02*
X290485D01*
X383402Y143307D02*
X391402D01*
X387402Y139307D02*
Y147307D01*
X390311Y148588D02*
X389402Y145307D01*
X390311Y148588D02*
X391220Y145307D01*
X389742Y146401D02*
X390879D01*
X371591Y143307D02*
X379591D01*
X375591Y139307D02*
Y147307D01*
X378500Y148588D02*
X377591Y145307D01*
X378500Y148588D02*
X379409Y145307D01*
X377931Y146401D02*
X379068D01*
X403087Y218110D02*
X411087D01*
X407087Y214110D02*
Y222110D01*
X409996Y223391D02*
X409087Y220110D01*
X409996Y223391D02*
X410905Y220110D01*
X409428Y221204D02*
X410564D01*
X403087Y206299D02*
X411087D01*
X407087Y202299D02*
Y210299D01*
X409996Y211580D02*
X409087Y208299D01*
X409996Y211580D02*
X410905Y208299D01*
X409428Y209393D02*
X410564D01*
X611748Y157087D02*
X619748D01*
X615748Y153087D02*
Y161087D01*
X618657Y162368D02*
X617748Y159087D01*
X618657Y162368D02*
X619566Y159087D01*
X618089Y160180D02*
X619225D01*
X611748Y168898D02*
X619748D01*
X615748Y164898D02*
Y172898D01*
X618657Y174179D02*
X617748Y170898D01*
X618657Y174179D02*
X619566Y170898D01*
X618089Y171991D02*
X619225D01*
X855843Y139370D02*
X863843D01*
X859843Y135370D02*
Y143370D01*
X862752Y144651D02*
X861843Y141370D01*
X862752Y144651D02*
X863661Y141370D01*
X862183Y142464D02*
X863320D01*
X867654Y139370D02*
X875654D01*
X871654Y135370D02*
Y143370D01*
X874563Y144651D02*
X873654Y141370D01*
X874563Y144651D02*
X875472Y141370D01*
X873994Y142464D02*
X875131D01*
X633402Y168898D02*
X641402D01*
X637402Y164898D02*
Y172898D01*
X640311Y174179D02*
X639402Y170898D01*
X640311Y174179D02*
X641220Y170898D01*
X639742Y171991D02*
X640879D01*
X633402Y157087D02*
X641402D01*
X637402Y153087D02*
Y161087D01*
X640311Y162368D02*
X639402Y159087D01*
X640311Y162368D02*
X641220Y159087D01*
X639742Y160180D02*
X640879D01*
X865685Y225984D02*
X873685D01*
X869685Y221984D02*
Y229984D01*
X872594Y231266D02*
X871685Y227984D01*
X872594Y231266D02*
X873503Y227984D01*
X872026Y229078D02*
X873162D01*
X877496Y225984D02*
X885496D01*
X881496Y221984D02*
Y229984D01*
X884405Y231266D02*
X883496Y227984D01*
X884405Y231266D02*
X885314Y227984D01*
X883837Y229078D02*
X884973D01*
X857811Y298819D02*
X865811D01*
X861811Y294819D02*
Y302819D01*
X864720Y304100D02*
X863811Y300819D01*
X864720Y304100D02*
X865629Y300819D01*
X864152Y301913D02*
X865288D01*
X869622Y298819D02*
X877622D01*
X873622Y294819D02*
Y302819D01*
X876531Y304100D02*
X875622Y300819D01*
X876531Y304100D02*
X877440Y300819D01*
X875963Y301913D02*
X877099D01*
X481827Y253543D02*
X489827D01*
X485827Y249543D02*
Y257543D01*
X488736Y258825D02*
X487827Y255543D01*
X488736Y258825D02*
X489645Y255543D01*
X488168Y256637D02*
X489304D01*
X481827Y241732D02*
X489827D01*
X485827Y237732D02*
Y245732D01*
X488736Y247014D02*
X487827Y243732D01*
X488736Y247014D02*
X489645Y243732D01*
X488168Y244826D02*
X489304D01*
X670803Y196457D02*
X678803D01*
X674803Y192457D02*
Y200457D01*
X677712Y201738D02*
X676803Y198457D01*
X677712Y201738D02*
X678621Y198457D01*
X677144Y199550D02*
X678280D01*
X670803Y184646D02*
X678803D01*
X674803Y180646D02*
Y188646D01*
X677712Y189927D02*
X676803Y186646D01*
X677712Y189927D02*
X678621Y186646D01*
X677144Y187739D02*
X678280D01*
X586157Y253543D02*
X594157D01*
X590157Y249543D02*
Y257543D01*
X593067Y258825D02*
X592157Y255543D01*
X593067Y258825D02*
X593976Y255543D01*
X592498Y256637D02*
X593635D01*
X586157Y241732D02*
X594157D01*
X590157Y237732D02*
Y245732D01*
X593067Y247014D02*
X592157Y243732D01*
X593067Y247014D02*
X593976Y243732D01*
X592498Y244826D02*
X593635D01*
X747575Y147244D02*
X755575D01*
X751575Y143244D02*
Y151244D01*
X754484Y152525D02*
X753575Y149244D01*
X754484Y152525D02*
X755393Y149244D01*
X753916Y150338D02*
X755052D01*
X759386Y147244D02*
X767386D01*
X763386Y143244D02*
Y151244D01*
X766295Y152525D02*
X765386Y149244D01*
X766295Y152525D02*
X767204Y149244D01*
X765727Y150338D02*
X766863D01*
X794819Y105906D02*
X802819D01*
X798819Y101906D02*
Y109906D01*
X801728Y111187D02*
X800819Y107906D01*
X801728Y111187D02*
X802637Y107906D01*
X801160Y108999D02*
X802296D01*
X794819Y117717D02*
X802819D01*
X798819Y113717D02*
Y121717D01*
X801728Y122998D02*
X800819Y119717D01*
X801728Y122998D02*
X802637Y119717D01*
X801160Y120810D02*
X802296D01*
X822378Y159055D02*
X830378D01*
X826378Y155055D02*
Y163055D01*
X829287Y164336D02*
X828378Y161055D01*
X829287Y164336D02*
X830196Y161055D01*
X828719Y162149D02*
X829855D01*
X834189Y159055D02*
X842189D01*
X838189Y155055D02*
Y163055D01*
X841098Y164336D02*
X840189Y161055D01*
X841098Y164336D02*
X842007Y161055D01*
X840530Y162149D02*
X841666D01*
X704268Y162992D02*
X712268D01*
X708268Y158992D02*
Y166992D01*
X711177Y168273D02*
X710268Y164992D01*
X711177Y168273D02*
X712086Y164992D01*
X710609Y166086D02*
X711745D01*
X692457Y162992D02*
X700457D01*
X696457Y158992D02*
Y166992D01*
X699366Y168273D02*
X698457Y164992D01*
X699366Y168273D02*
X700275Y164992D01*
X698798Y166086D02*
X699934D01*
X662929Y117717D02*
X670929D01*
X666929Y113717D02*
Y121717D01*
X669838Y122998D02*
X668929Y119717D01*
X669838Y122998D02*
X670747Y119717D01*
X669270Y120810D02*
X670406D01*
X662929Y105906D02*
X670929D01*
X666929Y101906D02*
Y109906D01*
X669838Y111187D02*
X668929Y107906D01*
X669838Y111187D02*
X670747Y107906D01*
X669270Y108999D02*
X670406D01*
X899150Y208268D02*
X907150D01*
X903150Y204268D02*
Y212268D01*
X906059Y213549D02*
X905150Y210268D01*
X906059Y213549D02*
X906968Y210268D01*
X905491Y211361D02*
X906627D01*
X899150Y196457D02*
X907150D01*
X903150Y192457D02*
Y200457D01*
X906059Y201738D02*
X905150Y198457D01*
X906059Y201738D02*
X906968Y198457D01*
X905491Y199550D02*
X906627D01*
X938520Y277165D02*
X946520D01*
X942520Y273165D02*
Y281165D01*
X945429Y282447D02*
X944520Y279165D01*
X945429Y282447D02*
X946338Y279165D01*
X944861Y280259D02*
X945997D01*
X938520Y288976D02*
X946520D01*
X942520Y284976D02*
Y292976D01*
X945429Y294258D02*
X944520Y290976D01*
X945429Y294258D02*
X946338Y290976D01*
X944861Y292070D02*
X945997D01*
X938520Y308661D02*
X946520D01*
X942520Y304661D02*
Y312661D01*
X945429Y313943D02*
X944520Y310661D01*
X945429Y313943D02*
X946338Y310661D01*
X944861Y311755D02*
X945997D01*
X938520Y296850D02*
X946520D01*
X942520Y292850D02*
Y300850D01*
X945429Y302132D02*
X944520Y298850D01*
X945429Y302132D02*
X946338Y298850D01*
X944861Y299944D02*
X945997D01*
X147181Y444488D02*
X155181D01*
X151181Y440488D02*
Y448488D01*
X154090Y449769D02*
X153181Y446488D01*
X154090Y449769D02*
X154999Y446488D01*
X153522Y447582D02*
X154658D01*
X147181Y432677D02*
X155181D01*
X151181Y428677D02*
Y436677D01*
X154090Y437958D02*
X153181Y434677D01*
X154090Y437958D02*
X154999Y434677D01*
X153522Y435771D02*
X154658D01*
X964110Y261417D02*
X972110D01*
X968110Y257417D02*
Y265417D01*
X971019Y266699D02*
X970110Y263417D01*
X971019Y266699D02*
X971928Y263417D01*
X970451Y264511D02*
X971588D01*
X952299Y261417D02*
X960299D01*
X956299Y257417D02*
Y265417D01*
X959208Y266699D02*
X958299Y263417D01*
X959208Y266699D02*
X960117Y263417D01*
X958640Y264511D02*
X959776D01*
X936551Y157087D02*
X944551D01*
X940551Y153087D02*
Y161087D01*
X943460Y162368D02*
X942551Y159087D01*
X943460Y162368D02*
X944369Y159087D01*
X942892Y160180D02*
X944028D01*
X924740Y157087D02*
X932740D01*
X928740Y153087D02*
Y161087D01*
X931649Y162368D02*
X930740Y159087D01*
X931649Y162368D02*
X932558Y159087D01*
X931081Y160180D02*
X932217D01*
X914898Y168898D02*
X922898D01*
X918898Y164898D02*
Y172898D01*
X921807Y174179D02*
X920898Y170898D01*
X921807Y174179D02*
X922716Y170898D01*
X921239Y171991D02*
X922375D01*
X914898Y157087D02*
X922898D01*
X918898Y153087D02*
Y161087D01*
X921807Y162368D02*
X920898Y159087D01*
X921807Y162368D02*
X922716Y159087D01*
X921239Y160180D02*
X922375D01*
X505449Y168898D02*
X513449D01*
X509449Y164898D02*
Y172898D01*
X512358Y174179D02*
X511449Y170898D01*
X512358Y174179D02*
X513267Y170898D01*
X511790Y171991D02*
X512926D01*
X505449Y157087D02*
X513449D01*
X509449Y153087D02*
Y161087D01*
X512358Y162368D02*
X511449Y159087D01*
X512358Y162368D02*
X513267Y159087D01*
X511790Y160180D02*
X512926D01*
X560567Y314567D02*
X568567D01*
X564567Y310567D02*
Y318567D01*
X567476Y319848D02*
X566567Y316567D01*
X567476Y319848D02*
X568385Y316567D01*
X566908Y317661D02*
X568044D01*
X560567Y302756D02*
X568567D01*
X564567Y298756D02*
Y306756D01*
X567476Y308037D02*
X566567Y304756D01*
X567476Y308037D02*
X568385Y304756D01*
X566908Y305850D02*
X568044D01*
X690488Y310630D02*
X698488D01*
X694488Y306630D02*
Y314630D01*
X697397Y315911D02*
X696488Y312630D01*
X697397Y315911D02*
X698306Y312630D01*
X696829Y313724D02*
X697965D01*
X690488Y298819D02*
X698488D01*
X694488Y294819D02*
Y302819D01*
X697397Y304100D02*
X696488Y300819D01*
X697397Y304100D02*
X698306Y300819D01*
X696829Y301913D02*
X697965D01*
X619622Y342126D02*
X627622D01*
X623622Y338126D02*
Y346126D01*
X626531Y347407D02*
X625622Y344126D01*
X626531Y347407D02*
X627440Y344126D01*
X625963Y345220D02*
X627099D01*
X619622Y353937D02*
X627622D01*
X623622Y349937D02*
Y357937D01*
X626531Y359218D02*
X625622Y355937D01*
X626531Y359218D02*
X627440Y355937D01*
X625963Y357031D02*
X627099D01*
X619622Y318504D02*
X627622D01*
X623622Y314504D02*
Y322504D01*
X626531Y323785D02*
X625622Y320504D01*
X626531Y323785D02*
X627440Y320504D01*
X625963Y321598D02*
X627099D01*
X619622Y330315D02*
X627622D01*
X623622Y326315D02*
Y334315D01*
X626531Y335596D02*
X625622Y332315D01*
X626531Y335596D02*
X627440Y332315D01*
X625963Y333409D02*
X627099D01*
X706236Y312598D02*
X714236D01*
X710236Y308598D02*
Y316598D01*
X713145Y317880D02*
X712236Y314598D01*
X713145Y317880D02*
X714054Y314598D01*
X712577Y315692D02*
X713713D01*
X706236Y288976D02*
X714236D01*
X710236Y284976D02*
Y292976D01*
X713145Y294258D02*
X712236Y290976D01*
X713145Y294258D02*
X714054Y290976D01*
X712577Y292070D02*
X713713D01*
X914898Y210236D02*
X922898D01*
X918898Y206236D02*
Y214236D01*
X921807Y215517D02*
X920898Y212236D01*
X921807Y215517D02*
X922716Y212236D01*
X921239Y213330D02*
X922375D01*
X914898Y186614D02*
X922898D01*
X918898Y182614D02*
Y190614D01*
X921807Y191895D02*
X920898Y188614D01*
X921807Y191895D02*
X922716Y188614D01*
X921239Y189708D02*
X922375D01*
X861748Y172835D02*
X869748D01*
X865748Y168835D02*
Y176835D01*
X868657Y178116D02*
X867748Y174835D01*
X868657Y178116D02*
X869566Y174835D01*
X868089Y175928D02*
X869225D01*
X861748Y149213D02*
X869748D01*
X865748Y145213D02*
Y153213D01*
X868657Y154494D02*
X867748Y151213D01*
X868657Y154494D02*
X869566Y151213D01*
X868089Y152306D02*
X869225D01*
X649150Y168898D02*
X657150D01*
X653150Y164898D02*
Y172898D01*
X656059Y174179D02*
X655150Y170898D01*
X656059Y174179D02*
X656968Y170898D01*
X655491Y171991D02*
X656627D01*
X649150Y145276D02*
X657150D01*
X653150Y141276D02*
Y149276D01*
X656059Y150557D02*
X655150Y147276D01*
X656059Y150557D02*
X656968Y147276D01*
X655491Y148369D02*
X656627D01*
X993638Y253480D02*
X1001638D01*
Y261480*
X993638*
Y253480*
X997638Y257480D02*
Y261480D01*
X1001512Y253480D02*
X1009512D01*
Y261480*
X1001512*
Y253480*
X1005512Y257480D02*
Y261480D01*
X993638Y221984D02*
X1001638D01*
Y229984*
X993638*
Y221984*
X997638Y225984D02*
Y229984D01*
X1001512Y221984D02*
X1009512D01*
Y229984*
X1001512*
Y221984*
X1005512Y225984D02*
Y229984D01*
X993638Y190488D02*
X1001638D01*
Y198488*
X993638*
Y190488*
X997638Y194488D02*
Y198488D01*
X1001512Y190488D02*
X1009512D01*
Y198488*
X1001512*
Y190488*
X1005512Y194488D02*
Y198488D01*
X576315Y281039D02*
X584315D01*
Y289039*
X576315*
Y281039*
X580315Y285039D02*
Y289039D01*
X576315Y288913D02*
X584315D01*
Y296913*
X576315*
Y288913*
X580315Y292913D02*
Y296913D01*
X586157Y223953D02*
X594157D01*
Y231953*
X586157*
Y223953*
X590157Y227953D02*
Y231953D01*
X578283Y223953D02*
X586283D01*
Y231953*
X578283*
Y223953*
X582283Y227953D02*
Y231953D01*
X792850Y312535D02*
X800850D01*
Y320535*
X792850*
Y312535*
X796850Y316535D02*
Y320535D01*
X784976Y312535D02*
X792976D01*
Y320535*
X784976*
Y312535*
X788976Y316535D02*
Y320535D01*
X851906Y312535D02*
X859906D01*
Y320535*
X851906*
Y312535*
X855906Y316535D02*
Y320535D01*
X844031Y312535D02*
X852031D01*
Y320535*
X844031*
Y312535*
X848031Y316535D02*
Y320535D01*
X993638Y347969D02*
X1001638D01*
Y355969*
X993638*
Y347969*
X997638Y351969D02*
Y355969D01*
X1001512Y347969D02*
X1009512D01*
Y355969*
X1001512*
Y347969*
X1005512Y351969D02*
Y355969D01*
X993638Y316472D02*
X1001638D01*
Y324472*
X993638*
Y316472*
X997638Y320472D02*
Y324472D01*
X1001512Y316472D02*
X1009512D01*
Y324472*
X1001512*
Y316472*
X1005512Y320472D02*
Y324472D01*
X993638Y284976D02*
X1001638D01*
Y292976*
X993638*
Y284976*
X997638Y288976D02*
Y292976D01*
X1001512Y284976D02*
X1009512D01*
Y292976*
X1001512*
Y284976*
X1005512Y288976D02*
Y292976D01*
X733795Y443504D02*
X741795D01*
X737795Y439504D02*
Y447504D01*
X740704Y448785D02*
X739795Y445504D01*
X740704Y448785D02*
X741613Y445504D01*
X740136Y446598D02*
X741273D01*
X733795Y421850D02*
X741795D01*
X737795Y417850D02*
Y425850D01*
X740704Y427132D02*
X739795Y423850D01*
X740704Y427132D02*
X741613Y423850D01*
X740136Y424944D02*
X741273D01*
X682614Y443504D02*
X690614D01*
X686614Y439504D02*
Y447504D01*
X689523Y448785D02*
X688614Y445504D01*
X689523Y448785D02*
X690432Y445504D01*
X688955Y446598D02*
X690091D01*
X682614Y421850D02*
X690614D01*
X686614Y417850D02*
Y425850D01*
X689523Y427132D02*
X688614Y423850D01*
X689523Y427132D02*
X690432Y423850D01*
X688955Y424944D02*
X690091D01*
X560567Y256496D02*
X568567D01*
X564567Y252496D02*
Y260496D01*
X567476Y261777D02*
X566567Y258496D01*
X567476Y261777D02*
X568385Y258496D01*
X566908Y259590D02*
X568044D01*
X560567Y234843D02*
X568567D01*
X564567Y230843D02*
Y238843D01*
X567476Y240124D02*
X566567Y236843D01*
X567476Y240124D02*
X568385Y236843D01*
X566908Y237936D02*
X568044D01*
X788913Y352953D02*
X796913D01*
X792913Y348953D02*
Y356953D01*
X795822Y358234D02*
X794913Y354953D01*
X795822Y358234D02*
X796732Y354953D01*
X795254Y356047D02*
X796391D01*
X788913Y374606D02*
X796913D01*
X792913Y370606D02*
Y378606D01*
X795822Y379888D02*
X794913Y376606D01*
X795822Y379888D02*
X796732Y376606D01*
X795254Y377700D02*
X796391D01*
X847969Y352953D02*
X855969D01*
X851969Y348953D02*
Y356953D01*
X854878Y358234D02*
X853969Y354953D01*
X854878Y358234D02*
X855787Y354953D01*
X854309Y356047D02*
X855446D01*
X847969Y374606D02*
X855969D01*
X851969Y370606D02*
Y378606D01*
X854878Y379888D02*
X853969Y376606D01*
X854878Y379888D02*
X855787Y376606D01*
X854309Y377700D02*
X855446D01*
X467063Y162992D02*
X475063D01*
X471063Y158992D02*
Y166992D01*
X473972Y168273D02*
X473063Y164992D01*
X473972Y168273D02*
X474881Y164992D01*
X473404Y166086D02*
X474540D01*
X461157Y162992D02*
X469157D01*
X465157Y158992D02*
Y166992D01*
X468067Y168273D02*
X467157Y164992D01*
X468067Y168273D02*
X468976Y164992D01*
X467498Y166086D02*
X468635D01*
X449346Y162992D02*
X457346D01*
X453346Y158992D02*
Y166992D01*
X456256Y168273D02*
X455346Y164992D01*
X456256Y168273D02*
X457165Y164992D01*
X455687Y166086D02*
X456824D01*
X455252Y162992D02*
X463252D01*
X459252Y158992D02*
Y166992D01*
X462161Y168273D02*
X461252Y164992D01*
X462161Y168273D02*
X463070Y164992D01*
X461593Y166086D02*
X462729D01*
X721984Y122638D02*
X729984D01*
X725984Y118638D02*
Y126638D01*
X728893Y127919D02*
X727984Y124638D01*
X728893Y127919D02*
X729802Y124638D01*
X728325Y125732D02*
X729462D01*
X721984Y116732D02*
X729984D01*
X725984Y112732D02*
Y120732D01*
X728893Y122014D02*
X727984Y118732D01*
X728893Y122014D02*
X729802Y118732D01*
X728325Y119826D02*
X729462D01*
X933598Y143307D02*
X941598D01*
X937598Y139307D02*
Y147307D01*
X940508Y148588D02*
X939598Y145307D01*
X940508Y148588D02*
X941417Y145307D01*
X939939Y146401D02*
X941076D01*
X927693Y143307D02*
X935693D01*
X931693Y139307D02*
Y147307D01*
X934602Y148588D02*
X933693Y145307D01*
X934602Y148588D02*
X935511Y145307D01*
X934034Y146401D02*
X935170D01*
X385370Y123622D02*
X393370D01*
X389370Y119622D02*
Y127622D01*
X392279Y128903D02*
X391370Y125622D01*
X392279Y128903D02*
X393188Y125622D01*
X391711Y126716D02*
X392847D01*
X365685Y123622D02*
X373685D01*
X369685Y119622D02*
Y127622D01*
X372594Y128903D02*
X371685Y125622D01*
X372594Y128903D02*
X373503Y125622D01*
X372026Y126716D02*
X373162D01*
X290882Y224016D02*
X298882D01*
X294882Y220016D02*
Y228016D01*
X297791Y229297D02*
X296882Y226016D01*
X297791Y229297D02*
X298700Y226016D01*
X297223Y227109D02*
X298359D01*
X290882Y204331D02*
X298882D01*
X294882Y200331D02*
Y208331D01*
X297791Y209612D02*
X296882Y206331D01*
X297791Y209612D02*
X298700Y206331D01*
X297223Y207424D02*
X298359D01*
X794819Y159055D02*
X802819D01*
X798819Y155055D02*
Y163055D01*
X801728Y164336D02*
X800819Y161055D01*
X801728Y164336D02*
X802637Y161055D01*
X801160Y162149D02*
X802296D01*
X794819Y131496D02*
X802819D01*
X798819Y127496D02*
Y135496D01*
X801728Y136777D02*
X800819Y133496D01*
X801728Y136777D02*
X802637Y133496D01*
X801160Y134590D02*
X802296D01*
X708205Y186614D02*
X716205D01*
X712205Y182614D02*
Y190614D01*
X715114Y191895D02*
X714205Y188614D01*
X715114Y191895D02*
X716023Y188614D01*
X714546Y189708D02*
X715682D01*
X680646Y186614D02*
X688646D01*
X684646Y182614D02*
Y190614D01*
X687555Y191895D02*
X686646Y188614D01*
X687555Y191895D02*
X688464Y188614D01*
X686987Y189708D02*
X688123D01*
X975921Y314567D02*
X983921D01*
X979921Y310567D02*
Y318567D01*
X982830Y319848D02*
X981921Y316567D01*
X982830Y319848D02*
X983739Y316567D01*
X982262Y317661D02*
X983399D01*
X948362Y314567D02*
X956362D01*
X952362Y310567D02*
Y318567D01*
X955271Y319848D02*
X954362Y316567D01*
X955271Y319848D02*
X956180Y316567D01*
X954703Y317661D02*
X955839D01*
X971984Y237795D02*
X979984D01*
X975984Y233795D02*
Y241795D01*
X978893Y243077D02*
X977984Y239795D01*
X978893Y243077D02*
X979802Y239795D01*
X978325Y240889D02*
X979462D01*
X944425Y237795D02*
X952425D01*
X948425Y233795D02*
Y241795D01*
X951334Y243077D02*
X950425Y239795D01*
X951334Y243077D02*
X952243Y239795D01*
X950766Y240889D02*
X951902D01*
X627496Y277165D02*
X635496D01*
X631496Y273165D02*
Y281165D01*
X634405Y282447D02*
X633496Y279165D01*
X634405Y282447D02*
X635314Y279165D01*
X633837Y280259D02*
X634973D01*
X627496Y304724D02*
X635496D01*
X631496Y300724D02*
Y308724D01*
X634405Y310006D02*
X633496Y306724D01*
X634405Y310006D02*
X635314Y306724D01*
X633837Y307818D02*
X634973D01*
X759386Y344094D02*
X767386D01*
X763386Y340094D02*
Y348094D01*
X766295Y349376D02*
X765386Y346094D01*
X766295Y349376D02*
X767204Y346094D01*
X765727Y347188D02*
X766863D01*
X731827Y344094D02*
X739827D01*
X735827Y340094D02*
Y348094D01*
X738736Y349376D02*
X737827Y346094D01*
X738736Y349376D02*
X739645Y346094D01*
X738168Y347188D02*
X739304D01*
X849937Y275197D02*
X857937D01*
X853937Y271197D02*
Y279197D01*
X856846Y280478D02*
X855937Y277197D01*
X856846Y280478D02*
X857755Y277197D01*
X856278Y278291D02*
X857414D01*
X877496Y275197D02*
X885496D01*
X881496Y271197D02*
Y279197D01*
X884405Y280478D02*
X883496Y277197D01*
X884405Y280478D02*
X885314Y277197D01*
X883837Y278291D02*
X884973D01*
X609780Y253543D02*
X617780D01*
X613780Y249543D02*
Y257543D01*
X616689Y258825D02*
X615780Y255543D01*
X616689Y258825D02*
X617598Y255543D01*
X616120Y256637D02*
X617257D01*
X609780Y225984D02*
X617780D01*
X613780Y221984D02*
Y229984D01*
X616689Y231266D02*
X615780Y227984D01*
X616689Y231266D02*
X617598Y227984D01*
X616120Y229078D02*
X617257D01*
X653087Y313583D02*
X661087D01*
X657087Y309583D02*
Y317583D01*
X659996Y318864D02*
X659087Y315583D01*
X659996Y318864D02*
X660905Y315583D01*
X659428Y316676D02*
X660564D01*
X653087Y358858D02*
X661087D01*
X657087Y354858D02*
Y362858D01*
X659996Y364140D02*
X659087Y360858D01*
X659996Y364140D02*
X660905Y360858D01*
X659428Y361952D02*
X660564D01*
X908992Y266339D02*
X916992D01*
X912992Y262339D02*
Y270339D01*
X915901Y271620D02*
X914992Y268339D01*
X915901Y271620D02*
X916810Y268339D01*
X915333Y269432D02*
X916469D01*
X908992Y311614D02*
X916992D01*
X912992Y307614D02*
Y315614D01*
X915901Y316895D02*
X914992Y313614D01*
X915901Y316895D02*
X916810Y313614D01*
X915333Y314708D02*
X916469D01*
X814504Y225000D02*
X822504D01*
X818504Y221000D02*
Y229000D01*
X821413Y230281D02*
X820504Y227000D01*
X821413Y230281D02*
X822322Y227000D01*
X820845Y228094D02*
X821981D01*
X814504Y179724D02*
X822504D01*
X818504Y175724D02*
Y183724D01*
X821413Y185006D02*
X820504Y181724D01*
X821413Y185006D02*
X822322Y181724D01*
X820845Y182818D02*
X821981D01*
X663913Y229921D02*
X671913D01*
X667913Y225921D02*
Y233921D01*
X670822Y235203D02*
X669913Y231921D01*
X670822Y235203D02*
X671732Y231921D01*
X670254Y233015D02*
X671391D01*
X709189Y229921D02*
X717189D01*
X713189Y225921D02*
Y233921D01*
X716098Y235203D02*
X715189Y231921D01*
X716098Y235203D02*
X717007Y231921D01*
X715530Y233015D02*
X716666D01*
X753480Y164961D02*
X761480D01*
X757480Y160961D02*
Y168961D01*
X759480Y170242D02*
Y166961D01*
Y170242D02*
X760503D01*
X760844Y170086*
X760958Y169929*
X761071Y169617*
Y169304*
X760958Y168992*
X760844Y168836*
X760503Y168679*
X759480D02*
X760503D01*
X760844Y168523*
X760958Y168367*
X761071Y168054*
Y167586*
X760958Y167273*
X760844Y167117*
X760503Y166961*
X759480*
X753480Y247638D02*
X761480D01*
X757480Y243638D02*
Y251638D01*
X759480Y252919D02*
Y249638D01*
Y252919D02*
X760503D01*
X760844Y252763*
X760958Y252607*
X761071Y252294*
Y251982*
X760958Y251669*
X760844Y251513*
X760503Y251357*
X759480D02*
X760503D01*
X760844Y251200*
X760958Y251044*
X761071Y250732*
Y250263*
X760958Y249950*
X760844Y249794*
X760503Y249638*
X759480*
X743637Y119622D02*
X751637Y127622D01*
Y119622*
X743637Y127622*
Y119622*
X763323D02*
X771323Y127622D01*
Y119622*
X763323Y127622*
Y119622*
X682614Y462142D02*
X690614D01*
X682614Y470142*
X690614*
X682614Y462142*
X668864D02*
X676864D01*
X668864Y470142*
X676864*
X668864Y462142*
X655055D02*
X663055D01*
X655055Y470142*
X663055*
X655055Y462142*
X733795D02*
X741795D01*
X733795Y470142*
X741795*
X733795Y462142*
X720045D02*
X728045D01*
X720045Y470142*
X728045*
X720045Y462142*
X706236D02*
X714236D01*
X706236Y470142*
X714236*
X706236Y462142*
X784976D02*
X792976D01*
X784976Y470142*
X792976*
X784976Y462142*
X771226D02*
X779226D01*
X771226Y470142*
X779226*
X771226Y462142*
X757417D02*
X765417D01*
X757417Y470142*
X765417*
X757417Y462142*
X836157D02*
X844157D01*
X836157Y470142*
X844157*
X836157Y462142*
X822407D02*
X830407D01*
X822407Y470142*
X830407*
X822407Y462142*
X808598D02*
X816598D01*
X808598Y470142*
X816598*
X808598Y462142*
X599937Y292850D02*
X607937D01*
Y300850*
X599937*
Y292850*
X603937Y296850D02*
Y300850D01*
X599937Y302693D02*
X607937D01*
Y310693*
X599937*
Y302693*
X603937Y306693D02*
Y310693D01*
X623559Y107811D02*
X631559D01*
Y115811*
X623559*
Y107811*
X627559Y111811D02*
Y115811D01*
X633402Y107811D02*
X641402D01*
Y115811*
X633402*
Y107811*
X637402Y111811D02*
Y115811D01*
X643244Y107811D02*
X651244D01*
Y115811*
X643244*
Y107811*
X647244Y111811D02*
Y115811D01*
X564504Y107811D02*
X572504D01*
Y115811*
X564504*
Y107811*
X568504Y111811D02*
Y115811D01*
X574346Y107811D02*
X582346D01*
Y115811*
X574346*
Y107811*
X578346Y111811D02*
Y115811D01*
X584189Y107811D02*
X592189D01*
Y115811*
X584189*
Y107811*
X588189Y111811D02*
Y115811D01*
X594031Y107811D02*
X602031D01*
Y115811*
X594031*
Y107811*
X598031Y111811D02*
Y115811D01*
X938520Y351906D02*
X946520D01*
Y359906*
X938520*
Y351906*
X942520Y355906D02*
Y359906D01*
X928677Y351906D02*
X936677D01*
Y359906*
X928677*
Y351906*
X932677Y355906D02*
Y359906D01*
X938520Y111748D02*
X946520D01*
Y119748*
X938520*
Y111748*
X942520Y115748D02*
Y119748D01*
X928677Y111748D02*
X936677D01*
Y119748*
X928677*
Y111748*
X932677Y115748D02*
Y119748D01*
X505449Y107811D02*
X513449D01*
Y115811*
X505449*
Y107811*
X509449Y111811D02*
Y115811D01*
X515291Y107811D02*
X523291D01*
Y115811*
X515291*
Y107811*
X519291Y111811D02*
Y115811D01*
X525134Y107811D02*
X533134D01*
Y115811*
X525134*
Y107811*
X529134Y111811D02*
Y115811D01*
X534976Y107811D02*
X542976D01*
Y115811*
X534976*
Y107811*
X538976Y111811D02*
Y115811D01*
X269228Y178677D02*
X277228D01*
Y186677*
X269228*
Y178677*
X273228Y182677D02*
Y186677D01*
X259228Y178677D02*
X267228D01*
Y186677*
X259228*
Y178677*
X263228Y182677D02*
Y186677D01*
X497575Y143244D02*
X505575D01*
Y151244*
X497575*
Y143244*
X501575Y147244D02*
Y151244D01*
X497575Y133244D02*
X505575D01*
Y141244*
X497575*
Y133244*
X501575Y137244D02*
Y141244D01*
X107811Y304724D02*
X115811D01*
X111811Y300724D02*
Y308724D01*
X115685Y304724D02*
X123685D01*
X119685Y300724D02*
Y308724D01*
X107811Y296850D02*
X115811D01*
X111811Y292850D02*
Y300850D01*
X115685Y296850D02*
X123685D01*
X119685Y292850D02*
Y300850D01*
X107811Y288976D02*
X115811D01*
X111811Y284976D02*
Y292976D01*
X115685Y288976D02*
X123685D01*
X119685Y284976D02*
Y292976D01*
X107811Y281102D02*
X115811D01*
X111811Y277102D02*
Y285102D01*
X115685Y281102D02*
X123685D01*
X119685Y277102D02*
Y285102D01*
X107811Y273228D02*
X115811D01*
X111811Y269228D02*
Y277228D01*
X115685Y273228D02*
X123685D01*
X119685Y269228D02*
Y277228D01*
X107811Y265354D02*
X115811D01*
X111811Y261354D02*
Y269354D01*
X115685Y265354D02*
X123685D01*
X119685Y261354D02*
Y269354D01*
X107811Y257480D02*
X115811D01*
X111811Y253480D02*
Y261480D01*
X115685Y257480D02*
X123685D01*
X119685Y253480D02*
Y261480D01*
X107811Y249606D02*
X115811D01*
X111811Y245606D02*
Y253606D01*
X115685Y249606D02*
X123685D01*
X119685Y245606D02*
Y253606D01*
X1029071Y210236D02*
X1037071D01*
X1033071Y206236D02*
Y214236D01*
X1021197Y210236D02*
X1029197D01*
X1025197Y206236D02*
Y214236D01*
X1029071Y202362D02*
X1037071D01*
X1033071Y198362D02*
Y206362D01*
X1021197Y202362D02*
X1029197D01*
X1025197Y198362D02*
Y206362D01*
X1029071Y194488D02*
X1037071D01*
X1033071Y190488D02*
Y198488D01*
X1021197Y194488D02*
X1029197D01*
X1025197Y190488D02*
Y198488D01*
X1029071Y186614D02*
X1037071D01*
X1033071Y182614D02*
Y190614D01*
X1021197Y186614D02*
X1029197D01*
X1025197Y182614D02*
Y190614D01*
X1029071Y178740D02*
X1037071D01*
X1033071Y174740D02*
Y182740D01*
X1021197Y178740D02*
X1029197D01*
X1025197Y174740D02*
Y182740D01*
X1029071Y170866D02*
X1037071D01*
X1033071Y166866D02*
Y174866D01*
X1021197Y170866D02*
X1029197D01*
X1025197Y166866D02*
Y174866D01*
X1029071Y162992D02*
X1037071D01*
X1033071Y158992D02*
Y166992D01*
X1021197Y162992D02*
X1029197D01*
X1025197Y158992D02*
Y166992D01*
X1029071Y155118D02*
X1037071D01*
X1033071Y151118D02*
Y159118D01*
X1021197Y155118D02*
X1029197D01*
X1025197Y151118D02*
Y159118D01*
X115685Y162992D02*
X123685D01*
X119685Y158992D02*
Y166992D01*
X107811Y162992D02*
X115811D01*
X111811Y158992D02*
Y166992D01*
X115685Y170866D02*
X123685D01*
X119685Y166866D02*
Y174866D01*
X107811Y170866D02*
X115811D01*
X111811Y166866D02*
Y174866D01*
X115685Y178740D02*
X123685D01*
X119685Y174740D02*
Y182740D01*
X107811Y178740D02*
X115811D01*
X111811Y174740D02*
Y182740D01*
X115685Y186614D02*
X123685D01*
X119685Y182614D02*
Y190614D01*
X107811Y186614D02*
X115811D01*
X111811Y182614D02*
Y190614D01*
X115685Y194488D02*
X123685D01*
X119685Y190488D02*
Y198488D01*
X107811Y194488D02*
X115811D01*
X111811Y190488D02*
Y198488D01*
X564504Y466079D02*
X572504D01*
Y474079*
X564504*
Y466079*
X568504Y470079D02*
Y474079D01*
X564504Y476079D02*
X572504D01*
Y484079*
X564504*
Y476079*
X568504Y480079D02*
Y484079D01*
X574504Y466079D02*
X582504D01*
Y474079*
X574504*
Y466079*
X578504Y470079D02*
Y474079D01*
X574504Y476079D02*
X582504D01*
Y484079*
X574504*
Y476079*
X578504Y480079D02*
Y484079D01*
X584504Y466079D02*
X592504D01*
Y474079*
X584504*
Y466079*
X588504Y470079D02*
Y474079D01*
X584504Y476079D02*
X592504D01*
Y484079*
X584504*
Y476079*
X588504Y480079D02*
Y484079D01*
X594504Y466079D02*
X602504D01*
Y474079*
X594504*
Y466079*
X598504Y470079D02*
Y474079D01*
X594504Y476079D02*
X602504D01*
Y484079*
X594504*
Y476079*
X598504Y480079D02*
Y484079D01*
X604504Y466079D02*
X612504D01*
Y474079*
X604504*
Y466079*
X608504Y470079D02*
Y474079D01*
X604504Y476079D02*
X612504D01*
Y484079*
X604504*
Y476079*
X608504Y480079D02*
Y484079D01*
X614504Y466079D02*
X622504D01*
Y474079*
X614504*
Y466079*
X618504Y470079D02*
Y474079D01*
X614504Y476079D02*
X622504D01*
Y484079*
X614504*
Y476079*
X618504Y480079D02*
Y484079D01*
X808598Y383402D02*
X816598D01*
Y391402*
X808598*
Y383402*
X812598Y387402D02*
Y391402D01*
X808598Y433402D02*
X816598D01*
Y441402*
X808598*
Y433402*
X812598Y437402D02*
Y441402D01*
X778598Y433402D02*
X786598D01*
Y441402*
X778598*
Y433402*
X782598Y437402D02*
Y441402D01*
X778598Y383402D02*
X786598D01*
Y391402*
X778598*
Y383402*
X782598Y387402D02*
Y391402D01*
X778598Y403402D02*
X786598D01*
Y411402*
X778598*
Y403402*
X782598Y407402D02*
Y411402D01*
X867654Y383402D02*
X875654D01*
Y391402*
X867654*
Y383402*
X871654Y387402D02*
Y391402D01*
X867654Y433402D02*
X875654D01*
Y441402*
X867654*
Y433402*
X871654Y437402D02*
Y441402D01*
X837654Y433402D02*
X845654D01*
Y441402*
X837654*
Y433402*
X841654Y437402D02*
Y441402D01*
X837654Y383402D02*
X845654D01*
Y391402*
X837654*
Y383402*
X841654Y387402D02*
Y391402D01*
X837654Y403402D02*
X845654D01*
Y411402*
X837654*
Y403402*
X841654Y407402D02*
Y411402D01*
X576315Y349937D02*
X584315D01*
Y357937*
X576315*
Y349937*
X580315Y353937D02*
Y357937D01*
X576315Y330252D02*
X584315D01*
Y338252*
X576315*
Y330252*
X580315Y334252D02*
Y338252D01*
X673177Y381059D02*
X681177D01*
X677177Y377059D02*
Y385059D01*
X680086Y386340D02*
X679177Y383059D01*
X680086Y386340D02*
X680995Y383059D01*
X679518Y384153D02*
X680654D01*
X673177Y374059D02*
X681177D01*
X677177Y370059D02*
Y378059D01*
X680086Y379340D02*
X679177Y376059D01*
X680086Y379340D02*
X680995Y376059D01*
X679518Y377153D02*
X680654D01*
X684583Y377559D02*
X692583D01*
X688583Y373559D02*
Y381559D01*
X691492Y382840D02*
X690583Y379559D01*
X691492Y382840D02*
X692401Y379559D01*
X690924Y380653D02*
X692060D01*
X724358Y381059D02*
X732358D01*
X728358Y377059D02*
Y385059D01*
X731267Y386340D02*
X730358Y383059D01*
X731267Y386340D02*
X732176Y383059D01*
X730699Y384153D02*
X731836D01*
X724358Y374059D02*
X732358D01*
X728358Y370059D02*
Y378059D01*
X731267Y379340D02*
X730358Y376059D01*
X731267Y379340D02*
X732176Y376059D01*
X730699Y377153D02*
X731836D01*
X735764Y377559D02*
X743764D01*
X739764Y373559D02*
Y381559D01*
X742673Y382840D02*
X741764Y379559D01*
X742673Y382840D02*
X743582Y379559D01*
X742105Y380653D02*
X743241D01*
X654618Y444083D02*
X662618D01*
X658618Y440083D02*
Y448083D01*
X661527Y449364D02*
X660618Y446083D01*
X661527Y449364D02*
X662436Y446083D01*
X660959Y447176D02*
X662095D01*
X647618Y444083D02*
X655618D01*
X651618Y440083D02*
Y448083D01*
X654527Y449364D02*
X653618Y446083D01*
X654527Y449364D02*
X655436Y446083D01*
X653959Y447176D02*
X655095D01*
X651118Y432677D02*
X659118D01*
X655118Y428677D02*
Y436677D01*
X658027Y437958D02*
X657118Y434677D01*
X658027Y437958D02*
X658936Y434677D01*
X657459Y435771D02*
X658595D01*
X705799Y444083D02*
X713799D01*
X709799Y440083D02*
Y448083D01*
X712708Y449364D02*
X711799Y446083D01*
X712708Y449364D02*
X713617Y446083D01*
X712140Y447176D02*
X713276D01*
X698799Y444083D02*
X706799D01*
X702799Y440083D02*
Y448083D01*
X705708Y449364D02*
X704799Y446083D01*
X705708Y449364D02*
X706617Y446083D01*
X705140Y447176D02*
X706276D01*
X702299Y432677D02*
X710299D01*
X706299Y428677D02*
Y436677D01*
X709208Y437958D02*
X708299Y434677D01*
X709208Y437958D02*
X710117Y434677D01*
X708640Y435771D02*
X709776D01*
X803098Y339720D02*
X811098D01*
X807098Y335720D02*
Y343720D01*
X810008Y345002D02*
X809098Y341720D01*
X810008Y345002D02*
X810917Y341720D01*
X809439Y342814D02*
X810576D01*
X803098Y332720D02*
X811098D01*
X807098Y328720D02*
Y336720D01*
X810008Y338002D02*
X809098Y334720D01*
X810008Y338002D02*
X810917Y334720D01*
X809439Y335814D02*
X810576D01*
X814504Y336220D02*
X822504D01*
X818504Y332220D02*
Y340220D01*
X821413Y341502D02*
X820504Y338220D01*
X821413Y341502D02*
X822322Y338220D01*
X820845Y339314D02*
X821981D01*
X862154Y339720D02*
X870154D01*
X866154Y335720D02*
Y343720D01*
X869063Y345002D02*
X868154Y341720D01*
X869063Y345002D02*
X869972Y341720D01*
X868494Y342814D02*
X869631D01*
X862154Y332720D02*
X870154D01*
X866154Y328720D02*
Y336720D01*
X869063Y338002D02*
X868154Y334720D01*
X869063Y338002D02*
X869972Y334720D01*
X868494Y335814D02*
X869631D01*
X873559Y336220D02*
X881559D01*
X877559Y332220D02*
Y340220D01*
X880468Y341502D02*
X879559Y338220D01*
X880468Y341502D02*
X881377Y338220D01*
X879900Y339314D02*
X881036D01*
X572815Y303161D02*
X580815D01*
X576815Y299161D02*
Y307161D01*
X579724Y308443D02*
X578815Y305161D01*
X579724Y308443D02*
X580633Y305161D01*
X579156Y306255D02*
X580292D01*
X579815Y303161D02*
X587815D01*
X583815Y299161D02*
Y307161D01*
X586724Y308443D02*
X585815Y305161D01*
X586724Y308443D02*
X587633Y305161D01*
X586156Y306255D02*
X587292D01*
X576315Y314567D02*
X584315D01*
X580315Y310567D02*
Y318567D01*
X583224Y319848D02*
X582315Y316567D01*
X583224Y319848D02*
X584133Y316567D01*
X582656Y317661D02*
X583792D01*
X658992Y399150D02*
X666992D01*
Y407150*
X658992*
Y399150*
X662992Y403150D02*
Y407150D01*
X648992Y399150D02*
X656992D01*
Y407150*
X648992*
Y399150*
X652992Y403150D02*
Y407150D01*
X648992Y369150D02*
X656992D01*
Y377150*
X648992*
Y369150*
X652992Y373150D02*
Y377150D01*
X658992Y369150D02*
X666992D01*
Y377150*
X658992*
Y369150*
X662992Y373150D02*
Y377150D01*
X710173Y399150D02*
X718173D01*
Y407150*
X710173*
Y399150*
X714173Y403150D02*
Y407150D01*
X700173Y399150D02*
X708173D01*
Y407150*
X700173*
Y399150*
X704173Y403150D02*
Y407150D01*
X700173Y369150D02*
X708173D01*
Y377150*
X700173*
Y369150*
X704173Y373150D02*
Y377150D01*
X710173Y369150D02*
X718173D01*
Y377150*
X710173*
Y369150*
X714173Y373150D02*
Y377150D01*
X808598Y371654D02*
X816598D01*
X812598Y367654D02*
Y375654D01*
X815508Y376935D02*
X814598Y373654D01*
X815508Y376935D02*
X816417Y373654D01*
X814939Y374747D02*
X816076D01*
X808598Y356398D02*
X816598D01*
X812598Y352398D02*
Y360398D01*
X815508Y361679D02*
X814598Y358398D01*
X815508Y361679D02*
X816417Y358398D01*
X814939Y359491D02*
X816076D01*
X867654Y371654D02*
X875654D01*
X871654Y367654D02*
Y375654D01*
X874563Y376935D02*
X873654Y373654D01*
X874563Y376935D02*
X875472Y373654D01*
X873994Y374747D02*
X875131D01*
X867654Y356398D02*
X875654D01*
X871654Y352398D02*
Y360398D01*
X874563Y361679D02*
X873654Y358398D01*
X874563Y361679D02*
X875472Y358398D01*
X873994Y359491D02*
X875131D01*
X773165Y355906D02*
X781165D01*
X777165Y351906D02*
Y359906D01*
X780074Y361187D02*
X779165Y357906D01*
X780074Y361187D02*
X780984Y357906D01*
X779506Y358999D02*
X780643D01*
X773165Y371161D02*
X781165D01*
X777165Y367161D02*
Y375161D01*
X780074Y376443D02*
X779165Y373161D01*
X780074Y376443D02*
X780984Y373161D01*
X779506Y374255D02*
X780643D01*
X735272Y300787D02*
X743272D01*
X739272Y296787D02*
Y304787D01*
X742181Y306069D02*
X741272Y302787D01*
X742181Y306069D02*
X743090Y302787D01*
X741613Y303881D02*
X742749D01*
X763815Y300787D02*
X771815D01*
X767815Y296787D02*
Y304787D01*
X770724Y306069D02*
X769815Y302787D01*
X770724Y306069D02*
X771633Y302787D01*
X770156Y303881D02*
X771292D01*
X838618Y111811D02*
X846618D01*
X842618Y107811D02*
Y115811D01*
X845527Y117092D02*
X844618Y113811D01*
X845527Y117092D02*
X846436Y113811D01*
X844959Y114905D02*
X846095D01*
X810075Y111811D02*
X818075D01*
X814075Y107811D02*
Y115811D01*
X816984Y117092D02*
X816075Y113811D01*
X816984Y117092D02*
X817893Y113811D01*
X816416Y114905D02*
X817552D01*
X676217Y143307D02*
X684217D01*
X680217Y139307D02*
Y147307D01*
X683126Y148588D02*
X682217Y145307D01*
X683126Y148588D02*
X684035Y145307D01*
X682557Y146401D02*
X683694D01*
X704760Y143307D02*
X712760D01*
X708760Y139307D02*
Y147307D01*
X711669Y148588D02*
X710760Y145307D01*
X711669Y148588D02*
X712578Y145307D01*
X711101Y146401D02*
X712237D01*
X941965Y202362D02*
X949965D01*
X945965Y198362D02*
Y206362D01*
X948874Y207643D02*
X947965Y204362D01*
X948874Y207643D02*
X949783Y204362D01*
X948305Y205456D02*
X949442D01*
X970508Y202362D02*
X978508D01*
X974508Y198362D02*
Y206362D01*
X977417Y207643D02*
X976508Y204362D01*
X977417Y207643D02*
X978326Y204362D01*
X976849Y205456D02*
X977985D01*
X672772Y399213D02*
X680772D01*
X676772Y395213D02*
Y403213D01*
X679681Y404494D02*
X678772Y401213D01*
X679681Y404494D02*
X680590Y401213D01*
X679113Y402306D02*
X680249D01*
X684583Y399213D02*
X692583D01*
X688583Y395213D02*
Y403213D01*
X691492Y404494D02*
X690583Y401213D01*
X691492Y404494D02*
X692401Y401213D01*
X690924Y402306D02*
X692060D01*
X698362Y416929D02*
X706362D01*
X702362Y412929D02*
Y420929D01*
X705271Y422210D02*
X704362Y418929D01*
X705271Y422210D02*
X706180Y418929D01*
X704703Y420023D02*
X705839D01*
X710173Y416929D02*
X718173D01*
X714173Y412929D02*
Y420929D01*
X717082Y422210D02*
X716173Y418929D01*
X717082Y422210D02*
X717991Y418929D01*
X716514Y420023D02*
X717651D01*
X670803Y444488D02*
X678803D01*
X674803Y440488D02*
Y448488D01*
X677712Y449769D02*
X676803Y446488D01*
X677712Y449769D02*
X678621Y446488D01*
X677144Y447582D02*
X678280D01*
X670803Y432677D02*
X678803D01*
X674803Y428677D02*
Y436677D01*
X677712Y437958D02*
X676803Y434677D01*
X677712Y437958D02*
X678621Y434677D01*
X677144Y435771D02*
X678280D01*
X721984Y444488D02*
X729984D01*
X725984Y440488D02*
Y448488D01*
X728893Y449769D02*
X727984Y446488D01*
X728893Y449769D02*
X729802Y446488D01*
X728325Y447582D02*
X729462D01*
X721984Y432677D02*
X729984D01*
X725984Y428677D02*
Y436677D01*
X728893Y437958D02*
X727984Y434677D01*
X728893Y437958D02*
X729802Y434677D01*
X728325Y435771D02*
X729462D01*
X662929Y432677D02*
X670929D01*
X666929Y428677D02*
Y436677D01*
X669838Y437958D02*
X668929Y434677D01*
X669838Y437958D02*
X670747Y434677D01*
X669270Y435771D02*
X670406D01*
X662929Y444488D02*
X670929D01*
X666929Y440488D02*
Y448488D01*
X669838Y449769D02*
X668929Y446488D01*
X669838Y449769D02*
X670747Y446488D01*
X669270Y447582D02*
X670406D01*
X714110Y432677D02*
X722110D01*
X718110Y428677D02*
Y436677D01*
X721019Y437958D02*
X720110Y434677D01*
X721019Y437958D02*
X721928Y434677D01*
X720451Y435771D02*
X721588D01*
X714110Y444488D02*
X722110D01*
X718110Y440488D02*
Y448488D01*
X721019Y449769D02*
X720110Y446488D01*
X721019Y449769D02*
X721928Y446488D01*
X720451Y447582D02*
X721588D01*
X784976Y330315D02*
X792976D01*
X788976Y326315D02*
Y334315D01*
X791885Y335596D02*
X790976Y332315D01*
X791885Y335596D02*
X792795Y332315D01*
X791317Y333409D02*
X792454D01*
X784976Y342126D02*
X792976D01*
X788976Y338126D02*
Y346126D01*
X791885Y347407D02*
X790976Y344126D01*
X791885Y347407D02*
X792795Y344126D01*
X791317Y345220D02*
X792454D01*
X844031Y330315D02*
X852031D01*
X848031Y326315D02*
Y334315D01*
X850941Y335596D02*
X850031Y332315D01*
X850941Y335596D02*
X851850Y332315D01*
X850372Y333409D02*
X851509D01*
X844031Y342126D02*
X852031D01*
X848031Y338126D02*
Y346126D01*
X850941Y347407D02*
X850031Y344126D01*
X850941Y347407D02*
X851850Y344126D01*
X850372Y345220D02*
X851509D01*
X792850Y330315D02*
X800850D01*
X796850Y326315D02*
Y334315D01*
X799759Y335596D02*
X798850Y332315D01*
X799759Y335596D02*
X800669Y332315D01*
X799191Y333409D02*
X800328D01*
X792850Y342126D02*
X800850D01*
X796850Y338126D02*
Y346126D01*
X799759Y347407D02*
X798850Y344126D01*
X799759Y347407D02*
X800669Y344126D01*
X799191Y345220D02*
X800328D01*
X723953Y399213D02*
X731953D01*
X727953Y395213D02*
Y403213D01*
X730862Y404494D02*
X729953Y401213D01*
X730862Y404494D02*
X731771Y401213D01*
X730294Y402306D02*
X731430D01*
X735764Y399213D02*
X743764D01*
X739764Y395213D02*
Y403213D01*
X742673Y404494D02*
X741764Y401213D01*
X742673Y404494D02*
X743582Y401213D01*
X742105Y402306D02*
X743241D01*
X851906Y330315D02*
X859906D01*
X855906Y326315D02*
Y334315D01*
X858815Y335596D02*
X857906Y332315D01*
X858815Y335596D02*
X859724Y332315D01*
X858246Y333409D02*
X859383D01*
X851906Y342126D02*
X859906D01*
X855906Y338126D02*
Y346126D01*
X858815Y347407D02*
X857906Y344126D01*
X858815Y347407D02*
X859724Y344126D01*
X858246Y345220D02*
X859383D01*
X991669Y367717D02*
X999669D01*
X995669Y363717D02*
Y371717D01*
X998578Y372998D02*
X997669Y369717D01*
X998578Y372998D02*
X999487Y369717D01*
X998010Y370810D02*
X999147D01*
X1003480Y367717D02*
X1011480D01*
X1007480Y363717D02*
Y371717D01*
X1010389Y372998D02*
X1009480Y369717D01*
X1010389Y372998D02*
X1011298Y369717D01*
X1009821Y370810D02*
X1010958D01*
X991669Y336220D02*
X999669D01*
X995669Y332220D02*
Y340220D01*
X998578Y341502D02*
X997669Y338220D01*
X998578Y341502D02*
X999487Y338220D01*
X998010Y339314D02*
X999147D01*
X1003480Y336220D02*
X1011480D01*
X1007480Y332220D02*
Y340220D01*
X1010389Y341502D02*
X1009480Y338220D01*
X1010389Y341502D02*
X1011298Y338220D01*
X1009821Y339314D02*
X1010958D01*
X991669Y304724D02*
X999669D01*
X995669Y300724D02*
Y308724D01*
X998578Y310006D02*
X997669Y306724D01*
X998578Y310006D02*
X999487Y306724D01*
X998010Y307818D02*
X999147D01*
X1003480Y304724D02*
X1011480D01*
X1007480Y300724D02*
Y308724D01*
X1010389Y310006D02*
X1009480Y306724D01*
X1010389Y310006D02*
X1011298Y306724D01*
X1009821Y307818D02*
X1010958D01*
X991669Y273228D02*
X999669D01*
X995669Y269228D02*
Y277228D01*
X998578Y278510D02*
X997669Y275228D01*
X998578Y278510D02*
X999487Y275228D01*
X998010Y276322D02*
X999147D01*
X1003480Y273228D02*
X1011480D01*
X1007480Y269228D02*
Y277228D01*
X1010389Y278510D02*
X1009480Y275228D01*
X1010389Y278510D02*
X1011298Y275228D01*
X1009821Y276322D02*
X1010958D01*
X991669Y241732D02*
X999669D01*
X995669Y237732D02*
Y245732D01*
X998578Y247014D02*
X997669Y243732D01*
X998578Y247014D02*
X999487Y243732D01*
X998010Y244826D02*
X999147D01*
X1003480Y241732D02*
X1011480D01*
X1007480Y237732D02*
Y245732D01*
X1010389Y247014D02*
X1009480Y243732D01*
X1010389Y247014D02*
X1011298Y243732D01*
X1009821Y244826D02*
X1010958D01*
X991669Y210236D02*
X999669D01*
X995669Y206236D02*
Y214236D01*
X998578Y215517D02*
X997669Y212236D01*
X998578Y215517D02*
X999487Y212236D01*
X998010Y213330D02*
X999147D01*
X1003480Y210236D02*
X1011480D01*
X1007480Y206236D02*
Y214236D01*
X1010389Y215517D02*
X1009480Y212236D01*
X1010389Y215517D02*
X1011298Y212236D01*
X1009821Y213330D02*
X1010958D01*
X527102Y135433D02*
X535102D01*
X531102Y131433D02*
Y139433D01*
X534011Y140714D02*
X533102Y137433D01*
X534011Y140714D02*
X534921Y137433D01*
X533443Y138527D02*
X534580D01*
X515291Y135433D02*
X523291D01*
X519291Y131433D02*
Y139433D01*
X522200Y140714D02*
X521291Y137433D01*
X522200Y140714D02*
X523110Y137433D01*
X521632Y138527D02*
X522769D01*
X536945Y168898D02*
X544945D01*
X540945Y164898D02*
Y172898D01*
X543854Y174179D02*
X542945Y170898D01*
X543854Y174179D02*
X544763Y170898D01*
X543286Y171991D02*
X544422D01*
X536945Y157087D02*
X544945D01*
X540945Y153087D02*
Y161087D01*
X543854Y162368D02*
X542945Y159087D01*
X543854Y162368D02*
X544763Y159087D01*
X543286Y160180D02*
X544422D01*
X562535Y292913D02*
X570535D01*
X566535Y288913D02*
Y296913D01*
X569445Y298195D02*
X568535Y294913D01*
X569445Y298195D02*
X570354Y294913D01*
X568876Y296007D02*
X570013D01*
X550724Y292913D02*
X558724D01*
X554724Y288913D02*
Y296913D01*
X557634Y298195D02*
X556724Y294913D01*
X557634Y298195D02*
X558543Y294913D01*
X557065Y296007D02*
X558202D01*
X658992Y424803D02*
X666992D01*
X662992Y420803D02*
Y428803D01*
X665901Y430084D02*
X664992Y426803D01*
X665901Y430084D02*
X666810Y426803D01*
X665333Y427897D02*
X666469D01*
X647181Y424803D02*
X655181D01*
X651181Y420803D02*
Y428803D01*
X654090Y430084D02*
X653181Y426803D01*
X654090Y430084D02*
X654999Y426803D01*
X653522Y427897D02*
X654658D01*
X147181Y365748D02*
X155181D01*
X151181Y361748D02*
Y369748D01*
X154090Y371029D02*
X153181Y367748D01*
X154090Y371029D02*
X154999Y367748D01*
X153522Y368842D02*
X154658D01*
X147181Y353937D02*
X155181D01*
X151181Y349937D02*
Y357937D01*
X154090Y359218D02*
X153181Y355937D01*
X154090Y359218D02*
X154999Y355937D01*
X153522Y357031D02*
X154658D01*
X552693Y302756D02*
X560693D01*
X556693Y298756D02*
Y306756D01*
X559602Y308037D02*
X558693Y304756D01*
X559602Y308037D02*
X560511Y304756D01*
X559034Y305850D02*
X560170D01*
X552693Y314567D02*
X560693D01*
X556693Y310567D02*
Y318567D01*
X559602Y319848D02*
X558693Y316567D01*
X559602Y319848D02*
X560511Y316567D01*
X559034Y317661D02*
X560170D01*
X690488Y279134D02*
X698488D01*
X694488Y275134D02*
Y283134D01*
X697397Y284415D02*
X696488Y281134D01*
X697397Y284415D02*
X698306Y281134D01*
X696829Y282228D02*
X697965D01*
X690488Y267323D02*
X698488D01*
X694488Y263323D02*
Y271323D01*
X697397Y272604D02*
X696488Y269323D01*
X697397Y272604D02*
X698306Y269323D01*
X696829Y270417D02*
X697965D01*
X682614Y298819D02*
X690614D01*
X686614Y294819D02*
Y302819D01*
X689523Y304100D02*
X688614Y300819D01*
X689523Y304100D02*
X690432Y300819D01*
X688955Y301913D02*
X690091D01*
X682614Y310630D02*
X690614D01*
X686614Y306630D02*
Y314630D01*
X689523Y315911D02*
X688614Y312630D01*
X689523Y315911D02*
X690432Y312630D01*
X688955Y313724D02*
X690091D01*
X434583Y267323D02*
X442583D01*
X438583Y263323D02*
Y271323D01*
X441492Y272604D02*
X440583Y269323D01*
X441492Y272604D02*
X442401Y269323D01*
X440924Y270417D02*
X442060D01*
X434583Y279134D02*
X442583D01*
X438583Y275134D02*
Y283134D01*
X441492Y284415D02*
X440583Y281134D01*
X441492Y284415D02*
X442401Y281134D01*
X440924Y282228D02*
X442060D01*
X442457Y267323D02*
X450457D01*
X446457Y263323D02*
Y271323D01*
X449366Y272604D02*
X448457Y269323D01*
X449366Y272604D02*
X450275Y269323D01*
X448798Y270417D02*
X449934D01*
X442457Y279134D02*
X450457D01*
X446457Y275134D02*
Y283134D01*
X449366Y284415D02*
X448457Y281134D01*
X449366Y284415D02*
X450275Y281134D01*
X448798Y282228D02*
X449934D01*
X450331Y267323D02*
X458331D01*
X454331Y263323D02*
Y271323D01*
X457240Y272604D02*
X456331Y269323D01*
X457240Y272604D02*
X458149Y269323D01*
X456672Y270417D02*
X457808D01*
X450331Y279134D02*
X458331D01*
X454331Y275134D02*
Y283134D01*
X457240Y284415D02*
X456331Y281134D01*
X457240Y284415D02*
X458149Y281134D01*
X456672Y282228D02*
X457808D01*
X458205Y267323D02*
X466205D01*
X462205Y263323D02*
Y271323D01*
X465114Y272604D02*
X464205Y269323D01*
X465114Y272604D02*
X466023Y269323D01*
X464546Y270417D02*
X465682D01*
X458205Y279134D02*
X466205D01*
X462205Y275134D02*
Y283134D01*
X465114Y284415D02*
X464205Y281134D01*
X465114Y284415D02*
X466023Y281134D01*
X464546Y282228D02*
X465682D01*
X503480Y198425D02*
X511480D01*
X507480Y194425D02*
Y202425D01*
X510389Y203706D02*
X509480Y200425D01*
X510389Y203706D02*
X511298Y200425D01*
X509821Y201519D02*
X510958D01*
X491669Y198425D02*
X499669D01*
X495669Y194425D02*
Y202425D01*
X498578Y203706D02*
X497669Y200425D01*
X498578Y203706D02*
X499487Y200425D01*
X498010Y201519D02*
X499147D01*
X682614Y279134D02*
X690614D01*
X686614Y275134D02*
Y283134D01*
X689523Y284415D02*
X688614Y281134D01*
X689523Y284415D02*
X690432Y281134D01*
X688955Y282228D02*
X690091D01*
X682614Y267323D02*
X690614D01*
X686614Y263323D02*
Y271323D01*
X689523Y272604D02*
X688614Y269323D01*
X689523Y272604D02*
X690432Y269323D01*
X688955Y270417D02*
X690091D01*
X269228Y194488D02*
X277228D01*
X273228Y190488D02*
Y198488D01*
X276137Y199769D02*
X275228Y196488D01*
X276137Y199769D02*
X277047Y196488D01*
X275569Y197582D02*
X276706D01*
X257417Y194488D02*
X265417D01*
X261417Y190488D02*
Y198488D01*
X264326Y199769D02*
X263417Y196488D01*
X264326Y199769D02*
X265236Y196488D01*
X263758Y197582D02*
X264895D01*
X160961Y170866D02*
X168961D01*
X164961Y166866D02*
Y174866D01*
X167870Y176147D02*
X166961Y172866D01*
X167870Y176147D02*
X168779Y172866D01*
X167302Y173960D02*
X168438D01*
X172772Y170866D02*
X180772D01*
X176772Y166866D02*
Y174866D01*
X179681Y176147D02*
X178772Y172866D01*
X179681Y176147D02*
X180590Y172866D01*
X179113Y173960D02*
X180249D01*
X160961Y162992D02*
X168961D01*
X164961Y158992D02*
Y166992D01*
X167870Y168273D02*
X166961Y164992D01*
X167870Y168273D02*
X168779Y164992D01*
X167302Y166086D02*
X168438D01*
X172772Y162992D02*
X180772D01*
X176772Y158992D02*
Y166992D01*
X179681Y168273D02*
X178772Y164992D01*
X179681Y168273D02*
X180590Y164992D01*
X179113Y166086D02*
X180249D01*
X247575Y190551D02*
X255575D01*
X251575Y186551D02*
Y194551D01*
X254484Y195832D02*
X253575Y192551D01*
X254484Y195832D02*
X255393Y192551D01*
X253916Y193645D02*
X255052D01*
X235764Y190551D02*
X243764D01*
X239764Y186551D02*
Y194551D01*
X242673Y195832D02*
X241764Y192551D01*
X242673Y195832D02*
X243582Y192551D01*
X242105Y193645D02*
X243241D01*
X247575Y182677D02*
X255575D01*
X251575Y178677D02*
Y186677D01*
X254484Y187958D02*
X253575Y184677D01*
X254484Y187958D02*
X255393Y184677D01*
X253916Y185771D02*
X255052D01*
X235764Y182677D02*
X243764D01*
X239764Y178677D02*
Y186677D01*
X242673Y187958D02*
X241764Y184677D01*
X242673Y187958D02*
X243582Y184677D01*
X242105Y185771D02*
X243241D01*
X172772Y178740D02*
X180772D01*
X176772Y174740D02*
Y182740D01*
X179681Y184021D02*
X178772Y180740D01*
X179681Y184021D02*
X180590Y180740D01*
X179113Y181834D02*
X180249D01*
X160961Y178740D02*
X168961D01*
X164961Y174740D02*
Y182740D01*
X167870Y184021D02*
X166961Y180740D01*
X167870Y184021D02*
X168779Y180740D01*
X167302Y181834D02*
X168438D01*
X257417Y170866D02*
X265417D01*
X261417Y166866D02*
Y174866D01*
X264326Y176147D02*
X263417Y172866D01*
X264326Y176147D02*
X265236Y172866D01*
X263758Y173960D02*
X264895D01*
X269228Y170866D02*
X277228D01*
X273228Y166866D02*
Y174866D01*
X276137Y176147D02*
X275228Y172866D01*
X276137Y176147D02*
X277047Y172866D01*
X275569Y173960D02*
X276706D01*
X172772Y194488D02*
X180772D01*
X176772Y190488D02*
Y198488D01*
X179681Y199769D02*
X178772Y196488D01*
X179681Y199769D02*
X180590Y196488D01*
X179113Y197582D02*
X180249D01*
X160961Y194488D02*
X168961D01*
X164961Y190488D02*
Y198488D01*
X167870Y199769D02*
X166961Y196488D01*
X167870Y199769D02*
X168779Y196488D01*
X167302Y197582D02*
X168438D01*
X247575Y174803D02*
X255575D01*
X251575Y170803D02*
Y178803D01*
X254484Y180084D02*
X253575Y176803D01*
X254484Y180084D02*
X255393Y176803D01*
X253916Y177897D02*
X255052D01*
X235764Y174803D02*
X243764D01*
X239764Y170803D02*
Y178803D01*
X242673Y180084D02*
X241764Y176803D01*
X242673Y180084D02*
X243582Y176803D01*
X242105Y177897D02*
X243241D01*
X710173Y424803D02*
X718173D01*
X714173Y420803D02*
Y428803D01*
X717082Y430084D02*
X716173Y426803D01*
X717082Y430084D02*
X717991Y426803D01*
X716514Y427897D02*
X717651D01*
X698362Y424803D02*
X706362D01*
X702362Y420803D02*
Y428803D01*
X705271Y430084D02*
X704362Y426803D01*
X705271Y430084D02*
X706180Y426803D01*
X704703Y427897D02*
X705839D01*
X247575Y166929D02*
X255575D01*
X251575Y162929D02*
Y170929D01*
X254484Y172210D02*
X253575Y168929D01*
X254484Y172210D02*
X255393Y168929D01*
X253916Y170023D02*
X255052D01*
X235764Y166929D02*
X243764D01*
X239764Y162929D02*
Y170929D01*
X242673Y172210D02*
X241764Y168929D01*
X242673Y172210D02*
X243582Y168929D01*
X242105Y170023D02*
X243241D01*
X172772Y186614D02*
X180772D01*
X176772Y182614D02*
Y190614D01*
X179681Y191895D02*
X178772Y188614D01*
X179681Y191895D02*
X180590Y188614D01*
X179113Y189708D02*
X180249D01*
X160961Y186614D02*
X168961D01*
X164961Y182614D02*
Y190614D01*
X167870Y191895D02*
X166961Y188614D01*
X167870Y191895D02*
X168779Y188614D01*
X167302Y189708D02*
X168438D01*
X464110Y170866D02*
X472110D01*
X468110Y166866D02*
Y174866D01*
X471019Y176147D02*
X470110Y172866D01*
X471019Y176147D02*
X471928Y172866D01*
X470451Y173960D02*
X471588D01*
X452299Y170866D02*
X460299D01*
X456299Y166866D02*
Y174866D01*
X459208Y176147D02*
X458299Y172866D01*
X459208Y176147D02*
X460117Y172866D01*
X458640Y173960D02*
X459776D01*
X477890Y200394D02*
X485890D01*
X481890Y196394D02*
Y204394D01*
X484799Y205675D02*
X483890Y202394D01*
X484799Y205675D02*
X485708Y202394D01*
X484231Y203487D02*
X485367D01*
X477890Y188583D02*
X485890D01*
X481890Y184583D02*
Y192583D01*
X484799Y193864D02*
X483890Y190583D01*
X484799Y193864D02*
X485708Y190583D01*
X484231Y191676D02*
X485367D01*
X408992Y170866D02*
X416992D01*
X412992Y166866D02*
Y174866D01*
X415901Y176147D02*
X414992Y172866D01*
X415901Y176147D02*
X416810Y172866D01*
X415333Y173960D02*
X416469D01*
X420803Y170866D02*
X428803D01*
X424803Y166866D02*
Y174866D01*
X427712Y176147D02*
X426803Y172866D01*
X427712Y176147D02*
X428621Y172866D01*
X427144Y173960D02*
X428280D01*
X408992Y162992D02*
X416992D01*
X412992Y158992D02*
Y166992D01*
X415901Y168273D02*
X414992Y164992D01*
X415901Y168273D02*
X416810Y164992D01*
X415333Y166086D02*
X416469D01*
X420803Y162992D02*
X428803D01*
X424803Y158992D02*
Y166992D01*
X427712Y168273D02*
X426803Y164992D01*
X427712Y168273D02*
X428621Y164992D01*
X427144Y166086D02*
X428280D01*
X151118Y303740D02*
X159118D01*
X155118Y299740D02*
Y307740D01*
X158027Y309021D02*
X157118Y305740D01*
X158027Y309021D02*
X158936Y305740D01*
X157459Y306834D02*
X158595D01*
X151118Y315551D02*
X159118D01*
X155118Y311551D02*
Y319551D01*
X158027Y320832D02*
X157118Y317551D01*
X158027Y320832D02*
X158936Y317551D01*
X157459Y318645D02*
X158595D01*
X158992Y303740D02*
X166992D01*
X162992Y299740D02*
Y307740D01*
X165901Y309021D02*
X164992Y305740D01*
X165901Y309021D02*
X166810Y305740D01*
X165333Y306834D02*
X166469D01*
X158992Y315551D02*
X166992D01*
X162992Y311551D02*
Y319551D01*
X165901Y320832D02*
X164992Y317551D01*
X165901Y320832D02*
X166810Y317551D01*
X165333Y318645D02*
X166469D01*
X153087Y186614D02*
X161087D01*
X157087Y182614D02*
Y190614D01*
X159996Y191895D02*
X159087Y188614D01*
X159996Y191895D02*
X160905Y188614D01*
X159428Y189708D02*
X160564D01*
X141276Y186614D02*
X149276D01*
X145276Y182614D02*
Y190614D01*
X148185Y191895D02*
X147276Y188614D01*
X148185Y191895D02*
X149094Y188614D01*
X147616Y189708D02*
X148753D01*
X153087Y178740D02*
X161087D01*
X157087Y174740D02*
Y182740D01*
X159996Y184021D02*
X159087Y180740D01*
X159996Y184021D02*
X160905Y180740D01*
X159428Y181834D02*
X160564D01*
X141276Y178740D02*
X149276D01*
X145276Y174740D02*
Y182740D01*
X148185Y184021D02*
X147276Y180740D01*
X148185Y184021D02*
X149094Y180740D01*
X147616Y181834D02*
X148753D01*
X503480Y190551D02*
X511480D01*
X507480Y186551D02*
Y194551D01*
X510389Y195832D02*
X509480Y192551D01*
X510389Y195832D02*
X511298Y192551D01*
X509821Y193645D02*
X510958D01*
X491669Y190551D02*
X499669D01*
X495669Y186551D02*
Y194551D01*
X498578Y195832D02*
X497669Y192551D01*
X498578Y195832D02*
X499487Y192551D01*
X498010Y193645D02*
X499147D01*
X153087Y162992D02*
X161087D01*
X157087Y158992D02*
Y166992D01*
X159996Y168273D02*
X159087Y164992D01*
X159996Y168273D02*
X160905Y164992D01*
X159428Y166086D02*
X160564D01*
X141276Y162992D02*
X149276D01*
X145276Y158992D02*
Y166992D01*
X148185Y168273D02*
X147276Y164992D01*
X148185Y168273D02*
X149094Y164992D01*
X147616Y166086D02*
X148753D01*
X153087Y170866D02*
X161087D01*
X157087Y166866D02*
Y174866D01*
X159996Y176147D02*
X159087Y172866D01*
X159996Y176147D02*
X160905Y172866D01*
X159428Y173960D02*
X160564D01*
X141276Y170866D02*
X149276D01*
X145276Y166866D02*
Y174866D01*
X148185Y176147D02*
X147276Y172866D01*
X148185Y176147D02*
X149094Y172866D01*
X147616Y173960D02*
X148753D01*
X153087Y225984D02*
X161087D01*
X157087Y221984D02*
Y229984D01*
X159996Y231266D02*
X159087Y227984D01*
X159996Y231266D02*
X160905Y227984D01*
X159428Y229078D02*
X160564D01*
X141276Y225984D02*
X149276D01*
X145276Y221984D02*
Y229984D01*
X148185Y231266D02*
X147276Y227984D01*
X148185Y231266D02*
X149094Y227984D01*
X147616Y229078D02*
X148753D01*
X153087Y218110D02*
X161087D01*
X157087Y214110D02*
Y222110D01*
X159996Y223391D02*
X159087Y220110D01*
X159996Y223391D02*
X160905Y220110D01*
X159428Y221204D02*
X160564D01*
X141276Y218110D02*
X149276D01*
X145276Y214110D02*
Y222110D01*
X148185Y223391D02*
X147276Y220110D01*
X148185Y223391D02*
X149094Y220110D01*
X147616Y221204D02*
X148753D01*
X160961Y218110D02*
X168961D01*
X164961Y214110D02*
Y222110D01*
X167870Y223391D02*
X166961Y220110D01*
X167870Y223391D02*
X168779Y220110D01*
X167302Y221204D02*
X168438D01*
X172772Y218110D02*
X180772D01*
X176772Y214110D02*
Y222110D01*
X179681Y223391D02*
X178772Y220110D01*
X179681Y223391D02*
X180590Y220110D01*
X179113Y221204D02*
X180249D01*
X160961Y225984D02*
X168961D01*
X164961Y221984D02*
Y229984D01*
X167870Y231266D02*
X166961Y227984D01*
X167870Y231266D02*
X168779Y227984D01*
X167302Y229078D02*
X168438D01*
X172772Y225984D02*
X180772D01*
X176772Y221984D02*
Y229984D01*
X179681Y231266D02*
X178772Y227984D01*
X179681Y231266D02*
X180590Y227984D01*
X179113Y229078D02*
X180249D01*
X269228Y162992D02*
X277228D01*
X273228Y158992D02*
Y166992D01*
X276137Y168273D02*
X275228Y164992D01*
X276137Y168273D02*
X277047Y164992D01*
X275569Y166086D02*
X276706D01*
X257417Y162992D02*
X265417D01*
X261417Y158992D02*
Y166992D01*
X264326Y168273D02*
X263417Y164992D01*
X264326Y168273D02*
X265236Y164992D01*
X263758Y166086D02*
X264895D01*
X141276Y194488D02*
X149276D01*
X145276Y190488D02*
Y198488D01*
X148185Y199769D02*
X147276Y196488D01*
X148185Y199769D02*
X149094Y196488D01*
X147616Y197582D02*
X148753D01*
X153087Y194488D02*
X161087D01*
X157087Y190488D02*
Y198488D01*
X159996Y199769D02*
X159087Y196488D01*
X159996Y199769D02*
X160905Y196488D01*
X159428Y197582D02*
X160564D01*
X877496Y139370D02*
X885496D01*
X881496Y135370D02*
Y143370D01*
X884405Y144651D02*
X883496Y141370D01*
X884405Y144651D02*
X885314Y141370D01*
X883837Y142464D02*
X884973D01*
X877496Y151181D02*
X885496D01*
X881496Y147181D02*
Y155181D01*
X884405Y156462D02*
X883496Y153181D01*
X884405Y156462D02*
X885314Y153181D01*
X883837Y154275D02*
X884973D01*
X672772Y391339D02*
X680772D01*
X676772Y387339D02*
Y395339D01*
X679681Y396620D02*
X678772Y393339D01*
X679681Y396620D02*
X680590Y393339D01*
X679113Y394432D02*
X680249D01*
X684583Y391339D02*
X692583D01*
X688583Y387339D02*
Y395339D01*
X691492Y396620D02*
X690583Y393339D01*
X691492Y396620D02*
X692401Y393339D01*
X690924Y394432D02*
X692060D01*
X834189Y174803D02*
X842189D01*
X838189Y170803D02*
Y178803D01*
X841098Y180084D02*
X840189Y176803D01*
X841098Y180084D02*
X842007Y176803D01*
X840530Y177897D02*
X841666D01*
X822378Y174803D02*
X830378D01*
X826378Y170803D02*
Y178803D01*
X829287Y180084D02*
X828378Y176803D01*
X829287Y180084D02*
X830196Y176803D01*
X828719Y177897D02*
X829855D01*
X633402Y145276D02*
X641402D01*
X637402Y141276D02*
Y149276D01*
X640311Y150557D02*
X639402Y147276D01*
X640311Y150557D02*
X641220Y147276D01*
X639742Y148369D02*
X640879D01*
X633402Y133465D02*
X641402D01*
X637402Y129465D02*
Y137465D01*
X640311Y138746D02*
X639402Y135465D01*
X640311Y138746D02*
X641220Y135465D01*
X639742Y136558D02*
X640879D01*
X625528Y157087D02*
X633528D01*
X629528Y153087D02*
Y161087D01*
X632437Y162368D02*
X631528Y159087D01*
X632437Y162368D02*
X633346Y159087D01*
X631868Y160180D02*
X633005D01*
X625528Y168898D02*
X633528D01*
X629528Y164898D02*
Y172898D01*
X632437Y174179D02*
X631528Y170898D01*
X632437Y174179D02*
X633346Y170898D01*
X631868Y171991D02*
X633005D01*
X578283Y241732D02*
X586283D01*
X582283Y237732D02*
Y245732D01*
X585193Y247014D02*
X584283Y243732D01*
X585193Y247014D02*
X586102Y243732D01*
X584624Y244826D02*
X585761D01*
X578283Y253543D02*
X586283D01*
X582283Y249543D02*
Y257543D01*
X585193Y258825D02*
X584283Y255543D01*
X585193Y258825D02*
X586102Y255543D01*
X584624Y256637D02*
X585761D01*
X822378Y166929D02*
X830378D01*
X826378Y162929D02*
Y170929D01*
X829287Y172210D02*
X828378Y168929D01*
X829287Y172210D02*
X830196Y168929D01*
X828719Y170023D02*
X829855D01*
X834189Y166929D02*
X842189D01*
X838189Y162929D02*
Y170929D01*
X841098Y172210D02*
X840189Y168929D01*
X841098Y172210D02*
X842007Y168929D01*
X840530Y170023D02*
X841666D01*
X625528Y145276D02*
X633528D01*
X629528Y141276D02*
Y149276D01*
X632437Y150557D02*
X631528Y147276D01*
X632437Y150557D02*
X633346Y147276D01*
X631868Y148369D02*
X633005D01*
X625528Y133465D02*
X633528D01*
X629528Y129465D02*
Y137465D01*
X632437Y138746D02*
X631528Y135465D01*
X632437Y138746D02*
X633346Y135465D01*
X631868Y136558D02*
X633005D01*
X891276Y196457D02*
X899276D01*
X895276Y192457D02*
Y200457D01*
X898185Y201738D02*
X897276Y198457D01*
X898185Y201738D02*
X899094Y198457D01*
X897616Y199550D02*
X898753D01*
X891276Y208268D02*
X899276D01*
X895276Y204268D02*
Y212268D01*
X898185Y213549D02*
X897276Y210268D01*
X898185Y213549D02*
X899094Y210268D01*
X897616Y211361D02*
X898753D01*
X891276Y176772D02*
X899276D01*
X895276Y172772D02*
Y180772D01*
X898185Y182053D02*
X897276Y178772D01*
X898185Y182053D02*
X899094Y178772D01*
X897616Y179865D02*
X898753D01*
X891276Y188583D02*
X899276D01*
X895276Y184583D02*
Y192583D01*
X898185Y193864D02*
X897276Y190583D01*
X898185Y193864D02*
X899094Y190583D01*
X897616Y191676D02*
X898753D01*
X723953Y391339D02*
X731953D01*
X727953Y387339D02*
Y395339D01*
X730862Y396620D02*
X729953Y393339D01*
X730862Y396620D02*
X731771Y393339D01*
X730294Y394432D02*
X731430D01*
X735764Y391339D02*
X743764D01*
X739764Y387339D02*
Y395339D01*
X742673Y396620D02*
X741764Y393339D01*
X742673Y396620D02*
X743582Y393339D01*
X742105Y394432D02*
X743241D01*
X899150Y168898D02*
X907150D01*
X903150Y164898D02*
Y172898D01*
X906059Y174179D02*
X905150Y170898D01*
X906059Y174179D02*
X906968Y170898D01*
X905491Y171991D02*
X906627D01*
X899150Y157087D02*
X907150D01*
X903150Y153087D02*
Y161087D01*
X906059Y162368D02*
X905150Y159087D01*
X906059Y162368D02*
X906968Y159087D01*
X905491Y160180D02*
X906627D01*
X891276Y168898D02*
X899276D01*
X895276Y164898D02*
Y172898D01*
X898185Y174179D02*
X897276Y170898D01*
X898185Y174179D02*
X899094Y170898D01*
X897616Y171991D02*
X898753D01*
X891276Y157087D02*
X899276D01*
X895276Y153087D02*
Y161087D01*
X898185Y162368D02*
X897276Y159087D01*
X898185Y162368D02*
X899094Y159087D01*
X897616Y160180D02*
X898753D01*
X647181Y416929D02*
X655181D01*
X651181Y412929D02*
Y420929D01*
X654090Y422210D02*
X653181Y418929D01*
X654090Y422210D02*
X654999Y418929D01*
X653522Y420023D02*
X654658D01*
X658992Y416929D02*
X666992D01*
X662992Y412929D02*
Y420929D01*
X665901Y422210D02*
X664992Y418929D01*
X665901Y422210D02*
X666810Y418929D01*
X665333Y420023D02*
X666469D01*
X723953Y127496D02*
X731953D01*
Y135496*
X723953*
Y127496*
X727953Y131496D02*
Y135496D01*
X720016Y103874D02*
X728016D01*
Y111874*
X720016*
Y103874*
X724016Y107874D02*
Y111874D01*
X942457Y137339D02*
X950457D01*
Y145339*
X942457*
Y137339*
X946457Y141339D02*
Y145339D01*
X918835Y141276D02*
X926835D01*
Y149276*
X918835*
Y141276*
X922835Y145276D02*
Y149276D01*
X190488Y190488D02*
X198488D01*
Y198488*
X190488*
Y190488*
X194488Y194488D02*
Y198488D01*
X190488Y180488D02*
X198488D01*
Y188488*
X190488*
Y180488*
X194488Y184488D02*
Y188488D01*
X190488Y170488D02*
X198488D01*
Y178488*
X190488*
Y170488*
X194488Y174488D02*
Y178488D01*
X190488Y160488D02*
X198488D01*
Y168488*
X190488*
Y160488*
X194488Y164488D02*
Y168488D01*
X220488Y160488D02*
X228488D01*
Y168488*
X220488*
Y160488*
X224488Y164488D02*
Y168488D01*
X220488Y170488D02*
X228488D01*
Y178488*
X220488*
Y170488*
X224488Y174488D02*
Y178488D01*
X220488Y180488D02*
X228488D01*
Y188488*
X220488*
Y180488*
X224488Y184488D02*
Y188488D01*
X220488Y190488D02*
X228488D01*
Y198488*
X220488*
Y190488*
X224488Y194488D02*
Y198488D01*
X599937Y277165D02*
X607937D01*
X603937Y273165D02*
Y281165D01*
X410961Y182677D02*
X418961D01*
X414961Y178677D02*
Y186677D01*
X838126Y275197D02*
X846126D01*
X842126Y271197D02*
Y279197D01*
X609780Y263386D02*
X617780D01*
X613780Y259386D02*
Y267386D01*
X938520Y324409D02*
X946520D01*
X942520Y320409D02*
Y328409D01*
X500575Y251575D02*
X508575D01*
X504575Y247575D02*
Y255575D01*
X508279Y256075D02*
X508166Y256387D01*
X507938Y256700*
X507711Y256856*
X507257*
X507029Y256700*
X506802Y256387*
X506688Y256075*
X506575Y255606*
Y254825*
X506688Y254356*
X506802Y254044*
X507029Y253731*
X507257Y253575*
X507711*
X507938Y253731*
X508166Y254044*
X508279Y254356*
X494575Y251575D02*
X502575D01*
X498575Y247575D02*
Y255575D01*
X502279Y256075D02*
X502166Y256387D01*
X501938Y256700*
X501711Y256856*
X501257*
X501029Y256700*
X500802Y256387*
X500688Y256075*
X500575Y255606*
Y254825*
X500688Y254356*
X500802Y254044*
X501029Y253731*
X501257Y253575*
X501711*
X501938Y253731*
X502166Y254044*
X502279Y254356*
X282614Y187402D02*
X290614D01*
X286614Y183402D02*
Y191402D01*
X289523Y192683D02*
X288614Y189402D01*
X289523Y192683D02*
X290432Y189402D01*
X288955Y190495D02*
X290091D01*
X295213Y177953D02*
X303213D01*
X299213Y173953D02*
Y181953D01*
X302122Y183234D02*
X301213Y179953D01*
X302122Y183234D02*
X303031Y179953D01*
X301554Y181047D02*
X302690D01*
X324346Y115748D02*
X332346D01*
X328346Y111748D02*
Y119748D01*
X111748Y473953D02*
X119748Y481953D01*
X111748D02*
X119748Y473953D01*
X867654D02*
X875654Y481953D01*
X867654D02*
X875654Y473953D01*
X867654Y111748D02*
X875654Y119748D01*
X867654D02*
X875654Y111748D01*
X899150D02*
X907150Y119748D01*
X899150D02*
X907150Y111748D01*
X966079D02*
X974079Y119748D01*
X966079D02*
X974079Y111748D01*
X966079Y347969D02*
X974079Y355969D01*
X966079D02*
X974079Y347969D01*
X899150D02*
X907150Y355969D01*
X899150D02*
X907150Y347969D01*
X887339Y369685D02*
X895339D01*
X891339Y365685D02*
Y373685D01*
X893339Y374966D02*
Y371685D01*
Y374966D02*
X894134D01*
X894475Y374810*
X894702Y374498*
X894816Y374185*
X894929Y373716*
Y372935*
X894816Y372466*
X894702Y372154*
X894475Y371841*
X894134Y371685*
X893339*
X893244Y369685D02*
X901244D01*
X897244Y365685D02*
Y373685D01*
X899244Y374966D02*
Y371685D01*
Y374966D02*
X900040D01*
X900380Y374810*
X900608Y374498*
X900721Y374185*
X900835Y373716*
Y372935*
X900721Y372466*
X900608Y372154*
X900380Y371841*
X900040Y371685*
X899244*
X971984Y369685D02*
X979984D01*
X975984Y365685D02*
Y373685D01*
X977984Y374966D02*
Y371685D01*
Y374966D02*
X978780D01*
X979121Y374810*
X979348Y374498*
X979462Y374185*
X979575Y373716*
Y372935*
X979462Y372466*
X979348Y372154*
X979121Y371841*
X978780Y371685*
X977984*
X977890Y369685D02*
X985890D01*
X981890Y365685D02*
Y373685D01*
X983890Y374966D02*
Y371685D01*
Y374966D02*
X984685D01*
X985026Y374810*
X985253Y374498*
X985367Y374185*
X985481Y373716*
Y372935*
X985367Y372466*
X985253Y372154*
X985026Y371841*
X984685Y371685*
X983890*
X1011354Y107811D02*
X1019354Y115811D01*
X1011354D02*
X1019354Y107811D01*
X1011354Y379465D02*
X1019354Y387465D01*
X1011354D02*
X1019354Y379465D01*
X985764Y397244D02*
X993764D01*
X989764Y393244D02*
Y401244D01*
X991764Y402525D02*
Y399244D01*
Y402525D02*
X992559D01*
X992900Y402369*
X993127Y402057*
X993241Y401744*
X993355Y401275*
Y400494*
X993241Y400025*
X993127Y399713*
X992900Y399400*
X992559Y399244*
X991764*
X991669Y397244D02*
X999669D01*
X995669Y393244D02*
Y401244D01*
X997669Y402525D02*
Y399244D01*
Y402525D02*
X998465D01*
X998806Y402369*
X999033Y402057*
X999147Y401744*
X999260Y401275*
Y400494*
X999147Y400025*
X999033Y399713*
X998806Y399400*
X998465Y399244*
X997669*
X1031039Y397244D02*
X1039039D01*
X1035039Y393244D02*
Y401244D01*
X1037039Y402525D02*
Y399244D01*
Y402525D02*
X1037835D01*
X1038176Y402369*
X1038403Y402057*
X1038517Y401744*
X1038630Y401275*
Y400494*
X1038517Y400025*
X1038403Y399713*
X1038176Y399400*
X1037835Y399244*
X1037039*
X1036945Y397244D02*
X1044945D01*
X1040945Y393244D02*
Y401244D01*
X1042945Y402525D02*
Y399244D01*
Y402525D02*
X1043740D01*
X1044081Y402369*
X1044309Y402057*
X1044422Y401744*
X1044536Y401275*
Y400494*
X1044422Y400025*
X1044309Y399713*
X1044081Y399400*
X1043740Y399244*
X1042945*
X686551Y115748D02*
X694551D01*
X690551Y111748D02*
Y119748D01*
X693460Y121029D02*
X692551Y117748D01*
X693460Y121029D02*
X694369Y117748D01*
X692892Y118842D02*
X694028D01*
X162929Y127559D02*
X170929D01*
X166929Y123559D02*
Y131559D01*
X169838Y132840D02*
X168929Y129559D01*
X169838Y132840D02*
X170747Y129559D01*
X169270Y130653D02*
X170406D01*
X170803Y131496D02*
X178803D01*
X174803Y127496D02*
Y135496D01*
X177712Y136777D02*
X176803Y133496D01*
X177712Y136777D02*
X178621Y133496D01*
X177144Y134590D02*
X178280D01*
X178677Y135433D02*
X186677D01*
X182677Y131433D02*
Y139433D01*
X185586Y140714D02*
X184677Y137433D01*
X185586Y140714D02*
X186495Y137433D01*
X185018Y138527D02*
X186154D01*
X174740Y133465D02*
X182740D01*
X178740Y129465D02*
Y137465D01*
X181649Y138746D02*
X180740Y135465D01*
X181649Y138746D02*
X182558Y135465D01*
X181081Y136558D02*
X182217D01*
X166866Y129528D02*
X174866D01*
X170866Y125528D02*
Y133528D01*
X173775Y134809D02*
X172866Y131528D01*
X173775Y134809D02*
X174684Y131528D01*
X173207Y132621D02*
X174343D01*
X182614Y137402D02*
X190614D01*
X186614Y133402D02*
Y141402D01*
X189523Y142683D02*
X188614Y139402D01*
X189523Y142683D02*
X190432Y139402D01*
X188955Y140495D02*
X190091D01*
X186551Y139370D02*
X194551D01*
X190551Y135370D02*
Y143370D01*
X193460Y144651D02*
X192551Y141370D01*
X193460Y144651D02*
X194369Y141370D01*
X192892Y142464D02*
X194028D01*
X190488Y141339D02*
X198488D01*
X194488Y137339D02*
Y145339D01*
X197397Y146620D02*
X196488Y143339D01*
X197397Y146620D02*
X198306Y143339D01*
X196829Y144432D02*
X197965D01*
X253480Y149213D02*
X261480D01*
X257480Y145213D02*
Y153213D01*
X260389Y154494D02*
X259480Y151213D01*
X260389Y154494D02*
X261298Y151213D01*
X259821Y152306D02*
X260958D01*
X257417Y151181D02*
X265417D01*
X261417Y147181D02*
Y155181D01*
X264326Y156462D02*
X263417Y153181D01*
X264326Y156462D02*
X265236Y153181D01*
X263758Y154275D02*
X264895D01*
X241669Y143307D02*
X249669D01*
X245669Y139307D02*
Y147307D01*
X248578Y148588D02*
X247669Y145307D01*
X248578Y148588D02*
X249487Y145307D01*
X248010Y146401D02*
X249147D01*
X249543Y147244D02*
X257543D01*
X253543Y143244D02*
Y151244D01*
X256452Y152525D02*
X255543Y149244D01*
X256452Y152525D02*
X257361Y149244D01*
X255884Y150338D02*
X257021D01*
X245606Y145276D02*
X253606D01*
X249606Y141276D02*
Y149276D01*
X252515Y150557D02*
X251606Y147276D01*
X252515Y150557D02*
X253424Y147276D01*
X251947Y148369D02*
X253084D01*
X269228Y153150D02*
X277228D01*
X273228Y149150D02*
Y157150D01*
X276137Y158431D02*
X275228Y155150D01*
X276137Y158431D02*
X277047Y155150D01*
X275569Y156243D02*
X276706D01*
X308598Y153150D02*
X316598D01*
X312598Y149150D02*
Y157150D01*
X315508Y158431D02*
X314598Y155150D01*
X315508Y158431D02*
X316417Y155150D01*
X314939Y156243D02*
X316076D01*
X314512Y153150D02*
X322512D01*
X318512Y149150D02*
Y157150D01*
X321421Y158431D02*
X320512Y155150D01*
X321421Y158431D02*
X322330Y155150D01*
X320853Y156243D02*
X321989D01*
X349937Y149213D02*
X357937D01*
X353937Y145213D02*
Y153213D01*
X356846Y154494D02*
X355937Y151213D01*
X356846Y154494D02*
X357755Y151213D01*
X356278Y152306D02*
X357414D01*
X576689Y155492D02*
X584689D01*
X580689Y151492D02*
Y159492D01*
X583598Y160773D02*
X582689Y157492D01*
X583598Y160773D02*
X584507Y157492D01*
X583030Y158586D02*
X584166D01*
X566689Y147992D02*
X574689D01*
X570689Y143992D02*
Y151992D01*
X573598Y153273D02*
X572689Y149992D01*
X573598Y153273D02*
X574507Y149992D01*
X573030Y151086D02*
X574166D01*
X571689Y155492D02*
X579689D01*
X575689Y151492D02*
Y159492D01*
X578598Y160773D02*
X577689Y157492D01*
X578598Y160773D02*
X579507Y157492D01*
X578030Y158586D02*
X579166D01*
X581689Y155492D02*
X589689D01*
X585689Y151492D02*
Y159492D01*
X588598Y160773D02*
X587689Y157492D01*
X588598Y160773D02*
X589507Y157492D01*
X588030Y158586D02*
X589166D01*
X320409Y159055D02*
X328409D01*
X324409Y155055D02*
Y163055D01*
X327319Y164336D02*
X326409Y161055D01*
X327319Y164336D02*
X328228Y161055D01*
X326750Y162149D02*
X327887D01*
X338126Y170866D02*
X346126D01*
X342126Y166866D02*
Y174866D01*
X345035Y176147D02*
X344126Y172866D01*
X345035Y176147D02*
X345944Y172866D01*
X344467Y173960D02*
X345603D01*
X336157Y166929D02*
X344157D01*
X340157Y162929D02*
Y170929D01*
X343067Y172210D02*
X342157Y168929D01*
X343067Y172210D02*
X343976Y168929D01*
X342498Y170023D02*
X343635D01*
X367654Y164961D02*
X375654D01*
X371654Y160961D02*
Y168961D01*
X374563Y170242D02*
X373654Y166961D01*
X374563Y170242D02*
X375472Y166961D01*
X373994Y168054D02*
X375131D01*
X373559Y164961D02*
X381559D01*
X377559Y160961D02*
Y168961D01*
X380468Y170242D02*
X379559Y166961D01*
X380468Y170242D02*
X381377Y166961D01*
X379900Y168054D02*
X381036D01*
X373559Y172835D02*
X381559D01*
X377559Y168835D02*
Y176835D01*
X380468Y178116D02*
X379559Y174835D01*
X380468Y178116D02*
X381377Y174835D01*
X379900Y175928D02*
X381036D01*
X518697Y170492D02*
X526697D01*
X522697Y166492D02*
Y174492D01*
X525606Y175773D02*
X524697Y172492D01*
X525606Y175773D02*
X526515Y172492D01*
X525038Y173586D02*
X526174D01*
X528697Y170492D02*
X536697D01*
X532697Y166492D02*
Y174492D01*
X535606Y175773D02*
X534697Y172492D01*
X535606Y175773D02*
X536515Y172492D01*
X535038Y173586D02*
X536174D01*
X548756Y159055D02*
X556756D01*
X552756Y155055D02*
Y163055D01*
X555665Y164336D02*
X554756Y161055D01*
X555665Y164336D02*
X556574Y161055D01*
X555097Y162149D02*
X556233D01*
X550724Y162992D02*
X558724D01*
X554724Y158992D02*
Y166992D01*
X557634Y168273D02*
X556724Y164992D01*
X557634Y168273D02*
X558543Y164992D01*
X557065Y166086D02*
X558202D01*
X247575Y196457D02*
X255575D01*
X251575Y192457D02*
Y200457D01*
X254484Y201738D02*
X253575Y198457D01*
X254484Y201738D02*
X255393Y198457D01*
X253916Y199550D02*
X255052D01*
X312535Y182677D02*
X320535D01*
X316535Y178677D02*
Y186677D01*
X319445Y187958D02*
X318535Y184677D01*
X319445Y187958D02*
X320354Y184677D01*
X318876Y185771D02*
X320013D01*
X355843Y186614D02*
X363843D01*
X359843Y182614D02*
Y190614D01*
X362752Y191895D02*
X361843Y188614D01*
X362752Y191895D02*
X363661Y188614D01*
X362183Y189708D02*
X363320D01*
X353874Y182677D02*
X361874D01*
X357874Y178677D02*
Y186677D01*
X360783Y187958D02*
X359874Y184677D01*
X360783Y187958D02*
X361692Y184677D01*
X360215Y185771D02*
X361351D01*
X359780Y194488D02*
X367780D01*
X363780Y190488D02*
Y198488D01*
X366689Y199769D02*
X365780Y196488D01*
X366689Y199769D02*
X367598Y196488D01*
X366120Y197582D02*
X367257D01*
X357811Y190551D02*
X365811D01*
X361811Y186551D02*
Y194551D01*
X364720Y195832D02*
X363811Y192551D01*
X364720Y195832D02*
X365629Y192551D01*
X364152Y193645D02*
X365288D01*
X373559Y178740D02*
X381559D01*
X377559Y174740D02*
Y182740D01*
X380468Y184021D02*
X379559Y180740D01*
X380468Y184021D02*
X381377Y180740D01*
X379900Y181834D02*
X381036D01*
X416866Y188583D02*
X424866D01*
X420866Y184583D02*
Y192583D01*
X423775Y193864D02*
X422866Y190583D01*
X423775Y193864D02*
X424684Y190583D01*
X423207Y191676D02*
X424343D01*
X418835Y192520D02*
X426835D01*
X422835Y188520D02*
Y196520D01*
X425744Y197801D02*
X424835Y194520D01*
X425744Y197801D02*
X426653Y194520D01*
X425176Y195613D02*
X426312D01*
X473953Y182677D02*
X481953D01*
X477953Y178677D02*
Y186677D01*
X480862Y187958D02*
X479953Y184677D01*
X480862Y187958D02*
X481771Y184677D01*
X480294Y185771D02*
X481430D01*
X477890Y180709D02*
X485890D01*
X481890Y176709D02*
Y184709D01*
X484799Y185990D02*
X483890Y182709D01*
X484799Y185990D02*
X485708Y182709D01*
X484231Y183802D02*
X485367D01*
X513697Y177992D02*
X521697D01*
X517697Y173992D02*
Y181992D01*
X520606Y183273D02*
X519697Y179992D01*
X520606Y183273D02*
X521515Y179992D01*
X520038Y181086D02*
X521174D01*
X180646Y216142D02*
X188646D01*
X184646Y212142D02*
Y220142D01*
X187555Y221423D02*
X186646Y218142D01*
X187555Y221423D02*
X188464Y218142D01*
X186987Y219235D02*
X188123D01*
X194425Y214173D02*
X202425D01*
X198425Y210173D02*
Y218173D01*
X201334Y219454D02*
X200425Y216173D01*
X201334Y219454D02*
X202243Y216173D01*
X200766Y217267D02*
X201902D01*
X225921Y200394D02*
X233921D01*
X229921Y196394D02*
Y204394D01*
X232830Y205675D02*
X231921Y202394D01*
X232830Y205675D02*
X233739Y202394D01*
X232262Y203487D02*
X233399D01*
X229858Y202362D02*
X237858D01*
X233858Y198362D02*
Y206362D01*
X236767Y207643D02*
X235858Y204362D01*
X236767Y207643D02*
X237676Y204362D01*
X236199Y205456D02*
X237336D01*
X251512Y198425D02*
X259512D01*
X255512Y194425D02*
Y202425D01*
X258421Y203706D02*
X257512Y200425D01*
X258421Y203706D02*
X259330Y200425D01*
X257853Y201519D02*
X258989D01*
X245606Y210236D02*
X253606D01*
X249606Y206236D02*
Y214236D01*
X252515Y215517D02*
X251606Y212236D01*
X252515Y215517D02*
X253424Y212236D01*
X251947Y213330D02*
X253084D01*
X308598Y206299D02*
X316598D01*
X312598Y202299D02*
Y210299D01*
X315508Y211580D02*
X314598Y208299D01*
X315508Y211580D02*
X316417Y208299D01*
X314939Y209393D02*
X316076D01*
X306630Y210236D02*
X314630D01*
X310630Y206236D02*
Y214236D01*
X313539Y215517D02*
X312630Y212236D01*
X313539Y215517D02*
X314448Y212236D01*
X312971Y213330D02*
X314107D01*
X336157Y210236D02*
X344157D01*
X340157Y206236D02*
Y214236D01*
X343067Y215517D02*
X342157Y212236D01*
X343067Y215517D02*
X343976Y212236D01*
X342498Y213330D02*
X343635D01*
X336157Y202362D02*
X344157D01*
X340157Y198362D02*
Y206362D01*
X343067Y207643D02*
X342157Y204362D01*
X343067Y207643D02*
X343976Y204362D01*
X342498Y205456D02*
X343635D01*
X334189Y206299D02*
X342189D01*
X338189Y202299D02*
Y210299D01*
X341098Y211580D02*
X340189Y208299D01*
X341098Y211580D02*
X342007Y208299D01*
X340530Y209393D02*
X341666D01*
X375528Y204331D02*
X383528D01*
X379528Y200331D02*
Y208331D01*
X382437Y209612D02*
X381528Y206331D01*
X382437Y209612D02*
X383346Y206331D01*
X381868Y207424D02*
X383005D01*
X363717Y202362D02*
X371717D01*
X367717Y198362D02*
Y206362D01*
X370626Y207643D02*
X369717Y204362D01*
X370626Y207643D02*
X371535Y204362D01*
X370057Y205456D02*
X371194D01*
X361748Y198425D02*
X369748D01*
X365748Y194425D02*
Y202425D01*
X368657Y203706D02*
X367748Y200425D01*
X368657Y203706D02*
X369566Y200425D01*
X368089Y201519D02*
X369225D01*
X365685Y206299D02*
X373685D01*
X369685Y202299D02*
Y210299D01*
X372594Y211580D02*
X371685Y208299D01*
X372594Y211580D02*
X373503Y208299D01*
X372026Y209393D02*
X373162D01*
X367654Y210236D02*
X375654D01*
X371654Y206236D02*
Y214236D01*
X374563Y215517D02*
X373654Y212236D01*
X374563Y215517D02*
X375472Y212236D01*
X373994Y213330D02*
X375131D01*
X416866Y204331D02*
X424866D01*
X420866Y200331D02*
Y208331D01*
X423775Y209612D02*
X422866Y206331D01*
X423775Y209612D02*
X424684Y206331D01*
X423207Y207424D02*
X424343D01*
X416866Y198425D02*
X424866D01*
X420866Y194425D02*
Y202425D01*
X423775Y203706D02*
X422866Y200425D01*
X423775Y203706D02*
X424684Y200425D01*
X423207Y201519D02*
X424343D01*
X446394Y210236D02*
X454394D01*
X450394Y206236D02*
Y214236D01*
X453303Y215517D02*
X452394Y212236D01*
X453303Y215517D02*
X454212Y212236D01*
X452735Y213330D02*
X453871D01*
X466079Y214173D02*
X474079D01*
X470079Y210173D02*
Y218173D01*
X472988Y219454D02*
X472079Y216173D01*
X472988Y219454D02*
X473897Y216173D01*
X472420Y217267D02*
X473556D01*
X509386Y214173D02*
X517386D01*
X513386Y210173D02*
Y218173D01*
X516295Y219454D02*
X515386Y216173D01*
X516295Y219454D02*
X517204Y216173D01*
X515727Y217267D02*
X516863D01*
X517260Y204331D02*
X525260D01*
X521260Y200331D02*
Y208331D01*
X524169Y209612D02*
X523260Y206331D01*
X524169Y209612D02*
X525078Y206331D01*
X523601Y207424D02*
X524737D01*
X182614Y224016D02*
X190614D01*
X186614Y220016D02*
Y228016D01*
X189523Y229297D02*
X188614Y226016D01*
X189523Y229297D02*
X190432Y226016D01*
X188955Y227109D02*
X190091D01*
X184583Y220079D02*
X192583D01*
X188583Y216079D02*
Y224079D01*
X191492Y225360D02*
X190583Y222079D01*
X191492Y225360D02*
X192401Y222079D01*
X190924Y223172D02*
X192060D01*
X188520Y224016D02*
X196520D01*
X192520Y220016D02*
Y228016D01*
X195429Y229297D02*
X194520Y226016D01*
X195429Y229297D02*
X196338Y226016D01*
X194861Y227109D02*
X195997D01*
X338126Y224016D02*
X346126D01*
X342126Y220016D02*
Y228016D01*
X345035Y229297D02*
X344126Y226016D01*
X345035Y229297D02*
X345944Y226016D01*
X344467Y227109D02*
X345603D01*
X353874Y233858D02*
X361874D01*
X357874Y229858D02*
Y237858D01*
X360783Y239140D02*
X359874Y235858D01*
X360783Y239140D02*
X361692Y235858D01*
X360215Y236952D02*
X361351D01*
X349937Y225984D02*
X357937D01*
X353937Y221984D02*
Y229984D01*
X356846Y231266D02*
X355937Y227984D01*
X356846Y231266D02*
X357755Y227984D01*
X356278Y229078D02*
X357414D01*
X381433Y222047D02*
X389433D01*
X385433Y218047D02*
Y226047D01*
X388342Y227328D02*
X387433Y224047D01*
X388342Y227328D02*
X389251Y224047D01*
X387774Y225141D02*
X388910D01*
X377496Y225984D02*
X385496D01*
X381496Y221984D02*
Y229984D01*
X384405Y231266D02*
X383496Y227984D01*
X384405Y231266D02*
X385314Y227984D01*
X383837Y229078D02*
X384973D01*
X373559Y224016D02*
X381559D01*
X377559Y220016D02*
Y228016D01*
X380468Y229297D02*
X379559Y226016D01*
X380468Y229297D02*
X381377Y226016D01*
X379900Y227109D02*
X381036D01*
X385370Y225984D02*
X393370D01*
X389370Y221984D02*
Y229984D01*
X392279Y231266D02*
X391370Y227984D01*
X392279Y231266D02*
X393188Y227984D01*
X391711Y229078D02*
X392847D01*
X420803Y224016D02*
X428803D01*
X424803Y220016D02*
Y228016D01*
X427712Y229297D02*
X426803Y226016D01*
X427712Y229297D02*
X428621Y226016D01*
X427144Y227109D02*
X428280D01*
X424740Y225984D02*
X432740D01*
X428740Y221984D02*
Y229984D01*
X431649Y231266D02*
X430740Y227984D01*
X431649Y231266D02*
X432558Y227984D01*
X431081Y229078D02*
X432217D01*
X454268Y235827D02*
X462268D01*
X458268Y231827D02*
Y239827D01*
X461177Y241108D02*
X460268Y237827D01*
X461177Y241108D02*
X462086Y237827D01*
X460609Y238921D02*
X461745D01*
X568441Y231890D02*
X576441D01*
X572441Y227890D02*
Y235890D01*
X575350Y237171D02*
X574441Y233890D01*
X575350Y237171D02*
X576259Y233890D01*
X574782Y234984D02*
X575918D01*
X570409Y227953D02*
X578409D01*
X574409Y223953D02*
Y231953D01*
X577319Y233234D02*
X576409Y229953D01*
X577319Y233234D02*
X578228Y229953D01*
X576750Y231047D02*
X577887D01*
X140055Y255354D02*
X148055D01*
X144055Y251354D02*
Y259354D01*
X146964Y260636D02*
X146055Y257354D01*
X146964Y260636D02*
X147873Y257354D01*
X146396Y258448D02*
X147532D01*
X172772Y255512D02*
X180772D01*
X176772Y251512D02*
Y259512D01*
X179681Y260793D02*
X178772Y257512D01*
X179681Y260793D02*
X180590Y257512D01*
X179113Y258606D02*
X180249D01*
X162555Y250354D02*
X170555D01*
X166555Y246354D02*
Y254354D01*
X169464Y255636D02*
X168555Y252354D01*
X169464Y255636D02*
X170373Y252354D01*
X168896Y253448D02*
X170032D01*
X285961Y250591D02*
X293961D01*
X289961Y246591D02*
Y254591D01*
X292870Y255872D02*
X291961Y252591D01*
X292870Y255872D02*
X293779Y252591D01*
X292302Y253684D02*
X293438D01*
X321394Y250591D02*
X329394D01*
X325394Y246591D02*
Y254591D01*
X328303Y255872D02*
X327394Y252591D01*
X328303Y255872D02*
X329212Y252591D01*
X327735Y253684D02*
X328871D01*
X335173Y250591D02*
X343173D01*
X339173Y246591D02*
Y254591D01*
X342082Y255872D02*
X341173Y252591D01*
X342082Y255872D02*
X342991Y252591D01*
X341514Y253684D02*
X342651D01*
X370606Y250591D02*
X378606D01*
X374606Y246591D02*
Y254591D01*
X377515Y255872D02*
X376606Y252591D01*
X377515Y255872D02*
X378424Y252591D01*
X376947Y253684D02*
X378084D01*
X384386Y250591D02*
X392386D01*
X388386Y246591D02*
Y254591D01*
X391295Y255872D02*
X390386Y252591D01*
X391295Y255872D02*
X392204Y252591D01*
X390727Y253684D02*
X391863D01*
X419819Y250591D02*
X427819D01*
X423819Y246591D02*
Y254591D01*
X426728Y255872D02*
X425819Y252591D01*
X426728Y255872D02*
X427637Y252591D01*
X426160Y253684D02*
X427296D01*
X433598Y250591D02*
X441598D01*
X437598Y246591D02*
Y254591D01*
X440508Y255872D02*
X439598Y252591D01*
X440508Y255872D02*
X441417Y252591D01*
X439939Y253684D02*
X441076D01*
X459189Y250591D02*
X467189D01*
X463189Y246591D02*
Y254591D01*
X466098Y255872D02*
X465189Y252591D01*
X466098Y255872D02*
X467007Y252591D01*
X465530Y253684D02*
X466666D01*
X521197Y241732D02*
X529197D01*
X525197Y237732D02*
Y245732D01*
X528106Y247014D02*
X527197Y243732D01*
X528106Y247014D02*
X529015Y243732D01*
X527538Y244826D02*
X528674D01*
X523165Y237795D02*
X531165D01*
X527165Y233795D02*
Y241795D01*
X530074Y243077D02*
X529165Y239795D01*
X530074Y243077D02*
X530984Y239795D01*
X529506Y240889D02*
X530643D01*
X891276Y245669D02*
X899276D01*
X895276Y241669D02*
Y249669D01*
X898185Y250951D02*
X897276Y247669D01*
X898185Y250951D02*
X899094Y247669D01*
X897616Y248763D02*
X898753D01*
X140055Y275354D02*
X148055D01*
X144055Y271354D02*
Y279354D01*
X146964Y280636D02*
X146055Y277354D01*
X146964Y280636D02*
X147873Y277354D01*
X146396Y278448D02*
X147532D01*
X140055Y265354D02*
X148055D01*
X144055Y261354D02*
Y269354D01*
X146964Y270636D02*
X146055Y267354D01*
X146964Y270636D02*
X147873Y267354D01*
X146396Y268448D02*
X147532D01*
X162555Y270354D02*
X170555D01*
X166555Y266354D02*
Y274354D01*
X169464Y275636D02*
X168555Y272354D01*
X169464Y275636D02*
X170373Y272354D01*
X168896Y273448D02*
X170032D01*
X170803Y275197D02*
X178803D01*
X174803Y271197D02*
Y279197D01*
X177712Y280478D02*
X176803Y277197D01*
X177712Y280478D02*
X178621Y277197D01*
X177144Y278291D02*
X178280D01*
X162555Y260354D02*
X170555D01*
X166555Y256354D02*
Y264354D01*
X169464Y265636D02*
X168555Y262354D01*
X169464Y265636D02*
X170373Y262354D01*
X168896Y263448D02*
X170032D01*
X170803Y265354D02*
X178803D01*
X174803Y261354D02*
Y269354D01*
X177712Y270636D02*
X176803Y267354D01*
X177712Y270636D02*
X178621Y267354D01*
X177144Y268448D02*
X178280D01*
X397181Y267323D02*
X405181D01*
X401181Y263323D02*
Y271323D01*
X404090Y272604D02*
X403181Y269323D01*
X404090Y272604D02*
X404999Y269323D01*
X403522Y270417D02*
X404658D01*
X401118Y265354D02*
X409118D01*
X405118Y261354D02*
Y269354D01*
X408027Y270636D02*
X407118Y267354D01*
X408027Y270636D02*
X408936Y267354D01*
X407459Y268448D02*
X408595D01*
X560567Y269291D02*
X568567D01*
X564567Y265291D02*
Y273291D01*
X567476Y274573D02*
X566567Y271291D01*
X567476Y274573D02*
X568385Y271291D01*
X566908Y272385D02*
X568044D01*
X567457Y265354D02*
X575457D01*
X571457Y261354D02*
Y269354D01*
X574366Y270636D02*
X573457Y267354D01*
X574366Y270636D02*
X575275Y267354D01*
X573798Y268448D02*
X574934D01*
X725921Y269291D02*
X733921D01*
X729921Y265291D02*
Y273291D01*
X732830Y274573D02*
X731921Y271291D01*
X732830Y274573D02*
X733739Y271291D01*
X732262Y272385D02*
X733399D01*
X751512Y263386D02*
X759512D01*
X755512Y259386D02*
Y267386D01*
X758421Y268667D02*
X757512Y265386D01*
X758421Y268667D02*
X759330Y265386D01*
X757853Y266480D02*
X758989D01*
X517260Y285039D02*
X525260D01*
X521260Y281039D02*
Y289039D01*
X524169Y290321D02*
X523260Y287039D01*
X524169Y290321D02*
X525078Y287039D01*
X523601Y288133D02*
X524737D01*
X519228Y288976D02*
X527228D01*
X523228Y284976D02*
Y292976D01*
X526137Y294258D02*
X525228Y290976D01*
X526137Y294258D02*
X527047Y290976D01*
X525569Y292070D02*
X526706D01*
X525134Y290945D02*
X533134D01*
X529134Y286945D02*
Y294945D01*
X532043Y296226D02*
X531134Y292945D01*
X532043Y296226D02*
X532952Y292945D01*
X531475Y294039D02*
X532611D01*
X529071Y296850D02*
X537071D01*
X533071Y292850D02*
Y300850D01*
X535980Y302132D02*
X535071Y298850D01*
X535980Y302132D02*
X536889Y298850D01*
X535412Y299944D02*
X536548D01*
X133402Y304724D02*
X141402D01*
X137402Y300724D02*
Y308724D01*
X140311Y310006D02*
X139402Y306724D01*
X140311Y310006D02*
X141220Y306724D01*
X139742Y307818D02*
X140879D01*
X316472Y306693D02*
X324472D01*
X320472Y302693D02*
Y310693D01*
X323382Y311974D02*
X322472Y308693D01*
X323382Y311974D02*
X324291Y308693D01*
X322813Y309787D02*
X323950D01*
X365685Y306693D02*
X373685D01*
X369685Y302693D02*
Y310693D01*
X372594Y311974D02*
X371685Y308693D01*
X372594Y311974D02*
X373503Y308693D01*
X372026Y309787D02*
X373162D01*
X369622Y308661D02*
X377622D01*
X373622Y304661D02*
Y312661D01*
X376531Y313943D02*
X375622Y310661D01*
X376531Y313943D02*
X377440Y310661D01*
X375963Y311755D02*
X377099D01*
X393244Y302756D02*
X401244D01*
X397244Y298756D02*
Y306756D01*
X400153Y308037D02*
X399244Y304756D01*
X400153Y308037D02*
X401062Y304756D01*
X399585Y305850D02*
X400721D01*
X389307Y300787D02*
X397307D01*
X393307Y296787D02*
Y304787D01*
X396216Y306069D02*
X395307Y302787D01*
X396216Y306069D02*
X397125Y302787D01*
X395648Y303881D02*
X396784D01*
X434583Y298819D02*
X442583D01*
X438583Y294819D02*
Y302819D01*
X441492Y304100D02*
X440583Y300819D01*
X441492Y304100D02*
X442401Y300819D01*
X440924Y301913D02*
X442060D01*
X206236Y370669D02*
X214236D01*
X210236Y366669D02*
Y374669D01*
X213145Y375951D02*
X212236Y372669D01*
X213145Y375951D02*
X214054Y372669D01*
X212577Y373763D02*
X213713D01*
X249543Y367717D02*
X257543D01*
X253543Y363717D02*
Y371717D01*
X256452Y372998D02*
X255543Y369717D01*
X256452Y372998D02*
X257361Y369717D01*
X255884Y370810D02*
X257021D01*
X674740Y363780D02*
X682740D01*
X678740Y359780D02*
Y367780D01*
X681649Y369061D02*
X680740Y365780D01*
X681649Y369061D02*
X682558Y365780D01*
X681081Y366873D02*
X682217D01*
X688520Y363780D02*
X696520D01*
X692520Y359780D02*
Y367780D01*
X695429Y369061D02*
X694520Y365780D01*
X695429Y369061D02*
X696338Y365780D01*
X694861Y366873D02*
X695997D01*
X198362Y390354D02*
X206362D01*
X202362Y386354D02*
Y394354D01*
X205271Y395636D02*
X204362Y392354D01*
X205271Y395636D02*
X206180Y392354D01*
X204703Y393448D02*
X205839D01*
X206236Y391339D02*
X214236D01*
X210236Y387339D02*
Y395339D01*
X213145Y396620D02*
X212236Y393339D01*
X213145Y396620D02*
X214054Y393339D01*
X212577Y394432D02*
X213713D01*
X206236Y381496D02*
X214236D01*
X210236Y377496D02*
Y385496D01*
X213145Y386777D02*
X212236Y383496D01*
X213145Y386777D02*
X214054Y383496D01*
X212577Y384590D02*
X213713D01*
X225921Y381496D02*
X233921D01*
X229921Y377496D02*
Y385496D01*
X232830Y386777D02*
X231921Y383496D01*
X232830Y386777D02*
X233739Y383496D01*
X232262Y384590D02*
X233399D01*
X279071Y387402D02*
X287071D01*
X283071Y383402D02*
Y391402D01*
X285980Y392683D02*
X285071Y389402D01*
X285980Y392683D02*
X286889Y389402D01*
X285412Y390495D02*
X286548D01*
X275134Y383465D02*
X283134D01*
X279134Y379465D02*
Y387465D01*
X282043Y388746D02*
X281134Y385465D01*
X282043Y388746D02*
X282952Y385465D01*
X281475Y386558D02*
X282611D01*
X196394Y428740D02*
X204394D01*
X200394Y424740D02*
Y432740D01*
X203303Y434021D02*
X202394Y430740D01*
X203303Y434021D02*
X204212Y430740D01*
X202735Y431834D02*
X203871D01*
X190488Y430709D02*
X198488D01*
X194488Y426709D02*
Y434709D01*
X197397Y435990D02*
X196488Y432709D01*
X197397Y435990D02*
X198306Y432709D01*
X196829Y433802D02*
X197965D01*
X538913Y468110D02*
X546913D01*
X542913Y464110D02*
Y472110D01*
X545822Y473391D02*
X544913Y470110D01*
X545822Y473391D02*
X546732Y470110D01*
X545254Y471204D02*
X546391D01*
X542850Y466142D02*
X550850D01*
X546850Y462142D02*
Y470142D01*
X549759Y471423D02*
X548850Y468142D01*
X549759Y471423D02*
X550669Y468142D01*
X549191Y469235D02*
X550328D01*
X546787Y464173D02*
X554787D01*
X550787Y460173D02*
Y468173D01*
X553696Y469454D02*
X552787Y466173D01*
X553696Y469454D02*
X554606Y466173D01*
X553128Y467267D02*
X554265D01*
X599937Y460236D02*
X607937D01*
X603937Y456236D02*
Y464236D01*
X606846Y465517D02*
X605937Y462236D01*
X606846Y465517D02*
X607755Y462236D01*
X606278Y463330D02*
X607414D01*
X958205Y166929D02*
X966205D01*
X962205Y162929D02*
Y170929D01*
X965114Y172210D02*
X964205Y168929D01*
X965114Y172210D02*
X966023Y168929D01*
X964546Y170023D02*
X965682D01*
X1044882Y100000D02*
Y493701D01*
X100000*
Y100000*
X1044882*
X887402D02*
Y493701D01*
X902681Y371654D02*
X970547D01*
X972047Y370154D02*
G75*
G03X970547Y371654I-1500J-0D01*
G01X972047Y370154D02*
Y369217D01*
X970547Y367717D02*
G03X972047Y369217I0J1500D01*
G01X970547Y367717D02*
X902681D01*
X901181Y369217D02*
G03X902681Y367717I1500J-0D01*
G01X901181Y369217D02*
Y370154D01*
X902681Y371654D02*
G03X901181Y370154I0J-1500D01*
G01X985827Y100000D02*
Y493701D01*
X1001106Y399213D02*
X1029602D01*
X1031102Y397713D02*
G03X1029602Y399213I-1500J-0D01*
G01X1031102Y397713D02*
Y396776D01*
X1029602Y395276D02*
G03X1031102Y396776I0J1500D01*
G01X1029602Y395276D02*
X1001106D01*
X999606Y396776D02*
G03X1001106Y395276I1500J-0D01*
G01X999606Y396776D02*
Y397713D01*
X1001106Y399213D02*
G03X999606Y397713I0J-1500D01*
G01X1064567Y364000D02*
X1322567D01*
X1064567Y340000D02*
X1322567D01*
X1064567Y316000D02*
X1322567D01*
X1064567Y292000D02*
X1322567D01*
X1064567Y268000D02*
X1322567D01*
X1064567Y244000D02*
X1322567D01*
X1064567Y220000D02*
X1322567D01*
X1064567Y196000D02*
X1322567D01*
X1064567Y172000D02*
X1322567D01*
X1064567Y148000D02*
X1322567D01*
X1064567Y124000D02*
X1322567D01*
X1064567Y100000D02*
X1322567D01*
X1064567Y364000D02*
Y100000D01*
X1148567Y364000D02*
Y100000D01*
X1184567Y364000D02*
Y100000D01*
X1220567Y364000D02*
Y100000D01*
X1274567Y364000D02*
Y100000D01*
X1322567Y364000D02*
Y100000D01*
X1100067Y352750D02*
X1099521Y353500D01*
X1098703Y353875*
X1097612*
X1096794Y353500*
X1096249Y352750*
Y352000*
X1096521Y351250*
X1096794Y350875*
X1097340Y350500*
X1098976Y349750*
X1099521Y349375*
X1099794Y349000*
X1100067Y348250*
Y347125*
X1099521Y346375*
X1098703Y346000*
X1097612*
X1096794Y346375*
X1096249Y347125*
X1102521Y353875D02*
Y346000D01*
X1108794Y353875D02*
X1104976Y346000D01*
Y353875D02*
X1108794D01*
X1104976Y346000D02*
X1108794D01*
X1111249Y353875D02*
Y346000D01*
Y353875D02*
X1114794D01*
X1111249Y350125D02*
X1113431D01*
X1111249Y346000D02*
X1114794D01*
X1158431Y353875D02*
X1157885Y353500D01*
X1157340Y352750*
X1157067Y352000*
X1156794Y350875*
Y349000*
X1157067Y347875*
X1157340Y347125*
X1157885Y346375*
X1158431Y346000*
X1159521*
X1160067Y346375*
X1160612Y347125*
X1160885Y347875*
X1161158Y349000*
Y350875*
X1160885Y352000*
X1160612Y352750*
X1160067Y353500*
X1159521Y353875*
X1158431*
X1159249Y347500D02*
X1160885Y345250D01*
X1165521Y353875D02*
Y346000D01*
X1163612Y353875D02*
X1167431D01*
X1169885D02*
X1172067Y350125D01*
Y346000*
X1174249Y353875D02*
X1172067Y350125D01*
X1196612Y352750D02*
X1196067Y353500D01*
X1195249Y353875*
X1194158*
X1193340Y353500*
X1192794Y352750*
Y352000*
X1193067Y351250*
X1193340Y350875*
X1193885Y350500*
X1195521Y349750*
X1196067Y349375*
X1196340Y349000*
X1196612Y348250*
Y347125*
X1196067Y346375*
X1195249Y346000*
X1194158*
X1193340Y346375*
X1192794Y347125*
X1199067Y353875D02*
X1201249Y350125D01*
Y346000*
X1203431Y353875D02*
X1201249Y350125D01*
X1205885Y353875D02*
Y346000D01*
Y353875D02*
X1208067Y346000D01*
X1210249Y353875D02*
X1208067Y346000D01*
X1210249Y353875D02*
Y346000D01*
X1232067Y353875D02*
Y346000D01*
Y353875D02*
X1234521D01*
X1235340Y353500*
X1235612Y353125*
X1235885Y352375*
Y351250*
X1235612Y350500*
X1235340Y350125*
X1234521Y349750*
X1232067*
X1238340Y353875D02*
Y346000D01*
X1241612*
X1246249Y353875D02*
X1244067Y346000D01*
X1246249Y353875D02*
X1248431Y346000D01*
X1244885Y348625D02*
X1247612D01*
X1252794Y353875D02*
Y346000D01*
X1250885Y353875D02*
X1254703D01*
X1257158D02*
Y346000D01*
Y353875D02*
X1260703D01*
X1257158Y350125D02*
X1259340D01*
X1257158Y346000D02*
X1260703D01*
X1263158Y353875D02*
Y346000D01*
Y353875D02*
X1265067D01*
X1265885Y353500*
X1266431Y352750*
X1266703Y352000*
X1266976Y350875*
Y349000*
X1266703Y347875*
X1266431Y347125*
X1265885Y346375*
X1265067Y346000*
X1263158*
X1291249Y353875D02*
Y346000D01*
X1289340Y353875D02*
X1293158D01*
X1297249D02*
X1296703Y353500D01*
X1296158Y352750*
X1295885Y352000*
X1295612Y350875*
Y349000*
X1295885Y347875*
X1296158Y347125*
X1296703Y346375*
X1297249Y346000*
X1298340*
X1298885Y346375*
X1299431Y347125*
X1299703Y347875*
X1299976Y349000*
Y350875*
X1299703Y352000*
X1299431Y352750*
X1298885Y353500*
X1298340Y353875*
X1297249*
X1302431D02*
Y346000D01*
X1305703*
X1072203Y329875D02*
X1071385Y329500D01*
X1070840Y328375*
X1070567Y326500*
Y325375*
X1070840Y323500*
X1071385Y322375*
X1072203Y322000*
X1072749*
X1073567Y322375*
X1074112Y323500*
X1074385Y325375*
Y326500*
X1074112Y328375*
X1073567Y329500*
X1072749Y329875*
X1072203*
X1077112Y322750D02*
X1076840Y322375D01*
X1077112Y322000*
X1077385Y322375*
X1077112Y322750*
X1081203Y329875D02*
X1080385Y329500D01*
X1080112Y328750*
Y328000*
X1080385Y327250*
X1080931Y326875*
X1082021Y326500*
X1082840Y326125*
X1083385Y325375*
X1083658Y324625*
Y323500*
X1083385Y322750*
X1083112Y322375*
X1082294Y322000*
X1081203*
X1080385Y322375*
X1080112Y322750*
X1079840Y323500*
Y324625*
X1080112Y325375*
X1080658Y326125*
X1081476Y326500*
X1082567Y326875*
X1083112Y327250*
X1083385Y328000*
Y328750*
X1083112Y329500*
X1082294Y329875*
X1081203*
X1158567Y328375D02*
X1159112Y328750D01*
X1159931Y329875*
Y322000*
X1166203Y329875D02*
X1163476Y322000D01*
X1162385Y329875D02*
X1166203D01*
X1170021D02*
X1169203Y329500D01*
X1168931Y328750*
Y328000*
X1169203Y327250*
X1169749Y326875*
X1170840Y326500*
X1171658Y326125*
X1172203Y325375*
X1172476Y324625*
Y323500*
X1172203Y322750*
X1171931Y322375*
X1171112Y322000*
X1170021*
X1169203Y322375*
X1168931Y322750*
X1168658Y323500*
Y324625*
X1168931Y325375*
X1169476Y326125*
X1170294Y326500*
X1171385Y326875*
X1171931Y327250*
X1172203Y328000*
Y328750*
X1171931Y329500*
X1171112Y329875*
X1170021*
X1196567Y328000D02*
X1208567D01*
X1202567Y322000D02*
Y334000D01*
X1229203Y329875D02*
X1231385Y326125D01*
Y322000*
X1233567Y329875D02*
X1231385Y326125D01*
X1236021Y329875D02*
Y322000D01*
Y329875D02*
X1239567D01*
X1236021Y326125D02*
X1238203D01*
X1236021Y322000D02*
X1239567D01*
X1245840Y328750D02*
X1245294Y329500D01*
X1244476Y329875*
X1243385*
X1242567Y329500*
X1242021Y328750*
Y328000*
X1242294Y327250*
X1242567Y326875*
X1243112Y326500*
X1244749Y325750*
X1245294Y325375*
X1245567Y325000*
X1245840Y324250*
Y323125*
X1245294Y322375*
X1244476Y322000*
X1243385*
X1242567Y322375*
X1242021Y323125*
X1282385Y328750D02*
Y322000D01*
X1279931Y325375D02*
X1284840D01*
X1292203Y331375D02*
X1287294Y319375D01*
X1294658Y325375D02*
X1299567D01*
X1303658Y329875D02*
X1302840Y329500D01*
X1302294Y328375*
X1302021Y326500*
Y325375*
X1302294Y323500*
X1302840Y322375*
X1303658Y322000*
X1304203*
X1305021Y322375*
X1305567Y323500*
X1305840Y325375*
Y326500*
X1305567Y328375*
X1305021Y329500*
X1304203Y329875*
X1303658*
X1308567Y322750D02*
X1308294Y322375D01*
X1308567Y322000*
X1308840Y322375*
X1308567Y322750*
X1312931Y329875D02*
X1312112Y329500D01*
X1311567Y328375*
X1311294Y326500*
Y325375*
X1311567Y323500*
X1312112Y322375*
X1312931Y322000*
X1313476*
X1314294Y322375*
X1314840Y323500*
X1315112Y325375*
Y326500*
X1314840Y328375*
X1314294Y329500*
X1313476Y329875*
X1312931*
X1071112Y305875D02*
X1074112D01*
X1072476Y302875*
X1073294*
X1073840Y302500*
X1074112Y302125*
X1074385Y301000*
Y300250*
X1074112Y299125*
X1073567Y298375*
X1072749Y298000*
X1071931*
X1071112Y298375*
X1070840Y298750*
X1070567Y299500*
X1077112Y298750D02*
X1076840Y298375D01*
X1077112Y298000*
X1077385Y298375*
X1077112Y298750*
X1080112Y304000D02*
Y304375D01*
X1080385Y305125*
X1080658Y305500*
X1081203Y305875*
X1082294*
X1082840Y305500*
X1083112Y305125*
X1083385Y304375*
Y303625*
X1083112Y302875*
X1082567Y301750*
X1079840Y298000*
X1083658*
X1161703Y304375D02*
X1162249Y304750D01*
X1163067Y305875*
Y298000*
X1167158Y305875D02*
X1166340Y305500D01*
X1165794Y304375*
X1165521Y302500*
Y301375*
X1165794Y299500*
X1166340Y298375*
X1167158Y298000*
X1167703*
X1168521Y298375*
X1169067Y299500*
X1169340Y301375*
Y302500*
X1169067Y304375*
X1168521Y305500*
X1167703Y305875*
X1167158*
X1196567Y298000D02*
X1208567Y310000D01*
X1196567D02*
X1208567Y298000D01*
X1229203Y305875D02*
X1231385Y302125D01*
Y298000*
X1233567Y305875D02*
X1231385Y302125D01*
X1236021Y305875D02*
Y298000D01*
Y305875D02*
X1239567D01*
X1236021Y302125D02*
X1238203D01*
X1236021Y298000D02*
X1239567D01*
X1245840Y304750D02*
X1245294Y305500D01*
X1244476Y305875*
X1243385*
X1242567Y305500*
X1242021Y304750*
Y304000*
X1242294Y303250*
X1242567Y302875*
X1243112Y302500*
X1244749Y301750*
X1245294Y301375*
X1245567Y301000*
X1245840Y300250*
Y299125*
X1245294Y298375*
X1244476Y298000*
X1243385*
X1242567Y298375*
X1242021Y299125*
X1282385Y304750D02*
Y298000D01*
X1279931Y301375D02*
X1284840D01*
X1292203Y307375D02*
X1287294Y295375D01*
X1294658Y301375D02*
X1299567D01*
X1303658Y305875D02*
X1302840Y305500D01*
X1302294Y304375*
X1302021Y302500*
Y301375*
X1302294Y299500*
X1302840Y298375*
X1303658Y298000*
X1304203*
X1305021Y298375*
X1305567Y299500*
X1305840Y301375*
Y302500*
X1305567Y304375*
X1305021Y305500*
X1304203Y305875*
X1303658*
X1308567Y298750D02*
X1308294Y298375D01*
X1308567Y298000*
X1308840Y298375*
X1308567Y298750*
X1312931Y305875D02*
X1312112Y305500D01*
X1311567Y304375*
X1311294Y302500*
Y301375*
X1311567Y299500*
X1312112Y298375*
X1312931Y298000*
X1313476*
X1314294Y298375*
X1314840Y299500*
X1315112Y301375*
Y302500*
X1314840Y304375*
X1314294Y305500*
X1313476Y305875*
X1312931*
X1072203Y281875D02*
X1071385Y281500D01*
X1070840Y280375*
X1070567Y278500*
Y277375*
X1070840Y275500*
X1071385Y274375*
X1072203Y274000*
X1072749*
X1073567Y274375*
X1074112Y275500*
X1074385Y277375*
Y278500*
X1074112Y280375*
X1073567Y281500*
X1072749Y281875*
X1072203*
X1077112Y274750D02*
X1076840Y274375D01*
X1077112Y274000*
X1077385Y274375*
X1077112Y274750*
X1083385Y279250D02*
X1083112Y278125D01*
X1082567Y277375*
X1081749Y277000*
X1081476*
X1080658Y277375*
X1080112Y278125*
X1079840Y279250*
Y279625*
X1080112Y280750*
X1080658Y281500*
X1081476Y281875*
X1081749*
X1082567Y281500*
X1083112Y280750*
X1083385Y279250*
Y277375*
X1083112Y275500*
X1082567Y274375*
X1081749Y274000*
X1081203*
X1080385Y274375*
X1080112Y275125*
X1161976Y281875D02*
X1161158Y281500D01*
X1160885Y280750*
Y280000*
X1161158Y279250*
X1161703Y278875*
X1162794Y278500*
X1163612Y278125*
X1164158Y277375*
X1164431Y276625*
Y275500*
X1164158Y274750*
X1163885Y274375*
X1163067Y274000*
X1161976*
X1161158Y274375*
X1160885Y274750*
X1160612Y275500*
Y276625*
X1160885Y277375*
X1161431Y278125*
X1162249Y278500*
X1163340Y278875*
X1163885Y279250*
X1164158Y280000*
Y280750*
X1163885Y281500*
X1163067Y281875*
X1161976*
X1170431Y279250D02*
X1170158Y278125D01*
X1169612Y277375*
X1168794Y277000*
X1168521*
X1167703Y277375*
X1167158Y278125*
X1166885Y279250*
Y279625*
X1167158Y280750*
X1167703Y281500*
X1168521Y281875*
X1168794*
X1169612Y281500*
X1170158Y280750*
X1170431Y279250*
Y277375*
X1170158Y275500*
X1169612Y274375*
X1168794Y274000*
X1168249*
X1167431Y274375*
X1167158Y275125*
X1196567Y274000D02*
X1208567D01*
Y286000*
X1196567*
Y274000*
X1202567Y280000D02*
Y286000D01*
X1229203Y281875D02*
X1231385Y278125D01*
Y274000*
X1233567Y281875D02*
X1231385Y278125D01*
X1236021Y281875D02*
Y274000D01*
Y281875D02*
X1239567D01*
X1236021Y278125D02*
X1238203D01*
X1236021Y274000D02*
X1239567D01*
X1245840Y280750D02*
X1245294Y281500D01*
X1244476Y281875*
X1243385*
X1242567Y281500*
X1242021Y280750*
Y280000*
X1242294Y279250*
X1242567Y278875*
X1243112Y278500*
X1244749Y277750*
X1245294Y277375*
X1245567Y277000*
X1245840Y276250*
Y275125*
X1245294Y274375*
X1244476Y274000*
X1243385*
X1242567Y274375*
X1242021Y275125*
X1282385Y280750D02*
Y274000D01*
X1279931Y277375D02*
X1284840D01*
X1292203Y283375D02*
X1287294Y271375D01*
X1294658Y277375D02*
X1299567D01*
X1303658Y281875D02*
X1302840Y281500D01*
X1302294Y280375*
X1302021Y278500*
Y277375*
X1302294Y275500*
X1302840Y274375*
X1303658Y274000*
X1304203*
X1305021Y274375*
X1305567Y275500*
X1305840Y277375*
Y278500*
X1305567Y280375*
X1305021Y281500*
X1304203Y281875*
X1303658*
X1308567Y274750D02*
X1308294Y274375D01*
X1308567Y274000*
X1308840Y274375*
X1308567Y274750*
X1312931Y281875D02*
X1312112Y281500D01*
X1311567Y280375*
X1311294Y278500*
Y277375*
X1311567Y275500*
X1312112Y274375*
X1312931Y274000*
X1313476*
X1314294Y274375*
X1314840Y275500*
X1315112Y277375*
Y278500*
X1314840Y280375*
X1314294Y281500*
X1313476Y281875*
X1312931*
X1070840Y256000D02*
Y256375D01*
X1071112Y257125*
X1071385Y257500*
X1071931Y257875*
X1073021*
X1073567Y257500*
X1073840Y257125*
X1074112Y256375*
Y255625*
X1073840Y254875*
X1073294Y253750*
X1070567Y250000*
X1074385*
X1077112Y250750D02*
X1076840Y250375D01*
X1077112Y250000*
X1077385Y250375*
X1077112Y250750*
X1083385Y257875D02*
X1080658D01*
X1080385Y254500*
X1080658Y254875*
X1081476Y255250*
X1082294*
X1083112Y254875*
X1083658Y254125*
X1083931Y253000*
X1083658Y252250*
X1083385Y251125*
X1082840Y250375*
X1082021Y250000*
X1081203*
X1080385Y250375*
X1080112Y250750*
X1079840Y251500*
X1163885Y256000D02*
Y256375D01*
X1164158Y257125*
X1164431Y257500*
X1164976Y257875*
X1166067*
X1166612Y257500*
X1166885Y257125*
X1167158Y256375*
Y255625*
X1166885Y254875*
X1166340Y253750*
X1163612Y250000*
X1167431*
X1202567D02*
X1208567Y256000D01*
X1202567Y262000*
X1196567Y256000*
X1202567Y250000*
Y256000D02*
Y262000D01*
X1229203Y257875D02*
X1231385Y254125D01*
Y250000*
X1233567Y257875D02*
X1231385Y254125D01*
X1236021Y257875D02*
Y250000D01*
Y257875D02*
X1239567D01*
X1236021Y254125D02*
X1238203D01*
X1236021Y250000D02*
X1239567D01*
X1245840Y256750D02*
X1245294Y257500D01*
X1244476Y257875*
X1243385*
X1242567Y257500*
X1242021Y256750*
Y256000*
X1242294Y255250*
X1242567Y254875*
X1243112Y254500*
X1244749Y253750*
X1245294Y253375*
X1245567Y253000*
X1245840Y252250*
Y251125*
X1245294Y250375*
X1244476Y250000*
X1243385*
X1242567Y250375*
X1242021Y251125*
X1282385Y256750D02*
Y250000D01*
X1279931Y253375D02*
X1284840D01*
X1292203Y259375D02*
X1287294Y247375D01*
X1294658Y253375D02*
X1299567D01*
X1303658Y257875D02*
X1302840Y257500D01*
X1302294Y256375*
X1302021Y254500*
Y253375*
X1302294Y251500*
X1302840Y250375*
X1303658Y250000*
X1304203*
X1305021Y250375*
X1305567Y251500*
X1305840Y253375*
Y254500*
X1305567Y256375*
X1305021Y257500*
X1304203Y257875*
X1303658*
X1308567Y250750D02*
X1308294Y250375D01*
X1308567Y250000*
X1308840Y250375*
X1308567Y250750*
X1312931Y257875D02*
X1312112Y257500D01*
X1311567Y256375*
X1311294Y254500*
Y253375*
X1311567Y251500*
X1312112Y250375*
X1312931Y250000*
X1313476*
X1314294Y250375*
X1314840Y251500*
X1315112Y253375*
Y254500*
X1314840Y256375*
X1314294Y257500*
X1313476Y257875*
X1312931*
X1070567Y232375D02*
X1071112Y232750D01*
X1071931Y233875*
Y226000*
X1074658Y226750D02*
X1074385Y226375D01*
X1074658Y226000*
X1074931Y226375*
X1074658Y226750*
X1077931Y233875D02*
X1080931D01*
X1079294Y230875*
X1080112*
X1080658Y230500*
X1080931Y230125*
X1081203Y229000*
Y228250*
X1080931Y227125*
X1080385Y226375*
X1079567Y226000*
X1078749*
X1077931Y226375*
X1077658Y226750*
X1077385Y227500*
X1161703Y232375D02*
X1162249Y232750D01*
X1163067Y233875*
Y226000*
X1166067Y233875D02*
X1169067D01*
X1167431Y230875*
X1168249*
X1168794Y230500*
X1169067Y230125*
X1169340Y229000*
Y228250*
X1169067Y227125*
X1168521Y226375*
X1167703Y226000*
X1166885*
X1166067Y226375*
X1165794Y226750*
X1165521Y227500*
X1196567Y226000D02*
X1208567D01*
X1196567Y238000*
X1208567*
X1196567Y226000*
X1229203Y233875D02*
X1231385Y230125D01*
Y226000*
X1233567Y233875D02*
X1231385Y230125D01*
X1236021Y233875D02*
Y226000D01*
Y233875D02*
X1239567D01*
X1236021Y230125D02*
X1238203D01*
X1236021Y226000D02*
X1239567D01*
X1245840Y232750D02*
X1245294Y233500D01*
X1244476Y233875*
X1243385*
X1242567Y233500*
X1242021Y232750*
Y232000*
X1242294Y231250*
X1242567Y230875*
X1243112Y230500*
X1244749Y229750*
X1245294Y229375*
X1245567Y229000*
X1245840Y228250*
Y227125*
X1245294Y226375*
X1244476Y226000*
X1243385*
X1242567Y226375*
X1242021Y227125*
X1282385Y232750D02*
Y226000D01*
X1279931Y229375D02*
X1284840D01*
X1292203Y235375D02*
X1287294Y223375D01*
X1294658Y229375D02*
X1299567D01*
X1303658Y233875D02*
X1302840Y233500D01*
X1302294Y232375*
X1302021Y230500*
Y229375*
X1302294Y227500*
X1302840Y226375*
X1303658Y226000*
X1304203*
X1305021Y226375*
X1305567Y227500*
X1305840Y229375*
Y230500*
X1305567Y232375*
X1305021Y233500*
X1304203Y233875*
X1303658*
X1308567Y226750D02*
X1308294Y226375D01*
X1308567Y226000*
X1308840Y226375*
X1308567Y226750*
X1312931Y233875D02*
X1312112Y233500D01*
X1311567Y232375*
X1311294Y230500*
Y229375*
X1311567Y227500*
X1312112Y226375*
X1312931Y226000*
X1313476*
X1314294Y226375*
X1314840Y227500*
X1315112Y229375*
Y230500*
X1314840Y232375*
X1314294Y233500*
X1313476Y233875*
X1312931*
X1070567Y208375D02*
X1071112Y208750D01*
X1071931Y209875*
Y202000*
X1074658Y202750D02*
X1074385Y202375D01*
X1074658Y202000*
X1074931Y202375*
X1074658Y202750*
X1080931Y209875D02*
X1078203D01*
X1077931Y206500*
X1078203Y206875*
X1079021Y207250*
X1079840*
X1080658Y206875*
X1081203Y206125*
X1081476Y205000*
X1081203Y204250*
X1080931Y203125*
X1080385Y202375*
X1079567Y202000*
X1078749*
X1077931Y202375*
X1077658Y202750*
X1077385Y203500*
X1164158Y209875D02*
X1167158D01*
X1165521Y206875*
X1166340*
X1166885Y206500*
X1167158Y206125*
X1167431Y205000*
Y204250*
X1167158Y203125*
X1166612Y202375*
X1165794Y202000*
X1164976*
X1164158Y202375*
X1163885Y202750*
X1163612Y203500*
X1196567Y202000D02*
X1208567Y214000D01*
Y202000*
X1196567Y214000*
Y202000*
X1229203Y209875D02*
X1231385Y206125D01*
Y202000*
X1233567Y209875D02*
X1231385Y206125D01*
X1236021Y209875D02*
Y202000D01*
Y209875D02*
X1239567D01*
X1236021Y206125D02*
X1238203D01*
X1236021Y202000D02*
X1239567D01*
X1245840Y208750D02*
X1245294Y209500D01*
X1244476Y209875*
X1243385*
X1242567Y209500*
X1242021Y208750*
Y208000*
X1242294Y207250*
X1242567Y206875*
X1243112Y206500*
X1244749Y205750*
X1245294Y205375*
X1245567Y205000*
X1245840Y204250*
Y203125*
X1245294Y202375*
X1244476Y202000*
X1243385*
X1242567Y202375*
X1242021Y203125*
X1282385Y208750D02*
Y202000D01*
X1279931Y205375D02*
X1284840D01*
X1292203Y211375D02*
X1287294Y199375D01*
X1294658Y205375D02*
X1299567D01*
X1303658Y209875D02*
X1302840Y209500D01*
X1302294Y208375*
X1302021Y206500*
Y205375*
X1302294Y203500*
X1302840Y202375*
X1303658Y202000*
X1304203*
X1305021Y202375*
X1305567Y203500*
X1305840Y205375*
Y206500*
X1305567Y208375*
X1305021Y209500*
X1304203Y209875*
X1303658*
X1308567Y202750D02*
X1308294Y202375D01*
X1308567Y202000*
X1308840Y202375*
X1308567Y202750*
X1312931Y209875D02*
X1312112Y209500D01*
X1311567Y208375*
X1311294Y206500*
Y205375*
X1311567Y203500*
X1312112Y202375*
X1312931Y202000*
X1313476*
X1314294Y202375*
X1314840Y203500*
X1315112Y205375*
Y206500*
X1314840Y208375*
X1314294Y209500*
X1313476Y209875*
X1312931*
X1072203Y185875D02*
X1071385Y185500D01*
X1070840Y184375*
X1070567Y182500*
Y181375*
X1070840Y179500*
X1071385Y178375*
X1072203Y178000*
X1072749*
X1073567Y178375*
X1074112Y179500*
X1074385Y181375*
Y182500*
X1074112Y184375*
X1073567Y185500*
X1072749Y185875*
X1072203*
X1077112Y178750D02*
X1076840Y178375D01*
X1077112Y178000*
X1077385Y178375*
X1077112Y178750*
X1080385Y185875D02*
X1083385D01*
X1081749Y182875*
X1082567*
X1083112Y182500*
X1083385Y182125*
X1083658Y181000*
Y180250*
X1083385Y179125*
X1082840Y178375*
X1082021Y178000*
X1081203*
X1080385Y178375*
X1080112Y178750*
X1079840Y179500*
X1159794Y185875D02*
X1157067Y180625D01*
X1161158*
X1159794Y185875D02*
Y178000D01*
X1167158Y185875D02*
X1164431D01*
X1164158Y182500*
X1164431Y182875*
X1165249Y183250*
X1166067*
X1166885Y182875*
X1167431Y182125*
X1167703Y181000*
X1167431Y180250*
X1167158Y179125*
X1166612Y178375*
X1165794Y178000*
X1164976*
X1164158Y178375*
X1163885Y178750*
X1163612Y179500*
X1171521Y185875D02*
X1170703Y185500D01*
X1170431Y184750*
Y184000*
X1170703Y183250*
X1171249Y182875*
X1172340Y182500*
X1173158Y182125*
X1173703Y181375*
X1173976Y180625*
Y179500*
X1173703Y178750*
X1173431Y178375*
X1172612Y178000*
X1171521*
X1170703Y178375*
X1170431Y178750*
X1170158Y179500*
Y180625*
X1170431Y181375*
X1170976Y182125*
X1171794Y182500*
X1172885Y182875*
X1173431Y183250*
X1173703Y184000*
Y184750*
X1173431Y185500*
X1172612Y185875*
X1171521*
X1196567Y184000D02*
X1208567D01*
X1202567Y178000D02*
Y190000D01*
X1207312Y193300D02*
X1205567Y187000D01*
X1207312Y193300D02*
X1209058Y187000D01*
X1206221Y189100D02*
X1208403D01*
X1229203Y185875D02*
X1231385Y182125D01*
Y178000*
X1233567Y185875D02*
X1231385Y182125D01*
X1236021Y185875D02*
Y178000D01*
Y185875D02*
X1239567D01*
X1236021Y182125D02*
X1238203D01*
X1236021Y178000D02*
X1239567D01*
X1245840Y184750D02*
X1245294Y185500D01*
X1244476Y185875*
X1243385*
X1242567Y185500*
X1242021Y184750*
Y184000*
X1242294Y183250*
X1242567Y182875*
X1243112Y182500*
X1244749Y181750*
X1245294Y181375*
X1245567Y181000*
X1245840Y180250*
Y179125*
X1245294Y178375*
X1244476Y178000*
X1243385*
X1242567Y178375*
X1242021Y179125*
X1282385Y184750D02*
Y178000D01*
X1279931Y181375D02*
X1284840D01*
X1292203Y187375D02*
X1287294Y175375D01*
X1294658Y181375D02*
X1299567D01*
X1303658Y185875D02*
X1302840Y185500D01*
X1302294Y184375*
X1302021Y182500*
Y181375*
X1302294Y179500*
X1302840Y178375*
X1303658Y178000*
X1304203*
X1305021Y178375*
X1305567Y179500*
X1305840Y181375*
Y182500*
X1305567Y184375*
X1305021Y185500*
X1304203Y185875*
X1303658*
X1308567Y178750D02*
X1308294Y178375D01*
X1308567Y178000*
X1308840Y178375*
X1308567Y178750*
X1312931Y185875D02*
X1312112Y185500D01*
X1311567Y184375*
X1311294Y182500*
Y181375*
X1311567Y179500*
X1312112Y178375*
X1312931Y178000*
X1313476*
X1314294Y178375*
X1314840Y179500*
X1315112Y181375*
Y182500*
X1314840Y184375*
X1314294Y185500*
X1313476Y185875*
X1312931*
X1070567Y160375D02*
X1071112Y160750D01*
X1071931Y161875*
Y154000*
X1074658Y154750D02*
X1074385Y154375D01*
X1074658Y154000*
X1074931Y154375*
X1074658Y154750*
X1078749Y161875D02*
X1077931Y161500D01*
X1077658Y160750*
Y160000*
X1077931Y159250*
X1078476Y158875*
X1079567Y158500*
X1080385Y158125*
X1080931Y157375*
X1081203Y156625*
Y155500*
X1080931Y154750*
X1080658Y154375*
X1079840Y154000*
X1078749*
X1077931Y154375*
X1077658Y154750*
X1077385Y155500*
Y156625*
X1077658Y157375*
X1078203Y158125*
X1079021Y158500*
X1080112Y158875*
X1080658Y159250*
X1080931Y160000*
Y160750*
X1080658Y161500*
X1079840Y161875*
X1078749*
X1163885Y160000D02*
Y160375D01*
X1164158Y161125*
X1164431Y161500*
X1164976Y161875*
X1166067*
X1166612Y161500*
X1166885Y161125*
X1167158Y160375*
Y159625*
X1166885Y158875*
X1166340Y157750*
X1163612Y154000*
X1167431*
X1196567Y160000D02*
X1208567D01*
X1202567Y154000D02*
Y166000D01*
X1205567Y169300D02*
Y163000D01*
Y169300D02*
X1207531D01*
X1208185Y169000*
X1208403Y168700*
X1208621Y168100*
Y167500*
X1208403Y166900*
X1208185Y166600*
X1207531Y166300*
X1205567D02*
X1207531D01*
X1208185Y166000*
X1208403Y165700*
X1208621Y165100*
Y164200*
X1208403Y163600*
X1208185Y163300*
X1207531Y163000*
X1205567*
X1229203Y161875D02*
X1231385Y158125D01*
Y154000*
X1233567Y161875D02*
X1231385Y158125D01*
X1236021Y161875D02*
Y154000D01*
Y161875D02*
X1239567D01*
X1236021Y158125D02*
X1238203D01*
X1236021Y154000D02*
X1239567D01*
X1245840Y160750D02*
X1245294Y161500D01*
X1244476Y161875*
X1243385*
X1242567Y161500*
X1242021Y160750*
Y160000*
X1242294Y159250*
X1242567Y158875*
X1243112Y158500*
X1244749Y157750*
X1245294Y157375*
X1245567Y157000*
X1245840Y156250*
Y155125*
X1245294Y154375*
X1244476Y154000*
X1243385*
X1242567Y154375*
X1242021Y155125*
X1282385Y160750D02*
Y154000D01*
X1279931Y157375D02*
X1284840D01*
X1292203Y163375D02*
X1287294Y151375D01*
X1294658Y157375D02*
X1299567D01*
X1303658Y161875D02*
X1302840Y161500D01*
X1302294Y160375*
X1302021Y158500*
Y157375*
X1302294Y155500*
X1302840Y154375*
X1303658Y154000*
X1304203*
X1305021Y154375*
X1305567Y155500*
X1305840Y157375*
Y158500*
X1305567Y160375*
X1305021Y161500*
X1304203Y161875*
X1303658*
X1308567Y154750D02*
X1308294Y154375D01*
X1308567Y154000*
X1308840Y154375*
X1308567Y154750*
X1312931Y161875D02*
X1312112Y161500D01*
X1311567Y160375*
X1311294Y158500*
Y157375*
X1311567Y155500*
X1312112Y154375*
X1312931Y154000*
X1313476*
X1314294Y154375*
X1314840Y155500*
X1315112Y157375*
Y158500*
X1314840Y160375*
X1314294Y161500*
X1313476Y161875*
X1312931*
X1072203Y137875D02*
X1071385Y137500D01*
X1070840Y136375*
X1070567Y134500*
Y133375*
X1070840Y131500*
X1071385Y130375*
X1072203Y130000*
X1072749*
X1073567Y130375*
X1074112Y131500*
X1074385Y133375*
Y134500*
X1074112Y136375*
X1073567Y137500*
X1072749Y137875*
X1072203*
X1077112Y130750D02*
X1076840Y130375D01*
X1077112Y130000*
X1077385Y130375*
X1077112Y130750*
X1083112Y136750D02*
X1082840Y137500D01*
X1082021Y137875*
X1081476*
X1080658Y137500*
X1080112Y136375*
X1079840Y134500*
Y132625*
X1080112Y131125*
X1080658Y130375*
X1081476Y130000*
X1081749*
X1082567Y130375*
X1083112Y131125*
X1083385Y132250*
Y132625*
X1083112Y133750*
X1082567Y134500*
X1081749Y134875*
X1081476*
X1080658Y134500*
X1080112Y133750*
X1079840Y132625*
X1163885Y136000D02*
Y136375D01*
X1164158Y137125*
X1164431Y137500*
X1164976Y137875*
X1166067*
X1166612Y137500*
X1166885Y137125*
X1167158Y136375*
Y135625*
X1166885Y134875*
X1166340Y133750*
X1163612Y130000*
X1167431*
X1196567Y136000D02*
X1208567D01*
X1202567Y130000D02*
Y142000D01*
X1208840Y143800D02*
X1208621Y144400D01*
X1208185Y145000*
X1207749Y145300*
X1206876*
X1206440Y145000*
X1206003Y144400*
X1205785Y143800*
X1205567Y142900*
Y141400*
X1205785Y140500*
X1206003Y139900*
X1206440Y139300*
X1206876Y139000*
X1207749*
X1208185Y139300*
X1208621Y139900*
X1208840Y140500*
X1229203Y137875D02*
X1231385Y134125D01*
Y130000*
X1233567Y137875D02*
X1231385Y134125D01*
X1236021Y137875D02*
Y130000D01*
Y137875D02*
X1239567D01*
X1236021Y134125D02*
X1238203D01*
X1236021Y130000D02*
X1239567D01*
X1245840Y136750D02*
X1245294Y137500D01*
X1244476Y137875*
X1243385*
X1242567Y137500*
X1242021Y136750*
Y136000*
X1242294Y135250*
X1242567Y134875*
X1243112Y134500*
X1244749Y133750*
X1245294Y133375*
X1245567Y133000*
X1245840Y132250*
Y131125*
X1245294Y130375*
X1244476Y130000*
X1243385*
X1242567Y130375*
X1242021Y131125*
X1282385Y136750D02*
Y130000D01*
X1279931Y133375D02*
X1284840D01*
X1292203Y139375D02*
X1287294Y127375D01*
X1294658Y133375D02*
X1299567D01*
X1303658Y137875D02*
X1302840Y137500D01*
X1302294Y136375*
X1302021Y134500*
Y133375*
X1302294Y131500*
X1302840Y130375*
X1303658Y130000*
X1304203*
X1305021Y130375*
X1305567Y131500*
X1305840Y133375*
Y134500*
X1305567Y136375*
X1305021Y137500*
X1304203Y137875*
X1303658*
X1308567Y130750D02*
X1308294Y130375D01*
X1308567Y130000*
X1308840Y130375*
X1308567Y130750*
X1312931Y137875D02*
X1312112Y137500D01*
X1311567Y136375*
X1311294Y134500*
Y133375*
X1311567Y131500*
X1312112Y130375*
X1312931Y130000*
X1313476*
X1314294Y130375*
X1314840Y131500*
X1315112Y133375*
Y134500*
X1314840Y136375*
X1314294Y137500*
X1313476Y137875*
X1312931*
X1070567Y112375D02*
X1071112Y112750D01*
X1071931Y113875*
Y106000*
X1164976Y113875D02*
X1164158Y113500D01*
X1163885Y112750*
Y112000*
X1164158Y111250*
X1164703Y110875*
X1165794Y110500*
X1166612Y110125*
X1167158Y109375*
X1167431Y108625*
Y107500*
X1167158Y106750*
X1166885Y106375*
X1166067Y106000*
X1164976*
X1164158Y106375*
X1163885Y106750*
X1163612Y107500*
Y108625*
X1163885Y109375*
X1164431Y110125*
X1165249Y110500*
X1166340Y110875*
X1166885Y111250*
X1167158Y112000*
Y112750*
X1166885Y113500*
X1166067Y113875*
X1164976*
X1196567Y112000D02*
X1208567D01*
X1202567Y106000D02*
Y118000D01*
X1205567Y121300D02*
Y115000D01*
Y121300D02*
X1207094D01*
X1207749Y121000*
X1208185Y120400*
X1208403Y119800*
X1208621Y118900*
Y117400*
X1208403Y116500*
X1208185Y115900*
X1207749Y115300*
X1207094Y115000*
X1205567*
X1229203Y113875D02*
X1231385Y110125D01*
Y106000*
X1233567Y113875D02*
X1231385Y110125D01*
X1236021Y113875D02*
Y106000D01*
Y113875D02*
X1239567D01*
X1236021Y110125D02*
X1238203D01*
X1236021Y106000D02*
X1239567D01*
X1245840Y112750D02*
X1245294Y113500D01*
X1244476Y113875*
X1243385*
X1242567Y113500*
X1242021Y112750*
Y112000*
X1242294Y111250*
X1242567Y110875*
X1243112Y110500*
X1244749Y109750*
X1245294Y109375*
X1245567Y109000*
X1245840Y108250*
Y107125*
X1245294Y106375*
X1244476Y106000*
X1243385*
X1242567Y106375*
X1242021Y107125*
X1282385Y112750D02*
Y106000D01*
X1279931Y109375D02*
X1284840D01*
X1292203Y115375D02*
X1287294Y103375D01*
X1294658Y109375D02*
X1299567D01*
X1303658Y113875D02*
X1302840Y113500D01*
X1302294Y112375*
X1302021Y110500*
Y109375*
X1302294Y107500*
X1302840Y106375*
X1303658Y106000*
X1304203*
X1305021Y106375*
X1305567Y107500*
X1305840Y109375*
Y110500*
X1305567Y112375*
X1305021Y113500*
X1304203Y113875*
X1303658*
X1308567Y106750D02*
X1308294Y106375D01*
X1308567Y106000*
X1308840Y106375*
X1308567Y106750*
X1312931Y113875D02*
X1312112Y113500D01*
X1311567Y112375*
X1311294Y110500*
Y109375*
X1311567Y107500*
X1312112Y106375*
X1312931Y106000*
X1313476*
X1314294Y106375*
X1314840Y107500*
X1315112Y109375*
Y110500*
X1314840Y112375*
X1314294Y113500*
X1313476Y113875*
X1312931*
G74*
X0Y0D02*
M02*
