%
T1C.01181F095S3
X016693Y012756
X017087Y012953
X01748Y01315
X017874Y013346
X018268Y013543
X018661Y01374
X019055Y013937
X019449Y014134
X024567Y014331
X024961Y014528
X025354Y014724
X025748Y014921
X026142Y015118
X027323Y015315
X03126Y015315
X031851Y015315
X035394Y014921
X036969Y012362
X037559Y014331
X03874Y014331
X038937Y012362
X051929Y013543
X05311Y013543
X057069Y014799
X057569Y015549
X058069Y015549
X058569Y015549
X062953Y014528
X062953Y013346
X06374Y014528
X06374Y013346
X065315Y014528
X066693Y011772
X066693Y010591
X068022Y014331
X069055Y011575
X070876Y014331
X072598Y011673
X072598Y012264
X075157Y014724
X076339Y014724
X079882Y011772
X079882Y010591
X079882Y01315
X081407Y011181
X084262Y011181
X085984Y013937
X086575Y014921
X087165Y013937
X08815Y013937
X08815Y015118
X093169Y014331
X09376Y014331
X09622Y016693
X094055Y015709
X092874Y015709
X09189Y01689
X09189Y015709
X090315Y01689
X090315Y015709
X089528Y017677
X089528Y01689
X089528Y015709
X086575Y017283
X083819Y01748
X083819Y016693
X083819Y015906
X082638Y01748
X082638Y016693
X082638Y015906
X08185Y017972
X079882Y015906
X070827Y016299
X069646Y016299
X065315Y01689
X06374Y01689
X06374Y015709
X062953Y015709
X062953Y01689
X061575Y015709
X061575Y01689
X055472Y016299
X055276Y015906
X054094Y015709
X054094Y01689
X05327Y017049
X05227Y017049
X05177Y017799
X050945Y01689
X050945Y015709
X048189Y018071
X047106Y016299
X046811Y017087
X046516Y016299
X045925Y016299
X04563Y017087
X045335Y016299
X04248Y017087
X04248Y016299
X041299Y016299
X041299Y017087
X037756Y016496
X037756Y017283
X037756Y017874
X037165Y016496
X034213Y017087
X034016Y016693
X032441Y015906
X029921Y017795
X029882Y016299
X029882Y017087
X028701Y017087
X028701Y016299
X027323Y017087
X027323Y016299
X026142Y017087
X026142Y016299
X025157Y01748
X025157Y016693
X023976Y01748
X023976Y016693
X017677Y017874
X017677Y017087
X017677Y016299
X016496Y016299
X016496Y017087
X016496Y017874
X015709Y017874
X015709Y016299
X015709Y017087
X014528Y017087
X014528Y016299
X014528Y017874
X014528Y018661
X014528Y019449
X015709Y018661
X015709Y019449
X016496Y019449
X016496Y018661
X017677Y019449
X017677Y018661
X022992Y020039
X023386Y020236
X023976Y019055
X023976Y018268
X025157Y018268
X025157Y019646
X025157Y019055
X025551Y019843
X026142Y019449
X027323Y019449
X028661Y01874
X028701Y019449
X029488Y020433
X029882Y019449
X031654Y018268
X034016Y020236
X035787Y018268
X035984Y018661
X036181Y019055
X036378Y019449
X036575Y019843
X036772Y020236
X037953Y020433
X042087Y018858
X042087Y020433
X042087Y019843
X042283Y019252
X044252Y020039
X044252Y018858
X047795Y018268
X048189Y020039
X048189Y018858
X049567Y019055
X049567Y019843
X050748Y019055
X050748Y019843
X052126Y020433
X057047Y019055
X057047Y019843
X058228Y019843
X058228Y019055
X059409Y019055
X059409Y019843
X060591Y019843
X060591Y019055
X06748Y018465
X06748Y019646
X068465Y018661
X07122Y018661
X089528Y019646
X089528Y018858
X090315Y019646
X09189Y018661
X094596Y020236
X097451Y020236
X100748Y021024
X099567Y021024
X09189Y021024
X090315Y020827
X089528Y020827
X08815Y022598
X086969Y022598
X08185Y0225
X071319Y022992
X066791Y022992
X061378Y022598
X057441Y022795
X055276Y020827
X055276Y022008
X051339Y021417
X047008Y021417
X045039Y021024
X042874Y022598
X04248Y022402
X040709Y02063
X040709Y021811
X038937Y022598
X038543Y022205
X03815Y022598
X037756Y022402
X037165Y021024
X036969Y02063
X035394Y022598
X034213Y022402
X034016Y021024
X033819Y02063
X03126Y02063
X031063Y021024
X029488Y022402
X027717Y022008
X027717Y020827
X024961Y021024
X019843Y021417
X019252Y022402
X018858Y022008
X018661Y022402
X018465Y021614
X017677Y022598
X017677Y021811
X016496Y022598
X016496Y021811
X015709Y021811
X015709Y022598
X014528Y022598
X014528Y021811
X014406Y025535
X014406Y027535
X014406Y026535
X016656Y025035
X016656Y027035
X016656Y026035
X01748Y02752
X01748Y026535
X017677Y025551
X018661Y024764
X018661Y023583
X028996Y025059
X032539Y025059
X033917Y025059
X035787Y023386
X037461Y025059
X038839Y025059
X040118Y026732
X040512Y026535
X042382Y025059
X04376Y025059
X043858Y026732
X043858Y027913
X044646Y026732
X044646Y027913
X045433Y026732
X045433Y027913
X045827Y023583
X04622Y026732
X04622Y027913
X046319Y025059
X048583Y025354
X048583Y024173
X05252Y024173
X052717Y02378
X055276Y023976
X055276Y025157
X056457Y02565
X056457Y023484
X056457Y026929
X057146Y026535
X057244Y023189
X058228Y024173
X058228Y025354
X059016Y025354
X059016Y024173
X061378Y025354
X06315Y027717
X068661Y027913
X068661Y026732
X069449Y027913
X069449Y026732
X070236Y027913
X070236Y026732
X072992Y026929
X075551Y026339
X085394Y02752
X08815Y02752
X089528Y024567
X091299Y026634
X094252Y027717
X094843Y02378
X09563Y026142
X096811Y026142
X097598Y02378
X099567Y027323
X099567Y024173
X100748Y024173
X100748Y027323
X100748Y030472
X099567Y030472
X097992Y031457
X095236Y031457
X094252Y029685
X094252Y028898
X094252Y030866
X091299Y031161
X087362Y029882
X086181Y029882
X085591Y033031
X084803Y033031
X079685Y033031
X078898Y033031
X076781Y030079
X075945Y032047
X074764Y032047
X073927Y030079
X071024Y028898
X071024Y03126
X069449Y031063
X069449Y029882
X068661Y031063
X068661Y029882
X065709Y031358
X06315Y030472
X062362Y03185
X062362Y033031
X058381Y030316
X058031Y031457
X057681Y030316
X056654Y029291
X056457Y031457
X056457Y030276
X055669Y030276
X055669Y031457
X055472Y029291
X053307Y029685
X052913Y029094
X052323Y028898
X052126Y028504
X043858Y029882
X039724Y030276
X039331Y030079
X037362Y030866
X036969Y030669
X032047Y030669
X016496Y028898
X016299Y030374
X016299Y031555
X015512Y030374
X015512Y031555
X015315Y028898
X01374Y030472
X015118Y035394
X015118Y036575
X021024Y037067
X025354Y036772
X062362Y035394
X062362Y034213
X065709Y035886
X067718Y037406
X067874Y036378
X068858Y037756
X069252Y036378
X072836Y037406
X073583Y034409
X073976Y037756
X076339Y034409
X077717Y035591
X077717Y037116
X078898Y034213
X079291Y037461
X079291Y035295
X079685Y034213
X08071Y033272
X08071Y033972
X08126Y037165
X08126Y03564
X08185Y033622
X084803Y034213
X085197Y037461
X085197Y035295
X085591Y034213
X086615Y033972
X086615Y033272
X087165Y037165
X087165Y03564
X087756Y033622
X099567Y036772
X099567Y033622
X100748Y036772
X100748Y033622
X073976Y039921
X073976Y039134
X07378Y042185
X072836Y038106
X072795Y039921
X072795Y039134
X071417Y04248
X071417Y041693
X070236Y04248
X070236Y041693
X068858Y039921
X068858Y039134
X068661Y042185
X067718Y038106
X067677Y039134
X067677Y039921
X066299Y04248
X066299Y041693
X065118Y04248
X065118Y041693
X028307Y03874
X027913Y038346
X022992Y03815
X021024Y03815
X021024Y039134
X020236Y039035
X020039Y042874
X019449Y043071
X015118Y043268
X015118Y044449
X054291Y046811
X054685Y046614
X055079Y046417
X060394Y046024
X065162Y044408
X065512Y043268
X065862Y044408
X066693Y044449
X066693Y043268
X06748Y044449
X06748Y043268
X068661Y04435
X07028Y044408
X07063Y043268
X07098Y044408
X071811Y044449
X071811Y043268
X072598Y044449
X072598Y043268
X07378Y04435
T2C.02362F197S55
X049857Y025157
X050457Y025157
T3C.0315F197S55
X016299Y011969
X016299Y011181
X017087Y011969
X017087Y011181
X017874Y011969
X017874Y011181
X018661Y011969
X018661Y011181
X019449Y011969
X019449Y011181
X020236Y011969
X020236Y011181
X021024Y011969
X021024Y011181
X021811Y011969
X021811Y011181
X022598Y011969
X022598Y011181
X023386Y011969
X023386Y011181
X024173Y011969
X024173Y011181
X024961Y011969
X024961Y011181
X025748Y011969
X025748Y011181
X026535Y011969
X026535Y011181
X027323Y011969
X027323Y011181
X02811Y011969
X02811Y011181
X028898Y011969
X028898Y011181
X032835Y011575
X10252Y015512
X103307Y015512
X103307Y017874
X103307Y017087
X103307Y016299
X103307Y020236
X103307Y019449
X103307Y018661
X10252Y017087
X10252Y020236
X10252Y017874
X10252Y019449
X10252Y016299
X10252Y018661
X041496Y018268
X011969Y017087
X011969Y017874
X011969Y018661
X011969Y019449
X011969Y016299
X011181Y017087
X011181Y018661
X011181Y016299
X011181Y019449
X011181Y017874
X011181Y024961
X011181Y027323
X011181Y026535
X011181Y025748
X011969Y027323
X011969Y026535
X011969Y024961
X011969Y025748
X019055Y02752
X019055Y026732
X019843Y02752
X019843Y026732
X02063Y02752
X02063Y026732
X021417Y02752
X021417Y026732
X022205Y02752
X022205Y026732
X022992Y026732
X022992Y02752
X02378Y026732
X02378Y02752
X024567Y02752
X024567Y026732
X025354Y02752
X025354Y026732
X026142Y02752
X026142Y026732
X026929Y02752
X026929Y026732
X027717Y02752
X027717Y026732
X028504Y02752
X028504Y026732
X029291Y02752
X029291Y026732
X030079Y02752
X030079Y026732
X030866Y02752
X030866Y026732
X031654Y02752
X031654Y026732
X032441Y02752
X032441Y026732
X033228Y02752
X033228Y026732
X034016Y02752
X034016Y026732
X034803Y02752
X034803Y026732
X035591Y02752
X035591Y026732
X036378Y02752
X036378Y026732
X037165Y026732
X037165Y02752
X060394Y027717
X061378Y026339
X084213Y02752
X10252Y021024
X103307Y021024
X094252Y032441
X011969Y030472
X011969Y029685
X011969Y028898
X011969Y02811
X011181Y029685
X011181Y02811
X011181Y028898
X011181Y030472
X019055Y047598
X019843Y047598
X02063Y047598
X021417Y047598
X022205Y047598
X022992Y047598
X02378Y047598
X024567Y047598
X025354Y047598
X026142Y047598
X026929Y047598
X027717Y047598
X028504Y047598
X029291Y047598
X030079Y047598
X030866Y047598
X031654Y047598
X032441Y047598
X033228Y047598
X034016Y047598
X034803Y047598
X035591Y047598
X036378Y047598
X037165Y047598
X037165Y048386
X036378Y048386
X035591Y048386
X034803Y048386
X034016Y048386
X033228Y048386
X032441Y048386
X031654Y048386
X030866Y048386
X030079Y048386
X029291Y048386
X028504Y048386
X027717Y048386
X026929Y048386
X026142Y048386
X025354Y048386
X024567Y048386
X02378Y048386
X022992Y048386
X022205Y048386
X021417Y048386
X02063Y048386
X019843Y048386
X019055Y048386
T4C.03543F197S55
X045618Y014661
X04602Y013661
X046421Y014661
X046823Y013661
X050157Y014724
X050157Y013724
X050945Y011181
X051929Y011181
X052913Y011181
X053898Y011181
X05685Y011181
X057835Y011181
X058819Y011181
X059803Y011181
X062756Y011181
X06374Y011181
X064724Y011181
X072402Y010787
X072795Y01315
X092283Y014528
X093268Y011575
X094252Y011575
X094646Y014134
X100551Y019449
X100551Y022598
X099764Y019449
X099764Y022598
X059016Y022795
X058228Y022795
X027323Y018268
X026323Y018268
X022449Y018449
X022449Y019449
X022449Y016449
X022449Y017449
X019449Y016449
X019449Y019449
X019449Y017449
X019449Y018449
X058031Y029291
X058031Y028504
X060394Y029685
X060394Y030669
X078898Y031654
X079685Y031654
X084803Y031654
X085591Y031654
X099764Y032047
X099764Y025748
X099764Y028898
X100551Y025748
X100551Y032047
X100551Y028898
X100551Y035197
X099764Y035197
X094252Y035591
X093268Y035591
X087165Y03874
X084165Y03874
X08126Y03874
X07826Y03874
X071417Y040315
X071417Y037315
X070417Y037315
X070417Y040315
X066299Y037315
X066299Y040315
X065299Y040315
X065299Y037315
X058031Y035394
X058031Y033425
X05685Y048008
X05685Y047008
X05785Y047008
X05785Y048008
X05885Y047008
X05885Y048008
X05985Y047008
X05985Y048008
X06085Y047008
X06085Y048008
X06185Y047008
X06185Y048008
X07826Y04074
X07826Y04374
X08126Y04374
X084165Y04374
X084165Y04074
X087165Y04374
T5C.03937F197S55
X089134Y036969
X089724Y036969
X097598Y036969
X098189Y036969
X104094Y039724
X103504Y039724
X099567Y039724
X098976Y039724
T6C.05118F107S55
X059606Y039528
X065906Y046614
X067286Y046614
X068661Y046614
X071024Y046614
X072405Y046614
X07378Y046614
X076142Y046614
X077523Y046614
X078898Y046614
X08126Y046614
X082641Y046614
X084016Y046614
T7C.05906F107S55
X059606Y04248
X074764Y012362
X076732Y012362
T8C.07087F081S55
X075748Y016496
X075748Y024764
T9C.09843F066S55
X044252Y012756
X048189Y012756
T10C.12598F035S794
X011575Y011575
X087165Y011575
X090315Y011575
X097008Y011575
X101535Y011181
X101535Y038346
X097008Y035197
X090315Y035197
X087165Y047795
X011575Y047795
M30
