*
*
G04 PADS 9.4.1 Build Number: 494907 generated Gerber (RS-274-X) file*
G04 PC Version=2.1*
*
%IN "CECS_BASEBOARD_NEW008.p"*%
*
%MOIN*%
*
%FSLAX35Y35*%
*
*
*
*
G04 PC Standard Apertures*
*
*
G04 Thermal Relief Aperture macro.*
%AMTER*
1,1,$1,0,0*
1,0,$1-$2,0,0*
21,0,$3,$4,0,0,45*
21,0,$3,$4,0,0,135*
%
*
*
G04 Annular Aperture macro.*
%AMANN*
1,1,$1,0,0*
1,0,$2,0,0*
%
*
*
G04 Odd Aperture macro.*
%AMODD*
1,1,$1,0,0*
1,0,$1-0.005,0,0*
%
*
*
G04 PC Custom Aperture Macros*
*
*
*
*
*
*
G04 PC Aperture Table*
*
%ADD010C,0.001*%
%ADD038C,0.08087*%
%ADD092C,0.18717*%
%ADD094C,0.06118*%
%ADD095C,0.06906*%
%ADD096C,0.08874*%
%ADD097C,0.07299*%
%ADD100R,0.07299X0.07299*%
%ADD101C,0.11236*%
%ADD104R,0.05921X0.05921*%
%ADD105C,0.05921*%
%ADD106R,0.06118X0.06118*%
%ADD127C,0.10843*%
%ADD128R,0.28559X0.28559*%
%ADD132O,0.04937X0.07*%
%ADD133C,0.04937*%
*
*
*
*
G04 PC Circuitry*
G04 Layer Name CECS_BASEBOARD_NEW008.p - circuitry*
%LPD*%
*
*
G04 PC Custom Flashes*
G04 Layer Name CECS_BASEBOARD_NEW008.p - flashes*
%LPD*%
*
*
G04 PC Circuitry*
G04 Layer Name CECS_BASEBOARD_NEW008.p - circuitry*
%LPD*%
*
G54D10*
G54D38*
G01X812598Y387402D03*
Y437402D03*
X782598D03*
Y387402D03*
Y407402D03*
X871654Y387402D03*
Y437402D03*
X841654D03*
Y387402D03*
Y407402D03*
G54D92*
X115748Y115748D03*
Y477953D03*
X871654D03*
Y115748D03*
X903150D03*
X970079D03*
Y351969D03*
X903150D03*
X1015354Y111811D03*
Y383465D03*
G54D94*
X371654Y267323D03*
X363780Y275197D03*
Y267323D03*
X355906Y275197D03*
Y267323D03*
X348031Y275197D03*
Y267323D03*
X340157Y275197D03*
Y267323D03*
X332283Y275197D03*
Y267323D03*
X324409Y275197D03*
Y267323D03*
X316535Y275197D03*
Y267323D03*
X308661Y275197D03*
Y267323D03*
X300787Y275197D03*
Y267323D03*
X292913Y275197D03*
Y267323D03*
X285039Y275197D03*
Y267323D03*
X277165Y275197D03*
Y267323D03*
X269291Y275197D03*
Y267323D03*
X261417Y275197D03*
Y267323D03*
X253543Y275197D03*
Y267323D03*
X245669Y275197D03*
Y267323D03*
X237795Y275197D03*
Y267323D03*
X229921Y275197D03*
Y267323D03*
X222047Y275197D03*
Y267323D03*
X214173Y275197D03*
Y267323D03*
X206299Y275197D03*
Y267323D03*
X198425Y275197D03*
Y267323D03*
X190551Y275197D03*
Y267323D03*
Y483858D03*
X198425Y475984D03*
Y483858D03*
X206299Y475984D03*
Y483858D03*
X214173Y475984D03*
Y483858D03*
X222047Y475984D03*
Y483858D03*
X229921Y475984D03*
Y483858D03*
X237795Y475984D03*
Y483858D03*
X245669Y475984D03*
Y483858D03*
X253543Y475984D03*
Y483858D03*
X261417Y475984D03*
Y483858D03*
X269291Y475984D03*
Y483858D03*
X277165Y475984D03*
Y483858D03*
X285039Y475984D03*
Y483858D03*
X292913Y475984D03*
Y483858D03*
X300787Y475984D03*
Y483858D03*
X308661Y475984D03*
Y483858D03*
X316535Y475984D03*
Y483858D03*
X324409Y475984D03*
Y483858D03*
X332283Y475984D03*
Y483858D03*
X340157Y475984D03*
Y483858D03*
X348031Y475984D03*
Y483858D03*
X355906Y475984D03*
Y483858D03*
X363780Y475984D03*
Y483858D03*
X371654Y475984D03*
Y483858D03*
X596063Y395276D03*
G54D95*
Y424803D03*
X997638Y257480D03*
X1005512D03*
X997638Y225984D03*
X1005512D03*
X997638Y194488D03*
X1005512D03*
X580315Y285039D03*
Y292913D03*
X590157Y227953D03*
X582283D03*
X796850Y316535D03*
X788976D03*
X855906D03*
X848031D03*
X997638Y351969D03*
X1005512D03*
X997638Y320472D03*
X1005512D03*
X997638Y288976D03*
X1005512D03*
X580315Y353937D03*
Y334252D03*
G54D96*
X686614Y466142D03*
X672864D03*
X659055D03*
X737795D03*
X724045D03*
X710236D03*
X788976D03*
X775226D03*
X761417D03*
X840157D03*
X826407D03*
X812598D03*
G54D97*
X468228Y136614D03*
X460197D03*
X464213Y146614D03*
X456181D03*
X603937Y296850D03*
Y306693D03*
X627559Y111811D03*
X637402D03*
X647244D03*
X568504D03*
X578346D03*
X588189D03*
X598031D03*
X942520Y355906D03*
X932677D03*
X942520Y115748D03*
X932677D03*
X509449Y111811D03*
X519291D03*
X529134D03*
X538976D03*
X263228Y182677D03*
X501575Y137244D03*
X568504Y480079D03*
X578504Y470079D03*
Y480079D03*
X588504Y470079D03*
Y480079D03*
X598504Y470079D03*
Y480079D03*
X608504Y470079D03*
Y480079D03*
X618504Y470079D03*
Y480079D03*
X652992Y403150D03*
Y373150D03*
X662992D03*
X704173Y403150D03*
Y373150D03*
X714173D03*
X727953Y131496D03*
X724016Y107874D03*
X946457Y141339D03*
X922835Y145276D03*
X194488Y184488D03*
Y174488D03*
Y164488D03*
X224488D03*
Y174488D03*
Y184488D03*
Y194488D03*
X603937Y277165D03*
X414961Y182677D03*
X842126Y275197D03*
X613780Y263386D03*
X942520Y324409D03*
X328346Y115748D03*
G54D100*
X273228Y182677D03*
X501575Y147244D03*
X568504Y470079D03*
X662992Y403150D03*
X714173D03*
X194488Y194488D03*
G54D101*
X747637Y123622D03*
X767323D03*
G54D104*
X288976Y119685D03*
X111811Y304724D03*
X1033071Y210236D03*
X119685Y162992D03*
G54D105*
X288976Y111811D03*
X281102Y119685D03*
Y111811D03*
X273228Y119685D03*
Y111811D03*
X265354Y119685D03*
Y111811D03*
X257480Y119685D03*
Y111811D03*
X249606Y119685D03*
Y111811D03*
X241732Y119685D03*
Y111811D03*
X233858Y119685D03*
Y111811D03*
X225984Y119685D03*
Y111811D03*
X218110Y119685D03*
Y111811D03*
X210236Y119685D03*
Y111811D03*
X202362Y119685D03*
Y111811D03*
X194488Y119685D03*
Y111811D03*
X186614Y119685D03*
Y111811D03*
X178740Y119685D03*
Y111811D03*
X170866Y119685D03*
Y111811D03*
X162992Y119685D03*
Y111811D03*
X119685Y304724D03*
X111811Y296850D03*
X119685D03*
X111811Y288976D03*
X119685D03*
X111811Y281102D03*
X119685D03*
X111811Y273228D03*
X119685D03*
X111811Y265354D03*
X119685D03*
X111811Y257480D03*
X119685D03*
X111811Y249606D03*
X119685D03*
X1025197Y210236D03*
X1033071Y202362D03*
X1025197D03*
X1033071Y194488D03*
X1025197D03*
X1033071Y186614D03*
X1025197D03*
X1033071Y178740D03*
X1025197D03*
X1033071Y170866D03*
X1025197D03*
X1033071Y162992D03*
X1025197D03*
X1033071Y155118D03*
X1025197D03*
X111811Y162992D03*
X119685Y170866D03*
X111811D03*
X119685Y178740D03*
X111811D03*
X119685Y186614D03*
X111811D03*
X119685Y194488D03*
X111811D03*
G54D106*
X371654Y275197D03*
X190551Y475984D03*
G54D127*
X481890Y127559D03*
X442520D03*
G54D128*
X757480Y172835D03*
Y239764D03*
G54D132*
X504575Y251575D03*
X498575D03*
G54D133*
X891339Y369685D03*
X897244D03*
X975984D03*
X981890D03*
X989764Y397244D03*
X995669D03*
X1035039D03*
X1040945D03*
X0Y0D02*
M02*
