*
*
G04 PADS 9.4.1 Build Number: 494907 generated Gerber (RS-274-X) file*
G04 PC Version=2.1*
*
%IN "CECS_BASEBOARD_NEW008.p"*%
*
%MOIN*%
*
%FSLAX35Y35*%
*
*
*
*
G04 PC Standard Apertures*
*
*
G04 Thermal Relief Aperture macro.*
%AMTER*
1,1,$1,0,0*
1,0,$1-$2,0,0*
21,0,$3,$4,0,0,45*
21,0,$3,$4,0,0,135*
%
*
*
G04 Annular Aperture macro.*
%AMANN*
1,1,$1,0,0*
1,0,$2,0,0*
%
*
*
G04 Odd Aperture macro.*
%AMODD*
1,1,$1,0,0*
1,0,$1-0.005,0,0*
%
*
*
G04 PC Custom Aperture Macros*
*
*
*
*
*
*
G04 PC Aperture Table*
*
%ADD010C,0.001*%
%ADD031C,0.01*%
%ADD038C,0.08087*%
%ADD092C,0.18717*%
%ADD093R,0.12811X0.18717*%
%ADD094C,0.06118*%
%ADD095C,0.06906*%
%ADD096C,0.08874*%
%ADD097C,0.07299*%
%ADD100R,0.07299X0.07299*%
%ADD101C,0.11236*%
%ADD104R,0.05921X0.05921*%
%ADD105C,0.05921*%
%ADD106R,0.06118X0.06118*%
%ADD107R,0.26591X0.08874*%
%ADD108R,0.08874X0.26591*%
%ADD109R,0.33283X0.13992*%
%ADD110R,0.13992X0.33283*%
%ADD111R,0.10843X0.06906*%
%ADD113O,0.034X0.084*%
%ADD114O,0.084X0.034*%
%ADD115O,0.02X0.075*%
%ADD116O,0.075X0.02*%
%ADD118R,0.06512X0.05724*%
%ADD127C,0.10843*%
%ADD128R,0.28559X0.28559*%
%ADD129R,0.06512X0.02181*%
%ADD130R,0.06512X0.0415*%
%ADD131R,0.12811X0.08874*%
%ADD132O,0.04937X0.07*%
%ADD133C,0.04937*%
*
*
*
*
G04 PC Circuitry*
G04 Layer Name CECS_BASEBOARD_NEW008.p - circuitry*
%LPD*%
*
*
G04 PC Custom Flashes*
G04 Layer Name CECS_BASEBOARD_NEW008.p - flashes*
%LPD*%
*
*
G04 PC Circuitry*
G04 Layer Name CECS_BASEBOARD_NEW008.p - circuitry*
%LPD*%
*
G54D10*
G54D31*
G01X554724Y220079D02*
X550787D01*
Y216142*
X554724*
Y220079*
X551256Y216142D02*
Y220079D01*
X551756Y216142D02*
Y220079D01*
X552256Y216142D02*
Y220079D01*
X552756Y216142D02*
Y220079D01*
X553256Y216142D02*
Y220079D01*
X553756Y216142D02*
Y220079D01*
X554256Y216142D02*
Y220079D01*
X554724Y208268D02*
Y212205D01*
X550787*
Y208268*
X554724*
X551256D02*
Y212205D01*
X551756Y208268D02*
Y212205D01*
X552256Y208268D02*
Y212205D01*
X552756Y208268D02*
Y212205D01*
X553256Y208268D02*
Y212205D01*
X553756Y208268D02*
Y212205D01*
X554256Y208268D02*
Y212205D01*
X759449Y318504D02*
Y322441D01*
X755512*
Y318504*
X759449*
X755543D02*
Y322441D01*
X756043Y318504D02*
Y322441D01*
X756543Y318504D02*
Y322441D01*
X757043Y318504D02*
Y322441D01*
X757543Y318504D02*
Y322441D01*
X758043Y318504D02*
Y322441D01*
X758543Y318504D02*
Y322441D01*
X759043Y318504D02*
Y322441D01*
X747638Y318504D02*
X751575D01*
Y322441*
X747638*
Y318504*
X748043D02*
Y322441D01*
X748543Y318504D02*
Y322441D01*
X749043Y318504D02*
Y322441D01*
X749543Y318504D02*
Y322441D01*
X750043Y318504D02*
Y322441D01*
X750543Y318504D02*
Y322441D01*
X751043Y318504D02*
Y322441D01*
X751543Y318504D02*
Y322441D01*
X704331Y279134D02*
X700394D01*
Y275197*
X704331*
Y279134*
X700862Y275197D02*
Y279134D01*
X701362Y275197D02*
Y279134D01*
X701862Y275197D02*
Y279134D01*
X702362Y275197D02*
Y279134D01*
X702862Y275197D02*
Y279134D01*
X703362Y275197D02*
Y279134D01*
X703862Y275197D02*
Y279134D01*
X704331Y267323D02*
Y271260D01*
X700394*
Y267323*
X704331*
X700862D02*
Y271260D01*
X701362Y267323D02*
Y271260D01*
X701862Y267323D02*
Y271260D01*
X702362Y267323D02*
Y271260D01*
X702862Y267323D02*
Y271260D01*
X703362Y267323D02*
Y271260D01*
X703862Y267323D02*
Y271260D01*
X444488Y200394D02*
X440551D01*
Y196457*
X444488*
Y200394*
X441020Y196457D02*
Y200394D01*
X441520Y196457D02*
Y200394D01*
X442020Y196457D02*
Y200394D01*
X442520Y196457D02*
Y200394D01*
X443020Y196457D02*
Y200394D01*
X443520Y196457D02*
Y200394D01*
X444020Y196457D02*
Y200394D01*
X444488Y188583D02*
Y192520D01*
X440551*
Y188583*
X444488*
X441020D02*
Y192520D01*
X441520Y188583D02*
Y192520D01*
X442020Y188583D02*
Y192520D01*
X442520Y188583D02*
Y192520D01*
X443020Y188583D02*
Y192520D01*
X443520Y188583D02*
Y192520D01*
X444020Y188583D02*
Y192520D01*
X188583Y247638D02*
X184646D01*
Y243701*
X188583*
Y247638*
X185114Y243701D02*
Y247638D01*
X185614Y243701D02*
Y247638D01*
X186114Y243701D02*
Y247638D01*
X186614Y243701D02*
Y247638D01*
X187114Y243701D02*
Y247638D01*
X187614Y243701D02*
Y247638D01*
X188114Y243701D02*
Y247638D01*
X188583Y235827D02*
Y239764D01*
X184646*
Y235827*
X188583*
X185114D02*
Y239764D01*
X185614Y235827D02*
Y239764D01*
X186114Y235827D02*
Y239764D01*
X186614Y235827D02*
Y239764D01*
X187114Y235827D02*
Y239764D01*
X187614Y235827D02*
Y239764D01*
X188114Y235827D02*
Y239764D01*
X164961Y287008D02*
Y290945D01*
X161024*
Y287008*
X164961*
X161055D02*
Y290945D01*
X161555Y287008D02*
Y290945D01*
X162055Y287008D02*
Y290945D01*
X162555Y287008D02*
Y290945D01*
X163055Y287008D02*
Y290945D01*
X163555Y287008D02*
Y290945D01*
X164055Y287008D02*
Y290945D01*
X164555Y287008D02*
Y290945D01*
X153150Y287008D02*
X157087D01*
Y290945*
X153150*
Y287008*
X153555D02*
Y290945D01*
X154055Y287008D02*
Y290945D01*
X154555Y287008D02*
Y290945D01*
X155055Y287008D02*
Y290945D01*
X155555Y287008D02*
Y290945D01*
X156055Y287008D02*
Y290945D01*
X156555Y287008D02*
Y290945D01*
X157055Y287008D02*
Y290945D01*
X298819Y192520D02*
Y196457D01*
X294882*
Y192520*
X298819*
X294913D02*
Y196457D01*
X295413Y192520D02*
Y196457D01*
X295913Y192520D02*
Y196457D01*
X296413Y192520D02*
Y196457D01*
X296913Y192520D02*
Y196457D01*
X297413Y192520D02*
Y196457D01*
X297913Y192520D02*
Y196457D01*
X298413Y192520D02*
Y196457D01*
X287008Y192520D02*
X290945D01*
Y196457*
X287008*
Y192520*
X287413D02*
Y196457D01*
X287913Y192520D02*
Y196457D01*
X288413Y192520D02*
Y196457D01*
X288913Y192520D02*
Y196457D01*
X289413Y192520D02*
Y196457D01*
X289913Y192520D02*
Y196457D01*
X290413Y192520D02*
Y196457D01*
X290913Y192520D02*
Y196457D01*
X287008Y172835D02*
Y168898D01*
X290945*
Y172835*
X287008*
X287413Y168898D02*
Y172835D01*
X287913Y168898D02*
Y172835D01*
X288413Y168898D02*
Y172835D01*
X288913Y168898D02*
Y172835D01*
X289413Y168898D02*
Y172835D01*
X289913Y168898D02*
Y172835D01*
X290413Y168898D02*
Y172835D01*
X290913Y168898D02*
Y172835D01*
X298819D02*
X294882D01*
Y168898*
X298819*
Y172835*
X294913Y168898D02*
Y172835D01*
X295413Y168898D02*
Y172835D01*
X295913Y168898D02*
Y172835D01*
X296413Y168898D02*
Y172835D01*
X296913Y168898D02*
Y172835D01*
X297413Y168898D02*
Y172835D01*
X297913Y168898D02*
Y172835D01*
X298413Y168898D02*
Y172835D01*
X570472Y200394D02*
Y196457D01*
X574409*
Y200394*
X570472*
X570878Y196457D02*
Y200394D01*
X571378Y196457D02*
Y200394D01*
X571878Y196457D02*
Y200394D01*
X572378Y196457D02*
Y200394D01*
X572878Y196457D02*
Y200394D01*
X573378Y196457D02*
Y200394D01*
X573878Y196457D02*
Y200394D01*
X574378Y196457D02*
Y200394D01*
X582283D02*
X578346D01*
Y196457*
X582283*
Y200394*
X578378Y196457D02*
Y200394D01*
X578878Y196457D02*
Y200394D01*
X579378Y196457D02*
Y200394D01*
X579878Y196457D02*
Y200394D01*
X580378Y196457D02*
Y200394D01*
X580878Y196457D02*
Y200394D01*
X581378Y196457D02*
Y200394D01*
X581878Y196457D02*
Y200394D01*
X605906Y196457D02*
Y200394D01*
X601969*
Y196457*
X605906*
X602000D02*
Y200394D01*
X602500Y196457D02*
Y200394D01*
X603000Y196457D02*
Y200394D01*
X603500Y196457D02*
Y200394D01*
X604000Y196457D02*
Y200394D01*
X604500Y196457D02*
Y200394D01*
X605000Y196457D02*
Y200394D01*
X605500Y196457D02*
Y200394D01*
X594094Y196457D02*
X598031D01*
Y200394*
X594094*
Y196457*
X594500D02*
Y200394D01*
X595000Y196457D02*
Y200394D01*
X595500Y196457D02*
Y200394D01*
X596000Y196457D02*
Y200394D01*
X596500Y196457D02*
Y200394D01*
X597000Y196457D02*
Y200394D01*
X597500Y196457D02*
Y200394D01*
X598000Y196457D02*
Y200394D01*
X605906Y188583D02*
Y192520D01*
X601969*
Y188583*
X605906*
X602000D02*
Y192520D01*
X602500Y188583D02*
Y192520D01*
X603000Y188583D02*
Y192520D01*
X603500Y188583D02*
Y192520D01*
X604000Y188583D02*
Y192520D01*
X604500Y188583D02*
Y192520D01*
X605000Y188583D02*
Y192520D01*
X605500Y188583D02*
Y192520D01*
X594094Y188583D02*
X598031D01*
Y192520*
X594094*
Y188583*
X594500D02*
Y192520D01*
X595000Y188583D02*
Y192520D01*
X595500Y188583D02*
Y192520D01*
X596000Y188583D02*
Y192520D01*
X596500Y188583D02*
Y192520D01*
X597000Y188583D02*
Y192520D01*
X597500Y188583D02*
Y192520D01*
X598000Y188583D02*
Y192520D01*
X554724Y251575D02*
X550787D01*
Y247638*
X554724*
Y251575*
X551256Y247638D02*
Y251575D01*
X551756Y247638D02*
Y251575D01*
X552256Y247638D02*
Y251575D01*
X552756Y247638D02*
Y251575D01*
X553256Y247638D02*
Y251575D01*
X553756Y247638D02*
Y251575D01*
X554256Y247638D02*
Y251575D01*
X554724Y239764D02*
Y243701D01*
X550787*
Y239764*
X554724*
X551256D02*
Y243701D01*
X551756Y239764D02*
Y243701D01*
X552256Y239764D02*
Y243701D01*
X552756Y239764D02*
Y243701D01*
X553256Y239764D02*
Y243701D01*
X553756Y239764D02*
Y243701D01*
X554256Y239764D02*
Y243701D01*
X570472Y192520D02*
Y188583D01*
X574409*
Y192520*
X570472*
X570878Y188583D02*
Y192520D01*
X571378Y188583D02*
Y192520D01*
X571878Y188583D02*
Y192520D01*
X572378Y188583D02*
Y192520D01*
X572878Y188583D02*
Y192520D01*
X573378Y188583D02*
Y192520D01*
X573878Y188583D02*
Y192520D01*
X574378Y188583D02*
Y192520D01*
X582283D02*
X578346D01*
Y188583*
X582283*
Y192520*
X578378Y188583D02*
Y192520D01*
X578878Y188583D02*
Y192520D01*
X579378Y188583D02*
Y192520D01*
X579878Y188583D02*
Y192520D01*
X580378Y188583D02*
Y192520D01*
X580878Y188583D02*
Y192520D01*
X581378Y188583D02*
Y192520D01*
X581878Y188583D02*
Y192520D01*
X279134Y220079D02*
X275197D01*
Y216142*
X279134*
Y220079*
X275665Y216142D02*
Y220079D01*
X276165Y216142D02*
Y220079D01*
X276665Y216142D02*
Y220079D01*
X277165Y216142D02*
Y220079D01*
X277665Y216142D02*
Y220079D01*
X278165Y216142D02*
Y220079D01*
X278665Y216142D02*
Y220079D01*
X279134Y208268D02*
Y212205D01*
X275197*
Y208268*
X279134*
X275665D02*
Y212205D01*
X276165Y208268D02*
Y212205D01*
X276665Y208268D02*
Y212205D01*
X277165Y208268D02*
Y212205D01*
X277665Y208268D02*
Y212205D01*
X278165Y208268D02*
Y212205D01*
X278665Y208268D02*
Y212205D01*
X298819Y161024D02*
Y164961D01*
X294882*
Y161024*
X298819*
X294913D02*
Y164961D01*
X295413Y161024D02*
Y164961D01*
X295913Y161024D02*
Y164961D01*
X296413Y161024D02*
Y164961D01*
X296913Y161024D02*
Y164961D01*
X297413Y161024D02*
Y164961D01*
X297913Y161024D02*
Y164961D01*
X298413Y161024D02*
Y164961D01*
X287008Y161024D02*
X290945D01*
Y164961*
X287008*
Y161024*
X287413D02*
Y164961D01*
X287913Y161024D02*
Y164961D01*
X288413Y161024D02*
Y164961D01*
X288913Y161024D02*
Y164961D01*
X289413Y161024D02*
Y164961D01*
X289913Y161024D02*
Y164961D01*
X290413Y161024D02*
Y164961D01*
X290913Y161024D02*
Y164961D01*
X387402Y141339D02*
Y145276D01*
X383465*
Y141339*
X387402*
X383496D02*
Y145276D01*
X383996Y141339D02*
Y145276D01*
X384496Y141339D02*
Y145276D01*
X384996Y141339D02*
Y145276D01*
X385496Y141339D02*
Y145276D01*
X385996Y141339D02*
Y145276D01*
X386496Y141339D02*
Y145276D01*
X386996Y141339D02*
Y145276D01*
X375591Y141339D02*
X379528D01*
Y145276*
X375591*
Y141339*
X375996D02*
Y145276D01*
X376496Y141339D02*
Y145276D01*
X376996Y141339D02*
Y145276D01*
X377496Y141339D02*
Y145276D01*
X377996Y141339D02*
Y145276D01*
X378496Y141339D02*
Y145276D01*
X378996Y141339D02*
Y145276D01*
X379496Y141339D02*
Y145276D01*
X409055Y218110D02*
X405118D01*
Y214173*
X409055*
Y218110*
X405587Y214173D02*
Y218110D01*
X406087Y214173D02*
Y218110D01*
X406587Y214173D02*
Y218110D01*
X407087Y214173D02*
Y218110D01*
X407587Y214173D02*
Y218110D01*
X408087Y214173D02*
Y218110D01*
X408587Y214173D02*
Y218110D01*
X409055Y206299D02*
Y210236D01*
X405118*
Y206299*
X409055*
X405587D02*
Y210236D01*
X406087Y206299D02*
Y210236D01*
X406587Y206299D02*
Y210236D01*
X407087Y206299D02*
Y210236D01*
X407587Y206299D02*
Y210236D01*
X408087Y206299D02*
Y210236D01*
X408587Y206299D02*
Y210236D01*
X613780Y157087D02*
X617717D01*
Y161024*
X613780*
Y157087*
X614248D02*
Y161024D01*
X614748Y157087D02*
Y161024D01*
X615248Y157087D02*
Y161024D01*
X615748Y157087D02*
Y161024D01*
X616248Y157087D02*
Y161024D01*
X616748Y157087D02*
Y161024D01*
X617248Y157087D02*
Y161024D01*
X613780Y168898D02*
Y164961D01*
X617717*
Y168898*
X613780*
X614248Y164961D02*
Y168898D01*
X614748Y164961D02*
Y168898D01*
X615248Y164961D02*
Y168898D01*
X615748Y164961D02*
Y168898D01*
X616248Y164961D02*
Y168898D01*
X616748Y164961D02*
Y168898D01*
X617248Y164961D02*
Y168898D01*
X859843Y141339D02*
Y137402D01*
X863780*
Y141339*
X859843*
X860248Y137402D02*
Y141339D01*
X860748Y137402D02*
Y141339D01*
X861248Y137402D02*
Y141339D01*
X861748Y137402D02*
Y141339D01*
X862248Y137402D02*
Y141339D01*
X862748Y137402D02*
Y141339D01*
X863248Y137402D02*
Y141339D01*
X863748Y137402D02*
Y141339D01*
X871654D02*
X867717D01*
Y137402*
X871654*
Y141339*
X867748Y137402D02*
Y141339D01*
X868248Y137402D02*
Y141339D01*
X868748Y137402D02*
Y141339D01*
X869248Y137402D02*
Y141339D01*
X869748Y137402D02*
Y141339D01*
X870248Y137402D02*
Y141339D01*
X870748Y137402D02*
Y141339D01*
X871248Y137402D02*
Y141339D01*
X639370Y168898D02*
X635433D01*
Y164961*
X639370*
Y168898*
X635902Y164961D02*
Y168898D01*
X636402Y164961D02*
Y168898D01*
X636902Y164961D02*
Y168898D01*
X637402Y164961D02*
Y168898D01*
X637902Y164961D02*
Y168898D01*
X638402Y164961D02*
Y168898D01*
X638902Y164961D02*
Y168898D01*
X639370Y157087D02*
Y161024D01*
X635433*
Y157087*
X639370*
X635902D02*
Y161024D01*
X636402Y157087D02*
Y161024D01*
X636902Y157087D02*
Y161024D01*
X637402Y157087D02*
Y161024D01*
X637902Y157087D02*
Y161024D01*
X638402Y157087D02*
Y161024D01*
X638902Y157087D02*
Y161024D01*
X869685Y227953D02*
Y224016D01*
X873622*
Y227953*
X869685*
X870091Y224016D02*
Y227953D01*
X870591Y224016D02*
Y227953D01*
X871091Y224016D02*
Y227953D01*
X871591Y224016D02*
Y227953D01*
X872091Y224016D02*
Y227953D01*
X872591Y224016D02*
Y227953D01*
X873091Y224016D02*
Y227953D01*
X873591Y224016D02*
Y227953D01*
X881496D02*
X877559D01*
Y224016*
X881496*
Y227953*
X877591Y224016D02*
Y227953D01*
X878091Y224016D02*
Y227953D01*
X878591Y224016D02*
Y227953D01*
X879091Y224016D02*
Y227953D01*
X879591Y224016D02*
Y227953D01*
X880091Y224016D02*
Y227953D01*
X880591Y224016D02*
Y227953D01*
X881091Y224016D02*
Y227953D01*
X861811Y300787D02*
Y296850D01*
X865748*
Y300787*
X861811*
X862217Y296850D02*
Y300787D01*
X862717Y296850D02*
Y300787D01*
X863217Y296850D02*
Y300787D01*
X863717Y296850D02*
Y300787D01*
X864217Y296850D02*
Y300787D01*
X864717Y296850D02*
Y300787D01*
X865217Y296850D02*
Y300787D01*
X865717Y296850D02*
Y300787D01*
X873622D02*
X869685D01*
Y296850*
X873622*
Y300787*
X869717Y296850D02*
Y300787D01*
X870217Y296850D02*
Y300787D01*
X870717Y296850D02*
Y300787D01*
X871217Y296850D02*
Y300787D01*
X871717Y296850D02*
Y300787D01*
X872217Y296850D02*
Y300787D01*
X872717Y296850D02*
Y300787D01*
X873217Y296850D02*
Y300787D01*
X487795Y253543D02*
X483858D01*
Y249606*
X487795*
Y253543*
X484327Y249606D02*
Y253543D01*
X484827Y249606D02*
Y253543D01*
X485327Y249606D02*
Y253543D01*
X485827Y249606D02*
Y253543D01*
X486327Y249606D02*
Y253543D01*
X486827Y249606D02*
Y253543D01*
X487327Y249606D02*
Y253543D01*
X487795Y241732D02*
Y245669D01*
X483858*
Y241732*
X487795*
X484327D02*
Y245669D01*
X484827Y241732D02*
Y245669D01*
X485327Y241732D02*
Y245669D01*
X485827Y241732D02*
Y245669D01*
X486327Y241732D02*
Y245669D01*
X486827Y241732D02*
Y245669D01*
X487327Y241732D02*
Y245669D01*
X676772Y196457D02*
X672835D01*
Y192520*
X676772*
Y196457*
X673303Y192520D02*
Y196457D01*
X673803Y192520D02*
Y196457D01*
X674303Y192520D02*
Y196457D01*
X674803Y192520D02*
Y196457D01*
X675303Y192520D02*
Y196457D01*
X675803Y192520D02*
Y196457D01*
X676303Y192520D02*
Y196457D01*
X676772Y184646D02*
Y188583D01*
X672835*
Y184646*
X676772*
X673303D02*
Y188583D01*
X673803Y184646D02*
Y188583D01*
X674303Y184646D02*
Y188583D01*
X674803Y184646D02*
Y188583D01*
X675303Y184646D02*
Y188583D01*
X675803Y184646D02*
Y188583D01*
X676303Y184646D02*
Y188583D01*
X592126Y253543D02*
X588189D01*
Y249606*
X592126*
Y253543*
X588657Y249606D02*
Y253543D01*
X589157Y249606D02*
Y253543D01*
X589657Y249606D02*
Y253543D01*
X590157Y249606D02*
Y253543D01*
X590657Y249606D02*
Y253543D01*
X591157Y249606D02*
Y253543D01*
X591657Y249606D02*
Y253543D01*
X592126Y241732D02*
Y245669D01*
X588189*
Y241732*
X592126*
X588657D02*
Y245669D01*
X589157Y241732D02*
Y245669D01*
X589657Y241732D02*
Y245669D01*
X590157Y241732D02*
Y245669D01*
X590657Y241732D02*
Y245669D01*
X591157Y241732D02*
Y245669D01*
X591657Y241732D02*
Y245669D01*
X751575Y149213D02*
Y145276D01*
X755512*
Y149213*
X751575*
X751980Y145276D02*
Y149213D01*
X752480Y145276D02*
Y149213D01*
X752980Y145276D02*
Y149213D01*
X753480Y145276D02*
Y149213D01*
X753980Y145276D02*
Y149213D01*
X754480Y145276D02*
Y149213D01*
X754980Y145276D02*
Y149213D01*
X755480Y145276D02*
Y149213D01*
X763386D02*
X759449D01*
Y145276*
X763386*
Y149213*
X759480Y145276D02*
Y149213D01*
X759980Y145276D02*
Y149213D01*
X760480Y145276D02*
Y149213D01*
X760980Y145276D02*
Y149213D01*
X761480Y145276D02*
Y149213D01*
X761980Y145276D02*
Y149213D01*
X762480Y145276D02*
Y149213D01*
X762980Y145276D02*
Y149213D01*
X796850Y105906D02*
X800787D01*
Y109843*
X796850*
Y105906*
X797319D02*
Y109843D01*
X797819Y105906D02*
Y109843D01*
X798319Y105906D02*
Y109843D01*
X798819Y105906D02*
Y109843D01*
X799319Y105906D02*
Y109843D01*
X799819Y105906D02*
Y109843D01*
X800319Y105906D02*
Y109843D01*
X796850Y117717D02*
Y113780D01*
X800787*
Y117717*
X796850*
X797319Y113780D02*
Y117717D01*
X797819Y113780D02*
Y117717D01*
X798319Y113780D02*
Y117717D01*
X798819Y113780D02*
Y117717D01*
X799319Y113780D02*
Y117717D01*
X799819Y113780D02*
Y117717D01*
X800319Y113780D02*
Y117717D01*
X826378Y161024D02*
Y157087D01*
X830315*
Y161024*
X826378*
X826783Y157087D02*
Y161024D01*
X827283Y157087D02*
Y161024D01*
X827783Y157087D02*
Y161024D01*
X828283Y157087D02*
Y161024D01*
X828783Y157087D02*
Y161024D01*
X829283Y157087D02*
Y161024D01*
X829783Y157087D02*
Y161024D01*
X830283Y157087D02*
Y161024D01*
X838189D02*
X834252D01*
Y157087*
X838189*
Y161024*
X834283Y157087D02*
Y161024D01*
X834783Y157087D02*
Y161024D01*
X835283Y157087D02*
Y161024D01*
X835783Y157087D02*
Y161024D01*
X836283Y157087D02*
Y161024D01*
X836783Y157087D02*
Y161024D01*
X837283Y157087D02*
Y161024D01*
X837783Y157087D02*
Y161024D01*
X708268D02*
Y164961D01*
X704331*
Y161024*
X708268*
X704362D02*
Y164961D01*
X704862Y161024D02*
Y164961D01*
X705362Y161024D02*
Y164961D01*
X705862Y161024D02*
Y164961D01*
X706362Y161024D02*
Y164961D01*
X706862Y161024D02*
Y164961D01*
X707362Y161024D02*
Y164961D01*
X707862Y161024D02*
Y164961D01*
X696457Y161024D02*
X700394D01*
Y164961*
X696457*
Y161024*
X696862D02*
Y164961D01*
X697362Y161024D02*
Y164961D01*
X697862Y161024D02*
Y164961D01*
X698362Y161024D02*
Y164961D01*
X698862Y161024D02*
Y164961D01*
X699362Y161024D02*
Y164961D01*
X699862Y161024D02*
Y164961D01*
X700362Y161024D02*
Y164961D01*
X668898Y117717D02*
X664961D01*
Y113780*
X668898*
Y117717*
X665429Y113780D02*
Y117717D01*
X665929Y113780D02*
Y117717D01*
X666429Y113780D02*
Y117717D01*
X666929Y113780D02*
Y117717D01*
X667429Y113780D02*
Y117717D01*
X667929Y113780D02*
Y117717D01*
X668429Y113780D02*
Y117717D01*
X668898Y105906D02*
Y109843D01*
X664961*
Y105906*
X668898*
X665429D02*
Y109843D01*
X665929Y105906D02*
Y109843D01*
X666429Y105906D02*
Y109843D01*
X666929Y105906D02*
Y109843D01*
X667429Y105906D02*
Y109843D01*
X667929Y105906D02*
Y109843D01*
X668429Y105906D02*
Y109843D01*
X905118Y208268D02*
X901181D01*
Y204331*
X905118*
Y208268*
X901650Y204331D02*
Y208268D01*
X902150Y204331D02*
Y208268D01*
X902650Y204331D02*
Y208268D01*
X903150Y204331D02*
Y208268D01*
X903650Y204331D02*
Y208268D01*
X904150Y204331D02*
Y208268D01*
X904650Y204331D02*
Y208268D01*
X905118Y196457D02*
Y200394D01*
X901181*
Y196457*
X905118*
X901650D02*
Y200394D01*
X902150Y196457D02*
Y200394D01*
X902650Y196457D02*
Y200394D01*
X903150Y196457D02*
Y200394D01*
X903650Y196457D02*
Y200394D01*
X904150Y196457D02*
Y200394D01*
X904650Y196457D02*
Y200394D01*
X940551Y277165D02*
X944488D01*
Y281102*
X940551*
Y277165*
X941020D02*
Y281102D01*
X941520Y277165D02*
Y281102D01*
X942020Y277165D02*
Y281102D01*
X942520Y277165D02*
Y281102D01*
X943020Y277165D02*
Y281102D01*
X943520Y277165D02*
Y281102D01*
X944020Y277165D02*
Y281102D01*
X940551Y288976D02*
Y285039D01*
X944488*
Y288976*
X940551*
X941020Y285039D02*
Y288976D01*
X941520Y285039D02*
Y288976D01*
X942020Y285039D02*
Y288976D01*
X942520Y285039D02*
Y288976D01*
X943020Y285039D02*
Y288976D01*
X943520Y285039D02*
Y288976D01*
X944020Y285039D02*
Y288976D01*
X944488Y308661D02*
X940551D01*
Y304724*
X944488*
Y308661*
X941020Y304724D02*
Y308661D01*
X941520Y304724D02*
Y308661D01*
X942020Y304724D02*
Y308661D01*
X942520Y304724D02*
Y308661D01*
X943020Y304724D02*
Y308661D01*
X943520Y304724D02*
Y308661D01*
X944020Y304724D02*
Y308661D01*
X944488Y296850D02*
Y300787D01*
X940551*
Y296850*
X944488*
X941020D02*
Y300787D01*
X941520Y296850D02*
Y300787D01*
X942020Y296850D02*
Y300787D01*
X942520Y296850D02*
Y300787D01*
X943020Y296850D02*
Y300787D01*
X943520Y296850D02*
Y300787D01*
X944020Y296850D02*
Y300787D01*
X153150Y444488D02*
X149213D01*
Y440551*
X153150*
Y444488*
X149681Y440551D02*
Y444488D01*
X150181Y440551D02*
Y444488D01*
X150681Y440551D02*
Y444488D01*
X151181Y440551D02*
Y444488D01*
X151681Y440551D02*
Y444488D01*
X152181Y440551D02*
Y444488D01*
X152681Y440551D02*
Y444488D01*
X153150Y432677D02*
Y436614D01*
X149213*
Y432677*
X153150*
X149681D02*
Y436614D01*
X150181Y432677D02*
Y436614D01*
X150681Y432677D02*
Y436614D01*
X151181Y432677D02*
Y436614D01*
X151681Y432677D02*
Y436614D01*
X152181Y432677D02*
Y436614D01*
X152681Y432677D02*
Y436614D01*
X968110Y259449D02*
Y263386D01*
X964173*
Y259449*
X968110*
X964205D02*
Y263386D01*
X964705Y259449D02*
Y263386D01*
X965205Y259449D02*
Y263386D01*
X965705Y259449D02*
Y263386D01*
X966205Y259449D02*
Y263386D01*
X966705Y259449D02*
Y263386D01*
X967205Y259449D02*
Y263386D01*
X967705Y259449D02*
Y263386D01*
X956299Y259449D02*
X960236D01*
Y263386*
X956299*
Y259449*
X956705D02*
Y263386D01*
X957205Y259449D02*
Y263386D01*
X957705Y259449D02*
Y263386D01*
X958205Y259449D02*
Y263386D01*
X958705Y259449D02*
Y263386D01*
X959205Y259449D02*
Y263386D01*
X959705Y259449D02*
Y263386D01*
X960205Y259449D02*
Y263386D01*
X940551Y155118D02*
Y159055D01*
X936614*
Y155118*
X940551*
X936646D02*
Y159055D01*
X937146Y155118D02*
Y159055D01*
X937646Y155118D02*
Y159055D01*
X938146Y155118D02*
Y159055D01*
X938646Y155118D02*
Y159055D01*
X939146Y155118D02*
Y159055D01*
X939646Y155118D02*
Y159055D01*
X940146Y155118D02*
Y159055D01*
X928740Y155118D02*
X932677D01*
Y159055*
X928740*
Y155118*
X929146D02*
Y159055D01*
X929646Y155118D02*
Y159055D01*
X930146Y155118D02*
Y159055D01*
X930646Y155118D02*
Y159055D01*
X931146Y155118D02*
Y159055D01*
X931646Y155118D02*
Y159055D01*
X932146Y155118D02*
Y159055D01*
X932646Y155118D02*
Y159055D01*
X920866Y168898D02*
X916929D01*
Y164961*
X920866*
Y168898*
X917398Y164961D02*
Y168898D01*
X917898Y164961D02*
Y168898D01*
X918398Y164961D02*
Y168898D01*
X918898Y164961D02*
Y168898D01*
X919398Y164961D02*
Y168898D01*
X919898Y164961D02*
Y168898D01*
X920398Y164961D02*
Y168898D01*
X920866Y157087D02*
Y161024D01*
X916929*
Y157087*
X920866*
X917398D02*
Y161024D01*
X917898Y157087D02*
Y161024D01*
X918398Y157087D02*
Y161024D01*
X918898Y157087D02*
Y161024D01*
X919398Y157087D02*
Y161024D01*
X919898Y157087D02*
Y161024D01*
X920398Y157087D02*
Y161024D01*
X511417Y168898D02*
X507480D01*
Y164961*
X511417*
Y168898*
X507949Y164961D02*
Y168898D01*
X508449Y164961D02*
Y168898D01*
X508949Y164961D02*
Y168898D01*
X509449Y164961D02*
Y168898D01*
X509949Y164961D02*
Y168898D01*
X510449Y164961D02*
Y168898D01*
X510949Y164961D02*
Y168898D01*
X511417Y157087D02*
Y161024D01*
X507480*
Y157087*
X511417*
X507949D02*
Y161024D01*
X508449Y157087D02*
Y161024D01*
X508949Y157087D02*
Y161024D01*
X509449Y157087D02*
Y161024D01*
X509949Y157087D02*
Y161024D01*
X510449Y157087D02*
Y161024D01*
X510949Y157087D02*
Y161024D01*
X566535Y314567D02*
X562598D01*
Y310630*
X566535*
Y314567*
X563067Y310630D02*
Y314567D01*
X563567Y310630D02*
Y314567D01*
X564067Y310630D02*
Y314567D01*
X564567Y310630D02*
Y314567D01*
X565067Y310630D02*
Y314567D01*
X565567Y310630D02*
Y314567D01*
X566067Y310630D02*
Y314567D01*
X566535Y302756D02*
Y306693D01*
X562598*
Y302756*
X566535*
X563067D02*
Y306693D01*
X563567Y302756D02*
Y306693D01*
X564067Y302756D02*
Y306693D01*
X564567Y302756D02*
Y306693D01*
X565067Y302756D02*
Y306693D01*
X565567Y302756D02*
Y306693D01*
X566067Y302756D02*
Y306693D01*
X696457Y310630D02*
X692520D01*
Y306693*
X696457*
Y310630*
X692988Y306693D02*
Y310630D01*
X693488Y306693D02*
Y310630D01*
X693988Y306693D02*
Y310630D01*
X694488Y306693D02*
Y310630D01*
X694988Y306693D02*
Y310630D01*
X695488Y306693D02*
Y310630D01*
X695988Y306693D02*
Y310630D01*
X696457Y298819D02*
Y302756D01*
X692520*
Y298819*
X696457*
X692988D02*
Y302756D01*
X693488Y298819D02*
Y302756D01*
X693988Y298819D02*
Y302756D01*
X694488Y298819D02*
Y302756D01*
X694988Y298819D02*
Y302756D01*
X695488Y298819D02*
Y302756D01*
X695988Y298819D02*
Y302756D01*
X621654Y342126D02*
X625591D01*
Y346063*
X621654*
Y342126*
X622122D02*
Y346063D01*
X622622Y342126D02*
Y346063D01*
X623122Y342126D02*
Y346063D01*
X623622Y342126D02*
Y346063D01*
X624122Y342126D02*
Y346063D01*
X624622Y342126D02*
Y346063D01*
X625122Y342126D02*
Y346063D01*
X621654Y353937D02*
Y350000D01*
X625591*
Y353937*
X621654*
X622122Y350000D02*
Y353937D01*
X622622Y350000D02*
Y353937D01*
X623122Y350000D02*
Y353937D01*
X623622Y350000D02*
Y353937D01*
X624122Y350000D02*
Y353937D01*
X624622Y350000D02*
Y353937D01*
X625122Y350000D02*
Y353937D01*
X621654Y318504D02*
X625591D01*
Y322441*
X621654*
Y318504*
X622122D02*
Y322441D01*
X622622Y318504D02*
Y322441D01*
X623122Y318504D02*
Y322441D01*
X623622Y318504D02*
Y322441D01*
X624122Y318504D02*
Y322441D01*
X624622Y318504D02*
Y322441D01*
X625122Y318504D02*
Y322441D01*
X621654Y330315D02*
Y326378D01*
X625591*
Y330315*
X621654*
X622122Y326378D02*
Y330315D01*
X622622Y326378D02*
Y330315D01*
X623122Y326378D02*
Y330315D01*
X623622Y326378D02*
Y330315D01*
X624122Y326378D02*
Y330315D01*
X624622Y326378D02*
Y330315D01*
X625122Y326378D02*
Y330315D01*
X715157Y313583D02*
X705315D01*
Y304724*
X715157*
Y313583*
X705736Y304724D02*
Y313583D01*
X706236Y304724D02*
Y313583D01*
X706736Y304724D02*
Y313583D01*
X707236Y304724D02*
Y313583D01*
X707736Y304724D02*
Y313583D01*
X708236Y304724D02*
Y313583D01*
X708736Y304724D02*
Y313583D01*
X709236Y304724D02*
Y313583D01*
X709736Y304724D02*
Y313583D01*
X710236Y304724D02*
Y313583D01*
X710736Y304724D02*
Y313583D01*
X711236Y304724D02*
Y313583D01*
X711736Y304724D02*
Y313583D01*
X712236Y304724D02*
Y313583D01*
X712736Y304724D02*
Y313583D01*
X713236Y304724D02*
Y313583D01*
X713736Y304724D02*
Y313583D01*
X714236Y304724D02*
Y313583D01*
X714736Y304724D02*
Y313583D01*
X715157Y287992D02*
Y296850D01*
X705315*
Y287992*
X715157*
X705736D02*
Y296850D01*
X706236Y287992D02*
Y296850D01*
X706736Y287992D02*
Y296850D01*
X707236Y287992D02*
Y296850D01*
X707736Y287992D02*
Y296850D01*
X708236Y287992D02*
Y296850D01*
X708736Y287992D02*
Y296850D01*
X709236Y287992D02*
Y296850D01*
X709736Y287992D02*
Y296850D01*
X710236Y287992D02*
Y296850D01*
X710736Y287992D02*
Y296850D01*
X711236Y287992D02*
Y296850D01*
X711736Y287992D02*
Y296850D01*
X712236Y287992D02*
Y296850D01*
X712736Y287992D02*
Y296850D01*
X713236Y287992D02*
Y296850D01*
X713736Y287992D02*
Y296850D01*
X714236Y287992D02*
Y296850D01*
X714736Y287992D02*
Y296850D01*
X923819Y211220D02*
X913976D01*
Y202362*
X923819*
Y211220*
X914398Y202362D02*
Y211220D01*
X914898Y202362D02*
Y211220D01*
X915398Y202362D02*
Y211220D01*
X915898Y202362D02*
Y211220D01*
X916398Y202362D02*
Y211220D01*
X916898Y202362D02*
Y211220D01*
X917398Y202362D02*
Y211220D01*
X917898Y202362D02*
Y211220D01*
X918398Y202362D02*
Y211220D01*
X918898Y202362D02*
Y211220D01*
X919398Y202362D02*
Y211220D01*
X919898Y202362D02*
Y211220D01*
X920398Y202362D02*
Y211220D01*
X920898Y202362D02*
Y211220D01*
X921398Y202362D02*
Y211220D01*
X921898Y202362D02*
Y211220D01*
X922398Y202362D02*
Y211220D01*
X922898Y202362D02*
Y211220D01*
X923398Y202362D02*
Y211220D01*
X923819Y185630D02*
Y194488D01*
X913976*
Y185630*
X923819*
X914398D02*
Y194488D01*
X914898Y185630D02*
Y194488D01*
X915398Y185630D02*
Y194488D01*
X915898Y185630D02*
Y194488D01*
X916398Y185630D02*
Y194488D01*
X916898Y185630D02*
Y194488D01*
X917398Y185630D02*
Y194488D01*
X917898Y185630D02*
Y194488D01*
X918398Y185630D02*
Y194488D01*
X918898Y185630D02*
Y194488D01*
X919398Y185630D02*
Y194488D01*
X919898Y185630D02*
Y194488D01*
X920398Y185630D02*
Y194488D01*
X920898Y185630D02*
Y194488D01*
X921398Y185630D02*
Y194488D01*
X921898Y185630D02*
Y194488D01*
X922398Y185630D02*
Y194488D01*
X922898Y185630D02*
Y194488D01*
X923398Y185630D02*
Y194488D01*
X870669Y173819D02*
X860827D01*
Y164961*
X870669*
Y173819*
X861248Y164961D02*
Y173819D01*
X861748Y164961D02*
Y173819D01*
X862248Y164961D02*
Y173819D01*
X862748Y164961D02*
Y173819D01*
X863248Y164961D02*
Y173819D01*
X863748Y164961D02*
Y173819D01*
X864248Y164961D02*
Y173819D01*
X864748Y164961D02*
Y173819D01*
X865248Y164961D02*
Y173819D01*
X865748Y164961D02*
Y173819D01*
X866248Y164961D02*
Y173819D01*
X866748Y164961D02*
Y173819D01*
X867248Y164961D02*
Y173819D01*
X867748Y164961D02*
Y173819D01*
X868248Y164961D02*
Y173819D01*
X868748Y164961D02*
Y173819D01*
X869248Y164961D02*
Y173819D01*
X869748Y164961D02*
Y173819D01*
X870248Y164961D02*
Y173819D01*
X870669Y148228D02*
Y157087D01*
X860827*
Y148228*
X870669*
X861248D02*
Y157087D01*
X861748Y148228D02*
Y157087D01*
X862248Y148228D02*
Y157087D01*
X862748Y148228D02*
Y157087D01*
X863248Y148228D02*
Y157087D01*
X863748Y148228D02*
Y157087D01*
X864248Y148228D02*
Y157087D01*
X864748Y148228D02*
Y157087D01*
X865248Y148228D02*
Y157087D01*
X865748Y148228D02*
Y157087D01*
X866248Y148228D02*
Y157087D01*
X866748Y148228D02*
Y157087D01*
X867248Y148228D02*
Y157087D01*
X867748Y148228D02*
Y157087D01*
X868248Y148228D02*
Y157087D01*
X868748Y148228D02*
Y157087D01*
X869248Y148228D02*
Y157087D01*
X869748Y148228D02*
Y157087D01*
X870248Y148228D02*
Y157087D01*
X658071Y169882D02*
X648228D01*
Y161024*
X658071*
Y169882*
X648650Y161024D02*
Y169882D01*
X649150Y161024D02*
Y169882D01*
X649650Y161024D02*
Y169882D01*
X650150Y161024D02*
Y169882D01*
X650650Y161024D02*
Y169882D01*
X651150Y161024D02*
Y169882D01*
X651650Y161024D02*
Y169882D01*
X652150Y161024D02*
Y169882D01*
X652650Y161024D02*
Y169882D01*
X653150Y161024D02*
Y169882D01*
X653650Y161024D02*
Y169882D01*
X654150Y161024D02*
Y169882D01*
X654650Y161024D02*
Y169882D01*
X655150Y161024D02*
Y169882D01*
X655650Y161024D02*
Y169882D01*
X656150Y161024D02*
Y169882D01*
X656650Y161024D02*
Y169882D01*
X657150Y161024D02*
Y169882D01*
X657650Y161024D02*
Y169882D01*
X658071Y144291D02*
Y153150D01*
X648228*
Y144291*
X658071*
X648650D02*
Y153150D01*
X649150Y144291D02*
Y153150D01*
X649650Y144291D02*
Y153150D01*
X650150Y144291D02*
Y153150D01*
X650650Y144291D02*
Y153150D01*
X651150Y144291D02*
Y153150D01*
X651650Y144291D02*
Y153150D01*
X652150Y144291D02*
Y153150D01*
X652650Y144291D02*
Y153150D01*
X653150Y144291D02*
Y153150D01*
X653650Y144291D02*
Y153150D01*
X654150Y144291D02*
Y153150D01*
X654650Y144291D02*
Y153150D01*
X655150Y144291D02*
Y153150D01*
X655650Y144291D02*
Y153150D01*
X656150Y144291D02*
Y153150D01*
X656650Y144291D02*
Y153150D01*
X657150Y144291D02*
Y153150D01*
X657650Y144291D02*
Y153150D01*
X741732Y444488D02*
X733858D01*
Y437598*
X741732*
Y444488*
X734295Y437598D02*
Y444488D01*
X734795Y437598D02*
Y444488D01*
X735295Y437598D02*
Y444488D01*
X735795Y437598D02*
Y444488D01*
X736295Y437598D02*
Y444488D01*
X736795Y437598D02*
Y444488D01*
X737295Y437598D02*
Y444488D01*
X737795Y437598D02*
Y444488D01*
X738295Y437598D02*
Y444488D01*
X738795Y437598D02*
Y444488D01*
X739295Y437598D02*
Y444488D01*
X739795Y437598D02*
Y444488D01*
X740295Y437598D02*
Y444488D01*
X740795Y437598D02*
Y444488D01*
X741295Y437598D02*
Y444488D01*
X741732Y420866D02*
Y427756D01*
X733858*
Y420866*
X741732*
X734295D02*
Y427756D01*
X734795Y420866D02*
Y427756D01*
X735295Y420866D02*
Y427756D01*
X735795Y420866D02*
Y427756D01*
X736295Y420866D02*
Y427756D01*
X736795Y420866D02*
Y427756D01*
X737295Y420866D02*
Y427756D01*
X737795Y420866D02*
Y427756D01*
X738295Y420866D02*
Y427756D01*
X738795Y420866D02*
Y427756D01*
X739295Y420866D02*
Y427756D01*
X739795Y420866D02*
Y427756D01*
X740295Y420866D02*
Y427756D01*
X740795Y420866D02*
Y427756D01*
X741295Y420866D02*
Y427756D01*
X690551Y444488D02*
X682677D01*
Y437598*
X690551*
Y444488*
X683114Y437598D02*
Y444488D01*
X683614Y437598D02*
Y444488D01*
X684114Y437598D02*
Y444488D01*
X684614Y437598D02*
Y444488D01*
X685114Y437598D02*
Y444488D01*
X685614Y437598D02*
Y444488D01*
X686114Y437598D02*
Y444488D01*
X686614Y437598D02*
Y444488D01*
X687114Y437598D02*
Y444488D01*
X687614Y437598D02*
Y444488D01*
X688114Y437598D02*
Y444488D01*
X688614Y437598D02*
Y444488D01*
X689114Y437598D02*
Y444488D01*
X689614Y437598D02*
Y444488D01*
X690114Y437598D02*
Y444488D01*
X690551Y420866D02*
Y427756D01*
X682677*
Y420866*
X690551*
X683114D02*
Y427756D01*
X683614Y420866D02*
Y427756D01*
X684114Y420866D02*
Y427756D01*
X684614Y420866D02*
Y427756D01*
X685114Y420866D02*
Y427756D01*
X685614Y420866D02*
Y427756D01*
X686114Y420866D02*
Y427756D01*
X686614Y420866D02*
Y427756D01*
X687114Y420866D02*
Y427756D01*
X687614Y420866D02*
Y427756D01*
X688114Y420866D02*
Y427756D01*
X688614Y420866D02*
Y427756D01*
X689114Y420866D02*
Y427756D01*
X689614Y420866D02*
Y427756D01*
X690114Y420866D02*
Y427756D01*
X568504Y257480D02*
X560630D01*
Y250591*
X568504*
Y257480*
X561067Y250591D02*
Y257480D01*
X561567Y250591D02*
Y257480D01*
X562067Y250591D02*
Y257480D01*
X562567Y250591D02*
Y257480D01*
X563067Y250591D02*
Y257480D01*
X563567Y250591D02*
Y257480D01*
X564067Y250591D02*
Y257480D01*
X564567Y250591D02*
Y257480D01*
X565067Y250591D02*
Y257480D01*
X565567Y250591D02*
Y257480D01*
X566067Y250591D02*
Y257480D01*
X566567Y250591D02*
Y257480D01*
X567067Y250591D02*
Y257480D01*
X567567Y250591D02*
Y257480D01*
X568067Y250591D02*
Y257480D01*
X568504Y233858D02*
Y240748D01*
X560630*
Y233858*
X568504*
X561067D02*
Y240748D01*
X561567Y233858D02*
Y240748D01*
X562067Y233858D02*
Y240748D01*
X562567Y233858D02*
Y240748D01*
X563067Y233858D02*
Y240748D01*
X563567Y233858D02*
Y240748D01*
X564067Y233858D02*
Y240748D01*
X564567Y233858D02*
Y240748D01*
X565067Y233858D02*
Y240748D01*
X565567Y233858D02*
Y240748D01*
X566067Y233858D02*
Y240748D01*
X566567Y233858D02*
Y240748D01*
X567067Y233858D02*
Y240748D01*
X567567Y233858D02*
Y240748D01*
X568067Y233858D02*
Y240748D01*
X788976Y351969D02*
X796850D01*
Y358858*
X788976*
Y351969*
X789413D02*
Y358858D01*
X789913Y351969D02*
Y358858D01*
X790413Y351969D02*
Y358858D01*
X790913Y351969D02*
Y358858D01*
X791413Y351969D02*
Y358858D01*
X791913Y351969D02*
Y358858D01*
X792413Y351969D02*
Y358858D01*
X792913Y351969D02*
Y358858D01*
X793413Y351969D02*
Y358858D01*
X793913Y351969D02*
Y358858D01*
X794413Y351969D02*
Y358858D01*
X794913Y351969D02*
Y358858D01*
X795413Y351969D02*
Y358858D01*
X795913Y351969D02*
Y358858D01*
X796413Y351969D02*
Y358858D01*
X788976Y375591D02*
Y368701D01*
X796850*
Y375591*
X788976*
X789413Y368701D02*
Y375591D01*
X789913Y368701D02*
Y375591D01*
X790413Y368701D02*
Y375591D01*
X790913Y368701D02*
Y375591D01*
X791413Y368701D02*
Y375591D01*
X791913Y368701D02*
Y375591D01*
X792413Y368701D02*
Y375591D01*
X792913Y368701D02*
Y375591D01*
X793413Y368701D02*
Y375591D01*
X793913Y368701D02*
Y375591D01*
X794413Y368701D02*
Y375591D01*
X794913Y368701D02*
Y375591D01*
X795413Y368701D02*
Y375591D01*
X795913Y368701D02*
Y375591D01*
X796413Y368701D02*
Y375591D01*
X848031Y351969D02*
X855906D01*
Y358858*
X848031*
Y351969*
X848469D02*
Y358858D01*
X848969Y351969D02*
Y358858D01*
X849469Y351969D02*
Y358858D01*
X849969Y351969D02*
Y358858D01*
X850469Y351969D02*
Y358858D01*
X850969Y351969D02*
Y358858D01*
X851469Y351969D02*
Y358858D01*
X851969Y351969D02*
Y358858D01*
X852469Y351969D02*
Y358858D01*
X852969Y351969D02*
Y358858D01*
X853469Y351969D02*
Y358858D01*
X853969Y351969D02*
Y358858D01*
X854469Y351969D02*
Y358858D01*
X854969Y351969D02*
Y358858D01*
X855469Y351969D02*
Y358858D01*
X848031Y375591D02*
Y368701D01*
X855906*
Y375591*
X848031*
X848469Y368701D02*
Y375591D01*
X848969Y368701D02*
Y375591D01*
X849469Y368701D02*
Y375591D01*
X849969Y368701D02*
Y375591D01*
X850469Y368701D02*
Y375591D01*
X850969Y368701D02*
Y375591D01*
X851469Y368701D02*
Y375591D01*
X851969Y368701D02*
Y375591D01*
X852469Y368701D02*
Y375591D01*
X852969Y368701D02*
Y375591D01*
X853469Y368701D02*
Y375591D01*
X853969Y368701D02*
Y375591D01*
X854469Y368701D02*
Y375591D01*
X854969Y368701D02*
Y375591D01*
X855469Y368701D02*
Y375591D01*
X471063Y161492D02*
Y164492D01*
X469110*
Y161492*
X471063*
X469110D02*
Y164492D01*
X469610Y161492D02*
Y164492D01*
X470110Y161492D02*
Y164492D01*
X470610Y161492D02*
Y164492D01*
X465157Y161492D02*
X467110D01*
Y164492*
X465157*
Y161492*
X465610D02*
Y164492D01*
X466110Y161492D02*
Y164492D01*
X466610Y161492D02*
Y164492D01*
X453346D02*
Y161492D01*
X455299*
Y164492*
X453346*
X453799Y161492D02*
Y164492D01*
X454299Y161492D02*
Y164492D01*
X454799Y161492D02*
Y164492D01*
X459252D02*
X457299D01*
Y161492*
X459252*
Y164492*
X457299Y161492D02*
Y164492D01*
X457799Y161492D02*
Y164492D01*
X458299Y161492D02*
Y164492D01*
X458799Y161492D02*
Y164492D01*
X727484Y122638D02*
X724484D01*
Y120685*
X727484*
Y122638*
X724484Y120685D02*
Y122638D01*
X724984Y120685D02*
Y122638D01*
X725484Y120685D02*
Y122638D01*
X725984Y120685D02*
Y122638D01*
X726484Y120685D02*
Y122638D01*
X726984Y120685D02*
Y122638D01*
X727484Y116732D02*
Y118685D01*
X724484*
Y116732*
X727484*
X724484D02*
Y118685D01*
X724984Y116732D02*
Y118685D01*
X725484Y116732D02*
Y118685D01*
X725984Y116732D02*
Y118685D01*
X726484Y116732D02*
Y118685D01*
X726984Y116732D02*
Y118685D01*
X937598Y141807D02*
Y144807D01*
X935646*
Y141807*
X937598*
X935646D02*
Y144807D01*
X936146Y141807D02*
Y144807D01*
X936646Y141807D02*
Y144807D01*
X937146Y141807D02*
Y144807D01*
X931693Y141807D02*
X933646D01*
Y144807*
X931693*
Y141807*
X932146D02*
Y144807D01*
X932646Y141807D02*
Y144807D01*
X933146Y141807D02*
Y144807D01*
X389370Y125591D02*
X383465D01*
Y121654*
X389370*
Y125591*
X383528Y121654D02*
Y125591D01*
X384028Y121654D02*
Y125591D01*
X384528Y121654D02*
Y125591D01*
X385028Y121654D02*
Y125591D01*
X385528Y121654D02*
Y125591D01*
X386028Y121654D02*
Y125591D01*
X386528Y121654D02*
Y125591D01*
X387028Y121654D02*
Y125591D01*
X387528Y121654D02*
Y125591D01*
X388028Y121654D02*
Y125591D01*
X388528Y121654D02*
Y125591D01*
X389028Y121654D02*
Y125591D01*
X369685D02*
Y121654D01*
X375591*
Y125591*
X369685*
X370028Y121654D02*
Y125591D01*
X370528Y121654D02*
Y125591D01*
X371028Y121654D02*
Y125591D01*
X371528Y121654D02*
Y125591D01*
X372028Y121654D02*
Y125591D01*
X372528Y121654D02*
Y125591D01*
X373028Y121654D02*
Y125591D01*
X373528Y121654D02*
Y125591D01*
X374028Y121654D02*
Y125591D01*
X374528Y121654D02*
Y125591D01*
X375028Y121654D02*
Y125591D01*
X375528Y121654D02*
Y125591D01*
X292913Y224016D02*
Y218110D01*
X296850*
Y224016*
X292913*
X293382Y218110D02*
Y224016D01*
X293882Y218110D02*
Y224016D01*
X294382Y218110D02*
Y224016D01*
X294882Y218110D02*
Y224016D01*
X295382Y218110D02*
Y224016D01*
X295882Y218110D02*
Y224016D01*
X296382Y218110D02*
Y224016D01*
X292913Y204331D02*
X296850D01*
Y210236*
X292913*
Y204331*
X293382D02*
Y210236D01*
X293882Y204331D02*
Y210236D01*
X294382Y204331D02*
Y210236D01*
X294882Y204331D02*
Y210236D01*
X295382Y204331D02*
Y210236D01*
X295882Y204331D02*
Y210236D01*
X296382Y204331D02*
Y210236D01*
X796850Y131496D02*
X800787D01*
Y139370*
X796850*
Y131496*
X797319D02*
Y139370D01*
X797819Y131496D02*
Y139370D01*
X798319Y131496D02*
Y139370D01*
X798819Y131496D02*
Y139370D01*
X799319Y131496D02*
Y139370D01*
X799819Y131496D02*
Y139370D01*
X800319Y131496D02*
Y139370D01*
X796850Y159055D02*
Y151181D01*
X800787*
Y159055*
X796850*
X797319Y151181D02*
Y159055D01*
X797819Y151181D02*
Y159055D01*
X798319Y151181D02*
Y159055D01*
X798819Y151181D02*
Y159055D01*
X799319Y151181D02*
Y159055D01*
X799819Y151181D02*
Y159055D01*
X800319Y151181D02*
Y159055D01*
X684646Y188583D02*
Y184646D01*
X692520*
Y188583*
X684646*
X684925Y184646D02*
Y188583D01*
X685425Y184646D02*
Y188583D01*
X685925Y184646D02*
Y188583D01*
X686425Y184646D02*
Y188583D01*
X686925Y184646D02*
Y188583D01*
X687425Y184646D02*
Y188583D01*
X687925Y184646D02*
Y188583D01*
X688425Y184646D02*
Y188583D01*
X688925Y184646D02*
Y188583D01*
X689425Y184646D02*
Y188583D01*
X689925Y184646D02*
Y188583D01*
X690425Y184646D02*
Y188583D01*
X690925Y184646D02*
Y188583D01*
X691425Y184646D02*
Y188583D01*
X691925Y184646D02*
Y188583D01*
X692425Y184646D02*
Y188583D01*
X712205D02*
X704331D01*
Y184646*
X712205*
Y188583*
X704425Y184646D02*
Y188583D01*
X704925Y184646D02*
Y188583D01*
X705425Y184646D02*
Y188583D01*
X705925Y184646D02*
Y188583D01*
X706425Y184646D02*
Y188583D01*
X706925Y184646D02*
Y188583D01*
X707425Y184646D02*
Y188583D01*
X707925Y184646D02*
Y188583D01*
X708425Y184646D02*
Y188583D01*
X708925Y184646D02*
Y188583D01*
X709425Y184646D02*
Y188583D01*
X709925Y184646D02*
Y188583D01*
X710425Y184646D02*
Y188583D01*
X710925Y184646D02*
Y188583D01*
X711425Y184646D02*
Y188583D01*
X711925Y184646D02*
Y188583D01*
X952362Y316535D02*
Y312598D01*
X960236*
Y316535*
X952362*
X952642Y312598D02*
Y316535D01*
X953142Y312598D02*
Y316535D01*
X953642Y312598D02*
Y316535D01*
X954142Y312598D02*
Y316535D01*
X954642Y312598D02*
Y316535D01*
X955142Y312598D02*
Y316535D01*
X955642Y312598D02*
Y316535D01*
X956142Y312598D02*
Y316535D01*
X956642Y312598D02*
Y316535D01*
X957142Y312598D02*
Y316535D01*
X957642Y312598D02*
Y316535D01*
X958142Y312598D02*
Y316535D01*
X958642Y312598D02*
Y316535D01*
X959142Y312598D02*
Y316535D01*
X959642Y312598D02*
Y316535D01*
X960142Y312598D02*
Y316535D01*
X979921D02*
X972047D01*
Y312598*
X979921*
Y316535*
X972142Y312598D02*
Y316535D01*
X972642Y312598D02*
Y316535D01*
X973142Y312598D02*
Y316535D01*
X973642Y312598D02*
Y316535D01*
X974142Y312598D02*
Y316535D01*
X974642Y312598D02*
Y316535D01*
X975142Y312598D02*
Y316535D01*
X975642Y312598D02*
Y316535D01*
X976142Y312598D02*
Y316535D01*
X976642Y312598D02*
Y316535D01*
X977142Y312598D02*
Y316535D01*
X977642Y312598D02*
Y316535D01*
X978142Y312598D02*
Y316535D01*
X978642Y312598D02*
Y316535D01*
X979142Y312598D02*
Y316535D01*
X979642Y312598D02*
Y316535D01*
X948425Y239764D02*
Y235827D01*
X956299*
Y239764*
X948425*
X948705Y235827D02*
Y239764D01*
X949205Y235827D02*
Y239764D01*
X949705Y235827D02*
Y239764D01*
X950205Y235827D02*
Y239764D01*
X950705Y235827D02*
Y239764D01*
X951205Y235827D02*
Y239764D01*
X951705Y235827D02*
Y239764D01*
X952205Y235827D02*
Y239764D01*
X952705Y235827D02*
Y239764D01*
X953205Y235827D02*
Y239764D01*
X953705Y235827D02*
Y239764D01*
X954205Y235827D02*
Y239764D01*
X954705Y235827D02*
Y239764D01*
X955205Y235827D02*
Y239764D01*
X955705Y235827D02*
Y239764D01*
X956205Y235827D02*
Y239764D01*
X975984D02*
X968110D01*
Y235827*
X975984*
Y239764*
X968205Y235827D02*
Y239764D01*
X968705Y235827D02*
Y239764D01*
X969205Y235827D02*
Y239764D01*
X969705Y235827D02*
Y239764D01*
X970205Y235827D02*
Y239764D01*
X970705Y235827D02*
Y239764D01*
X971205Y235827D02*
Y239764D01*
X971705Y235827D02*
Y239764D01*
X972205Y235827D02*
Y239764D01*
X972705Y235827D02*
Y239764D01*
X973205Y235827D02*
Y239764D01*
X973705Y235827D02*
Y239764D01*
X974205Y235827D02*
Y239764D01*
X974705Y235827D02*
Y239764D01*
X975205Y235827D02*
Y239764D01*
X975705Y235827D02*
Y239764D01*
X633465Y304724D02*
X629528D01*
Y296850*
X633465*
Y304724*
X629996Y296850D02*
Y304724D01*
X630496Y296850D02*
Y304724D01*
X630996Y296850D02*
Y304724D01*
X631496Y296850D02*
Y304724D01*
X631996Y296850D02*
Y304724D01*
X632496Y296850D02*
Y304724D01*
X632996Y296850D02*
Y304724D01*
X633465Y277165D02*
Y285039D01*
X629528*
Y277165*
X633465*
X629996D02*
Y285039D01*
X630496Y277165D02*
Y285039D01*
X630996Y277165D02*
Y285039D01*
X631496Y277165D02*
Y285039D01*
X631996Y277165D02*
Y285039D01*
X632496Y277165D02*
Y285039D01*
X632996Y277165D02*
Y285039D01*
X735827Y346063D02*
Y342126D01*
X743701*
Y346063*
X735827*
X736106Y342126D02*
Y346063D01*
X736606Y342126D02*
Y346063D01*
X737106Y342126D02*
Y346063D01*
X737606Y342126D02*
Y346063D01*
X738106Y342126D02*
Y346063D01*
X738606Y342126D02*
Y346063D01*
X739106Y342126D02*
Y346063D01*
X739606Y342126D02*
Y346063D01*
X740106Y342126D02*
Y346063D01*
X740606Y342126D02*
Y346063D01*
X741106Y342126D02*
Y346063D01*
X741606Y342126D02*
Y346063D01*
X742106Y342126D02*
Y346063D01*
X742606Y342126D02*
Y346063D01*
X743106Y342126D02*
Y346063D01*
X743606Y342126D02*
Y346063D01*
X763386D02*
X755512D01*
Y342126*
X763386*
Y346063*
X755606Y342126D02*
Y346063D01*
X756106Y342126D02*
Y346063D01*
X756606Y342126D02*
Y346063D01*
X757106Y342126D02*
Y346063D01*
X757606Y342126D02*
Y346063D01*
X758106Y342126D02*
Y346063D01*
X758606Y342126D02*
Y346063D01*
X759106Y342126D02*
Y346063D01*
X759606Y342126D02*
Y346063D01*
X760106Y342126D02*
Y346063D01*
X760606Y342126D02*
Y346063D01*
X761106Y342126D02*
Y346063D01*
X761606Y342126D02*
Y346063D01*
X762106Y342126D02*
Y346063D01*
X762606Y342126D02*
Y346063D01*
X763106Y342126D02*
Y346063D01*
X881496Y273228D02*
Y277165D01*
X873622*
Y273228*
X881496*
X873717D02*
Y277165D01*
X874217Y273228D02*
Y277165D01*
X874717Y273228D02*
Y277165D01*
X875217Y273228D02*
Y277165D01*
X875717Y273228D02*
Y277165D01*
X876217Y273228D02*
Y277165D01*
X876717Y273228D02*
Y277165D01*
X877217Y273228D02*
Y277165D01*
X877717Y273228D02*
Y277165D01*
X878217Y273228D02*
Y277165D01*
X878717Y273228D02*
Y277165D01*
X879217Y273228D02*
Y277165D01*
X879717Y273228D02*
Y277165D01*
X880217Y273228D02*
Y277165D01*
X880717Y273228D02*
Y277165D01*
X881217Y273228D02*
Y277165D01*
X853937Y273228D02*
X861811D01*
Y277165*
X853937*
Y273228*
X854217D02*
Y277165D01*
X854717Y273228D02*
Y277165D01*
X855217Y273228D02*
Y277165D01*
X855717Y273228D02*
Y277165D01*
X856217Y273228D02*
Y277165D01*
X856717Y273228D02*
Y277165D01*
X857217Y273228D02*
Y277165D01*
X857717Y273228D02*
Y277165D01*
X858217Y273228D02*
Y277165D01*
X858717Y273228D02*
Y277165D01*
X859217Y273228D02*
Y277165D01*
X859717Y273228D02*
Y277165D01*
X860217Y273228D02*
Y277165D01*
X860717Y273228D02*
Y277165D01*
X861217Y273228D02*
Y277165D01*
X861717Y273228D02*
Y277165D01*
X611811Y225984D02*
X615748D01*
Y233858*
X611811*
Y225984*
X612280D02*
Y233858D01*
X612780Y225984D02*
Y233858D01*
X613280Y225984D02*
Y233858D01*
X613780Y225984D02*
Y233858D01*
X614280Y225984D02*
Y233858D01*
X614780Y225984D02*
Y233858D01*
X615280Y225984D02*
Y233858D01*
X611811Y253543D02*
Y245669D01*
X615748*
Y253543*
X611811*
X612280Y245669D02*
Y253543D01*
X612780Y245669D02*
Y253543D01*
X613280Y245669D02*
Y253543D01*
X613780Y245669D02*
Y253543D01*
X614280Y245669D02*
Y253543D01*
X614780Y245669D02*
Y253543D01*
X615280Y245669D02*
Y253543D01*
X661024Y359843D02*
X653150D01*
Y346063*
X661024*
Y359843*
X653587Y346063D02*
Y359843D01*
X654087Y346063D02*
Y359843D01*
X654587Y346063D02*
Y359843D01*
X655087Y346063D02*
Y359843D01*
X655587Y346063D02*
Y359843D01*
X656087Y346063D02*
Y359843D01*
X656587Y346063D02*
Y359843D01*
X657087Y346063D02*
Y359843D01*
X657587Y346063D02*
Y359843D01*
X658087Y346063D02*
Y359843D01*
X658587Y346063D02*
Y359843D01*
X659087Y346063D02*
Y359843D01*
X659587Y346063D02*
Y359843D01*
X660087Y346063D02*
Y359843D01*
X660587Y346063D02*
Y359843D01*
X661024Y312598D02*
Y326378D01*
X653150*
Y312598*
X661024*
X653587D02*
Y326378D01*
X654087Y312598D02*
Y326378D01*
X654587Y312598D02*
Y326378D01*
X655087Y312598D02*
Y326378D01*
X655587Y312598D02*
Y326378D01*
X656087Y312598D02*
Y326378D01*
X656587Y312598D02*
Y326378D01*
X657087Y312598D02*
Y326378D01*
X657587Y312598D02*
Y326378D01*
X658087Y312598D02*
Y326378D01*
X658587Y312598D02*
Y326378D01*
X659087Y312598D02*
Y326378D01*
X659587Y312598D02*
Y326378D01*
X660087Y312598D02*
Y326378D01*
X660587Y312598D02*
Y326378D01*
X916929Y312598D02*
X909055D01*
Y298819*
X916929*
Y312598*
X909492Y298819D02*
Y312598D01*
X909992Y298819D02*
Y312598D01*
X910492Y298819D02*
Y312598D01*
X910992Y298819D02*
Y312598D01*
X911492Y298819D02*
Y312598D01*
X911992Y298819D02*
Y312598D01*
X912492Y298819D02*
Y312598D01*
X912992Y298819D02*
Y312598D01*
X913492Y298819D02*
Y312598D01*
X913992Y298819D02*
Y312598D01*
X914492Y298819D02*
Y312598D01*
X914992Y298819D02*
Y312598D01*
X915492Y298819D02*
Y312598D01*
X915992Y298819D02*
Y312598D01*
X916492Y298819D02*
Y312598D01*
X916929Y265354D02*
Y279134D01*
X909055*
Y265354*
X916929*
X909492D02*
Y279134D01*
X909992Y265354D02*
Y279134D01*
X910492Y265354D02*
Y279134D01*
X910992Y265354D02*
Y279134D01*
X911492Y265354D02*
Y279134D01*
X911992Y265354D02*
Y279134D01*
X912492Y265354D02*
Y279134D01*
X912992Y265354D02*
Y279134D01*
X913492Y265354D02*
Y279134D01*
X913992Y265354D02*
Y279134D01*
X914492Y265354D02*
Y279134D01*
X914992Y265354D02*
Y279134D01*
X915492Y265354D02*
Y279134D01*
X915992Y265354D02*
Y279134D01*
X916492Y265354D02*
Y279134D01*
X814567Y178740D02*
X822441D01*
Y192520*
X814567*
Y178740*
X815004D02*
Y192520D01*
X815504Y178740D02*
Y192520D01*
X816004Y178740D02*
Y192520D01*
X816504Y178740D02*
Y192520D01*
X817004Y178740D02*
Y192520D01*
X817504Y178740D02*
Y192520D01*
X818004Y178740D02*
Y192520D01*
X818504Y178740D02*
Y192520D01*
X819004Y178740D02*
Y192520D01*
X819504Y178740D02*
Y192520D01*
X820004Y178740D02*
Y192520D01*
X820504Y178740D02*
Y192520D01*
X821004Y178740D02*
Y192520D01*
X821504Y178740D02*
Y192520D01*
X822004Y178740D02*
Y192520D01*
X814567Y225984D02*
Y212205D01*
X822441*
Y225984*
X814567*
X815004Y212205D02*
Y225984D01*
X815504Y212205D02*
Y225984D01*
X816004Y212205D02*
Y225984D01*
X816504Y212205D02*
Y225984D01*
X817004Y212205D02*
Y225984D01*
X817504Y212205D02*
Y225984D01*
X818004Y212205D02*
Y225984D01*
X818504Y212205D02*
Y225984D01*
X819004Y212205D02*
Y225984D01*
X819504Y212205D02*
Y225984D01*
X820004Y212205D02*
Y225984D01*
X820504Y212205D02*
Y225984D01*
X821004Y212205D02*
Y225984D01*
X821504Y212205D02*
Y225984D01*
X822004Y212205D02*
Y225984D01*
X714173D02*
Y233858D01*
X700394*
Y225984*
X714173*
X700551D02*
Y233858D01*
X701051Y225984D02*
Y233858D01*
X701551Y225984D02*
Y233858D01*
X702051Y225984D02*
Y233858D01*
X702551Y225984D02*
Y233858D01*
X703051Y225984D02*
Y233858D01*
X703551Y225984D02*
Y233858D01*
X704051Y225984D02*
Y233858D01*
X704551Y225984D02*
Y233858D01*
X705051Y225984D02*
Y233858D01*
X705551Y225984D02*
Y233858D01*
X706051Y225984D02*
Y233858D01*
X706551Y225984D02*
Y233858D01*
X707051Y225984D02*
Y233858D01*
X707551Y225984D02*
Y233858D01*
X708051Y225984D02*
Y233858D01*
X708551Y225984D02*
Y233858D01*
X709051Y225984D02*
Y233858D01*
X709551Y225984D02*
Y233858D01*
X710051Y225984D02*
Y233858D01*
X710551Y225984D02*
Y233858D01*
X711051Y225984D02*
Y233858D01*
X711551Y225984D02*
Y233858D01*
X712051Y225984D02*
Y233858D01*
X712551Y225984D02*
Y233858D01*
X713051Y225984D02*
Y233858D01*
X713551Y225984D02*
Y233858D01*
X714051Y225984D02*
Y233858D01*
X666929Y225984D02*
X680709D01*
Y233858*
X666929*
Y225984*
X667051D02*
Y233858D01*
X667551Y225984D02*
Y233858D01*
X668051Y225984D02*
Y233858D01*
X668551Y225984D02*
Y233858D01*
X669051Y225984D02*
Y233858D01*
X669551Y225984D02*
Y233858D01*
X670051Y225984D02*
Y233858D01*
X670551Y225984D02*
Y233858D01*
X671051Y225984D02*
Y233858D01*
X671551Y225984D02*
Y233858D01*
X672051Y225984D02*
Y233858D01*
X672551Y225984D02*
Y233858D01*
X673051Y225984D02*
Y233858D01*
X673551Y225984D02*
Y233858D01*
X674051Y225984D02*
Y233858D01*
X674551Y225984D02*
Y233858D01*
X675051Y225984D02*
Y233858D01*
X675551Y225984D02*
Y233858D01*
X676051Y225984D02*
Y233858D01*
X676551Y225984D02*
Y233858D01*
X677051Y225984D02*
Y233858D01*
X677551Y225984D02*
Y233858D01*
X678051Y225984D02*
Y233858D01*
X678551Y225984D02*
Y233858D01*
X679051Y225984D02*
Y233858D01*
X679551Y225984D02*
Y233858D01*
X680051Y225984D02*
Y233858D01*
X680551Y225984D02*
Y233858D01*
X680677Y376059D02*
X677177D01*
Y372059*
X680677*
Y376059*
X677177Y372059D02*
Y376059D01*
X677677Y372059D02*
Y376059D01*
X678177Y372059D02*
Y376059D01*
X678677Y372059D02*
Y376059D01*
X679177Y372059D02*
Y376059D01*
X679677Y372059D02*
Y376059D01*
X680177Y372059D02*
Y376059D01*
X680677Y383059D02*
X677177D01*
Y379059*
X680677*
Y383059*
X677177Y379059D02*
Y383059D01*
X677677Y379059D02*
Y383059D01*
X678177Y379059D02*
Y383059D01*
X678677Y379059D02*
Y383059D01*
X679177Y379059D02*
Y383059D01*
X679677Y379059D02*
Y383059D01*
X680177Y379059D02*
Y383059D01*
X689567Y379528D02*
X685138D01*
Y375591*
X689567*
Y379528*
X685177Y375591D02*
Y379528D01*
X685677Y375591D02*
Y379528D01*
X686177Y375591D02*
Y379528D01*
X686677Y375591D02*
Y379528D01*
X687177Y375591D02*
Y379528D01*
X687677Y375591D02*
Y379528D01*
X688177Y375591D02*
Y379528D01*
X688677Y375591D02*
Y379528D01*
X689177Y375591D02*
Y379528D01*
X731858Y376059D02*
X728358D01*
Y372059*
X731858*
Y376059*
X728358Y372059D02*
Y376059D01*
X728858Y372059D02*
Y376059D01*
X729358Y372059D02*
Y376059D01*
X729858Y372059D02*
Y376059D01*
X730358Y372059D02*
Y376059D01*
X730858Y372059D02*
Y376059D01*
X731358Y372059D02*
Y376059D01*
X731858Y383059D02*
X728358D01*
Y379059*
X731858*
Y383059*
X728358Y379059D02*
Y383059D01*
X728858Y379059D02*
Y383059D01*
X729358Y379059D02*
Y383059D01*
X729858Y379059D02*
Y383059D01*
X730358Y379059D02*
Y383059D01*
X730858Y379059D02*
Y383059D01*
X731358Y379059D02*
Y383059D01*
X740748Y379528D02*
X736319D01*
Y375591*
X740748*
Y379528*
X736358Y375591D02*
Y379528D01*
X736858Y375591D02*
Y379528D01*
X737358Y375591D02*
Y379528D01*
X737858Y375591D02*
Y379528D01*
X738358Y375591D02*
Y379528D01*
X738858Y375591D02*
Y379528D01*
X739358Y375591D02*
Y379528D01*
X739858Y375591D02*
Y379528D01*
X740358Y375591D02*
Y379528D01*
X653618Y440583D02*
Y444083D01*
X649618*
Y440583*
X653618*
X649618D02*
Y444083D01*
X650118Y440583D02*
Y444083D01*
X650618Y440583D02*
Y444083D01*
X651118Y440583D02*
Y444083D01*
X651618Y440583D02*
Y444083D01*
X652118Y440583D02*
Y444083D01*
X652618Y440583D02*
Y444083D01*
X653118Y440583D02*
Y444083D01*
X660618Y440583D02*
Y444083D01*
X656618*
Y440583*
X660618*
X656618D02*
Y444083D01*
X657118Y440583D02*
Y444083D01*
X657618Y440583D02*
Y444083D01*
X658118Y440583D02*
Y444083D01*
X658618Y440583D02*
Y444083D01*
X659118Y440583D02*
Y444083D01*
X659618Y440583D02*
Y444083D01*
X660118Y440583D02*
Y444083D01*
X657087Y431693D02*
Y436122D01*
X653150*
Y431693*
X657087*
X653618D02*
Y436122D01*
X654118Y431693D02*
Y436122D01*
X654618Y431693D02*
Y436122D01*
X655118Y431693D02*
Y436122D01*
X655618Y431693D02*
Y436122D01*
X656118Y431693D02*
Y436122D01*
X656618Y431693D02*
Y436122D01*
X704799Y440583D02*
Y444083D01*
X700799*
Y440583*
X704799*
X700799D02*
Y444083D01*
X701299Y440583D02*
Y444083D01*
X701799Y440583D02*
Y444083D01*
X702299Y440583D02*
Y444083D01*
X702799Y440583D02*
Y444083D01*
X703299Y440583D02*
Y444083D01*
X703799Y440583D02*
Y444083D01*
X704299Y440583D02*
Y444083D01*
X711799Y440583D02*
Y444083D01*
X707799*
Y440583*
X711799*
X707799D02*
Y444083D01*
X708299Y440583D02*
Y444083D01*
X708799Y440583D02*
Y444083D01*
X709299Y440583D02*
Y444083D01*
X709799Y440583D02*
Y444083D01*
X710299Y440583D02*
Y444083D01*
X710799Y440583D02*
Y444083D01*
X711299Y440583D02*
Y444083D01*
X708268Y431693D02*
Y436122D01*
X704331*
Y431693*
X708268*
X704799D02*
Y436122D01*
X705299Y431693D02*
Y436122D01*
X705799Y431693D02*
Y436122D01*
X706299Y431693D02*
Y436122D01*
X706799Y431693D02*
Y436122D01*
X707299Y431693D02*
Y436122D01*
X707799Y431693D02*
Y436122D01*
X810598Y334720D02*
X807098D01*
Y330720*
X810598*
Y334720*
X807098Y330720D02*
Y334720D01*
X807598Y330720D02*
Y334720D01*
X808098Y330720D02*
Y334720D01*
X808598Y330720D02*
Y334720D01*
X809098Y330720D02*
Y334720D01*
X809598Y330720D02*
Y334720D01*
X810098Y330720D02*
Y334720D01*
X810598Y341720D02*
X807098D01*
Y337720*
X810598*
Y341720*
X807098Y337720D02*
Y341720D01*
X807598Y337720D02*
Y341720D01*
X808098Y337720D02*
Y341720D01*
X808598Y337720D02*
Y341720D01*
X809098Y337720D02*
Y341720D01*
X809598Y337720D02*
Y341720D01*
X810098Y337720D02*
Y341720D01*
X819488Y338189D02*
X815059D01*
Y334252*
X819488*
Y338189*
X815098Y334252D02*
Y338189D01*
X815598Y334252D02*
Y338189D01*
X816098Y334252D02*
Y338189D01*
X816598Y334252D02*
Y338189D01*
X817098Y334252D02*
Y338189D01*
X817598Y334252D02*
Y338189D01*
X818098Y334252D02*
Y338189D01*
X818598Y334252D02*
Y338189D01*
X819098Y334252D02*
Y338189D01*
X869654Y334720D02*
X866154D01*
Y330720*
X869654*
Y334720*
X866154Y330720D02*
Y334720D01*
X866654Y330720D02*
Y334720D01*
X867154Y330720D02*
Y334720D01*
X867654Y330720D02*
Y334720D01*
X868154Y330720D02*
Y334720D01*
X868654Y330720D02*
Y334720D01*
X869154Y330720D02*
Y334720D01*
X869654Y341720D02*
X866154D01*
Y337720*
X869654*
Y341720*
X866154Y337720D02*
Y341720D01*
X866654Y337720D02*
Y341720D01*
X867154Y337720D02*
Y341720D01*
X867654Y337720D02*
Y341720D01*
X868154Y337720D02*
Y341720D01*
X868654Y337720D02*
Y341720D01*
X869154Y337720D02*
Y341720D01*
X878543Y338189D02*
X874114D01*
Y334252*
X878543*
Y338189*
X874154Y334252D02*
Y338189D01*
X874654Y334252D02*
Y338189D01*
X875154Y334252D02*
Y338189D01*
X875654Y334252D02*
Y338189D01*
X876154Y334252D02*
Y338189D01*
X876654Y334252D02*
Y338189D01*
X877154Y334252D02*
Y338189D01*
X877654Y334252D02*
Y338189D01*
X878154Y334252D02*
Y338189D01*
X581815Y306661D02*
Y303161D01*
X585815*
Y306661*
X581815*
Y303161D02*
Y306661D01*
X582315Y303161D02*
Y306661D01*
X582815Y303161D02*
Y306661D01*
X583315Y303161D02*
Y306661D01*
X583815Y303161D02*
Y306661D01*
X584315Y303161D02*
Y306661D01*
X584815Y303161D02*
Y306661D01*
X585315Y303161D02*
Y306661D01*
X574815D02*
Y303161D01*
X578815*
Y306661*
X574815*
Y303161D02*
Y306661D01*
X575315Y303161D02*
Y306661D01*
X575815Y303161D02*
Y306661D01*
X576315Y303161D02*
Y306661D01*
X576815Y303161D02*
Y306661D01*
X577315Y303161D02*
Y306661D01*
X577815Y303161D02*
Y306661D01*
X578315Y303161D02*
Y306661D01*
X578346Y315551D02*
Y311122D01*
X582283*
Y315551*
X578346*
X578815Y311122D02*
Y315551D01*
X579315Y311122D02*
Y315551D01*
X579815Y311122D02*
Y315551D01*
X580315Y311122D02*
Y315551D01*
X580815Y311122D02*
Y315551D01*
X581315Y311122D02*
Y315551D01*
X581815Y311122D02*
Y315551D01*
X809154Y365748D02*
X816043D01*
Y372638*
X809154*
Y365748*
X809598D02*
Y372638D01*
X810098Y365748D02*
Y372638D01*
X810598Y365748D02*
Y372638D01*
X811098Y365748D02*
Y372638D01*
X811598Y365748D02*
Y372638D01*
X812098Y365748D02*
Y372638D01*
X812598Y365748D02*
Y372638D01*
X813098Y365748D02*
Y372638D01*
X813598Y365748D02*
Y372638D01*
X814098Y365748D02*
Y372638D01*
X814598Y365748D02*
Y372638D01*
X815098Y365748D02*
Y372638D01*
X815598Y365748D02*
Y372638D01*
X809154Y355413D02*
X816043D01*
Y361811*
X809154*
Y355413*
X809598D02*
Y361811D01*
X810098Y355413D02*
Y361811D01*
X810598Y355413D02*
Y361811D01*
X811098Y355413D02*
Y361811D01*
X811598Y355413D02*
Y361811D01*
X812098Y355413D02*
Y361811D01*
X812598Y355413D02*
Y361811D01*
X813098Y355413D02*
Y361811D01*
X813598Y355413D02*
Y361811D01*
X814098Y355413D02*
Y361811D01*
X814598Y355413D02*
Y361811D01*
X815098Y355413D02*
Y361811D01*
X815598Y355413D02*
Y361811D01*
X868209Y365748D02*
X875098D01*
Y372638*
X868209*
Y365748*
X868654D02*
Y372638D01*
X869154Y365748D02*
Y372638D01*
X869654Y365748D02*
Y372638D01*
X870154Y365748D02*
Y372638D01*
X870654Y365748D02*
Y372638D01*
X871154Y365748D02*
Y372638D01*
X871654Y365748D02*
Y372638D01*
X872154Y365748D02*
Y372638D01*
X872654Y365748D02*
Y372638D01*
X873154Y365748D02*
Y372638D01*
X873654Y365748D02*
Y372638D01*
X874154Y365748D02*
Y372638D01*
X874654Y365748D02*
Y372638D01*
X868209Y355413D02*
X875098D01*
Y361811*
X868209*
Y355413*
X868654D02*
Y361811D01*
X869154Y355413D02*
Y361811D01*
X869654Y355413D02*
Y361811D01*
X870154Y355413D02*
Y361811D01*
X870654Y355413D02*
Y361811D01*
X871154Y355413D02*
Y361811D01*
X871654Y355413D02*
Y361811D01*
X872154Y355413D02*
Y361811D01*
X872654Y355413D02*
Y361811D01*
X873154Y355413D02*
Y361811D01*
X873654Y355413D02*
Y361811D01*
X874154Y355413D02*
Y361811D01*
X874654Y355413D02*
Y361811D01*
X780610D02*
X773720D01*
Y354921*
X780610*
Y361811*
X774165Y354921D02*
Y361811D01*
X774665Y354921D02*
Y361811D01*
X775165Y354921D02*
Y361811D01*
X775665Y354921D02*
Y361811D01*
X776165Y354921D02*
Y361811D01*
X776665Y354921D02*
Y361811D01*
X777165Y354921D02*
Y361811D01*
X777665Y354921D02*
Y361811D01*
X778165Y354921D02*
Y361811D01*
X778665Y354921D02*
Y361811D01*
X779165Y354921D02*
Y361811D01*
X779665Y354921D02*
Y361811D01*
X780165Y354921D02*
Y361811D01*
X780610Y372146D02*
X773720D01*
Y365748*
X780610*
Y372146*
X774165Y365748D02*
Y372146D01*
X774665Y365748D02*
Y372146D01*
X775165Y365748D02*
Y372146D01*
X775665Y365748D02*
Y372146D01*
X776165Y365748D02*
Y372146D01*
X776665Y365748D02*
Y372146D01*
X777165Y365748D02*
Y372146D01*
X777665Y365748D02*
Y372146D01*
X778165Y365748D02*
Y372146D01*
X778665Y365748D02*
Y372146D01*
X779165Y365748D02*
Y372146D01*
X779665Y365748D02*
Y372146D01*
X780165Y365748D02*
Y372146D01*
X747638Y293898D02*
Y307677D01*
X737795*
Y293898*
X747638*
X738043D02*
Y307677D01*
X738543Y293898D02*
Y307677D01*
X739043Y293898D02*
Y307677D01*
X739543Y293898D02*
Y307677D01*
X740043Y293898D02*
Y307677D01*
X740543Y293898D02*
Y307677D01*
X741043Y293898D02*
Y307677D01*
X741543Y293898D02*
Y307677D01*
X742043Y293898D02*
Y307677D01*
X742543Y293898D02*
Y307677D01*
X743043Y293898D02*
Y307677D01*
X743543Y293898D02*
Y307677D01*
X744043Y293898D02*
Y307677D01*
X744543Y293898D02*
Y307677D01*
X745043Y293898D02*
Y307677D01*
X745543Y293898D02*
Y307677D01*
X746043Y293898D02*
Y307677D01*
X746543Y293898D02*
Y307677D01*
X747043Y293898D02*
Y307677D01*
X747543Y293898D02*
Y307677D01*
X769291Y293898D02*
Y307677D01*
X759449*
Y293898*
X769291*
X759543D02*
Y307677D01*
X760043Y293898D02*
Y307677D01*
X760543Y293898D02*
Y307677D01*
X761043Y293898D02*
Y307677D01*
X761543Y293898D02*
Y307677D01*
X762043Y293898D02*
Y307677D01*
X762543Y293898D02*
Y307677D01*
X763043Y293898D02*
Y307677D01*
X763543Y293898D02*
Y307677D01*
X764043Y293898D02*
Y307677D01*
X764543Y293898D02*
Y307677D01*
X765043Y293898D02*
Y307677D01*
X765543Y293898D02*
Y307677D01*
X766043Y293898D02*
Y307677D01*
X766543Y293898D02*
Y307677D01*
X767043Y293898D02*
Y307677D01*
X767543Y293898D02*
Y307677D01*
X768043Y293898D02*
Y307677D01*
X768543Y293898D02*
Y307677D01*
X769043Y293898D02*
Y307677D01*
X834252Y118701D02*
Y104921D01*
X844094*
Y118701*
X834252*
X834346Y104921D02*
Y118701D01*
X834846Y104921D02*
Y118701D01*
X835346Y104921D02*
Y118701D01*
X835846Y104921D02*
Y118701D01*
X836346Y104921D02*
Y118701D01*
X836846Y104921D02*
Y118701D01*
X837346Y104921D02*
Y118701D01*
X837846Y104921D02*
Y118701D01*
X838346Y104921D02*
Y118701D01*
X838846Y104921D02*
Y118701D01*
X839346Y104921D02*
Y118701D01*
X839846Y104921D02*
Y118701D01*
X840346Y104921D02*
Y118701D01*
X840846Y104921D02*
Y118701D01*
X841346Y104921D02*
Y118701D01*
X841846Y104921D02*
Y118701D01*
X842346Y104921D02*
Y118701D01*
X842846Y104921D02*
Y118701D01*
X843346Y104921D02*
Y118701D01*
X843846Y104921D02*
Y118701D01*
X812598D02*
Y104921D01*
X822441*
Y118701*
X812598*
X812846Y104921D02*
Y118701D01*
X813346Y104921D02*
Y118701D01*
X813846Y104921D02*
Y118701D01*
X814346Y104921D02*
Y118701D01*
X814846Y104921D02*
Y118701D01*
X815346Y104921D02*
Y118701D01*
X815846Y104921D02*
Y118701D01*
X816346Y104921D02*
Y118701D01*
X816846Y104921D02*
Y118701D01*
X817346Y104921D02*
Y118701D01*
X817846Y104921D02*
Y118701D01*
X818346Y104921D02*
Y118701D01*
X818846Y104921D02*
Y118701D01*
X819346Y104921D02*
Y118701D01*
X819846Y104921D02*
Y118701D01*
X820346Y104921D02*
Y118701D01*
X820846Y104921D02*
Y118701D01*
X821346Y104921D02*
Y118701D01*
X821846Y104921D02*
Y118701D01*
X822346Y104921D02*
Y118701D01*
X688583Y136417D02*
Y150197D01*
X678740*
Y136417*
X688583*
X678988D02*
Y150197D01*
X679488Y136417D02*
Y150197D01*
X679988Y136417D02*
Y150197D01*
X680488Y136417D02*
Y150197D01*
X680988Y136417D02*
Y150197D01*
X681488Y136417D02*
Y150197D01*
X681988Y136417D02*
Y150197D01*
X682488Y136417D02*
Y150197D01*
X682988Y136417D02*
Y150197D01*
X683488Y136417D02*
Y150197D01*
X683988Y136417D02*
Y150197D01*
X684488Y136417D02*
Y150197D01*
X684988Y136417D02*
Y150197D01*
X685488Y136417D02*
Y150197D01*
X685988Y136417D02*
Y150197D01*
X686488Y136417D02*
Y150197D01*
X686988Y136417D02*
Y150197D01*
X687488Y136417D02*
Y150197D01*
X687988Y136417D02*
Y150197D01*
X688488Y136417D02*
Y150197D01*
X710236Y136417D02*
Y150197D01*
X700394*
Y136417*
X710236*
X700488D02*
Y150197D01*
X700988Y136417D02*
Y150197D01*
X701488Y136417D02*
Y150197D01*
X701988Y136417D02*
Y150197D01*
X702488Y136417D02*
Y150197D01*
X702988Y136417D02*
Y150197D01*
X703488Y136417D02*
Y150197D01*
X703988Y136417D02*
Y150197D01*
X704488Y136417D02*
Y150197D01*
X704988Y136417D02*
Y150197D01*
X705488Y136417D02*
Y150197D01*
X705988Y136417D02*
Y150197D01*
X706488Y136417D02*
Y150197D01*
X706988Y136417D02*
Y150197D01*
X707488Y136417D02*
Y150197D01*
X707988Y136417D02*
Y150197D01*
X708488Y136417D02*
Y150197D01*
X708988Y136417D02*
Y150197D01*
X709488Y136417D02*
Y150197D01*
X709988Y136417D02*
Y150197D01*
X954331Y195472D02*
Y209252D01*
X944488*
Y195472*
X954331*
X944736D02*
Y209252D01*
X945236Y195472D02*
Y209252D01*
X945736Y195472D02*
Y209252D01*
X946236Y195472D02*
Y209252D01*
X946736Y195472D02*
Y209252D01*
X947236Y195472D02*
Y209252D01*
X947736Y195472D02*
Y209252D01*
X948236Y195472D02*
Y209252D01*
X948736Y195472D02*
Y209252D01*
X949236Y195472D02*
Y209252D01*
X949736Y195472D02*
Y209252D01*
X950236Y195472D02*
Y209252D01*
X950736Y195472D02*
Y209252D01*
X951236Y195472D02*
Y209252D01*
X951736Y195472D02*
Y209252D01*
X952236Y195472D02*
Y209252D01*
X952736Y195472D02*
Y209252D01*
X953236Y195472D02*
Y209252D01*
X953736Y195472D02*
Y209252D01*
X954236Y195472D02*
Y209252D01*
X975984Y195472D02*
Y209252D01*
X966142*
Y195472*
X975984*
X966236D02*
Y209252D01*
X966736Y195472D02*
Y209252D01*
X967236Y195472D02*
Y209252D01*
X967736Y195472D02*
Y209252D01*
X968236Y195472D02*
Y209252D01*
X968736Y195472D02*
Y209252D01*
X969236Y195472D02*
Y209252D01*
X969736Y195472D02*
Y209252D01*
X970236Y195472D02*
Y209252D01*
X970736Y195472D02*
Y209252D01*
X971236Y195472D02*
Y209252D01*
X971736Y195472D02*
Y209252D01*
X972236Y195472D02*
Y209252D01*
X972736Y195472D02*
Y209252D01*
X973236Y195472D02*
Y209252D01*
X973736Y195472D02*
Y209252D01*
X974236Y195472D02*
Y209252D01*
X974736Y195472D02*
Y209252D01*
X975236Y195472D02*
Y209252D01*
X975736Y195472D02*
Y209252D01*
X676772Y401181D02*
Y397244D01*
X680709*
Y401181*
X676772*
X677177Y397244D02*
Y401181D01*
X677677Y397244D02*
Y401181D01*
X678177Y397244D02*
Y401181D01*
X678677Y397244D02*
Y401181D01*
X679177Y397244D02*
Y401181D01*
X679677Y397244D02*
Y401181D01*
X680177Y397244D02*
Y401181D01*
X680677Y397244D02*
Y401181D01*
X684646D02*
Y397244D01*
X688583*
Y401181*
X684646*
X684677Y397244D02*
Y401181D01*
X685177Y397244D02*
Y401181D01*
X685677Y397244D02*
Y401181D01*
X686177Y397244D02*
Y401181D01*
X686677Y397244D02*
Y401181D01*
X687177Y397244D02*
Y401181D01*
X687677Y397244D02*
Y401181D01*
X688177Y397244D02*
Y401181D01*
X702362Y418898D02*
Y414961D01*
X706299*
Y418898*
X702362*
X702768Y414961D02*
Y418898D01*
X703268Y414961D02*
Y418898D01*
X703768Y414961D02*
Y418898D01*
X704268Y414961D02*
Y418898D01*
X704768Y414961D02*
Y418898D01*
X705268Y414961D02*
Y418898D01*
X705768Y414961D02*
Y418898D01*
X706268Y414961D02*
Y418898D01*
X710236D02*
Y414961D01*
X714173*
Y418898*
X710236*
X710268Y414961D02*
Y418898D01*
X710768Y414961D02*
Y418898D01*
X711268Y414961D02*
Y418898D01*
X711768Y414961D02*
Y418898D01*
X712268Y414961D02*
Y418898D01*
X712768Y414961D02*
Y418898D01*
X713268Y414961D02*
Y418898D01*
X713768Y414961D02*
Y418898D01*
X676772Y444488D02*
X672835D01*
Y440551*
X676772*
Y444488*
X673303Y440551D02*
Y444488D01*
X673803Y440551D02*
Y444488D01*
X674303Y440551D02*
Y444488D01*
X674803Y440551D02*
Y444488D01*
X675303Y440551D02*
Y444488D01*
X675803Y440551D02*
Y444488D01*
X676303Y440551D02*
Y444488D01*
X676772Y436614D02*
X672835D01*
Y432677*
X676772*
Y436614*
X673303Y432677D02*
Y436614D01*
X673803Y432677D02*
Y436614D01*
X674303Y432677D02*
Y436614D01*
X674803Y432677D02*
Y436614D01*
X675303Y432677D02*
Y436614D01*
X675803Y432677D02*
Y436614D01*
X676303Y432677D02*
Y436614D01*
X727953Y444488D02*
X724016D01*
Y440551*
X727953*
Y444488*
X724484Y440551D02*
Y444488D01*
X724984Y440551D02*
Y444488D01*
X725484Y440551D02*
Y444488D01*
X725984Y440551D02*
Y444488D01*
X726484Y440551D02*
Y444488D01*
X726984Y440551D02*
Y444488D01*
X727484Y440551D02*
Y444488D01*
X727953Y436614D02*
X724016D01*
Y432677*
X727953*
Y436614*
X724484Y432677D02*
Y436614D01*
X724984Y432677D02*
Y436614D01*
X725484Y432677D02*
Y436614D01*
X725984Y432677D02*
Y436614D01*
X726484Y432677D02*
Y436614D01*
X726984Y432677D02*
Y436614D01*
X727484Y432677D02*
Y436614D01*
X664961Y432677D02*
X668898D01*
Y436614*
X664961*
Y432677*
X665429D02*
Y436614D01*
X665929Y432677D02*
Y436614D01*
X666429Y432677D02*
Y436614D01*
X666929Y432677D02*
Y436614D01*
X667429Y432677D02*
Y436614D01*
X667929Y432677D02*
Y436614D01*
X668429Y432677D02*
Y436614D01*
X664961Y440551D02*
X668898D01*
Y444488*
X664961*
Y440551*
X665429D02*
Y444488D01*
X665929Y440551D02*
Y444488D01*
X666429Y440551D02*
Y444488D01*
X666929Y440551D02*
Y444488D01*
X667429Y440551D02*
Y444488D01*
X667929Y440551D02*
Y444488D01*
X668429Y440551D02*
Y444488D01*
X716142Y432677D02*
X720079D01*
Y436614*
X716142*
Y432677*
X716610D02*
Y436614D01*
X717110Y432677D02*
Y436614D01*
X717610Y432677D02*
Y436614D01*
X718110Y432677D02*
Y436614D01*
X718610Y432677D02*
Y436614D01*
X719110Y432677D02*
Y436614D01*
X719610Y432677D02*
Y436614D01*
X716142Y440551D02*
X720079D01*
Y444488*
X716142*
Y440551*
X716610D02*
Y444488D01*
X717110Y440551D02*
Y444488D01*
X717610Y440551D02*
Y444488D01*
X718110Y440551D02*
Y444488D01*
X718610Y440551D02*
Y444488D01*
X719110Y440551D02*
Y444488D01*
X719610Y440551D02*
Y444488D01*
X787008Y330315D02*
X790945D01*
Y334252*
X787008*
Y330315*
X787476D02*
Y334252D01*
X787976Y330315D02*
Y334252D01*
X788476Y330315D02*
Y334252D01*
X788976Y330315D02*
Y334252D01*
X789476Y330315D02*
Y334252D01*
X789976Y330315D02*
Y334252D01*
X790476Y330315D02*
Y334252D01*
X787008Y338189D02*
X790945D01*
Y342126*
X787008*
Y338189*
X787476D02*
Y342126D01*
X787976Y338189D02*
Y342126D01*
X788476Y338189D02*
Y342126D01*
X788976Y338189D02*
Y342126D01*
X789476Y338189D02*
Y342126D01*
X789976Y338189D02*
Y342126D01*
X790476Y338189D02*
Y342126D01*
X846063Y330315D02*
X850000D01*
Y334252*
X846063*
Y330315*
X846531D02*
Y334252D01*
X847031Y330315D02*
Y334252D01*
X847531Y330315D02*
Y334252D01*
X848031Y330315D02*
Y334252D01*
X848531Y330315D02*
Y334252D01*
X849031Y330315D02*
Y334252D01*
X849531Y330315D02*
Y334252D01*
X846063Y338189D02*
X850000D01*
Y342126*
X846063*
Y338189*
X846531D02*
Y342126D01*
X847031Y338189D02*
Y342126D01*
X847531Y338189D02*
Y342126D01*
X848031Y338189D02*
Y342126D01*
X848531Y338189D02*
Y342126D01*
X849031Y338189D02*
Y342126D01*
X849531Y338189D02*
Y342126D01*
X794882Y330315D02*
X798819D01*
Y334252*
X794882*
Y330315*
X795350D02*
Y334252D01*
X795850Y330315D02*
Y334252D01*
X796350Y330315D02*
Y334252D01*
X796850Y330315D02*
Y334252D01*
X797350Y330315D02*
Y334252D01*
X797850Y330315D02*
Y334252D01*
X798350Y330315D02*
Y334252D01*
X794882Y338189D02*
X798819D01*
Y342126*
X794882*
Y338189*
X795350D02*
Y342126D01*
X795850Y338189D02*
Y342126D01*
X796350Y338189D02*
Y342126D01*
X796850Y338189D02*
Y342126D01*
X797350Y338189D02*
Y342126D01*
X797850Y338189D02*
Y342126D01*
X798350Y338189D02*
Y342126D01*
X727953Y401181D02*
Y397244D01*
X731890*
Y401181*
X727953*
X728358Y397244D02*
Y401181D01*
X728858Y397244D02*
Y401181D01*
X729358Y397244D02*
Y401181D01*
X729858Y397244D02*
Y401181D01*
X730358Y397244D02*
Y401181D01*
X730858Y397244D02*
Y401181D01*
X731358Y397244D02*
Y401181D01*
X731858Y397244D02*
Y401181D01*
X735827D02*
Y397244D01*
X739764*
Y401181*
X735827*
X735858Y397244D02*
Y401181D01*
X736358Y397244D02*
Y401181D01*
X736858Y397244D02*
Y401181D01*
X737358Y397244D02*
Y401181D01*
X737858Y397244D02*
Y401181D01*
X738358Y397244D02*
Y401181D01*
X738858Y397244D02*
Y401181D01*
X739358Y397244D02*
Y401181D01*
X853937Y330315D02*
X857874D01*
Y334252*
X853937*
Y330315*
X854406D02*
Y334252D01*
X854906Y330315D02*
Y334252D01*
X855406Y330315D02*
Y334252D01*
X855906Y330315D02*
Y334252D01*
X856406Y330315D02*
Y334252D01*
X856906Y330315D02*
Y334252D01*
X857406Y330315D02*
Y334252D01*
X853937Y338189D02*
X857874D01*
Y342126*
X853937*
Y338189*
X854406D02*
Y342126D01*
X854906Y338189D02*
Y342126D01*
X855406Y338189D02*
Y342126D01*
X855906Y338189D02*
Y342126D01*
X856406Y338189D02*
Y342126D01*
X856906Y338189D02*
Y342126D01*
X857406Y338189D02*
Y342126D01*
X995669Y369685D02*
Y365748D01*
X999606*
Y369685*
X995669*
X996075Y365748D02*
Y369685D01*
X996575Y365748D02*
Y369685D01*
X997075Y365748D02*
Y369685D01*
X997575Y365748D02*
Y369685D01*
X998075Y365748D02*
Y369685D01*
X998575Y365748D02*
Y369685D01*
X999075Y365748D02*
Y369685D01*
X999575Y365748D02*
Y369685D01*
X1003543D02*
Y365748D01*
X1007480*
Y369685*
X1003543*
X1003575Y365748D02*
Y369685D01*
X1004075Y365748D02*
Y369685D01*
X1004575Y365748D02*
Y369685D01*
X1005075Y365748D02*
Y369685D01*
X1005575Y365748D02*
Y369685D01*
X1006075Y365748D02*
Y369685D01*
X1006575Y365748D02*
Y369685D01*
X1007075Y365748D02*
Y369685D01*
X995669Y338189D02*
Y334252D01*
X999606*
Y338189*
X995669*
X996075Y334252D02*
Y338189D01*
X996575Y334252D02*
Y338189D01*
X997075Y334252D02*
Y338189D01*
X997575Y334252D02*
Y338189D01*
X998075Y334252D02*
Y338189D01*
X998575Y334252D02*
Y338189D01*
X999075Y334252D02*
Y338189D01*
X999575Y334252D02*
Y338189D01*
X1003543D02*
Y334252D01*
X1007480*
Y338189*
X1003543*
X1003575Y334252D02*
Y338189D01*
X1004075Y334252D02*
Y338189D01*
X1004575Y334252D02*
Y338189D01*
X1005075Y334252D02*
Y338189D01*
X1005575Y334252D02*
Y338189D01*
X1006075Y334252D02*
Y338189D01*
X1006575Y334252D02*
Y338189D01*
X1007075Y334252D02*
Y338189D01*
X995669Y306693D02*
Y302756D01*
X999606*
Y306693*
X995669*
X996075Y302756D02*
Y306693D01*
X996575Y302756D02*
Y306693D01*
X997075Y302756D02*
Y306693D01*
X997575Y302756D02*
Y306693D01*
X998075Y302756D02*
Y306693D01*
X998575Y302756D02*
Y306693D01*
X999075Y302756D02*
Y306693D01*
X999575Y302756D02*
Y306693D01*
X1003543D02*
Y302756D01*
X1007480*
Y306693*
X1003543*
X1003575Y302756D02*
Y306693D01*
X1004075Y302756D02*
Y306693D01*
X1004575Y302756D02*
Y306693D01*
X1005075Y302756D02*
Y306693D01*
X1005575Y302756D02*
Y306693D01*
X1006075Y302756D02*
Y306693D01*
X1006575Y302756D02*
Y306693D01*
X1007075Y302756D02*
Y306693D01*
X995669Y275197D02*
Y271260D01*
X999606*
Y275197*
X995669*
X996075Y271260D02*
Y275197D01*
X996575Y271260D02*
Y275197D01*
X997075Y271260D02*
Y275197D01*
X997575Y271260D02*
Y275197D01*
X998075Y271260D02*
Y275197D01*
X998575Y271260D02*
Y275197D01*
X999075Y271260D02*
Y275197D01*
X999575Y271260D02*
Y275197D01*
X1003543D02*
Y271260D01*
X1007480*
Y275197*
X1003543*
X1003575Y271260D02*
Y275197D01*
X1004075Y271260D02*
Y275197D01*
X1004575Y271260D02*
Y275197D01*
X1005075Y271260D02*
Y275197D01*
X1005575Y271260D02*
Y275197D01*
X1006075Y271260D02*
Y275197D01*
X1006575Y271260D02*
Y275197D01*
X1007075Y271260D02*
Y275197D01*
X995669Y243701D02*
Y239764D01*
X999606*
Y243701*
X995669*
X996075Y239764D02*
Y243701D01*
X996575Y239764D02*
Y243701D01*
X997075Y239764D02*
Y243701D01*
X997575Y239764D02*
Y243701D01*
X998075Y239764D02*
Y243701D01*
X998575Y239764D02*
Y243701D01*
X999075Y239764D02*
Y243701D01*
X999575Y239764D02*
Y243701D01*
X1003543D02*
Y239764D01*
X1007480*
Y243701*
X1003543*
X1003575Y239764D02*
Y243701D01*
X1004075Y239764D02*
Y243701D01*
X1004575Y239764D02*
Y243701D01*
X1005075Y239764D02*
Y243701D01*
X1005575Y239764D02*
Y243701D01*
X1006075Y239764D02*
Y243701D01*
X1006575Y239764D02*
Y243701D01*
X1007075Y239764D02*
Y243701D01*
X995669Y212205D02*
Y208268D01*
X999606*
Y212205*
X995669*
X996075Y208268D02*
Y212205D01*
X996575Y208268D02*
Y212205D01*
X997075Y208268D02*
Y212205D01*
X997575Y208268D02*
Y212205D01*
X998075Y208268D02*
Y212205D01*
X998575Y208268D02*
Y212205D01*
X999075Y208268D02*
Y212205D01*
X999575Y208268D02*
Y212205D01*
X1003543D02*
Y208268D01*
X1007480*
Y212205*
X1003543*
X1003575Y208268D02*
Y212205D01*
X1004075Y208268D02*
Y212205D01*
X1004575Y208268D02*
Y212205D01*
X1005075Y208268D02*
Y212205D01*
X1005575Y208268D02*
Y212205D01*
X1006075Y208268D02*
Y212205D01*
X1006575Y208268D02*
Y212205D01*
X1007075Y208268D02*
Y212205D01*
X531102Y133465D02*
Y137402D01*
X527165*
Y133465*
X531102*
X527197D02*
Y137402D01*
X527697Y133465D02*
Y137402D01*
X528197Y133465D02*
Y137402D01*
X528697Y133465D02*
Y137402D01*
X529197Y133465D02*
Y137402D01*
X529697Y133465D02*
Y137402D01*
X530197Y133465D02*
Y137402D01*
X530697Y133465D02*
Y137402D01*
X523228Y133465D02*
Y137402D01*
X519291*
Y133465*
X523228*
X519697D02*
Y137402D01*
X520197Y133465D02*
Y137402D01*
X520697Y133465D02*
Y137402D01*
X521197Y133465D02*
Y137402D01*
X521697Y133465D02*
Y137402D01*
X522197Y133465D02*
Y137402D01*
X522697Y133465D02*
Y137402D01*
X523197Y133465D02*
Y137402D01*
X542913Y168898D02*
X538976D01*
Y164961*
X542913*
Y168898*
X539445Y164961D02*
Y168898D01*
X539945Y164961D02*
Y168898D01*
X540445Y164961D02*
Y168898D01*
X540945Y164961D02*
Y168898D01*
X541445Y164961D02*
Y168898D01*
X541945Y164961D02*
Y168898D01*
X542445Y164961D02*
Y168898D01*
X542913Y161024D02*
X538976D01*
Y157087*
X542913*
Y161024*
X539445Y157087D02*
Y161024D01*
X539945Y157087D02*
Y161024D01*
X540445Y157087D02*
Y161024D01*
X540945Y157087D02*
Y161024D01*
X541445Y157087D02*
Y161024D01*
X541945Y157087D02*
Y161024D01*
X542445Y157087D02*
Y161024D01*
X566535Y290945D02*
Y294882D01*
X562598*
Y290945*
X566535*
X562630D02*
Y294882D01*
X563130Y290945D02*
Y294882D01*
X563630Y290945D02*
Y294882D01*
X564130Y290945D02*
Y294882D01*
X564630Y290945D02*
Y294882D01*
X565130Y290945D02*
Y294882D01*
X565630Y290945D02*
Y294882D01*
X566130Y290945D02*
Y294882D01*
X558661Y290945D02*
Y294882D01*
X554724*
Y290945*
X558661*
X555130D02*
Y294882D01*
X555630Y290945D02*
Y294882D01*
X556130Y290945D02*
Y294882D01*
X556630Y290945D02*
Y294882D01*
X557130Y290945D02*
Y294882D01*
X557630Y290945D02*
Y294882D01*
X558130Y290945D02*
Y294882D01*
X558630Y290945D02*
Y294882D01*
X662992Y422835D02*
Y426772D01*
X659055*
Y422835*
X662992*
X659087D02*
Y426772D01*
X659587Y422835D02*
Y426772D01*
X660087Y422835D02*
Y426772D01*
X660587Y422835D02*
Y426772D01*
X661087Y422835D02*
Y426772D01*
X661587Y422835D02*
Y426772D01*
X662087Y422835D02*
Y426772D01*
X662587Y422835D02*
Y426772D01*
X655118Y422835D02*
Y426772D01*
X651181*
Y422835*
X655118*
X651587D02*
Y426772D01*
X652087Y422835D02*
Y426772D01*
X652587Y422835D02*
Y426772D01*
X653087Y422835D02*
Y426772D01*
X653587Y422835D02*
Y426772D01*
X654087Y422835D02*
Y426772D01*
X654587Y422835D02*
Y426772D01*
X655087Y422835D02*
Y426772D01*
X153150Y365748D02*
X149213D01*
Y361811*
X153150*
Y365748*
X149681Y361811D02*
Y365748D01*
X150181Y361811D02*
Y365748D01*
X150681Y361811D02*
Y365748D01*
X151181Y361811D02*
Y365748D01*
X151681Y361811D02*
Y365748D01*
X152181Y361811D02*
Y365748D01*
X152681Y361811D02*
Y365748D01*
X153150Y357874D02*
X149213D01*
Y353937*
X153150*
Y357874*
X149681Y353937D02*
Y357874D01*
X150181Y353937D02*
Y357874D01*
X150681Y353937D02*
Y357874D01*
X151181Y353937D02*
Y357874D01*
X151681Y353937D02*
Y357874D01*
X152181Y353937D02*
Y357874D01*
X152681Y353937D02*
Y357874D01*
X554724Y302756D02*
X558661D01*
Y306693*
X554724*
Y302756*
X555193D02*
Y306693D01*
X555693Y302756D02*
Y306693D01*
X556193Y302756D02*
Y306693D01*
X556693Y302756D02*
Y306693D01*
X557193Y302756D02*
Y306693D01*
X557693Y302756D02*
Y306693D01*
X558193Y302756D02*
Y306693D01*
X554724Y310630D02*
X558661D01*
Y314567*
X554724*
Y310630*
X555193D02*
Y314567D01*
X555693Y310630D02*
Y314567D01*
X556193Y310630D02*
Y314567D01*
X556693Y310630D02*
Y314567D01*
X557193Y310630D02*
Y314567D01*
X557693Y310630D02*
Y314567D01*
X558193Y310630D02*
Y314567D01*
X696457Y279134D02*
X692520D01*
Y275197*
X696457*
Y279134*
X692988Y275197D02*
Y279134D01*
X693488Y275197D02*
Y279134D01*
X693988Y275197D02*
Y279134D01*
X694488Y275197D02*
Y279134D01*
X694988Y275197D02*
Y279134D01*
X695488Y275197D02*
Y279134D01*
X695988Y275197D02*
Y279134D01*
X696457Y271260D02*
X692520D01*
Y267323*
X696457*
Y271260*
X692988Y267323D02*
Y271260D01*
X693488Y267323D02*
Y271260D01*
X693988Y267323D02*
Y271260D01*
X694488Y267323D02*
Y271260D01*
X694988Y267323D02*
Y271260D01*
X695488Y267323D02*
Y271260D01*
X695988Y267323D02*
Y271260D01*
X684646Y298819D02*
X688583D01*
Y302756*
X684646*
Y298819*
X685114D02*
Y302756D01*
X685614Y298819D02*
Y302756D01*
X686114Y298819D02*
Y302756D01*
X686614Y298819D02*
Y302756D01*
X687114Y298819D02*
Y302756D01*
X687614Y298819D02*
Y302756D01*
X688114Y298819D02*
Y302756D01*
X684646Y306693D02*
X688583D01*
Y310630*
X684646*
Y306693*
X685114D02*
Y310630D01*
X685614Y306693D02*
Y310630D01*
X686114Y306693D02*
Y310630D01*
X686614Y306693D02*
Y310630D01*
X687114Y306693D02*
Y310630D01*
X687614Y306693D02*
Y310630D01*
X688114Y306693D02*
Y310630D01*
X436614Y267323D02*
X440551D01*
Y271260*
X436614*
Y267323*
X437083D02*
Y271260D01*
X437583Y267323D02*
Y271260D01*
X438083Y267323D02*
Y271260D01*
X438583Y267323D02*
Y271260D01*
X439083Y267323D02*
Y271260D01*
X439583Y267323D02*
Y271260D01*
X440083Y267323D02*
Y271260D01*
X436614Y275197D02*
X440551D01*
Y279134*
X436614*
Y275197*
X437083D02*
Y279134D01*
X437583Y275197D02*
Y279134D01*
X438083Y275197D02*
Y279134D01*
X438583Y275197D02*
Y279134D01*
X439083Y275197D02*
Y279134D01*
X439583Y275197D02*
Y279134D01*
X440083Y275197D02*
Y279134D01*
X444488Y267323D02*
X448425D01*
Y271260*
X444488*
Y267323*
X444957D02*
Y271260D01*
X445457Y267323D02*
Y271260D01*
X445957Y267323D02*
Y271260D01*
X446457Y267323D02*
Y271260D01*
X446957Y267323D02*
Y271260D01*
X447457Y267323D02*
Y271260D01*
X447957Y267323D02*
Y271260D01*
X444488Y275197D02*
X448425D01*
Y279134*
X444488*
Y275197*
X444957D02*
Y279134D01*
X445457Y275197D02*
Y279134D01*
X445957Y275197D02*
Y279134D01*
X446457Y275197D02*
Y279134D01*
X446957Y275197D02*
Y279134D01*
X447457Y275197D02*
Y279134D01*
X447957Y275197D02*
Y279134D01*
X452362Y267323D02*
X456299D01*
Y271260*
X452362*
Y267323*
X452831D02*
Y271260D01*
X453331Y267323D02*
Y271260D01*
X453831Y267323D02*
Y271260D01*
X454331Y267323D02*
Y271260D01*
X454831Y267323D02*
Y271260D01*
X455331Y267323D02*
Y271260D01*
X455831Y267323D02*
Y271260D01*
X452362Y275197D02*
X456299D01*
Y279134*
X452362*
Y275197*
X452831D02*
Y279134D01*
X453331Y275197D02*
Y279134D01*
X453831Y275197D02*
Y279134D01*
X454331Y275197D02*
Y279134D01*
X454831Y275197D02*
Y279134D01*
X455331Y275197D02*
Y279134D01*
X455831Y275197D02*
Y279134D01*
X460236Y267323D02*
X464173D01*
Y271260*
X460236*
Y267323*
X460705D02*
Y271260D01*
X461205Y267323D02*
Y271260D01*
X461705Y267323D02*
Y271260D01*
X462205Y267323D02*
Y271260D01*
X462705Y267323D02*
Y271260D01*
X463205Y267323D02*
Y271260D01*
X463705Y267323D02*
Y271260D01*
X460236Y275197D02*
X464173D01*
Y279134*
X460236*
Y275197*
X460705D02*
Y279134D01*
X461205Y275197D02*
Y279134D01*
X461705Y275197D02*
Y279134D01*
X462205Y275197D02*
Y279134D01*
X462705Y275197D02*
Y279134D01*
X463205Y275197D02*
Y279134D01*
X463705Y275197D02*
Y279134D01*
X507480Y196457D02*
Y200394D01*
X503543*
Y196457*
X507480*
X503575D02*
Y200394D01*
X504075Y196457D02*
Y200394D01*
X504575Y196457D02*
Y200394D01*
X505075Y196457D02*
Y200394D01*
X505575Y196457D02*
Y200394D01*
X506075Y196457D02*
Y200394D01*
X506575Y196457D02*
Y200394D01*
X507075Y196457D02*
Y200394D01*
X499606Y196457D02*
Y200394D01*
X495669*
Y196457*
X499606*
X496075D02*
Y200394D01*
X496575Y196457D02*
Y200394D01*
X497075Y196457D02*
Y200394D01*
X497575Y196457D02*
Y200394D01*
X498075Y196457D02*
Y200394D01*
X498575Y196457D02*
Y200394D01*
X499075Y196457D02*
Y200394D01*
X499575Y196457D02*
Y200394D01*
X688583Y279134D02*
X684646D01*
Y275197*
X688583*
Y279134*
X685114Y275197D02*
Y279134D01*
X685614Y275197D02*
Y279134D01*
X686114Y275197D02*
Y279134D01*
X686614Y275197D02*
Y279134D01*
X687114Y275197D02*
Y279134D01*
X687614Y275197D02*
Y279134D01*
X688114Y275197D02*
Y279134D01*
X688583Y271260D02*
X684646D01*
Y267323*
X688583*
Y271260*
X685114Y267323D02*
Y271260D01*
X685614Y267323D02*
Y271260D01*
X686114Y267323D02*
Y271260D01*
X686614Y267323D02*
Y271260D01*
X687114Y267323D02*
Y271260D01*
X687614Y267323D02*
Y271260D01*
X688114Y267323D02*
Y271260D01*
X273228Y192520D02*
Y196457D01*
X269291*
Y192520*
X273228*
X269323D02*
Y196457D01*
X269823Y192520D02*
Y196457D01*
X270323Y192520D02*
Y196457D01*
X270823Y192520D02*
Y196457D01*
X271323Y192520D02*
Y196457D01*
X271823Y192520D02*
Y196457D01*
X272323Y192520D02*
Y196457D01*
X272823Y192520D02*
Y196457D01*
X265354Y192520D02*
Y196457D01*
X261417*
Y192520*
X265354*
X261823D02*
Y196457D01*
X262323Y192520D02*
Y196457D01*
X262823Y192520D02*
Y196457D01*
X263323Y192520D02*
Y196457D01*
X263823Y192520D02*
Y196457D01*
X264323Y192520D02*
Y196457D01*
X264823Y192520D02*
Y196457D01*
X265323Y192520D02*
Y196457D01*
X164961Y172835D02*
Y168898D01*
X168898*
Y172835*
X164961*
X165366Y168898D02*
Y172835D01*
X165866Y168898D02*
Y172835D01*
X166366Y168898D02*
Y172835D01*
X166866Y168898D02*
Y172835D01*
X167366Y168898D02*
Y172835D01*
X167866Y168898D02*
Y172835D01*
X168366Y168898D02*
Y172835D01*
X168866Y168898D02*
Y172835D01*
X172835D02*
Y168898D01*
X176772*
Y172835*
X172835*
X172866Y168898D02*
Y172835D01*
X173366Y168898D02*
Y172835D01*
X173866Y168898D02*
Y172835D01*
X174366Y168898D02*
Y172835D01*
X174866Y168898D02*
Y172835D01*
X175366Y168898D02*
Y172835D01*
X175866Y168898D02*
Y172835D01*
X176366Y168898D02*
Y172835D01*
X164961Y164961D02*
Y161024D01*
X168898*
Y164961*
X164961*
X165366Y161024D02*
Y164961D01*
X165866Y161024D02*
Y164961D01*
X166366Y161024D02*
Y164961D01*
X166866Y161024D02*
Y164961D01*
X167366Y161024D02*
Y164961D01*
X167866Y161024D02*
Y164961D01*
X168366Y161024D02*
Y164961D01*
X168866Y161024D02*
Y164961D01*
X172835D02*
Y161024D01*
X176772*
Y164961*
X172835*
X172866Y161024D02*
Y164961D01*
X173366Y161024D02*
Y164961D01*
X173866Y161024D02*
Y164961D01*
X174366Y161024D02*
Y164961D01*
X174866Y161024D02*
Y164961D01*
X175366Y161024D02*
Y164961D01*
X175866Y161024D02*
Y164961D01*
X176366Y161024D02*
Y164961D01*
X251575Y188583D02*
Y192520D01*
X247638*
Y188583*
X251575*
X247669D02*
Y192520D01*
X248169Y188583D02*
Y192520D01*
X248669Y188583D02*
Y192520D01*
X249169Y188583D02*
Y192520D01*
X249669Y188583D02*
Y192520D01*
X250169Y188583D02*
Y192520D01*
X250669Y188583D02*
Y192520D01*
X251169Y188583D02*
Y192520D01*
X243701Y188583D02*
Y192520D01*
X239764*
Y188583*
X243701*
X240169D02*
Y192520D01*
X240669Y188583D02*
Y192520D01*
X241169Y188583D02*
Y192520D01*
X241669Y188583D02*
Y192520D01*
X242169Y188583D02*
Y192520D01*
X242669Y188583D02*
Y192520D01*
X243169Y188583D02*
Y192520D01*
X243669Y188583D02*
Y192520D01*
X251575Y180709D02*
Y184646D01*
X247638*
Y180709*
X251575*
X247669D02*
Y184646D01*
X248169Y180709D02*
Y184646D01*
X248669Y180709D02*
Y184646D01*
X249169Y180709D02*
Y184646D01*
X249669Y180709D02*
Y184646D01*
X250169Y180709D02*
Y184646D01*
X250669Y180709D02*
Y184646D01*
X251169Y180709D02*
Y184646D01*
X243701Y180709D02*
Y184646D01*
X239764*
Y180709*
X243701*
X240169D02*
Y184646D01*
X240669Y180709D02*
Y184646D01*
X241169Y180709D02*
Y184646D01*
X241669Y180709D02*
Y184646D01*
X242169Y180709D02*
Y184646D01*
X242669Y180709D02*
Y184646D01*
X243169Y180709D02*
Y184646D01*
X243669Y180709D02*
Y184646D01*
X176772Y176772D02*
Y180709D01*
X172835*
Y176772*
X176772*
X172866D02*
Y180709D01*
X173366Y176772D02*
Y180709D01*
X173866Y176772D02*
Y180709D01*
X174366Y176772D02*
Y180709D01*
X174866Y176772D02*
Y180709D01*
X175366Y176772D02*
Y180709D01*
X175866Y176772D02*
Y180709D01*
X176366Y176772D02*
Y180709D01*
X168898Y176772D02*
Y180709D01*
X164961*
Y176772*
X168898*
X165366D02*
Y180709D01*
X165866Y176772D02*
Y180709D01*
X166366Y176772D02*
Y180709D01*
X166866Y176772D02*
Y180709D01*
X167366Y176772D02*
Y180709D01*
X167866Y176772D02*
Y180709D01*
X168366Y176772D02*
Y180709D01*
X168866Y176772D02*
Y180709D01*
X261417Y172835D02*
Y168898D01*
X265354*
Y172835*
X261417*
X261823Y168898D02*
Y172835D01*
X262323Y168898D02*
Y172835D01*
X262823Y168898D02*
Y172835D01*
X263323Y168898D02*
Y172835D01*
X263823Y168898D02*
Y172835D01*
X264323Y168898D02*
Y172835D01*
X264823Y168898D02*
Y172835D01*
X265323Y168898D02*
Y172835D01*
X269291D02*
Y168898D01*
X273228*
Y172835*
X269291*
X269323Y168898D02*
Y172835D01*
X269823Y168898D02*
Y172835D01*
X270323Y168898D02*
Y172835D01*
X270823Y168898D02*
Y172835D01*
X271323Y168898D02*
Y172835D01*
X271823Y168898D02*
Y172835D01*
X272323Y168898D02*
Y172835D01*
X272823Y168898D02*
Y172835D01*
X176772Y192520D02*
Y196457D01*
X172835*
Y192520*
X176772*
X172866D02*
Y196457D01*
X173366Y192520D02*
Y196457D01*
X173866Y192520D02*
Y196457D01*
X174366Y192520D02*
Y196457D01*
X174866Y192520D02*
Y196457D01*
X175366Y192520D02*
Y196457D01*
X175866Y192520D02*
Y196457D01*
X176366Y192520D02*
Y196457D01*
X168898Y192520D02*
Y196457D01*
X164961*
Y192520*
X168898*
X165366D02*
Y196457D01*
X165866Y192520D02*
Y196457D01*
X166366Y192520D02*
Y196457D01*
X166866Y192520D02*
Y196457D01*
X167366Y192520D02*
Y196457D01*
X167866Y192520D02*
Y196457D01*
X168366Y192520D02*
Y196457D01*
X168866Y192520D02*
Y196457D01*
X251575Y172835D02*
Y176772D01*
X247638*
Y172835*
X251575*
X247669D02*
Y176772D01*
X248169Y172835D02*
Y176772D01*
X248669Y172835D02*
Y176772D01*
X249169Y172835D02*
Y176772D01*
X249669Y172835D02*
Y176772D01*
X250169Y172835D02*
Y176772D01*
X250669Y172835D02*
Y176772D01*
X251169Y172835D02*
Y176772D01*
X243701Y172835D02*
Y176772D01*
X239764*
Y172835*
X243701*
X240169D02*
Y176772D01*
X240669Y172835D02*
Y176772D01*
X241169Y172835D02*
Y176772D01*
X241669Y172835D02*
Y176772D01*
X242169Y172835D02*
Y176772D01*
X242669Y172835D02*
Y176772D01*
X243169Y172835D02*
Y176772D01*
X243669Y172835D02*
Y176772D01*
X714173Y422835D02*
Y426772D01*
X710236*
Y422835*
X714173*
X710268D02*
Y426772D01*
X710768Y422835D02*
Y426772D01*
X711268Y422835D02*
Y426772D01*
X711768Y422835D02*
Y426772D01*
X712268Y422835D02*
Y426772D01*
X712768Y422835D02*
Y426772D01*
X713268Y422835D02*
Y426772D01*
X713768Y422835D02*
Y426772D01*
X706299Y422835D02*
Y426772D01*
X702362*
Y422835*
X706299*
X702768D02*
Y426772D01*
X703268Y422835D02*
Y426772D01*
X703768Y422835D02*
Y426772D01*
X704268Y422835D02*
Y426772D01*
X704768Y422835D02*
Y426772D01*
X705268Y422835D02*
Y426772D01*
X705768Y422835D02*
Y426772D01*
X706268Y422835D02*
Y426772D01*
X251575Y164961D02*
Y168898D01*
X247638*
Y164961*
X251575*
X247669D02*
Y168898D01*
X248169Y164961D02*
Y168898D01*
X248669Y164961D02*
Y168898D01*
X249169Y164961D02*
Y168898D01*
X249669Y164961D02*
Y168898D01*
X250169Y164961D02*
Y168898D01*
X250669Y164961D02*
Y168898D01*
X251169Y164961D02*
Y168898D01*
X243701Y164961D02*
Y168898D01*
X239764*
Y164961*
X243701*
X240169D02*
Y168898D01*
X240669Y164961D02*
Y168898D01*
X241169Y164961D02*
Y168898D01*
X241669Y164961D02*
Y168898D01*
X242169Y164961D02*
Y168898D01*
X242669Y164961D02*
Y168898D01*
X243169Y164961D02*
Y168898D01*
X243669Y164961D02*
Y168898D01*
X176772Y184646D02*
Y188583D01*
X172835*
Y184646*
X176772*
X172866D02*
Y188583D01*
X173366Y184646D02*
Y188583D01*
X173866Y184646D02*
Y188583D01*
X174366Y184646D02*
Y188583D01*
X174866Y184646D02*
Y188583D01*
X175366Y184646D02*
Y188583D01*
X175866Y184646D02*
Y188583D01*
X176366Y184646D02*
Y188583D01*
X168898Y184646D02*
Y188583D01*
X164961*
Y184646*
X168898*
X165366D02*
Y188583D01*
X165866Y184646D02*
Y188583D01*
X166366Y184646D02*
Y188583D01*
X166866Y184646D02*
Y188583D01*
X167366Y184646D02*
Y188583D01*
X167866Y184646D02*
Y188583D01*
X168366Y184646D02*
Y188583D01*
X168866Y184646D02*
Y188583D01*
X468110Y168898D02*
Y172835D01*
X464173*
Y168898*
X468110*
X464205D02*
Y172835D01*
X464705Y168898D02*
Y172835D01*
X465205Y168898D02*
Y172835D01*
X465705Y168898D02*
Y172835D01*
X466205Y168898D02*
Y172835D01*
X466705Y168898D02*
Y172835D01*
X467205Y168898D02*
Y172835D01*
X467705Y168898D02*
Y172835D01*
X460236Y168898D02*
Y172835D01*
X456299*
Y168898*
X460236*
X456705D02*
Y172835D01*
X457205Y168898D02*
Y172835D01*
X457705Y168898D02*
Y172835D01*
X458205Y168898D02*
Y172835D01*
X458705Y168898D02*
Y172835D01*
X459205Y168898D02*
Y172835D01*
X459705Y168898D02*
Y172835D01*
X460205Y168898D02*
Y172835D01*
X483858Y200394D02*
X479921D01*
Y196457*
X483858*
Y200394*
X480390Y196457D02*
Y200394D01*
X480890Y196457D02*
Y200394D01*
X481390Y196457D02*
Y200394D01*
X481890Y196457D02*
Y200394D01*
X482390Y196457D02*
Y200394D01*
X482890Y196457D02*
Y200394D01*
X483390Y196457D02*
Y200394D01*
X483858Y192520D02*
X479921D01*
Y188583*
X483858*
Y192520*
X480390Y188583D02*
Y192520D01*
X480890Y188583D02*
Y192520D01*
X481390Y188583D02*
Y192520D01*
X481890Y188583D02*
Y192520D01*
X482390Y188583D02*
Y192520D01*
X482890Y188583D02*
Y192520D01*
X483390Y188583D02*
Y192520D01*
X412992Y172835D02*
Y168898D01*
X416929*
Y172835*
X412992*
X413398Y168898D02*
Y172835D01*
X413898Y168898D02*
Y172835D01*
X414398Y168898D02*
Y172835D01*
X414898Y168898D02*
Y172835D01*
X415398Y168898D02*
Y172835D01*
X415898Y168898D02*
Y172835D01*
X416398Y168898D02*
Y172835D01*
X416898Y168898D02*
Y172835D01*
X420866D02*
Y168898D01*
X424803*
Y172835*
X420866*
X420898Y168898D02*
Y172835D01*
X421398Y168898D02*
Y172835D01*
X421898Y168898D02*
Y172835D01*
X422398Y168898D02*
Y172835D01*
X422898Y168898D02*
Y172835D01*
X423398Y168898D02*
Y172835D01*
X423898Y168898D02*
Y172835D01*
X424398Y168898D02*
Y172835D01*
X412992Y164961D02*
Y161024D01*
X416929*
Y164961*
X412992*
X413398Y161024D02*
Y164961D01*
X413898Y161024D02*
Y164961D01*
X414398Y161024D02*
Y164961D01*
X414898Y161024D02*
Y164961D01*
X415398Y161024D02*
Y164961D01*
X415898Y161024D02*
Y164961D01*
X416398Y161024D02*
Y164961D01*
X416898Y161024D02*
Y164961D01*
X420866D02*
Y161024D01*
X424803*
Y164961*
X420866*
X420898Y161024D02*
Y164961D01*
X421398Y161024D02*
Y164961D01*
X421898Y161024D02*
Y164961D01*
X422398Y161024D02*
Y164961D01*
X422898Y161024D02*
Y164961D01*
X423398Y161024D02*
Y164961D01*
X423898Y161024D02*
Y164961D01*
X424398Y161024D02*
Y164961D01*
X153150Y303740D02*
X157087D01*
Y307677*
X153150*
Y303740*
X153618D02*
Y307677D01*
X154118Y303740D02*
Y307677D01*
X154618Y303740D02*
Y307677D01*
X155118Y303740D02*
Y307677D01*
X155618Y303740D02*
Y307677D01*
X156118Y303740D02*
Y307677D01*
X156618Y303740D02*
Y307677D01*
X153150Y311614D02*
X157087D01*
Y315551*
X153150*
Y311614*
X153618D02*
Y315551D01*
X154118Y311614D02*
Y315551D01*
X154618Y311614D02*
Y315551D01*
X155118Y311614D02*
Y315551D01*
X155618Y311614D02*
Y315551D01*
X156118Y311614D02*
Y315551D01*
X156618Y311614D02*
Y315551D01*
X161024Y303740D02*
X164961D01*
Y307677*
X161024*
Y303740*
X161492D02*
Y307677D01*
X161992Y303740D02*
Y307677D01*
X162492Y303740D02*
Y307677D01*
X162992Y303740D02*
Y307677D01*
X163492Y303740D02*
Y307677D01*
X163992Y303740D02*
Y307677D01*
X164492Y303740D02*
Y307677D01*
X161024Y311614D02*
X164961D01*
Y315551*
X161024*
Y311614*
X161492D02*
Y315551D01*
X161992Y311614D02*
Y315551D01*
X162492Y311614D02*
Y315551D01*
X162992Y311614D02*
Y315551D01*
X163492Y311614D02*
Y315551D01*
X163992Y311614D02*
Y315551D01*
X164492Y311614D02*
Y315551D01*
X157087Y184646D02*
Y188583D01*
X153150*
Y184646*
X157087*
X153181D02*
Y188583D01*
X153681Y184646D02*
Y188583D01*
X154181Y184646D02*
Y188583D01*
X154681Y184646D02*
Y188583D01*
X155181Y184646D02*
Y188583D01*
X155681Y184646D02*
Y188583D01*
X156181Y184646D02*
Y188583D01*
X156681Y184646D02*
Y188583D01*
X149213Y184646D02*
Y188583D01*
X145276*
Y184646*
X149213*
X145681D02*
Y188583D01*
X146181Y184646D02*
Y188583D01*
X146681Y184646D02*
Y188583D01*
X147181Y184646D02*
Y188583D01*
X147681Y184646D02*
Y188583D01*
X148181Y184646D02*
Y188583D01*
X148681Y184646D02*
Y188583D01*
X149181Y184646D02*
Y188583D01*
X157087Y176772D02*
Y180709D01*
X153150*
Y176772*
X157087*
X153181D02*
Y180709D01*
X153681Y176772D02*
Y180709D01*
X154181Y176772D02*
Y180709D01*
X154681Y176772D02*
Y180709D01*
X155181Y176772D02*
Y180709D01*
X155681Y176772D02*
Y180709D01*
X156181Y176772D02*
Y180709D01*
X156681Y176772D02*
Y180709D01*
X149213Y176772D02*
Y180709D01*
X145276*
Y176772*
X149213*
X145681D02*
Y180709D01*
X146181Y176772D02*
Y180709D01*
X146681Y176772D02*
Y180709D01*
X147181Y176772D02*
Y180709D01*
X147681Y176772D02*
Y180709D01*
X148181Y176772D02*
Y180709D01*
X148681Y176772D02*
Y180709D01*
X149181Y176772D02*
Y180709D01*
X507480Y188583D02*
Y192520D01*
X503543*
Y188583*
X507480*
X503575D02*
Y192520D01*
X504075Y188583D02*
Y192520D01*
X504575Y188583D02*
Y192520D01*
X505075Y188583D02*
Y192520D01*
X505575Y188583D02*
Y192520D01*
X506075Y188583D02*
Y192520D01*
X506575Y188583D02*
Y192520D01*
X507075Y188583D02*
Y192520D01*
X499606Y188583D02*
Y192520D01*
X495669*
Y188583*
X499606*
X496075D02*
Y192520D01*
X496575Y188583D02*
Y192520D01*
X497075Y188583D02*
Y192520D01*
X497575Y188583D02*
Y192520D01*
X498075Y188583D02*
Y192520D01*
X498575Y188583D02*
Y192520D01*
X499075Y188583D02*
Y192520D01*
X499575Y188583D02*
Y192520D01*
X157087Y161024D02*
Y164961D01*
X153150*
Y161024*
X157087*
X153181D02*
Y164961D01*
X153681Y161024D02*
Y164961D01*
X154181Y161024D02*
Y164961D01*
X154681Y161024D02*
Y164961D01*
X155181Y161024D02*
Y164961D01*
X155681Y161024D02*
Y164961D01*
X156181Y161024D02*
Y164961D01*
X156681Y161024D02*
Y164961D01*
X149213Y161024D02*
Y164961D01*
X145276*
Y161024*
X149213*
X145681D02*
Y164961D01*
X146181Y161024D02*
Y164961D01*
X146681Y161024D02*
Y164961D01*
X147181Y161024D02*
Y164961D01*
X147681Y161024D02*
Y164961D01*
X148181Y161024D02*
Y164961D01*
X148681Y161024D02*
Y164961D01*
X149181Y161024D02*
Y164961D01*
X157087Y168898D02*
Y172835D01*
X153150*
Y168898*
X157087*
X153181D02*
Y172835D01*
X153681Y168898D02*
Y172835D01*
X154181Y168898D02*
Y172835D01*
X154681Y168898D02*
Y172835D01*
X155181Y168898D02*
Y172835D01*
X155681Y168898D02*
Y172835D01*
X156181Y168898D02*
Y172835D01*
X156681Y168898D02*
Y172835D01*
X149213Y168898D02*
Y172835D01*
X145276*
Y168898*
X149213*
X145681D02*
Y172835D01*
X146181Y168898D02*
Y172835D01*
X146681Y168898D02*
Y172835D01*
X147181Y168898D02*
Y172835D01*
X147681Y168898D02*
Y172835D01*
X148181Y168898D02*
Y172835D01*
X148681Y168898D02*
Y172835D01*
X149181Y168898D02*
Y172835D01*
X157087Y224016D02*
Y227953D01*
X153150*
Y224016*
X157087*
X153181D02*
Y227953D01*
X153681Y224016D02*
Y227953D01*
X154181Y224016D02*
Y227953D01*
X154681Y224016D02*
Y227953D01*
X155181Y224016D02*
Y227953D01*
X155681Y224016D02*
Y227953D01*
X156181Y224016D02*
Y227953D01*
X156681Y224016D02*
Y227953D01*
X149213Y224016D02*
Y227953D01*
X145276*
Y224016*
X149213*
X145681D02*
Y227953D01*
X146181Y224016D02*
Y227953D01*
X146681Y224016D02*
Y227953D01*
X147181Y224016D02*
Y227953D01*
X147681Y224016D02*
Y227953D01*
X148181Y224016D02*
Y227953D01*
X148681Y224016D02*
Y227953D01*
X149181Y224016D02*
Y227953D01*
X157087Y216142D02*
Y220079D01*
X153150*
Y216142*
X157087*
X153181D02*
Y220079D01*
X153681Y216142D02*
Y220079D01*
X154181Y216142D02*
Y220079D01*
X154681Y216142D02*
Y220079D01*
X155181Y216142D02*
Y220079D01*
X155681Y216142D02*
Y220079D01*
X156181Y216142D02*
Y220079D01*
X156681Y216142D02*
Y220079D01*
X149213Y216142D02*
Y220079D01*
X145276*
Y216142*
X149213*
X145681D02*
Y220079D01*
X146181Y216142D02*
Y220079D01*
X146681Y216142D02*
Y220079D01*
X147181Y216142D02*
Y220079D01*
X147681Y216142D02*
Y220079D01*
X148181Y216142D02*
Y220079D01*
X148681Y216142D02*
Y220079D01*
X149181Y216142D02*
Y220079D01*
X164961D02*
Y216142D01*
X168898*
Y220079*
X164961*
X165366Y216142D02*
Y220079D01*
X165866Y216142D02*
Y220079D01*
X166366Y216142D02*
Y220079D01*
X166866Y216142D02*
Y220079D01*
X167366Y216142D02*
Y220079D01*
X167866Y216142D02*
Y220079D01*
X168366Y216142D02*
Y220079D01*
X168866Y216142D02*
Y220079D01*
X172835D02*
Y216142D01*
X176772*
Y220079*
X172835*
X172866Y216142D02*
Y220079D01*
X173366Y216142D02*
Y220079D01*
X173866Y216142D02*
Y220079D01*
X174366Y216142D02*
Y220079D01*
X174866Y216142D02*
Y220079D01*
X175366Y216142D02*
Y220079D01*
X175866Y216142D02*
Y220079D01*
X176366Y216142D02*
Y220079D01*
X164961Y227953D02*
Y224016D01*
X168898*
Y227953*
X164961*
X165366Y224016D02*
Y227953D01*
X165866Y224016D02*
Y227953D01*
X166366Y224016D02*
Y227953D01*
X166866Y224016D02*
Y227953D01*
X167366Y224016D02*
Y227953D01*
X167866Y224016D02*
Y227953D01*
X168366Y224016D02*
Y227953D01*
X168866Y224016D02*
Y227953D01*
X172835D02*
Y224016D01*
X176772*
Y227953*
X172835*
X172866Y224016D02*
Y227953D01*
X173366Y224016D02*
Y227953D01*
X173866Y224016D02*
Y227953D01*
X174366Y224016D02*
Y227953D01*
X174866Y224016D02*
Y227953D01*
X175366Y224016D02*
Y227953D01*
X175866Y224016D02*
Y227953D01*
X176366Y224016D02*
Y227953D01*
X273228Y161024D02*
Y164961D01*
X269291*
Y161024*
X273228*
X269323D02*
Y164961D01*
X269823Y161024D02*
Y164961D01*
X270323Y161024D02*
Y164961D01*
X270823Y161024D02*
Y164961D01*
X271323Y161024D02*
Y164961D01*
X271823Y161024D02*
Y164961D01*
X272323Y161024D02*
Y164961D01*
X272823Y161024D02*
Y164961D01*
X265354Y161024D02*
Y164961D01*
X261417*
Y161024*
X265354*
X261823D02*
Y164961D01*
X262323Y161024D02*
Y164961D01*
X262823Y161024D02*
Y164961D01*
X263323Y161024D02*
Y164961D01*
X263823Y161024D02*
Y164961D01*
X264323Y161024D02*
Y164961D01*
X264823Y161024D02*
Y164961D01*
X265323Y161024D02*
Y164961D01*
X145276Y196457D02*
Y192520D01*
X149213*
Y196457*
X145276*
X145681Y192520D02*
Y196457D01*
X146181Y192520D02*
Y196457D01*
X146681Y192520D02*
Y196457D01*
X147181Y192520D02*
Y196457D01*
X147681Y192520D02*
Y196457D01*
X148181Y192520D02*
Y196457D01*
X148681Y192520D02*
Y196457D01*
X149181Y192520D02*
Y196457D01*
X153150D02*
Y192520D01*
X157087*
Y196457*
X153150*
X153181Y192520D02*
Y196457D01*
X153681Y192520D02*
Y196457D01*
X154181Y192520D02*
Y196457D01*
X154681Y192520D02*
Y196457D01*
X155181Y192520D02*
Y196457D01*
X155681Y192520D02*
Y196457D01*
X156181Y192520D02*
Y196457D01*
X156681Y192520D02*
Y196457D01*
X879528Y139370D02*
X883465D01*
Y143307*
X879528*
Y139370*
X879996D02*
Y143307D01*
X880496Y139370D02*
Y143307D01*
X880996Y139370D02*
Y143307D01*
X881496Y139370D02*
Y143307D01*
X881996Y139370D02*
Y143307D01*
X882496Y139370D02*
Y143307D01*
X882996Y139370D02*
Y143307D01*
X879528Y147244D02*
X883465D01*
Y151181*
X879528*
Y147244*
X879996D02*
Y151181D01*
X880496Y147244D02*
Y151181D01*
X880996Y147244D02*
Y151181D01*
X881496Y147244D02*
Y151181D01*
X881996Y147244D02*
Y151181D01*
X882496Y147244D02*
Y151181D01*
X882996Y147244D02*
Y151181D01*
X676772Y393307D02*
Y389370D01*
X680709*
Y393307*
X676772*
X677177Y389370D02*
Y393307D01*
X677677Y389370D02*
Y393307D01*
X678177Y389370D02*
Y393307D01*
X678677Y389370D02*
Y393307D01*
X679177Y389370D02*
Y393307D01*
X679677Y389370D02*
Y393307D01*
X680177Y389370D02*
Y393307D01*
X680677Y389370D02*
Y393307D01*
X684646D02*
Y389370D01*
X688583*
Y393307*
X684646*
X684677Y389370D02*
Y393307D01*
X685177Y389370D02*
Y393307D01*
X685677Y389370D02*
Y393307D01*
X686177Y389370D02*
Y393307D01*
X686677Y389370D02*
Y393307D01*
X687177Y389370D02*
Y393307D01*
X687677Y389370D02*
Y393307D01*
X688177Y389370D02*
Y393307D01*
X838189Y172835D02*
Y176772D01*
X834252*
Y172835*
X838189*
X834283D02*
Y176772D01*
X834783Y172835D02*
Y176772D01*
X835283Y172835D02*
Y176772D01*
X835783Y172835D02*
Y176772D01*
X836283Y172835D02*
Y176772D01*
X836783Y172835D02*
Y176772D01*
X837283Y172835D02*
Y176772D01*
X837783Y172835D02*
Y176772D01*
X830315Y172835D02*
Y176772D01*
X826378*
Y172835*
X830315*
X826783D02*
Y176772D01*
X827283Y172835D02*
Y176772D01*
X827783Y172835D02*
Y176772D01*
X828283Y172835D02*
Y176772D01*
X828783Y172835D02*
Y176772D01*
X829283Y172835D02*
Y176772D01*
X829783Y172835D02*
Y176772D01*
X830283Y172835D02*
Y176772D01*
X639370Y145276D02*
X635433D01*
Y141339*
X639370*
Y145276*
X635902Y141339D02*
Y145276D01*
X636402Y141339D02*
Y145276D01*
X636902Y141339D02*
Y145276D01*
X637402Y141339D02*
Y145276D01*
X637902Y141339D02*
Y145276D01*
X638402Y141339D02*
Y145276D01*
X638902Y141339D02*
Y145276D01*
X639370Y137402D02*
X635433D01*
Y133465*
X639370*
Y137402*
X635902Y133465D02*
Y137402D01*
X636402Y133465D02*
Y137402D01*
X636902Y133465D02*
Y137402D01*
X637402Y133465D02*
Y137402D01*
X637902Y133465D02*
Y137402D01*
X638402Y133465D02*
Y137402D01*
X638902Y133465D02*
Y137402D01*
X627559Y157087D02*
X631496D01*
Y161024*
X627559*
Y157087*
X628028D02*
Y161024D01*
X628528Y157087D02*
Y161024D01*
X629028Y157087D02*
Y161024D01*
X629528Y157087D02*
Y161024D01*
X630028Y157087D02*
Y161024D01*
X630528Y157087D02*
Y161024D01*
X631028Y157087D02*
Y161024D01*
X627559Y164961D02*
X631496D01*
Y168898*
X627559*
Y164961*
X628028D02*
Y168898D01*
X628528Y164961D02*
Y168898D01*
X629028Y164961D02*
Y168898D01*
X629528Y164961D02*
Y168898D01*
X630028Y164961D02*
Y168898D01*
X630528Y164961D02*
Y168898D01*
X631028Y164961D02*
Y168898D01*
X580315Y241732D02*
X584252D01*
Y245669*
X580315*
Y241732*
X580783D02*
Y245669D01*
X581283Y241732D02*
Y245669D01*
X581783Y241732D02*
Y245669D01*
X582283Y241732D02*
Y245669D01*
X582783Y241732D02*
Y245669D01*
X583283Y241732D02*
Y245669D01*
X583783Y241732D02*
Y245669D01*
X580315Y249606D02*
X584252D01*
Y253543*
X580315*
Y249606*
X580783D02*
Y253543D01*
X581283Y249606D02*
Y253543D01*
X581783Y249606D02*
Y253543D01*
X582283Y249606D02*
Y253543D01*
X582783Y249606D02*
Y253543D01*
X583283Y249606D02*
Y253543D01*
X583783Y249606D02*
Y253543D01*
X826378Y168898D02*
Y164961D01*
X830315*
Y168898*
X826378*
X826783Y164961D02*
Y168898D01*
X827283Y164961D02*
Y168898D01*
X827783Y164961D02*
Y168898D01*
X828283Y164961D02*
Y168898D01*
X828783Y164961D02*
Y168898D01*
X829283Y164961D02*
Y168898D01*
X829783Y164961D02*
Y168898D01*
X830283Y164961D02*
Y168898D01*
X834252D02*
Y164961D01*
X838189*
Y168898*
X834252*
X834283Y164961D02*
Y168898D01*
X834783Y164961D02*
Y168898D01*
X835283Y164961D02*
Y168898D01*
X835783Y164961D02*
Y168898D01*
X836283Y164961D02*
Y168898D01*
X836783Y164961D02*
Y168898D01*
X837283Y164961D02*
Y168898D01*
X837783Y164961D02*
Y168898D01*
X631496Y145276D02*
X627559D01*
Y141339*
X631496*
Y145276*
X628028Y141339D02*
Y145276D01*
X628528Y141339D02*
Y145276D01*
X629028Y141339D02*
Y145276D01*
X629528Y141339D02*
Y145276D01*
X630028Y141339D02*
Y145276D01*
X630528Y141339D02*
Y145276D01*
X631028Y141339D02*
Y145276D01*
X631496Y137402D02*
X627559D01*
Y133465*
X631496*
Y137402*
X628028Y133465D02*
Y137402D01*
X628528Y133465D02*
Y137402D01*
X629028Y133465D02*
Y137402D01*
X629528Y133465D02*
Y137402D01*
X630028Y133465D02*
Y137402D01*
X630528Y133465D02*
Y137402D01*
X631028Y133465D02*
Y137402D01*
X893307Y196457D02*
X897244D01*
Y200394*
X893307*
Y196457*
X893776D02*
Y200394D01*
X894276Y196457D02*
Y200394D01*
X894776Y196457D02*
Y200394D01*
X895276Y196457D02*
Y200394D01*
X895776Y196457D02*
Y200394D01*
X896276Y196457D02*
Y200394D01*
X896776Y196457D02*
Y200394D01*
X893307Y204331D02*
X897244D01*
Y208268*
X893307*
Y204331*
X893776D02*
Y208268D01*
X894276Y204331D02*
Y208268D01*
X894776Y204331D02*
Y208268D01*
X895276Y204331D02*
Y208268D01*
X895776Y204331D02*
Y208268D01*
X896276Y204331D02*
Y208268D01*
X896776Y204331D02*
Y208268D01*
X893307Y176772D02*
X897244D01*
Y180709*
X893307*
Y176772*
X893776D02*
Y180709D01*
X894276Y176772D02*
Y180709D01*
X894776Y176772D02*
Y180709D01*
X895276Y176772D02*
Y180709D01*
X895776Y176772D02*
Y180709D01*
X896276Y176772D02*
Y180709D01*
X896776Y176772D02*
Y180709D01*
X893307Y184646D02*
X897244D01*
Y188583*
X893307*
Y184646*
X893776D02*
Y188583D01*
X894276Y184646D02*
Y188583D01*
X894776Y184646D02*
Y188583D01*
X895276Y184646D02*
Y188583D01*
X895776Y184646D02*
Y188583D01*
X896276Y184646D02*
Y188583D01*
X896776Y184646D02*
Y188583D01*
X727953Y393307D02*
Y389370D01*
X731890*
Y393307*
X727953*
X728358Y389370D02*
Y393307D01*
X728858Y389370D02*
Y393307D01*
X729358Y389370D02*
Y393307D01*
X729858Y389370D02*
Y393307D01*
X730358Y389370D02*
Y393307D01*
X730858Y389370D02*
Y393307D01*
X731358Y389370D02*
Y393307D01*
X731858Y389370D02*
Y393307D01*
X735827D02*
Y389370D01*
X739764*
Y393307*
X735827*
X735858Y389370D02*
Y393307D01*
X736358Y389370D02*
Y393307D01*
X736858Y389370D02*
Y393307D01*
X737358Y389370D02*
Y393307D01*
X737858Y389370D02*
Y393307D01*
X738358Y389370D02*
Y393307D01*
X738858Y389370D02*
Y393307D01*
X739358Y389370D02*
Y393307D01*
X905118Y168898D02*
X901181D01*
Y164961*
X905118*
Y168898*
X901650Y164961D02*
Y168898D01*
X902150Y164961D02*
Y168898D01*
X902650Y164961D02*
Y168898D01*
X903150Y164961D02*
Y168898D01*
X903650Y164961D02*
Y168898D01*
X904150Y164961D02*
Y168898D01*
X904650Y164961D02*
Y168898D01*
X905118Y161024D02*
X901181D01*
Y157087*
X905118*
Y161024*
X901650Y157087D02*
Y161024D01*
X902150Y157087D02*
Y161024D01*
X902650Y157087D02*
Y161024D01*
X903150Y157087D02*
Y161024D01*
X903650Y157087D02*
Y161024D01*
X904150Y157087D02*
Y161024D01*
X904650Y157087D02*
Y161024D01*
X897244Y168898D02*
X893307D01*
Y164961*
X897244*
Y168898*
X893776Y164961D02*
Y168898D01*
X894276Y164961D02*
Y168898D01*
X894776Y164961D02*
Y168898D01*
X895276Y164961D02*
Y168898D01*
X895776Y164961D02*
Y168898D01*
X896276Y164961D02*
Y168898D01*
X896776Y164961D02*
Y168898D01*
X897244Y161024D02*
X893307D01*
Y157087*
X897244*
Y161024*
X893776Y157087D02*
Y161024D01*
X894276Y157087D02*
Y161024D01*
X894776Y157087D02*
Y161024D01*
X895276Y157087D02*
Y161024D01*
X895776Y157087D02*
Y161024D01*
X896276Y157087D02*
Y161024D01*
X896776Y157087D02*
Y161024D01*
X651181Y418898D02*
Y414961D01*
X655118*
Y418898*
X651181*
X651587Y414961D02*
Y418898D01*
X652087Y414961D02*
Y418898D01*
X652587Y414961D02*
Y418898D01*
X653087Y414961D02*
Y418898D01*
X653587Y414961D02*
Y418898D01*
X654087Y414961D02*
Y418898D01*
X654587Y414961D02*
Y418898D01*
X655087Y414961D02*
Y418898D01*
X659055D02*
Y414961D01*
X662992*
Y418898*
X659055*
X659087Y414961D02*
Y418898D01*
X659587Y414961D02*
Y418898D01*
X660087Y414961D02*
Y418898D01*
X660587Y414961D02*
Y418898D01*
X661087Y414961D02*
Y418898D01*
X661587Y414961D02*
Y418898D01*
X662087Y414961D02*
Y418898D01*
X662587Y414961D02*
Y418898D01*
X294488Y177165D02*
X300000D01*
Y181890*
X294488*
Y177165*
X294913D02*
Y181890D01*
X295413Y177165D02*
Y181890D01*
X295913Y177165D02*
Y181890D01*
X296413Y177165D02*
Y181890D01*
X296913Y177165D02*
Y181890D01*
X297413Y177165D02*
Y181890D01*
X297913Y177165D02*
Y181890D01*
X298413Y177165D02*
Y181890D01*
X298913Y177165D02*
Y181890D01*
X299413Y177165D02*
Y181890D01*
X299913Y177165D02*
Y181890D01*
X291339Y183465D02*
Y188189D01*
X285827*
Y183465*
X291339*
X285913D02*
Y188189D01*
X286413Y183465D02*
Y188189D01*
X286913Y183465D02*
Y188189D01*
X287413Y183465D02*
Y188189D01*
X287913Y183465D02*
Y188189D01*
X288413Y183465D02*
Y188189D01*
X288913Y183465D02*
Y188189D01*
X289413Y183465D02*
Y188189D01*
X289913Y183465D02*
Y188189D01*
X290413Y183465D02*
Y188189D01*
X290913Y183465D02*
Y188189D01*
G54D38*
X812598Y387402D03*
Y437402D03*
X782598D03*
Y387402D03*
Y407402D03*
X871654Y387402D03*
Y437402D03*
X841654D03*
Y387402D03*
Y407402D03*
G54D92*
X115748Y115748D03*
Y477953D03*
X871654D03*
Y115748D03*
X903150D03*
X970079D03*
Y351969D03*
X903150D03*
X1015354Y111811D03*
Y383465D03*
G54D93*
X596063Y378543D03*
Y443504D03*
G54D94*
X371654Y267323D03*
X363780Y275197D03*
Y267323D03*
X355906Y275197D03*
Y267323D03*
X348031Y275197D03*
Y267323D03*
X340157Y275197D03*
Y267323D03*
X332283Y275197D03*
Y267323D03*
X324409Y275197D03*
Y267323D03*
X316535Y275197D03*
Y267323D03*
X308661Y275197D03*
Y267323D03*
X300787Y275197D03*
Y267323D03*
X292913Y275197D03*
Y267323D03*
X285039Y275197D03*
Y267323D03*
X277165Y275197D03*
Y267323D03*
X269291Y275197D03*
Y267323D03*
X261417Y275197D03*
Y267323D03*
X253543Y275197D03*
Y267323D03*
X245669Y275197D03*
Y267323D03*
X237795Y275197D03*
Y267323D03*
X229921Y275197D03*
Y267323D03*
X222047Y275197D03*
Y267323D03*
X214173Y275197D03*
Y267323D03*
X206299Y275197D03*
Y267323D03*
X198425Y275197D03*
Y267323D03*
X190551Y275197D03*
Y267323D03*
Y483858D03*
X198425Y475984D03*
Y483858D03*
X206299Y475984D03*
Y483858D03*
X214173Y475984D03*
Y483858D03*
X222047Y475984D03*
Y483858D03*
X229921Y475984D03*
Y483858D03*
X237795Y475984D03*
Y483858D03*
X245669Y475984D03*
Y483858D03*
X253543Y475984D03*
Y483858D03*
X261417Y475984D03*
Y483858D03*
X269291Y475984D03*
Y483858D03*
X277165Y475984D03*
Y483858D03*
X285039Y475984D03*
Y483858D03*
X292913Y475984D03*
Y483858D03*
X300787Y475984D03*
Y483858D03*
X308661Y475984D03*
Y483858D03*
X316535Y475984D03*
Y483858D03*
X324409Y475984D03*
Y483858D03*
X332283Y475984D03*
Y483858D03*
X340157Y475984D03*
Y483858D03*
X348031Y475984D03*
Y483858D03*
X355906Y475984D03*
Y483858D03*
X363780Y475984D03*
Y483858D03*
X371654Y475984D03*
Y483858D03*
X596063Y395276D03*
G54D95*
Y424803D03*
X997638Y257480D03*
X1005512D03*
X997638Y225984D03*
X1005512D03*
X997638Y194488D03*
X1005512D03*
X580315Y285039D03*
Y292913D03*
X590157Y227953D03*
X582283D03*
X796850Y316535D03*
X788976D03*
X855906D03*
X848031D03*
X997638Y351969D03*
X1005512D03*
X997638Y320472D03*
X1005512D03*
X997638Y288976D03*
X1005512D03*
X580315Y353937D03*
Y334252D03*
G54D96*
X686614Y466142D03*
X672864D03*
X659055D03*
X737795D03*
X724045D03*
X710236D03*
X788976D03*
X775226D03*
X761417D03*
X840157D03*
X826407D03*
X812598D03*
G54D97*
X468228Y136614D03*
X460197D03*
X464213Y146614D03*
X456181D03*
X603937Y296850D03*
Y306693D03*
X627559Y111811D03*
X637402D03*
X647244D03*
X568504D03*
X578346D03*
X588189D03*
X598031D03*
X942520Y355906D03*
X932677D03*
X942520Y115748D03*
X932677D03*
X509449Y111811D03*
X519291D03*
X529134D03*
X538976D03*
X263228Y182677D03*
X501575Y137244D03*
X568504Y480079D03*
X578504Y470079D03*
Y480079D03*
X588504Y470079D03*
Y480079D03*
X598504Y470079D03*
Y480079D03*
X608504Y470079D03*
Y480079D03*
X618504Y470079D03*
Y480079D03*
X652992Y403150D03*
Y373150D03*
X662992D03*
X704173Y403150D03*
Y373150D03*
X714173D03*
X727953Y131496D03*
X724016Y107874D03*
X946457Y141339D03*
X922835Y145276D03*
X194488Y184488D03*
Y174488D03*
Y164488D03*
X224488D03*
Y174488D03*
Y184488D03*
Y194488D03*
X603937Y277165D03*
X414961Y182677D03*
X842126Y275197D03*
X613780Y263386D03*
X942520Y324409D03*
X328346Y115748D03*
G54D100*
X273228Y182677D03*
X501575Y147244D03*
X568504Y470079D03*
X662992Y403150D03*
X714173D03*
X194488Y194488D03*
G54D101*
X747637Y123622D03*
X767323D03*
G54D104*
X288976Y119685D03*
X111811Y304724D03*
X1033071Y210236D03*
X119685Y162992D03*
G54D105*
X288976Y111811D03*
X281102Y119685D03*
Y111811D03*
X273228Y119685D03*
Y111811D03*
X265354Y119685D03*
Y111811D03*
X257480Y119685D03*
Y111811D03*
X249606Y119685D03*
Y111811D03*
X241732Y119685D03*
Y111811D03*
X233858Y119685D03*
Y111811D03*
X225984Y119685D03*
Y111811D03*
X218110Y119685D03*
Y111811D03*
X210236Y119685D03*
Y111811D03*
X202362Y119685D03*
Y111811D03*
X194488Y119685D03*
Y111811D03*
X186614Y119685D03*
Y111811D03*
X178740Y119685D03*
Y111811D03*
X170866Y119685D03*
Y111811D03*
X162992Y119685D03*
Y111811D03*
X119685Y304724D03*
X111811Y296850D03*
X119685D03*
X111811Y288976D03*
X119685D03*
X111811Y281102D03*
X119685D03*
X111811Y273228D03*
X119685D03*
X111811Y265354D03*
X119685D03*
X111811Y257480D03*
X119685D03*
X111811Y249606D03*
X119685D03*
X1025197Y210236D03*
X1033071Y202362D03*
X1025197D03*
X1033071Y194488D03*
X1025197D03*
X1033071Y186614D03*
X1025197D03*
X1033071Y178740D03*
X1025197D03*
X1033071Y170866D03*
X1025197D03*
X1033071Y162992D03*
X1025197D03*
X1033071Y155118D03*
X1025197D03*
X111811Y162992D03*
X119685Y170866D03*
X111811D03*
X119685Y178740D03*
X111811D03*
X119685Y186614D03*
X111811D03*
X119685Y194488D03*
X111811D03*
G54D106*
X371654Y275197D03*
X190551Y475984D03*
G54D107*
X664961Y299803D03*
Y282087D03*
X647244Y230906D03*
Y248622D03*
X968110Y274213D03*
Y291929D03*
G54D108*
X835236Y245669D03*
X817520D03*
G54D109*
X702362Y330315D03*
Y350000D03*
X865748Y188583D03*
Y208268D03*
X909055Y229921D03*
Y249606D03*
G54D110*
X653150Y200394D03*
X633465D03*
G54D111*
X320472Y232874D03*
Y250591D03*
X285039Y232874D03*
Y250591D03*
X369685Y232874D03*
Y250591D03*
X334252Y232874D03*
Y250591D03*
X418898Y232874D03*
Y250591D03*
X383465Y232874D03*
Y250591D03*
X468110Y232874D03*
Y250591D03*
X432677Y232874D03*
Y250591D03*
X231890Y232874D03*
Y250591D03*
X196457Y232874D03*
Y250591D03*
G54D113*
X605689Y174292D03*
X600689D03*
X595689D03*
X590689D03*
X585689D03*
X580689D03*
X575689D03*
X570689D03*
Y151692D03*
X575689D03*
X580689D03*
X585689D03*
X590689D03*
X595689D03*
X600689D03*
X605689D03*
X532697Y174292D03*
X527697D03*
X522697D03*
X517697D03*
Y151692D03*
X522697D03*
X527697D03*
X532697D03*
X469705Y205788D03*
X464705D03*
X459705D03*
X454705D03*
Y183188D03*
X459705D03*
X464705D03*
X469705D03*
G54D114*
X517834Y219331D03*
Y214331D03*
Y209331D03*
Y204331D03*
Y199331D03*
Y194331D03*
Y189331D03*
X540434D03*
Y194331D03*
Y199331D03*
Y204331D03*
Y209331D03*
Y214331D03*
Y219331D03*
X147755Y280354D03*
Y275354D03*
Y270354D03*
Y265354D03*
Y260354D03*
Y255354D03*
Y250354D03*
X170355D03*
Y255354D03*
Y260354D03*
Y265354D03*
Y270354D03*
Y275354D03*
Y280354D03*
X517834Y253169D03*
Y248169D03*
Y243169D03*
Y238169D03*
X540434D03*
Y243169D03*
Y248169D03*
Y253169D03*
X679251Y127185D03*
Y122185D03*
Y117185D03*
Y112185D03*
X701851D03*
Y117185D03*
Y122185D03*
Y127185D03*
X944999Y186240D03*
Y181240D03*
Y176240D03*
Y171240D03*
X967599D03*
Y176240D03*
Y181240D03*
Y186240D03*
X738306Y280728D03*
Y275728D03*
Y270728D03*
Y265728D03*
X760906D03*
Y270728D03*
Y275728D03*
Y280728D03*
X843583Y133839D03*
Y138839D03*
Y143839D03*
Y148839D03*
X820983D03*
Y143839D03*
Y138839D03*
Y133839D03*
G54D115*
X332266Y156364D03*
X334236D03*
X336206D03*
X338176D03*
X340146D03*
X342116D03*
X344086D03*
X346056D03*
X348026D03*
X349996D03*
X351966D03*
X353936D03*
X355906D03*
X357876D03*
X359846D03*
X361816D03*
X363786D03*
X365756D03*
X367726D03*
X369696D03*
X371666D03*
X373636D03*
X375606D03*
X377576D03*
X379546D03*
Y216864D03*
X377576D03*
X375606D03*
X373636D03*
X371666D03*
X369696D03*
X367726D03*
X365756D03*
X363786D03*
X361816D03*
X359846D03*
X357876D03*
X355906D03*
X353936D03*
X351966D03*
X349996D03*
X348026D03*
X346056D03*
X344086D03*
X342116D03*
X340146D03*
X338176D03*
X336206D03*
X334236D03*
X332266D03*
G54D116*
X325656Y210254D03*
Y208284D03*
Y206314D03*
Y204344D03*
Y202374D03*
Y200404D03*
Y198434D03*
Y196464D03*
Y194494D03*
Y192524D03*
Y190554D03*
Y188584D03*
Y186614D03*
Y184644D03*
Y182674D03*
Y180704D03*
Y178734D03*
Y176764D03*
Y174794D03*
Y172824D03*
Y170854D03*
Y168884D03*
Y166914D03*
Y164944D03*
Y162974D03*
X386156D03*
Y164944D03*
Y166914D03*
Y168884D03*
Y170854D03*
Y172824D03*
Y174794D03*
Y176764D03*
Y178734D03*
Y180704D03*
Y182674D03*
Y184644D03*
Y186614D03*
Y188584D03*
Y190554D03*
Y192524D03*
Y194494D03*
Y196464D03*
Y198434D03*
Y200404D03*
Y202374D03*
Y204344D03*
Y206314D03*
Y208284D03*
Y210254D03*
G54D118*
X297244Y185827D03*
X288583Y179528D03*
G54D127*
X481890Y127559D03*
X442520D03*
G54D128*
X757480Y172835D03*
Y239764D03*
G54D129*
X123425Y360827D03*
Y364764D03*
Y366732D03*
Y368701D03*
Y370669D03*
Y372638D03*
Y374606D03*
Y380512D03*
Y382480D03*
Y384449D03*
Y386417D03*
Y388386D03*
Y390354D03*
Y392323D03*
Y394291D03*
Y396260D03*
Y398228D03*
Y400197D03*
Y402165D03*
Y404134D03*
Y406102D03*
Y408071D03*
Y410039D03*
Y412008D03*
Y413976D03*
Y415945D03*
Y417913D03*
Y419882D03*
Y421850D03*
Y423819D03*
Y425787D03*
Y429724D03*
Y431693D03*
Y435630D03*
Y437598D03*
G54D130*
Y362795D03*
Y376575D03*
Y378543D03*
Y427756D03*
Y433661D03*
G54D131*
X112795Y443701D03*
Y354724D03*
G54D132*
X504575Y251575D03*
X498575D03*
G54D133*
X891339Y369685D03*
X897244D03*
X975984D03*
X981890D03*
X989764Y397244D03*
X995669D03*
X1035039D03*
X1040945D03*
X0Y0D02*
M02*
